<svg xmlns="http://www.w3.org/2000/svg" width="200" height="200">
  <path fill-rule="evenodd" d="M98 4c-14 2-20 6-29 15-6 7-6 9-14 37-6 19-13 37-22 55-2 6-1 11 5 19 2 2 2 1 1 2-3 0-12 4-14 7-2 1-2 3-1 5-2 0-3 1-6 5-3 3-4 6-4 7h2c7-2 8-1 26 13 11 8 17 11 32 17 10 4 20 9 25 13l2 1 1-1c5-4 15-9 24-12 15-5 28-12 40-23 10-8 14-10 21-8h1c0-3-7-12-10-12v-4c-2-3-10-7-14-8-2-1-2 0 0-3 4-6 6-10 5-16l-4-10c-10-20-18-41-23-62-4-22-22-37-44-37M79 30l-4 10-2 5-5 14v1l1-1 14-10c8-7 12-9 18-9s8 1 16 8l15 11-1-2c-4-9-8-18-10-27 4 6 7 12 10 21l3 8 8 25a490 490 0 0 0-2-2l-4-11c-3-7-8-11-22-21-12-8-15-8-32 3-14 10-16 13-20 28l-8 20 4-17a220 220 0 0 1 22-57l-1 3m41 33 2 1h1-1l-14 3c-3 2-5 7-3 12 0 3 0 3 1 1 0-2 0-3 1-2h2l3 1c3 2 7 1 10-1s5 0 4 4l-2 8-4 10c-2 7-9 15-15 18h-8c-6-2-13-11-16-20l-3-8c-2-4-3-5-3-9s1-5 4-3c3 3 7 3 10 1l3-1h1v3l1 1v-1l2-2v4l1 6v1-18l-4-4-2-1-12-3h-1 1c3-2 6-2 14 1l5 1h8l3-1c5-2 8-3 11-2m-35 8 5 3 1 1h-9c-2-1-2-2-2-3 1-1 3-2 5-1m35 0c1 1 1 3-1 4h-5c-4 0-4 0-2-2 3-2 7-3 8-2M68 85l-3 17c-3 13-3 20-2 24 1 6 3 9 6 14 0 2 0 2-2-2-7-8-9-15-7-23l1-5 2-12 5-16v-1 4m67 4 1 6 3 24c0 6-1 9-6 17l-4 6 7-19-1-18-1-19 1 3m-41 1v2c-1 2 0 4 3 6s4 2 5 1l6-5v-4 1c0 1-1 3-2 2l-4 1h-4l-3-1h-1v-3m2 11-4 2-2 1 4 1h16c3-1 2-2 0-2l-4-1c-3-2-3-2-4-1h-6m9 6c-3 2-5 2-8 1-2-1-3-1-1 1 1 2 1 2 5 2h4v-1l1-1c3-2 3-3-1-2m-34 12c1 5 2 9 4 11v1c-4-3-6-9-5-15v-2 2l1 3m-25 4 9 12 14 15c14 13 20 22 24 34l-2-2c-5-9-11-16-18-23-11-9-20-20-26-32l-2-7 1 3m111-2c-2 11-10 21-27 37a89 89 0 0 0-20 23c-2 4-2 4-1 0 7-13 12-20 24-31 10-9 13-12 17-18 4-5 5-7 6-11 1-2 1-2 1 0m-39 1-3 8c-2 3-2 1 0-3l1-4 2-1m-34 2 1 6-1-6-1-2v-1 1l1 2m24 9-1 3c-4 5-8 5-12 1l-2-4 7 5 1 1 2-1 4-4 2-2-1 1m9 8-10 7v-1c2-4 5-5 11-7l-1 1m-32 0 7 3 3 4-5-3-5-3c-2-1-2-1 0-1m-42 5 18 16 15 15-5-4-20-14-7-8-3-7 2 2m77 6c-6 8-15 16-18 16s-13-8-17-13v-1l1 1c6 6 13 10 17 10 4-1 11-6 17-13 2-2 2-2 0 0m40 1c-6 8-14 15-23 20l4-4 19-16m-19 8-13 11 13-13c2-1 2-1 0 2"/>
</svg>
