<svg xmlns="http://www.w3.org/2000/svg" width="200" height="200">
  <path fill-rule="evenodd" d="M125 18c4 4 6 7 6 14-1 12-6 23-14 32l2 1c2 2 5 6 5 8s4-3 6-7c3-7 5-15 5-23v11c0 8-4 16-8 21l-2 1v2c0 3-2 7-4 11v1l2-1c5-3 7-3 11-2 7 2 11 8 11 17v3l4-4c7-9 12-9 18-1s8 17 8 31c0 5 0 5 1 1 4-10 6-20 7-34l1-8c1-4 3-5 5-1l1 1c0-6-5-22-9-31-12-24-35-43-53-43l-4-1 1 1m-61 5c-14 3-30 15-29 23 0 4 4 7 16 12l7 4h-1l-14 7-1 1h8l-3 2-9 7-1 2 6-1-1 1c-3 3-5 7-6 11-1 2-1 2 1 1l3-2v2l1 12 1 3 1-3 1 2c6 13 18 21 32 24 7 1 14 0 25-2 15-2 16-2 19 1 5 5 0 13-11 15v8l1 1 3 2 1 1h3c18 0 31-15 28-30l-1-6c-1-1-1-1 1-1 7 3 12 10 10 15 0 3-2 6-7 10-8 7-11 11-12 18-1 6-3 9-9 12l-2 1h2c4 1 7-1 11-4l5-7c3-6 6-9 12-13 7-4 10-6 12-11 7-15-8-32-29-32h-4l-1-1c-9-5-18-5-30-1-6 3-9 3-15 3h-2l1-2 2-2h-2c-10 0-17-5-19-11-1-2 0-6 1-7h9l-4 4v1c7-2 12-1 16 3l1 2-4 1 1 1 3 1 2 1v2l-1 2v1h3c5 0 11-4 13-9v-1h-1l-3 1h-1l1-1 1-3-2 1h-3l-1-1-1-8 9 7c5 5 7 6 14 7l12 5c1 1 1 1 0 0l-6-6c-2-1-2-1 0-1 4 0 8 1 11 4v-2c-2-5-8-7-16-6-6 1-8 0-14-5l-8-7c-1-1 2-2 4-2 4-1 4 0 4 3l1 2 2-3h3v5l-1 1 3-2 1-1v-1l2 2 1-1c3-5 2-13-2-17h-2c-1 2-3 2-5 0l-3-1-2-1-4-5c-1-1-1-1-1 1v1h-1l-6-5c-6-3-9-5-13-10l-3-3 2 7v2c-6-6-12-10-19-14v2c4 6 16 18 22 21 1 1 1 1 0 0l-2-4 10 4c6 2 10 4 11 6 1 1 1 1 1-1 0-1 1-1 1 1 0 3 0 3 2 2 2 0 2 0 1 1l-1 1h1l3-1h1l-1 1c-1 1-1 1 1 1l6-2c1 0 3 5 2 8v1l-1-1c-6-4-14-4-27-1l-6 2c4 1 7 4 10 12l5 8c1 0 1 0 0 0-2 2-4 1-5-2-2-6-6-11-11-13l-2-1h1c2-1-1-1-5-1-3 0-7 0-6-1l2-1c5-3 5-4 1-6l-1-1h7v-2c-1-2-4-5-10-7l-5-2 7 1c3 1 3 1 2-1-2-1-1-1 0 0l5 2-2-4c-5-7-8-8-17-11-10-3-11-4-12-6-2-4 4-12 14-20l3-2h-2m76 4c12 8 25 24 32 39 6 12 8 26 7 41-2-30-16-58-38-76l-3-4c-1-2-1-2 2 0m-91 7c-8 8-6 14 5 20l2 1c-9-3-16-7-16-11 0-2 4-7 8-10h1m91 3c7 17 10 35 8 53v2-4c0-19-4-37-10-54l2 3m8 7c12 16 20 35 23 55-5-8-12-10-18-5l-1 1v-4c2-17-1-34-7-49l3 2M29 56c-7 2-14 7-16 12-2 3-2 3 0 1 4-3 9-5 12-5 2 0 2 0 1 1-8 6-13 16-13 26 0 14 7 24 20 29 8 3 8 4 0 9s-9 13-4 18c5 4 11 4 20 0s15-3 24 2l13 6h2l1-1 2-1v-7h-1l-12-6c-12-6-17-6-29 0-8 4-13 4-15 0-1-3 1-6 6-8 6-3 9-5 9-9 0-5-3-8-10-13-6-4-10-9-13-14s-3-11-2-16h1v1l6 2v-1c-4-4-4-9 0-14 3-4 7-7 12-7 2 0 2 0 1-1-3-3-10-5-15-4m56 9 4 3 2 1v1c1 3 2 3 5 2h4l2-1h-1c-1-1-4-4-6-4-3-2-11-3-10-2m11 4v1c-1 2-2 2-3 0v-1h3m-28 0 5 2 1 1-1-1h-4c-5 0-10-1-8-2h7m-6 4 2 2-5 3c-2 1-2 1-2-1v-3c2-2 2-2 5-1m-39 2c-2 4-3 8-3 13l-2-4 4-9c1-2 1-2 1 0m92-1c-2 0-2 0 1 2l1 1v-1c0-2-1-3-2-2m-21 0-2 1h1l3-1h-2m-40 5v1l-3 1-2 1 3-4 1-2 1 1v2m8 1-3 6h-1c-2-2-2-3-1-3l2-2 4-2-1 1m-8 4 1 3 1 1-3 2c-2 3-2 3-3 0l-1-5 2-1h3m-7 6 1 3v3c-2 5-1 5-2 2v-9l1 1m-28 2 1 1v3l-1 4v2l-1-2-1-8v-3 1l2 2m39 4v2l-4-3v-1l2-2 1-1v2l1 3m-3 4h1l-1 6-5-2v-5l1-2 2 1 2 2m-29 3 2 3h-3l-2-1h-1l1-6 1 1 2 3m35 0 3 3 1 1h-7l1-2v-4l2 2m14 4-2 1h-2l-1-1-1-2 3 1 3 1m-21 1 2 1v6l-7-8h1l4 1m-26 1h2l1 3 1 4-9-7h5m89 1-4 3-1 1-2-1-3-2 9-2h4l-3 1m-55 0h2l1 2 1 4h-7v-6h3m8 1 5 2-5 2h-1v-1l-2-4 3 1m56 0 7 4 1 1h-8l-1-1-2-2-1-1c0-1 3-2 4-1m-26 3-2 3-4-3 7-2h1l-2 2m-63-1c4 3 6 6 7 8v1l-1-1-5-3-2-1-1-5 2 1m46 0 5 1h1l-1 1-5 3-3-3-1-1 1-1h3m25 2 2 1-1 1-3 3-1 2-4-3 3-5 1-1h1l2 2m12-1 2 2 1 1-3 1-4 2-2-4 5-3 1 1m27 1c5 1 9 3 13 7v1l-3-1h-2l-1-2-8-5h1m-69 1 3 4-7 3-2-3-1-2 1-1 5-2 1 1m15 1c4 3 4 3 2 4-3 4-3 4-8 1l-2-1 2-2 4-3 2 1m-24 4 1 3-8-3c-2-2-2-2 1-2h4c1-1 1-1 2 2m45 0-2 1h-3l1-2 2-1v1l2 1m18-2c2 0 3 2 2 5-1 2 0 2-2 2l-2-1-2-1v-1l-1-4h5m-7 2v3l-4-2h-1l2-1h3m13 1c2 2 3 5 3 9v3l-1-1-3-4v-1h-1l1-2v-3c0-2 0-2 1-1m-37 1 1 1-6 2h-1l3-3 1-1 2 1m-17 0 5 3H75l2-1 4-2h3m76 3 4 2v10l-1-1-3-6-1-4c-1-1-1-1 1-1m-30 2 2 1h1l-2 3-1 2v-2l-1-3-1-1h2m6 4 2 5c1 1 1 1-1 2l-5 3v-5l1-1 1-3c1-2 1-2 2-1m-43 2c-3 1-3 7 0 8v6l-1 7a17 17 0 0 0-3 29c8 6 18 5 24-2 8-8 6-21-4-26l-2-2v-12h1c2-2 1-7-2-8H93m68 7c0 2-2 4-6 5-2 0-2 0-1-1l5-6v-2l1 1 1 3m-56-3v2h-5l-6-1 6-1h5m-75 0v2c1 3 3 5 6 6 2 0 2 0 0 0-4 0-6-3-6-6v-2m37 2 9 5-3-1-13-3h-3l2-1h8m62 1c0 2 0 2-3 2h-2 2l3-3v1m8 2-6 5 1-2v-1l2-1 3-1m-34 5c0 8 0 8 3 10 14 8 9 27-7 27-15-1-19-20-6-27 4-2 4-2 4-10v-5h6v5m25-2-2 4-9 1 2-3 2-2h7m24 4-9 7-2 2 1-1c3-5 6-8 8-8h2m-56 11v3c1 1 3 0 3-2 0-1-2-2-3-1m4 5v2c1 1 3 0 3-1s-2-2-3-1m-11 1c-2 0-2 5 0 9 4 9 18 9 22 0 1-3 2-7 1-9l-1 1c-5 3-9 3-13 1s-7-3-9-2m6 5v1c2 2-1 3-3 2-1-2 1-4 3-3m10 3v2h-1c-1-1 0-2 1-2"/>
</svg>
