<svg xmlns="http://www.w3.org/2000/svg" width="200" height="200" fill="none"><g fill="#000" clip-path="url(#a)"><path fill-rule="evenodd" d="M100.001 23.745c-43.53 0-78.78 34.068-78.78 76.044s35.25 76.045 78.78 76.045 78.78-34.068 78.78-76.045c0-41.976-35.249-76.044-78.78-76.044M19.234 99.789c0-43.104 36.183-78.008 80.767-78.008s80.767 34.904 80.767 78.008c0 43.105-36.183 78.009-80.767 78.009s-80.767-34.904-80.767-78.009" clip-rule="evenodd"/><path fill-rule="evenodd" d="M100.136 67.756c-17.9 0-32.41 14.342-32.41 32.033s14.51 32.033 32.41 32.033 32.411-14.341 32.411-32.033c0-17.691-14.511-32.033-32.411-32.033M65.738 99.79c0-18.776 15.4-33.996 34.398-33.996s34.398 15.22 34.398 33.996-15.4 33.997-34.398 33.997c-18.997 0-34.398-15.221-34.398-33.997" clip-rule="evenodd"/><path d="M98.572.868c-2.255 8.046-7.65 14.894-9.433 23.103-1.992 9.175 1.66 18.08 5.112 26.431 1.952 4.718 3.884 9.573 4.376 14.689.064.658.526 1.227 1.242 1.227.62 0 1.306-.565 1.241-1.227-.884-9.186-5.826-17.207-8.449-25.921-1.262-4.188-2.032-8.611-1.41-12.98.585-4.124 2.314-7.998 4.137-11.719 2.066-4.227 4.312-8.41 5.583-12.955.422-1.522-1.977-2.17-2.399-.648"/><path d="M98.761 1.59c1.828 8.07 7.068 14.825 9.323 22.744 2.534 8.886-.919 17.924-4.311 26.093-1.952 4.708-3.894 9.475-4.61 14.546-.094.658.16 1.316.87 1.512.581.157 1.435-.196 1.529-.86 1.297-9.17 6.453-17.226 8.708-26.146 1.128-4.467 1.575-9.111.72-13.662-.79-4.203-2.702-8.145-4.585-11.96-2.066-4.182-4.212-8.35-5.245-12.92-.353-1.542-2.747-.89-2.399.652M99.412 134.346c-2.255 8.046-7.65 14.894-9.433 23.103-1.992 9.175 1.659 18.081 5.111 26.431 1.952 4.718 3.885 9.573 4.376 14.689.065.658.527 1.227 1.242 1.227.621 0 1.306-.565 1.242-1.227-.884-9.186-5.827-17.207-8.45-25.921-1.261-4.188-2.03-8.611-1.41-12.98.586-4.124 2.315-7.998 4.138-11.719 2.066-4.227 4.311-8.409 5.583-12.955.422-1.522-1.972-2.17-2.4-.648"/><path d="M99.606 135.067c1.828 8.071 7.068 14.826 9.323 22.745 2.533 8.886-.919 17.924-4.311 26.093-1.953 4.708-3.895 9.475-4.61 14.546-.094.658.159 1.316.869 1.512.581.157 1.436-.196 1.53-.859 1.297-9.171 6.453-17.227 8.708-26.147 1.127-4.467 1.574-9.112.72-13.662-.79-4.203-2.702-8.145-4.585-11.959-2.066-4.183-4.212-8.351-5.245-12.922-.358-1.541-2.752-.888-2.4.653M133.57 101.341c8.141 2.229 15.07 7.56 23.376 9.322 9.283 1.969 18.294-1.639 26.743-5.051 4.773-1.93 9.686-3.839 14.862-4.325.665-.064 1.242-.521 1.242-1.228 0-.613-.572-1.29-1.242-1.227-9.294.874-17.41 5.759-26.227 8.351-4.237 1.247-8.713 2.008-13.133 1.394-4.173-.579-8.092-2.288-11.857-4.089-4.277-2.043-8.509-4.262-13.108-5.519-1.535-.422-2.196 1.949-.656 2.372"/><path d="M134.301 101.149c8.166-1.806 15.001-6.986 23.013-9.215 8.991-2.503 18.135.909 26.401 4.262 4.763 1.93 9.587 3.849 14.718 4.556.665.093 1.331-.158 1.53-.86.159-.574-.199-1.418-.87-1.512-9.278-1.28-17.43-6.377-26.455-8.605-4.52-1.115-9.219-1.557-13.824-.712-4.252.78-8.24 2.67-12.1 4.53-4.232 2.043-8.449 4.164-13.074 5.185-1.559.353-.899 2.72.661 2.371M66.43 98.646c-8.141-2.23-15.07-7.56-23.376-9.323-9.284-1.969-18.294 1.64-26.743 5.051-4.774 1.93-9.686 3.84-14.862 4.326-.666.063-1.242.52-1.242 1.227 0 .613.571 1.291 1.242 1.227 9.293-.874 17.41-5.758 26.227-8.35 4.237-1.248 8.712-2.008 13.133-1.395 4.172.58 8.092 2.288 11.857 4.09 4.277 2.042 8.509 4.26 13.108 5.518 1.54.417 2.196-1.954.656-2.371"/><path d="M65.699 98.832c-8.166 1.807-15.001 6.986-23.013 9.215-8.99 2.504-18.135-.908-26.4-4.261-4.764-1.93-9.588-3.85-14.719-4.556-.665-.094-1.33.157-1.53.859-.158.574.2 1.419.87 1.512 9.279 1.281 17.43 6.377 26.455 8.606 4.52 1.114 9.22 1.556 13.824.712 4.252-.781 8.24-2.671 12.1-4.532 4.232-2.042 8.45-4.163 13.074-5.184 1.56-.348.899-2.715-.661-2.37M86.21 91.635a11.13 11.13 0 0 0 5.915 3.373c.636.132 1.371-.182 1.53-.86.144-.613-.189-1.369-.869-1.511a10.6 10.6 0 0 1-1.654-.491c-.15-.06-.005-.01.06.024-.11-.064-.239-.103-.353-.157a9 9 0 0 1-.686-.358q-.317-.184-.62-.383-.163-.111-.318-.221l-.045-.035c.149.118-.045-.039-.08-.063a10 10 0 0 1-1.122-1.06c-.437-.482-1.322-.472-1.759 0-.477.52-.466 1.231 0 1.742M111.486 89.799c-.337.368-.7.717-1.087 1.031-.055.044-.11.098-.169.133.064-.035.174-.128.044-.035-.104.074-.208.152-.317.221q-.321.215-.656.407a8 8 0 0 1-.651.34l-.353.161c-.153.069.219-.083.06-.024-.069.024-.134.054-.199.078a10 10 0 0 1-1.49.427c-.636.133-1.063.909-.869 1.513.219.662.844.996 1.53.859a11.17 11.17 0 0 0 5.916-3.373c.432-.476.511-1.272 0-1.738-.472-.432-1.292-.51-1.759 0"/><path fill-rule="evenodd" d="M98.728 119.894a.7.7 0 0 0-.363-.099c-.334.003-.688.151-1.19.389q-1.41.67-2.826 1.34l-.644-1.328q1.417-.67 2.825-1.34h.001l.021-.01c.452-.214 1.092-.517 1.8-.524.733-.007 1.724.412 1.958 1.374l-1.45.344c-.006-.026-.032-.084-.132-.146" clip-rule="evenodd"/><path fill-rule="evenodd" d="M100.078 119.696c.234-.962 1.225-1.381 1.958-1.374.708.007 1.348.31 1.799.524l.021.01h.002q1.408.67 2.825 1.34l-.644 1.328c-.943-.446-1.888-.893-2.827-1.34-.501-.238-.855-.386-1.19-.389a.7.7 0 0 0-.362.099c-.1.062-.127.12-.133.146zM97.437 122.755c-1.51-.273-3.308-.599-4.71-1.69l.921-1.157c1.068.831 2.49 1.115 4.068 1.401.387.068.766.137 1.145.205.447.081.892.161 1.347.241l-.262 1.45q-.677-.12-1.36-.243-.572-.104-1.134-.204h-.003z" clip-rule="evenodd"/><path fill-rule="evenodd" d="M102.497 121.309c1.578-.286 3.001-.57 4.069-1.401l.921 1.157c-1.402 1.091-3.201 1.417-4.71 1.69l-.015.003q-.56.1-1.135.204c-.453.081-.909.164-1.359.243l-.262-1.45c.454-.08.9-.16 1.347-.241q.567-.103 1.144-.205M90.125 89.769c-1.357-.398-2.84-.257-4.443-.078h-.001l-4.525.501-.166-1.464 2.263-.25 2.262-.25c1.556-.174 3.341-.367 5.034.129.925.272 1.741.726 2.487 1.213.373.244.736.501 1.087.751l.111.08c.315.224.62.442.928.65l.003.002c1.388.943 2.862 1.594 4.23 1.323l.293 1.444c-2 .397-3.923-.572-5.366-1.553-.326-.22-.648-.45-.96-.672l-.111-.08a31 31 0 0 0-1.036-.716c-.69-.45-1.366-.817-2.09-1.03M110.123 88.357c1.693-.496 3.478-.303 5.034-.13l2.262.251h.003l2.26.25-.166 1.464-2.258-.25h-.005l-2.262-.25h-.001c-1.602-.18-3.086-.32-4.442.077-.725.213-1.401.58-2.091 1.03a31 31 0 0 0-1.147.796c-.312.223-.634.452-.96.672-1.443.981-3.365 1.95-5.366 1.553l.293-1.444c1.367.271 2.842-.38 4.23-1.323l.003-.002c.308-.208.613-.426.928-.65l.111-.08c.351-.25.714-.507 1.087-.751.746-.487 1.562-.94 2.486-1.213z" clip-rule="evenodd"/><path d="M92.95 43.284c-8.872 1.364-16.929 6.853-21.613 14.394-1.202 1.934-2.12 4-2.89 6.136-.756 2.087-1.421 4.232-2.613 6.127-1.237 1.964-3.08 3.2-5.276 3.942-2.523.854-5.25 1.429-7.907 1.62-2.534.187-5.166-.01-7.506-1.065a13.4 13.4 0 0 1-4.922-3.814c-2.747-3.408-3.418-7.924-1.992-12.018 1.43-4.12 4.917-7.163 9.234-8.037 4.088-.825 8.38.638 10.664 4.173 2.037 3.142 2.32 7.457-.367 10.32-2.528 2.694-6.72 3.686-9.915 1.688-1.033-.648-1.907-1.507-2.756-2.371-1.118-1.134-2.871.604-1.759 1.738 1.773 1.801 3.8 3.52 6.383 3.986 2.23.403 4.48.03 6.522-.928 1.962-.918 3.69-2.464 4.744-4.35 1.142-2.042 1.44-4.393 1.087-6.68-.715-4.64-4.286-8.622-8.88-9.824-4.834-1.262-10.268.314-13.76 3.82-3.581 3.593-5.151 8.959-4.098 13.892.989 4.63 4.436 8.734 8.807 10.629 2.677 1.163 5.608 1.502 8.514 1.291 2.94-.216 5.98-.8 8.767-1.777 2.617-.918 4.813-2.391 6.363-4.693 1.396-2.077 2.16-4.512 3-6.844 1.584-4.399 4.048-8.306 7.49-11.522 3.373-3.147 7.501-5.503 11.967-6.745a29 29 0 0 1 3.372-.722c.666-.103 1.028-.923.87-1.512-.194-.697-.865-.957-1.53-.854M107.864 45.159c8.718 1.34 16.452 7.065 20.207 14.959 2.002 4.207 2.633 9.22 6.746 12.081 2.091 1.453 4.713 2.087 7.177 2.597 2.856.594 5.772.894 8.673.452 4.629-.707 8.772-3.8 10.789-7.978 2.061-4.28 1.763-9.371-.671-13.446-2.434-4.07-6.919-6.657-11.713-6.711-4.569-.05-8.826 2.45-10.749 6.588-1.842 3.967-1.395 8.758 1.987 11.787 3.154 2.823 8.017 3.727 11.708 1.375 1.113-.712 2.086-1.615 3.005-2.548 1.118-1.134-.641-2.872-1.758-1.738-1.411 1.434-3.02 2.857-5.032 3.142-1.684.24-3.403-.186-4.868-1.036-1.421-.82-2.642-2.086-3.219-3.623-.626-1.669-.581-3.476-.044-5.16 1.127-3.568 4.366-6.097 8.151-6.313 4.063-.23 8.022 1.753 10.193 5.16 2.16 3.392 2.602 7.81.789 11.448-1.818 3.648-5.364 6.22-9.462 6.721-2.529.31-5.097-.034-7.57-.58-2.191-.48-4.575-1.02-6.368-2.43-1.624-1.27-2.568-3.166-3.293-5.041-.785-2.028-1.421-4.104-2.36-6.068-3.561-7.433-10.62-13.181-18.627-15.366a28 28 0 0 0-3.025-.638c-.661-.103-1.336.167-1.53.859-.169.58.194 1.404.864 1.507M96.939 111.243c.283-.005-.139-.064.005-.02.134.044.159.049.02-.02.149.069.288.153.427.246.278.182.536.393.83.545.69.358 1.49.555 2.275.515.765-.039 1.539-.24 2.195-.648.333-.206.641-.461.914-.741a8 8 0 0 1 .353-.349c.099-.093.154-.103.015-.019.084-.049.164-.098.258-.143.591-.275.785-1.158.447-1.679-.392-.598-1.068-.731-1.699-.441-.348.162-.646.417-.914.682q-.156.156-.313.319c-.059.054-.124.108-.179.167-.094.103.184-.108-.009.01-.12.073-.239.152-.368.216-.134.064-.154.059-.005.01-.075.024-.149.054-.224.073-.034.01-.417.098-.417.094 0-.01.283-.025 0-.005a2 2 0 0 1-.238.005c-.065 0-.124-.005-.189-.005-.298-.005.169.039 0 .005-.14-.03-.278-.054-.417-.094-.005 0-.293-.093-.12-.034.17.059-.074-.039-.109-.054a4 4 0 0 1-.372-.231c-.666-.451-1.312-.883-2.161-.864-.65.015-1.272.555-1.242 1.227.025.658.542 1.252 1.237 1.233"/></g><defs><clipPath id="a"><path fill="#fff" d="M0 0h200v200H0z"/></clipPath></defs></svg>