<svg xmlns="http://www.w3.org/2000/svg" width="200" height="200" fill="none"><g fill="#000" clip-path="url(#a)"><path fill-rule="evenodd" d="M99.573 58.946c-23.07 0-41.773 18.633-41.773 41.618s18.703 41.618 41.773 41.618 41.773-18.633 41.773-41.618-18.702-41.618-41.773-41.618m-46.847 41.618c0-25.777 20.974-46.674 46.847-46.674s46.848 20.897 46.848 46.674-20.975 46.674-46.848 46.674-46.847-20.897-46.847-46.674" clip-rule="evenodd"/><path d="M60.305 46.112c-4.545-1.65-9.526-3.38-11.976-7.862-1.236-2.26-1.721-4.918-2.247-7.414-.616-2.914-1.102-5.857-1.66-8.782-.225-1.174-1.497-1.964-2.62-1.99-1.802-.036-3.36.574-4.1 2.275-.573 1.322-.96 2.734-1.533 4.066-1.247 2.904-2.635 5.753-3.683 8.736-2.037 5.81-2.385 12.671 1.758 17.694 1.784 2.163 4.24 3.583 6.677 4.89 2.664 1.43 5.18 2.957 7.42 5.005 4.889 4.467 8.201 10.263 9.64 16.705.526 2.355 3.795 2.542 4.97.647 4.846-7.83 11.693-14.102 19.873-18.356 1.889-.982 1.639-3.636 0-4.676-7.068-4.489-14.65-8.06-22.52-10.938-3.29-1.203-4.708 4.03-1.445 5.221 7.43 2.72 14.545 6.154 21.218 10.4v-4.676c-8.978 4.67-16.506 11.718-21.824 20.298q2.485.324 4.97.646c-1.323-5.94-4.14-11.422-8.094-16.051-1.99-2.33-4.295-4.362-6.796-6.128-2.055-1.448-4.31-2.51-6.477-3.767-2.008-1.166-3.763-2.542-4.672-4.745-1.051-2.55-.943-5.351-.29-7.98 1.348-5.42 4.35-10.245 6.046-15.546-.417.538-.834 1.08-1.251 1.617l.105.084q-1.31-.996-2.62-1.99c1.149 6.012 1.58 13.094 4.98 18.37 3.363 5.214 9.101 7.435 14.701 9.468 3.298 1.2 4.72-4.037 1.45-5.221M153.72 59.047c1.457-4.554 2.951-9.682 7.326-12.293 2.229-1.332 4.831-1.935 7.328-2.567 2.9-.733 5.829-1.337 8.743-2.015 1.138-.264 2.019-1.46 1.997-2.611-.036-1.766-.609-3.37-2.345-4.07-1.37-.553-2.867-.877-4.259-1.398-2.929-1.097-5.796-2.358-8.793-3.264-5.915-1.791-12.784-1.914-17.702 2.369-2.117 1.842-3.444 4.355-4.654 6.832-1.32 2.698-2.741 5.305-4.694 7.609a32.14 32.14 0 0 1-16.329 10.331c-2.24.593-2.689 3.81-.649 4.951A50.8 50.8 0 0 1 138.95 81.91c1.019 1.762 3.672 1.751 4.694 0 4.212-7.223 7.514-14.918 10.076-22.863 1.073-3.325-4.175-4.752-5.241-1.44-2.425 7.514-5.545 14.733-9.532 21.558h4.693a56.24 56.24 0 0 0-21.214-20.93c-.218 1.65-.431 3.3-.649 4.95a37.5 37.5 0 0 0 15.792-8.666 36.7 36.7 0 0 0 5.89-7.002c1.367-2.105 2.338-4.395 3.512-6.601 1.11-2.084 2.411-3.915 4.618-4.937 2.461-1.137 5.27-1.184 7.891-.65 5.491 1.12 10.453 3.911 15.839 5.381-.54-.415-1.084-.83-1.624-1.246l-.021.09c.667-.87 1.33-1.74 1.997-2.61-5.974 1.39-13.078 2.109-18.232 5.687-5.11 3.546-7.147 9.295-8.963 14.976-1.062 3.333 4.186 4.755 5.244 1.44M33.157 91.908c-4.676 2.17-9.652 4.474-14.824 2.596-2.37-.86-4.556-2.408-6.648-3.788-2.283-1.506-4.512-3.09-6.778-4.626-1.004-.678-2.465-.368-3.295.423-.931.892-1.768 2.177-1.587 3.52.138 1.02.848 2.02 1.272 2.955.78 1.719 1.42 3.495 2.106 5.25 1.49 3.825 3.074 7.616 5.676 10.837 2.79 3.453 7.043 5.952 11.566 6.006 2.903.032 5.69-.918 8.438-1.719 2.758-.805 5.538-1.268 8.416-1.311 6.285-.09 12.374 1.672 17.67 5.03 2.084 1.322 4.516-.856 3.994-3.058-2.116-8.931-1.729-18.164 1.026-26.914.649-2.07-1.41-3.756-3.346-3.333-8.195 1.802-16.078 4.626-23.686 8.132-3.171 1.463-.413 6.132 2.744 4.676 7.18-3.311 14.661-5.886 22.389-7.587l-3.346-3.333c-3.037 9.664-3.356 19.945-1.026 29.792 1.33-1.018 2.66-2.04 3.995-3.058-5.604-3.554-12.103-5.529-18.74-5.757a36.2 36.2 0 0 0-9.996 1.062c-2.954.74-6.05 2.239-9.159 1.928-4.632-.458-7.597-4.578-9.475-8.399-2.066-4.21-3.327-8.764-5.498-12.932.09.697.181 1.39.275 2.088q.071-.026.142-.05-1.648.21-3.295.422c4.933 3.34 10.022 7.756 15.883 9.324 6.31 1.686 12.218-.889 17.854-3.503 3.165-1.466.406-6.136-2.747-4.673M141.249 153.283c4.574 1.434 9.735 2.903 12.37 7.248 1.345 2.217 1.965 4.806 2.607 7.294.746 2.885 1.362 5.803 2.055 8.699.268 1.127 1.464 2.015 2.62 1.99 1.769-.043 3.386-.61 4.085-2.343.551-1.365.87-2.86 1.388-4.251 1.091-2.921 2.345-5.785 3.248-8.771 1.776-5.901 1.881-12.74-2.432-17.633-1.856-2.102-4.382-3.417-6.872-4.616-2.712-1.303-5.332-2.712-7.655-4.647-5.082-4.232-8.71-9.862-10.432-16.229-.602-2.217-3.827-2.69-4.969-.646a50.8 50.8 0 0 1-18.986 19.262c-1.761 1.018-1.765 3.662 0 4.676 7.257 4.178 14.992 7.443 22.973 9.967 3.342 1.058 4.773-4.171 1.446-5.222-7.55-2.387-14.81-5.467-21.675-9.414v4.677c8.753-5.06 16.01-12.398 20.936-21.209q-2.485-.322-4.97-.646a37.3 37.3 0 0 0 8.75 15.705 36.8 36.8 0 0 0 7.046 5.843c2.117 1.354 4.419 2.314 6.637 3.474 2.098 1.097 3.94 2.383 4.973 4.578 1.152 2.449 1.214 5.247.688 7.858-1.105 5.475-3.885 10.429-5.342 15.799q.625-.809 1.25-1.618c-.029-.003-.061-.011-.09-.014q1.31.994 2.62 1.99c-1.417-5.948-2.167-13.019-5.77-18.143-3.574-5.081-9.352-7.092-15.057-8.88-3.341-1.05-4.773 4.178-1.442 5.222M90.555 166.879c2.284 4.622 4.705 9.494 2.969 14.701-.798 2.387-2.305 4.597-3.647 6.709-1.464 2.308-3.004 4.561-4.498 6.851-.652 1-.398 2.463.424 3.282.932.925 2.183 1.719 3.553 1.557 1.018-.123 2.022-.871 2.943-1.308 1.78-.845 3.613-1.56 5.433-2.311 3.802-1.57 7.561-3.224 10.721-5.915 3.418-2.91 5.872-7.381 5.637-11.942-.138-2.679-1.004-5.193-1.816-7.724-.856-2.679-1.428-5.399-1.559-8.212a31.75 31.75 0 0 1 4.629-18.048c1.25-2.055-.816-4.561-3.07-3.98-8.917 2.301-18.185 2.142-27.029-.411-2.044-.593-3.824 1.365-3.345 3.333 1.982 8.11 4.973 15.921 8.655 23.418 1.537 3.131 6.227.39 4.694-2.734-3.48-7.085-6.234-14.462-8.108-22.132l-3.346 3.333a56.8 56.8 0 0 0 29.921.411l-3.07-3.979a37.1 37.1 0 0 0-5.404 18.781 35.7 35.7 0 0 0 1.258 9.909c.801 2.915 2.265 5.843 2.156 8.924-.166 4.709-4.356 7.865-8.177 9.829-4.179 2.149-8.724 3.503-12.856 5.756.7-.09 1.395-.18 2.095-.274q-.032-.056-.069-.112l.424 3.282c3.24-4.976 7.587-10.154 9.029-16.015 1.559-6.33-1.102-12.144-3.853-17.713-1.544-3.127-6.234-.386-4.694 2.734"/><path d="M46.702 142.059c-1.464 4.554-2.968 9.675-7.343 12.282-2.23 1.329-4.839 1.928-7.336 2.557-2.9.729-5.832 1.329-8.743 2-1.138.264-2.018 1.463-1.997 2.611.033 1.766.61 3.369 2.345 4.07 1.37.556 2.867.881 4.26 1.405 2.924 1.101 5.791 2.369 8.789 3.279 5.912 1.798 12.78 1.931 17.706-2.348 2.117-1.838 3.447-4.351 4.665-6.825 1.323-2.697 2.75-5.297 4.704-7.601 4.285-5.038 9.939-8.62 16.347-10.303 2.244-.588 2.682-3.806.649-4.951a50.8 50.8 0 0 1-19.232-19.02c-1.018-1.769-3.672-1.744-4.694 0-4.233 7.215-7.546 14.907-10.12 22.844-1.076 3.326 4.169 4.749 5.242 1.441 2.435-7.511 5.567-14.726 9.565-21.544h-4.694a56.25 56.25 0 0 0 21.182 20.963q.324-2.475.649-4.951a37.46 37.46 0 0 0-15.807 8.645 36.8 36.8 0 0 0-5.897 6.991c-1.37 2.102-2.345 4.391-3.523 6.594-1.11 2.08-2.418 3.911-4.625 4.929-2.465 1.134-5.274 1.174-7.894.636-5.492-1.127-10.446-3.925-15.829-5.406l1.624 1.246.022-.094c-.667.87-1.33 1.741-1.998 2.611 5.977-1.379 13.081-2.087 18.24-5.659 5.113-3.542 7.158-9.288 8.98-14.961 1.074-3.326-4.175-4.752-5.237-1.441M109.088 33.176c-2.28-4.449-4.832-9.255-3.313-14.361.718-2.416 2.153-4.637 3.454-6.778 1.479-2.427 3.052-4.792 4.563-7.197.631-1 .421-2.467-.424-3.283-.949-.914-2.189-1.7-3.563-1.535-1.022.123-2.011.885-2.928 1.336-1.838.907-3.734 1.687-5.615 2.492-3.7 1.585-7.368 3.29-10.417 5.966-3.37 2.957-5.784 7.453-5.484 12.014.178 2.68 1.073 5.171 1.921 7.695.896 2.662 1.523 5.381 1.693 8.187a31.8 31.8 0 0 1-4.335 18.124c-1.2 2.04.783 4.604 3.07 3.98a51.06 51.06 0 0 1 27.032-.015c2.023.553 3.864-1.34 3.345-3.333-2.105-8.078-5.208-15.853-8.999-23.292-1.584-3.109-6.278-.372-4.694 2.734 3.585 7.034 6.462 14.361 8.449 22.003l3.345-3.333a56.7 56.7 0 0 0-29.92.014l3.07 3.98c3.356-5.699 5.154-12.239 5.14-18.854-.008-3.319-.465-6.703-1.396-9.891-.848-2.907-2.342-5.807-2.302-8.89.058-4.71 4.208-7.953 7.992-9.971 4.147-2.214 8.67-3.633 12.77-5.948q-1.048.134-2.095.275.04.046.079.093l-.424-3.282c-3.2 5.08-7.615 10.447-8.862 16.438-1.305 6.269 1.359 11.913 4.158 17.366 1.587 3.106 6.277.368 4.69-2.734M166.635 109.415c4.458-2.391 9.257-5.063 14.465-3.608 5.024 1.405 9.634 4.998 14.067 7.642 1.001.595 2.483.444 3.295-.423.903-.968 1.682-2.188 1.515-3.568-.123-1.022-.91-1.993-1.381-2.896-.949-1.809-1.772-3.683-2.62-5.539-1.664-3.644-3.451-7.284-6.195-10.26-3.044-3.3-7.571-5.626-12.153-5.25-2.693.22-5.165 1.159-7.684 2.058-2.646.946-5.372 1.643-8.177 1.874-6.368.52-12.704-.801-18.286-3.907-2.019-1.123-4.686.744-3.994 3.059 2.628 8.793 2.856 18.023.612 26.924-.5 1.979 1.312 3.904 3.346 3.333 8.061-2.264 15.807-5.507 23.19-9.439 3.088-1.643.344-6.323-2.744-4.677-6.985 3.72-14.266 6.75-21.896 8.895l3.345 3.333c2.476-9.815 2.288-20.103-.612-29.807q-1.994 1.53-3.994 3.06c5.788 3.22 12.381 4.907 19.018 4.751 3.334-.076 6.716-.588 9.898-1.581 2.886-.9 5.789-2.478 8.87-2.496 4.741-.028 8.079 3.947 10.203 7.703 2.309 4.084 3.831 8.562 6.234 12.592q-.135-1.043-.275-2.087-.032.049-.069.097l3.294-.422c-5.143-3.07-10.619-7.345-16.622-8.483-6.354-1.202-11.95 1.528-17.401 4.449-3.074 1.647-.334 6.323 2.751 4.673"/></g><defs><clipPath id="a"><path fill="#fff" d="M0 0h200v200H0z"/></clipPath></defs></svg>