<svg xmlns="http://www.w3.org/2000/svg" width="200" height="200" fill="none"><path fill="#000" d="M72.436 49.028a27.2 27.2 0 0 0-8.137-4.404c-1.46-.49-2.963-.85-4.49-1.074a28 28 0 0 0-2.243-.24c-.8-.052-1.624-.097-2.416.054-1.606.31-2.436 1.781-3.17 3.093a35 35 0 0 0-1.974 4.205c-1.133 2.872-1.902 5.873-2.479 8.899-.588 3.09-.975 6.216-1.328 9.34-.379 3.37-.855 6.773-.39 10.157.82 6.007 4.272 11.252 8.099 15.802 3.94 4.681 8.495 8.887 11.757 14.103q.61.974 1.148 1.985c.433.813 1.672.091 1.24-.722-2.861-5.36-7.193-9.691-11.213-14.178-3.796-4.24-7.47-8.913-9.046-14.473a19.5 19.5 0 0 1-.729-4.358c-.08-1.686.04-3.372.21-5.047.307-3.055.648-6.116 1.11-9.153.884-5.83 2.272-11.825 5.44-16.881.33-.527.726-1.085 1.34-1.3.67-.235 1.457-.146 2.154-.112a24.3 24.3 0 0 1 4.255.61 25.5 25.5 0 0 1 9.844 4.701c.304.238.717.298 1.015 0 .253-.243.31-.767.003-1.007"/><path fill="#000" d="M71.445 49.927c.85.858 1.957 1.309 3.076 1.719 1.014.37 2.014.732 2.77 1.535.614.655.94 1.596.371 2.365-.49.666-1.47.961-2.28 1.145-1.256.29-2.556.468-3.833.637-1.441.19-2.897.301-4.35.241q-.526-.021-1.049-.077c-.317-.035-.651-.12-.968-.103-.805.042-1.16.792-1 1.506.135.611.513 1.223.827 1.76.337.576.715 1.127 1.086 1.681q2.764 4.104 5.523 8.208c.513.763 1.764.046 1.245-.723l-4.044-6.007c-.651-.967-1.311-1.931-1.954-2.907-.294-.445-.58-.898-.836-1.369a9 9 0 0 1-.346-.689c-.014-.034-.06-.203-.092-.244-.13-.158.09-.063-.052.05q-.16.092-.317.183c.144-.058.406.023.58.043q.348.044.697.074c.513.044 1.026.06 1.542.06a27 27 0 0 0 3.018-.194c1-.118 1.997-.27 2.992-.437.764-.126 1.536-.238 2.28-.459 1.366-.404 2.776-1.254 3.03-2.772.282-1.682-.894-3.131-2.263-3.96-1.473-.893-3.382-1.028-4.63-2.288-.657-.651-1.677.365-1.023 1.022"/><path fill="#000" d="M65.26 44.891c-.507-1.65 1.105-3.115 2.318-3.96a13.1 13.1 0 0 1 4.996-2.125c1.407-.277 3.08-.395 4.36.38 1.539.932 1.302 2.91 1.134 4.441a55 55 0 0 1-1.25 6.998c-.22.901 1.175 1.284 1.395.383a58 58 0 0 0 1.262-7.035c.234-1.99.408-4.315-1.35-5.706-1.484-1.174-3.481-1.226-5.279-.964-2.081.302-4.11 1.1-5.85 2.28-1.814 1.23-3.872 3.284-3.134 5.69.272.884 1.67.507 1.398-.382"/><path fill="#000" d="M79.463 44.48c2.447.219 5.05.842 6.917 2.535.8.73 1.485 1.627 1.875 2.644.38.993.598 2.236.17 3.249-.489 1.154-1.902 1.372-2.993 1.561-.382.066-.598.537-.503.884.112.405.5.568.885.502 1.26-.215 2.616-.542 3.452-1.59.922-1.156.954-2.775.63-4.159-.65-2.767-2.873-4.862-5.427-5.932-1.59-.666-3.291-.973-5.003-1.128-.388-.035-.718.355-.718.717-.003.416.327.683.715.718"/><path fill="#000" d="M89.24 53.822c2.353-.017 4.978.364 6.6 2.272.887 1.04 1.45 2.493 1.805 3.805.297 1.098.218 2.212-.532 3.106-.72.857-1.836 1.419-2.932 1.167-.886-.204-1.266 1.177-.376 1.38 2.772.634 5.593-1.853 5.426-4.713-.051-.88-.32-1.713-.629-2.53-.3-.788-.629-1.576-1.076-2.292-.835-1.339-2.036-2.287-3.483-2.869-1.513-.607-3.186-.768-4.8-.756-.912.003-.915 1.435-.003 1.43"/><path fill="#000" d="M98.222 64.445c1.942.438 2.805 2.674 3.412 4.352q.348.965.663 1.943c.103.321.219.642.302.968.045.175-.051.198-.236.323a6.2 6.2 0 0 1-3.366 1.103c-.914.022-.917 1.454 0 1.43a7.7 7.7 0 0 0 3.403-.884c.495-.26 1.067-.584 1.395-1.05.387-.553.225-1.157.04-1.75-.641-2.058-1.282-4.305-2.617-6.034-.664-.859-1.544-1.543-2.617-1.783-.894-.198-1.276 1.182-.379 1.382M71.114 69.917c5.742 5.673 7.678 13.963 8.29 21.757.197 2.533.277 5.075.332 7.616.014.69.98 1 1.332.361 2.797-5.063 8.084-7.871 13.3-9.851a108 108 0 0 1 4.593-1.605c.869-.286.497-1.67-.38-1.38-5.574 1.836-11.465 3.902-15.725 8.131a17.6 17.6 0 0 0-3.02 3.983c.443.12.89.24 1.332.361-.188-8.559-.692-17.536-5.044-25.14-1.095-1.912-2.428-3.697-3.998-5.245-.657-.65-1.67.361-1.012 1.012M101.298 92.24c-.888 2.926-2.376 5.615-3.521 8.441-1.174 2.895-1.8 5.935-2.11 9.033-.32 3.152-.327 6.324-.344 9.491q-.026 4.978.02 9.957.053 5.62.196 11.235c.023.918 1.465.921 1.442 0a684 684 0 0 1-.222-19.914c.02-6.149-.133-12.525 2.013-18.392 1.173-3.212 2.921-6.19 3.918-9.47.269-.884-1.124-1.262-1.392-.38"/><path fill="#000" d="M96.363 111.523c-6.65.388-11.554 5.522-15.734 10.155-1.19 1.317-2.282 2.703-2.936 4.366-.141.362.156.788.504.885.41.113.743-.138.888-.503.521-1.32 1.426-2.453 2.36-3.503a91 91 0 0 1 3.13-3.35c2.113-2.146 4.42-4.133 7.175-5.41 1.446-.67 3.022-1.11 4.615-1.202.92-.054.925-1.492-.002-1.438"/><path fill="#000" d="M69.98 113.542a53.8 53.8 0 0 0 3.607 26.762c3.113 7.585 8.165 15.906 16.516 18.396 4.464 1.331 9.184.996 13.743 1.746 4.073.67 7.918 2.393 11.091 5.038a23.6 23.6 0 0 1 4.257 4.614c1.337 1.915 2.422 3.987 3.518 6.045 2.266 4.253 4.768 8.418 7.697 12.253 1.38 1.806 2.895 3.504 4.754 4.835 1.678 1.202 3.612 2.043 5.612 2.556 4.114 1.053 8.446.804 12.623.306a159 159 0 0 0 3.078-.406c.385-.055.594-.541.502-.882-.114-.412-.496-.555-.883-.501-4.094.578-8.28 1.088-12.408.581-1.96-.24-3.919-.753-5.692-1.629-1.923-.95-3.546-2.309-4.967-3.907-1.511-1.7-2.808-3.592-4.068-5.481a95 95 0 0 1-3.804-6.222c-2.192-3.925-4.071-8.038-7.221-11.324-2.826-2.945-6.386-5.192-10.279-6.44-4.33-1.388-8.906-1.205-13.37-1.78-2.171-.281-4.352-.782-6.323-1.76-1.779-.882-3.374-2.076-4.791-3.461-2.952-2.882-5.156-6.469-6.949-10.155-3.893-8.006-5.64-17.042-5.112-25.918q.1-1.637.298-3.266c.046-.384-.364-.716-.717-.716-.422 0-.665.329-.711.716"/><path fill="#000" d="M58.282 98.806c-1.74 2.637-4.046 4.807-6.152 7.14-1.9 2.104-3.564 4.392-4.887 6.9-2.629 4.982-4.003 10.581-4.215 16.196-.428 11.338 4.163 22.251 11.693 30.615 3.848 4.277 8.505 8.055 13.641 10.678a28.8 28.8 0 0 0 9.183 2.904c3.147.436 6.327.447 9.5.39 6.305-.117 12.801-.473 18.764 1.958 5.386 2.196 9.845 6.215 13.659 10.509 3.713 4.179 7.01 9.073 12.003 11.856 5.572 3.107 12.077 2.276 17.845.172a55 55 0 0 0 4.261-1.78c.838-.387.109-1.623-.723-1.239-5.426 2.512-11.811 4.641-17.776 2.836-5.404-1.634-9.071-6.33-12.549-10.478-3.684-4.389-7.713-8.591-12.714-11.492-2.502-1.453-5.217-2.523-8.052-3.107-3.1-.64-6.276-.777-9.432-.763-6.18.026-12.537.648-18.557-1.118-5.624-1.648-10.709-5.251-14.959-9.21-8.026-7.479-13.627-17.733-14.304-28.786-.336-5.478.46-11.022 2.468-16.139a32 32 0 0 1 3.9-7.129c1.738-2.394 3.899-4.432 5.862-6.634 1.004-1.123 1.954-2.299 2.783-3.557.505-.771-.737-1.488-1.242-.723M79.777.22c-1.775.196-3.496.684-5.05 1.575-1.492.853-2.748 2.037-3.774 3.407-.89 1.19-1.578 2.54-2.269 3.847-.677 1.284-1.334 2.58-2.082 3.823-1.368 2.284-3.12 4.45-5.713 5.226a9 9 0 0 1-1.056.244c-.484.08-.929.026-1.236.506a3.7 3.7 0 0 0-.533 2.373c.198 1.735 1.422 3.188 2.983 3.91 3.877 1.786 8.297.137 11.084-2.842.631-.675-.381-1.692-1.015-1.017-1.503 1.609-3.522 2.844-5.733 3.132-1.987.258-4.471-.325-5.526-2.192-.502-.888-.523-1.86.031-2.718l-.62.356c1.882-.167 3.605-.827 5.088-2.002 1.374-1.089 2.432-2.534 3.341-4.02.956-1.56 1.758-3.205 2.627-4.814.91-1.69 1.862-3.34 3.296-4.648 1.698-1.548 3.88-2.456 6.154-2.706.385-.043.717-.299.717-.718.003-.36-.327-.765-.714-.721M64.732 27.19c-2.374-.208-4.224 1.683-5.617 3.335-.248.296-.294.717 0 1.008.256.253.768.296 1.018 0 .326-.388.66-.77 1.013-1.13q.282-.29.581-.56.136-.118.274-.233l.155-.125c-.063.049.058-.043.075-.054.199-.145.406-.28.619-.396a3.567 3.567 0 0 1 1.237-.424c-.1.014.032 0 .069-.003q.095-.009.19-.009.193-.001.385.017c.389.035.72-.35.72-.712 0-.418-.331-.683-.72-.714M71.689 26.456l-2.614 1.709c-.37.243-.5.795-.147 1.125 1.58 1.465 3.827.855 5.5-.1.946-.542 1.803-1.237 2.66-1.904.886-.687 1.757-1.394 2.648-2.075 3.3-2.521 7.484-5.077 11.826-3.97 3.846.982 5.887 4.958 6.6 8.572.668 3.386.192 6.964-1.126 10.138-1.31 3.148-3.531 5.976-6.409 7.836q-.555.356-1.132.667c-.81.438-.089 1.674.723 1.236 3.224-1.734 5.815-4.528 7.474-7.773 1.668-3.263 2.474-7.01 2.115-10.667-.375-3.858-1.994-8.065-5.348-10.28-3.923-2.593-9.013-1.22-12.71 1.084-2.004 1.25-3.812 2.776-5.675 4.222-.846.655-1.7 1.334-2.652 1.834-.748.395-1.68.762-2.545.624a1.8 1.8 0 0 1-.937-.455l-.146 1.125 2.614-1.709c.774-.506.057-1.745-.72-1.239"/><path fill="#000" d="M80.53 1.537c5.483-.292 11.096-.066 16.384 1.54 2.579.782 5.048 1.911 7.259 3.462 2.381 1.668 4.366 3.844 5.954 6.269 3.299 5.024 5.06 11.003 5.111 17.008.049 5.741-1.528 11.405-4.474 16.33a31.6 31.6 0 0 1-5.131 6.48c-2.082 2.015-4.6 3.554-6.568 5.687-.493.533-.943 1.109-1.336 1.72-.502.776.74 1.496 1.239.722 1.603-2.482 4.222-4.053 6.413-5.956a32.8 32.8 0 0 0 5.733-6.53c3.281-4.898 5.22-10.657 5.518-16.544.316-6.194-1.153-12.488-4.202-17.891-1.517-2.692-3.438-5.203-5.807-7.203-2.154-1.817-4.609-3.202-7.234-4.214C94.084.367 88.257-.123 82.613.024Q81.57.05 80.529.107c-.92.046-.926 1.48 0 1.43"/></svg>