<svg xmlns="http://www.w3.org/2000/svg" width="200" height="200" fill="none"><path fill="#000" d="M80.43 83.723C68.54 59.16 58.004 31.818 63.396 4.2c.823-4.215-5.746-6.02-6.574-1.783-5.77 29.577 4.965 58.335 17.718 84.685 1.883 3.902 7.766.5 5.888-3.38M81.284 104.874c3.756 3.473 9.212 3.432 13.14.299 1.432-1.14 1.205-3.553 0-4.742-1.414-1.39-3.387-1.145-4.824 0-.973.773-2.619.509-3.496-.3-3.192-2.95-8.025 1.779-4.82 4.743M91.778 124.152q.135.099.277.197-.292-.23-.018-.009.264.207.523.429.647.548 1.246 1.144a22.481 22.481 0 0 1 1.478 1.623c-.35-.429.286.389.286.393 1.036 1.421 3.019 2.248 4.664 1.202 1.433-.907 2.333-3.061 1.224-4.586a27.3 27.3 0 0 0-6.238-6.177c-1.446-1.037-3.865-.286-4.665 1.203-.937 1.738-.319 3.473 1.223 4.581"/><path fill="#000" d="M96.429 126.476a17.24 17.24 0 0 0-12.508 10.737c-1.064 2.816-1.246 5.873-.768 8.819.163.987.786 1.931.027 2.668-.937.907-3.564.349-4.647.241-1.836-.178-3.41 1.668-3.41 3.353 0 1.962 1.57 3.173 3.41 3.352 3.329.326 6.775.192 9.394-2.11 2.782-2.449 2.469-5.292 1.928-8.582-.946-5.739 2.668-10.776 8.379-12.014 4.292-.926 2.478-7.394-1.805-6.464M93.578 158.471c.086.027.464.098.505.17-.06-.107-.528-.255-.078-.027.36.183.71.367 1.046.59.068.045.537.385.196.125-.341-.263.113.108.168.157.3.263.573.55.836.849 1.178 1.328 3.638 1.269 4.824 0 1.319-1.412 1.255-3.325 0-4.742-1.514-1.708-3.51-2.888-5.687-3.59-1.696-.545-3.801.635-4.197 2.343-.418 1.841.573 3.54 2.387 4.125M91.237 194.212c1.455 2.208 3.364 4.049 5.701 5.35 1.55.867 3.797.411 4.665-1.202.855-1.592.432-3.661-1.223-4.586-.414-.228-.8-.483-1.196-.742-.527-.344.187.196-.09-.072-.169-.161-.36-.304-.528-.46q-.463-.428-.878-.903c-.204-.233-.359-.46-.081-.081a22 22 0 0 1-.478-.688c-.968-1.47-3.069-2.217-4.665-1.202-1.495.943-2.264 3.008-1.227 4.586M78.188 82.905c-4.433-1.288-9.093-1.945-13.717-1.797-1.637.053-3.965.71-5.552.196-.69-.223-.918-.634-1.282-1.27-.2-.343-.345-.755-.573-1.076a2.3 2.3 0 0 1-.2-.447q-.294-1.067-1.25.965l-1.723-.456c.14.067.282.139.423.206 3.919 1.913 7.379-3.871 3.441-5.788-3.378-1.645-7.415.353-7.733 4.192-.25 3.035 1.7 6.74 4.092 8.65 2.923 2.332 6.47 1.698 9.943 1.55 4.21-.179 8.284.371 12.321 1.542 4.215 1.22 6.02-5.247 1.81-6.468M83.712 111.404c-5.638-.371-11.089.308-16.7.42-1.877.036-3.664-.192-4.828-1.774-1.26-1.712-1.664-3.983-2.114-6.003-.932-4.215-7.507-2.432-6.574 1.783 1.209 5.462 3.605 11.175 9.816 12.395 3.005.59 5.992.107 9.007-.107 3.796-.273 7.597-.255 11.393-.009 4.383.286 4.365-6.419 0-6.705M80.01 60.931c6.625 2.333 12.704 5.32 19.929 4.269 1.818-.264 2.837-2.535 2.382-4.126-.546-1.917-2.36-2.606-4.196-2.342-5.56.809-11.244-2.485-16.305-4.269-4.137-1.453-5.92 5.02-1.81 6.468"/><path fill="#000" d="M57.005 4.227c.478 5.002 1.11 9.99 1.914 14.952.8 4.948 1.592 10.007 3.31 14.745 3.297 9.105 9.698 17.04 15.09 25.018 2.42 3.576 8.325.223 5.888-3.384-2.632-3.893-5.274-7.777-7.888-11.684-2.483-3.71-4.988-7.531-6.51-11.733-3.179-8.779-4.097-18.688-4.975-27.914-.414-4.26-7.238-4.3-6.829 0"/><path fill="#000" d="M68.022 67.3c5.324.385 10.661-1.059 15.026-4.08 3.56-2.463.16-8.279-3.442-5.789-3.491 2.414-7.329 3.469-11.584 3.165-4.379-.313-4.36 6.392 0 6.705M125.459 87.106c12.753-26.35 23.492-55.113 17.718-84.685-.827-4.233-7.402-2.44-6.574 1.783 5.387 27.62-5.147 54.961-17.032 79.523-1.878 3.87 4.001 7.277 5.888 3.379M113.893 100.131c-.878.809-2.524 1.073-3.497.3-1.427-1.14-3.423-1.373-4.824 0-1.196 1.175-1.436 3.593 0 4.742 3.929 3.129 9.38 3.174 13.14-.299 3.205-2.964-1.623-7.697-4.819-4.743M104.776 118.363a27.2 27.2 0 0 0-6.237 6.178c-1.042 1.43-.3 3.794 1.222 4.586 1.76.916 3.551.321 4.665-1.203.046-.058.541-.715.346-.465-.164.202.232-.268.268-.312a21 21 0 0 1 2.269-2.267q.259-.22.518-.433c.841-.689-.491.344.391-.291 1.437-1.032 2.292-2.959 1.223-4.586-.914-1.403-3.123-2.311-4.665-1.207"/><path fill="#000" d="M101.758 132.94c5.678 1.229 9.375 6.284 8.379 12.014-.545 3.156-.873 5.927 1.682 8.381 2.596 2.494 6.238 2.642 9.639 2.311 1.832-.179 3.41-1.412 3.41-3.352 0-1.676-1.564-3.531-3.41-3.353-1.191.117-3.396.582-4.478-.134-1.01-.67-.309-1.738-.141-2.771.486-2.954.286-5.998-.769-8.819-2.032-5.435-6.756-9.489-12.507-10.736-4.27-.93-6.097 5.529-1.805 6.459M104.604 152.003c-2.178.702-4.174 1.882-5.688 3.589-1.173 1.323-1.423 3.46 0 4.743 1.282 1.158 3.569 1.412 4.824 0 .236-.264.477-.523.741-.76.086-.076.291-.326.404-.349l-.268.202q.162-.115.332-.224c.296-.192.605-.371.928-.527.077-.041.613-.255.2-.103-.469.174.336-.099.345-.103 1.692-.545 2.969-2.342 2.383-4.126-.551-1.658-2.383-2.927-4.201-2.342M102.871 190.823c-.127.193-.272.38-.395.577-.205.322.354-.371-.073.089-.318.345-.627.689-.973 1.006-.136.125-.282.246-.418.371-.65.581.332-.197-.087.081-.432.286-.854.567-1.31.822-1.55.867-2.213 3.08-1.222 4.586 1.01 1.542 3.005 2.128 4.665 1.202 2.332-1.3 4.242-3.142 5.701-5.35.973-1.475.355-3.768-1.223-4.586-1.696-.881-3.628-.371-4.665 1.202M123.622 89.372c4.038-1.17 8.112-1.725 12.322-1.542 3.482.152 7.011.787 9.943-1.55 2.396-1.914 4.338-5.593 4.092-8.65-.314-3.826-4.355-5.837-7.734-4.193-3.932 1.918-.482 7.702 3.442 5.789.141-.067.282-.139.423-.206l-1.723.456q-.584-.59-1.169-1.18l-.163.43c-.228.182-.396.777-.537 1.032-.291.527-.568 1.175-1.127 1.47-1.405.742-4.37-.071-5.866-.12-4.623-.148-9.284.51-13.717 1.796-4.201 1.22-2.409 7.693 1.814 6.468M116.288 118.109c3.651-.237 7.307-.264 10.958-.023 3.146.21 6.31.774 9.443.139 6.215-1.261 8.602-6.906 9.816-12.395.932-4.206-5.642-6.003-6.574-1.783-.428 1.931-.814 4.072-1.942 5.748-1.182 1.756-2.964 2.069-5.001 2.029-5.61-.112-11.062-.787-16.7-.42-4.36.286-4.392 6.991 0 6.705M118.176 54.468c-5.061 1.783-10.74 5.077-16.305 4.268-1.832-.268-3.646.452-4.196 2.342-.46 1.578.56 3.858 2.382 4.126 7.225 1.05 13.308-1.935 19.928-4.269 4.106-1.448 2.337-7.93-1.809-6.468"/><path fill="#000" d="M136.171 4.227c-.878 9.225-1.796 19.135-4.974 27.914-1.478 4.08-3.888 7.8-6.288 11.402-2.683 4.019-5.406 8.01-8.111 12.015-2.437 3.603 3.469 6.964 5.887 3.384 5.393-7.979 11.794-15.913 15.091-25.018 1.668-4.604 2.45-9.512 3.237-14.321.836-5.1 1.491-10.231 1.982-15.376.405-4.291-6.415-4.264-6.824 0"/><path fill="#000" d="M131.979 60.596c-4.256.304-8.098-.751-11.585-3.165-3.596-2.49-7.006 3.321-3.442 5.788 4.365 3.022 9.703 4.461 15.027 4.081 4.351-.312 4.383-7.017 0-6.704"/></svg>