<svg xmlns="http://www.w3.org/2000/svg" width="200" height="200" fill="none"><path fill="#000" d="M106.201 57.926c.432.705 1.212 1.025 2.027.84 1.059-.243 1.615-1.14 1.775-2.16.163-1.028.058-2.121.027-3.157-.037-1.332-.112-2.662-.282-3.98-.543-4.282-2.23-8.586-6.275-10.68-3.493-1.81-7.797-1.482-10.142 1.932-2.556 3.721-1.904 8.707-.265 12.634 2.02 4.834 5.346 8.973 7.728 13.618l1.334-1.022c-3.285-2.645-7.3-3.829-11.394-4.601-4.365-.824-8.733-1.43-12.993-2.733-8.424-2.57-16.397-7.232-21.57-14.475-2.76-3.866-4.677-8.34-5.237-13.066-.085-.711-1.209-1.295-1.582-.425-2.454 5.715-1.565 12.077 1.117 17.552 2.898 5.917 7.905 10.482 13 14.53 5.159 4.102 10.647 7.87 15.124 12.748 4.613 5.026 7.325 11.051 8.132 17.801.805 6.72.106 13.514-.414 20.231-.509 6.558-.706 13.119-.07 19.677.627 6.467 1.968 12.9 4.391 18.949 2.44 6.092 5.96 11.584 10.393 16.438 4.559 4.99 9.84 9.26 15.135 13.45 6.011 4.757 12.036 9.5 18.054 14.246l4.48 3.536c.689.543 1.918-.156 1.334-1.023-7.566-11.176-18.346-19.714-26.02-30.792-4.144-5.985-6.894-12.566-8.275-19.701-1.473-7.6-1.578-15.386-1.602-23.101-.024-7.938.105-15.95 1.694-23.756 1.432-7.03 4.222-13.544 7.963-19.657 7.09-11.588 16.699-21.462 23.43-33.286 7.311-12.849 10.284-27.891 8.305-42.532a70 70 0 0 0-.943-5.35c-.146-.678-1.246-.857-1.551-.202-7.79 16.671-8.839 35.809-18.166 51.85-2.447 4.21-5.448 8.065-9.11 11.3-.818.722.387 1.913 1.201 1.194 13.825-12.208 17.134-31.18 21.964-47.993 1.517-5.28 3.245-10.512 5.573-15.498l-1.551-.202c3.211 14.748 1.182 30.522-5.763 43.955-6.283 12.158-15.905 22.127-23.352 33.532-3.751 5.745-6.894 11.895-8.71 18.527-2.077 7.587-2.573 15.501-2.668 23.331-.179 14.91-.237 30.792 7.373 44.141 6.7 11.757 17.476 20.409 25.741 30.978a72 72 0 0 1 2.994 4.116l1.334-1.022-17.921-14.142c-5.36-4.23-10.818-8.379-15.784-13.072-4.809-4.544-9.028-9.638-12.032-15.548-2.926-5.758-4.711-12.036-5.692-18.398-.991-6.44-1.137-13.002-.767-19.499.377-6.646 1.235-13.281 1.055-19.947-.173-6.403-1.412-12.832-4.833-18.345-3.336-5.377-8.224-9.56-13.18-13.416-5.19-4.038-10.634-7.89-14.89-12.95-4.009-4.767-6.809-10.947-6.198-17.269a15.2 15.2 0 0 1 1.161-4.52l-1.582-.425c1.008 8.49 5.876 16.098 12.576 21.34 7.335 5.738 16.204 8.49 25.287 10.005 4.792.8 9.935 1.586 13.824 4.72.733.59 1.789-.132 1.334-1.022-1.717-3.347-3.903-6.423-5.763-9.689-1.738-3.046-3.3-6.406-3.17-9.985.125-3.438 1.989-7.165 5.892-7.105 3.303.054 6.127 2.355 7.484 5.226.964 2.04 1.344 4.321 1.514 6.551.081 1.053.115 2.108.132 3.161.011.54.038 1.09.014 1.63-.003.047-.356 1.73-.699 1.163-.55-.938-2.016-.09-1.45.843"/><path fill="#000" d="M117.468 100.893c1.979-2.173 4.022-4.443 6.764-5.664 1.287-.574 2.726-.867 4.134-.729 1.351.132 2.587.776 3.666 1.562 2.217 1.616 3.985 3.917 5.438 6.211 1.5 2.371 2.708 4.911 3.842 7.472 2.182 4.932 4.11 10.009 7.277 14.431 1.528 2.136 3.293 4.082 5.397 5.671a17.9 17.9 0 0 0 7.532 3.299c3.224.594 6.537.537 9.802.597 3.439.064 6.877.132 10.315.196q1.268.026 2.536.047c.947.017 1.164-1.433.224-1.656-4.898-1.164-9.314 1.771-13.845 3.07a13.9 13.9 0 0 1-7.322.128c-2.518-.631-4.857-1.805-7.043-3.185-4.195-2.648-7.942-6.014-11.092-9.83-1.554-1.882-2.875-3.896-4.178-5.951-1.171-1.848-2.8-3.892-5.237-3.788-1.365.061-2.706.651-3.972 1.117a69 69 0 0 0-3.866 1.565 67 67 0 0 0-7.294 3.751q-.864.515-1.714 1.056c-.916.584-.068 2.044.856 1.457 4.527-2.877 9.408-5.252 14.517-6.922 1.086-.354 2.094-.519 3.095.125.821.53 1.422 1.376 1.948 2.179.638.972 1.226 1.974 1.884 2.935a52 52 0 0 0 2.274 3.067 49 49 0 0 0 10.828 9.975c4.276 2.894 9.361 5.198 14.653 4.416 2.389-.355 4.626-1.33 6.863-2.197 2.101-.816 4.31-1.632 6.598-1.565a8 8 0 0 1 1.599.216l.224-1.656q-5.243-.1-10.485-.199c-3.326-.064-6.697.01-10.01-.338-2.824-.296-5.502-1.13-7.878-2.695-2.111-1.393-3.91-3.259-5.41-5.279-3.265-4.393-5.241-9.486-7.42-14.452-2.247-5.124-4.874-10.495-9.3-14.128-1.137-.934-2.403-1.73-3.832-2.135-1.466-.415-3.034-.368-4.504 0-3.021.752-5.458 2.8-7.559 4.996a88 88 0 0 0-1.507 1.629c-.73.813.465 2.007 1.202 1.201M86.126 110.551c-2.461 1.262-4.114 3.626-5.193 6.096-1.246 2.847-1.847 5.951-3.252 8.734-1.32 2.614-3.255 4.84-5.377 6.844-2.046 1.933-4.25 3.708-6.544 5.34-4.555 3.239-9.503 5.941-14.67 8.087-5.26 2.185-10.739 3.835-16.309 5.029-5.546 1.188-11.183 1.92-16.845 2.26q-1.044.062-2.09.108c-.374.017-.717.25-.819.621-.091.327.051.81.39.951 4.43 1.879 9.236 2.355 14.015 2.261 2.393-.048 4.78-.23 7.162-.425 2.542-.21 5.084-.422 7.627-.668 9.66-.935 19.377-2.439 28.284-6.447 4.551-2.048 8.818-4.753 12.44-8.184.79-.749-.411-1.943-1.202-1.194-6.368 6.032-14.67 9.574-23.132 11.598-4.802 1.147-9.697 1.842-14.605 2.358-4.847.506-9.724.975-14.592 1.204-5.09.24-10.386.057-15.141-1.96l-.428 1.572c5.767-.253 11.52-.894 17.188-1.98 5.625-1.08 11.167-2.614 16.51-4.676 5.319-2.054 10.444-4.614 15.192-7.765a69 69 0 0 0 6.85-5.175c2.25-1.933 4.382-4.025 6.086-6.46 1.802-2.578 2.742-5.485 3.716-8.437.866-2.618 1.918-5.327 4.05-7.199a7.6 7.6 0 0 1 1.544-1.036c.97-.499.115-1.956-.855-1.457"/></svg>