<svg xmlns="http://www.w3.org/2000/svg" width="200" height="200" fill="none"><path fill="url(#a)" d="M91.666 61.828c-.775-6.246-1.522-12.762.557-18.701 2.14-6.118 7.019-10.856 9.925-16.648 3.035-6.049 3.782-12.956 4.482-19.692a58.9 58.9 0 0 1-6.676 22.64c-1.506 2.828-3.247 5.537-4.484 8.491-3.2 7.633-2.82 16.234-2.385 24.506"/><path fill="#000" d="M92.448 61.828c-.49-3.97-.975-7.977-.728-11.982.121-1.975.44-3.938 1.031-5.829.528-1.684 1.284-3.277 2.16-4.807 1.8-3.139 4.056-5.98 6.003-9.024a35.4 35.4 0 0 0 4.488-10.36c1.09-4.268 1.553-8.668 2.006-13.042h-1.563a58 58 0 0 1-6.175 21.492c-1.775 3.452-3.938 6.701-5.322 10.348-1.335 3.521-1.956 7.278-2.2 11.025-.278 4.255-.072 8.523.153 12.772.053 1.003 1.616 1.01 1.563 0-.391-7.441-.791-15.155 1.615-22.323 1.228-3.663 3.344-6.893 5.151-10.28a59.5 59.5 0 0 0 4.356-10.488 60 60 0 0 0 2.425-12.546c.038-.423-.384-.784-.781-.784-.46 0-.738.36-.781.784-.4 3.844-.81 7.698-1.672 11.47-.844 3.697-2.172 7.194-4.16 10.426-1.894 3.083-4.156 5.918-6.028 9.016-.935 1.546-1.757 3.16-2.385 4.854-.694 1.865-1.097 3.819-1.316 5.794-.5 4.49.047 9.019.6 13.478.053.42.322.784.782.784.378.006.831-.355.778-.778"/><path fill="url(#b)" d="M80.71 64.69c-.26-1.498-1.35-2.693-2.344-3.844-7.685-8.908-11.92-20.736-11.638-32.51"/><path fill="#000" d="M81.463 64.484c-.247-1.314-1.038-2.408-1.878-3.415-.82-.975-1.657-1.928-2.425-2.948a48 48 0 0 1-4.148-6.534 48.4 48.4 0 0 1-4.897-14.569 46.7 46.7 0 0 1-.61-8.683c.023-1.01-1.54-1.01-1.562 0a49 49 0 0 0 2.182 15.5c1.547 4.999 3.875 9.771 6.912 14.03a49 49 0 0 0 2.776 3.536c.9 1.045 1.878 2.098 2.144 3.5.078.417.578.652.962.549.431-.123.622-.55.544-.966"/><path fill="url(#c)" d="M103.495 64.691c-1.59-5.212.944-10.812 4.235-15.149s7.429-8.102 9.822-12.997c1.463-2.988 2.207-6.271 2.935-9.52"/><path fill="#000" d="M104.248 64.484c-1.556-5.212 1.129-10.59 4.238-14.65 3.3-4.309 7.422-8.065 9.807-13.023 1.456-3.029 2.216-6.315 2.95-9.58.222-.98-1.284-1.4-1.506-.416-.65 2.888-1.291 5.829-2.491 8.548-1.119 2.533-2.728 4.794-4.478 6.926-1.747 2.13-3.616 4.155-5.304 6.331-1.725 2.227-3.212 4.626-4.194 7.278-1.062 2.873-1.409 6.037-.525 9 .285.966 1.794.555 1.503-.414"/><path fill="url(#d)" d="M61.584 79.761c-.66-.01-1.316-.069-1.922-.291l-1.297.15c2.381.383 4.719.944 6.988 1.737z"/><path fill="#000" d="M61.584 78.977c-.522-.01-1.032-.047-1.532-.2-.534-.167-1.14-.004-1.69.059-.388.044-.72.263-.77.68-.04.352.173.797.56.86 2.372.385 4.716.947 6.988 1.737.4.138.853-.157.963-.549.125-.451-.157-.8-.547-.966q-1.885-.797-3.77-1.593c-.387-.163-.859.176-.962.55-.125.45.157.799.547.965q1.884.797 3.77 1.593.207-.756.415-1.512c-2.275-.787-4.616-1.348-6.988-1.737l-.206 1.54.778-.091c.297-.035.453-.028.744.044.553.135 1.128.179 1.697.188 1.006.019 1.006-1.549.003-1.568"/><path fill="url(#e)" d="M34.598 79.66Q17.677 81.11.76 82.556c7.65 2.75 16.06 1.856 24.136.925 11.157-1.285 22.31-2.574 33.468-3.86-7.72-1.245-15.901-.63-23.768.04"/><path fill="#000" d="M34.598 78.877A73338 73338 0 0 1 8.212 81.13l-7.45.637c-.882.075-1.06 1.235-.207 1.54 6.885 2.455 14.335 2.038 21.48 1.273 7.725-.828 15.441-1.772 23.157-2.663q6.585-.76 13.17-1.517c.387-.044.718-.264.768-.68.041-.352-.172-.8-.559-.86-6.175-.988-12.448-.84-18.664-.408-1.771.126-3.54.273-5.31.424-.421.034-.78.335-.78.784 0 .395.359.821.78.784 6.136-.524 12.305-1.01 18.461-.624a54 54 0 0 1 5.097.552l.207-1.54-23.242 2.68c-3.86.446-7.723.898-11.582 1.337-3.585.404-7.185.762-10.798.762-3.997.003-7.99-.468-11.772-1.816l-.207 1.54q13.194-1.13 26.386-2.255l7.45-.636c.423-.035.782-.336.782-.784 0-.395-.36-.819-.781-.784"/><path fill="url(#f)" d="m65.35 81.354 4.169 1.765a34 34 0 0 0-4.17-1.765"/><path fill="#000" d="m65.143 82.11 3.65 1.542q.26.11.52.22c.356.15.787-.135.921-.455.144-.338.028-.802-.319-.978a36 36 0 0 0-4.356-1.844c-.388-.135-.872.154-.963.549-.1.439.132.821.547.966q1.046.366 2.07.793c-.12-.05.084.034.105.047q.145.062.291.129.254.112.51.229.507.236 1.006.485.3-.716.603-1.433l-3.65-1.542q-.26-.11-.52-.22c-.377-.16-.874.173-.962.549-.103.458.141.793.547.963"/><path fill="url(#g)" d="M118.521 85.982c3.356-2.844 7.547-4.509 11.776-5.713 22.257-6.33 45.883-.897 68.95.903-10.885-2.48-22.21-.627-33.336.26-12.482.998-25.023.762-37.543.527"/><path fill="#000" d="M119.071 86.537c3.828-3.22 8.713-4.86 13.488-6.061 5.182-1.305 10.492-2 15.82-2.27 5.385-.27 10.785-.113 16.16.257 5.469.376 10.923.975 16.37 1.596 5.422.618 10.841 1.26 16.276 1.73q1.026.09 2.053.17c.878.069 1.063-1.345.206-1.54-8.947-2.022-18.154-1.2-27.192-.341-4.622.439-9.241.83-13.882 1.034-4.703.207-9.413.276-14.119.27-5.301-.006-10.598-.107-15.895-.204-1.006-.019-1.006 1.55 0 1.568 9.363.176 18.729.351 28.092.013 4.657-.17 9.301-.499 13.942-.938 4.522-.426 9.044-.894 13.585-1.05 5.044-.176 10.116.043 15.051 1.16l.206-1.54c-5.51-.433-11.004-1.06-16.495-1.69-5.503-.63-11.007-1.257-16.529-1.684-5.456-.42-10.935-.64-16.407-.439-5.416.198-10.832.81-16.12 2.016-4.941 1.126-10.028 2.669-14.204 5.651a24 24 0 0 0-1.525 1.185c-.325.273-.281.828 0 1.11.335.317.797.27 1.119-.003"/><path fill="url(#h)" d="M78.229 104.505c-1.56 3.208-5.226 4.725-7.682 7.306-5.663 5.955-3.785 15.908-7.738 23.116-1.485 2.707-3.738 4.908-6.116 6.868"/><path fill="#000" d="M77.553 104.11c-1.272 2.565-3.897 4.02-6.038 5.763-2.222 1.806-3.762 4.105-4.744 6.789-1.931 5.29-1.71 11.148-3.903 16.359-1.41 3.352-3.966 5.942-6.726 8.219-.325.269-.278.831 0 1.11.322.323.779.269 1.107 0 2.531-2.089 4.935-4.465 6.447-7.422 1.313-2.559 1.963-5.381 2.472-8.194.966-5.356 1.469-11.361 5.797-15.199 2.394-2.123 5.46-3.653 6.941-6.635.444-.9-.903-1.693-1.353-.79"/><path fill="url(#i)" d="M110.121 108.098c6.2 5.977 8.141 15.089 8.941 23.681.3 3.217.487 6.472 1.344 9.586.856 3.117 2.459 6.14 5.062 8.043"/><path fill="#000" d="M109.568 108.65c4.044 3.923 6.219 9.244 7.434 14.666.622 2.766 1.007 5.578 1.272 8.4.322 3.421.507 6.902 1.479 10.217.934 3.179 2.628 6.158 5.319 8.152.34.251.872.057 1.068-.282.232-.398.06-.821-.281-1.072-2.241-1.659-3.669-4.233-4.491-6.858-1.009-3.22-1.203-6.607-1.512-9.946-.525-5.682-1.475-11.418-3.844-16.645-1.3-2.875-3.075-5.537-5.341-7.739-.722-.702-1.828.405-1.103 1.107"/><path fill="url(#j)" d="M95.308 108.098c2.14 14.951-7.723 28.855-10.073 43.772-1.4 8.886-.037 18.193 3.857 26.299 2.462 5.13 5.9 9.777 7.956 15.082-4.875-7.764-7.556-16.901-7.65-26.079-.047-4.487.51-8.956 1.066-13.408l3.703-29.648"/><path fill="#000" d="M94.554 108.305c.775 5.503-.178 11.054-1.706 16.344-1.585 5.487-3.763 10.777-5.57 16.189-1.85 5.532-3.243 11.207-3.353 17.068a45.8 45.8 0 0 0 3.141 17.553c1.107 2.81 2.52 5.46 4.026 8.072 1.509 2.615 3.078 5.205 4.356 7.946q.456.976.85 1.981.714-.3 1.428-.605c-4.503-7.196-7.128-15.547-7.5-24.038-.206-4.732.325-9.448.91-14.136q.895-7.195 1.796-14.396 1.01-8.085 2.02-16.171c.052-.42-.398-.784-.782-.784-.466 0-.728.361-.781.784l-3.638 29.144c-.594 4.763-1.219 9.551-1.122 14.364a51.066 51.066 0 0 0 7.75 26.027c.447.714 1.766.26 1.429-.606-2.207-5.647-5.879-10.529-8.392-16.023-2.459-5.384-3.781-11.301-3.918-17.218-.07-2.941.15-5.889.674-8.783.513-2.819 1.273-5.585 2.144-8.313 1.741-5.447 3.929-10.737 5.616-16.199 1.644-5.321 2.807-10.903 2.376-16.497a35 35 0 0 0-.238-2.12c-.06-.42-.59-.649-.963-.548-.456.125-.612.545-.553.965"/><path fill="url(#k)" d="M92.992 104.508c10.594 0 19.182-8.617 19.182-19.247s-8.588-19.247-19.182-19.247S73.81 74.631 73.81 85.261s8.588 19.247 19.182 19.247"/><path fill="#000" fill-rule="evenodd" d="M92.992 66.641c-10.249 0-18.557 8.337-18.557 18.62s8.308 18.62 18.557 18.62 18.557-8.336 18.557-18.62c0-10.283-8.308-18.62-18.557-18.62m-19.807 18.62c0-10.976 8.868-19.874 19.807-19.874s19.807 8.898 19.807 19.874-8.868 19.874-19.807 19.874c-10.94 0-19.807-8.898-19.807-19.874" clip-rule="evenodd"/><path fill="url(#l)" d="M71.122 92.548c-4.563-.564-9.345 1.104-12.576 4.387-1.675 1.703-2.922 3.773-4.425 5.629a25.6 25.6 0 0 1-6.76 5.854q4.436-3.089 8.872-6.177c1.078-.75 2.178-1.524 2.935-2.6 1.165-1.658 1.65-4.12 3.581-4.722"/><path fill="#000" d="M71.122 91.765c-3.754-.449-7.676.548-10.798 2.68-1.669 1.142-3.012 2.584-4.234 4.187-1.26 1.655-2.413 3.377-3.85 4.888a25 25 0 0 1-5.273 4.218l.788 1.354q3.93-2.736 7.86-5.471c1.175-.819 2.428-1.596 3.434-2.628.847-.866 1.369-1.91 1.906-2.979.466-.925 1-2.013 2.004-2.346.95-.313.543-1.828-.416-1.51-2.325.767-2.781 3.288-4.05 5.082-.772 1.091-1.96 1.834-3.035 2.584q-1.996 1.39-3.994 2.781l-4.5 3.133c-.816.567-.087 1.878.788 1.354a26.8 26.8 0 0 0 4.834-3.7c1.472-1.423 2.703-3.038 3.907-4.694 1.153-1.583 2.344-3.139 3.884-4.365a14.4 14.4 0 0 1 4.747-2.47 14.6 14.6 0 0 1 5.995-.534c.418.05.78-.395.78-.784.004-.464-.356-.73-.777-.78"/><path fill="url(#m)" d="M114.858 71.608c1.766-6.767 7.682-12.254 14.545-13.49 1.328-.238 2.875-.451 3.563-1.614-4.31 5.205-12.979 5.61-16.376 11.454"/><path fill="#000" d="M115.612 71.818c1.647-6.224 6.866-11.285 13.113-12.756 1.753-.414 3.847-.451 4.913-2.157.462-.74-.65-1.64-1.228-.95-3.479 4.158-9.263 5.055-13.448 8.256-1.216.931-2.272 2.029-3.053 3.355-.513.872.837 1.659 1.35.79 1.297-2.204 3.447-3.606 5.675-4.756 2.375-1.227 4.885-2.202 7.15-3.635 1.269-.803 2.463-1.75 3.429-2.903l-1.228-.95c-.369.589-1.054.818-1.701.978-.79.197-1.6.291-2.39.486a18.7 18.7 0 0 0-4.635 1.825 20.1 20.1 0 0 0-7.225 6.858 18.6 18.6 0 0 0-2.235 5.145c-.25.972 1.256 1.39 1.513.414"/><path fill="url(#n)" d="M71.122 70.715a247 247 0 0 1-11.604.122c-1.303-.016-2.619-.044-3.881-.367-1.935-.49-3.638-1.64-5.148-2.948-1.89-1.636-3.653-3.853-3.447-6.35a29 29 0 0 0 8.863 5.858c4.326 1.825 9.013 2.565 13.651 3.293"/><path fill="#000" d="M71.122 69.93c-4.035.135-8.076.192-12.113.113-1.8-.034-3.52-.24-5.135-1.094-1.5-.79-2.872-1.884-4.028-3.123-1.188-1.273-2.15-2.85-2.029-4.653l-1.334.555a29.9 29.9 0 0 0 7.729 5.396c3.022 1.455 6.26 2.355 9.54 3.001 1.854.367 3.723.659 5.592.953.415.066.84-.106.962-.548.103-.374-.125-.9-.547-.966-3.25-.508-6.513-1.022-9.685-1.916-3.01-.85-5.866-2.088-8.478-3.813a28 28 0 0 1-4.004-3.217c-.509-.493-1.287-.116-1.334.555-.253 3.694 3.025 6.735 5.853 8.56 1.688 1.088 3.526 1.68 5.523 1.822 2.062.147 4.15.09 6.216.081a256 256 0 0 0 7.272-.14c1.003-.032 1.006-1.6 0-1.565"/><path fill="url(#o)" d="M115.102 98.7c6.051-.774 11.857 2.324 17.123 5.41 3.819 2.239 7.832 4.775 9.629 8.83l-13.166-8.159c-.95-.59-1.907-1.182-2.941-1.602-1.875-.766-3.929-.938-5.891-1.433-1.963-.493-3.969-1.418-4.994-3.17"/><path fill="#000" d="M115.102 99.485c4.307-.53 8.473.915 12.27 2.834 1.875.947 3.7 2.004 5.503 3.086 1.581.95 3.147 1.95 4.553 3.148 1.566 1.333 2.901 2.891 3.751 4.782l1.068-1.072q-5.531-3.428-11.06-6.855c-1.775-1.101-3.531-2.349-5.497-3.089-1.869-.702-3.878-.865-5.797-1.373-1.678-.442-3.425-1.217-4.356-2.766-.519-.862-1.872-.075-1.351.79.929 1.543 2.457 2.503 4.107 3.114 1.819.674 3.769.844 5.638 1.326 2.047.53 3.766 1.678 5.544 2.779l5.597 3.468q3.192 1.979 6.388 3.957c.294.182.706.119.947-.122.262-.264.265-.631.122-.95-1.635-3.628-4.947-6.087-8.238-8.112-3.707-2.28-7.585-4.541-11.776-5.786-2.397-.712-4.922-1.038-7.413-.734-.419.05-.781.323-.781.784 0 .39.359.84.781.79"/><defs><radialGradient id="a" cx="0" cy="0" r="1" gradientTransform="matrix(20.3802 0 0 20.4489 98.75 34.606)" gradientUnits="userSpaceOnUse"><stop offset=".574" stop-opacity="0"/><stop offset=".798" stop-opacity=".651"/><stop offset="1" stop-opacity=".95"/></radialGradient><radialGradient id="b" cx="0" cy="0" r="1" gradientTransform="matrix(13.7332 0 0 13.7794 73.71 46.513)" gradientUnits="userSpaceOnUse"><stop offset=".574" stop-opacity="0"/><stop offset=".798" stop-opacity=".651"/><stop offset="1" stop-opacity=".95"/></radialGradient><radialGradient id="c" cx="0" cy="0" r="1" gradientTransform="matrix(14.641 0 0 14.6903 111.749 45.858)" gradientUnits="userSpaceOnUse"><stop offset=".574" stop-opacity="0"/><stop offset=".798" stop-opacity=".651"/><stop offset="1" stop-opacity=".95"/></radialGradient><radialGradient id="d" cx="0" cy="0" r="1" gradientTransform="matrix(24.3871 0 0 24.4692 35.14 81.648)" gradientUnits="userSpaceOnUse"><stop offset=".574" stop-opacity="0"/><stop offset=".798" stop-opacity=".651"/><stop offset="1" stop-opacity=".95"/></radialGradient><radialGradient id="e" cx="0" cy="0" r="1" gradientTransform="matrix(24.387 0 0 24.4691 35.139 81.65)" gradientUnits="userSpaceOnUse"><stop offset=".574" stop-opacity="0"/><stop offset=".798" stop-opacity=".651"/><stop offset="1" stop-opacity=".95"/></radialGradient><radialGradient id="f" cx="0" cy="0" r="1" gradientTransform="matrix(24.3871 0 0 24.4692 35.14 81.648)" gradientUnits="userSpaceOnUse"><stop offset=".574" stop-opacity="0"/><stop offset=".798" stop-opacity=".651"/><stop offset="1" stop-opacity=".95"/></radialGradient><radialGradient id="g" cx="0" cy="0" r="1" gradientTransform="matrix(28.7047 0 0 28.8013 158.883 81.634)" gradientUnits="userSpaceOnUse"><stop offset=".574" stop-opacity="0"/><stop offset=".798" stop-opacity=".651"/><stop offset="1" stop-opacity=".95"/></radialGradient><radialGradient id="h" cx="0" cy="0" r="1" gradientTransform="matrix(15.1863 0 0 15.2374 67.46 123.151)" gradientUnits="userSpaceOnUse"><stop offset=".574" stop-opacity="0"/><stop offset=".798" stop-opacity=".651"/><stop offset="1" stop-opacity=".95"/></radialGradient><radialGradient id="i" cx="0" cy="0" r="1" gradientTransform="matrix(15.5343 0 0 15.5866 117.795 128.751)" gradientUnits="userSpaceOnUse"><stop offset=".574" stop-opacity="0"/><stop offset=".798" stop-opacity=".651"/><stop offset="1" stop-opacity=".95"/></radialGradient><radialGradient id="j" cx="0" cy="0" r="1" gradientTransform="matrix(30.3211 0 0 30.4231 90.873 150.673)" gradientUnits="userSpaceOnUse"><stop offset=".574" stop-opacity="0"/><stop offset=".798" stop-opacity=".651"/><stop offset="1" stop-opacity=".95"/></radialGradient><radialGradient id="k" cx="0" cy="0" r="1" gradientTransform="matrix(19.1808 0 0 19.2454 92.99 85.26)" gradientUnits="userSpaceOnUse"><stop offset=".574" stop-opacity="0"/><stop offset=".798" stop-opacity=".651"/><stop offset="1" stop-opacity=".95"/></radialGradient><radialGradient id="l" cx="0" cy="0" r="1" gradientTransform="matrix(10.1126 0 0 10.1467 59.241 100.428)" gradientUnits="userSpaceOnUse"><stop offset=".574" stop-opacity="0"/><stop offset=".798" stop-opacity=".651"/><stop offset="1" stop-opacity=".95"/></radialGradient><radialGradient id="m" cx="0" cy="0" r="1" gradientTransform="matrix(8.32449 0 0 8.35253 123.912 64.057)" gradientUnits="userSpaceOnUse"><stop offset=".574" stop-opacity="0"/><stop offset=".798" stop-opacity=".651"/><stop offset="1" stop-opacity=".95"/></radialGradient><radialGradient id="n" cx="0" cy="0" r="1" gradientTransform="matrix(9.1783 0 0 9.2092 59.072 66.015)" gradientUnits="userSpaceOnUse"><stop offset=".574" stop-opacity="0"/><stop offset=".798" stop-opacity=".651"/><stop offset="1" stop-opacity=".95"/></radialGradient><radialGradient id="o" cx="0" cy="0" r="1" gradientTransform="matrix(10.8024 0 0 10.8388 128.356 105.758)" gradientUnits="userSpaceOnUse"><stop offset=".574" stop-opacity="0"/><stop offset=".798" stop-opacity=".651"/><stop offset="1" stop-opacity=".95"/></radialGradient></defs></svg>