<svg xmlns="http://www.w3.org/2000/svg" width="200" height="200" fill="none"><g fill="#000" clip-path="url(#a)"><path d="M79.597 31.596c1.404 6.557 1.393 13.38.342 19.989-1.044 6.565-3.077 12.942-5.63 19.072-1.467 3.53-3.127 6.981-4.877 10.381-.476.924.668 1.844 1.46 1.115.412-.379.873.331 1.033.604.197.338.14.592.104.971q-.079.811-.2 1.612c-.32 2.024-.885 3.937-1.665 5.832-1.472 3.577-3.177 7.062-5.042 10.459-3.693 6.723-8.036 13.07-12.614 19.227-2.582 3.47-5.242 6.885-7.914 10.289-.308.39-.386.92 0 1.302.32.317 1.003.394 1.316 0 5.112-6.509 10.195-13.056 14.772-19.952 4.596-6.922 8.65-14.204 11.715-21.924.899-2.263 1.363-4.795 1.526-7.216.142-2.131-2.53-4.184-4.339-2.51l1.46 1.115c3.158-6.135 6.004-12.453 8.085-19.032 2.062-6.521 3.351-13.318 3.422-20.162a53 53 0 0 0-1.156-11.67c-.256-1.15-2.047-.658-1.798.498"/><path d="M79.909 31.57c4.012 4.861 7.036 10.484 9.366 16.305 2.556 6.392 4.462 13.045 5.982 19.746 1.545 6.82 2.537 13.734 2.456 20.733-.082 6.815-1.275 13.571-3.326 20.073-1.839 5.833-4.592 11.448-8.541 16.173a43 43 0 0 1-1.687 1.895c-.814.865.494 2.168 1.315 1.303 4.455-4.725 7.683-10.392 9.887-16.456a71 71 0 0 0 4.116-20.125c.398-7.158-.364-14.367-1.831-21.373-1.453-6.951-3.33-13.829-5.815-20.49-2.266-6.075-5.16-11.974-9.091-17.17a58 58 0 0 0-1.513-1.913c-.32-.386-.984-.328-1.315 0-.386.379-.32.913-.004 1.299"/><path d="M84.014 126.687c-2.062 2.922-5.09 4.979-7.95 7.061-3.4 2.473-6.818 4.917-10.33 7.231-6.724 4.431-13.813 8.32-21.196 11.562a141 141 0 0 1-13.089 4.972c-1.13.368-.646 2.145.494 1.774a142.7 142.7 0 0 0 23.132-9.822c7.394-3.945 14.327-8.6 21.089-13.516 3.407-2.477 7.007-4.857 9.46-8.335.285-.408.073-1.023-.335-1.258-.468-.269-.985-.078-1.275.331M44.95 130.845c-4.087 4.482-8.88 8.287-14.278 11.117a50 50 0 0 1-4.555 2.101c-.465.188-.791.615-.65 1.133.122.438.676.828 1.144.644a52.8 52.8 0 0 0 15.824-9.869 56 56 0 0 0 3.83-3.823c.8-.88-.512-2.186-1.315-1.303"/><path d="M25.289 145.572q2.579 6.305 5.164 12.611c.19.46.617.783 1.144.644.442-.122.84-.67.65-1.134q-2.579-6.305-5.164-12.611c-.19-.46-.616-.783-1.144-.644-.442.122-.84.67-.65 1.134"/><path d="m26.615 143.931-3.8-1.734c-.235-.106-.461-.162-.718-.092-.215.059-.45.225-.553.424-.216.404-.138 1.045.334 1.258l3.801 1.733c.234.107.46.162.717.092.216-.059.45-.224.554-.423.215-.405.137-1.041-.335-1.258M30.747 157.557a16 16 0 0 1-1.182 2.234q-.334.525-.713 1.023l-.093.121c.048-.066.063-.081.004-.007l-.19.235q-.217.263-.445.515c-.324.361-.383.954 0 1.303.352.32.97.383 1.315 0a16.5 16.5 0 0 0 2.909-4.493c.19-.442.149-1.008-.334-1.258-.402-.21-1.067-.144-1.271.327"/><path d="M21.317 143.294a530 530 0 0 1 6.457 19.006c.36 1.126 2.152.644 1.791-.489a538 538 0 0 0-6.457-19.007c-.167-.467-.632-.78-1.145-.644-.453.129-.813.667-.646 1.134"/><path d="M26.095 149.546c1.196 0 1.196-1.84 0-1.84s-1.2 1.84 0 1.84M27.455 152.873c1.196 0 1.196-1.84 0-1.84s-1.196 1.84 0 1.84M28.748 156.026c1.197 0 1.197-1.84 0-1.84-1.196 0-1.2 1.84 0 1.84"/><path d="M23.762 147.68a300 300 0 0 1-15.192 5.656c-.476.162-.788.629-.65 1.134.126.456.664.805 1.144.644a310 310 0 0 0 15.192-5.656c.464-.188.791-.611.65-1.134-.123-.438-.676-.835-1.144-.644M26.95 156.471c-5.012 2.013-10.02 4.026-15.032 6.035-.465.188-.792.611-.65 1.134.122.438.676.831 1.144.644q7.516-3.02 15.032-6.035c.465-.188.792-.611.65-1.134-.122-.437-.676-.831-1.144-.644"/><path fill-rule="evenodd" d="m.67 154.509 7.213-2.897 6.342 15.489-7.213 2.897zm1.936.811 5.224 12.761 4.46-1.791-5.226-12.761z" clip-rule="evenodd"/><path d="M2.833 157.951c-1.542.39-2.612 1.77-2.809 3.301-.19 1.497.744 2.988 2.114 3.606.825.372 1.713.5 2.598.268.471-.121.802-.662.65-1.133a.95.95 0 0 0-1.145-.644 3 3 0 0 1-.286.059c.234-.04.004-.007-.04-.007-.097.003-.194-.004-.29-.004-.197 0 .167.04-.041-.004a6 6 0 0 1-.49-.129c-.224-.069.163.089-.049-.018-.085-.044-.175-.088-.26-.136-.063-.037-.123-.081-.186-.118-.152-.096.108.096-.07-.055a4 4 0 0 1-.331-.335c-.067-.081-.06-.074.011.015a2 2 0 0 1-.19-.306c-.022-.044-.044-.084-.063-.128q.061.148.026.055c-.026-.081-.055-.158-.078-.243q-.025-.104-.044-.214c.048.247 0-.058 0-.114q-.001-.107.004-.213l.01-.144q-.022.172-.007.067c.056-.136.082-.309.123-.453q.056-.145-.015.018.028-.066.063-.132.05-.099.104-.191c.049-.085.104-.162.16-.243-.086.129-.022.026.037-.041a3.3 3.3 0 0 1 .368-.349c-.167.14.015-.004.048-.026.082-.052.167-.096.253-.144.163-.095-.152.041.044-.022q.14-.045.28-.084c.471-.118.802-.666.65-1.134a.963.963 0 0 0-1.149-.625M118.619 31.106c-1.46 6.812-1.449 13.825-.386 20.688 1.036 6.694 3.102 13.196 5.71 19.441 1.524 3.647 3.218 7.216 5.027 10.73l1.46-1.115c-.754-.699-1.791-.772-2.701-.327-.747.368-1.33 1.203-1.564 1.99-.145.49-.067.99-.015 1.491q.095.916.242 1.825c.167 1.064.393 2.116.687 3.154.583 2.042 1.512 4.015 2.385 5.95a109 109 0 0 0 2.731 5.601c3.819 7.293 8.434 14.142 13.335 20.762 2.79 3.768 5.677 7.466 8.575 11.157.308.394.988.32 1.315 0 .39-.386.308-.909 0-1.303-4.76-6.064-9.485-12.165-13.795-18.553s-8.193-13.075-11.239-20.151c-.896-2.076-1.661-4.133-2.073-6.36a23 23 0 0 1-.249-1.618c-.052-.427-.227-1.053-.104-1.465.1-.331.698-1.28 1.159-.853.784.724 1.939-.184 1.46-1.116-3.073-5.968-5.837-12.103-7.869-18.502-2.021-6.37-3.303-12.979-3.381-19.665-.045-3.786.293-7.57 1.088-11.275.242-1.152-1.549-1.645-1.798-.486"/><path d="M118.783 30.267c-4.176 5.06-7.308 10.83-9.749 16.883-2.62 6.492-4.555 13.259-6.097 20.074-1.587 7.003-2.605 14.13-2.497 21.321.104 6.984 1.337 13.954 3.463 20.611 1.939 6.064 4.837 11.834 8.943 16.751.542.647 1.107 1.28 1.686 1.895.818.868 2.129-.434 1.316-1.303-4.284-4.545-7.398-10.035-9.493-15.878-2.259-6.308-3.638-12.994-3.979-19.677-.357-6.973.379-13.968 1.82-20.794 1.434-6.797 3.266-13.524 5.677-20.048 2.189-5.917 5.009-11.643 8.798-16.722q.692-.92 1.427-1.814c.316-.383.379-.923 0-1.302-.327-.32-.996-.383-1.315.003"/><path d="M114.388 127.614c2.166 3.073 5.227 5.266 8.244 7.452 3.455 2.502 6.918 4.997 10.478 7.352 6.814 4.504 14.003 8.46 21.497 11.746a145 145 0 0 0 13.457 5.123c1.137.368 1.627-1.406.494-1.774a140 140 0 0 1-22.612-9.593c-7.286-3.883-14.129-8.453-20.799-13.292-3.243-2.355-6.821-4.626-9.158-7.941-.286-.409-.814-.596-1.271-.331-.401.235-.616.85-.33 1.258M153.744 132.144c4.217 4.626 9.211 8.57 14.787 11.474a54 54 0 0 0 4.868 2.219c.464.187 1.021-.203 1.144-.644.145-.526-.182-.946-.65-1.134-5.566-2.226-10.701-5.479-15.118-9.497a57 57 0 0 1-3.716-3.721c-.806-.879-2.114.427-1.315 1.303"/><path d="M172.927 145.082q-2.579 6.306-5.164 12.611c-.19.46.204 1.012.65 1.134.531.143.955-.181 1.144-.644q2.58-6.306 5.164-12.611c.19-.46-.204-1.012-.65-1.134-.531-.143-.955.181-1.144.644"/><path d="m174.327 145.52 3.801-1.733c.442-.202.587-.868.334-1.258-.293-.453-.798-.545-1.27-.332l-3.801 1.734c-.442.202-.587.868-.335 1.258.294.453.799.548 1.271.331M167.658 158.484a16.4 16.4 0 0 0 2.909 4.493c.323.361.988.354 1.315 0 .357-.386.346-.916 0-1.302q-.218-.237-.423-.486-.096-.115-.193-.235c-.012-.015-.112-.144-.045-.056.067.089-.03-.04-.045-.055q-.39-.511-.735-1.056a16 16 0 0 1-1.182-2.234c-.193-.445-.884-.577-1.27-.331-.465.302-.539.788-.331 1.262"/><path d="M176.899 142.804a531 531 0 0 0-6.458 19.007c-.36 1.133 1.431 1.615 1.791.489a537 537 0 0 1 6.457-19.006c.168-.467-.189-1.008-.65-1.134-.513-.136-.973.177-1.14.644"/><path d="M173.915 149.546c1.197 0 1.197-1.84 0-1.84-1.196 0-1.2 1.84 0 1.84M172.552 152.873c1.196 0 1.196-1.84 0-1.84-1.197 0-1.197 1.84 0 1.84M171.263 156.026c1.196 0 1.196-1.84 0-1.84s-1.2 1.84 0 1.84"/><path d="M175.75 149.454a301 301 0 0 0 15.192 5.656c.476.162 1.015-.184 1.145-.644.141-.504-.175-.968-.65-1.133a310 310 0 0 1-15.193-5.656c-.464-.188-1.021.202-1.144.644-.145.526.182.945.65 1.133M172.563 158.249q7.516 3.02 15.032 6.035c.465.187 1.022-.203 1.145-.644.144-.526-.183-.946-.651-1.134q-7.516-3.019-15.032-6.035c-.464-.187-1.022.203-1.144.644-.145.527.182.946.65 1.134"/><path fill-rule="evenodd" d="m193.013 170-7.213-2.897 6.341-15.489 7.213 2.897zm-.819-1.917 5.225-12.761-4.459-1.791-5.225 12.761z" clip-rule="evenodd"/><path d="M196.68 159.728q.142.037.278.085c.22.073-.156-.089.045.022.085.048.171.092.253.143.041.026.215.162.048.026.13.107.256.221.368.35.033.036.145.213.037.04.052.081.111.158.16.243q.054.093.104.191.031.067.063.133-.06-.147-.026-.052c.041.151.089.298.126.453.019.103.019.096 0-.033.004.048.011.096.011.143.004.07.008.144.004.214 0 .026-.026.305-.007.165.018-.139-.03.137-.038.162-.018.07-.044.14-.063.206q-.055.145.011-.018-.028.067-.063.129-.05.093-.107.187a1 1 0 0 1-.082.118q.1-.121.033-.044c-.111.11-.208.232-.327.339q-.056.048-.111.092.139-.104.011-.015-.093.061-.186.118a6 6 0 0 1-.26.136c-.171.088.152-.041-.048.018-.164.048-.323.096-.491.129-.23.044.194-.004-.04.004-.097.003-.194.007-.29.003-.056-.003-.275-.033-.041.008q-.144-.024-.286-.059c-.468-.122-1.029.154-1.145.644-.111.482.145 1.001.651 1.133 1.549.401 3.15-.268 4.087-1.512.914-1.215.817-2.985-.071-4.184-.528-.714-1.237-1.259-2.114-1.48-.472-.117-1.029.151-1.144.644-.108.464.144.99.65 1.119"/></g><defs><clipPath id="a"><path fill="#fff" d="M0 0h200v200H0z"/></clipPath></defs></svg>