<svg width="200" height="200" viewBox="0 0 200 200" fill="none" xmlns="http://www.w3.org/2000/svg">
<path d="M94.4956 195.124C88.6913 190.73 83.8401 185.184 79.9054 179.089C75.8689 172.836 72.5207 165.937 70.4149 158.794C69.2744 154.925 68.5575 150.929 68.5738 146.885C68.586 142.702 69.3721 138.585 70.1053 134.484C71.592 126.156 72.4433 117.738 72.4759 109.276C72.5085 100.948 72.3293 91.8156 67.6817 84.5635C66.9649 83.4469 65.3722 84.4173 65.9221 85.5868C69.4047 92.9688 71.6042 100.968 72.3048 109.097C73.0217 117.397 71.8568 125.664 71.816 133.964C71.7957 138.037 72.0726 142.138 72.9973 146.117C73.9015 150.011 75.4656 153.702 77.0501 157.357C78.5979 160.934 80.1457 164.503 81.217 168.255C82.1253 171.443 82.7933 174.687 83.5387 177.915C85.1598 184.92 87.3227 192.083 92.7889 197.105C93.5465 197.8 94.7196 197.114 94.4915 196.119C91.4936 182.934 95.0251 169.449 95.8601 156.224C96.7114 142.678 95.5505 129.108 93.8561 115.671C92.1739 102.336 89.9377 89.0707 88.5854 75.6993C87.3797 63.7979 86.895 51.7706 88.011 39.8407C89.119 28.0286 91.901 16.2692 97.1472 5.57783C97.8152 4.21349 98.528 2.86945 99.2694 1.54165C98.6502 1.28177 98.027 1.0219 97.4079 0.757961C94.3856 13.0208 95.7338 25.6775 97.7093 37.9891C98.7195 44.2829 99.8803 50.5524 100.772 56.8665C101.681 63.3106 102.377 69.7831 102.943 76.2637C104.072 89.0829 104.797 101.955 105.412 114.806C105.721 121.259 105.896 127.731 105.558 134.187C105.224 140.587 104.296 146.925 103.009 153.199C100.426 165.811 96.8173 178.228 93.5425 190.674C93.1311 192.237 92.7197 193.804 92.3083 195.368C92.9763 195.457 93.6402 195.546 94.3082 195.636C94.911 187.807 100.377 181.481 106.043 176.51C111.966 171.313 118.76 167.183 124.442 161.702C127.505 158.746 130.213 155.392 132.038 151.534C131.419 151.453 130.796 151.372 130.177 151.29C133.114 158.827 127.981 166.42 122.161 170.883C115.627 175.893 107.721 178.691 101 183.417C97.4486 185.915 94.2267 188.911 92.072 192.712C92.7034 192.883 93.3388 193.053 93.9701 193.224C94.1005 178.524 87.2657 164.877 86.7321 150.275C86.5854 146.247 87.005 142.248 88.1903 138.386C87.6241 138.536 87.0539 138.686 86.4877 138.833C91.5955 143.255 93.8683 150.377 91.848 156.87C91.4611 158.12 93.4243 158.656 93.8113 157.41C96.0312 150.271 93.5547 142.268 87.9255 137.395C87.3471 136.892 86.4592 137.078 86.2229 137.842C81.8239 152.176 87.8889 166.749 90.6342 180.77C91.4366 184.875 91.9702 189.029 91.9335 193.22C91.9254 194.222 93.3347 194.608 93.8316 193.731C97.9659 186.442 105.909 182.573 113.041 178.792C120.169 175.016 127.802 170.675 131.329 163.05C133.114 159.188 133.716 154.787 132.144 150.746C131.863 150.023 130.694 149.634 130.283 150.503C126.869 157.722 120.462 162.83 114.214 167.541C107.864 172.328 101.294 177.055 96.7236 183.677C94.2634 187.246 92.6097 191.287 92.2757 195.627C92.1861 196.781 93.9905 196.988 94.2756 195.895C97.5627 183.397 101.098 170.935 103.974 158.335C105.379 152.188 106.536 145.975 107.175 139.698C107.827 133.274 107.876 126.809 107.672 120.361C107.273 107.506 106.43 94.6255 105.436 81.8023C104.442 68.9791 102.85 56.2656 100.695 43.5845C98.5891 31.1917 96.3896 18.4051 98.4344 5.84988C98.6828 4.315 99.0005 2.7923 99.3712 1.28177C99.64 0.189489 98.0881 -0.533291 97.5097 0.498087C91.624 11.019 88.1821 22.6605 86.5773 34.562C84.9602 46.5203 85.0947 58.6451 86.0844 70.648C87.1761 83.9016 89.3185 97.0415 91.1067 110.214C92.96 123.87 94.4548 137.643 94.0434 151.441C93.8398 158.21 92.9926 164.901 92.2187 171.622C91.4488 178.297 90.8582 185.07 91.6851 191.77C91.8887 193.406 92.1657 195.026 92.5282 196.634C93.0944 196.306 93.6646 195.977 94.2308 195.648C89.3593 191.173 87.3064 184.887 85.8075 178.638C85.0458 175.463 84.4022 172.255 83.5672 169.096C82.6141 165.482 81.274 162.026 79.7995 158.595C78.2476 154.994 76.6102 151.412 75.5064 147.64C74.3292 143.604 73.9015 139.43 73.8526 135.239C73.759 126.984 74.9891 118.757 74.4473 110.498C73.8567 101.496 71.5228 92.6968 67.6777 84.5391C67.0911 84.8802 66.5046 85.2213 65.9181 85.5624C70.146 92.1567 70.3904 100.335 70.4352 107.92C70.4841 116.516 69.7102 125.084 68.2031 133.55C67.4659 137.708 66.6512 141.878 66.5453 146.113C66.4435 150.093 67.0382 154.084 68.0606 157.925C70.0035 165.226 73.3272 172.304 77.2904 178.732C81.5713 185.679 86.9439 191.916 93.4691 196.858C94.5119 197.67 95.5302 195.908 94.4956 195.124Z" fill="black"/>
<path d="M107.448 143.279C109.766 137.379 112.051 131.467 114.401 125.579C116.466 120.406 118.812 115.212 122.584 111.03C126.034 107.205 130.286 104.237 134.205 100.932C138.245 97.5248 141.777 93.6754 143.874 88.7702C146.347 82.9921 147.027 76.7023 147.65 70.5059C146.97 70.5059 146.294 70.5059 145.614 70.5059C145.915 81.5262 143.638 92.575 139.137 102.645C136.852 107.757 134.013 112.63 130.694 117.141C127.35 121.689 123.46 125.717 119.309 129.534C114.792 133.692 109.985 137.98 107.521 143.738C108.14 143.819 108.764 143.9 109.383 143.981C108.556 138.264 110.091 132.336 113.321 127.573C116.543 122.826 121.525 119.797 125.965 116.321C128.47 114.36 130.812 112.204 132.6 109.556C131.981 109.296 131.358 109.036 130.738 108.772C128.91 113.223 127.056 117.681 124.714 121.896C123.541 124.008 122.242 126.054 120.775 127.979C119.346 129.855 117.708 131.532 116.026 133.18C114.389 134.788 112.743 136.425 111.48 138.354C110.075 140.502 109.497 142.897 109.183 145.415C108.861 147.997 108.568 150.551 107.998 153.097C107.428 155.627 106.694 158.116 105.851 160.565C103.912 166.193 101.395 171.601 98.882 176.994C99.5011 177.254 100.124 177.513 100.743 177.777C104.552 167.062 108.523 156.196 115.053 146.779C118.274 142.134 122.16 137.895 126.714 134.516C132.062 130.549 138.115 127.682 143.65 124C149.113 120.365 154.245 115.781 156.689 109.552C156.033 109.373 155.381 109.191 154.725 109.012C153.21 117.125 147.471 123.524 141.239 128.58C134.506 134.041 126.779 138.106 119.814 143.242C115.9 146.129 112.197 149.333 109.195 153.179C109.729 153.589 110.262 153.999 110.796 154.409C113.061 150.694 115.733 147.258 118.763 144.136C118.197 143.985 117.627 143.835 117.061 143.689C118.775 149 115.79 154.311 112.93 158.628C109.558 163.724 105.945 168.678 102.442 173.688C100.426 176.575 98.4095 179.462 96.3933 182.35C96.0796 182.8 96.3118 183.478 96.7598 183.738C97.2649 184.035 97.8392 183.823 98.1529 183.373C101.843 178.09 105.534 172.807 109.22 167.524C111.012 164.962 112.841 162.42 114.576 159.818C116.156 157.442 117.615 154.961 118.592 152.273C119.655 149.341 119.993 146.15 119.024 143.145C118.796 142.434 117.875 142.126 117.321 142.698C114.177 145.943 111.387 149.528 109.036 153.386C108.454 154.344 109.912 155.542 110.637 154.616C116.067 147.664 123.635 142.913 130.967 138.203C138.164 133.578 145.483 128.746 150.803 121.925C153.646 118.278 155.837 114.12 156.693 109.552C156.937 108.253 155.206 107.798 154.73 109.012C152.611 114.413 148.07 118.514 143.386 121.734C137.989 125.441 132.03 128.263 126.682 132.048C117.089 138.829 110.596 148.696 105.81 159.249C103.151 165.117 100.943 171.175 98.7883 177.241C98.4054 178.313 100.161 179.069 100.65 178.025C105.142 168.385 109.696 158.547 110.955 147.875C111.244 145.411 111.387 142.844 112.543 140.595C113.57 138.601 115.122 136.961 116.698 135.393C118.372 133.729 120.067 132.104 121.557 130.273C123.101 128.377 124.482 126.359 125.724 124.255C128.523 119.513 130.624 114.404 132.714 109.325C132.905 108.862 132.547 108.297 132.123 108.127C131.635 107.932 131.142 108.111 130.852 108.541C127.618 113.337 122.401 116.325 117.965 119.874C115.631 121.742 113.501 123.809 111.782 126.261C110.051 128.734 108.759 131.54 107.99 134.455C107.122 137.748 106.947 141.163 107.432 144.53C107.55 145.358 108.959 145.549 109.293 144.773C111.501 139.62 115.627 135.71 119.68 131.974C121.749 130.066 123.83 128.17 125.781 126.135C127.802 124.028 129.692 121.807 131.468 119.496C138.323 110.575 143.268 100.16 145.777 89.2006C147.178 83.0814 147.83 76.7876 147.658 70.514C147.622 69.1862 145.748 69.235 145.622 70.514C145.08 75.943 144.49 81.4491 142.579 86.5978C141.671 89.0463 140.42 91.3812 138.82 93.452C137.272 95.4539 135.423 97.2202 133.512 98.8729C129.651 102.215 125.411 105.134 121.867 108.833C117.936 112.935 115.374 117.949 113.22 123.143C110.527 129.627 108.059 136.214 105.493 142.747C105.293 143.259 105.713 143.86 106.206 143.998C106.772 144.148 107.248 143.791 107.448 143.279Z" fill="black"/>
<path d="M72.5322 82.5941C67.6973 74.0791 63.4001 65.2312 60.2434 55.9529C57.1559 46.8816 55.1519 37.3759 55.1722 27.7646C55.1845 22.4209 55.8362 17.1057 57.1925 11.9325C56.5245 11.8432 55.8606 11.7539 55.1926 11.6645C55.3963 16.6387 55.6244 21.6413 56.606 26.5343C57.5632 31.3176 59.4206 35.7111 61.9785 39.8569C64.398 43.7794 67.1882 47.4826 69.2696 51.604C71.4569 55.9366 72.4833 60.6875 72.5648 65.5195C72.6585 71.0337 71.6279 76.4911 70.1168 81.7739C70.7726 81.9525 71.4243 82.1353 72.0801 82.3139C73.8886 74.1847 76.084 66.1449 78.6542 58.2227C77.9984 58.2227 77.3467 58.2227 76.6909 58.2227C78.0229 67.3427 79.3548 76.4667 80.6867 85.5867C81.9942 94.5402 83.2447 103.477 82.9474 112.549C82.7804 117.604 82.2142 122.639 81.2611 127.609C81.8802 127.528 82.5034 127.447 83.1225 127.366C78.8986 117.462 76.8457 106.657 77.1105 95.9046C77.1838 92.8998 77.4323 89.895 77.8722 86.9226C77.3752 87.1257 76.8742 87.3287 76.3773 87.5277C79.6684 89.7407 81.7458 93.5413 81.6602 97.5166C81.6317 98.8241 83.6683 98.8241 83.6968 97.5166C83.8027 92.8064 81.2855 88.3844 77.4078 85.7735C76.9068 85.4365 76.0066 85.7492 75.913 86.3785C74.2796 97.411 75.0291 108.732 78.1532 119.448C79.0412 122.493 80.1246 125.469 81.371 128.385C81.7091 129.181 83.0736 128.957 83.2325 128.141C84.9595 119.167 85.4483 110.003 84.6785 100.899C84.2874 96.2781 83.6317 91.6816 82.9596 87.0932C82.2875 82.4763 81.6113 77.8636 80.9393 73.2467C80.1817 68.0574 79.424 62.8639 78.6664 57.6746C78.5116 56.6107 76.9801 56.8137 76.7032 57.6746C74.133 65.5967 71.9375 73.6365 70.129 81.7658C69.848 83.0367 71.7298 83.5686 72.0923 82.3058C74.7847 72.8935 76.027 62.4173 72.2023 53.1227C70.4223 48.7982 67.7258 44.9732 65.1801 41.0751C63.9052 39.1219 62.6669 37.1363 61.616 35.0533C60.5366 32.9134 59.7179 30.6598 59.1192 28.3371C57.7098 22.892 57.4736 17.2437 57.2414 11.6524C57.1966 10.5357 55.5429 10.2393 55.2415 11.3844C52.7568 20.8617 52.6387 30.745 54.1988 40.3807C55.7792 50.1341 59.0336 59.5587 63.0824 68.5487C65.4 73.6893 67.9987 78.7 70.7848 83.6052C71.4161 84.7584 73.1758 83.7351 72.5322 82.5941Z" fill="black"/>
<path d="M66.2756 116.926C64.7889 116.719 63.738 115.708 62.85 114.571C61.8032 113.231 60.8786 111.777 59.9255 110.368C57.8522 107.294 55.8686 104.156 54.1578 100.867C50.9196 94.658 48.7282 87.8079 49.1437 80.7425C49.3677 76.9743 50.3901 73.2752 52.2964 70.0024C51.6772 69.9212 51.054 69.84 50.4349 69.7588C51.1192 73.8193 51.8035 77.8839 52.4878 81.9444C52.8259 83.9422 53.1599 85.94 53.498 87.9378C53.7668 89.5377 54.0234 91.1375 54.0153 92.7658C54.0071 94.4265 53.6935 96.1685 52.6426 97.5085C52.1009 98.2029 52.4226 99.1855 53.3635 99.2424C54.8788 99.3317 56.2881 100.03 57.2657 101.187C58.3451 102.462 58.9642 104.172 59.6811 105.662C61.347 109.138 63.0374 112.602 64.6829 116.085C64.8011 116.337 64.9599 116.654 64.964 116.934C64.964 117.019 64.9477 117.068 64.9314 117.141C64.9314 117.149 64.7888 117.218 64.911 117.186C64.9721 117.17 64.63 117.174 64.7359 117.19C64.6137 117.174 64.4752 117.125 64.3652 117.072C64.0964 116.95 63.8398 116.776 63.6158 116.585C63.074 116.13 62.6545 115.545 62.1902 115.018C61.6729 114.421 61.1352 113.844 60.5812 113.28C58.3491 111.006 55.8441 108.992 53.1599 107.274C50.0887 105.305 46.7609 103.741 43.3028 102.592C42.4637 102.312 41.6938 103.352 42.1541 104.083C47.0419 111.846 53.6772 118.457 61.3755 123.451C63.5587 124.868 65.8275 126.148 68.1655 127.293C68.6584 127.532 69.2653 127.427 69.5586 126.927C69.8192 126.48 69.6889 125.782 69.192 125.538C61.1148 121.583 53.9094 115.964 48.2028 109.02C46.6428 107.124 45.2172 105.126 43.9097 103.051C43.5268 103.547 43.1439 104.046 42.761 104.541C49.2618 106.706 55.2128 110.466 59.8766 115.476C60.9682 116.65 61.905 118.136 63.3958 118.843C64.1453 119.2 64.9925 119.366 65.7746 118.993C66.6136 118.591 67.0698 117.681 66.9843 116.772C66.8947 115.797 66.3774 114.92 65.9619 114.051C65.5139 113.113 65.0617 112.179 64.6137 111.241C63.7013 109.337 62.7889 107.437 61.8724 105.532C60.9438 103.595 60.1413 101.476 58.7605 99.8068C57.4327 98.2029 55.4205 97.3217 53.3635 97.1999C53.6039 97.7765 53.8442 98.3572 54.0845 98.9338C56.3736 96.0183 56.2311 92.3638 55.7097 88.8839C55.0824 84.7137 54.3167 80.5598 53.6161 76.3977C53.2128 74.002 52.8096 71.6022 52.4063 69.2065C52.2556 68.3173 50.9563 68.2604 50.5449 68.9629C46.8342 75.3217 46.3536 82.9718 47.9136 90.0493C49.5632 97.5491 53.4898 104.355 57.7137 110.689C58.8664 112.415 60.0028 114.173 61.2778 115.813C62.402 117.259 63.852 118.607 65.742 118.867C66.2878 118.944 66.8336 118.737 66.9965 118.156C67.1187 117.702 66.8254 117.003 66.2756 116.926Z" fill="black"/>
<path d="M114.091 105.394C114.214 98.8485 113.81 92.307 113.529 85.7695C113.248 79.2767 113.081 72.7555 113.704 66.2789C114.303 60.0906 115.757 54.0526 118.217 48.3354C120.515 42.9957 123.39 37.9322 125.957 32.7226C128.49 27.5738 130.783 22.2017 131.708 16.5088C131.83 15.7657 131.928 15.0186 132.005 14.2715C131.337 14.3608 130.673 14.4501 130.005 14.5395C131.162 20.7115 131.728 26.9769 131.765 33.2545C131.802 39.5199 131.325 45.7853 130.396 51.9817C129.455 58.2674 128.075 64.4882 126.356 70.6074C124.616 76.7916 122.527 82.8743 120.173 88.8474C117.818 94.8164 115.191 100.672 112.36 106.43C112.006 107.148 111.647 107.867 111.289 108.586C111.908 108.667 112.531 108.748 113.15 108.829C112.605 107.477 112.063 106.125 111.517 104.769C111.313 104.261 110.837 103.904 110.263 104.058C109.778 104.192 109.346 104.793 109.55 105.309C110.096 106.661 110.637 108.013 111.183 109.369C111.476 110.1 112.613 110.474 113.045 109.613C115.973 103.782 118.698 97.8455 121.162 91.8075C123.627 85.7695 125.826 79.6218 127.675 73.3686C129.5 67.2047 130.983 60.9393 132.03 54.5967C133.072 48.2907 133.696 41.9156 133.785 35.5243C133.875 29.1046 133.415 22.6849 132.376 16.3464C132.246 15.5627 132.111 14.7831 131.964 14.0035C131.871 13.5121 131.309 13.2076 130.848 13.2766C130.315 13.3578 130.022 13.7558 129.965 14.2755C129.366 19.9075 127.28 25.2634 124.857 30.3431C122.34 35.6096 119.431 40.6853 117.032 46.0087C115.806 48.7252 114.71 51.4985 113.875 54.3571C112.955 57.5 112.34 60.72 111.924 63.9684C111.102 70.38 111.15 76.8647 111.387 83.3129C111.627 89.8585 112.075 96.3959 112.071 102.95C112.071 103.766 112.063 104.586 112.047 105.402C112.03 106.702 114.067 106.702 114.091 105.394Z" fill="black"/>
<path d="M122.816 56.2291C121.59 66.3723 118.841 76.2475 116.177 86.0862C115.415 88.9043 114.601 91.7101 113.668 94.4753C113.248 95.7178 115.216 96.2498 115.631 95.0154C117.289 90.1021 118.564 85.0752 119.871 80.0604C121.187 75.0213 122.552 69.9943 123.525 64.878C124.067 62.0113 124.507 59.1283 124.857 56.2291C124.922 55.685 124.344 55.2139 123.839 55.2139C123.232 55.2139 122.882 55.6809 122.816 56.2291Z" fill="black"/>
<path d="M67.2854 159.667C61.5177 158.124 56.0759 155.53 51.2207 152.062C46.4999 148.692 42.3533 144.465 39.1477 139.633C37.5592 137.237 36.1743 134.687 35.0949 132.023C33.7182 128.624 32.7691 125.067 32.0726 121.474C31.3802 117.888 30.9362 114.258 30.5533 110.628C30.1378 106.738 29.7672 102.844 29.4128 98.946C28.7041 91.0969 28.0931 83.2438 27.4943 75.3867C27.421 74.4122 27.3477 73.4376 27.2703 72.4672C26.639 72.6377 26.0035 72.8083 25.3722 72.9788C28.7774 78.8016 32.2192 84.661 34.7691 90.9183C36.044 94.0449 37.0867 97.2649 37.7873 100.57C38.5001 103.928 38.9033 107.339 39.3636 110.738C39.8198 114.092 40.329 117.454 41.2576 120.715C42.0804 123.606 43.2657 126.379 44.7117 129.014C47.4408 133.984 50.9804 138.447 54.3 143.031C57.5464 147.514 60.7153 152.208 62.4546 157.503C62.6664 158.149 62.8578 158.802 63.0248 159.464C63.3507 160.727 65.3139 160.191 64.9881 158.924C63.5828 153.459 60.6664 148.558 57.4527 143.965C54.186 139.296 50.5771 134.861 47.62 129.981C46.1781 127.597 44.8909 125.112 43.9541 122.485C42.8055 119.261 42.1537 115.887 41.6527 112.508C41.1477 109.114 40.7852 105.703 40.1905 102.32C39.6039 98.9784 38.7323 95.7057 37.5592 92.5181C35.1886 86.07 31.8364 80.0482 28.3904 74.1198C27.9709 73.397 27.5473 72.6702 27.1237 71.9474C26.639 71.1191 25.1482 71.4236 25.2256 72.459C25.8325 80.4502 26.4434 88.4413 27.144 96.4244C27.4943 100.416 27.8691 104.407 28.2764 108.395C28.6633 112.167 29.0666 115.943 29.6857 119.691C30.8058 126.472 32.7691 133.103 36.3454 139.024C39.4451 144.156 43.5386 148.696 48.2676 152.383C53.1269 156.171 58.6217 159.107 64.5034 160.975C65.2406 161.21 65.986 161.426 66.7314 161.624C68.0104 161.966 68.5521 160.008 67.2854 159.667Z" fill="black"/>
<path d="M83.7214 188.964C77.1147 185.736 70.5976 182.333 64.1782 178.748C57.8037 175.191 51.5309 171.459 45.3601 167.561C39.9671 164.154 34.5254 160.711 29.7108 156.508C25.4177 152.76 21.4911 148.269 19.6175 142.812C17.2672 135.97 18.7214 128.746 20.5339 121.961C20.7661 121.084 21.0105 120.211 21.2508 119.338C20.6317 119.419 20.0085 119.5 19.3894 119.582C22.0003 125.181 23.5033 131.235 26.7781 136.526C29.8697 141.521 33.9836 145.792 38.1953 149.853C47.4578 158.782 57.0094 167.423 66.6954 175.893C72.178 180.689 77.7175 185.415 83.3182 190.073C83.7418 190.422 84.3446 190.483 84.7601 190.073C85.1226 189.711 85.1837 188.988 84.7601 188.635C74.7807 180.327 64.9806 171.808 55.372 163.074C50.6389 158.774 45.9507 154.421 41.3154 150.015C37.1037 146.016 32.8839 141.915 29.5886 137.107C27.715 134.37 26.2568 131.43 25.047 128.348C23.7599 125.076 22.6357 121.742 21.149 118.55C20.7661 117.73 19.5075 118.006 19.2875 118.794C17.3039 125.961 15.2877 133.542 16.978 140.977C18.314 146.836 21.9147 151.875 26.1712 156.009C30.7169 160.423 36.0202 163.971 41.3317 167.394C47.5962 171.435 53.9749 175.296 60.4594 178.983C66.9317 182.662 73.5058 186.158 80.1736 189.472C81.0127 189.89 81.8518 190.3 82.6909 190.714C83.1837 190.954 83.7906 190.848 84.0839 190.349C84.3487 189.906 84.2183 189.204 83.7214 188.964Z" fill="black"/>
<path d="M143.813 157.008C139.329 152.521 140.172 145.484 143.023 140.355C146.518 134.07 153.145 130.196 159.035 126.444C162.183 124.438 165.283 122.375 168.179 120.012C170.953 117.75 173.543 115.265 175.938 112.61C180.749 107.278 184.794 101.285 188.178 94.9626C191.555 88.6565 194.3 82.0176 196.602 75.2486C196.887 74.4122 197.164 73.5757 197.433 72.7352C197.6 72.2113 197.237 71.6266 196.72 71.4845C196.154 71.3302 195.653 71.6753 195.465 72.1951C192.753 79.6909 189.999 87.1744 187.127 94.6093C184.769 100.712 182.232 106.771 179.022 112.488C175.837 118.16 171.963 123.464 167.083 127.804C161.923 132.393 155.487 135.239 150.363 139.86C145.279 144.44 142.241 151.083 142.51 157.958C142.542 158.802 142.636 159.639 142.758 160.475C143.324 160.146 143.895 159.818 144.461 159.489C143.715 158.733 142.97 157.974 142.221 157.219C141.3 156.285 139.862 157.722 140.779 158.656C141.524 159.411 142.269 160.171 143.019 160.926C143.337 161.247 143.866 161.312 144.253 161.084C144.673 160.837 144.787 160.39 144.721 159.939C143.772 153.467 146.22 146.799 150.835 142.215C153.267 139.799 156.151 137.915 159.027 136.071C161.931 134.212 164.835 132.36 167.487 130.139C172.497 125.94 176.549 120.71 179.865 115.111C183.225 109.434 185.861 103.364 188.28 97.2405C191.115 90.0655 193.767 82.8175 196.406 75.5735C196.748 74.6314 197.095 73.6853 197.433 72.7433C196.777 72.5646 196.125 72.3819 195.469 72.2032C193.266 79.0412 190.635 85.7492 187.36 92.1486C184.089 98.548 180.183 104.651 175.462 110.088C173.087 112.825 170.509 115.395 167.743 117.742C164.908 120.146 161.849 122.233 158.725 124.235C152.619 128.141 145.813 132.047 141.858 138.329C138.53 143.62 137.072 151.096 140.815 156.569C141.276 157.243 141.797 157.873 142.371 158.449C143.3 159.371 144.742 157.933 143.813 157.008Z" fill="black"/>
<path d="M152.762 102.056C153.662 92.9526 155.291 83.9301 157.609 75.0781C158.672 71.0297 159.674 66.754 161.951 63.1807C163.812 60.2571 166.586 58.0563 169.217 55.8596C172.15 53.411 175.164 50.8123 176.798 47.2796C176.179 47.0197 175.555 46.7599 174.936 46.4959C173.425 53.5613 168.395 59.1526 164.517 65.0323C162.55 68.0128 160.778 71.184 159.812 74.6436C158.595 79.0006 159.034 83.5849 158.057 87.9784C156.994 92.7374 154.073 96.7695 151.279 100.668C151.866 100.668 152.452 100.668 153.039 100.668C152.68 100.148 152.326 99.6322 151.967 99.1124C151.658 98.6617 151.071 98.4587 150.574 98.747C150.126 99.0069 149.898 99.6809 150.208 100.136C150.566 100.655 150.921 101.171 151.279 101.691C151.735 102.353 152.578 102.328 153.039 101.691C155.597 98.1298 158.187 94.4875 159.544 90.2767C160.949 85.9197 160.517 81.2948 161.385 76.8485C162.786 69.6573 167.894 63.9806 171.824 58.0401C174.06 54.6617 176.052 51.0316 176.904 47.0401C177.009 46.5487 176.798 46.0371 176.313 45.8422C175.881 45.6676 175.258 45.7935 175.042 46.2564C173.604 49.3627 171.042 51.6772 168.464 53.8536C165.767 56.1275 162.965 58.3162 160.863 61.1789C158.334 64.6222 157.185 68.8614 156.081 72.9219C154.868 77.3845 153.829 81.8917 152.969 86.4314C151.992 91.6004 151.247 96.8182 150.729 102.052C150.676 102.6 151.234 103.067 151.748 103.067C152.338 103.071 152.709 102.6 152.762 102.056Z" fill="black"/>
<path d="M81.261 198.246C78.2021 194.953 73.7949 193.573 69.4569 192.935C64.8583 192.257 60.1863 192.282 55.5917 191.583C46.2315 190.162 37.2787 186.406 29.7188 180.729C25.5927 177.631 21.8901 173.912 18.8678 169.729C18.6234 169.392 18.2854 169.181 17.8536 169.246C17.4911 169.299 17.0716 169.579 17.0064 169.973C16.261 174.679 19.0674 178.788 22.3586 181.878C25.6904 185.009 29.6537 187.588 33.6617 189.768C41.861 194.222 50.9646 196.935 60.2515 197.832C65.4855 198.34 70.7481 198.222 75.9577 197.524C76.5035 197.451 76.8009 196.752 76.6705 196.273C76.5076 195.684 75.9659 195.489 75.416 195.562C66.6016 196.744 57.5387 196.054 48.9687 193.719C40.5657 191.433 32.4764 187.543 25.6823 182.077C22.3178 179.369 18.2202 175.26 18.9697 170.513C18.3505 170.594 17.7273 170.675 17.1082 170.757C22.6763 178.455 30.2931 184.579 38.9039 188.607C43.2948 190.661 47.926 192.204 52.6876 193.13C57.3432 194.04 62.06 194.149 66.7604 194.629C71.4405 195.108 76.4872 196.09 79.8232 199.68C80.7111 200.642 82.149 199.205 81.261 198.246Z" fill="black"/>
<path d="M120.161 194.758C121.875 191.364 125.276 189.443 128.6 187.847C132.327 186.053 136.205 184.546 139.472 181.947C141.455 180.368 143.235 178.614 145.479 177.387C147.573 176.242 149.846 175.487 152.151 174.882C156.734 173.684 161.475 173.124 165.98 171.621C170.566 170.091 175.181 167.593 177.564 163.204C178.122 162.177 176.823 161.198 175.963 161.974C172.574 165.035 168.974 167.853 165.177 170.403C163.271 171.682 161.32 172.896 159.332 174.038C157.332 175.187 155.267 176.226 153.288 177.408C151.345 178.565 149.536 179.897 147.94 181.501C146.335 183.113 144.889 184.883 143.17 186.382C140.225 188.948 136.608 190.649 132.881 191.758C128.454 193.073 123.843 193.613 119.24 193.812C117.932 193.869 117.928 195.899 119.24 195.843C127.407 195.489 136.193 194.129 142.93 189.159C146.571 186.471 149.076 182.581 152.864 180.071C154.803 178.784 156.884 177.729 158.917 176.608C160.954 175.483 162.953 174.285 164.905 173.018C169.316 170.156 173.503 166.94 177.401 163.411C176.868 163.001 176.334 162.591 175.8 162.181C173.788 165.884 169.955 168.064 166.09 169.437C161.609 171.029 156.868 171.613 152.269 172.754C149.891 173.347 147.541 174.094 145.337 175.174C143.019 176.307 141.101 177.911 139.154 179.576C137.52 180.973 135.773 182.126 133.867 183.113C132.075 184.043 130.221 184.847 128.392 185.703C124.494 187.527 120.417 189.744 118.401 193.735C117.814 194.901 119.57 195.928 120.161 194.758Z" fill="black"/>
<path d="M155.385 159.809C154.766 159.578 154.725 158.717 154.888 158.201C155.19 157.239 156.016 156.455 156.684 155.729C158.171 154.104 159.764 152.578 161.442 151.148C164.79 148.302 168.501 145.89 172.431 143.929C174.419 142.938 176.468 142.081 178.557 141.334C180.843 140.514 183.152 139.767 185.364 138.772C189.189 137.05 192.443 134.342 194.757 130.846C197.201 127.15 198.492 122.655 198.15 118.225C197.482 118.315 196.818 118.404 196.15 118.493C197.706 122.331 196.818 126.586 194.801 130.078C192.643 133.818 189.368 136.762 186.146 139.572C182.859 142.434 179.547 145.297 175.934 147.741C174.085 148.992 172.158 150.137 170.146 151.104C168.407 151.94 166.599 152.626 164.798 153.325C160.758 154.892 156.558 156.553 153.54 159.785C152.648 160.739 154.086 162.181 154.982 161.222C157.625 158.392 161.271 156.87 164.819 155.489C166.713 154.75 168.615 154.035 170.468 153.191C172.521 152.257 174.484 151.136 176.366 149.898C180.162 147.4 183.629 144.444 187.054 141.476C190.41 138.569 193.787 135.556 196.166 131.767C198.703 127.735 199.97 122.513 198.121 117.953C197.93 117.486 197.543 117.145 197.005 117.226C196.537 117.295 196.084 117.714 196.121 118.225C196.423 122.152 195.376 126.046 193.29 129.376C191.058 132.945 187.775 135.54 183.926 137.204C181.69 138.171 179.352 138.877 177.071 139.726C174.879 140.542 172.733 141.488 170.651 142.564C166.623 144.647 162.847 147.226 159.434 150.21C157.552 151.859 155.687 153.629 154.122 155.582C153.34 156.561 152.652 157.734 152.782 159.034C152.913 160.301 153.642 161.324 154.847 161.771C155.365 161.961 155.963 161.559 156.102 161.06C156.253 160.487 155.902 160 155.385 159.809Z" fill="black"/>
<path d="M68.6425 178.403C65.3066 174.708 61.3678 171.548 57.0502 169.067C53.2377 166.879 49.0708 165.344 45.3602 162.968C43.4295 161.734 41.6495 160.232 40.3786 158.311C39.6618 157.223 37.8981 158.242 38.619 159.334C41.0629 163.033 44.9569 165.287 48.8468 167.204C50.8264 168.178 52.8386 169.092 54.7855 170.135C57.0095 171.325 59.1398 172.689 61.1397 174.224C63.327 175.901 65.3555 177.794 67.2006 179.84C68.0804 180.815 69.5183 179.373 68.6425 178.403Z" fill="black"/>
<path d="M84.8254 184.372C81.3469 181.939 78.8948 178.313 77.457 174.362C75.954 170.221 75.5426 165.929 75.5304 161.555C75.5222 158.632 75.4 155.668 74.0437 153.012C73.449 151.847 71.6934 152.874 72.284 154.035C73.4367 156.301 73.4816 158.896 73.4897 161.377C73.4978 163.716 73.5712 166.026 73.8929 168.349C74.4998 172.698 75.901 177.042 78.406 180.689C79.8683 182.816 81.6727 184.648 83.7908 186.13C84.2429 186.447 84.9231 186.211 85.1838 185.764C85.4853 185.253 85.2775 184.688 84.8254 184.372Z" fill="black"/>
<path d="M95.8024 185.444C96.0061 180.863 97.7372 176.539 99.4235 172.332C101.167 167.983 102.898 163.582 103.26 158.867C103.46 156.285 103.183 153.645 102.263 151.213C102.067 150.702 101.574 150.348 101.008 150.503C100.515 150.637 100.1 151.238 100.295 151.753C103.66 160.646 97.8187 169.599 95.1996 177.854C94.4176 180.315 93.8718 182.857 93.7577 185.44C93.7088 186.751 95.7454 186.747 95.8024 185.444Z" fill="black"/>
<path d="M90.2751 194.539C87.1102 194.369 84.5563 192.111 82.0595 190.41C80.6135 189.427 79.1064 188.574 77.4445 188.01C75.579 187.376 73.6157 187.092 71.6606 186.897C68.1699 186.544 64.6832 186.357 61.221 185.748C57.9665 185.176 54.7161 184.359 51.6694 183.06C48.3579 181.651 45.3193 179.665 42.9324 176.961C42.5698 176.551 41.8652 176.592 41.4905 176.961C41.0791 177.371 41.1279 177.984 41.4905 178.399C46.0036 183.515 52.6388 186.101 59.1926 187.425C62.6751 188.128 66.2025 188.477 69.7381 188.757C71.681 188.911 73.6239 189.09 75.5179 189.565C77.2612 190.004 78.8254 190.726 80.3284 191.701C83.4606 193.731 86.3526 196.358 90.271 196.574C91.5826 196.643 91.5785 194.612 90.2751 194.539Z" fill="black"/>
<path d="M95.0042 198.113C98.0265 195.225 101.415 192.749 105.073 190.722C108.564 188.79 112.274 187.47 115.981 186.024C119.578 184.623 123.211 182.999 125.981 180.242C128.905 177.331 130.404 173.424 132.791 170.123C134.987 167.086 139.007 164.296 142.885 165.73C143.402 165.921 144.001 165.519 144.139 165.019C144.294 164.451 143.944 163.959 143.426 163.768C139.65 162.376 135.581 164.288 132.873 166.923C129.887 169.831 128.449 173.871 125.977 177.16C123.655 180.246 120.234 182.114 116.722 183.555C112.926 185.111 109.024 186.373 105.366 188.262C101.057 190.487 97.0652 193.333 93.5622 196.679C92.6173 197.581 94.0551 199.018 95.0042 198.113Z" fill="black"/>
<path d="M95.5947 198.693C97.5987 197.142 100.169 196.517 102.609 196.046C105.232 195.542 107.875 195.185 110.45 194.458C115.712 192.968 120.722 190.263 124.091 185.878C125.879 183.547 127.048 180.851 127.435 177.94C127.508 177.396 126.914 176.925 126.417 176.925C125.806 176.925 125.472 177.396 125.398 177.94C124.751 182.8 121.24 186.873 117.183 189.378C114.926 190.775 112.458 191.778 109.908 192.501C107.334 193.232 104.69 193.585 102.067 194.088C99.228 194.637 96.4664 195.465 94.1528 197.26C93.717 197.597 93.7985 198.34 94.1528 198.697C94.5846 199.124 95.1589 199.034 95.5947 198.693Z" fill="black"/>
<path d="M102.205 152.119C100.389 146.113 99.1219 139.937 98.4702 133.7C97.8144 127.431 97.7411 121.104 98.2584 114.823C98.7757 108.529 99.9651 102.361 101.582 96.2619C102.413 93.1394 103.228 89.9843 103.439 86.7481C103.651 83.4915 103.036 80.3284 101.932 77.2748C100.82 74.1888 99.4396 71.1921 98.1525 68.1752C96.8287 65.0607 95.5008 61.9463 94.1771 58.8319C93.8471 58.0604 93.5213 57.2888 93.1913 56.5214C92.9755 56.0179 92.2301 55.9042 91.7983 56.1559C91.2729 56.4605 91.2158 57.0371 91.4317 57.5447C94.0304 63.6477 96.7187 69.7182 99.2115 75.8618C100.389 78.7691 101.387 81.778 101.444 84.9411C101.501 88.1287 100.78 91.2512 99.9814 94.3169C99.183 97.3867 98.3684 100.448 97.7615 103.563C97.1505 106.698 96.6902 109.865 96.3725 113.044C95.7493 119.285 95.7086 125.583 96.2462 131.828C96.7839 138.102 97.8877 144.335 99.574 150.401C99.7858 151.156 100.002 151.908 100.23 152.659C100.621 153.905 102.588 153.373 102.205 152.119Z" fill="black"/>
<path d="M70.1616 64.3217C69.4895 60.9149 68.8093 57.4878 67.5466 54.2394C66.2717 50.9585 64.3899 48.0024 62.4673 45.0666C61.7545 43.9743 59.9908 44.9935 60.7077 46.0899C62.5569 48.9201 64.4387 51.7828 65.6485 54.954C66.8664 58.1497 67.5303 61.5159 68.1942 64.8618C68.3001 65.4018 68.9437 65.7063 69.4488 65.5724C70.0109 65.414 70.2675 64.8577 70.1616 64.3217Z" fill="black"/>
<path d="M106.519 196.878C118.221 188.014 126.555 174.736 131.055 160.885C132.302 157.048 133.165 153.069 133.393 149.033C133.63 144.899 133.047 140.79 132.343 136.729C130.868 128.243 129.719 119.805 129.569 111.176C129.418 102.657 129.296 93.0297 134.066 85.5908C133.479 85.2497 132.892 84.9086 132.306 84.5675C128.889 91.8156 126.673 99.5469 125.801 107.51C124.893 115.789 125.927 124.028 126.111 132.307C126.2 136.384 126.07 140.493 125.259 144.501C124.453 148.497 122.929 152.281 121.316 156.013C119.789 159.545 118.205 163.066 117.088 166.753C116.144 169.871 115.463 173.063 114.742 176.238C113.146 183.275 111.272 190.609 105.753 195.672C106.319 196.001 106.889 196.33 107.455 196.659C110.49 183.316 107.032 169.794 106.172 156.415C105.293 142.743 106.474 129.043 108.189 115.48C109.891 102.044 112.144 88.6768 113.488 75.1958C114.689 63.1279 115.142 50.9219 113.911 38.8377C112.706 26.989 109.859 15.2825 104.592 4.55048C103.924 3.18614 103.211 1.8421 102.47 0.514301C101.9 -0.508956 100.335 0.193515 100.608 1.29798C103.663 13.6867 102.107 26.5221 100.067 38.9433C99.032 45.2412 97.8997 51.5228 97.0362 57.8492C96.1686 64.2242 95.4883 70.6196 94.9344 77.0271C93.8265 89.8503 93.0892 102.718 92.4945 115.574C92.1972 122.026 92.0465 128.499 92.4253 134.951C92.796 141.269 93.7328 147.538 95.0036 153.735C97.586 166.347 101.195 178.764 104.47 191.21C104.881 192.773 105.293 194.34 105.704 195.904C105.989 196.984 107.793 196.801 107.704 195.636C107.089 187.677 102.042 181.135 96.3233 175.922C90.4091 170.529 83.4969 166.363 77.6437 160.898C74.4218 157.893 71.5868 154.506 69.6969 150.507C69.2855 149.634 68.1205 150.019 67.8354 150.75C64.919 158.242 69.2814 166.278 74.9432 171.15C81.3625 176.673 89.4519 179.592 96.4863 184.181C100.319 186.682 103.863 189.719 106.144 193.735C106.641 194.612 108.05 194.227 108.042 193.224C107.912 178.378 114.913 164.576 115.296 149.792C115.402 145.756 114.934 141.712 113.748 137.846C113.512 137.083 112.624 136.896 112.046 137.399C106.417 142.268 103.944 150.275 106.16 157.414C106.547 158.656 108.514 158.128 108.123 156.874C106.103 150.381 108.376 143.259 113.484 138.837C112.918 138.686 112.347 138.536 111.781 138.39C116.144 152.61 109.818 167.143 107.215 181.062C106.466 185.074 105.965 189.143 106.001 193.228C106.633 193.057 107.268 192.887 107.899 192.716C103.961 185.777 96.7388 181.692 89.8958 178.074C82.8574 174.35 74.992 170.525 71.0166 163.253C69.0044 159.574 68.2427 155.278 69.7946 151.294C69.1755 151.376 68.5523 151.457 67.9332 151.538C74.7843 166.03 91.7695 171.402 100.959 183.966C103.476 187.409 105.329 191.348 105.663 195.64C106.331 195.55 106.995 195.461 107.663 195.372C104.376 182.873 100.841 170.411 97.9648 157.812C96.5474 151.595 95.3662 145.313 94.7633 138.963C94.1564 132.531 94.1442 126.058 94.3641 119.61C94.8 106.754 95.6228 93.8783 96.6329 81.0552C97.1421 74.607 97.7571 68.167 98.5595 61.7473C99.3579 55.356 100.421 49.0094 101.496 42.6587C103.578 30.3633 105.533 17.7757 103.504 5.33416C103.256 3.79928 102.938 2.27657 102.568 0.766052C101.948 1.02593 101.325 1.2858 100.706 1.54974C106.535 11.9691 109.928 23.5538 111.463 35.3578C113.007 47.2308 112.816 59.2744 111.814 71.1799C110.702 84.3848 108.555 97.4719 106.787 110.6C104.979 124.016 103.521 137.533 103.887 151.091C104.071 157.864 104.897 164.556 105.679 171.28C106.441 177.838 107.056 184.477 106.343 191.067C106.16 192.773 105.867 194.462 105.488 196.131C105.26 197.126 106.433 197.816 107.191 197.118C112.05 192.655 114.339 186.447 115.899 180.201C116.689 177.03 117.329 173.822 118.127 170.655C119.035 167.041 120.27 163.569 121.732 160.142C123.272 156.537 124.938 152.967 126.131 149.224C127.381 145.301 127.968 141.22 128.123 137.111C128.44 128.714 127.125 120.349 127.496 111.952C127.899 102.844 130.176 93.8418 134.066 85.5989C134.62 84.4295 133.023 83.459 132.306 84.5756C128.188 90.9954 127.667 98.8282 127.532 106.247C127.381 114.64 127.997 123.045 129.337 131.333C130.013 135.515 130.941 139.669 131.28 143.9C131.601 147.92 131.259 151.924 130.351 155.85C128.632 163.265 125.345 170.403 121.439 176.916C117.268 183.872 111.985 190.219 105.488 195.136C104.458 195.908 105.472 197.67 106.519 196.878Z" fill="black"/>
<path d="M94.503 142.739C92.1854 136.839 89.9003 130.927 87.5501 125.039C85.4442 119.768 83.094 114.53 79.3629 110.186C76.0311 106.304 71.8235 103.311 67.901 100.067C65.9621 98.4628 64.0762 96.7898 62.3981 94.9098C60.6466 92.9485 59.221 90.7437 58.1334 88.3479C55.604 82.7688 54.9727 76.5277 54.3739 70.5059C54.2476 69.2269 52.374 69.1741 52.3373 70.5059C52.0277 81.7821 54.3902 93.0257 58.944 103.335C61.2046 108.46 64.0192 113.341 67.3185 117.868C70.7115 122.521 74.6014 126.696 78.8334 130.598C83.3628 134.772 88.2303 138.983 90.7068 144.761C91.0367 145.533 92.446 145.354 92.5682 144.517C93.4399 138.496 92.0998 132.291 88.8209 127.15C87.2079 124.617 85.1469 122.444 82.8455 120.52C80.5768 118.627 78.1451 116.95 75.8111 115.148C73.3305 113.231 70.9111 111.136 69.1514 108.525C68.8704 108.107 68.3612 107.899 67.8806 108.111C67.4611 108.293 67.0945 108.833 67.29 109.308C69.1514 113.832 71.017 118.372 73.3835 122.664C75.7459 126.956 78.642 130.793 82.1409 134.228C83.7375 135.795 85.4076 137.355 86.6621 139.222C88.047 141.289 88.5724 143.579 88.8494 146.02C89.1468 148.647 89.493 151.25 90.0836 153.832C90.6701 156.395 91.4237 158.912 92.2872 161.393C94.2708 167.082 96.8166 172.555 99.3583 178.013C99.8389 179.048 101.607 178.313 101.22 177.229C97.3909 166.465 93.4073 155.526 86.9024 146.032C83.6724 141.322 79.8354 137.022 75.3101 133.509C70.0109 129.4 63.954 126.468 58.329 122.854C53.0012 119.431 47.6491 115.05 45.2744 109C44.7978 107.79 43.0667 108.241 43.3111 109.54C44.8589 117.815 50.6347 124.511 56.9726 129.717C63.783 135.312 71.5994 139.478 78.7112 144.651C82.6541 147.522 86.3607 150.75 89.3667 154.6C90.0836 155.517 91.554 154.336 90.9675 153.369C88.6172 149.512 85.8312 145.926 82.6826 142.682C82.1286 142.114 81.2081 142.422 80.98 143.129C79.1797 148.704 81.8924 154.336 84.874 158.957C86.5481 161.551 88.3728 164.053 90.1406 166.586C91.9654 169.197 93.7861 171.808 95.6109 174.419C97.6923 177.4 99.7737 180.38 101.855 183.357C102.169 183.807 102.747 184.014 103.248 183.722C103.696 183.462 103.928 182.784 103.615 182.333C100.01 177.172 96.4093 172.011 92.8045 166.85C91.0815 164.382 89.3341 161.929 87.6397 159.44C86.0796 157.15 84.5603 154.758 83.5543 152.167C82.4871 149.427 82.035 146.515 82.9514 143.665C82.3853 143.815 81.815 143.965 81.2488 144.111C84.2793 147.234 86.9513 150.673 89.216 154.385C89.7496 153.974 90.2832 153.564 90.8168 153.154C85.4279 146.251 77.9129 141.456 70.63 136.778C63.5223 132.214 56.3087 127.532 50.9769 120.873C48.1949 117.397 46.1053 113.377 45.2866 108.984C44.6308 109.162 43.9791 109.345 43.3233 109.524C48.0564 121.583 61.3513 126.338 71.3062 133.079C76.1085 136.331 80.2835 140.404 83.7376 145.053C87.159 149.658 89.9247 154.718 92.3035 159.927C94.9592 165.734 97.1302 171.743 99.2686 177.753C99.8878 177.493 100.511 177.233 101.13 176.969C96.7066 167.476 92.1935 157.755 91.0326 147.23C90.7475 144.643 90.4868 142.057 89.3138 139.694C88.2995 137.651 86.7395 135.917 85.1469 134.309C83.4932 132.64 81.7783 131.049 80.2713 129.246C78.752 127.431 77.4119 125.473 76.2021 123.443C73.4202 118.782 71.3306 113.759 69.2736 108.752C68.6545 109.012 68.0313 109.272 67.4122 109.536C70.6382 114.319 75.6075 117.352 80.0676 120.844C82.259 122.562 84.3893 124.426 86.0593 126.667C87.8026 129.01 89.1264 131.646 89.9288 134.447C90.8127 137.521 91.0856 140.79 90.6294 143.961C91.2485 143.88 91.8717 143.799 92.4908 143.718C90.2954 138.597 86.2181 134.61 82.1897 130.882C80.1246 128.97 78.031 127.09 76.0677 125.071C74.0963 123.041 72.2308 120.905 70.4915 118.676C63.6608 109.901 58.7526 99.6363 56.2476 88.8109C54.8586 82.8053 54.2313 76.6495 54.3983 70.4897C53.7181 70.4897 53.042 70.4897 52.3617 70.4897C52.9075 75.9674 53.4778 81.5425 55.3474 86.7603C56.2801 89.3712 57.5225 91.8725 59.1803 94.1058C60.6873 96.1401 62.451 97.9593 64.341 99.6444C68.178 103.067 72.4548 105.983 76.1003 109.617C80.0635 113.564 82.6744 118.449 84.8007 123.565C87.5093 130.078 89.9899 136.693 92.5642 143.263C92.7638 143.774 93.2485 144.128 93.8187 143.973C94.279 143.856 94.7026 143.251 94.503 142.739Z" fill="black"/>
<path d="M129.215 83.6215C134.168 74.8994 138.558 65.8079 141.776 56.2981C144.892 47.0928 146.888 37.4085 146.856 27.6672C146.835 22.1855 146.155 16.7037 144.762 11.3966C144.465 10.2637 142.807 10.5398 142.762 11.6646C142.558 16.6306 142.351 21.6332 141.316 26.51C140.811 28.8854 140.127 31.2445 139.141 33.4697C138.184 35.6299 136.994 37.6764 135.732 39.6702C133.251 43.5845 130.465 47.3365 128.494 51.5473C126.412 55.9976 125.443 60.8297 125.386 65.7267C125.321 71.3424 126.371 76.9338 127.907 82.314C128.27 83.5768 130.155 83.0449 129.87 81.7739C128.062 73.6447 125.866 65.6049 123.296 57.6827C123.019 56.8219 121.488 56.6189 121.333 57.6827C119.985 66.9205 118.636 76.1541 117.288 85.3919C115.956 94.52 114.681 103.64 115.019 112.89C115.207 118.01 115.801 123.118 116.767 128.149C116.922 128.957 118.286 129.193 118.628 128.393C123.011 118.12 125.207 106.97 124.917 95.799C124.836 92.644 124.547 89.5052 124.082 86.3826C123.989 85.7492 123.084 85.4406 122.587 85.7776C118.706 88.3845 116.193 92.8105 116.298 97.5207C116.327 98.8242 118.364 98.8282 118.335 97.5207C118.245 93.5454 120.323 89.7448 123.618 87.5318C123.121 87.3288 122.62 87.1257 122.123 86.9268C123.695 97.5532 122.901 108.5 119.915 118.814C119.072 121.722 118.062 124.584 116.877 127.37C117.496 127.451 118.119 127.532 118.738 127.613C117.04 118.782 116.608 109.755 117.374 100.798C117.761 96.2782 118.404 91.7913 119.06 87.3044C119.724 82.7647 120.388 78.225 121.048 73.6813C121.801 68.5284 122.551 63.3756 123.304 58.2228C122.649 58.2228 121.997 58.2228 121.341 58.2228C123.911 66.1449 126.107 74.1848 127.915 82.314C128.571 82.1353 129.223 81.9526 129.878 81.7739C127.243 72.5565 125.976 62.2305 129.972 53.1918C131.838 48.9729 134.579 45.2209 137.068 41.3593C139.699 37.2704 141.854 33.019 143.006 28.2763C144.326 22.8433 144.575 17.2235 144.803 11.6646C144.135 11.7539 143.471 11.8433 142.803 11.9326C145.21 21.1054 145.344 30.7207 143.813 40.0519C142.232 49.6591 139.047 58.9659 135.035 67.8219C132.75 72.8651 130.196 77.7784 127.463 82.5942C126.807 83.7352 128.567 84.7584 129.215 83.6215Z" fill="black"/>
<path d="M134.249 118.883C135.915 118.652 137.288 117.551 138.335 116.301C139.479 114.932 140.453 113.406 141.451 111.928C143.638 108.707 145.736 105.423 147.54 101.971C150.982 95.3849 153.348 88.0759 152.864 80.572C152.599 76.5033 151.507 72.5118 149.442 68.9791C149.035 68.2807 147.732 68.3295 147.581 69.2228C146.864 73.4864 146.147 77.7459 145.426 82.0094C145.076 84.0965 144.713 86.1796 144.371 88.2708C144.094 89.9884 143.85 91.7385 143.948 93.4805C144.062 95.4945 144.644 97.3502 145.899 98.95C146.139 98.3734 146.379 97.7928 146.62 97.2162C144.783 97.3258 143.011 98.0242 141.687 99.3155C140.314 100.655 139.577 102.491 138.762 104.188C137.862 106.06 136.966 107.936 136.066 109.808C135.182 111.651 134.233 113.483 133.41 115.355C133.019 116.248 132.767 117.263 133.288 118.165C133.703 118.883 134.522 119.281 135.341 119.22C137.068 119.094 138.192 117.661 139.235 116.463C141.459 113.905 144.017 111.635 146.815 109.723C150.025 107.53 153.532 105.788 157.222 104.558C156.839 104.062 156.456 103.563 156.073 103.067C151.344 110.579 144.905 116.983 137.443 121.799C135.3 123.179 133.08 124.43 130.791 125.551C130.298 125.794 130.164 126.493 130.425 126.939C130.718 127.443 131.321 127.544 131.818 127.305C140.074 123.26 147.508 117.458 153.324 110.344C154.953 108.354 156.46 106.267 157.833 104.091C158.293 103.36 157.528 102.32 156.684 102.6C150.579 104.635 144.925 107.977 140.278 112.427C139.133 113.523 138.082 114.693 137.06 115.899C136.661 116.37 136.192 116.82 135.626 117.08C135.41 117.178 135.259 117.243 135.056 117.198C135.206 117.231 135.056 117.182 135.056 117.157C135.056 117.153 135.031 117.048 135.027 117.019C134.999 116.743 135.166 116.41 135.272 116.167C135.475 115.716 135.699 115.273 135.915 114.827C136.335 113.95 136.754 113.073 137.178 112.2C138.005 110.478 138.832 108.756 139.658 107.035C140.526 105.232 141.276 103.266 142.416 101.614C143.373 100.217 144.937 99.3561 146.628 99.2546C147.573 99.1977 147.89 98.211 147.349 97.5207C145.418 95.0641 145.903 91.5192 146.371 88.6606C147.031 84.661 147.719 80.6613 148.391 76.6617C148.778 74.3634 149.165 72.0652 149.552 69.7709C148.933 69.8522 148.31 69.9334 147.691 70.0146C151.137 75.9186 151.56 83.053 150.098 89.6189C148.514 96.7451 144.827 103.193 140.827 109.227C139.724 110.896 138.608 112.569 137.43 114.185C136.494 115.468 135.361 116.703 133.712 116.934C133.166 117.011 132.868 117.706 132.999 118.185C133.158 118.761 133.703 118.96 134.249 118.883Z" fill="black"/>
<path d="M87.9327 105.394C87.8105 98.8485 88.2137 92.307 88.4948 85.7695C88.7758 79.2767 88.9428 72.7555 88.3196 66.2789C87.7127 59.981 86.2953 53.8536 83.831 48.0146C81.5582 42.6303 78.6906 37.5303 76.0878 32.3003C73.5543 27.2084 71.2652 21.9256 70.2998 16.2896C70.1858 15.6155 70.0921 14.9415 70.0188 14.2634C69.9658 13.7599 69.6726 13.3294 69.1349 13.2645C68.6706 13.2076 68.1125 13.4878 68.0188 13.9913C66.8417 20.2811 66.2389 26.6683 66.19 33.0637C66.1411 39.4834 66.6503 45.8909 67.5871 52.2416C68.5239 58.5923 69.9088 64.8699 71.644 71.05C73.3955 77.2911 75.5054 83.4347 77.8882 89.4646C80.2954 95.5635 82.9756 101.557 85.8717 107.445C86.226 108.163 86.5845 108.882 86.9429 109.601C87.3787 110.466 88.507 110.092 88.8044 109.357C89.3502 108.005 89.8919 106.653 90.4377 105.297C90.6414 104.789 90.2137 104.18 89.7249 104.046C89.1424 103.888 88.6781 104.245 88.4704 104.757C87.9245 106.109 87.3828 107.461 86.837 108.817C87.4561 108.736 88.0793 108.655 88.6985 108.574C85.8228 102.844 83.1345 97.0172 80.715 91.0807C78.2914 85.1279 76.1245 79.0656 74.2997 72.9017C72.4912 66.7987 71.0126 60.5942 69.9618 54.3125C68.9272 48.1283 68.3284 41.871 68.2347 35.6015C68.141 29.3361 68.5565 23.0585 69.5707 16.8743C69.7011 16.0906 69.8355 15.311 69.9821 14.5314C69.3141 14.442 68.6502 14.3527 67.9822 14.2634C68.5972 20.0537 70.6175 25.507 73.0818 30.7492C75.5665 36.0319 78.4747 41.1035 80.9146 46.4066C83.4848 51.998 85.2403 57.8492 86.0224 63.9563C86.8451 70.3679 86.7963 76.8526 86.56 83.3007C86.3197 89.8463 85.8717 96.3838 85.8757 102.937C85.8757 103.754 85.8839 104.574 85.9002 105.39C85.9205 106.698 87.9571 106.702 87.9327 105.394Z" fill="black"/>
<path d="M75.1307 56.2291C76.3771 66.5631 79.1265 76.6008 81.8433 86.6263C82.605 89.4443 83.4197 92.2501 84.3524 95.0154C84.7679 96.2457 86.7352 95.7178 86.3157 94.4753C84.6783 89.627 83.4197 84.665 82.1285 79.7152C80.8291 74.737 79.4727 69.775 78.4992 64.7237C77.9575 61.9098 77.5095 59.0755 77.1673 56.2291C77.1021 55.685 76.7478 55.2139 76.149 55.2139C75.6521 55.2139 75.0655 55.6809 75.1307 56.2291Z" fill="black"/>
<path d="M133.243 161.624C139.169 160.037 144.806 157.377 149.796 153.816C154.733 150.291 159.046 145.939 162.431 140.908C166.178 135.336 168.476 129.035 169.787 122.477C170.525 118.778 170.997 115.034 171.4 111.286C171.828 107.343 172.207 103.396 172.565 99.4494C173.29 91.4664 173.913 83.4793 174.52 75.4881C174.598 74.4811 174.675 73.4741 174.753 72.4671C174.83 71.4317 173.339 71.1271 172.854 71.9555C169.404 77.8595 165.963 83.792 163.356 90.1264C162.069 93.2449 161.01 96.4608 160.289 99.758C159.551 103.14 159.14 106.58 158.68 110.007C158.228 113.365 157.723 116.731 156.81 120C156.016 122.846 154.867 125.547 153.433 128.129C150.676 133.115 147.112 137.594 143.784 142.199C140.477 146.775 137.332 151.566 135.56 156.967C135.348 157.613 135.157 158.266 134.99 158.928C134.664 160.195 136.627 160.735 136.953 159.468C138.334 154.092 141.246 149.313 144.415 144.806C147.69 140.144 151.299 135.706 154.236 130.813C155.69 128.393 156.961 125.863 157.922 123.208C159.087 119.988 159.751 116.617 160.26 113.239C160.773 109.848 161.132 106.434 161.718 103.051C162.293 99.7337 163.14 96.4893 164.284 93.3261C166.598 86.9511 169.942 81.0064 173.343 75.1552C173.763 74.4324 174.186 73.7056 174.61 72.9828C173.979 72.8122 173.343 72.6417 172.712 72.4712C172.113 80.3283 171.514 88.1855 170.83 96.0345C170.488 99.961 170.121 103.884 169.726 107.802C169.356 111.473 168.977 115.143 168.39 118.786C167.315 125.453 165.478 131.978 161.991 137.813C159.001 142.82 155.034 147.205 150.452 150.811C145.817 154.458 140.485 157.272 134.86 159.046C134.147 159.273 133.426 159.48 132.705 159.671C131.438 160.004 131.972 161.966 133.243 161.624Z" fill="black"/>
<path d="M117.292 190.714C124.013 187.429 130.644 183.962 137.17 180.311C143.65 176.685 150.033 172.88 156.301 168.901C161.776 165.425 167.279 161.892 172.13 157.572C176.594 153.597 180.537 148.801 182.427 143.06C184.753 135.99 183.303 128.503 181.441 121.51C181.201 120.605 180.948 119.699 180.7 118.794C180.484 118.01 179.221 117.734 178.838 118.55C176.252 124.093 174.757 130.098 171.539 135.349C168.497 140.311 164.395 144.517 160.22 148.537C150.994 157.418 141.491 166.026 131.85 174.456C126.368 179.251 120.828 183.978 115.227 188.635C114.804 188.988 114.865 189.707 115.227 190.073C115.647 190.491 116.246 190.426 116.669 190.073C126.697 181.724 136.546 173.156 146.2 164.378C150.97 160.037 155.699 155.651 160.371 151.205C164.623 147.161 168.831 142.991 172.154 138.13C174.057 135.353 175.519 132.356 176.765 129.234C178.048 126.014 179.128 122.716 180.594 119.574C179.975 119.492 179.352 119.411 178.733 119.33C180.643 126.229 182.704 133.615 180.961 140.77C179.592 146.377 176.048 151.091 171.914 155.006C167.381 159.298 162.134 162.745 156.892 166.107C150.754 170.046 144.505 173.818 138.159 177.416C131.769 181.042 125.276 184.489 118.694 187.758C117.883 188.16 117.073 188.558 116.262 188.956C115.769 189.196 115.635 189.898 115.895 190.345C116.193 190.852 116.796 190.958 117.292 190.714Z" fill="black"/>
<path d="M57.6119 158.441C62.4428 153.605 62.0843 146.215 59.2901 140.428C56.0845 133.785 49.5918 129.542 43.5594 125.693C40.4027 123.679 37.2175 121.701 34.2685 119.391C31.401 117.145 28.7249 114.668 26.2484 112.005C21.3605 106.754 17.2873 100.798 13.8699 94.5037C10.4321 88.1774 7.6583 81.514 5.34472 74.7045C5.0596 73.868 4.78263 73.0316 4.5138 72.191C3.85801 72.3697 3.2063 72.5524 2.55051 72.7311C5.24697 80.1741 7.98008 87.6089 10.8313 94.995C13.2019 101.139 15.7354 107.246 18.9248 113.02C22.0693 118.709 25.9021 124.089 30.6841 128.531C33.1809 130.854 35.9385 132.835 38.8019 134.683C41.6858 136.547 44.6551 138.317 47.2946 140.526C49.8729 142.678 51.9991 145.232 53.4451 148.269C54.8259 151.177 55.5183 154.417 55.4409 157.629C55.4247 158.396 55.3676 159.168 55.2536 159.927C55.1884 160.382 55.2984 160.829 55.722 161.072C56.1089 161.3 56.6385 161.235 56.9562 160.914C57.7016 160.159 58.447 159.399 59.1964 158.644C60.117 157.71 58.6791 156.277 57.7545 157.207C57.0091 157.962 56.2637 158.721 55.5143 159.476C56.0804 159.805 56.6507 160.134 57.2169 160.463C58.2148 153.662 56.0356 146.686 51.3881 141.606C46.6876 136.469 40.1217 133.66 34.745 129.355C29.6332 125.266 25.5152 120.13 22.1589 114.551C18.7781 108.935 16.1305 102.917 13.7233 96.8345C10.868 89.6148 8.19596 82.314 5.54024 75.0172C5.19809 74.0751 4.85187 73.129 4.5138 72.187C4.32643 71.6713 3.82135 71.3261 3.25925 71.4764C2.74603 71.6185 2.37944 72.1992 2.54644 72.727C4.74597 79.5487 7.3691 86.2486 10.6032 92.6521C13.8373 99.0556 17.7109 105.155 22.3381 110.648C27.0426 116.232 32.5333 120.966 38.6472 124.954C41.7795 127 44.9973 128.929 48.0318 131.118C50.8667 133.164 53.6813 135.499 55.7139 138.37C59.0742 143.112 60.9438 150.076 57.559 155.302C57.1598 155.919 56.6873 156.48 56.166 157C55.2454 157.933 56.6833 159.371 57.6119 158.441Z" fill="black"/>
<path d="M49.2627 102.056C48.3421 92.7739 46.7088 83.5646 44.3423 74.538C43.2588 70.4044 42.2038 66.0637 39.9391 62.3848C38.0533 59.3191 35.2916 56.9924 32.5544 54.7144C29.634 52.2822 26.5791 49.7768 24.9457 46.2604C24.7339 45.8056 24.0985 45.6594 23.6749 45.8462C23.1942 46.0574 22.9784 46.5365 23.0843 47.0441C24.6199 54.2272 29.6258 59.9119 33.585 65.8769C35.5442 68.8329 37.3445 71.9555 38.2691 75.4029C39.4341 79.7518 38.9901 84.3361 40.0084 88.7134C41.1367 93.5698 44.0897 97.7156 46.9491 101.703C47.4094 102.341 48.2525 102.365 48.7087 101.703C49.0672 101.183 49.4215 100.668 49.78 100.148C50.0895 99.6971 49.8655 99.0231 49.4134 98.7591C48.9083 98.4668 48.334 98.6698 48.0204 99.1246C47.6619 99.6443 47.3075 100.16 46.9491 100.68C47.5356 100.68 48.1222 100.68 48.7087 100.68C46.2322 97.2283 43.6376 93.6794 42.3545 89.5823C40.9819 85.1929 41.4381 80.5151 40.5094 76.0445C39.0104 68.8411 33.9719 63.1238 30.0046 57.1548C27.8255 53.8739 25.8744 50.3981 25.0475 46.5121C24.4284 46.772 23.8052 47.0319 23.1861 47.2958C26.131 53.6546 33.0554 56.5985 37.1938 61.9828C39.7355 65.2962 40.8393 69.4217 41.9187 73.3767C43.1285 77.8067 44.163 82.2815 45.0225 86.7887C45.9838 91.844 46.721 96.9441 47.2261 102.064C47.279 102.609 47.6538 103.08 48.2444 103.08C48.7535 103.071 49.3156 102.604 49.2627 102.056Z" fill="black"/>
<path d="M120.168 199.684C123.125 196.505 127.455 195.364 131.63 194.815C136.29 194.202 141.007 194.194 145.65 193.431C155.108 191.875 164.203 187.933 171.8 182.106C176.024 178.865 179.763 175.073 182.883 170.757C182.264 170.675 181.641 170.594 181.022 170.513C181.686 174.703 178.484 178.423 175.576 181.005C172.321 183.897 168.558 186.292 164.717 188.327C156.953 192.44 148.322 194.99 139.573 195.814C134.591 196.285 129.536 196.224 124.575 195.558C124.029 195.485 123.484 195.688 123.321 196.269C123.19 196.74 123.484 197.442 124.034 197.52C133.337 198.766 142.844 198.096 151.886 195.591C160.745 193.134 169.348 188.932 176.386 182.991C180.203 179.771 183.82 175.272 182.985 169.977C182.924 169.591 182.496 169.291 182.138 169.25C181.706 169.197 181.372 169.392 181.123 169.733C175.653 177.302 168.036 183.218 159.556 187.088C155.283 189.037 150.754 190.446 146.135 191.295C141.565 192.131 136.917 192.164 132.314 192.704C127.386 193.28 122.229 194.482 118.726 198.251C117.838 199.205 119.272 200.642 120.168 199.684Z" fill="black"/>
<path d="M81.5833 193.735C79.7993 190.207 76.3574 188.034 72.9115 186.337C69.2986 184.558 65.4005 183.162 62.1786 180.689C60.138 179.121 58.3458 177.274 56.1137 175.962C54.016 174.728 51.7024 173.859 49.3644 173.193C44.7739 171.885 39.996 171.349 35.4341 169.945C31.035 168.592 26.4649 166.379 24.1839 162.177C23.6503 162.587 23.1167 162.997 22.5831 163.407C26.0779 166.562 29.7967 169.473 33.7029 172.105C35.6336 173.404 37.6091 174.634 39.6254 175.792C41.6253 176.941 43.6863 177.98 45.67 179.162C47.6333 180.331 49.397 181.684 50.9855 183.328C52.57 184.964 54.0363 186.719 55.7959 188.176C58.9771 190.82 62.757 192.602 66.7162 193.764C71.2619 195.096 76.0234 195.644 80.7443 195.847C82.0558 195.904 82.0518 193.873 80.7443 193.816C72.8382 193.475 64.2723 192.164 57.8325 187.218C56.1503 185.927 54.7369 184.355 53.2991 182.812C51.7105 181.103 50.0283 179.556 48.0732 178.269C46.1791 177.022 44.1588 175.991 42.1752 174.898C40.163 173.79 38.1916 172.612 36.2609 171.366C31.9352 168.568 27.8416 165.429 24.021 161.978C23.1697 161.206 21.8622 162.173 22.4202 163.208C24.5383 167.11 28.4404 169.514 32.481 171.077C36.8882 172.783 41.5846 173.412 46.1669 174.476C48.4927 175.016 50.8307 175.654 53.014 176.648C54.0771 177.132 55.1035 177.692 56.0729 178.342C57.1523 179.069 58.1258 179.933 59.1115 180.778C60.8223 182.252 62.6023 183.547 64.594 184.611C66.374 185.561 68.2233 186.378 70.0521 187.222C73.8035 188.96 77.8808 190.917 79.8237 194.763C80.4143 195.928 82.174 194.901 81.5833 193.735Z" fill="black"/>
<path d="M45.1401 161.767C46.1421 161.397 46.8793 160.605 47.1237 159.554C47.3844 158.425 47.0585 157.3 46.4353 156.346C45.804 155.375 44.969 154.519 44.1747 153.678C43.3886 152.85 42.578 152.046 41.7389 151.266C38.4234 148.188 34.7208 145.512 30.7617 143.32C28.7495 142.203 26.6641 141.22 24.5338 140.347C22.2609 139.417 19.9107 138.686 17.6175 137.818C15.4994 137.014 13.4465 136.043 11.6136 134.699C10.0495 133.55 8.64018 132.125 7.50376 130.553C4.9132 126.98 3.53239 122.631 3.87454 118.217C3.9112 117.722 3.45907 117.275 2.99066 117.218C2.45299 117.153 2.07012 117.462 1.8746 117.945C0.224961 122.014 1.07218 126.631 3.05583 130.419C5.11686 134.358 8.42837 137.505 11.7317 140.408C15.1288 143.397 18.5706 146.373 22.2854 148.972C24.1142 150.251 26.0123 151.433 28.0041 152.444C29.89 153.406 31.8574 154.19 33.8288 154.953C37.8083 156.496 42.0322 158.023 45.0097 161.21C45.9058 162.169 47.3437 160.731 46.4516 159.773C43.7674 156.898 40.1341 155.266 36.5375 153.836C34.7575 153.13 32.9571 152.476 31.2057 151.713C29.1976 150.836 27.2669 149.792 25.4136 148.619C21.7192 146.276 18.3629 143.466 15.0595 140.611C11.8132 137.805 8.44059 134.963 6.01704 131.386C3.4713 127.63 2.06604 122.846 3.83788 118.477C3.16988 118.388 2.50594 118.298 1.83794 118.209C1.21067 126.314 6.00482 134.273 13.1411 138.037C17.2876 140.221 21.9269 141.277 26.1753 143.251C30.1385 145.09 33.9062 147.388 37.3155 150.117C39.2339 151.652 41.0465 153.317 42.7369 155.103C43.5393 155.952 44.5535 156.861 45.0179 157.958C45.2582 158.526 45.3152 159.533 44.6024 159.797C44.0851 159.988 43.7348 160.483 43.8896 161.048C44.024 161.551 44.6228 161.957 45.1401 161.767Z" fill="black"/>
<path d="M132.783 179.84C136.111 176.153 140.017 173.039 144.347 170.606C148.224 168.426 152.457 166.883 156.159 164.398C158.192 163.029 160.012 161.393 161.369 159.342C162.09 158.246 160.33 157.231 159.609 158.319C157.271 161.86 153.332 163.89 149.622 165.701C147.642 166.668 145.638 167.581 143.707 168.645C141.524 169.847 139.443 171.224 137.471 172.746C135.264 174.452 133.211 176.344 131.341 178.415C130.469 179.373 131.903 180.815 132.783 179.84Z" fill="black"/>
<path d="M116.189 186.126C123.83 180.786 126.458 171.321 126.49 162.437C126.502 159.615 126.38 156.618 127.7 154.035C128.295 152.874 126.535 151.843 125.94 153.012C124.739 155.367 124.494 157.978 124.462 160.585C124.433 162.895 124.445 165.19 124.164 167.484C123.655 171.638 122.376 175.784 120.063 179.296C118.763 181.269 117.101 183.02 115.159 184.376C114.71 184.688 114.499 185.265 114.792 185.764C115.057 186.203 115.737 186.443 116.189 186.126Z" fill="black"/>
<path d="M106.222 185.444C106.018 180.823 104.401 176.478 102.699 172.222C101.012 168.008 99.1958 163.708 98.7844 159.139C98.5563 156.622 98.7884 154.125 99.6845 151.753C99.8801 151.242 99.4687 150.641 98.9717 150.503C98.4015 150.344 97.9127 150.698 97.7172 151.213C94.2509 160.378 99.8841 169.461 102.67 177.96C103.469 180.388 104.067 182.881 104.181 185.444C104.242 186.747 106.279 186.755 106.222 185.444Z" fill="black"/>
<path d="M109.713 196.569C113.159 196.383 115.855 194.312 118.58 192.424C119.994 191.445 121.448 190.523 123.085 189.967C124.922 189.342 126.857 189.062 128.783 188.879C132.384 188.542 135.977 188.302 139.541 187.661C142.926 187.052 146.253 186.146 149.414 184.782C152.84 183.304 156.017 181.2 158.493 178.395C158.856 177.984 158.901 177.363 158.493 176.957C158.123 176.588 157.418 176.543 157.051 176.957C152.701 181.891 146.331 184.258 140.017 185.509C136.637 186.179 133.223 186.479 129.79 186.759C127.822 186.922 125.843 187.121 123.924 187.6C122.156 188.042 120.49 188.769 118.951 189.736C116.075 191.538 113.293 194.34 109.713 194.535C108.409 194.612 108.401 196.643 109.713 196.569Z" fill="black"/>
<path d="M106.421 196.675C103.322 193.715 99.8392 191.145 96.0959 189.053C92.4341 187.007 88.5198 185.61 84.6217 184.096C81.0984 182.727 77.5181 181.107 74.9316 178.269C72.1414 175.207 70.7484 171.175 68.109 168C65.4247 164.771 60.8057 162.205 56.5615 163.768C56.0442 163.959 55.6939 164.455 55.8487 165.019C55.9831 165.515 56.5818 165.921 57.1032 165.73C60.5776 164.451 64.1661 166.586 66.4227 169.149C67.7057 170.61 68.6629 172.348 69.6283 174.025C70.6466 175.792 71.6852 177.554 72.9927 179.129C75.514 182.167 79.0577 184.006 82.6503 185.484C86.308 186.991 90.0716 188.197 93.595 190.016C97.7578 192.164 101.603 194.88 104.988 198.117C105.929 199.018 107.37 197.581 106.421 196.675Z" fill="black"/>
<path d="M105.831 197.26C101.607 193.987 96.0713 194.036 91.0979 192.777C86.0472 191.498 81.1308 189.126 77.7908 185.025C76.1493 183.011 74.9274 180.526 74.5852 177.94C74.5119 177.396 74.1697 176.925 73.5669 176.925C73.0741 176.925 72.4753 177.392 72.5486 177.94C73.2492 183.206 76.5729 187.62 80.9068 190.568C83.2326 192.152 85.8476 193.309 88.5237 194.153C91.0979 194.966 93.7414 195.396 96.3931 195.863C99.1506 196.35 102.124 196.935 104.393 198.693C104.829 199.03 105.411 199.115 105.835 198.693C106.181 198.344 106.267 197.597 105.831 197.26Z" fill="black"/>
<path d="M99.7417 152.659C101.571 146.625 102.813 140.432 103.501 134.167C104.182 127.934 104.287 121.636 103.811 115.383C103.326 109.053 102.239 102.791 100.617 96.6558C99.8069 93.586 98.9108 90.4919 98.6298 87.3165C98.4913 85.7694 98.4831 84.1858 98.7234 82.6469C98.9678 81.0876 99.3996 79.5649 99.925 78.0828C101 75.0334 102.369 72.0814 103.632 69.109C104.943 66.0271 106.255 62.9411 107.57 59.8591C107.9 59.0876 108.226 58.3161 108.556 57.5487C108.772 57.0452 108.707 56.4604 108.19 56.16C107.762 55.9123 107.012 56.0178 106.797 56.5254C104.169 62.7015 101.465 68.8532 98.919 75.0618C97.7092 78.0179 96.695 81.0673 96.5321 84.2792C96.3651 87.5358 97.0127 90.7842 97.8029 93.9271C98.5768 97.0131 99.4403 100.071 100.076 103.189C100.703 106.263 101.188 109.369 101.518 112.492C102.178 118.761 102.251 125.088 101.742 131.369C101.233 137.623 100.125 143.827 98.4465 149.873C98.2347 150.628 98.0188 151.38 97.7907 152.131C97.3997 153.373 99.3629 153.909 99.7417 152.659Z" fill="black"/>
<path d="M131.789 64.8577C132.449 61.5158 133.117 58.1456 134.335 54.9499C135.545 51.7746 137.422 48.916 139.276 46.0858C139.993 44.9894 138.233 43.9702 137.516 45.0625C135.598 47.9983 133.712 50.9544 132.437 54.2353C131.178 57.4837 130.498 60.9149 129.822 64.3176C129.716 64.8536 129.977 65.414 130.535 65.5683C131.04 65.7063 131.683 65.4018 131.789 64.8577Z" fill="black"/>
</svg>
