<svg xmlns="http://www.w3.org/2000/svg" width="200" height="200" fill="none"><path fill="#000" d="M94.496 195.124c-5.805-4.394-10.656-9.94-14.59-16.035-4.037-6.253-7.385-13.152-9.491-20.295-1.14-3.869-1.858-7.865-1.841-11.909.012-4.183.798-8.3 1.531-12.401 1.487-8.328 2.338-16.746 2.37-25.208.034-8.328-.146-17.46-4.793-24.712-.717-1.117-2.31-.147-1.76 1.023 3.483 7.382 5.682 15.381 6.383 23.51.717 8.3-.448 16.567-.489 24.867-.02 4.073.257 8.174 1.181 12.153.904 3.894 2.469 7.585 4.053 11.24 1.548 3.577 3.096 7.146 4.167 10.898.908 3.188 1.576 6.432 2.322 9.66 1.62 7.005 3.784 14.168 9.25 19.19.757.695 1.93.009 1.703-.986-2.998-13.185.533-26.67 1.368-39.895.851-13.546-.31-27.116-2.004-40.553-1.682-13.335-3.918-26.6-5.27-39.972-1.206-11.901-1.691-23.928-.575-35.858 1.108-11.812 3.89-23.572 9.136-34.263a85 85 0 0 1 2.122-4.036c-.619-.26-1.242-.52-1.861-.784-3.022 12.263-1.674 24.92.301 37.231 1.01 6.294 2.171 12.563 3.063 18.878.909 6.444 1.605 12.916 2.171 19.397 1.129 12.819 1.854 25.691 2.469 38.542.309 6.453.484 12.925.146 19.381-.334 6.4-1.262 12.738-2.549 19.012-2.583 12.612-6.192 25.029-9.466 37.475l-1.235 4.694 2 .268c.603-7.829 6.069-14.155 11.735-19.126 5.923-5.197 12.717-9.327 18.399-14.808 3.063-2.956 5.771-6.31 7.596-10.168l-1.861-.244c2.937 7.537-2.196 15.13-8.016 19.593-6.534 5.01-14.44 7.808-21.161 12.534-3.551 2.498-6.773 5.494-8.928 9.295l1.898.512c.13-14.7-6.704-28.347-7.238-42.949-.147-4.028.273-8.027 1.458-11.889q-.851.226-1.702.447c5.108 4.422 7.38 11.544 5.36 18.037-.387 1.25 1.576 1.786 1.963.54 2.22-7.139-.256-15.142-5.886-20.015-.578-.503-1.466-.317-1.702.447-4.4 14.334 1.666 28.907 4.411 42.928.803 4.105 1.336 8.259 1.3 12.45-.009 1.002 1.4 1.388 1.898.511 4.134-7.289 12.077-11.158 19.209-14.939 7.128-3.776 14.761-8.117 18.288-15.742 1.785-3.862 2.387-8.263.815-12.304-.281-.723-1.45-1.112-1.861-.243-3.414 7.219-9.821 12.327-16.069 17.038-6.35 4.787-12.92 9.514-17.49 16.136-2.46 3.569-4.114 7.61-4.448 11.95-.09 1.154 1.715 1.361 2 .268 3.287-12.498 6.822-24.96 9.698-37.56 1.405-6.147 2.562-12.36 3.201-18.637.652-6.424.701-12.889.497-19.337-.399-12.855-1.242-25.735-2.236-38.559a423 423 0 0 0-4.741-38.218c-2.106-12.392-4.305-25.179-2.26-37.734a58 58 0 0 1 .936-4.568C99.64.189 98.088-.533 97.51.498c-5.886 10.521-9.328 22.163-10.933 34.064-1.617 11.958-1.482 24.083-.493 36.086 1.092 13.254 3.234 26.394 5.023 39.566 1.853 13.656 3.348 27.429 2.936 41.227-.203 6.769-1.05 13.46-1.824 20.181-.77 6.675-1.36 13.448-.534 20.148.204 1.636.48 3.256.843 4.864.566-.328 1.137-.657 1.703-.986-4.872-4.475-6.925-10.761-8.423-17.01-.762-3.175-1.406-6.383-2.24-9.542-.954-3.614-2.294-7.07-3.769-10.501-1.551-3.601-3.189-7.183-4.293-10.955-1.177-4.036-1.605-8.21-1.653-12.401-.094-8.255 1.136-16.482.594-24.741-.59-9.002-2.924-17.801-6.77-25.959l-1.759 1.023c4.228 6.595 4.472 14.773 4.517 22.358.05 8.596-.725 17.164-2.232 25.63-.737 4.158-1.552 8.328-1.658 12.563-.102 3.98.493 7.971 1.516 11.812 1.942 7.301 5.266 14.379 9.23 20.807 4.28 6.947 9.653 13.184 16.178 18.126 1.043.812 2.061-.95 1.027-1.734"/><path fill="#000" d="M107.448 143.279c2.318-5.9 4.603-11.812 6.953-17.7 2.065-5.173 4.411-10.367 8.183-14.549 3.45-3.825 7.702-6.793 11.621-10.098 4.04-3.407 7.572-7.257 9.669-12.162 2.473-5.778 3.153-12.068 3.776-18.264h-2.036c.301 11.02-1.976 22.069-6.477 32.139a78.7 78.7 0 0 1-8.443 14.496c-3.344 4.548-7.234 8.576-11.385 12.393-4.517 4.158-9.324 8.446-11.788 14.204l1.862.243c-.827-5.717.708-11.645 3.938-16.408 3.222-4.747 8.204-7.776 12.644-11.252 2.505-1.961 4.847-4.117 6.635-6.765q-.93-.389-1.862-.784c-1.828 4.451-3.682 8.909-6.024 13.124-1.173 2.112-2.472 4.158-3.939 6.083-1.429 1.876-3.067 3.553-4.749 5.201-1.637 1.608-3.283 3.245-4.546 5.174-1.405 2.148-1.983 4.543-2.297 7.061-.322 2.582-.615 5.136-1.185 7.682a71 71 0 0 1-2.147 7.468c-1.939 5.628-4.456 11.036-6.969 16.429q.931.388 1.861.783c3.809-10.715 7.78-21.581 14.31-30.998 3.221-4.645 7.107-8.884 11.661-12.263 5.348-3.967 11.401-6.834 16.936-10.516 5.463-3.635 10.595-8.219 13.039-14.448-.656-.179-1.308-.361-1.964-.54-1.515 8.113-7.254 14.512-13.486 19.568-6.733 5.461-14.46 9.526-21.425 14.662-3.914 2.887-7.617 6.091-10.619 9.937l1.601 1.23a58.4 58.4 0 0 1 7.967-10.273q-.851-.227-1.702-.447c1.714 5.311-1.271 10.622-4.131 14.939-3.372 5.096-6.985 10.05-10.488 15.06l-6.049 8.662c-.313.45-.081 1.128.367 1.388.505.297 1.08.085 1.393-.365q5.537-7.925 11.067-15.849c1.792-2.562 3.621-5.104 5.356-7.706 1.58-2.376 3.039-4.857 4.016-7.545 1.063-2.932 1.401-6.123.432-9.128-.228-.711-1.149-1.019-1.703-.447a61 61 0 0 0-8.285 10.688c-.582.958.876 2.156 1.601 1.23 5.43-6.952 12.998-11.703 20.33-16.413 7.197-4.625 14.516-9.457 19.836-16.278 2.843-3.647 5.034-7.805 5.89-12.373.244-1.299-1.487-1.754-1.963-.54-2.119 5.401-6.66 9.502-11.344 12.722-5.397 3.707-11.356 6.529-16.704 10.314-9.593 6.781-16.086 16.648-20.872 27.201-2.659 5.868-4.867 11.926-7.022 17.992-.383 1.072 1.373 1.828 1.862.784 4.492-9.64 9.046-19.478 10.305-30.15.289-2.464.432-5.031 1.588-7.28 1.027-1.994 2.579-3.634 4.155-5.202 1.674-1.664 3.369-3.289 4.859-5.12a49 49 0 0 0 4.167-6.018c2.799-4.742 4.9-9.851 6.99-14.93.191-.463-.167-1.028-.591-1.198-.488-.195-.981-.016-1.271.414-3.234 4.796-8.451 7.784-12.887 11.333-2.334 1.868-4.464 3.935-6.183 6.387a25.9 25.9 0 0 0-3.792 8.194 25.3 25.3 0 0 0-.558 10.075c.118.828 1.527 1.019 1.861.243 2.208-5.153 6.334-9.063 10.387-12.799 2.069-1.908 4.15-3.804 6.101-5.839a80 80 0 0 0 5.687-6.639c6.855-8.921 11.8-19.336 14.309-30.295 1.401-6.12 2.053-12.413 1.881-18.687-.036-1.328-1.91-1.279-2.036 0-.542 5.429-1.132 10.935-3.043 16.084-.908 2.448-2.159 4.783-3.759 6.854-1.548 2.002-3.397 3.768-5.308 5.42-3.861 3.343-8.101 6.262-11.645 9.961-3.931 4.102-6.493 9.116-8.647 14.31-2.693 6.484-5.161 13.071-7.727 19.604-.2.512.22 1.113.713 1.251.566.15 1.042-.207 1.242-.719M72.532 82.594C67.697 74.08 63.4 65.231 60.243 55.953c-3.087-9.071-5.091-18.577-5.07-28.188.011-5.344.663-10.66 2.02-15.833l-2-.268c.203 4.975.431 9.977 1.413 14.87.957 4.784 2.815 9.177 5.372 13.323 2.42 3.922 5.21 7.626 7.292 11.747 2.187 4.333 3.213 9.084 3.295 13.915.094 5.515-.937 10.972-2.448 16.255.656.178 1.307.361 1.963.54a264 264 0 0 1 6.574-24.091h-1.963l3.996 27.364c1.307 8.953 2.558 17.89 2.26 26.962a97 97 0 0 1-1.686 15.06l1.862-.243c-4.224-9.904-6.277-20.709-6.013-31.461.074-3.005.322-6.01.762-8.982q-.748.306-1.495.605c3.291 2.213 5.369 6.013 5.283 9.989-.028 1.307 2.008 1.307 2.037 0 .106-4.71-2.412-9.133-6.29-11.743-.5-.338-1.4-.025-1.494.605-1.633 11.032-.884 22.353 2.24 33.069a79 79 0 0 0 3.218 8.937c.338.796 1.703.572 1.862-.244a99.7 99.7 0 0 0 1.445-27.242c-.39-4.62-1.046-9.217-1.718-13.806-.672-4.617-1.349-9.23-2.02-13.846l-2.274-15.572c-.154-1.064-1.686-.861-1.963 0a264 264 0 0 0-6.574 24.09c-.281 1.272 1.6 1.804 1.963.54 2.693-9.412 3.935-19.888.11-29.182-1.78-4.325-4.476-8.15-7.022-12.048-1.275-1.953-2.513-3.939-3.564-6.022-1.08-2.14-1.898-4.393-2.497-6.716-1.41-5.445-1.645-11.093-1.878-16.685-.044-1.116-1.698-1.413-2-.268-2.484 9.478-2.602 19.361-1.042 28.997 1.58 9.753 4.835 19.178 8.883 28.168C65.4 73.689 68 78.7 70.785 83.605c.631 1.153 2.39.13 1.747-1.01M66.276 116.926c-1.487-.207-2.538-1.218-3.426-2.355-1.047-1.34-1.971-2.794-2.925-4.203-2.073-3.074-4.056-6.212-5.767-9.501-3.238-6.209-5.43-13.06-5.014-20.124.224-3.769 1.246-7.468 3.152-10.74l-1.861-.244 2.053 12.185q.505 2.997 1.01 5.994c.269 1.6.525 3.2.517 4.828-.008 1.66-.322 3.402-1.372 4.742-.542.695-.22 1.678.72 1.734a5.52 5.52 0 0 1 3.903 1.945c1.08 1.275 1.698 2.985 2.415 4.475 1.666 3.476 3.356 6.94 5.002 10.423.118.252.277.569.281.849 0 .085-.016.134-.033.207 0 .008-.142.077-.02.045.061-.016-.281-.012-.175.004a1.3 1.3 0 0 1-.37-.118 3.3 3.3 0 0 1-.75-.487c-.542-.455-.962-1.04-1.426-1.567a38 38 0 0 0-1.609-1.738 42.5 42.5 0 0 0-7.421-6.006 44 44 0 0 0-9.857-4.682c-.84-.28-1.61.76-1.149 1.491 4.888 7.763 11.523 14.374 19.222 19.368a65 65 0 0 0 6.79 3.842c.492.239 1.1.134 1.393-.366.26-.447.13-1.145-.367-1.389-8.077-3.955-15.283-9.574-20.99-16.518a58 58 0 0 1-4.292-5.969q-.575.746-1.149 1.49c6.5 2.165 12.452 5.925 17.116 10.935 1.091 1.174 2.028 2.66 3.519 3.367.75.357 1.597.523 2.379.15.839-.402 1.295-1.312 1.21-2.221-.09-.975-.608-1.852-1.023-2.721-.448-.938-.9-1.872-1.348-2.81-.913-1.904-1.825-3.804-2.742-5.709-.928-1.937-1.73-4.056-3.111-5.725-1.328-1.604-3.34-2.485-5.398-2.607l.721 1.734c2.29-2.916 2.147-6.57 1.626-10.05-.628-4.17-1.393-8.324-2.094-12.486l-1.21-7.191c-.15-.89-1.45-.947-1.861-.244-3.71 6.359-4.191 14.009-2.631 21.086 1.65 7.5 5.576 14.306 9.8 20.64 1.152 1.726 2.289 3.484 3.564 5.124 1.124 1.446 2.574 2.794 4.464 3.054.546.077 1.092-.13 1.254-.711.123-.454-.17-1.153-.72-1.23M114.091 105.394c.123-6.546-.281-13.087-.562-19.625-.281-6.492-.448-13.014.175-19.49.599-6.188 2.053-12.226 4.513-17.944 2.298-5.34 5.173-10.403 7.74-15.612 2.533-5.15 4.826-10.521 5.751-16.214q.182-1.115.297-2.238c-.668.09-1.332.18-2 .268 1.157 6.173 1.723 12.438 1.76 18.716.037 6.265-.44 12.53-1.369 18.727-.941 6.285-2.321 12.506-4.04 18.625-1.74 6.185-3.829 12.267-6.183 18.24-2.355 5.97-4.982 11.825-7.813 17.583q-.532 1.077-1.071 2.156l1.861.243q-.816-2.027-1.633-4.06c-.204-.508-.68-.865-1.254-.711-.485.134-.917.735-.713 1.251.546 1.352 1.087 2.704 1.633 4.06.293.731 1.43 1.105 1.862.244a251 251 0 0 0 8.117-17.805c2.465-6.039 4.664-12.186 6.513-18.44 1.825-6.163 3.308-12.429 4.355-18.771 1.042-6.306 1.666-12.681 1.755-19.073.09-6.42-.37-12.84-1.409-19.178q-.193-1.174-.412-2.342c-.093-.492-.655-.796-1.116-.727-.533.08-.826.479-.883.999-.599 5.631-2.685 10.987-5.108 16.067-2.517 5.267-5.426 10.342-7.825 15.666-1.226 2.716-2.322 5.49-3.157 8.348-.92 3.143-1.535 6.363-1.951 9.611-.822 6.412-.774 12.897-.537 19.345.24 6.546.688 13.083.684 19.637q0 1.226-.024 2.452c-.017 1.3 2.02 1.3 2.044-.008"/><path fill="#000" d="M122.816 56.23c-1.226 10.142-3.975 20.018-6.639 29.856-.762 2.818-1.576 5.624-2.509 8.39-.42 1.242 1.548 1.774 1.963.54 1.658-4.914 2.933-9.94 4.24-14.956 1.316-5.039 2.681-10.066 3.654-15.182.542-2.867.982-5.75 1.332-8.649.065-.544-.513-1.015-1.018-1.015-.607 0-.957.467-1.023 1.015M67.285 159.667a49.8 49.8 0 0 1-16.064-7.605c-4.721-3.37-8.868-7.597-12.073-12.429-1.589-2.396-2.974-4.946-4.053-7.61-1.377-3.399-2.326-6.956-3.022-10.549-.693-3.586-1.137-7.216-1.52-10.846-.415-3.89-.786-7.784-1.14-11.682-.709-7.85-1.32-15.702-1.919-23.56q-.108-1.462-.224-2.919l-1.898.512c3.405 5.823 6.847 11.682 9.397 17.94 1.275 3.126 2.318 6.346 3.018 9.651.713 3.358 1.116 6.769 1.577 10.168.456 3.354.965 6.716 1.894 9.977.822 2.891 2.008 5.664 3.454 8.299 2.729 4.97 6.268 9.433 9.588 14.017 3.246 4.483 6.415 9.177 8.155 14.472q.318.968.57 1.961c.326 1.263 2.289.727 1.963-.54-1.405-5.465-4.322-10.366-7.535-14.959-3.267-4.669-6.876-9.104-9.833-13.984-1.442-2.384-2.73-4.869-3.666-7.496-1.148-3.224-1.8-6.598-2.301-9.977-.505-3.394-.868-6.805-1.462-10.188a56.7 56.7 0 0 0-2.632-9.802c-2.37-6.448-5.723-12.47-9.169-18.398-.42-.723-.843-1.45-1.266-2.173-.485-.828-1.976-.523-1.898.512.607 7.991 1.217 15.982 1.918 23.965q.523 5.989 1.132 11.971c.387 3.772.79 7.548 1.41 11.296 1.12 6.781 3.083 13.412 6.66 19.333 3.1 5.132 7.193 9.672 11.922 13.359 4.859 3.788 10.354 6.724 16.235 8.592q1.109.352 2.228.649c1.28.342 1.821-1.616.554-1.957"/><path fill="#000" d="M83.721 188.964a402 402 0 0 1-38.36-21.403c-5.394-3.407-10.836-6.85-15.65-11.053-4.293-3.748-8.22-8.239-10.093-13.696-2.35-6.842-.897-14.066.916-20.851.232-.877.477-1.75.717-2.623l-1.862.244c2.611 5.599 4.114 11.653 7.39 16.944 3.09 4.995 7.205 9.266 11.416 13.327 9.263 8.929 18.814 17.57 28.5 26.04a876 876 0 0 0 16.623 14.18c.424.349 1.027.41 1.442 0 .363-.362.424-1.085 0-1.438a896 896 0 0 1-29.388-25.561 851 851 0 0 1-14.057-13.059c-4.211-3.999-8.431-8.1-11.726-12.908-1.874-2.737-3.332-5.677-4.542-8.759-1.287-3.272-2.411-6.606-3.898-9.798-.383-.82-1.642-.544-1.861.244-1.984 7.167-4 14.748-2.31 22.183 1.336 5.859 4.937 10.898 9.193 15.032 4.546 4.414 9.85 7.962 15.16 11.385a400 400 0 0 0 38.843 22.078c.839.418 1.678.828 2.517 1.242.493.24 1.1.134 1.393-.365.265-.443.134-1.145-.363-1.385M143.813 157.008c-4.484-4.487-3.641-11.524-.79-16.653 3.495-6.285 10.122-10.159 16.012-13.911 3.148-2.006 6.248-4.069 9.144-6.432a70 70 0 0 0 7.759-7.402c4.811-5.332 8.856-11.325 12.24-17.647 3.377-6.306 6.122-12.945 8.424-19.714q.428-1.254.831-2.514c.167-.524-.196-1.108-.713-1.25-.566-.155-1.067.19-1.255.71-2.712 7.496-5.466 14.98-8.338 22.414-2.358 6.103-4.895 12.162-8.105 17.879-3.185 5.672-7.059 10.976-11.939 15.316-5.16 4.589-11.596 7.435-16.72 12.056-5.084 4.58-8.122 11.223-7.853 18.098.032.844.126 1.681.248 2.517.566-.329 1.137-.657 1.703-.986q-1.118-1.136-2.24-2.27c-.921-.934-2.359.503-1.442 1.437.745.755 1.49 1.515 2.24 2.27.318.321.847.386 1.234.158.42-.247.534-.694.468-1.145-.949-6.472 1.499-13.14 6.114-17.724 2.432-2.416 5.316-4.3 8.192-6.144 2.904-1.859 5.808-3.711 8.46-5.932 5.01-4.199 9.062-9.429 12.378-15.028 3.36-5.677 5.996-11.747 8.415-17.87 2.835-7.175 5.487-14.424 8.126-21.668.342-.942.689-1.888 1.027-2.83-.656-.178-1.308-.361-1.964-.54-2.203 6.838-4.834 13.546-8.109 19.946-3.271 6.399-7.177 12.502-11.898 17.939a71.4 71.4 0 0 1-7.719 7.654c-2.835 2.404-5.894 4.491-9.018 6.493-6.106 3.906-12.912 7.812-16.867 14.094-3.328 5.291-4.786 12.767-1.043 18.24.461.674.982 1.304 1.556 1.88.929.922 2.371-.516 1.442-1.441M152.762 102.056c.9-9.103 2.529-18.126 4.847-26.978 1.063-4.048 2.065-8.324 4.342-11.897 1.861-2.924 4.635-5.125 7.266-7.321 2.933-2.449 5.947-5.048 7.581-8.58-.619-.26-1.243-.52-1.862-.784-1.511 7.065-6.541 12.657-10.419 18.536-1.967 2.98-3.739 6.152-4.705 9.612-1.217 4.357-.778 8.94-1.755 13.334-1.063 4.76-3.984 8.792-6.778 12.69h1.76l-1.072-1.556c-.309-.45-.896-.653-1.393-.365-.448.26-.676.934-.366 1.389l1.071 1.555c.456.662 1.299.637 1.76 0 2.558-3.561 5.148-7.204 6.505-11.414 1.405-4.357.973-8.982 1.841-13.428 1.401-7.192 6.509-12.868 10.439-18.809 2.236-3.378 4.228-7.008 5.08-11 .105-.491-.106-1.003-.591-1.198-.432-.174-1.055-.048-1.271.414-1.438 3.107-4 5.421-6.578 7.598-2.697 2.273-5.499 4.462-7.601 7.325-2.529 3.443-3.678 7.682-4.782 11.743a177 177 0 0 0-3.112 13.51 179 179 0 0 0-2.24 15.62c-.053.548.505 1.015 1.019 1.015.59.004.961-.467 1.014-1.011M81.261 198.246c-3.059-3.293-7.466-4.673-11.804-5.311-4.599-.678-9.27-.653-13.865-1.352a57.65 57.65 0 0 1-25.873-10.854c-4.126-3.098-7.829-6.817-10.851-11-.245-.337-.583-.548-1.014-.483-.363.053-.782.333-.848.727-.745 4.706 2.061 8.815 5.353 11.905 3.331 3.131 7.295 5.71 11.303 7.89 8.199 4.454 17.303 7.167 26.59 8.064 5.233.508 10.496.39 15.706-.308.546-.073.843-.772.713-1.251-.163-.589-.705-.784-1.255-.711-8.814 1.182-17.877.492-26.447-1.843-8.403-2.286-16.493-6.176-23.287-11.642-3.364-2.708-7.462-6.817-6.712-11.564l-1.862.244c5.568 7.698 13.185 13.822 21.796 17.85 4.39 2.054 9.022 3.597 13.784 4.523 4.655.91 9.372 1.019 14.072 1.499 4.68.479 9.727 1.461 13.063 5.051.888.962 2.326-.475 1.438-1.434M120.161 194.758c1.714-3.394 5.115-5.315 8.439-6.911 3.727-1.794 7.605-3.301 10.872-5.9 1.983-1.579 3.763-3.333 6.007-4.56 2.094-1.145 4.367-1.9 6.672-2.505 4.583-1.198 9.324-1.758 13.829-3.261 4.586-1.53 9.201-4.028 11.584-8.417.558-1.027-.741-2.006-1.601-1.23a96 96 0 0 1-10.786 8.429 99 99 0 0 1-5.845 3.635c-2 1.149-4.065 2.188-6.044 3.37-1.943 1.157-3.752 2.489-5.348 4.093-1.605 1.612-3.051 3.382-4.77 4.881-2.945 2.566-6.562 4.267-10.289 5.376-4.427 1.315-9.038 1.855-13.641 2.054-1.308.057-1.312 2.087 0 2.031 8.167-.354 16.953-1.714 23.69-6.684 3.641-2.688 6.146-6.578 9.934-9.088 1.939-1.287 4.02-2.342 6.053-3.463a98.576 98.576 0 0 0 18.484-13.197l-1.601-1.23c-2.012 3.703-5.845 5.883-9.71 7.256-4.481 1.592-9.222 2.176-13.821 3.317-2.378.593-4.728 1.34-6.932 2.42-2.318 1.133-4.236 2.737-6.183 4.402a27.5 27.5 0 0 1-5.287 3.537c-1.792.93-3.646 1.734-5.475 2.59-3.898 1.824-7.975 4.041-9.991 8.032-.587 1.166 1.169 2.193 1.76 1.023M155.385 159.809c-.619-.231-.66-1.092-.497-1.608.302-.962 1.128-1.746 1.796-2.472a53 53 0 0 1 4.758-4.581c3.348-2.846 7.059-5.258 10.989-7.219a56 56 0 0 1 6.126-2.595c2.286-.82 4.595-1.567 6.807-2.562 3.825-1.722 7.079-4.43 9.393-7.926 2.444-3.696 3.735-8.191 3.393-12.621l-2 .268c1.556 3.838.668 8.093-1.349 11.585-2.158 3.74-5.433 6.684-8.655 9.494-3.287 2.862-6.599 5.725-10.212 8.169-1.849 1.251-3.776 2.396-5.788 3.363-1.739.836-3.547 1.522-5.348 2.221-4.04 1.567-8.24 3.228-11.258 6.46-.892.954.546 2.396 1.442 1.437 2.643-2.83 6.289-4.352 9.837-5.733 1.894-.739 3.796-1.454 5.649-2.298 2.053-.934 4.016-2.055 5.898-3.293 3.796-2.498 7.263-5.454 10.688-8.422 3.356-2.907 6.733-5.92 9.112-9.709 2.537-4.032 3.804-9.254 1.955-13.814-.191-.467-.578-.808-1.116-.727-.468.069-.921.488-.884.999.302 3.927-.745 7.821-2.831 11.151-2.232 3.569-5.515 6.164-9.364 7.828-2.236.967-4.574 1.673-6.855 2.522a58 58 0 0 0-6.42 2.838 56.5 56.5 0 0 0-11.217 7.646c-1.882 1.649-3.747 3.419-5.312 5.372-.782.979-1.47 2.152-1.34 3.452.131 1.267.86 2.29 2.065 2.737.518.19 1.116-.212 1.255-.711.151-.573-.2-1.06-.717-1.251"/><path fill="#000" d="M68.643 178.403a47.6 47.6 0 0 0-11.593-9.336c-3.812-2.188-7.98-3.723-11.69-6.099-1.93-1.234-3.71-2.736-4.981-4.657-.717-1.088-2.48-.069-1.76 1.023 2.444 3.699 6.338 5.953 10.228 7.87 1.98.974 3.992 1.888 5.938 2.931a46.3 46.3 0 0 1 6.355 4.089 45.3 45.3 0 0 1 6.06 5.616c.88.975 2.318-.467 1.442-1.437M84.825 184.372c-3.478-2.433-5.93-6.059-7.368-10.01-1.503-4.141-1.914-8.433-1.927-12.807-.008-2.923-.13-5.887-1.486-8.543-.595-1.165-2.35-.138-1.76 1.023 1.153 2.266 1.198 4.861 1.206 7.342.008 2.339.081 4.649.403 6.972.607 4.349 2.008 8.693 4.513 12.34a21.4 21.4 0 0 0 5.385 5.441c.452.317 1.132.081 1.393-.366.301-.511.094-1.076-.359-1.392M95.802 185.444c.204-4.581 1.935-8.905 3.621-13.112 1.744-4.349 3.475-8.75 3.837-13.465.2-2.582-.077-5.222-.997-7.654-.196-.511-.689-.865-1.255-.71-.493.134-.908.735-.713 1.25 3.365 8.893-2.476 17.846-5.095 26.101-.782 2.461-1.328 5.003-1.442 7.586-.05 1.311 1.987 1.307 2.044.004M90.275 194.539c-3.165-.17-5.719-2.428-8.216-4.129-1.445-.983-2.953-1.836-4.614-2.4-1.866-.634-3.83-.918-5.784-1.113-3.491-.353-6.978-.54-10.44-1.149-3.254-.572-6.505-1.389-9.552-2.688-3.311-1.409-6.35-3.395-8.737-6.099-.362-.41-1.067-.369-1.442 0-.41.41-.362 1.023 0 1.438 4.514 5.116 11.149 7.702 17.703 9.026 3.482.703 7.01 1.052 10.545 1.332 1.943.154 3.886.333 5.78.808 1.743.439 3.307 1.161 4.81 2.136 3.133 2.03 6.025 4.657 9.943 4.873 1.312.069 1.308-1.962.004-2.035M95.004 198.113a48.8 48.8 0 0 1 10.069-7.391c3.491-1.932 7.201-3.252 10.908-4.698 3.597-1.401 7.23-3.025 10-5.782 2.924-2.911 4.423-6.818 6.81-10.119 2.196-3.037 6.216-5.827 10.094-4.393.517.191 1.116-.211 1.254-.711.155-.568-.195-1.06-.713-1.251-3.776-1.392-7.845.52-10.553 3.155-2.986 2.908-4.424 6.948-6.896 10.237-2.322 3.086-5.743 4.954-9.255 6.395-3.796 1.556-7.698 2.818-11.356 4.707a51 51 0 0 0-11.804 8.417c-.945.902.493 2.339 1.442 1.434"/><path fill="#000" d="M95.595 198.693c2.004-1.551 4.574-2.176 7.014-2.647 2.623-.504 5.266-.861 7.841-1.588 5.262-1.49 10.272-4.195 13.641-8.58 1.788-2.331 2.957-5.027 3.344-7.938.073-.544-.521-1.015-1.018-1.015-.611 0-.945.471-1.019 1.015-.647 4.86-4.158 8.933-8.215 11.438-2.257 1.397-4.725 2.4-7.275 3.123-2.574.731-5.218 1.084-7.841 1.587-2.839.549-5.6 1.377-7.914 3.172-.436.337-.355 1.08 0 1.437.432.427 1.006.337 1.442-.004M102.205 152.119A99.4 99.4 0 0 1 98.47 133.7a101.5 101.5 0 0 1-.212-18.877c.518-6.294 1.707-12.462 3.324-18.561.831-3.123 1.646-6.278 1.857-9.514.212-3.257-.403-6.42-1.507-9.473-1.112-3.086-2.492-6.083-3.78-9.1-1.323-3.114-2.651-6.229-3.975-9.343q-.493-1.159-.986-2.31c-.216-.504-.96-.618-1.393-.366-.525.305-.582.881-.366 1.389 2.598 6.103 5.287 12.173 7.78 18.317 1.177 2.907 2.175 5.916 2.232 9.08.057 3.187-.664 6.31-1.463 9.375-.798 3.07-1.613 6.131-2.22 9.246a103 103 0 0 0-1.388 9.481 101.5 101.5 0 0 0-.127 18.784 102 102 0 0 0 3.328 18.573c.212.755.428 1.507.656 2.258.391 1.246 2.358.714 1.975-.54M70.162 64.322c-.672-3.407-1.353-6.834-2.615-10.083-1.275-3.28-3.157-6.237-5.08-9.172-.712-1.093-2.476-.074-1.76 1.023 1.85 2.83 3.732 5.693 4.941 8.864 1.218 3.196 1.882 6.562 2.546 9.908.106.54.75.844 1.255.71.562-.158.819-.714.713-1.25"/><path fill="#000" d="M106.519 196.878c11.702-8.864 20.036-22.142 24.536-35.993 1.247-3.837 2.11-7.816 2.338-11.852.237-4.134-.346-8.243-1.05-12.304-1.475-8.486-2.624-16.924-2.774-25.553-.151-8.519-.273-18.146 4.497-25.585l-1.76-1.023c-3.417 7.248-5.633 14.979-6.505 22.942-.908 8.279.126 16.518.31 24.797.089 4.077-.041 8.186-.852 12.194-.806 3.996-2.33 7.78-3.943 11.512-1.527 3.532-3.111 7.053-4.228 10.74-.944 3.118-1.625 6.31-2.346 9.485-1.596 7.037-3.47 14.371-8.989 19.434l1.702.987c3.035-13.343-.423-26.865-1.283-40.244-.879-13.672.302-27.372 2.017-40.935 1.702-13.436 3.955-26.803 5.299-40.284 1.201-12.068 1.654-24.274.423-36.358-1.205-11.849-4.052-23.556-9.319-34.288A85 85 0 0 0 102.47.514c-.57-1.023-2.135-.32-1.862.784 3.055 12.389 1.499 25.224-.541 37.645-1.035 6.298-2.167 12.58-3.03 18.906-.868 6.375-1.549 12.77-2.103 19.178-1.108 12.823-1.845 25.691-2.44 38.547-.297 6.452-.448 12.925-.069 19.377.371 6.318 1.308 12.587 2.579 18.784 2.582 12.612 6.191 25.029 9.466 37.475l1.234 4.694c.285 1.08 2.089.897 2-.268-.615-7.959-5.662-14.501-11.38-19.714-5.915-5.393-12.827-9.559-18.68-15.024-3.222-3.005-6.057-6.392-7.947-10.391-.412-.873-1.576-.488-1.862.243-2.916 7.492 1.446 15.528 7.108 20.4 6.42 5.523 14.509 8.442 21.543 13.031 3.833 2.501 7.377 5.538 9.658 9.554.497.877 1.906.492 1.898-.511-.13-14.846 6.871-28.648 7.254-43.432.106-4.036-.362-8.08-1.548-11.946-.236-.763-1.124-.95-1.702-.447-5.629 4.869-8.102 12.876-5.886 20.015.387 1.242 2.354.714 1.963-.54-2.02-6.493.253-13.615 5.361-18.037a214 214 0 0 0-1.703-.447c4.363 14.22-1.963 28.753-4.566 42.672-.749 4.012-1.25 8.081-1.214 12.166l1.898-.512c-3.938-6.939-11.16-11.024-18.003-14.642-7.039-3.724-14.904-7.549-18.88-14.821-2.012-3.679-2.773-7.975-1.221-11.959l-1.862.244c6.851 14.492 23.836 19.864 33.026 32.428 2.517 3.443 4.37 7.382 4.704 11.674l2-.268c-3.287-12.499-6.822-24.961-9.698-37.56-1.418-6.217-2.599-12.499-3.202-18.849-.607-6.432-.619-12.905-.399-19.353.436-12.856 1.259-25.732 2.269-38.555.51-6.448 1.124-12.888 1.927-19.308.798-6.391 1.861-12.738 2.936-19.088 2.082-12.296 4.037-24.883 2.008-37.325a58 58 0 0 0-.936-4.568q-.932.389-1.862.784c5.829 10.42 9.222 22.004 10.757 33.808 1.544 11.873 1.353 23.916.351 35.822-1.112 13.205-3.259 26.292-5.027 39.42-1.808 13.416-3.266 26.933-2.9 40.491.184 6.773 1.01 13.465 1.792 20.189.762 6.558 1.377 13.197.664 19.787a44 44 0 0 1-.855 5.064c-.228.995.945 1.685 1.703.987 4.859-4.463 7.148-10.671 8.708-16.917.79-3.171 1.43-6.379 2.228-9.546.908-3.614 2.143-7.086 3.605-10.513 1.54-3.605 3.206-7.175 4.399-10.918 1.25-3.923 1.837-8.004 1.992-12.113.317-8.397-.998-16.762-.627-25.159.403-9.108 2.68-18.11 6.57-26.353.554-1.17-1.043-2.14-1.76-1.023-4.118 6.42-4.639 14.252-4.774 21.671a141.4 141.4 0 0 0 1.805 25.086c.676 4.182 1.604 8.336 1.943 12.567.321 4.02-.021 8.024-.929 11.95-1.719 7.415-5.006 14.553-8.912 21.066-4.171 6.956-9.454 13.303-15.951 18.22-1.03.772-.016 2.534 1.031 1.742"/><path fill="#000" d="M94.503 142.739c-2.318-5.9-4.603-11.812-6.953-17.7-2.106-5.271-4.456-10.509-8.187-14.853-3.332-3.882-7.54-6.875-11.462-10.119-1.939-1.604-3.825-3.277-5.503-5.157a25.9 25.9 0 0 1-4.265-6.562c-2.529-5.58-3.16-11.82-3.76-17.842-.125-1.28-1.999-1.332-2.036 0-.31 11.276 2.053 22.52 6.607 32.829a78.5 78.5 0 0 0 8.374 14.533c3.394 4.653 7.283 8.828 11.515 12.73 4.53 4.174 9.397 8.385 11.874 14.163.33.772 1.739.593 1.861-.244a25.6 25.6 0 0 0-3.747-17.367c-1.613-2.533-3.674-4.706-5.975-6.63-2.27-1.893-4.7-3.57-7.035-5.372-2.48-1.917-4.9-4.012-6.66-6.623-.28-.418-.79-.626-1.27-.414-.42.182-.787.722-.591 1.197 1.861 4.524 3.727 9.064 6.093 13.356a49.5 49.5 0 0 0 8.758 11.564c1.596 1.567 3.267 3.127 4.521 4.994 1.385 2.067 1.91 4.357 2.187 6.798.298 2.627.644 5.23 1.235 7.812.586 2.563 1.34 5.08 2.203 7.561 1.984 5.689 4.53 11.162 7.071 16.62.48 1.035 2.249.3 1.862-.784-3.83-10.764-7.813-21.703-14.318-31.197-3.23-4.71-7.067-9.01-11.592-12.523-5.3-4.109-11.356-7.041-16.981-10.655-5.328-3.423-10.68-7.804-13.055-13.854-.476-1.21-2.207-.759-1.963.54 1.548 8.275 7.324 14.971 13.662 20.177 6.81 5.595 14.626 9.761 21.738 14.934 3.943 2.871 7.65 6.099 10.656 9.949.717.917 2.187-.264 1.6-1.231a60.8 60.8 0 0 0-8.284-10.687c-.554-.568-1.475-.26-1.703.447-1.8 5.575.912 11.207 3.894 15.828 1.674 2.594 3.499 5.096 5.267 7.629q2.734 3.917 5.47 7.833 3.122 4.472 6.244 8.938c.314.45.892.657 1.393.365.448-.26.68-.938.367-1.389q-5.406-7.742-10.81-15.483c-1.724-2.468-3.47-4.921-5.165-7.41-1.56-2.29-3.08-4.682-4.086-7.273-1.067-2.74-1.519-5.652-.603-8.502q-.851.226-1.702.446a58.5 58.5 0 0 1 7.967 10.274l1.6-1.231c-5.388-6.903-12.903-11.698-20.186-16.376-7.108-4.564-14.321-9.246-19.653-15.905-2.782-3.476-4.872-7.496-5.69-11.889-.656.178-1.308.361-1.964.54 4.733 12.059 18.028 16.814 27.983 23.555 4.803 3.252 8.978 7.325 12.432 11.974 3.421 4.605 6.187 9.665 8.566 14.874 2.655 5.807 4.826 11.816 6.965 17.826.619-.26 1.242-.52 1.861-.784-4.423-9.493-8.936-19.214-10.097-29.739-.285-2.587-.546-5.173-1.72-7.536-1.014-2.043-2.573-3.777-4.166-5.385-1.654-1.669-3.369-3.26-4.876-5.063-1.519-1.815-2.86-3.773-4.069-5.803-2.782-4.661-4.871-9.684-6.928-14.691q-.932.389-1.862.784c3.226 4.783 8.195 7.816 12.656 11.308 2.191 1.718 4.321 3.582 5.991 5.823a24.3 24.3 0 0 1 3.87 7.78c.884 3.074 1.157 6.343.7 9.514l1.862-.243c-2.196-5.121-6.273-9.108-10.301-12.836-2.065-1.912-4.159-3.792-6.122-5.811a79 79 0 0 1-5.576-6.395c-6.831-8.775-11.74-19.04-14.244-29.865a72.6 72.6 0 0 1-1.85-18.321h-2.036c.545 5.477 1.116 11.053 2.985 16.27.933 2.611 2.175 5.112 3.833 7.346 1.507 2.034 3.271 3.853 5.161 5.538 3.837 3.423 8.114 6.339 11.76 9.973 3.963 3.947 6.573 8.832 8.7 13.948 2.708 6.513 5.189 13.128 7.763 19.698.2.511.685.865 1.255.71.46-.117.884-.722.684-1.234M129.215 83.622c4.953-8.723 9.343-17.814 12.561-27.324 3.116-9.205 5.112-18.89 5.08-28.63-.021-5.482-.701-10.964-2.094-16.271-.297-1.133-1.955-.857-2 .268-.204 4.966-.411 9.968-1.446 14.845-.505 2.375-1.189 4.734-2.175 6.96-.957 2.16-2.147 4.206-3.409 6.2-2.481 3.914-5.267 7.666-7.238 11.877-2.082 4.45-3.051 9.283-3.108 14.18-.065 5.615.985 11.207 2.521 16.587.363 1.263 2.248.73 1.963-.54a263 263 0 0 0-6.574-24.091c-.277-.861-1.808-1.064-1.963 0l-4.045 27.709c-1.332 9.128-2.607 18.248-2.269 27.498a100.6 100.6 0 0 0 1.748 15.259c.155.808 1.519 1.044 1.861.244 4.383-10.273 6.579-21.423 6.289-32.594a77 77 0 0 0-.835-9.416c-.093-.634-.998-.942-1.495-.605-3.881 2.606-6.394 7.032-6.289 11.743.029 1.303 2.066 1.307 2.037 0-.09-3.976 1.988-7.776 5.283-9.99-.497-.202-.998-.405-1.495-.604 1.572 10.626.778 21.573-2.208 31.887a76 76 0 0 1-3.038 8.556l1.861.243c-1.698-8.831-2.13-17.858-1.364-26.815.387-4.52 1.03-9.007 1.686-13.494q.997-6.808 1.988-13.623l2.256-15.458h-1.963a263 263 0 0 1 6.574 24.091q.982-.27 1.963-.54c-2.635-9.218-3.902-19.543.094-28.582 1.866-4.22 4.607-7.971 7.096-11.833 2.631-4.089 4.786-8.34 5.938-13.083 1.32-5.433 1.569-11.052 1.797-16.611l-2 .268c2.407 9.172 2.541 18.788 1.01 28.119-1.581 9.607-4.766 18.914-8.778 27.77-2.285 5.043-4.839 9.956-7.572 14.772-.656 1.141 1.104 2.164 1.752 1.028M134.249 118.883c1.666-.231 3.039-1.332 4.086-2.582 1.144-1.369 2.118-2.895 3.116-4.373 2.187-3.221 4.285-6.505 6.089-9.957 3.442-6.586 5.808-13.895 5.324-21.399-.265-4.069-1.357-8.06-3.422-11.593-.407-.698-1.71-.65-1.861.244q-1.075 6.393-2.155 12.786c-.35 2.088-.713 4.17-1.055 6.262-.277 1.717-.521 3.468-.423 5.21.114 2.014.696 3.87 1.951 5.469l.721-1.734c-1.837.11-3.609.808-4.933 2.1-1.373 1.339-2.11 3.175-2.925 4.872q-1.348 2.81-2.696 5.62c-.884 1.843-1.833 3.675-2.656 5.547-.391.893-.643 1.908-.122 2.81.415.718 1.234 1.116 2.053 1.055 1.727-.126 2.851-1.559 3.894-2.757a39.9 39.9 0 0 1 7.58-6.74 42 42 0 0 1 10.407-5.165l-1.149-1.491c-4.729 7.512-11.168 13.916-18.63 18.732a66 66 0 0 1-6.652 3.752c-.493.243-.627.942-.366 1.388.293.504.896.605 1.393.366 8.256-4.045 15.69-9.847 21.506-16.961a63 63 0 0 0 4.509-6.253c.46-.731-.305-1.771-1.149-1.491-6.105 2.035-11.759 5.377-16.406 9.827-1.145 1.096-2.196 2.266-3.218 3.472-.399.471-.868.921-1.434 1.181-.216.098-.367.163-.57.118.15.033 0-.016 0-.041 0-.004-.025-.109-.029-.138-.028-.276.139-.609.245-.852.203-.451.427-.894.643-1.34q.628-1.316 1.263-2.627l2.48-5.165c.868-1.803 1.618-3.769 2.758-5.421a5.5 5.5 0 0 1 4.212-2.36c.945-.056 1.262-1.043.721-1.733-1.931-2.457-1.446-6.002-.978-8.86.66-4 1.348-8 2.02-12l1.161-6.89-1.861.244c3.446 5.904 3.869 13.038 2.407 19.604-1.584 7.126-5.271 13.574-9.271 19.608-1.103 1.669-2.219 3.342-3.397 4.958-.936 1.283-2.069 2.518-3.718 2.749-.546.077-.844.772-.713 1.251.159.576.704.775 1.25.698M87.933 105.394c-.123-6.546.28-13.087.562-19.625.28-6.492.448-13.014-.175-19.49-.607-6.298-2.025-12.425-4.489-18.264-2.273-5.385-5.14-10.485-7.743-15.715-2.534-5.092-4.823-10.374-5.788-16.01a34 34 0 0 1-.281-2.027c-.053-.503-.346-.934-.884-.998-.464-.057-1.023.223-1.116.726a108 108 0 0 0-1.829 19.073c-.049 6.42.46 12.827 1.397 19.178.937 6.35 2.322 12.628 4.057 18.808 1.751 6.241 3.861 12.385 6.244 18.415a242 242 0 0 0 7.984 17.98q.533 1.077 1.07 2.156c.437.865 1.565.491 1.862-.244.546-1.352 1.088-2.704 1.634-4.06.203-.508-.224-1.117-.713-1.251-.583-.158-1.047.199-1.255.711-.546 1.352-1.087 2.704-1.633 4.06l1.861-.243c-2.875-5.73-5.563-11.557-7.983-17.493-2.424-5.953-4.59-12.015-6.415-18.18-1.809-6.102-3.287-12.307-4.338-18.588-1.035-6.185-1.634-12.442-1.727-18.711-.094-6.266.322-12.543 1.336-18.728.13-.783.264-1.563.411-2.343l-2-.268c.615 5.79 2.636 11.244 5.1 16.486 2.485 5.283 5.393 10.354 7.833 15.658 2.57 5.591 4.325 11.442 5.107 17.55.823 6.41.774 12.896.538 19.344-.24 6.545-.688 13.083-.684 19.636q0 1.227.024 2.453c.02 1.308 2.057 1.312 2.033.004"/><path fill="#000" d="M75.13 56.23c1.247 10.333 3.996 20.37 6.713 30.396.762 2.818 1.577 5.624 2.51 8.39.415 1.23 2.382.702 1.963-.54-1.638-4.849-2.896-9.811-4.187-14.76-1.3-4.979-2.656-9.941-3.63-14.992-.541-2.814-.99-5.649-1.332-8.495-.065-.544-.42-1.015-1.018-1.015-.497 0-1.084.467-1.018 1.015M133.243 161.624a51.5 51.5 0 0 0 16.553-7.808c4.937-3.525 9.25-7.877 12.635-12.908 3.747-5.572 6.045-11.873 7.356-18.431.738-3.699 1.21-7.443 1.613-11.191.428-3.943.807-7.89 1.165-11.837.725-7.983 1.348-15.97 1.955-23.96l.233-3.022c.077-1.035-1.414-1.34-1.899-.511-3.45 5.903-6.891 11.836-9.498 18.17-1.287 3.119-2.346 6.335-3.067 9.632-.738 3.382-1.149 6.822-1.609 10.249-.452 3.358-.957 6.724-1.87 9.993-.794 2.846-1.943 5.547-3.377 8.129-2.757 4.986-6.321 9.465-9.649 14.07-3.307 4.576-6.452 9.367-8.224 14.768a29 29 0 0 0-.57 1.961c-.326 1.267 1.637 1.807 1.963.54 1.381-5.376 4.293-10.155 7.462-14.662 3.275-4.662 6.884-9.1 9.821-13.993 1.454-2.42 2.725-4.95 3.686-7.605 1.165-3.22 1.829-6.591 2.338-9.969.513-3.391.872-6.805 1.458-10.188a57.3 57.3 0 0 1 2.566-9.725c2.314-6.375 5.658-12.32 9.059-18.17q.63-1.087 1.267-2.173l-1.898-.512c-.599 7.857-1.198 15.715-1.882 23.563a869 869 0 0 1-1.104 11.768c-.37 3.671-.749 7.341-1.336 10.984-1.075 6.667-2.912 13.192-6.399 19.027-2.99 5.007-6.957 9.392-11.539 12.998a49.3 49.3 0 0 1-15.592 8.235c-.713.227-1.434.434-2.155.625-1.267.333-.733 2.295.538 1.953"/><path fill="#000" d="M117.292 190.714a401.748 401.748 0 0 0 39.009-21.813c5.475-3.476 10.978-7.009 15.829-11.329 4.464-3.975 8.407-8.771 10.297-14.512 2.326-7.07.876-14.557-.986-21.55-.24-.905-.493-1.811-.741-2.716-.216-.784-1.479-1.06-1.862-.244-2.586 5.543-4.081 11.548-7.299 16.799-3.042 4.962-7.144 9.168-11.319 13.188-9.226 8.881-18.729 17.489-28.37 25.919a873 873 0 0 1-16.623 14.179c-.423.353-.362 1.072 0 1.438.42.418 1.019.353 1.442 0a898 898 0 0 0 29.531-25.695 869 869 0 0 0 14.171-13.173c4.252-4.044 8.46-8.214 11.783-13.075 1.903-2.777 3.365-5.774 4.611-8.896 1.283-3.22 2.363-6.518 3.829-9.66l-1.861-.244c1.91 6.899 3.971 14.285 2.228 21.44-1.369 5.607-4.913 10.321-9.047 14.236-4.533 4.292-9.78 7.739-15.022 11.101a400 400 0 0 1-18.733 11.309 400 400 0 0 1-21.897 11.54c-.493.24-.627.942-.367 1.389.298.507.901.613 1.397.369M57.612 158.441c4.83-4.836 4.472-12.226 1.678-18.013-3.206-6.643-9.698-10.886-15.73-14.735-3.157-2.014-6.343-3.992-9.291-6.302a69.4 69.4 0 0 1-8.02-7.386c-4.889-5.251-8.962-11.207-12.38-17.501-3.437-6.327-6.21-12.99-8.524-19.8q-.428-1.253-.831-2.513-.982.27-1.963.54c2.696 7.443 5.43 14.878 8.28 22.264 2.37 6.144 4.904 12.251 8.094 18.025 3.144 5.689 6.977 11.069 11.76 15.511 2.496 2.323 5.253 4.304 8.117 6.152 2.884 1.864 5.853 3.634 8.493 5.843 2.578 2.152 4.704 4.706 6.15 7.743a20.8 20.8 0 0 1 1.996 9.36 18 18 0 0 1-.187 2.298c-.066.455.044.902.468 1.145.387.228.916.163 1.234-.158.746-.755 1.491-1.515 2.24-2.27.921-.934-.517-2.367-1.441-1.437-.746.755-1.491 1.514-2.24 2.269.565.329 1.136.658 1.702.987.998-6.801-1.181-13.777-5.829-18.857-4.7-5.137-11.266-7.946-16.643-12.251-5.112-4.089-9.23-9.225-12.586-14.804-3.38-5.616-6.028-11.634-8.436-17.716-2.855-7.22-5.527-14.521-8.183-21.818-.342-.942-.688-1.888-1.026-2.83-.188-.516-.693-.86-1.255-.71-.513.141-.88.722-.713 1.25 2.2 6.822 4.823 13.522 8.057 19.925s7.108 12.503 11.735 17.996c4.705 5.584 10.195 10.318 16.31 14.306 3.131 2.046 6.35 3.975 9.384 6.164 2.835 2.046 5.65 4.381 7.682 7.252 3.36 4.742 5.23 11.706 1.845 16.932-.4.617-.872 1.178-1.393 1.698-.92.933.517 2.371 1.446 1.441M49.263 102.056a178 178 0 0 0-4.92-27.518c-1.084-4.134-2.14-8.474-4.404-12.153-1.886-3.066-4.647-5.393-7.385-7.67-2.92-2.433-5.975-4.938-7.608-8.455-.212-.454-.848-.6-1.271-.414-.48.211-.697.69-.59 1.198 1.535 7.183 6.54 12.868 10.5 18.833 1.96 2.956 3.76 6.079 4.684 9.526 1.165 4.349.721 8.933 1.74 13.31 1.128 4.857 4.08 9.003 6.94 12.99.46.638 1.303.662 1.76 0l1.071-1.555c.31-.45.085-1.125-.367-1.389-.505-.292-1.079-.09-1.393.366l-1.07 1.555h1.759c-2.477-3.452-5.071-7-6.355-11.098-1.372-4.39-.916-9.067-1.845-13.537-1.499-7.204-6.537-12.921-10.504-18.89-2.18-3.281-4.13-6.757-4.957-10.643q-.932.389-1.862.784c2.945 6.359 9.87 9.303 14.008 14.687 2.541 3.313 3.645 7.439 4.725 11.394 1.21 4.43 2.244 8.904 3.104 13.412a172 172 0 0 1 2.203 15.275c.053.545.428 1.016 1.018 1.016.51-.009 1.072-.476 1.019-1.024M120.168 199.684c2.957-3.179 7.287-4.32 11.462-4.869 4.66-.613 9.377-.621 14.02-1.384a59 59 0 0 0 26.15-11.325c4.224-3.241 7.963-7.033 11.083-11.349l-1.861-.244c.664 4.19-2.538 7.91-5.446 10.492-3.255 2.892-7.018 5.287-10.859 7.322-7.764 4.113-16.395 6.663-25.144 7.487-4.982.471-10.037.41-14.998-.256-.546-.073-1.091.13-1.254.711-.131.471.163 1.173.713 1.251a69.8 69.8 0 0 0 27.852-1.929c8.859-2.457 17.462-6.659 24.5-12.6 3.817-3.22 7.434-7.719 6.599-13.014-.061-.386-.489-.686-.847-.727-.432-.053-.766.142-1.015.483-5.47 7.569-13.087 13.485-21.567 17.355a57.4 57.4 0 0 1-13.421 4.207c-4.57.836-9.218.869-13.821 1.409-4.928.576-10.085 1.778-13.588 5.547-.888.954.546 2.391 1.442 1.433M81.583 193.735c-1.784-3.528-5.226-5.701-8.671-7.398-3.613-1.779-7.512-3.175-10.733-5.648-2.041-1.568-3.833-3.415-6.065-4.727-2.098-1.234-4.412-2.103-6.75-2.769-4.59-1.308-9.368-1.844-13.93-3.248-4.399-1.353-8.97-3.566-11.25-7.768l-1.6 1.23a100 100 0 0 0 11.119 8.698 98 98 0 0 0 5.922 3.687c2 1.149 4.061 2.188 6.045 3.37 1.963 1.169 3.727 2.522 5.316 4.166 1.584 1.636 3.05 3.391 4.81 4.848 3.181 2.644 6.961 4.426 10.92 5.588 4.546 1.332 9.307 1.88 14.028 2.083 1.312.057 1.308-1.974 0-2.031-7.906-.341-16.472-1.652-22.911-6.598-1.683-1.291-3.096-2.863-4.534-4.406-1.588-1.709-3.27-3.256-5.226-4.543-1.894-1.247-3.914-2.278-5.898-3.371a96.233 96.233 0 0 1-18.154-12.92c-.851-.772-2.159.195-1.6 1.23 2.117 3.902 6.02 6.306 10.06 7.869 4.407 1.706 9.104 2.335 13.686 3.399 2.326.54 4.664 1.178 6.847 2.172a21.4 21.4 0 0 1 3.059 1.694c1.08.727 2.053 1.591 3.038 2.436 1.711 1.474 3.491 2.769 5.483 3.833 1.78.95 3.63 1.767 5.458 2.611 3.751 1.738 7.829 3.695 9.772 7.541.59 1.165 2.35.138 1.76-1.028M45.14 161.767c1.002-.37 1.74-1.162 1.984-2.213.26-1.129-.066-2.254-.689-3.208-.631-.971-1.466-1.827-2.26-2.668a55 55 0 0 0-2.436-2.412 56 56 0 0 0-10.977-7.946 59 59 0 0 0-6.228-2.973c-2.273-.93-4.623-1.661-6.916-2.529-2.119-.804-4.171-1.775-6.004-3.119a19 19 0 0 1-4.11-4.146c-2.59-3.573-3.972-7.922-3.63-12.336.037-.495-.415-.942-.883-.999-.538-.065-.92.244-1.116.727-1.65 4.069-.803 8.686 1.18 12.474 2.062 3.939 5.373 7.086 8.677 9.989 3.397 2.989 6.839 5.965 10.553 8.564 1.83 1.279 3.727 2.461 5.72 3.472 1.885.962 3.852 1.746 5.824 2.509 3.98 1.543 8.203 3.07 11.18 6.257.897.959 2.335-.479 1.443-1.437-2.685-2.875-6.318-4.507-9.914-5.937-1.78-.706-3.58-1.36-5.332-2.123a43 43 0 0 1-5.792-3.094c-3.695-2.343-7.051-5.153-10.355-8.008-3.246-2.806-6.618-5.648-9.042-9.225-2.546-3.756-3.951-8.54-2.18-12.909l-2-.268c-.626 8.105 4.168 16.064 11.304 19.828 4.147 2.184 8.786 3.24 13.034 5.214 3.964 1.839 7.731 4.137 11.14 6.866a53 53 0 0 1 5.422 4.986c.802.849 1.816 1.758 2.28 2.855.241.568.298 1.575-.415 1.839-.517.191-.867.686-.712 1.251.134.503.733.909 1.25.719"/><path fill="#000" d="M132.783 179.84a45.8 45.8 0 0 1 11.564-9.234c3.877-2.18 8.11-3.723 11.812-6.208 2.033-1.369 3.853-3.005 5.21-5.056.721-1.096-1.039-2.111-1.76-1.023-2.338 3.541-6.277 5.571-9.987 7.382-1.98.967-3.984 1.88-5.915 2.944a48.5 48.5 0 0 0-6.236 4.101 47 47 0 0 0-6.13 5.669c-.872.958.562 2.4 1.442 1.425M116.189 186.126c7.641-5.34 10.269-14.805 10.301-23.689.012-2.822-.11-5.819 1.21-8.402.595-1.161-1.165-2.192-1.76-1.023-1.201 2.355-1.446 4.966-1.478 7.573-.029 2.31-.017 4.605-.298 6.899-.509 4.154-1.788 8.3-4.101 11.812-1.3 1.973-2.962 3.724-4.904 5.08-.449.312-.66.889-.367 1.388.265.439.945.679 1.397.362M106.222 185.444c-.204-4.621-1.821-8.966-3.523-13.222-1.687-4.214-3.503-8.514-3.915-13.083-.228-2.517.004-5.014.9-7.386.196-.511-.215-1.112-.712-1.25-.57-.159-1.06.195-1.255.71-3.466 9.165 2.167 18.248 4.953 26.747.799 2.428 1.397 4.921 1.511 7.484.061 1.303 2.098 1.311 2.041 0M109.713 196.569c3.446-.186 6.142-2.257 8.867-4.145 1.414-.979 2.868-1.901 4.505-2.457 1.837-.625 3.772-.905 5.698-1.088 3.601-.337 7.194-.577 10.758-1.218 3.385-.609 6.712-1.515 9.873-2.879 3.426-1.478 6.603-3.582 9.079-6.387.363-.411.408-1.032 0-1.438-.37-.369-1.075-.414-1.442 0-4.35 4.934-10.72 7.301-17.034 8.552-3.38.67-6.794.97-10.227 1.25-1.968.163-3.947.362-5.866.841a17.2 17.2 0 0 0-4.973 2.136c-2.876 1.802-5.658 4.604-9.238 4.799-1.304.077-1.312 2.108 0 2.034M106.421 196.675a51 51 0 0 0-10.325-7.622c-3.662-2.046-7.576-3.443-11.474-4.957-3.524-1.369-7.104-2.989-9.69-5.827-2.79-3.062-4.184-7.094-6.823-10.269-2.684-3.229-7.303-5.795-11.547-4.232-.518.191-.868.687-.713 1.251.134.496.733.902 1.254.711 3.475-1.279 7.063.856 9.32 3.419 1.283 1.461 2.24 3.199 3.205 4.876 1.019 1.767 2.057 3.529 3.365 5.104 2.521 3.038 6.065 4.877 9.657 6.355 3.658 1.507 7.422 2.713 10.945 4.532a49 49 0 0 1 11.393 8.101c.941.901 2.382-.536 1.433-1.442"/><path fill="#000" d="M105.831 197.26c-4.224-3.273-9.76-3.224-14.733-4.483-5.05-1.279-9.967-3.651-13.307-7.752-1.642-2.014-2.864-4.499-3.206-7.085-.073-.544-.415-1.015-1.018-1.015-.493 0-1.092.467-1.018 1.015.7 5.266 4.024 9.68 8.358 12.628 2.326 1.584 4.94 2.741 7.617 3.585 2.574.813 5.217 1.243 7.87 1.71 2.757.487 5.73 1.072 7.999 2.83.436.337 1.018.422 1.442 0 .346-.349.432-1.096-.004-1.433M99.742 152.659a102 102 0 0 0 3.759-18.492c.681-6.233.786-12.531.31-18.784-.485-6.33-1.572-12.592-3.194-18.727-.81-3.07-1.706-6.164-1.987-9.34-.139-1.547-.147-3.13.093-4.67.245-1.558.677-3.081 1.202-4.563 1.075-3.05 2.444-6.002 3.707-8.974 1.311-3.082 2.623-6.168 3.938-9.25q.493-1.158.986-2.31c.216-.504.151-1.089-.366-1.389-.428-.248-1.178-.142-1.393.365-2.628 6.177-5.332 12.328-7.878 18.537-1.21 2.956-2.224 6.005-2.387 9.217-.167 3.257.48 6.505 1.27 9.648.775 3.086 1.638 6.144 2.274 9.262a98 98 0 0 1 1.442 9.303c.66 6.269.733 12.596.224 18.877a99.4 99.4 0 0 1-3.951 20.762c-.391 1.242 1.572 1.778 1.95.528M131.789 64.858c.66-3.342 1.328-6.712 2.546-9.908 1.21-3.175 3.087-6.034 4.941-8.864.717-1.097-1.043-2.116-1.76-1.023-1.918 2.935-3.804 5.891-5.079 9.172-1.259 3.249-1.939 6.68-2.615 10.083-.106.536.155 1.096.713 1.25.505.138 1.148-.166 1.254-.71"/></svg>