<svg xmlns="http://www.w3.org/2000/svg" width="200" height="200" fill="none"><path fill="#000" d="M27.764 77.66c7.636.36 15.302.15 22.91-.75 7.22-.871 14.173-2.852 21.037-5.193 6.924-2.341 13.788-4.832 20.89-6.513 3.565-.84 7.22-1.47 10.875-1.62 1.812-.06 3.714-.09 5.527.21 1.307.24 2.882.57 3.773 1.62 1.872 2.221.743 4.922-1.01 6.693-1.812 1.83-4.071 3.151-5.913 4.952a.76.76 0 0 0 0 1.05c1.456 1.591 3.328 2.582 5.408 3.062 2.229.51 4.487.42 6.745.57 5.587.36 11.143.81 16.7 1.32 5.675.511 11.321 1.021 16.996 1.352 5.646.36 11.322.72 16.967 1.17 2.793.21 5.616.6 8.409.66 2.675.06 5.349-.24 7.964-.81 2.526-.57 4.724-1.44 6.864-2.971 1.01-.72 1.991-1.531 2.912-2.341.743-.63 1.783-2.011 2.763-1.05.832.84.862 2.13.922 3.24.089 1.261.089 2.522.029 3.782-.119 2.491-.505 4.953-1.099 7.384-1.189 4.892-3.12 9.544-5.23 14.076-1.04 2.251-2.139 4.472-3.209 6.723-.981 2.071-1.902 4.112-3.893 5.403-1.545.99-3.536 1.59-5.17.48-1.278-.901-1.991-2.461-2.615-3.872-.743-1.681-1.426-3.362-2.555-4.802-1.219-1.531-2.823-2.701-4.576-3.512-1.813-.84-3.804-1.47-5.765-1.711-2.734-.36-5.467-.12-8.201.151-2.288.21-4.784.27-6.716 1.74-.742.571-1.248 1.321-1.129 2.311.089.901.654 1.621 1.011 2.431.148.361.356.781.059 1.081-.357.39-.951.21-1.367.09-1.159-.3-2.228-.84-3.239-1.471-.921-.57-1.783-1.2-2.733-1.771-1.011-.6-2.11-1.02-3.21-1.44-9.597-3.722-20.057-4.382-30.249-4.502-1.278-.03-2.555-.03-3.833-.03-1.248 0-2.526-.12-3.744.21-2.704.72-5.408 1.351-8.082 2.011-5.32 1.32-10.49 3.031-15.897 3.872-10.817 1.65-21.87.81-32.627-1.021-2.615-.45-5.2-.96-7.815-1.501-.772-.15-1.396.991-.564 1.381 1.07.48 2.169 1.051 3.298 1.381.654.18 1.605-.09 1.248-.961-.178-.48-.802-.69-1.248-.9q-1.338-.585-2.764-.901c-.772-.18-1.366.991-.564 1.381 5.824 2.731 11.202 6.453 15.778 11.045 2.348 2.371 4.368 4.982 6.448 7.593 1.872 2.342 3.982 4.533 6.627 6.033 3.238 1.831 6.893 2.761 10.519 3.512.772.15 1.396-1.021.564-1.381-8.32-3.692-12.658-14.436-9.003-22.93.386-.871-.892-1.651-1.278-.751-3.952 9.155.416 20.92 9.538 24.972.178-.45.386-.901.565-1.381-3.24-.66-6.508-1.471-9.48-3.001-2.733-1.411-4.902-3.572-6.804-5.943-2.05-2.551-4.011-5.132-6.3-7.473-2.198-2.251-4.635-4.322-7.19-6.183a54.8 54.8 0 0 0-9.211-5.433c-.179.451-.387.901-.565 1.381.773.18 1.545.39 2.258.69.238.09.446.21.684.301.475.24-.03.12.03-.361.059-.18.148-.36.207-.54.446-.39.713-.09.327-.24-.178-.09-.416-.15-.594-.21-.802-.3-1.575-.66-2.347-1.021-.179.451-.387.901-.565 1.381 10.727 2.251 21.721 3.842 32.686 3.362 5.497-.241 10.994-1.021 16.313-2.462 2.704-.72 5.378-1.56 8.112-2.251 2.704-.66 5.408-1.38 8.082-2.01 1.308-.301 2.764-.151 4.101-.151s2.674 0 3.982.03q3.921.046 7.844.271c5.289.33 10.579 1.02 15.689 2.401 2.526.69 5.141 1.47 7.459 2.641 1.961.99 3.625 2.491 5.645 3.331 1.486.631 4.16 1.321 4.784-.87.238-.87-.208-1.771-.624-2.521-.208-.39-.445-.78-.534-1.201-.119-.69.416-1.08.95-1.41 1.011-.601 2.288-.871 3.447-.961 1.397-.12 2.794-.27 4.19-.39 2.615-.21 5.23-.21 7.785.45 1.991.511 3.952 1.291 5.587 2.551s2.674 2.912 3.506 4.773c1.248 2.821 2.615 6.422 6.121 6.783 2.021.21 4.041-.841 5.527-2.131 1.723-1.501 2.585-3.572 3.566-5.613 4.308-8.974 9.003-18.218 9.479-28.393.059-1.32.059-2.61-.03-3.931-.089-1.141-.149-2.252-.713-3.272-.416-.75-1.07-1.44-1.932-1.62-1.069-.24-1.931.36-2.674 1.02-1.902 1.68-3.863 3.361-6.151 4.502-2.437 1.2-5.467 1.62-8.142 1.86-2.912.24-5.764-.06-8.647-.3-2.852-.24-5.734-.45-8.587-.66-5.794-.42-11.559-.69-17.353-1.11-5.705-.39-11.381-1.05-17.056-1.531-2.853-.24-5.676-.45-8.528-.66-1.397-.09-2.794-.24-4.22-.24-1.099 0-2.228-.06-3.328-.21-2.199-.33-4.219-1.201-5.735-2.852v1.05c2.942-2.91 8.885-5.492 8.32-10.504-.148-1.23-.653-2.551-1.515-3.422-1.01-.99-2.407-1.47-3.774-1.77-3.625-.75-7.547-.42-11.202.06-15.125 2.1-28.853 9.514-43.829 12.275-8.885 1.62-18.126 1.801-27.13 1.38-.95-.06-.92 1.442.03 1.501"/><path fill="#000" d="M29.25 76.279c-2.497-.12-4.963-.06-7.37.6-2.585.69-5.11 1.801-7.458 3.061-4.368 2.312-8.38 5.403-11.678 9.125-.802.9-1.693 1.86-2.317 2.911-.357.6-.535 1.29-.357 1.98.149.601.535 1.141.862 1.652 1.248 1.92 2.852 3.601 4.635 5.042 3.893 3.091 8.528 4.982 13.282 6.213 5.349 1.38 10.876 2.101 16.314 2.971.713.12 1.426.24 2.11.36.386.06.802-.09.92-.51.09-.36-.118-.87-.505-.93-5.289-.871-10.637-1.591-15.867-2.732-4.725-1.02-9.39-2.491-13.431-5.162-1.813-1.2-3.477-2.611-4.873-4.292-.684-.81-1.367-1.71-1.842-2.671-.268-.51-.15-.9.148-1.35.327-.481.684-.901 1.04-1.351a40.5 40.5 0 0 1 10.697-9.094c2.229-1.291 4.547-2.402 6.954-3.242 1.158-.42 2.317-.75 3.535-.93 1.1-.18 2.229-.21 3.329-.21.624 0 1.247.03 1.872.06.95.06.95-1.441 0-1.501"/><path fill="#000" d="M32.964 77.96a15.6 15.6 0 0 1 3.387 5.432c.684 1.951 1.01 4.022 1.04 6.123.03 2.13-.237 4.232-.683 6.333a54 54 0 0 1-.802 3.151c-.298.99-.595 2.041-1.04 2.971-1.1 2.282-3.299 3.782-5.35 5.133-.801.51-.058 1.831.744 1.29 2.02-1.32 4.07-2.761 5.408-4.832.624-.99.98-2.101 1.337-3.181.356-1.08.654-2.191.921-3.272 1.04-4.382 1.397-9.124.03-13.476a17.14 17.14 0 0 0-3.952-6.693c-.684-.75-1.724.33-1.04 1.02"/><path fill="#000" fill-rule="evenodd" d="M17.363 89.425c-1.1 0-1.99.9-1.99 2.01a2 2 0 0 0 1.99 2.012 2 2 0 0 0 1.99-2.011c0-1.11-.89-2.011-1.99-2.011m-3.18 2.01c0-1.773 1.424-3.21 3.18-3.21s3.18 1.437 3.18 3.21c0 1.774-1.424 3.212-3.18 3.212s-3.18-1.438-3.18-3.211" clip-rule="evenodd"/></svg>