<svg xmlns="http://www.w3.org/2000/svg" width="200" height="200" fill="none"><path fill="#000" d="M86.583 198.923c5.435-18.253 13.624-35.534 19.497-53.64 2.903-8.961 5.189-18.13 6.255-27.495.536-4.724.973-9.565.172-14.278-.807-4.755-2.452-9.407-4.948-13.558-2.459-4.084-6.23-7.527-9.73-10.731-3.451-3.163-7.056-6.154-10.494-9.328-1.787-1.654-3.636-3.333-5.232-5.177-.666-.769-1.11-1.697-1.67-2.54-.604-.897-1.442-1.617-1.874-2.618-.45-1.05-.745-2.16-1.35-3.15-.69-1.13-1.885-1.782-2.433-3.003-.9-2.009-1.812-4.017-2.644-6.05-3.315-8.119-5.73-17.38-1.01-25.474 3.987-6.83 10.673-12.422 17.84-15.743 7.221-3.345 15.541-4.188 23.102-1.465 4.695 1.69 9.311 3.473 14.198 4.603 2.415.561 4.868.976 7.339 1.233a48 48 0 0 0 3.636.244c1.133.03 1.953.146 2.896.818 1.362.977 2.305 2.46 3.469 3.638-.148-.36-.302-.72-.45-1.08-.332 5.866-1.818 11.562-3.598 17.141-.888 2.796-1.849 5.567-2.773 8.345-.937 2.826-1.683 5.732-2.736 8.51-3.704 9.791-9.145 19.222-17.113 26.236-3.457 3.04-7.592 5.55-12.232 6.245-5.361.806-10.39-1.6-15.505-2.796-2.927-.683-5.934-1.166-8.947-1.227-2.718-.055-5.355.379-8.017.837-4.794.824-9.743 1.819-14.623 1.196-2.317-.293-4.566-1.038-6.545-2.283-2.144-1.355-3.857-3.376-5.422-5.341-3.118-3.907-5.7-8.26-9.33-11.751a28.4 28.4 0 0 0-2.995-2.491c.234.305.475.61.709.91-1.824-4.457-1.14-9.627 2.255-13.18a12.2 12.2 0 0 1 2.927-2.252c1.06-.587 2.459-.776 3.402-1.496.382-.293.715-.672 1.004-.775.888-.324 1.855-.5 2.773-.72 1.837-.446 3.691-.83 5.546-1.197 3.642-.72 7.303-1.361 10.907-2.24a68 68 0 0 0 5.362-1.52c1.534-.507 2.927-1.002 4.227-1.985 1.695-1.275 3.802-4.242 6.249-3.296 1.232.476 1.7 1.508 2.169 2.643a42 42 0 0 0 2.163 4.524c1.596 2.863 3.518 5.524 5.576 8.076a103 103 0 0 0 3.193 3.76c1.053 1.19 1.811 2.338 2.47 3.791 1.338 2.943 2.669 5.793 3.014 9.04.376 3.535.012 7.076-.364 10.592a122 122 0 0 0-.634 9.224c-.031.983.123 2.063.887 2.771 1.097 1.02 2.607.635 3.925.385 6.169-1.148 11.345-4.853 16.293-8.46 1.264-.923 2.533-1.85 3.815-2.742 1.238-.86 2.594-1.605 3.617-2.728.968-1.069 1.676-2.308 2.311-3.59.672-1.349 1.46-2.661 2.058-4.041 1.399-3.23 1.454-6.69 1.035-10.127-.203-1.685-.369-3.419-.721-5.08-.252-1.177-.53-2.35-.684-3.546-.585-4.474-.308-9.791 3.254-13.07 1.978-1.819 4.813-2.667 7.395-3.247a25 25 0 0 1 8.572-.41c5.706.721 11.03 3.548 14.53 8.101 3.439 4.475 5.103 10.335 4.104 15.927-.899 5.042-4.239 9.737-7.844 13.259-3.765 3.675-8.264 6.513-12.904 8.974-2.305 1.22-4.665 2.35-7.037 3.43-2.891 1.319-5.811 2.106-8.979 2.479-3.617.433-7.308.805-10.95.805-3.784 0-7.567.007-11.351.043a502 502 0 0 0-11.745.232c-3.611.116-7.321.037-10.84.934-3.21.818-6.556 2.222-8.984 4.511-2.052 1.93-3.334 4.5-4.166 7.142-.795 2.522-1.17 5.14-1.676 7.723-.179.903.413 2.008 1.485 1.929 1.306-.092 2.644-.501 3.34-1.691.517-.885.524-2.045-.019-2.918-.616-.995-1.88-1.392-2.933-.824-1.239.659-1.651 2.246-1.873 3.51-.154.86.4 2.057 1.485 1.929 3.192-.36 6.409-.47 9.62-.513 2.803-.037 6.014.482 8.552-.977 2.07-1.19 3.285-3.29 4.142-5.427.443-1.105.782-2.246 1.09-3.394.327-1.208.5-2.52.968-3.68 1.053-2.62 3.752-4.53 6.396-5.33 1.892-.574 1.085-3.522-.82-2.942-2.57.781-4.99 2.277-6.698 4.34-.869 1.05-1.571 2.21-1.984 3.516-.37 1.154-.58 2.375-.9 3.54-.548 2.01-1.177 4.292-2.65 5.855-1.799 1.91-4.424 1.41-6.827 1.428-3.63.03-7.272.123-10.883.532l1.485 1.929c.074-.434.154-.88.302-1.295.043-.116.068-.177.105-.256.11-.275.055-.098.037-.116.025-.03.055-.055.08-.085a.5.5 0 0 1-.253.146c-.234.037-.363.08-.61.025-.24-.056-.154-.056-.252-.129-.037-.024-.364-.323-.185-.17-.062-.056-.08-.318-.05-.11.019.152-.11-.11 0-.019.044.037.031.128.019-.097.012.237.068-.098.012-.007-.08.122.204-.152-.018.025.228-.177-.019.012-.08.043a3 3 0 0 1-.58.116l1.486 1.929c.566-2.906.98-5.855 1.99-8.65 1.128-3.108 3.1-5.33 6.045-6.874 1.565-.824 3.248-1.392 4.967-1.807 1.916-.464 3.82-.513 5.786-.598 4.172-.177 8.35-.281 12.528-.342 4.24-.061 8.479-.073 12.725-.08 2.126 0 4.209-.03 6.329-.22 1.947-.17 3.901-.31 5.848-.524 3.636-.403 7.037-1.13 10.365-2.637 2.613-1.185 5.207-2.412 7.746-3.755 5.133-2.716 10.118-5.94 14.185-10.103 4.08-4.181 7.598-9.718 8.196-15.609.659-6.495-1.38-12.758-5.546-17.776s-10.389-7.88-16.854-8.51c-3.229-.31-6.544-.018-9.681.794-2.945.763-5.952 1.91-8.146 4.078-4.098 4.041-4.548 10.213-3.808 15.585.184 1.33.499 2.619.764 3.93.357 1.771.554 3.651.708 5.452.154 1.789.191 3.626-.215 5.384-.407 1.77-1.301 3.23-2.096 4.841-.659 1.331-1.263 2.772-2.249 3.907-1.06 1.215-2.576 1.99-3.882 2.918-2.822 1.996-5.558 4.12-8.467 5.994-2.754 1.765-5.669 3.285-8.874 4.072q-.61.149-1.232.269c-.216.043-1.072.043-1.208.213.037-.042.185.226.345.287.13.05-.141.275-.018-.036.012-.03-.043-.257-.019-.073-.061-.446.013-.916.037-1.368.043-.824.031-1.654.068-2.478.185-3.92.844-7.796 1.011-11.715.08-1.929.018-3.858-.235-5.768a21 21 0 0 0-1.49-5.464 144 144 0 0 0-1.948-4.462c-.727-1.594-1.676-2.839-2.835-4.151-2.397-2.71-4.701-5.507-6.673-8.547a44 44 0 0 1-2.6-4.566c-.765-1.556-1.196-3.345-2.306-4.7-1.99-2.424-5.484-2.967-8.078-1.19-1.257.854-2.305 1.947-3.5 2.88-1.387 1.087-3.032 1.52-4.702 2.028-3.876 1.184-7.857 1.977-11.832 2.74-3.913.751-8.03 1.343-11.813 2.6-.733.245-1.072.843-1.688 1.222-.272.17-1.19.39-1.658.592a15.4 15.4 0 0 0-3.691 2.228c-4.456 3.596-6.36 9.62-5.072 15.12.148.636.34 1.252.573 1.863.37.952.999 1.349 1.756 1.977 1.24 1.026 2.373 2.174 3.433 3.382 2.12 2.436 3.907 5.122 5.842 7.704 1.96 2.613 4.042 5.256 6.698 7.197 2.625 1.917 5.756 2.912 8.972 3.297 6.378.757 12.744-.983 19.011-1.88 3.765-.538 7.734.048 11.406.885 3.544.806 6.982 2.21 10.562 2.826 6.28 1.08 12.393-.879 17.47-4.548 5.349-3.864 9.681-9.071 13.299-14.534 3.999-6.05 6.877-12.728 8.99-19.626 2.2-7.167 4.998-14.169 6.6-21.5.419-1.91.746-3.846.986-5.787q.166-1.327.259-2.656c.037-.506.105-1.025-.166-1.483-.21-.354-.573-.647-.845-.952-2.076-2.302-3.999-4.646-7.382-4.695-7.826-.122-15.381-2.387-22.64-5.11-3.075-1.153-6.052-2.105-9.336-2.46-3.112-.335-6.26-.152-9.336.416-6.131 1.123-11.93 3.931-16.866 7.667-5.102 3.87-10.02 8.95-12.516 14.901-2.711 6.459-1.885 13.564.222 20.065 1.085 3.334 2.471 6.557 3.895 9.755.32.715.64 1.435.961 2.15.438.976 1.146 1.562 1.88 2.325 1.25 1.3 1.337 3.199 2.366 4.645.48.672 1.072 1.227 1.516 1.923.45.702.85 1.441 1.35 2.112 1.14 1.52 2.6 2.851 3.968 4.17 2.656 2.57 5.454 4.993 8.239 7.429 5.453 4.774 11.48 9.712 14.752 16.287 1.646 3.308 2.706 6.885 3.309 10.518.598 3.595.259 7.331-.067 10.945-.647 7.197-2.12 14.309-4.049 21.274-3.907 14.12-9.656 27.635-14.876 41.303-2.526 6.629-4.936 13.307-6.963 20.108-.616 1.843 2.354 2.649 2.915.763"/></svg>