<svg xmlns="http://www.w3.org/2000/svg" width="200" height="200" fill="none"><g fill="#000" clip-path="url(#a)"><path d="M6.266 47.273a48 48 0 0 1 2.756 9.311c.577 3.075.793 6.252 1.869 9.217 1.99 5.48 6.677 9.374 11.789 11.872 3.242 1.585 6.678 2.718 10.1 3.84 1.206.392 1.72-1.498.523-1.89-5.516-1.805-11.279-3.668-15.703-7.59-1.932-1.71-3.592-3.777-4.59-6.17-1.173-2.82-1.428-5.922-1.93-8.902a48.3 48.3 0 0 0-2.918-10.205c-.2-.49-.651-.836-1.209-.687-.467.126-.887.71-.687 1.204"/><path d="M35.867 80.175a12.54 12.54 0 0 0-5.343.275c-1.661.45-3.24 1.2-4.75 2.008-.75.4-1.489.824-2.227 1.24-.726.411-1.436.886-2.198 1.227-1.429.64-3.058.78-4.601.588-1.833-.231-3.584-.949-5.155-1.902-1.083-.655-2.069 1.04-.989 1.694 2.968 1.8 6.619 2.797 10.058 1.922 1.665-.423 3.094-1.392 4.57-2.224 1.468-.827 2.952-1.666 4.542-2.25 1.786-.66 3.678-.993 5.574-.683.523.086 1.056-.138 1.21-.687.121-.47-.165-1.121-.691-1.208"/><path d="M9.913 84.925c2.658 3.961 5.948 7.71 10.887 8.562 4.2.726 9.335.855 12.562-2.42 2.1-2.13 2.866-5.146 3.526-7.966.286-1.227-1.606-1.753-1.893-.521-.53 2.263-1.067 4.69-2.536 6.557-1.209 1.534-3.007 2.318-4.895 2.644-1.877.322-3.86.192-5.732-.098-2.057-.322-3.918-1.016-5.559-2.322-1.88-1.494-3.337-3.444-4.664-5.424-.698-1.043-2.402-.063-1.696.988M44.366 93.903c-.762 3.867-2.293 7.683-5.39 10.272a10.2 10.2 0 0 1-4.911 2.251c-1.779.282-3.616.019-5.316-.526-2.006-.647-3.875-1.737-5.484-3.094l-.695 1.674c1.7-.054 3.435-.384 4.919-1.251 1.507-.878 2.461-2.271 3.266-3.777.73-1.364 1.421-2.745 2.693-3.69 1.256-.934 2.811-1.471 4.37-1.585 2.155-.16 4.263.345 6.257 1.126.495.192 1.076-.212 1.21-.686.153-.558-.189-1.012-.688-1.209-3.486-1.36-7.439-1.796-10.89-.098-1.527.753-2.771 1.926-3.666 3.37-.848 1.368-1.406 2.976-2.576 4.122-1.283 1.255-3.156 1.659-4.895 1.714-.785.023-1.378 1.094-.695 1.674 3.2 2.699 7.408 4.64 11.68 4.256 4.33-.389 7.925-3.15 10.096-6.821 1.308-2.212 2.108-4.69 2.603-7.197.102-.517-.15-1.059-.687-1.208-.475-.133-1.095.161-1.201.683M50.71 103.37c-2.375 1.373-4.114 3.401-4.554 6.162-.475 2.973.49 6.393-1.201 9.076-.519.819.518 1.87 1.342 1.341 2.309-1.479 4.629-2.993 6.603-4.91 1.983-1.926 3.695-4.413 3.628-7.284-.032-1.259-1.994-1.263-1.963 0 .059 2.397-1.523 4.456-3.247 6.083-1.813 1.714-3.914 3.075-6.01 4.417l1.343 1.341c1.758-2.789 1.06-6.028 1.35-9.123.106-1.145.432-2.216 1.068-3.157.636-.945 1.625-1.671 2.634-2.255 1.087-.628.102-2.326-.993-1.691M59.535 111.227a12.3 12.3 0 0 0-4.652 6.287c-.4 1.239-.566 2.537-.562 3.839.004 1.263.161 2.644-.545 3.762-.232.364-.146.886.153 1.188.334.333.781.329 1.19.153 1.126-.486 2.249-1.039 3.266-1.734.91-.623 1.735-1.404 2.065-2.486.345-1.142-.103-2.322.172-3.463a3.8 3.8 0 0 1 1.54-2.248c1.04-.702.058-2.4-.99-1.694-.923.624-1.665 1.459-2.112 2.483-.495 1.129-.49 2.204-.432 3.412.024.502.008.965-.275 1.396-.243.365-.6.659-.958.906-1.017.694-2.14 1.251-3.266 1.734l1.343 1.341c.734-1.161.832-2.53.82-3.871-.012-1.236-.008-2.42.31-3.624.601-2.271 1.987-4.338 3.918-5.691.432-.302.636-.859.354-1.341-.248-.428-.903-.655-1.34-.349M6.918 47.732a48.6 48.6 0 0 0 8.15 4.428c2.74 1.161 5.64 1.98 8.256 3.416 4.86 2.663 7.608 7.695 8.994 12.896.918 3.444 1.319 6.993 1.711 10.527.06.526.408.98.982.98.486 0 1.04-.45.981-.98-.687-6.193-1.421-12.602-4.636-18.08-1.414-2.409-3.278-4.558-5.587-6.147-2.54-1.749-5.531-2.675-8.381-3.773a48 48 0 0 1-9.481-4.957c-1.048-.71-2.034.988-.99 1.69"/><path d="M36.016 81.623c.043-1.816.522-3.6 1.41-5.19.843-1.51 2.123-2.568 3.38-3.725 1.283-1.18 2.355-2.534 3.061-4.138a14.2 14.2 0 0 0 1.182-5.036c.094-1.91-.196-3.86-.864-5.651-.184-.495-.663-.836-1.209-.687-.479.13-.871.706-.687 1.208 1.1 2.957 1.135 6.413-.184 9.315-.691 1.514-1.696 2.702-2.921 3.812-1.311 1.189-2.583 2.35-3.459 3.914a13.3 13.3 0 0 0-1.68 6.182c-.02 1.259 1.943 1.259 1.97-.004"/><path d="M42.658 58.694c1.543 1.577 3.027 3.232 4.107 5.17 1.063 1.906 1.53 3.93 1.44 6.106-.141 3.389-.816 7.672-3.859 9.73-2.237 1.515-5.091 1.562-7.698 1.625-1.26.031-1.264 1.992 0 1.96 2.736-.066 5.602-.184 8.067-1.513 1.869-1.012 3.208-2.734 4.032-4.664.844-1.98 1.217-4.114 1.37-6.251.177-2.471-.125-4.793-1.181-7.052-1.155-2.467-3-4.562-4.892-6.495-.883-.906-2.273.482-1.386 1.384M45.83 94.762c4.484.05 9.053-.894 12.575-3.817 3.29-2.725 4.73-6.918 4.26-11.115-.276-2.42-1.037-4.737-2.195-6.879-.397-.733-1.598-.576-1.794.235-.373 1.534-1.005 3.04-2.199 4.115-1.24 1.117-2.991 1.384-4.53 1.882-1.622.526-3.082 1.357-4.22 2.644a10.8 10.8 0 0 0-2.36 4.518c-.561 2.228-.479 4.534-.098 6.781.086.522.734.816 1.21.686.553-.152.773-.682.686-1.207-.553-3.303-.259-7.064 2.155-9.61 1.111-1.172 2.474-1.733 3.997-2.176 1.657-.483 3.31-.98 4.605-2.18 1.394-1.291 2.206-3.115 2.646-4.931l-1.794.235c1.75 3.236 2.634 7.178 1.554 10.774-1.052 3.499-4.079 5.966-7.459 7.107-2.269.765-4.652 1.004-7.035.98-1.268-.015-1.268 1.946-.004 1.958M53.666 104.339c1.41-2.133 3.51-3.631 6.144-3.573 1.606.04 3.168.569 4.735.883 1.754.349 3.56.494 5.276-.114l-.954-1.64c-1.767 1.742-3.553 3.499-5.618 4.888-1.924 1.29-4.279 2.447-6.646 1.863-1.225-.302-1.751 1.588-.522 1.89 2.795.694 5.582-.38 7.914-1.898 2.312-1.506 4.307-3.428 6.262-5.354.667-.659-.008-1.973-.954-1.64-3.388 1.197-6.76-1.047-10.188-.827-3.07.196-5.484 2.028-7.137 4.53-.706 1.055.993 2.04 1.688.992M60.152 113.27a10.13 10.13 0 0 1 6.199-2.695c1.228-.082 2.379.106 3.572.369 1.366.302 2.807.561 4.161.059q-.553-.72-1.107-1.439c-.663.945-1.397 1.862-2.234 2.663-.317.302-.67.604-1.08.768-.494.196-.96.114-1.46-.019-1.134-.306-2.17-.506-3.34-.287-1.096.204-2.105.769-2.898 1.538-.906.882.483 2.267 1.39 1.388a3.8 3.8 0 0 1 2.607-1.082c1.135-.008 2.167.635 3.313.537 1.178-.102 2.152-.753 2.976-1.565.907-.894 1.7-1.914 2.43-2.949.479-.679-.322-1.73-1.107-1.44-1.288.475-2.61.04-3.894-.227-1.3-.271-2.615-.369-3.934-.212-2.61.314-5.049 1.408-6.972 3.212-.935.859.455 2.244 1.378 1.381"/><path d="M34.441 81.419c1.217 2.577 2.466 5.173 4.209 7.448.887 1.157 1.872 2.216 3.026 3.11 1.174.91 2.584 1.506 3.698 2.483 2.054 1.796 2.725 4.628 3.954 6.961 1.417 2.699 3.741 4.664 5.802 6.844 2.148 2.267 3.576 5.005 5.3 7.585 1.637 2.452 3.635 4.55 6.061 6.229 4.648 3.216 10.44 4.71 16.057 4.6 6.517-.125 12.841-2.231 18.581-5.224a61 61 0 0 0 2.08-1.141c1.096-.628.11-2.322-.989-1.695-5.386 3.079-11.342 5.456-17.572 5.986-5.472.466-11.086-.546-15.836-3.37-2.297-1.364-4.358-3.153-5.944-5.314-1.845-2.514-3.223-5.334-5.202-7.75-1.849-2.259-4.26-4.044-5.896-6.479-1.496-2.232-2.105-4.938-3.679-7.119-.887-1.231-2.006-2.102-3.301-2.882-1.206-.726-2.317-1.49-3.302-2.507-1.908-1.968-3.243-4.416-4.444-6.855-.31-.632-.608-1.263-.91-1.899-.228-.478-.916-.604-1.343-.353-.487.287-.577.863-.35 1.342M36.95 65.672a199 199 0 0 1-2.053-19.07c-.075-1.255-2.038-1.262-1.963 0 .388 6.562 1.103 13.1 2.124 19.591.082.522.738.812 1.209.687.557-.153.765-.683.683-1.208M19.877 78.113a202 202 0 0 1-18.632-5.609c-.499-.177-1.076.2-1.21.686-.148.542.185 1.028.688 1.208a202 202 0 0 0 18.632 5.609c1.224.302 1.747-1.589.522-1.895M190.661 42.57a48 48 0 0 0-2.308 9.23c-.448 3.066-.514 6.22-1.398 9.212-1.547 5.248-5.908 9.013-10.576 11.539-2.983 1.616-6.159 2.816-9.328 4.012-.494.189-.836.663-.687 1.208.13.475.711.875 1.21.687 5.668-2.138 11.498-4.37 15.974-8.594 2.017-1.906 3.678-4.173 4.738-6.742 1.221-2.953 1.409-6.18 1.767-9.322a48.2 48.2 0 0 1 2.493-10.708c.176-.498-.201-1.074-.687-1.208-.534-.145-1.021.189-1.198.687"/><path d="M165.038 79.128c3.458-.721 6.728.683 9.763 2.204 1.527.765 3.035 1.726 4.695 2.165s3.408.412 5.084.071c1.904-.388 3.722-1.224 5.327-2.302 1.045-.698.063-2.4-.989-1.695-2.611 1.75-5.916 2.88-9.045 1.993-.793-.224-1.464-.612-2.194-.977-.754-.372-1.5-.76-2.25-1.133-1.555-.773-3.148-1.506-4.821-1.973-1.998-.557-4.055-.667-6.089-.243-.518.11-.82.718-.687 1.208.146.533.683.788 1.206.682"/><path d="M188.895 79.877c-2.156 3.55-4.825 7.072-9.089 8.06-3.533.82-8.228 1.322-11.086-1.427-1.869-1.797-2.583-4.444-3.262-6.856-.342-1.212-2.238-.698-1.893.522.707 2.502 1.484 5.04 3.172 7.075 1.465 1.769 3.62 2.761 5.862 3.09 2.277.334 4.581.122 6.834-.321 2.36-.467 4.456-1.42 6.289-2.985 2.003-1.71 3.51-3.934 4.868-6.165.656-1.087-1.04-2.071-1.695-.993M154.716 91.906c1.056 4.322 3.094 8.48 6.756 11.167 3.475 2.545 7.915 2.91 11.9 1.404 2.276-.863 4.338-2.185 6.124-3.836.628-.581.137-1.683-.695-1.675-1.614.02-3.286-.235-4.633-1.184-1.303-.918-1.974-2.471-2.799-3.785-.914-1.455-2.084-2.683-3.631-3.475-1.59-.816-3.376-1.2-5.162-1.169-2.242.04-4.393.687-6.431 1.589-.483.215-.597.921-.353 1.34.29.499.856.57 1.342.354 3.078-1.361 6.812-1.996 9.882-.275 1.409.793 2.281 1.981 3.089 3.346.848 1.44 1.72 2.86 3.133 3.812 1.614 1.09 3.647 1.432 5.559 1.408l-.695-1.675c-2.681 2.475-6.25 4.299-9.975 4.177-3.773-.121-6.988-2.549-8.947-5.647-1.241-1.965-2.03-4.15-2.579-6.397-.291-1.224-2.187-.706-1.885.521M149.734 102.798c1.045.541 2.109 1.255 2.784 2.169.699.941 1.044 2.016 1.213 3.181.432 3.032-.141 6.255 1.719 8.926l1.343-1.341c-2.151-1.243-4.322-2.506-6.211-4.134-1.79-1.545-3.497-3.545-3.545-5.914-.027-1.259-1.99-1.263-1.962 0 .094 4.592 4.318 7.785 7.847 10.021.946.6 1.912 1.16 2.878 1.721.805.467 1.923-.506 1.342-1.341-1.821-2.616-1.012-6.028-1.617-8.989-.557-2.746-2.359-4.723-4.805-5.989-1.115-.581-2.108 1.11-.986 1.69M141.27 111.042a10.12 10.12 0 0 1 4.185 5.452c.373 1.176.451 2.337.494 3.561.047 1.357.177 2.769.978 3.914.369-.478.738-.961 1.107-1.439-1.115-.42-2.23-.922-3.235-1.565-.345-.224-.687-.486-.93-.824-.303-.423-.326-.898-.318-1.4.015-1.176-.051-2.232-.562-3.31-.471-1-1.268-1.832-2.206-2.404-1.08-.659-2.069 1.035-.989 1.694a3.77 3.77 0 0 1 1.664 2.153c.33 1.13-.066 2.33.33 3.452.389 1.094 1.241 1.863 2.21 2.451 1.103.671 2.309 1.192 3.514 1.647.785.298 1.582-.761 1.107-1.439-.762-1.094-.683-2.451-.734-3.726-.055-1.31-.267-2.608-.73-3.84-.943-2.498-2.635-4.632-4.892-6.063-1.072-.687-2.057 1.012-.993 1.686M190.904 41.869a48.3 48.3 0 0 1-8.04 4.836c-2.784 1.321-5.755 2.294-8.366 3.965-4.951 3.169-7.691 8.656-8.916 14.249-.8 3.651-1.052 7.397-1.295 11.119-.035.53.475.98.981.98.562 0 .946-.45.982-.98.388-5.934.793-12.139 3.682-17.48 1.237-2.283 2.901-4.374 5.053-5.86 2.449-1.695 5.288-2.675 7.985-3.891a48.2 48.2 0 0 0 8.923-5.244c.424-.314.64-.847.353-1.341-.243-.42-.914-.671-1.342-.353"/><path d="M166.348 78.658a13.4 13.4 0 0 0-1.59-5.515c-.871-1.6-2.092-2.816-3.49-3.961-1.287-1.055-2.477-2.118-3.309-3.577a11.4 11.4 0 0 1-1.429-4.452c-.193-1.8-.02-3.6.534-5.322.388-1.204-1.508-1.722-1.893-.522a14.48 14.48 0 0 0 .499 10.088 11.8 11.8 0 0 0 2.925 4.079c1.221 1.106 2.669 2.032 3.666 3.369 1.245 1.67 1.991 3.738 2.132 5.813.035.529.424.98.982.98.494 0 1.009-.451.973-.98"/><path d="M155.302 54.737c-1.641 1.835-3.239 3.789-4.303 6.024a13.3 13.3 0 0 0-1.252 7.134c.388 4.075 1.574 8.747 5.335 11.006 2.599 1.56 5.771 1.549 8.703 1.486 1.26-.027 1.264-1.988 0-1.96-2.363.05-4.946.148-7.129-.907-1.653-.8-2.783-2.212-3.545-3.851-.762-1.64-1.146-3.495-1.347-5.272-.243-2.137-.125-4.16.715-6.169.958-2.294 2.571-4.271 4.216-6.107.836-.933-.549-2.325-1.393-1.384M155.128 90.306c-4.012.224-8.268-.33-11.53-2.86-1.366-1.058-2.489-2.443-3.16-4.039-.707-1.682-.907-3.53-.789-5.338.137-2.07.738-4.118 1.637-5.98-.597-.08-1.198-.158-1.794-.236.471 1.616 1.217 3.192 2.406 4.408 1.248 1.279 2.886 1.855 4.581 2.271 1.551.377 3.086.737 4.323 1.808 1.162 1.008 2.01 2.334 2.485 3.793.663 2.023.687 4.161.432 6.26-.063.525.498.98.981.98.585 0 .919-.451.982-.98.447-3.668-.095-7.52-2.513-10.437a8.95 8.95 0 0 0-4.098-2.77c-1.61-.533-3.412-.654-4.876-1.568-1.504-.941-2.332-2.644-2.811-4.287-.22-.757-1.413-1.024-1.794-.235-1.806 3.734-2.627 8.213-1.276 12.225 1.358 4.032 4.817 6.84 8.798 8.099 2.575.816 5.327.996 8.012.847 1.26-.07 1.268-2.031.004-1.96M149.448 101.154c-1.767-2.427-4.264-4.204-7.361-4.243-3.404-.047-6.693 2.33-10.093 1.298-.919-.279-1.688.98-.954 1.64 2.037 1.835 4.114 3.678 6.489 5.075 2.383 1.404 5.229 2.388 7.989 1.572 1.209-.357.695-2.251-.522-1.89-2.344.694-4.734-.314-6.729-1.526-2.128-1.294-3.996-2.957-5.841-4.62l-.954 1.639c1.711.518 3.478.338 5.19-.078 1.554-.377 3.109-1.004 4.714-1.126 2.646-.2 4.853 1.157 6.38 3.252.31.427.852.639 1.342.353.421-.247.664-.914.35-1.346M143.057 109.979a12.3 12.3 0 0 0-7.098-2.926c-1.288-.098-2.587.039-3.839.353-1.288.326-2.642.871-3.965.447-.754-.243-1.641.749-1.107 1.44.765.992 1.578 1.957 2.508 2.804.876.8 1.924 1.483 3.149 1.506 1.126.02 2.1-.651 3.211-.69a3.8 3.8 0 0 1 2.666.933c.942.836 2.335-.545 1.389-1.388-.816-.726-1.798-1.236-2.877-1.416-1.17-.196-2.211.016-3.322.376-.467.153-.938.306-1.425.169-.431-.118-.812-.376-1.154-.659-.911-.761-1.723-1.69-2.446-2.624l-1.107 1.44c1.351.431 2.737.157 4.071-.2 1.213-.322 2.375-.589 3.636-.565 2.292.047 4.581.886 6.328 2.381.4.345.993.396 1.39 0 .341-.345.396-1.032-.008-1.381"/><path d="M164.134 77.709c-1.056 2.525-2.155 5.07-3.726 7.33a14.7 14.7 0 0 1-2.65 2.918c-1.134.945-2.489 1.6-3.56 2.628-1.987 1.902-2.662 4.616-3.718 7.06-1.158 2.678-3.176 4.651-5.084 6.8a26 26 0 0 0-2.724 3.632c-.821 1.326-1.547 2.71-2.321 4.063-1.409 2.452-3.077 4.621-5.284 6.409-4.118 3.334-9.492 5.067-14.749 5.275-6.297.247-12.527-1.471-18.2-4.11a61 61 0 0 1-2.167-1.063c-1.123-.577-2.116 1.114-.99 1.694 5.831 2.993 12.186 5.162 18.778 5.436 5.751.24 11.644-1.11 16.508-4.243 2.359-1.518 4.432-3.436 6.081-5.707 1.869-2.573 3.097-5.546 4.942-8.134 1.755-2.459 4.13-4.405 5.783-6.946 1.504-2.318 1.998-5.107 3.455-7.44.758-1.216 1.837-1.985 3.015-2.77 1.225-.815 2.348-1.745 3.309-2.862 1.889-2.193 3.196-4.785 4.338-7.425q.436-1.012.86-2.028c.204-.49-.22-1.078-.687-1.208-.565-.149-1.005.2-1.209.69M164.676 63.028a201 201 0 0 0 1.217-19.402c.02-1.263-1.943-1.263-1.963 0a201 201 0 0 1-1.217 19.402c-.059.526.495.98.982.98.581 0 .922-.454.981-.98M180.917 76.348a202 202 0 0 0 18.361-6.437c.491-.2.836-.65.687-1.207-.129-.467-.714-.887-1.209-.687a202 202 0 0 1-18.361 6.436c-1.209.361-.695 2.255.522 1.895M180.897 171.328a44.7 44.7 0 0 0-8.719-1.051c-2.826-.055-5.72.29-8.515-.251-4.742-.918-8.487-4.342-11.184-8.181-1.72-2.452-3.121-5.103-4.519-7.743-.589-1.117-2.285-.125-1.696.989 2.469 4.671 5.052 9.503 9.175 12.95 1.896 1.585 4.043 2.864 6.426 3.566 2.827.831 5.791.666 8.7.631 3.305-.039 6.583.271 9.81.985 1.233.27 1.759-1.62.522-1.895"/><path d="M145.286 152.683c1.084 3.169.114 6.302-.965 9.33-.523 1.459-1.147 2.867-1.308 4.42-.149 1.444.094 2.942.589 4.303.605 1.663 1.543 3.149 2.697 4.479.35.4 1.033.357 1.39 0 .396-.396.349-.985 0-1.388-1.759-2.024-3.047-4.73-2.705-7.468.079-.62.255-1.232.495-1.804.314-.769.573-1.565.852-2.346.518-1.466 1.008-2.953 1.244-4.494.287-1.871.224-3.75-.393-5.55-.172-.502-.675-.832-1.209-.686-.49.129-.859.698-.687 1.204"/><path d="M147.567 173.964c-3.246-1.451-6.729-3.338-8.11-6.832-1.217-3.071-2.266-7.405-.055-10.288 1.397-1.828 3.706-2.749 5.759-3.612.487-.208.596-.926.353-1.342-.294-.505-.852-.556-1.343-.353-2.084.879-4.239 1.828-5.81 3.519-1.484 1.596-2.147 3.686-2.175 5.84-.023 2.051.452 4.102 1.115 6.032.683 1.988 1.755 3.73 3.333 5.138 1.743 1.557 3.824 2.643 5.944 3.592.483.216 1.056.141 1.343-.353.243-.419.133-1.125-.354-1.341M132.991 144.894c-3.706 1.411-7.244 3.62-9.246 7.153-.954 1.687-1.503 3.605-1.468 5.546.035 1.906.589 3.761 1.464 5.448.982 1.89 2.395 3.569 4.02 4.938.793.667 1.775.015 1.641-.953-.192-1.404-.098-2.965.648-4.205.726-1.2 2.01-1.961 3.07-2.831 2.52-2.075 3.478-5.217 3.015-8.398-.279-1.91-1.068-3.718-2.057-5.361-.652-1.079-2.348-.094-1.696.988 1.562 2.597 2.579 5.774 1.409 8.731-1.095 2.761-4.314 3.624-5.625 6.228-.844 1.679-.907 3.542-.656 5.369l1.641-.953c-2.465-2.074-4.581-5.012-4.872-8.311-.306-3.435 1.488-6.514 4.087-8.644 1.519-1.247 3.321-2.157 5.151-2.855.494-.188.836-.659.687-1.208-.138-.471-.715-.871-1.213-.682M122.54 141.913c-.369.996-.871 1.91-1.625 2.62-.73.686-1.724 1.118-2.74 1.372-2.686.679-5.52.628-7.703 2.589l1.543 1.188c.887-2.094 1.798-4.196 3.054-6.098 1.194-1.805 2.741-3.428 4.9-3.75.526-.078.812-.741.687-1.208-.153-.561-.679-.761-1.209-.686-2.54.376-4.46 2.31-5.858 4.33-1.374 1.98-2.332 4.208-3.27 6.42-.192.451-.173.949.251 1.267.405.302.915.259 1.288-.078 2.045-1.836 5.151-1.467 7.608-2.311 1.135-.388 2.199-.98 3.039-1.851.899-.933 1.48-2.078 1.927-3.283.185-.498-.204-1.074-.687-1.208-.545-.149-1.02.185-1.205.687M114.37 135.088a9.16 9.16 0 0 1-4.506 4.436c-2.105.957-4.664.553-6.474 2.173l1.641.953c.251-1.043.546-2.122 1.025-3.087.172-.353.376-.721.679-.98.322-.271.742-.333 1.15-.373 1.005-.102 1.947-.274 2.811-.831.832-.537 1.527-1.294 1.935-2.204.22-.483.138-1.055-.353-1.342-.42-.247-1.123-.133-1.343.353-.353.785-.926 1.42-1.723 1.773-.907.404-1.943.231-2.858.604-.962.392-1.625 1.22-2.057 2.141-.511 1.091-.876 2.256-1.158 3.424-.236.973.914 1.605 1.641.954.816-.734 2.072-.805 3.109-.969a11.3 11.3 0 0 0 3.36-1.087c2.077-1.063 3.82-2.839 4.817-4.949.228-.479.134-1.059-.353-1.342-.428-.247-1.115-.129-1.343.353M181.411 171.387a42 42 0 0 1-5.084-6.464c-1.448-2.278-2.646-4.71-4.338-6.828-3.325-4.161-8.57-6.005-13.724-6.518-3.349-.334-6.717-.134-10.066.066-1.256.075-1.264 2.036 0 1.961 5.449-.325 11.102-.655 16.28 1.404 2.226.887 4.244 2.256 5.799 4.083 1.637 1.926 2.752 4.236 4.071 6.374a44.3 44.3 0 0 0 5.673 7.31c.875.91 2.261-.478 1.389-1.388"/><path d="M146.138 153.945c1.613-.317 3.18-.98 4.519-1.941 1.358-.969 2.343-2.165 3.231-3.565.785-1.239 1.562-2.432 2.748-3.334 1.126-.859 2.441-1.443 3.812-1.784a10.9 10.9 0 0 1 4.652-.153c.522.098 1.06-.145 1.209-.687.129-.478-.161-1.106-.687-1.208-3.055-.572-6.305-.086-8.998 1.491a11.1 11.1 0 0 0-3.42 3.133c-.899 1.255-1.566 2.679-2.712 3.742-1.359 1.255-3.066 2.063-4.872 2.416-.522.102-.817.722-.687 1.208.149.541.683.784 1.205.682"/><path d="M165.964 141.254c-1.873-1.291-3.847-2.491-6.03-3.181s-4.369-.671-6.588-.157c-3.415.789-7.29 2.381-8.844 5.77-1.202 2.612-.821 5.506-.416 8.255.078.526.742.812 1.209.687.561-.153.761-.679.687-1.208-.314-2.134-.632-4.416.121-6.495.515-1.416 1.657-2.506 2.917-3.275 1.363-.831 2.882-1.357 4.425-1.741 1.825-.455 3.6-.593 5.437-.102 2.23.596 4.212 1.839 6.097 3.137.435.302 1.091.083 1.342-.353.283-.486.083-1.039-.357-1.337M134.459 145.066c-.656-3.593-.55-7.487 1.464-10.652 1.724-2.71 4.676-4.087 7.832-4.197 1.83-.063 3.628.247 5.359.832l-.236-1.793c-1.315.569-2.587 1.381-3.494 2.506-1.071 1.33-1.417 2.863-1.609 4.526-.169 1.444-.353 2.805-1.186 4.036-.761 1.13-1.888 1.973-3.113 2.55-1.617.76-3.451.988-5.221.996-1.264.004-1.264 1.965 0 1.961 3.254-.012 6.646-.836 8.99-3.232 1.068-1.09 1.845-2.455 2.167-3.953.326-1.53.196-3.244.875-4.687.695-1.475 2.136-2.385 3.581-3.012.84-.361.479-1.554-.236-1.793-3.455-1.165-7.357-1.31-10.737.177-3.498 1.537-5.751 4.977-6.458 8.656-.483 2.526-.337 5.083.122 7.597.094.521.73.816 1.209.686.554-.149.785-.682.691-1.204M124.267 141.387c2.116-1.988 3.31-4.636 2.807-7.558-.467-2.718-2.709-5.251-2.218-8.115.189-1.094-1.138-1.694-1.794-.756-2.646 3.792-6.277 8.895-4.177 13.695.212.487.922.597 1.343.353.502-.294.565-.855.353-1.341-.832-1.902-.145-4.185.675-5.973.942-2.044 2.218-3.903 3.502-5.742q-.897-.375-1.794-.757c-.251 1.463-.039 2.886.455 4.279.475 1.337 1.139 2.6 1.547 3.961.349 1.165.381 2.361.004 3.526-.389 1.196-1.186 2.189-2.089 3.04-.922.866.468 2.251 1.386 1.388M115.709 136.661a10.9 10.9 0 0 0 1.763-6.55 10.8 10.8 0 0 0-.73-3.357c-.405-1.028-1.092-2.224-.884-3.365.169-.922-.903-1.687-1.641-.953a20.4 20.4 0 0 0-2.135 2.479c-.636.878-1.135 1.929-.993 3.035.125 1.02.824 1.832.977 2.84.13.867-.114 1.706-.601 2.42-.298.439-.082 1.086.354 1.341.487.282 1.044.086 1.342-.353a5.26 5.26 0 0 0 .896-2.765c.043-1.075-.322-2-.774-2.953-.165-.349-.306-.714-.251-1.102.063-.444.314-.848.557-1.212.573-.855 1.288-1.624 2.018-2.35l-1.641-.953c-.447 2.432 1.249 4.428 1.504 6.774a9.1 9.1 0 0 1-1.457 6.028c-.695 1.063 1.001 2.047 1.696.996"/><path d="M146.716 151.722c-2.391-.663-4.817-1.334-7.02-2.506-1.044-.553-2.029-1.212-2.885-2.032-.958-.914-1.7-2.036-2.744-2.863-2.026-1.6-4.601-1.879-6.996-2.608-2.481-.757-4.464-2.416-6.58-3.844-2.292-1.545-4.848-2.451-7.376-3.526-2.293-.976-4.37-2.247-6.144-4.004-3.278-3.248-5.319-7.597-6.124-12.112-1.135-6.346.153-12.895 2.336-18.877.18-.498-.205-1.074-.687-1.207-.546-.15-1.025.184-1.21.686-2.033 5.569-3.262 11.593-2.665 17.535.506 5.04 2.328 9.9 5.567 13.83 1.519 1.843 3.372 3.443 5.449 4.628 2.492 1.423 5.288 2.184 7.824 3.51 2.383 1.247 4.377 3.114 6.772 4.338 1.185.604 2.438.992 3.725 1.314 1.17.29 2.387.537 3.494 1.031 1.378.62 2.246 1.679 3.231 2.785.958 1.078 2.1 1.988 3.341 2.726 2.513 1.49 5.367 2.306 8.166 3.082 1.225.345 1.743-1.549.526-1.886M159.58 150.753a181 181 0 0 0 17.38-1.082c.526-.059.981-.408.981-.981 0-.486-.451-1.039-.981-.98-5.771.639-11.573 1-17.38 1.082-1.264.016-1.268 1.981 0 1.961M149.628 166.692a180 180 0 0 0 7.769 15.567c.616 1.102 2.312.114 1.696-.988a182 182 0 0 1-7.769-15.567c-.212-.486-.923-.596-1.343-.353-.502.29-.569.851-.353 1.341M126.168 6.21a49.6 49.6 0 0 0 3.419 8.408c1.335 2.573 3.007 4.97 4.193 7.62 2.442 5.468 1.221 11.598-1.264 16.815-1.449 3.043-3.282 5.883-5.104 8.71-.687 1.063 1.013 2.048 1.696.989 3.298-5.118 6.709-10.464 7.687-16.586.483-3.028.408-6.166-.589-9.088-.97-2.847-2.642-5.357-4.11-7.958a46.8 46.8 0 0 1-4.032-9.436c-.369-1.2-2.261-.69-1.896.525"/><path d="M127.314 51c2.403-2.703 5.865-3.538 9.296-4.138 1.669-.29 3.439-.408 5.014-1.052a11.1 11.1 0 0 0 4.106-2.945c1.331-1.506 2.293-3.267 2.964-5.154.177-.498-.2-1.074-.687-1.208-.542-.149-1.029.185-1.209.687-1.017 2.851-3.019 5.714-5.948 6.828-.789.302-1.586.412-2.41.55q-1.25.206-2.497.43c-1.688.299-3.38.644-4.986 1.26-1.916.733-3.659 1.816-5.033 3.357-.836.937.546 2.33 1.39 1.384"/><path d="M147.006 37.217c.377 4.087.4 8.59-2.414 11.9-2.383 2.8-5.948 6.134-9.964 5.522-2.469-.377-4.57-1.993-6.489-3.48-.42-.325-.982-.407-1.39 0-.338.338-.42 1.06 0 1.39 1.982 1.533 4.028 3.106 6.481 3.788 2.34.651 4.731.227 6.867-.875 2.025-1.047 3.776-2.623 5.303-4.298 1.602-1.761 2.764-3.742 3.302-6.075.593-2.581.51-5.248.267-7.864-.047-.526-.416-.98-.982-.98-.494-.008-1.032.443-.981.972M126.627 67.24c3.537 2.942 7.86 5.24 12.586 5.025 2.203-.102 4.378-.757 6.203-2.012 1.641-1.13 2.992-2.624 4.028-4.318 1.162-1.899 1.947-4.036 2.359-6.217.075-.392-.015-.78-.353-1.031-.286-.212-.777-.314-1.091-.079-1.307.992-2.85 1.847-4.534 1.86-1.7.015-3.243-.903-4.794-1.487-3.502-1.322-7.2-.342-10.015 2.012-1.511 1.263-2.704 2.886-3.674 4.589-.624 1.098 1.072 2.09 1.696.988 1.602-2.82 3.941-5.389 7.231-6.107 1.672-.364 3.219-.023 4.774.616 1.57.643 3.121 1.38 4.86 1.345 1.998-.043 3.879-.937 5.445-2.126l-1.441-1.105c-.644 3.412-2.23 6.808-5.001 9.005-3.156 2.502-7.396 2.569-11.047 1.2-2.14-.804-4.095-2.099-5.846-3.55-.408-.337-.989-.4-1.39 0-.345.353-.408 1.051.004 1.393M129.355 79.003c1.272-.204 2.571-.196 3.785.255 1.169.435 2.131 1.31 2.952 2.235 1.912 2.165 3.451 4.687 6.336 5.656l.259-1.926c-2.536.287-5.092.553-7.643.369-2.395-.173-4.876-.8-6.384-2.75-.326-.42-1.048-.34-1.39 0-.416.416-.325.965 0 1.389 2.729 3.526 8.033 3.573 12.068 3.283a87 87 0 0 0 3.349-.33c1.076-.121 1.362-1.557.259-1.925-2.76-.926-4.13-3.88-6.089-5.809-1.005-.988-2.198-1.792-3.556-2.2-1.461-.44-2.984-.373-4.468-.138-.522.083-.817.738-.687 1.209.157.556.683.764 1.209.682M127.204 90.698c2.489-.176 4.99.55 6.972 2.071 1.987 1.522 3.011 4.158 5.504 4.997v-1.89c-1.15.325-2.355.62-3.553.69-1.028.059-1.77-.145-2.379-1.008-.639-.906-1.287-1.722-2.273-2.271a5.76 5.76 0 0 0-3.27-.718c-.526.047-.981.416-.981.98 0 .495.451 1.028.981.981.978-.086 1.943.141 2.736.738.852.639 1.233 1.69 2.046 2.368.926.773 2.12.973 3.298.879 1.322-.106 2.645-.388 3.917-.75.966-.274.899-1.588 0-1.89-1.107-.372-1.845-1.447-2.54-2.321-.824-1.04-1.727-1.954-2.826-2.714a12.1 12.1 0 0 0-7.636-2.099c-.53.04-.981.424-.981.98.004.495.455 1.013.985.977M125.936 5.715a47 47 0 0 1-3.474 8.417c-1.402 2.628-3.098 5.09-4.244 7.848-2.43 5.844-1.142 12.296 1.453 17.845 1.468 3.134 3.348 6.052 5.217 8.958.683 1.06 2.383.075 1.696-.988-3.215-4.989-6.536-10.15-7.486-16.12-.456-2.859-.26-5.808.761-8.53 1.005-2.679 2.674-5.048 4.04-7.542a49.4 49.4 0 0 0 3.93-9.362c.365-1.216-1.528-1.734-1.893-.526"/><path d="M128.072 49.642a12.9 12.9 0 0 0-4.094-3.193c-.817-.404-1.681-.756-2.572-.956-1.005-.228-2.037-.295-3.066-.346-1.715-.086-3.372-.25-4.942-1.004a12.05 12.05 0 0 1-3.687-2.769 12.4 12.4 0 0 1-2.579-4.35c-.404-1.188-2.3-.678-1.892.522 1.064 3.142 3.199 5.903 6.022 7.66a12.2 12.2 0 0 0 4.994 1.753c1.959.236 3.925.079 5.806.78 1.798.672 3.38 1.832 4.621 3.288.345.404 1.032.352 1.389 0 .401-.397.346-.981 0-1.385"/><path d="M105.031 37.248c-.216 2.346-.295 4.707.106 7.04a13 13 0 0 0 2.979 6.354c2.913 3.365 7.028 6.71 11.782 5.919 2.815-.471 5.162-2.287 7.357-3.985.42-.326.341-1.047 0-1.389-.412-.411-.966-.325-1.39 0-1.727 1.338-3.553 2.73-5.696 3.307-1.967.525-3.934.066-5.677-.918-1.763-.992-3.258-2.392-4.601-3.887-1.409-1.565-2.332-3.334-2.76-5.4-.479-2.31-.349-4.71-.133-7.044.047-.53-.487-.981-.982-.981-.577.004-.938.455-.985.984M125.983 65.883c-3.144 2.613-7.003 4.644-11.2 4.448-3.706-.172-6.74-2.365-8.609-5.48-1.04-1.733-1.712-3.643-2.089-5.623l-1.44 1.106c1.409 1.07 3.026 1.863 4.797 2.078 1.77.212 3.384-.396 4.982-1.074 1.523-.647 3.015-1.157 4.695-.946 1.582.2 3.109.922 4.342 1.918 1.452 1.177 2.571 2.68 3.49 4.295.624 1.098 2.32.11 1.696-.988-1.723-3.04-4.252-5.77-7.683-6.817-1.723-.525-3.584-.565-5.308-.027-1.597.498-3.081 1.447-4.754 1.69-1.931.279-3.78-.69-5.268-1.82-.306-.231-.817-.14-1.091.079-.326.259-.428.627-.354 1.031.723 3.824 2.611 7.625 5.732 10.049 3.682 2.863 8.621 3.121 12.892 1.47 2.418-.933 4.57-2.345 6.556-3.996.409-.338.35-1.036 0-1.389-.4-.408-.977-.345-1.386-.004M127.867 77.838c-2.504-.784-5.241-.804-7.565.526-2.182 1.247-3.427 3.435-5.036 5.27-.825.942-1.763 1.805-2.964 2.228-1.072.377-.844 1.82.259 1.926 4.169.4 8.856.89 12.735-1.043a7.8 7.8 0 0 0 2.787-2.346c.318-.423.067-1.094-.353-1.34-.502-.295-1.025-.075-1.343.352-1.378 1.836-3.98 2.475-6.246 2.667-2.528.216-5.068-.012-7.584-.25l.259 1.925c2.976-1.051 4.467-3.718 6.438-5.966.978-1.114 2.136-1.988 3.588-2.357 1.496-.38 3.043-.157 4.495.298 1.217.38 1.732-1.51.53-1.89M127.969 88.765a12.1 12.1 0 0 0-7.635 2.098c-1.096.76-2.003 1.67-2.827 2.714-.695.875-1.433 1.953-2.54 2.322-.899.302-.966 1.616 0 1.89 1.252.353 2.544.628 3.843.742 1.202.105 2.427-.083 3.377-.871.808-.67 1.189-1.714 2.025-2.357.793-.608 1.771-.836 2.756-.75.53.048.982-.486.982-.98 0-.569-.452-.933-.982-.98-1.107-.099-2.23.156-3.207.678-1.017.545-1.684 1.385-2.336 2.306-.589.832-1.299 1.06-2.3 1.012-1.225-.059-2.458-.36-3.632-.694v1.89c2.493-.835 3.518-3.47 5.504-4.996a10.3 10.3 0 0 1 6.972-2.071c.53.04.982-.479.982-.98 0-.554-.452-.934-.982-.973"/><path d="M125.791 50.215c.73 2.953 1.464 5.957 1.405 9.02a13.9 13.9 0 0 1-.789 4.39c-.502 1.435-1.017 2.82-1.013 4.365.012 2.984 1.488 5.71 1.685 8.667.208 3.146-.601 6.256-.495 9.402.106 3.165.883 6.275.864 9.452-.012 2.577-.57 5.118-1.524 7.511-1.915 4.82-5.496 8.914-9.755 11.821-4.68 3.188-10.093 5.09-15.621 6.189q-1.03.204-2.065.372c-.522.087-.817.734-.687 1.208.153.557.683.773 1.21.687 5.719-.938 11.392-2.663 16.393-5.64 4.754-2.824 8.829-6.829 11.362-11.774 1.248-2.44 2.104-5.052 2.461-7.766.404-3.075-.063-6.08-.432-9.13-.196-1.628-.318-3.256-.224-4.891.091-1.589.322-3.162.436-4.746.118-1.616.067-3.224-.259-4.816-.31-1.49-.809-2.934-1.134-4.42-.311-1.432-.354-2.825.078-4.233.455-1.478 1.048-2.87 1.272-4.412.459-3.173-.027-6.35-.73-9.448a151 151 0 0 0-.554-2.318c-.294-1.236-2.186-.718-1.884.51M117.57 38.276a201 201 0 0 0-10.584-16.316c-.31-.427-.856-.635-1.342-.353-.424.247-.664.91-.354 1.341a201 201 0 0 1 10.584 16.316c.636 1.094 2.332.106 1.696-.988M138.569 39.123a201 201 0 0 0 10.918-16.092c.659-1.078-1.037-2.067-1.696-.988a202 202 0 0 1-10.918 16.092c-.318.424-.067 1.094.353 1.341.503.29 1.025.07 1.343-.353M39.93 191.743a42 42 0 0 1 7.937-3.236c2.693-.785 5.465-1.298 8.017-2.495 4.683-2.2 7.698-6.738 9.488-11.432 1.166-3.052 1.865-6.252 2.56-9.437.267-1.231-1.625-1.757-1.892-.522-1.127 5.174-2.297 10.519-5.465 14.885-1.335 1.835-3.039 3.424-5.049 4.494-2.434 1.295-5.205 1.769-7.831 2.514a44.6 44.6 0 0 0-8.751 3.53c-1.119.6-.13 2.291.985 1.699"/><path d="M66.268 162.551c-.188 3.157 1.174 5.996 2.898 8.554.424.627.863 1.243 1.3 1.863.435.615.918 1.204 1.303 1.851.71 1.2 1.012 2.58.997 3.965-.02 1.647-.464 3.279-1.166 4.761-.228.479-.134 1.059.353 1.342.428.251 1.115.129 1.343-.353 1.35-2.84 1.994-6.252.848-9.272-.554-1.459-1.528-2.644-2.419-3.906-.887-1.255-1.766-2.526-2.445-3.907-.758-1.537-1.15-3.188-1.049-4.902.075-1.255-1.888-1.252-1.963.004"/><path d="M73.146 185.04c1.668-1.381 3.258-2.867 4.499-4.652 1.264-1.82 1.951-3.879 2.092-6.083.24-3.722-.2-8.228-3.344-10.723-2.18-1.726-4.967-2.122-7.644-2.467-.526-.067-.981.498-.981.981 0 .584.451.913.981.98 2.061.267 4.244.565 6.014 1.73 1.343.882 2.148 2.326 2.576 3.84.47 1.67.541 3.423.463 5.149-.087 1.855-.538 3.538-1.531 5.118-1.17 1.856-2.835 3.35-4.51 4.738-.41.338-.35 1.036 0 1.389.4.404.977.337 1.385 0M77.99 153.714c3.46.322 7.004 1.381 9.501 3.907 2.324 2.353 3.058 5.592 2.348 8.781-.42 1.879-1.237 3.624-2.32 5.209l1.794.235c-.193-1.42-.633-2.867-1.477-4.04-.946-1.314-2.237-2.059-3.706-2.671-1.275-.533-2.547-1.008-3.52-2.031-.955-1.001-1.54-2.299-1.815-3.644-.38-1.867-.106-3.808.397-5.624.338-1.22-1.555-1.738-1.892-.522-.9 3.248-.998 6.911.883 9.848a8.16 8.16 0 0 0 3.4 3.009c1.287.612 2.826.968 3.914 1.933 1.22 1.087 1.711 2.687 1.923 4.26.051.372.48.662.817.702.408.047.75-.134.977-.467 2.144-3.134 3.365-7.072 2.642-10.86-.714-3.742-3.576-6.723-6.968-8.272-2.187-1-4.514-1.494-6.901-1.718-.53-.051-.982.487-.982.981.004.576.456.937.986.984M85.564 147.078c.726 1 1.546 1.918 2.606 2.573.997.62 2.136.929 3.298 1.035 2.673.24 5.66-1.051 8.197.2 1.036.51 1.877-.674 1.19-1.541-1.5-1.883-3.027-3.777-4.888-5.322-1.892-1.569-4.248-2.918-6.8-2.601-.526.067-.981.404-.981.981 0 .478.451 1.047.981.98 2.175-.27 4.13.902 5.736 2.303 1.716 1.494 3.152 3.271 4.566 5.047l1.189-1.541c-1.335-.659-2.775-.843-4.251-.769-1.374.071-2.733.338-4.11.338-.986 0-1.98-.161-2.823-.62-.9-.486-1.618-1.228-2.215-2.051-.31-.428-.851-.64-1.342-.353-.424.247-.668.91-.353 1.341M91.915 138.716c1.503 1.734 3.6 2.965 5.841 3.46 1.15.251 2.317.313 3.487.196 1.087-.114 2.39-.432 3.419.074.864.424 1.841-.447 1.343-1.341a20 20 0 0 0-1.806-2.714c-.621-.785-1.441-1.542-2.454-1.746-1.091-.219-2.124.279-3.207.142-.876-.11-1.618-.581-2.175-1.244-.342-.408-1.037-.353-1.39 0-.404.404-.341.981 0 1.389a5.2 5.2 0 0 0 2.414 1.596c1.068.345 2.058.192 3.141.039.938-.133 1.5.283 2.089.973.655.776 1.201 1.667 1.692 2.553l1.342-1.341c-2.214-1.087-4.605.008-6.929-.381a9.15 9.15 0 0 1-5.425-3.043c-.346-.4-1.033-.357-1.39 0-.389.396-.341.984.008 1.388M40.153 191.225a44.7 44.7 0 0 0 3.302-7.872c.793-2.565 1.233-5.271 2.328-7.73 2.002-4.499 6.281-7.354 10.78-8.997 2.956-1.079 6.042-1.746 9.112-2.404 1.233-.267.71-2.158-.522-1.891-5.335 1.149-10.875 2.373-15.382 5.616-2.033 1.463-3.831 3.279-5.072 5.468-1.378 2.439-1.966 5.197-2.693 7.871a42.5 42.5 0 0 1-3.549 8.951c-.596 1.11 1.1 2.102 1.696.988"/><path d="M67.748 162.033c-1.634.125-3.279-.11-4.786-.757-1.43-.612-2.485-1.675-3.635-2.683-2.407-2.106-5.43-3.145-8.633-2.945-1.783.11-3.502.565-5.104 1.353-.475.235-.604.91-.353 1.341.283.487.864.585 1.343.353 2.547-1.251 5.61-1.467 8.295-.545 1.335.459 2.43 1.255 3.466 2.193 1.147 1.035 2.277 2.043 3.71 2.663 1.794.78 3.741 1.141 5.697.992.53-.039.98-.42.98-.981 0-.502-.45-1.023-.98-.984"/><path d="M46.644 158.456c2.418-2.894 5.272-5.711 9.245-5.977 3.148-.208 7.105-.051 9.296 2.577 1.468 1.765 1.767 4.267 2.046 6.459.066.526.404.981.98.981.48 0 1.05-.451.982-.981-.298-2.353-.612-4.808-1.896-6.867-1.083-1.738-2.791-2.883-4.719-3.507-1.853-.6-3.859-.737-5.794-.67-2.183.07-4.232.517-6.128 1.643-2.12 1.259-3.836 3.075-5.402 4.954-.338.407-.4.988 0 1.388.35.349 1.048.408 1.39 0M78.583 152.31c-.36-3.977-1.554-8.009-4.46-10.892-1.338-1.329-2.995-2.337-4.824-2.831-1.837-.495-3.78-.467-5.638-.094-2.116.427-4.141 1.341-5.924 2.549-.33.223-.53.569-.467.976.051.342.322.761.703.816 1.358.188 2.795.573 3.836 1.51 1.103.989 1.53 2.452 2.096 3.773.62 1.455 1.488 2.667 2.76 3.624 1.225.922 2.709 1.498 4.22 1.73 2.057.314 4.134.07 6.132-.475 1.217-.333.699-2.223-.522-1.89-2.913.796-6.317.929-8.817-1.043-2.368-1.863-2.313-5.268-4.59-7.201-1.295-1.102-2.92-1.683-4.589-1.914l.236 1.792c2.68-1.82 6.096-3.047 9.367-2.416 3.266.632 5.692 3.055 7.054 6.001.864 1.871 1.284 3.945 1.472 5.985.047.525.416.98.982.98.487 0 1.02-.451.973-.98M86.427 144.337c-2.022-1.059-3.628-2.761-3.773-5.134-.09-1.491.243-2.977.38-4.452.15-1.608.028-3.177-.67-4.651l-1.544 1.188c1.732 1.428 3.463 2.879 4.92 4.601 1.275 1.506 2.551 3.533 2.265 5.569-.075.525.13 1.055.687 1.208.459.125 1.134-.157 1.209-.686.734-5.193-4.118-9.127-7.687-12.077-.867-.713-2.026.157-1.543 1.189.664 1.404.491 3.024.306 4.518-.188 1.518-.424 3.016-.176 4.542.428 2.647 2.32 4.667 4.636 5.879 1.115.584 2.108-1.11.99-1.694M93.803 137.795a9.17 9.17 0 0 1-3.03-5.429c-.385-2.325.718-4.706-.365-6.922l-1.343 1.341c.864.483 1.731 1.012 2.493 1.648.714.6 1.166 1.168 1.024 2.137-.157 1.055-.306 2.016.012 3.063a5.23 5.23 0 0 0 1.618 2.487c.404.341.989.396 1.39 0 .349-.349.408-1.043 0-1.389-.66-.553-1.124-1.29-1.237-2.157-.142-1.086.377-2.125.145-3.224-.204-.988-.919-1.792-1.68-2.408a20 20 0 0 0-2.772-1.859c-.895-.502-1.763.483-1.343 1.341.503 1.032.181 2.334.067 3.421a10.8 10.8 0 0 0 .189 3.482 10.9 10.9 0 0 0 3.447 5.844c.4.349.993.392 1.39 0 .353-.345.396-1.027-.005-1.376"/><path d="M67.599 163.696c2.241-1.349 4.503-2.738 6.418-4.538.947-.89 1.806-1.898 2.493-3.004.734-1.181 1.131-2.577 1.99-3.679 1.442-1.855 3.856-2.659 5.744-3.946 2.3-1.569 3.828-3.851 5.645-5.906 1.873-2.118 4.236-3.644 6.388-5.444 2.018-1.691 3.702-3.738 4.923-6.072 2.414-4.608 3.113-9.946 2.394-15.068-.875-6.248-3.776-12.057-7.42-17.14-.306-.431-.855-.635-1.342-.353-.424.247-.663.91-.353 1.342 3.164 4.42 5.747 9.33 6.874 14.68 1.009 4.789.71 9.966-1.319 14.461-.99 2.192-2.356 4.192-4.11 5.848-2.058 1.937-4.511 3.408-6.521 5.4-1.861 1.848-3.25 4.126-5.237 5.856-1.81 1.577-4.15 2.381-6.003 3.91-1.162.961-1.873 2.185-2.508 3.53-.597 1.267-1.312 2.42-2.27 3.444-1.931 2.067-4.373 3.541-6.776 4.988-1.083.648-.098 2.346.99 1.691M53.419 162.629a181 181 0 0 1-17.035 3.612c-.522.087-.816.734-.687 1.208.153.557.683.769 1.21.687a180 180 0 0 0 17.034-3.613c1.22-.321.702-2.216-.523-1.894M65.915 176.698a179 179 0 0 1-3.306 17.08c-.298 1.228 1.594 1.749 1.892.522a181 181 0 0 0 3.306-17.081c.074-.521-.13-1.055-.687-1.208-.46-.125-1.13.161-1.206.687M76.393 5.9a47 47 0 0 1-3.475 8.416c-1.401 2.628-3.097 5.091-4.244 7.848-2.43 5.844-1.142 12.296 1.453 17.846 1.468 3.134 3.349 6.052 5.217 8.958.684 1.059 2.383.074 1.696-.989-3.215-4.989-6.536-10.15-7.486-16.12-.456-2.859-.26-5.808.761-8.53 1.005-2.679 2.674-5.047 4.04-7.542a49.3 49.3 0 0 0 3.93-9.362c.369-1.216-1.523-1.733-1.892-.525"/><path d="M78.532 49.826c-2.426-2.73-5.884-3.851-9.37-4.498-.856-.161-1.716-.298-2.576-.447-.805-.138-1.617-.216-2.402-.451-1.465-.44-2.74-1.326-3.789-2.432-1.233-1.302-2.135-2.91-2.736-4.593-.177-.498-.671-.831-1.21-.686-.482.133-.863.706-.686 1.208 1.142 3.208 3.254 6.299 6.407 7.809 1.597.765 3.31.937 5.032 1.231 1.716.29 3.444.596 5.096 1.15 1.865.623 3.533 1.623 4.845 3.098.84.941 2.226-.447 1.39-1.389"/><path d="M55.488 37.433c-.216 2.345-.295 4.706.106 7.04a13 13 0 0 0 2.98 6.354c2.912 3.365 7.027 6.71 11.78 5.918 2.816-.47 5.163-2.286 7.358-3.985.42-.325.341-1.047 0-1.388-.413-.412-.966-.326-1.39 0-1.727 1.337-3.553 2.73-5.696 3.306-1.967.526-3.934.067-5.677-.918-1.763-.992-3.258-2.392-4.601-3.886-1.41-1.565-2.332-3.334-2.76-5.401-.479-2.31-.35-4.71-.133-7.044.047-.53-.487-.98-.982-.98-.573.003-.934.454-.985.984M76.443 66.064c-3.144 2.612-7.003 4.644-11.2 4.448-3.706-.173-6.74-2.365-8.61-5.48-1.04-1.733-1.71-3.643-2.088-5.624-.479.369-.962.737-1.44 1.106 1.409 1.07 3.026 1.863 4.797 2.079 1.77.212 3.384-.396 4.982-1.075 1.523-.647 3.015-1.157 4.695-.945 1.582.2 3.11.922 4.342 1.918 1.453 1.176 2.571 2.679 3.49 4.294.624 1.099 2.32.11 1.696-.988-1.724-3.04-4.252-5.77-7.683-6.816-1.723-.526-3.584-.565-5.308-.028-1.597.498-3.081 1.447-4.754 1.69-1.931.28-3.78-.69-5.268-1.82-.306-.23-.817-.14-1.092.08-.325.258-.427.627-.353 1.03.722 3.825 2.61 7.625 5.732 10.049 3.682 2.863 8.62 3.122 12.892 1.47 2.418-.933 4.57-2.345 6.556-3.996.409-.337.35-1.035 0-1.388-.4-.404-.977-.341-1.386-.004M75.623 77.324c-1.488-.235-3.011-.306-4.468.137-1.358.412-2.551 1.212-3.556 2.2-1.96 1.93-3.33 4.88-6.09 5.81-1.095.368-.82 1.803.26 1.925 4.142.467 8.739 1.008 12.645-.796 1.068-.494 2.05-1.224 2.771-2.157.326-.42.409-.98 0-1.389-.337-.337-1.06-.42-1.39 0-1.51 1.95-3.988 2.577-6.383 2.75-2.551.184-5.107-.087-7.643-.37l.259 1.927c2.881-.97 4.424-3.491 6.336-5.656.82-.926 1.782-1.8 2.952-2.236 1.213-.45 2.513-.458 3.785-.254.522.082 1.056-.134 1.209-.687.126-.463-.161-1.118-.687-1.204M77.253 88.95a12.1 12.1 0 0 0-7.636 2.097c-1.095.761-1.998 1.671-2.827 2.715-.695.874-1.433 1.953-2.54 2.321-.899.302-.965 1.616 0 1.89 1.253.354 2.544.628 3.844.742 1.2.106 2.426-.082 3.376-.87.809-.671 1.19-1.715 2.026-2.358.793-.608 1.77-.835 2.755-.749.53.047.982-.486.982-.98 0-.57-.452-.934-.982-.981-1.107-.098-2.23.157-3.207.678-1.017.546-1.684 1.385-2.336 2.307-.589.831-1.3 1.059-2.3 1.012-1.225-.06-2.458-.361-3.632-.695v1.89c2.493-.835 3.518-3.47 5.504-4.996a10.3 10.3 0 0 1 6.972-2.07c.53.038.982-.48.982-.981 0-.553-.451-.938-.981-.973M76.628 6.449a49.6 49.6 0 0 0 3.42 8.409c1.334 2.572 3.007 4.969 4.192 7.62 2.442 5.467 1.221 11.598-1.264 16.814-1.449 3.044-3.282 5.883-5.104 8.711-.687 1.063 1.013 2.047 1.696.988 3.298-5.118 6.71-10.464 7.687-16.586.483-3.028.408-6.166-.589-9.088-.97-2.847-2.642-5.357-4.11-7.957a46.8 46.8 0 0 1-4.032-9.437c-.369-1.2-2.265-.686-1.896.526"/><path d="M77.77 51.243a11.6 11.6 0 0 1 4.052-3.056c1.786-.812 3.647-.792 5.559-.933 3.54-.263 6.729-1.906 9.037-4.605a14.8 14.8 0 0 0 2.791-4.887c.405-1.196-1.488-1.714-1.892-.521-.977 2.883-3.07 5.4-5.751 6.855-1.48.805-3.059 1.138-4.735 1.232-.997.055-1.99.09-2.98.235-.98.142-1.903.444-2.81.836a12.9 12.9 0 0 0-4.668 3.459c-.342.404-.397.992 0 1.388.365.346 1.056.4 1.397-.004"/><path d="M97.462 37.46c.377 4.087.4 8.59-2.414 11.9-2.383 2.8-5.948 6.134-9.964 5.522-2.47-.376-4.57-1.992-6.49-3.479-.42-.325-.98-.408-1.39 0-.337.338-.42 1.06 0 1.389 1.983 1.533 4.029 3.106 6.482 3.788 2.34.651 4.731.228 6.867-.874 2.025-1.047 3.776-2.624 5.303-4.299 1.602-1.76 2.764-3.741 3.302-6.075.593-2.58.51-5.248.267-7.864-.047-.525-.416-.98-.981-.98-.491-.008-1.03.443-.982.972M77.084 67.48c3.537 2.941 7.86 5.24 12.586 5.024 2.202-.102 4.377-.757 6.203-2.012 1.64-1.13 2.991-2.624 4.028-4.318 1.162-1.899 1.947-4.036 2.359-6.217.075-.392-.016-.78-.353-1.031-.287-.212-.778-.314-1.092-.079-1.307.993-2.85 1.848-4.534 1.86-1.7.015-3.243-.903-4.793-1.487-3.502-1.322-7.2-.341-10.015 2.012-1.512 1.263-2.705 2.887-3.675 4.589-.624 1.098 1.072 2.09 1.696.988 1.602-2.82 3.942-5.389 7.232-6.106 1.672-.365 3.219-.024 4.773.615 1.57.644 3.121 1.38 4.86 1.346 1.999-.044 3.879-.938 5.446-2.126-.479-.369-.962-.738-1.441-1.106-.644 3.412-2.23 6.808-5.002 9.005-3.156 2.502-7.396 2.569-11.047 1.2-2.14-.804-4.094-2.098-5.845-3.55-.409-.337-.99-.4-1.39 0-.346.357-.404 1.055.004 1.393M77.11 79.944c1.453-.455 3-.675 4.496-.298 1.452.369 2.61 1.243 3.588 2.357 1.97 2.248 3.459 4.918 6.438 5.966l.26-1.926c-2.517.243-5.057.467-7.585.25-2.266-.191-4.868-.83-6.246-2.666-.318-.424-.848-.64-1.343-.353-.416.243-.671.914-.353 1.341 2.771 3.69 7.942 3.899 12.166 3.663a87 87 0 0 0 3.36-.274c1.096-.106 1.34-1.545.26-1.926-2.156-.76-3.479-2.859-4.83-4.565-.796-1.008-1.652-1.946-2.728-2.663-1.068-.714-2.296-1.134-3.568-1.29-1.492-.185-3.011.046-4.44.494-1.198.376-.683 2.266.526 1.89M76.486 90.938c2.49-.177 4.99.549 6.973 2.07 1.986 1.522 3.01 4.158 5.504 4.997v-1.89c-1.15.325-2.356.62-3.553.69-1.029.059-1.77-.145-2.38-1.008-.64-.906-1.287-1.722-2.272-2.27a5.76 5.76 0 0 0-3.27-.719c-.527.047-.982.416-.982.981 0 .494.451 1.028.981.98.978-.086 1.944.142 2.737.738.852.64 1.232 1.69 2.045 2.369.926.772 2.12.972 3.298.878 1.323-.106 2.646-.388 3.918-.749.965-.274.899-1.588 0-1.89-1.107-.373-1.846-1.447-2.54-2.322-.825-1.04-1.728-1.953-2.827-2.714a12.1 12.1 0 0 0-7.636-2.098c-.53.039-.981.423-.981.98.004.498.455 1.016.985.977"/><path d="M76.77 49.909c-.762 3.087-1.524 6.248-1.477 9.452.02 1.55.24 3.114.723 4.589.46 1.408 1.087 2.75 1.083 4.255-.004 1.479-.435 2.91-.828 4.323-.424 1.517-.797 3.04-.871 4.624-.15 3.212.663 6.38.486 9.597-.172 3.208-.95 6.37-.832 9.593.098 2.695.715 5.358 1.755 7.844 2.14 5.119 5.853 9.394 10.415 12.52 4.793 3.286 10.403 5.283 16.076 6.416q1.071.212 2.148.388c.522.087 1.056-.137 1.209-.686.129-.467-.161-1.122-.687-1.208-5.559-.914-11.063-2.549-15.927-5.44-4.55-2.706-8.382-6.522-10.76-11.276-1.12-2.235-1.9-4.691-2.164-7.177-.322-3.06.236-6.06.573-9.088.173-1.565.244-3.126.134-4.698-.11-1.585-.342-3.157-.436-4.746-.09-1.533-.008-3.028.35-4.522.34-1.42.812-2.808 1.087-4.248.286-1.51.337-3.028-.07-4.518-.39-1.424-1.018-2.753-1.285-4.216-.55-2.993-.004-6.099.664-9.029.169-.745.35-1.486.534-2.227.298-1.228-1.594-1.75-1.9-.522M88.582 39.48a201 201 0 0 1 10.584-16.316c.31-.431.075-1.09-.353-1.341-.495-.29-1.032-.079-1.343.353a201 201 0 0 0-10.584 16.316c-.636 1.09 1.06 2.078 1.696.988M67.58 38.347a201 201 0 0 1-10.918-16.093c-.656-1.074-2.356-.09-1.696.989a202 202 0 0 0 10.917 16.092c.318.423.848.64 1.343.353.42-.243.675-.914.353-1.341"/></g><defs><clipPath id="a"><path fill="#fff" d="M0 0h200v200H0z"/></clipPath></defs></svg>