<svg xmlns="http://www.w3.org/2000/svg" width="200" height="200" fill="none"><g fill="#000" clip-path="url(#a)"><path d="M102.639 37.295c-7.535-5.482-16.548-8.415-25.716-9.614-9.223-1.206-18.836-.823-27.937 1.1-9.112 1.921-17.758 5.876-24.428 12.486-6.224 6.176-10.59 14.136-13.01 22.529-2.882 9.987-3.093 20.59-1.755 30.844a111.7 111.7 0 0 0 6.491 25.584c6.17 16.036 15.877 30.7 28.31 42.57 6.491 6.199 13.716 11.536 21.44 16.097 8.751 5.171 17.958 9.52 26.71 14.686a137 137 0 0 1 6.258 3.916c1.494.994 2.882-1.411 1.399-2.4-8.296-5.527-17.253-9.92-25.999-14.675-8.046-4.371-15.831-9.159-22.84-15.086-12.721-10.764-22.961-24.356-29.924-39.492a110.6 110.6 0 0 1-7.803-23.74c-1.993-9.61-2.804-19.663-1.366-29.411 1.289-8.754 4.393-17.203 9.646-24.368 5.248-7.148 12.555-12.264 20.946-15.07 8.674-2.899 18.08-3.76 27.188-3.365 8.751.377 17.597 2.194 25.388 6.31a46 46 0 0 1 5.597 3.493c.606.44 1.55.106 1.899-.5.411-.694.112-1.45-.494-1.894"/><path d="M99.795.42c-8.94 10.503-15.454 23.022-18.852 36.398-1.832 7.22-2.915 14.714-1.9 22.146.928 6.737 3.45 13.147 6.653 19.113 3.676 6.843 8.263 13.147 12.872 19.38.445.6 1.205.905 1.899.5.595-.35.944-1.295.5-1.9-7.852-10.615-16.131-21.874-18.786-35.088-1.416-7.038-.683-14.17.889-21.124a87.4 87.4 0 0 1 6.508-18.696c3.248-6.738 7.33-13.065 12.178-18.758.483-.572.561-1.405 0-1.966-.495-.506-1.472-.584-1.96-.006"/><path d="M98.259 36.479c-7.102 8.81-13.416 18.208-19.33 27.845-5.947 9.692-11.628 19.568-17.17 29.5-2.815 5.043-5.514 10.159-7.824 15.452-2.338 5.349-4.254 10.865-6.042 16.419-3.698 11.487-7.269 23.013-10.9 34.516-3.504 11.109-7.064 22.385-7.669 34.105a65 65 0 0 0-.078 4.299c.017 1.05 1.172 1.733 2.088 1.2a204 204 0 0 0 31.375-22.418 203.3 203.3 0 0 0 26.46-27.745 204 204 0 0 0 12.533-17.758c.955-1.516-1.449-2.91-2.399-1.4a200 200 0 0 1-23.084 30c-8.646 9.271-18.153 17.752-28.387 25.24a202 202 0 0 1-17.903 11.687c.694.399 1.394.799 2.088 1.199-.155-11.547 2.993-22.745 6.397-33.671 3.56-11.426 7.191-22.823 10.795-34.232 1.738-5.505 3.493-11.004 5.603-16.375 2.094-5.321 4.626-10.448 7.341-15.475 5.37-9.948 11.095-19.74 16.915-29.428 5.736-9.542 11.789-18.924 18.591-27.75a180 180 0 0 1 2.555-3.233c.472-.583.572-1.394 0-1.966-.478-.5-1.483-.6-1.955-.011"/><path d="M99.774 39.695c7.202-5.238 15.804-8.137 24.594-9.27 8.974-1.156 18.358-.811 27.204 1.094 8.785 1.894 17.042 5.693 23.384 12.175 5.914 6.044 9.956 13.77 12.128 21.907 2.626 9.82 2.66 20.219 1.194 30.233-1.233 8.427-3.477 16.697-6.603 24.612-6.108 15.447-15.693 29.528-27.782 40.915-6.408 6.038-13.51 11.164-21.112 15.597-8.513 4.966-17.426 9.209-25.916 14.219a137 137 0 0 0-6.258 3.916c-1.483.983-.095 3.394 1.399 2.4 8.552-5.699 17.808-10.193 26.81-15.114 8.207-4.494 16.07-9.481 23.184-15.586 12.999-11.159 23.461-25.312 30.402-40.97 3.482-7.854 6.125-16.075 7.747-24.512 1.938-10.07 2.56-20.457.866-30.605-1.499-8.993-4.981-17.68-10.578-24.906-5.648-7.3-13.278-12.437-22.029-15.314-8.902-2.922-18.603-3.8-27.932-3.366-9.157.427-18.358 2.366-26.51 6.676a46 46 0 0 0-5.597 3.494c-.606.439-.905 1.205-.5 1.9.355.605 1.3.95 1.905.505"/><path d="M99.25 2.38c8.625 10.137 14.861 22.273 18.137 35.171 1.738 6.854 2.871 14.064 1.833 21.124-.956 6.504-3.404 12.658-6.536 18.402-3.638 6.682-8.13 12.858-12.645 18.968-.444.606-.1 1.55.5 1.9.705.411 1.45.106 1.899-.5 8.08-10.926 16.559-22.573 19.153-36.21 1.41-7.398.672-14.847-.978-22.145-1.51-6.688-3.809-13.187-6.785-19.363-3.354-6.955-7.614-13.442-12.611-19.325-.489-.572-1.46-.5-1.966 0-.567.578-.489 1.406 0 1.978"/><path d="M100.789 38.44c6.98 8.66 13.167 17.93 18.975 27.411 5.892 9.61 11.522 19.397 17.014 29.24 2.794 4.998 5.47 10.064 7.775 15.307 2.315 5.266 4.17 10.715 5.93 16.186 3.66 11.387 7.208 22.812 10.801 34.216 3.443 10.914 7.019 22.007 7.619 33.516q.11 2.15.077 4.299l2.088-1.2a200.4 200.4 0 0 1-30.808-21.985 204 204 0 0 1-26.299-27.533c-4.403-5.571-8.485-11.393-12.267-17.403-.949-1.51-3.353-.116-2.398 1.4a204 204 0 0 0 23.517 30.561 205 205 0 0 0 28.736 25.517 201 201 0 0 0 18.12 11.843c.922.533 2.077-.15 2.088-1.2.161-11.737-2.993-23.151-6.453-34.266-3.587-11.52-7.252-23.023-10.884-34.527-1.754-5.549-3.526-11.103-5.675-16.513-2.138-5.394-4.681-10.609-7.435-15.72-5.409-10.036-11.19-19.918-17.065-29.688-5.83-9.687-11.994-19.191-18.913-28.14-.85-1.1-1.716-2.193-2.588-3.276-.472-.584-1.472-.49-1.966 0-.566.572-.461 1.371.011 1.955"/></g><defs><clipPath id="a"><path fill="#fff" d="M0 0h200v200H0z"/></clipPath></defs></svg>