<svg xmlns="http://www.w3.org/2000/svg" width="200" height="200" fill="none"><path fill="#000" d="M39.767 103.677c13.143-10.585 27.369-21.834 44.788-23.57 9.476-.946 18.976.508 28.115 3.003 8.922 2.432 17.432 6.099 26.724 6.973 10.06.946 20.218-.971 29.351-5.224 2.836-1.319.367-5.51-2.456-4.195-8.02 3.731-16.951 5.296-25.766 4.655-9.425-.687-18.113-4.639-27.146-7.055-9.142-2.445-18.749-3.916-28.222-3.074-8.886.79-17.26 3.706-25.03 8.026-8.545 4.752-16.209 10.913-23.797 17.025-1.032.829-.85 2.568 0 3.436 1 1.021 2.423.82 3.439 0"/><path fill="#000" d="M44.604 99.979c2.952-.101 5.58 1.169 8.221 2.335 2.907 1.282 5.785 2.225 8.938 2.685 6.742.978 13.626 1.47 20.436 1.451 13.315-.036 26.049-3.071 38.39-7.932 6.872-2.708 13.578-5.811 20.268-8.927 2.835-1.322.366-5.51-2.456-4.195-11.417 5.319-22.935 10.657-35.214 13.692-12.864 3.177-26.176 2.954-39.257 1.341-3.53-.434-6.667-1.432-9.901-2.864-3.02-1.337-6.064-2.555-9.428-2.442-3.121.104-3.134 4.962.003 4.855"/><path fill="#000" d="M44.552 99.966c4.539 13.62 16.767 23.884 30.76 26.822 15.825 3.32 32.271-2.488 44.343-12.765 3.796-3.233 7.196-6.893 10.57-10.553 3.711-4.026 7.416-8.052 11.125-12.078 2.118-2.3-1.318-5.743-3.443-3.437-5.859 6.362-11.556 12.95-17.74 19-5.495 5.384-11.822 9.892-19.041 12.675-13.068 5.036-27.654 4.259-39.204-4.023-5.827-4.179-10.408-10.122-12.676-16.93-.986-2.955-5.687-1.691-4.694 1.288"/><path fill="#000" d="M86.965 115.74c3.819 0 7.475-3.353 7.3-7.288-.179-3.949-3.209-7.288-7.3-7.288-3.819 0-7.475 3.352-7.3 7.288.179 3.948 3.209 7.288 7.3 7.288"/><path fill="#000" fill-rule="evenodd" d="m101.219 101.196.18.57c.454 1.437.705 2.967.705 4.558 0 8.345-6.776 15.11-15.135 15.11s-15.135-6.765-15.135-15.11c0-1.289.163-2.541.468-3.736l.227-.89.763.512a.76.76 0 0 0 .472.124l.039-.004c.015-.002.04-.006.097-.012l.1-.011.1.019q.03.006.062.008l.003.001h.003c5.552.401 11.057.065 16.522-.788l.503-.078.196.469c.206.491.68.793 1.183.677 1.366-.314 2.749-.488 4.095-.657l.01-.001c1.353-.169 2.668-.334 3.959-.628zm-4.39 2.048c-1.357.17-2.674.336-3.965.634-1.051.242-1.93-.274-2.42-.982-5.399.814-10.853 1.129-16.367.731a2 2 0 0 1-.117-.011c-.04.005-.09.01-.13.012h-.002q-.222.01-.428-.021a14 14 0 0 0-.268 2.717c0 7.629 6.195 13.814 13.837 13.814s13.837-6.185 13.837-13.814a13.8 13.8 0 0 0-.48-3.604c-1.157.231-2.321.377-3.458.519z" clip-rule="evenodd"/><path fill="#000" d="M34.225 93.876c7.19-6.374 14.265-12.924 21.805-18.893 6.963-5.513 14.59-10.585 23.048-13.475 8.935-3.05 18.084-2.934 27.32-1.46 9.513 1.519 18.967 3.98 28.648 4.097 10.868.13 21.208-3.388 29.39-10.608 2.352-2.076-1.1-5.5-3.442-3.436-7.056 6.225-16.037 9.205-25.387 9.189-9.733-.016-19.206-2.595-28.767-4.062-9.35-1.435-18.7-1.678-27.82 1.189-8.546 2.688-16.284 7.4-23.386 12.771-8.694 6.579-16.701 14.028-24.851 21.255-2.346 2.08 1.106 5.503 3.442 3.433M34.52 131.242c4.478.686 8.154 3.711 12.099 5.729a72.7 72.7 0 0 0 12.186 4.895c8.191 2.455 16.877 3.478 25.416 3.035 8.789-.454 17.435-2.42 25.52-5.892 8.737-3.751 16.234-9.568 24.205-14.641a104.8 104.8 0 0 1 30.101-13.085c3.031-.784 1.746-5.471-1.294-4.684-9.324 2.41-18.347 6.044-26.711 10.822-8.383 4.79-15.9 10.986-24.507 15.401-14.921 7.654-32.749 9.27-48.928 5.063-4.513-1.173-8.902-2.779-13.071-4.868-4.474-2.245-8.663-5.679-13.727-6.456-1.308-.201-2.602.331-2.995 1.697-.324 1.144.41 2.786 1.707 2.984"/><path fill="#000" d="M40.922 133.674c4.37 1.179 1.135 8.422.62 11.068-.458 2.348-.578 4.803.34 7.054.86 2.109 2.459 3.56 4.282 4.846 1.613 1.137 3.163 2.115 4.461 3.625 1.227 1.425 2.249 3.009 3.475 4.434 2.88 3.342 7.001 4.93 11.284 3.3 4.662-1.775 9.145-6.377 7.773-11.718-.775-3.026-5.47-1.743-4.691 1.292.568 2.206-1.596 4.165-3.313 5.179-1.946 1.15-4.123 1.555-6.024.107-1.457-1.108-2.498-2.747-3.595-4.182-1.46-1.911-2.965-3.52-4.948-4.9-1.807-1.26-4.097-2.368-4.487-4.771-.405-2.491.688-4.998 1.272-7.376 1.181-4.81.497-11.119-5.158-12.645-3.027-.813-4.318 3.871-1.291 4.687M95.166 142.371c2.236 6.067 4.636 12.104 6.57 18.274 1.794 5.721 3.053 11.658 2.446 17.676-.49 4.852-2.349 9.772-5.856 13.251-3.085 3.061-9.204 5.7-12.64 1.564-1.307-1.571-1.492-4.227.12-5.675.88-.79 2.1-1.195 3.063-1.878 1.213-.865 2.021-1.882 2.518-3.291 1.041-2.954-3.657-4.227-4.692-1.292-.288.813-1.787 1.282-2.462 1.681-1.269.754-2.391 1.681-3.163 2.957-1.47 2.423-1.655 5.526-.59 8.136 2.504 6.138 10.083 7.518 15.673 5.102 12.626-5.452 14.485-21.54 11.942-33.323-1.81-8.393-5.275-16.438-8.234-24.471-1.074-2.915-5.778-1.655-4.695 1.289M130.63 121.453c-1.995 6.507-3.988 13.682-1.665 20.383 1.992 5.75 6.249 11.013 10.152 15.609 3.754 4.422 8.254 8.296 13.779 10.288 2.89 1.042 6.258 1.519 8.977-.243 2.141-1.39 3.364-3.8 3.945-6.219.717-2.977 1.028-6.598.165-9.565-.95-3.268-3.854-6.119-7.455-5.814-3.099.262-3.125 5.124 0 4.858 4.347-.369 3.137 7.589 2.371 10.054-.493 1.591-1.391 2.957-3.192 3.025-2.132.081-4.474-1.055-6.291-2.073-3.906-2.183-7.047-5.473-9.833-8.92-2.907-3.592-6.223-7.657-7.835-12.023-2.194-5.937-.198-12.295 1.57-18.067.924-2.996-3.77-4.276-4.688-1.293M118.986 58.895c.328-4.39 3.994-7.628 7.086-10.34 3.28-2.876 6.57-5.797 8.435-9.83 3.403-7.353 2.836-16.428-2.047-23.007-.788-1.062-2.099-1.57-3.329-.871-1.048.596-1.654 2.27-.872 3.323 4.425 5.967 4.798 14.326.674 20.565-2.358 3.57-6.125 5.966-9.106 8.965-3.07 3.087-5.376 6.776-5.707 11.195-.231 3.119 4.636 3.103 4.866 0M56.942 68.08c-3.994-.677-8-1.308-11.988-2.027-1.492-.269-3.153-.525-4.276-1.636-.93-.92-1.375-2.267-1.567-3.534-.525-3.453.74-6.99.993-10.42.256-3.491-.503-6.853-2.767-9.57-2.005-2.407-5.431 1.045-3.443 3.436 2.262 2.71 1.295 6.876.795 10.005-.574 3.592-.915 7.2.597 10.618 1.418 3.2 4.224 4.959 7.582 5.639 4.227.855 8.523 1.457 12.78 2.176 3.062.519 4.38-4.165 1.294-4.686M85.527 56.245c-2.897-4.09-7.38-5.684-12.068-6.857-4.792-1.198-9.305-2.3-12.783-6.06-3.689-3.99-4.86-9.235-4.056-14.514.876-5.769 2.969-11.317 2.087-17.222-.763-5.105-3.741-10.074-8.974-11.496-3.027-.822-4.318 3.865-1.295 4.684 3.91 1.063 5.467 5.477 5.652 9.15.285 5.708-2.17 11.214-2.557 16.882-.363 5.328 1.327 10.498 4.627 14.676 3.092 3.92 7.312 6.268 12.069 7.59 4.318 1.198 10.28 1.645 13.097 5.619 1.794 2.533 6.015.107 4.201-2.452M112.472 109.919c3.131 0 3.137-4.859 0-4.859-3.134 0-3.137 4.859 0 4.859"/><path fill="#000" fill-rule="evenodd" d="M112.472 100.328c-3.962 0-7.174 3.207-7.174 7.162s3.212 7.161 7.174 7.161c3.961 0 7.173-3.206 7.173-7.161s-3.212-7.162-7.173-7.162m-8.471 7.162c0-4.671 3.792-8.457 8.471-8.457 4.678 0 8.471 3.786 8.471 8.457 0 4.67-3.793 8.457-8.471 8.457-4.679 0-8.471-3.787-8.471-8.457M75.169 33.954c-3.54 0-6.408 2.864-6.408 6.397s2.869 6.397 6.408 6.397c3.538 0 6.407-2.864 6.407-6.397s-2.869-6.397-6.407-6.397m-7.706 6.397c0-4.248 3.45-7.693 7.706-7.693 4.255 0 7.705 3.445 7.705 7.693 0 4.249-3.45 7.693-7.705 7.693-4.256 0-7.706-3.444-7.706-7.693" clip-rule="evenodd"/><path fill="#000" d="M75.091 42.861c3.131 0 3.138-4.858 0-4.858-3.13 0-3.137 4.858 0 4.858"/></svg>