<svg xmlns="http://www.w3.org/2000/svg" width="200" height="200" fill="none"><g fill="#000" clip-path="url(#a)"><path d="M79.65 59.342c5.639-5.11 5.619-13.068 4.93-20.06-.42-4.24-1.064-8.555-.322-12.796.782-4.476 3.211-8.344 5.677-12.08 2.718-4.12 5.587-8.28 6.789-13.134.313-1.267-1.65-1.812-1.965-.54-2.139 8.648-9.662 14.721-12.033 23.28-2.176 7.86.737 15.876.037 23.83-.335 3.81-1.667 7.45-4.556 10.066-.97.877.472 2.311 1.442 1.434M96.655 198.076c-3.716-2.442-6.439-6.029-8.272-10.038-2.01-4.387-2.812-9.242-3.562-13.97-1.606-10.087-2.192-20.356-4.641-30.3-1.219-4.96-2.93-9.815-5.33-14.336-.555-1.048-1.496-1.954-2.205-2.909a58 58 0 0 1-2.075-2.965 62 62 0 0 1-3.553-6.15c-4.336-8.616-6.549-18.264-6.292-27.904.065-2.494.265-4.997.717-7.454.481-2.608 1.174-5.224 1.17-7.893-.004-1.247-.167-2.527-.567-3.713-.216-.642-.432-1.068-.925-1.528a26 26 0 0 1-1.295-1.295c-1.512-1.63-2.837-3.522-3.493-5.663a9.7 9.7 0 0 1-.412-3.4q-.371.49-.75.979c3.913-1.43 7.919.633 11.615 1.803 1.25.398 1.789-1.564.542-1.958-4.071-1.287-8.395-3.375-12.698-1.803-.448.162-.721.5-.75.979-.13 2.405.562 4.749 1.748 6.824.579 1.012 1.272 1.954 2.021 2.848q.57.672 1.182 1.3c.285.292.958.817 1.068.97.322.436.424 1.305.521 1.825.119.646.151 1.304.147 1.958-.008 1.312-.2 2.608-.44 3.895-.489 2.629-1.023 5.22-1.251 7.893-.844 9.799.864 19.735 4.715 28.773a62 62 0 0 0 7.294 12.703c.71.951 1.647 1.865 2.205 2.909a50 50 0 0 1 1.691 3.497c1.04 2.36 1.89 4.806 2.608 7.28 2.901 9.973 3.582 20.396 5.05 30.629 1.336 9.307 3.055 19.34 10.484 25.905a24 24 0 0 0 2.702 2.056c1.1.727 2.123-1.032 1.031-1.747"/><path d="M79.971 72.926c-3.86-3.875-7.45-8.027-11.129-12.073-3.55-3.9-7.221-7.726-10.522-11.842-2.869-3.578-5.346-7.486-6.769-11.865-1.287-3.961-1.805-8.157-1.393-12.309.44-4.456 2.09-8.847 5-12.292h-1.443c5.779 6.43 11.093 13.304 15.355 20.835 4.344 7.67 7.519 16.017 8.823 24.751.737 4.928.815 9.965.187 14.909-.07.544.518 1.015 1.019 1.015.607 0 .95-.467 1.019-1.015 1.145-9.035-.139-18.268-3.044-26.864-2.849-8.425-7.246-16.257-12.458-23.447-2.934-4.042-6.117-7.901-9.454-11.618-.346-.386-1.1-.402-1.443 0-5.737 6.8-6.862 16.253-4.686 24.674 1.174 4.537 3.354 8.669 6.125 12.434 3.17 4.306 6.887 8.186 10.481 12.138 2.168 2.385 4.336 4.765 6.504 7.15 2.103 2.311 4.18 4.643 6.385 6.857.925.926 2.368-.508 1.443-1.438M68.496 85.117c1.72 1.564 3.11 3.497 3.945 5.67.904 2.353 1.186 4.888 2.188 7.211 1.883 4.363 6.394 6.849 10.897 7.698 3.073.581 6.206.565 9.32.528 1.312-.016 1.312-2.047 0-2.031-4.846.057-10.03.126-14.3-2.502-1.801-1.109-3.305-2.677-4.124-4.64-.917-2.189-1.165-4.59-2.017-6.804a17.2 17.2 0 0 0-4.47-6.568c-.966-.878-2.413.556-1.439 1.438M92.856 195.403c-.114-2.677-.224-5.354-.338-8.031-.025-.549-.453-1.016-1.019-1.016-.534 0-1.043.463-1.019 1.016.114 2.677.224 5.354.339 8.031.024.548.452 1.015 1.018 1.015.534 0 1.044-.467 1.02-1.015"/><path d="M92.596 188.302v8.34c0 1.308 2.037 1.308 2.037 0v-8.34c0-1.308-2.037-1.312-2.037 0M96.076 183.862c-2.18-1.154-3.953-2.917-5.163-5.057a13 13 0 0 1-1.345-3.47 11.4 11.4 0 0 1-.302-2.644c0-.008 0-.289.025-.276-.017-.009-.143.203-.147.195.012.024.09.012.085.008.115.069.506 0 .648.004q.337.008.673.028c.436.025.872.061 1.304.122.909.122 1.81.325 2.694.577 1.263.361 1.8-1.601.541-1.958a20.3 20.3 0 0 0-5.692-.8c-.917.004-1.79.325-2.07 1.287-.212.723-.094 1.589-.009 2.324a15.2 15.2 0 0 0 3.692 8.238 14.3 14.3 0 0 0 4.035 3.185c1.157.601 2.188-1.15 1.03-1.763M53.231 44.198c4.74-1.946 10.51-.35 13.415 3.904 3.073 4.497 3.289 10.257 5.783 15.038.713 1.369 1.67 2.551 2.567 3.798.864 1.203 1.67 2.482 1.532 4.018-.049.548.505 1.015 1.019 1.015.59 0 .97-.467 1.019-1.015.285-3.128-2.27-5.358-3.782-7.792-1.492-2.4-2.237-5.15-3.012-7.84-.786-2.725-1.605-5.529-3.158-7.937a13.1 13.1 0 0 0-6.61-5.265c-2.966-1.072-6.381-1.089-9.311.118-.51.207-.872.674-.713 1.25.13.476.742.919 1.251.708"/><path d="M49.852 35.598c3.489-1.121 7.384-.865 10.69.74a14.04 14.04 0 0 1 7.033 7.843c.7 1.946.99 3.982.831 6.041-.04.548.497 1.016 1.019 1.016.587 0 .978-.468 1.019-1.016.313-4.095-1.052-8.19-3.59-11.394-2.605-3.283-6.48-5.294-10.616-5.822a16.1 16.1 0 0 0-6.924.63c-1.247.402-.717 2.364.538 1.962"/><path d="M49.575 22.46c4.858 3.149 8.741 7.638 11.21 12.858.237.495.95.625 1.394.365.51-.296.6-.89.367-1.39-2.616-5.528-6.801-10.256-11.94-13.583-1.108-.715-2.131 1.04-1.03 1.75"/><path d="M62.436 34.777a13.5 13.5 0 0 1 2.367-9.335c.318-.45.082-1.129-.366-1.389-.51-.297-1.076-.085-1.394.366-2.099 2.981-3.064 6.743-2.649 10.363.061.544.424 1.015 1.019 1.015.51-.004 1.088-.471 1.023-1.02M121.773 57.904c-5.396-4.887-4.952-12.65-4.271-19.26.448-4.326.949-8.66.134-12.978-.839-4.465-3.264-8.397-5.729-12.138-2.653-4.022-5.514-8.06-6.687-12.804-.314-1.268-2.278-.732-1.964.54 1.059 4.281 3.427 8.047 5.835 11.691 2.457 3.717 5.131 7.499 6.272 11.866 1.128 4.322.635 8.815.167 13.19-.371 3.493-.685 7.036-.282 10.542.473 4.086 1.973 7.97 5.078 10.785.974.881 2.417-.553 1.447-1.434M104.352 199.831c3.818-2.507 6.752-6.094 8.729-10.184 2.123-4.388 3.064-9.144 3.859-13.918 1.711-10.249 2.265-20.697 4.678-30.828a71 71 0 0 1 2.172-7.401c.868-2.43 1.846-4.924 3.154-7.154.599-1.024 1.504-1.934 2.217-2.888a61.464 61.464 0 0 0 5.717-9.331c4.36-8.783 6.638-18.573 6.422-28.383-.057-2.535-.252-5.086-.68-7.589-.452-2.652-1.219-5.289-1.21-7.998 0-.573.032-1.146.126-1.71.094-.57.261-1.524.538-1.914.187-.264.766-.69 1.072-1.003q.618-.628 1.181-1.3c1.52-1.808 2.8-3.863 3.407-6.158.302-1.142.424-2.332.363-3.514-.025-.484-.306-.817-.75-.98-4.303-1.571-8.627.517-12.698 1.804-1.247.395-.713 2.357.542 1.958 3.696-1.17 7.702-3.233 11.614-1.803q-.372-.49-.75-.98c.127 2.34-.623 4.514-1.874 6.468a18.6 18.6 0 0 1-2.103 2.673q-.551.591-1.145 1.145c-.522.492-.77.91-1.003 1.597-.843 2.514-.591 5.204-.142 7.767.452 2.588 1.031 5.122 1.259 7.743.843 9.582-.75 19.348-4.564 28.188a61.7 61.7 0 0 1-7.225 12.475c-.722.962-1.634 1.864-2.193 2.925a53 53 0 0 0-1.683 3.497 62 62 0 0 0-2.591 7.064c-2.955 9.823-3.676 20.113-5.082 30.219-1.263 9.1-2.641 19.154-9.784 25.723a21 21 0 0 1-2.608 2.027c-1.084.723-.066 2.482 1.035 1.763"/><path d="M121.451 74.364c3.978-3.997 7.678-8.275 11.468-12.443 3.639-4.001 7.42-7.917 10.75-12.186 2.954-3.79 5.436-7.873 6.862-12.484 1.276-4.127 1.777-8.559 1.28-12.86-.563-4.88-2.364-9.506-5.546-13.284-.343-.407-1.097-.382-1.443 0-5.888 6.552-11.329 13.568-15.673 21.245-4.437 7.84-7.722 16.4-9.038 25.328-.75 5.09-.893 10.25-.245 15.356.07.544.42 1.015 1.019 1.015.497 0 1.088-.467 1.019-1.015-1.125-8.88.118-17.874 2.975-26.324 2.783-8.23 7.115-15.863 12.2-22.89 2.845-3.929 5.946-7.67 9.186-11.281h-1.443c5.355 6.349 6.174 15.359 4.042 23.138-2.604 9.514-9.918 16.586-16.373 23.68q-3.119 3.422-6.231 6.852c-2.058 2.263-4.095 4.542-6.251 6.71-.921.935.517 2.37 1.442 1.443M130.045 83.679c-1.744 1.588-3.174 3.546-4.116 5.711-.973 2.234-1.308 4.64-2.094 6.926-1.463 4.254-5.51 6.545-9.731 7.386-2.947.585-5.979.528-8.966.495-1.312-.016-1.312 2.015 0 2.031 5.139.061 10.575.045 15.131-2.66 1.915-1.138 3.615-2.726 4.674-4.7 1.223-2.275 1.528-4.855 2.319-7.28.815-2.494 2.29-4.712 4.23-6.475.966-.878-.481-2.312-1.447-1.434M109.161 195.403c.114-2.677.224-5.354.338-8.031.025-.549-.485-1.016-1.019-1.016-.57 0-.994.467-1.018 1.016-.114 2.677-.224 5.354-.339 8.031-.024.548.485 1.015 1.019 1.015.571 0 .999-.467 1.019-1.015"/><path d="M105.346 188.302v8.34c0 1.308 2.038 1.308 2.038 0v-8.34c0-1.308-2.038-1.312-2.038 0M104.935 185.613c2.69-1.426 4.898-3.737 6.247-6.455.664-1.341 1.153-2.771 1.382-4.249.216-1.402.664-3.892-1.264-4.27-.994-.195-2.127-.036-3.121.086a21 21 0 0 0-3.289.658c-1.259.357-.721 2.319.542 1.958a18.3 18.3 0 0 1 4.67-.723c.086 0 .717.044.738-.021l-.078-.093q-.11-.182-.061-.028c.122-.301.004.105.008.073-.02.166 0 .349-.004.516a11 11 0 0 1-.187 1.75 13.1 13.1 0 0 1-3.301 6.512 12.6 12.6 0 0 1-3.317 2.531c-1.153.617-.126 2.368 1.035 1.755M147.292 42.24c-5.371-2.206-11.859-.293-15.323 4.29-3.488 4.614-3.578 10.716-6.243 15.716-1.487 2.791-4.621 5.253-4.307 8.71.049.544.432 1.015 1.019 1.015.513 0 1.067-.467 1.018-1.015-.122-1.316.449-2.43 1.166-3.494.774-1.153 1.691-2.21 2.416-3.4 1.435-2.36 2.229-5.045 2.992-7.677.729-2.527 1.422-5.11 2.754-7.398 1.284-2.202 3.195-3.944 5.604-4.85 2.709-1.02 5.68-1.04 8.366.065.509.207 1.12-.228 1.255-.711.155-.585-.208-1.04-.717-1.251"/><path d="M150.669 33.64c-3.997-1.284-8.415-.898-12.184.91-3.741 1.795-6.553 5.09-7.987 8.945a15.9 15.9 0 0 0-.958 6.727c.041.548.44 1.016 1.019 1.016.517 0 1.059-.468 1.019-1.016-.273-3.57.815-7.198 3.044-10.017 2.269-2.872 5.652-4.729 9.287-5.184a14.5 14.5 0 0 1 6.222.577c1.247.402 1.785-1.56.538-1.958"/><path d="M149.377 20.706c-5.138 3.327-9.323 8.055-11.94 13.584-.236.495-.138 1.097.367 1.39.444.26 1.158.133 1.394-.366 2.469-5.22 6.349-9.71 11.21-12.857 1.093-.707.074-2.466-1.031-1.751"/><path d="M139.581 34.777c.416-3.62-.55-7.377-2.648-10.362-.314-.447-.893-.659-1.394-.366-.444.26-.685.938-.367 1.39a13.47 13.47 0 0 1 2.368 9.334c-.061.545.513 1.016 1.019 1.016.607.004.957-.463 1.022-1.012M99.1 188.302v9.883c0 1.309 2.037 1.309 2.037 0v-9.883c0-1.308-2.038-1.312-2.038 0"/></g><defs><clipPath id="a"><path fill="#fff" d="M0 0h200v200H0z"/></clipPath></defs></svg>