<svg xmlns="http://www.w3.org/2000/svg" width="200" height="200" fill="none"><g fill="#000" clip-path="url(#a)"><path d="M49.416 76.264a61.3 61.3 0 0 0-15.776 7.669A66.3 66.3 0 0 0 20.514 95.7a71 71 0 0 0-5.394 7.184c-1.763 2.687-3.281 5.482-4.659 8.387-1.524 3.209-2.911 6.484-4.044 9.852-1.147 3.415-1.825 6.95-2.45 10.489-.327 1.841-.7 3.676-.906 5.536a82 82 0 0 0-.414 5.672c-.149 3.757-.09 7.52-.062 11.279q.011 1.43.013 2.858l.105-.391c-.914 2.04-2.183 3.989-2.575 6.222-.389 2.224.15 4.55 1.06 6.587.816 1.816 2.144 3.418 3.876 4.422 1.832 1.064 4.175 1.328 6.262 1.154 2.208-.184 4.295-.989 5.947-2.485 1.804-1.636 3.033-4.08 3.31-6.49.47-4.071-1.621-8.645-5.382-10.474-2.068-1.008-4.613-1.207-6.868-.886-2.413.342-4.51 1.545-5.981 3.489-.255.336-.053.871.28 1.063.398.234.809.056 1.064-.279 1.343-1.776 3.459-2.687 5.645-2.827 2.193-.143 4.557.202 6.346 1.555 1.745 1.315 2.802 3.355 3.213 5.47.5 2.562-.146 5.004-1.674 7.106-1.38 1.903-3.58 3.01-5.903 3.206-2.215.183-4.613-.124-6.383-1.558-1.708-1.384-2.669-3.43-3.142-5.539-.277-1.231-.351-2.444-.046-3.679.292-1.188.83-2.288 1.378-3.377.245-.491.497-.983.73-1.483.16-.339.28-.613.293-.995.015-.445-.003-.893-.003-1.338q-.017-2.364-.038-4.73c-.021-3.128-.012-6.26.162-9.385a75 75 0 0 1 .408-4.739c.18-1.524.516-3.039.784-4.55.522-2.942 1.07-5.887 1.91-8.757.814-2.79 1.875-5.517 3.041-8.176 1.145-2.612 2.352-5.228 3.77-7.703a69 69 0 0 1 8.7-12.029c6.492-7.171 14.567-12.95 23.618-16.426a60 60 0 0 1 3.325-1.166c.952-.308.544-1.81-.414-1.505"/><path d="M18.505 157.589c.08-2.131 1.054-4.081 2.14-5.869a48 48 0 0 1 3.359-4.832c2.482-3.141 5.313-5.999 8.367-8.583 6.507-5.511 14.013-9.712 21.74-13.254 4.565-2.093 9.228-3.962 13.91-5.779.391-.152.662-.522.543-.957-.102-.374-.562-.697-.957-.545-8.585 3.334-17.155 6.848-25.108 11.529-7.083 4.17-13.711 9.31-18.946 15.685a53 53 0 0 0-4.034 5.598c-1.325 2.133-2.473 4.45-2.57 7.003-.037 1.005 1.518 1.002 1.556.004"/><path d="M57.998 122.441c-.233 1.792-.04 3.586.147 5.371.177 1.711.289 3.412.124 5.128-.311 3.231-1.44 6.354-2.796 9.283-.8 1.723-1.686 3.402-2.588 5.072-.476.88.864 1.667 1.343.784 1.633-3.017 3.22-6.089 4.324-9.345a26.4 26.4 0 0 0 1.176-4.935c.233-1.748.22-3.483.053-5.237-.196-2.034-.489-4.074-.221-6.117.056-.417-.395-.778-.778-.778-.472-.003-.73.355-.784.774"/><path d="M53.827 148.617c4.834.635 9.546 1.96 14.38 2.6 2.42.321 4.868.464 7.303.271 2.61-.205 5.117-.939 7.661-1.515 2.828-.641 5.69-1.176 8.597-1.163 1.002.006 1.002-1.549 0-1.555-2.584-.013-5.15.392-7.673.923-1.294.274-2.579.582-3.863.887-1.254.299-2.498.628-3.78.778-4.861.556-9.682-.321-14.432-1.294-2.722-.557-5.437-1.126-8.193-1.487-.417-.056-.778.398-.778.777 0 .467.361.722.778.778M103.872 67.836c8.967-5.277 19.288-8.02 29.683-8.104 10.485-.084 20.927 2.457 30.358 6.99 4.812 2.315 9.378 5.138 13.642 8.348a86 86 0 0 1 6.284 5.227c.967.883 1.878 1.81 2.805 2.73.902.893 1.87 1.668 3.098 2.05 1.104.345 2.271.426 3.356.846.921.354 1.78.911 2.507 1.577 1.497 1.368 2.545 3.252 2.812 5.274.538 4.043-2.392 7.768-6.221 8.829-3.993 1.104-8.189-1.372-9.642-5.169-.734-1.912-.715-4.015.124-5.893a8.94 8.94 0 0 1 4.119-4.3 7.9 7.9 0 0 1 3.521-.84c1.001-.004 1.001-1.559 0-1.555-4.884.018-9.189 3.943-9.795 8.757-.569 4.54 2.625 8.996 6.889 10.396 4.318 1.418 9.164-.824 11.391-4.674 2.311-4 1.132-9.137-2.302-12.107a10 10 0 0 0-2.864-1.747c-1.173-.467-2.442-.538-3.633-.943-1.204-.407-2.085-1.412-2.943-2.298-.98-1.007-2.022-1.956-3.073-2.889-4.293-3.81-8.949-7.227-13.913-10.11-9.618-5.588-20.433-9.136-31.55-9.905-10.933-.755-22.031 1.319-31.851 6.214a59 59 0 0 0-3.589 1.95c-.859.513-.078 1.856.787 1.346"/><path d="M181.393 93.99c-1.502-1.213-3.297-1.888-5.172-2.29-1.979-.422-4.013-.652-6.032-.786-4.171-.277-8.357-.019-12.485.616-8.218 1.262-16.087 4.105-23.63 7.538-4.255 1.934-8.417 4.068-12.554 6.241-.887.467-.103 1.807.784 1.344 7.169-3.769 14.439-7.423 22.097-10.11 7.595-2.665 15.602-4.37 23.68-4.167 2.242.056 4.488.248 6.699.63 1.929.334 3.957.831 5.512 2.085.327.264.781.32 1.101 0 .274-.274.33-.834 0-1.101M86.151 46.173c-4.911-7.193-11.757-12.88-19.701-16.45-8.041-3.614-16.903-5.12-25.693-4.634a65.2 65.2 0 0 0-13.708 2.263 70 70 0 0 0-6.715 2.224c-1.011.392-1.963.858-3.073.675-1.014-.168-1.985-.46-3.027-.414C10.641 30 7.22 32.782 6.7 36.408c-.519 3.639 1.764 7.42 5.254 8.614 3.366 1.151 7.322-.488 9.157-3.46 1.888-3.06 1.076-7.21-1.459-9.65a7.3 7.3 0 0 0-2.143-1.44c-.385-.165-.833-.116-1.063.28-.193.326-.11.895.28 1.063 2.815 1.21 4.504 4.547 3.68 7.526-.8 2.892-3.973 4.826-6.91 4.456-3.113-.392-5.411-3.49-5.315-6.543.1-3.163 3.07-5.778 6.165-5.862.936-.025 1.798.258 2.715.395 1.139.168 2.1-.078 3.154-.494a71 71 0 0 1 6.28-2.159c4.184-1.219 8.486-2.043 12.831-2.388 8.305-.66 16.707.448 24.464 3.53C71.348 33.28 78.058 38.2 83.09 44.6a44 44 0 0 1 1.727 2.366c.236.345.684.5 1.064.28.335-.208.507-.725.27-1.073"/><path d="M21.27 41.975c1.53-.426 3.117-.171 4.631.199 1.444.351 2.865.799 4.256 1.325 2.777 1.047 5.427 2.428 7.934 4.017 5.263 3.337 9.832 7.626 14.016 12.216 2.439 2.677 4.753 5.467 7.036 8.278.264.327.824.277 1.101 0 .324-.323.264-.771 0-1.1-4.14-5.098-8.395-10.139-13.282-14.542-4.616-4.161-9.8-7.734-15.586-10.057a38 38 0 0 0-4.924-1.605c-1.829-.457-3.748-.746-5.596-.233-.964.27-.554 1.772.414 1.502M121.25 106.28c-.467 6.627-.803 13.941 3.477 19.508 1.036 1.346 2.296 2.503 3.77 3.355l-.159-1.222a64.6 64.6 0 0 1-12.793 10.374 65.7 65.7 0 0 1-14.924 6.829 65 65 0 0 1-9.054 2.134c-.414.068-.647.584-.545.958.121.441.541.609.958.544 5.534-.893 10.924-2.513 16.056-4.764a67.2 67.2 0 0 0 14.421-8.639 65 65 0 0 0 6.979-6.335c.343-.361.287-.967-.158-1.222-2.395-1.381-4.103-3.648-5.182-6.161-1.263-2.942-1.593-6.185-1.58-9.357.006-2.003.146-4.003.286-6.002.028-.42-.38-.778-.778-.778-.441 0-.743.358-.774.778M5.552 167.683c1.002 0 1.002-1.555 0-1.555-1.001 0-1.001 1.555 0 1.555M9.907 165.195c1.002 0 1.002-1.555 0-1.555-1.001 0-1.001 1.555 0 1.555M13.64 168.927c1.001 0 1.001-1.555 0-1.555-1.002 0-1.002 1.555 0 1.555M189.655 98.269c1.002 0 1.002-1.555 0-1.555-.998 0-1.001 1.555 0 1.555M191.418 93.863c1.002 0 1.002-1.556 0-1.556-.998 0-1.001 1.555 0 1.555M196.125 96.506c1.001 0 1.001-1.555 0-1.555-1.002 0-1.005 1.555 0 1.555M11.463 38.937c1.001 0 1.001-1.555 0-1.555-1.002 0-1.002 1.555 0 1.555M13.95 37.382c1.003 0 1.003-1.555 0-1.555-1 0-1 1.555 0 1.555M14.573 40.18c1.002 0 1.002-1.554 0-1.554s-1.002 1.555 0 1.555"/><path d="M58.736 135.44c4.914 1.201 9.972 1.739 15.026 1.813 5.098.075 10.196-.308 15.257-.895 4.887-.566 9.767-1.278 14.622-2.071 3.804-.619 7.624-1.397 11.214-2.833 3.521-1.412 6.762-3.465 9.067-6.525.286-.379.55-.771.802-1.172.532-.852-.815-1.633-1.344-.784-1.906 3.06-4.855 5.181-8.109 6.63-3.44 1.533-7.182 2.348-10.877 2.989-4.585.796-9.204 1.452-13.82 2.024-4.942.613-9.91 1.054-14.893 1.092-4.94.034-9.888-.333-14.728-1.353a63 63 0 0 1-1.804-.41c-.973-.243-1.387 1.256-.413 1.495"/><path d="M54.857 147.472a138 138 0 0 0 12.23-9.541c.317-.276.283-.817 0-1.1-.314-.315-.784-.277-1.101 0a135 135 0 0 1-11.913 9.298c-.346.239-.504.681-.28 1.063.199.343.715.52 1.064.28"/><path d="M67.395 137.686a232 232 0 0 0 15.552 10.256c.859.519 1.642-.827.784-1.344a232 232 0 0 1-15.552-10.256c-.343-.245-.865-.059-1.064.28-.227.392-.062.818.28 1.064"/><path d="M84.247 147.662a84 84 0 0 1 7.335-9.774c.286-.33.57-.75.924-1.011.5-.367 1.294.46 1.67.737 1.303.961 2.759 1.686 4.27 2.261 3.077 1.166 6.365 1.623 9.612 2.046.914.118 1.776.131 2.364-.699.23-.324.364-.713.51-1.08q.28-.693.541-1.393a68 68 0 0 0 1.786-5.386c.174-.609.283-1.614 1.032-1.773.806-.167 1.78.268 2.542.476q3.192.88 6.385 1.76c.968.268 1.378-1.234.414-1.498l-5.792-1.596c-1.536-.423-3.773-1.393-5.095.003-.572.607-.758 1.437-.982 2.214q-.411 1.437-.887 2.855a69 69 0 0 1-.955 2.675q-.239.629-.488 1.253c-.1.249-.196.653-.473.725-.327.084-.824-.078-1.157-.122-.401-.053-.806-.109-1.207-.165a59 59 0 0 1-2.442-.391c-1.651-.299-3.291-.685-4.87-1.247-1.537-.548-3.005-1.288-4.318-2.258-.672-.495-1.356-1.054-2.236-1.048-.993.006-1.602.833-2.193 1.508a87.5 87.5 0 0 0-7.627 10.144c-.548.843.796 1.624 1.337.784"/></g><defs><clipPath id="a"><path fill="#fff" d="M0 0h200v200H0z"/></clipPath></defs></svg>