<svg xmlns="http://www.w3.org/2000/svg" width="200" height="200" fill="none"><path fill="#000" fill-rule="evenodd" d="M107.729 76.036c-17.961 0-32.466 13.905-32.466 30.99s14.505 30.989 32.466 30.989 32.466-13.904 32.466-30.989-14.505-30.99-32.466-30.99m-33.91 30.99c0-17.941 15.213-32.43 33.91-32.43s33.909 14.489 33.909 32.43-15.212 32.43-33.909 32.43-33.91-14.49-33.91-32.43M108.451 34.598V69.19h-1.442V34.598zM108.451 144.861v34.593h-1.442v-34.593zM66.244 107.746H31.613v-1.441h34.63zM146.689 106.305h34.631v1.441h-34.631zM57.607 68.217 78.529 81.19l-.76 1.224-20.923-12.972zM139.06 128.87l20.923 12.972-.761 1.225-20.923-12.973zM65.815 144.282l8.297-6.126.857 1.159-8.297 6.126zM136.34 77.8l8.297-6.127.857 1.16-8.296 6.125zM191 72.728l-44.01 20.179-.602-1.31 44.01-20.18zM9 144.184l61.145-22.341.496 1.354-61.145 22.341zM159.415 200l-32.467-54.772 1.242-.734 32.466 54.772zM51.715 0l38.6 65.582-1.245.73L50.471.73z" clip-rule="evenodd"/></svg>