<svg xmlns="http://www.w3.org/2000/svg" width="200" height="200" fill="none"><path fill="#000" d="M99.335 28.647c-7.675-.89-15.573.172-23.168-1.41-3.007-.627-5.96-1.7-8.51-3.453-1.98-1.362-3.832-3.356-3.917-5.892-.059-1.732-2.576-1.721-2.661 0q-.347 6.82-.692 13.634c.665-.386 1.336-.772 2.001-1.158-9.798-5.78-17.58-16.808-15.072-28.695.35-1.678-2.135-2.397-2.566-.713-1.974 7.699-4.013 15.65-3.417 23.671.15 1.995.447 3.979.937 5.92.468 1.865 1.118 3.694 1.432 5.597.553 3.324-.591 6.863-3.215 9.034-2.198 1.818-5.854 3.094-8.452 1.421-1.08-.697-2.602.73-1.82 1.834 4.205 5.94 9.234 12.643 9.623 20.219.378 7.366-4.785 14.117-2.768 21.559.985 3.624 3.54 5.865 6.499 7.924 2.773 1.93 5.098 4.134 6.652 7.185 2.757 5.394 2.779 11.994 2.433 17.918-.09 1.518-.958 1.914-2.353 1.925-1.533.011-3.055-.311-4.593-.204-.692.049-1.426.14-2.07.429-.83.37-1.054 1.051-1.033 1.925.027 1.169.607 2.215 1.41 3.03 1.842 1.865 4.471 2.788 6.675 4.112 1.325.793 2.39 1.742 3.188 3.088.974 1.636 1.73 3.426 2.523 5.158 1.681 3.673 3.262 7.528 3.8 11.56.26 1.93.271 3.941-.096 5.86-.367 1.925-1.065 3.764-1.65 5.63-.99 3.12-1.591 6.396-.298 9.522 1.304 3.158 3.97 4.938 7.185 5.753 1.538.386 3.21.686 4.337 1.909.873.949 1.251 2.225 1.55 3.453.696 2.836 1.26 5.404 3.22 7.672 2.059 2.386 4.965 4.005 7.935 4.928 3.592 1.115 7.12.852 10.809.568 1.927-.145 3.843-.204 5.71.375 1.64.504 2.342-2.08.709-2.584-4.013-1.239-8.122.027-12.204-.166-3.321-.156-6.722-1.303-9.357-3.373-1.16-.911-2.177-2.037-2.868-3.351-.64-1.212-.884-2.6-1.182-3.925-.697-3.115-1.9-5.924-5.014-7.222-1.66-.691-3.517-.804-5.135-1.597a6.68 6.68 0 0 1-3.156-3.244c-1.464-3.233-.091-6.729.942-9.871 1.32-4.016 1.74-7.924.963-12.107-.793-4.251-2.55-8.273-4.37-12.165-.9-1.92-1.73-3.936-3.065-5.592-1.102-1.362-2.576-2.3-4.088-3.137-1.384-.761-2.826-1.431-4.14-2.316-.73-.488-1.826-1.281-1.66-2.236l-.932.938c2.586-1.029 5.466.472 8.095-.434 3.225-1.11 2.922-4.648 2.964-7.463.085-5.785-.404-11.855-3.353-16.964-1.602-2.778-3.848-4.965-6.44-6.799-2.746-1.94-5.285-3.758-6.088-7.233-.74-3.212.106-6.498 1-9.581 1.017-3.49 2.13-6.997 1.97-10.68-.352-8.193-5.44-15.303-9.99-21.736l-1.82 1.833c2.751 1.77 6.242 1.228 9.047-.118 3.093-1.485 5.392-4.327 6.34-7.635 1.186-4.155-.506-8.048-1.417-12.058-.958-4.22-.926-8.6-.415-12.879.586-4.927 1.842-9.753 3.071-14.546-.857-.236-1.708-.477-2.565-.713-2.044 9.715 2.017 19.441 8.962 26.18 2.21 2.14 4.695 3.99 7.334 5.545.905.536 1.954-.161 2.002-1.158.228-4.547.463-9.094.691-13.635h-2.66c.164 5.008 4.608 8.332 8.797 10.15 5.679 2.466 11.874 2.697 17.973 2.782 3.832.054 7.67.065 11.485.51.719.085 1.326-.676 1.331-1.34.016-.821-.612-1.282-1.325-1.368"/><path fill="#000" d="m89.068 83.577.687 6.31c.117 1.052.229 2.103.346 3.159.047.455.117.911.127 1.372.006.145-.053.263-.005.167.048-.086-.266.187-.325.225-1.474.992-3.209 1.812-4.88 2.412-1.682.606-3.507 1.003-5.296.703-2.906-.488-4.8-2.638-6.61-4.799-.915-1.094-1.836-2.203-2.922-3.131-1.24-1.062-2.624-1.893-4.12-2.536-3.66-1.571-7.722-1.978-11.633-1.303-.708.123-1.107 1.003-.932 1.651.208.757.926 1.062 1.64.939 3.3-.569 6.886-.156 9.957 1.195 1.427.628 2.752 1.47 3.87 2.563 1.064 1.035 1.98 2.215 2.948 3.34 2.182 2.542 4.731 4.488 8.154 4.815 3.89.376 7.94-1.501 11.166-3.528 1-.627 1.628-1.49 1.644-2.707.016-1.142-.234-2.338-.356-3.475q-.399-3.683-.804-7.361c-.08-.719-.554-1.34-1.33-1.34-.655-.011-1.406.605-1.326 1.33"/><path fill="#000" d="M70.807 94.129c-.809 1.79-1.586 3.77-1.352 5.774.256 2.199 1.725 3.802 3.742 4.574 4.46 1.716 8.973-.633 12.635-3.062 1.426-.943.096-3.265-1.341-2.316-2.885 1.914-6.249 3.984-9.852 3.029-1.23-.327-2.363-1.115-2.538-2.396-.203-1.437.43-2.97 1.01-4.252.299-.66.187-1.442-.478-1.834-.58-.332-1.528-.177-1.826.483M93.752 140.416c-.277-.097-.548-.21-.82-.317-.18-.069.213.091.037.016-.063-.026-.122-.053-.186-.08-.138-.064-.276-.123-.415-.193a16 16 0 0 1-1.495-.804 15 15 0 0 1-1.331-.901c-.027-.022-.053-.038-.075-.059a1 1 0 0 0 .08.064c-.026-.043-.106-.086-.149-.118-.096-.08-.197-.161-.292-.241q-.319-.272-.623-.568c-.506-.483-1.39-.542-1.884 0-.48.525-.538 1.378 0 1.898 1.836 1.764 4.06 3.029 6.445 3.887.655.236 1.485-.268 1.64-.938.17-.751-.23-1.394-.932-1.646M79.296 163.396c1.075-.788 2.454-.745 3.704-.413 1.544.407 2.741 1.356 3.896 2.434 1.341 1.249 2.656 2.493 4.285 3.357 1.67.884 3.48 1.474 5.269 2.058 1.633.531 2.33-2.053.707-2.584-1.82-.595-3.667-1.174-5.311-2.171-1.597-.965-2.8-2.418-4.242-3.582-2.523-2.043-6.722-3.571-9.66-1.41-.58.429-.867 1.163-.479 1.834.346.573 1.251.911 1.831.477"/><path fill="#000" d="M89.734 163.921c-1.427-.992-2.268-2.675-2.05-4.429.267-2.101 1.784-3.86 3.258-5.249l-2.092-.273a26.7 26.7 0 0 1 2.007 13.425c-.08.719.665 1.341 1.33 1.341.782 0 1.25-.617 1.33-1.341.544-5.072-.361-10.117-2.368-14.776-.356-.831-1.527-.799-2.091-.274-2.044 1.92-3.806 4.349-4.045 7.238-.224 2.703 1.219 5.153 3.374 6.649.59.413 1.474.112 1.82-.483.394-.659.123-1.415-.473-1.828M61.686 56.876c-2.007-.96-3.8-2.364-4.945-4.187-.564-.901-.862-1.582-1.107-2.611-.133-.58-.154-.724-.17-1.314a8 8 0 0 1 .01-.703q.015-.208.038-.418c-.027.225.032-.182.037-.203l-2.432.321c2.587 4.08 5.96 7.528 9.798 10.423.575.435 1.485.091 1.82-.482.4-.687.101-1.4-.479-1.834-3.454-2.606-6.514-5.796-8.845-9.463-.564-.89-2.22-.885-2.433.322-.952 5.404 2.683 10.235 7.361 12.47.65.312 1.437.183 1.82-.482.341-.59.176-1.528-.473-1.839M40.423 75.835l-6.498-6.45c-.586-.585-1.688-.504-2.092.273-1.299 2.504-1.645 5.373-.905 8.107.777 2.9 2.645 5.276 4.982 7.072.57.44 1.49.091 1.82-.483.4-.691.096-1.394-.48-1.833-3.48-2.67-5.236-7.442-3.123-11.512l-2.092.274 6.499 6.45c1.229 1.212 3.108-.681 1.889-1.898M100.665 31.328c6.685-.772 13.439-.193 20.123-.938 5.275-.59 10.852-2.134 14.855-5.844 1.884-1.754 3.193-4.038 3.278-6.66h-2.661c.229 4.547.463 9.094.692 13.635.053.997 1.096 1.694 2.001 1.158 8.622-5.088 15.536-13.57 16.707-23.8.303-2.649.138-5.319-.41-7.925-.857.236-1.709.478-2.566.714 2.135 8.32 4.466 17.12 2.986 25.762-.702 4.113-2.687 8.09-2.038 12.348.521 3.437 2.618 6.61 5.551 8.423 2.943 1.823 7.046 2.692 10.123.708l-1.82-1.834c-4.072 5.759-8.553 11.967-9.714 19.114-.59 3.662-.079 7.158.927 10.697.926 3.254 2.123 6.52 2.033 9.956-.086 3.266-1.533 5.925-4.114 7.877-2.693 2.032-5.376 3.753-7.436 6.498-3.56 4.75-4.507 10.814-4.598 16.621a92 92 0 0 0 .069 4.847c.064 1.726.367 3.453 1.964 4.418 2.805 1.694 6.137-.295 9.027.858l-.932-.939c.133.783-.607 1.459-1.213 1.925-1.102.842-2.385 1.453-3.598 2.097-1.24.659-2.475 1.329-3.582 2.198-1.453 1.142-2.448 2.675-3.257 4.321-3.624 7.351-7.579 15.721-5.567 24.117.846 3.523 2.986 7.222 2.342 10.949-.235 1.356-.82 2.659-1.773 3.656-1.224 1.282-2.778 1.796-4.449 2.209-1.751.434-3.459.938-4.833 2.172-1.085.975-1.772 2.305-2.224 3.678-.916 2.756-.985 5.624-2.991 7.903-2.422 2.745-6.052 4.332-9.623 4.798-4.524.59-9.117-1.093-13.566.285-1.634.504-.937 3.093.708 2.584 3.736-1.153 7.685.112 11.496-.07 3.31-.161 6.636-1.115 9.463-2.879 2.549-1.592 4.715-3.844 5.732-6.729.846-2.386.755-5.506 2.613-7.41 1.171-1.195 2.858-1.463 4.407-1.86 1.639-.424 3.15-1.056 4.465-2.145 2.225-1.844 3.385-4.793 3.337-7.667-.069-3.914-2.076-7.426-2.757-11.222-.708-3.93.16-7.956 1.453-11.667.66-1.898 1.453-3.748 2.288-5.57.815-1.775 1.587-3.625 2.603-5.292 1.549-2.536 4.332-3.587 6.812-4.971 1.954-1.088 4.413-2.659 4.391-5.206-.026-3.431-5.577-2.043-7.696-2.059-.542-.005-1.149-.026-1.634-.305-.638-.365-.691-1.089-.723-1.754a87 87 0 0 1-.096-4.557c.016-3.035.218-6.085.979-9.029.761-2.954 2.102-5.748 4.167-8.005 2.481-2.707 6.052-4.15 8.351-7.018 2.092-2.611 2.858-5.93 2.618-9.238-.276-3.786-1.713-7.319-2.597-10.98-.894-3.69-.734-7.266.447-10.864 1.187-3.624 3.156-6.954 5.237-10.117a178 178 0 0 1 3.343-4.852c.782-1.105-.74-2.53-1.82-1.834-2.364 1.523-5.482.563-7.664-.852-2.598-1.684-4.21-4.858-4.157-7.957.037-1.99.66-3.909 1.197-5.801a38 38 0 0 0 1.161-5.684c.484-3.978.239-7.983-.33-11.94-.655-4.53-1.789-8.975-2.922-13.404-.431-1.678-2.922-.965-2.566.713 2.502 11.887-5.274 22.916-15.072 28.695l2.001 1.159c-.229-4.547-.463-9.094-.692-13.635-.085-1.716-2.602-1.732-2.661 0-.08 2.482-1.868 4.46-3.8 5.812-2.571 1.796-5.572 2.895-8.622 3.533-7.595 1.582-15.493.526-23.167 1.41-.719.086-1.32.558-1.331 1.34-.01.65.612 1.41 1.325 1.325"/><path fill="#000" d="M108.277 83.577c-.24 2.193-.479 4.38-.714 6.573-.117 1.051-.228 2.102-.346 3.158-.117 1.067-.186 2.102.549 2.981.558.676 1.399 1.073 2.155 1.486.889.493 1.794.954 2.725 1.367 1.873.826 3.827 1.447 5.886 1.544 3.529.166 6.52-1.507 8.857-4.054 2.049-2.235 3.714-4.69 6.439-6.165 3.306-1.786 7.356-2.365 11.039-1.727.708.124 1.431-.187 1.639-.938.176-.644-.218-1.528-.931-1.651-3.449-.596-7.047-.365-10.357.798-3.066 1.078-5.525 2.885-7.627 5.351-1.746 2.043-3.454 4.456-6.115 5.32-3.529 1.146-7.137-.478-10.208-2.167a52 52 0 0 1-1.32-.761.6.6 0 0 1-.176-.161c.138.214.021-.188.027-.317.048-1.18.25-2.37.378-3.544.255-2.364.516-4.734.771-7.098.08-.719-.665-1.34-1.33-1.34-.793.005-1.262.621-1.341 1.345"/><path fill="#000" d="M126.899 95.485c.57 1.265 1.176 2.75 1.017 4.166-.149 1.324-1.272 2.15-2.55 2.482-3.608.944-6.961-1.115-9.851-3.029-1.437-.949-2.768 1.367-1.341 2.316 3.661 2.429 8.175 4.772 12.635 3.062 2.017-.772 3.486-2.375 3.741-4.574.234-2.005-.548-3.983-1.352-5.774-.298-.66-1.245-.82-1.82-.483-.671.397-.777 1.17-.479 1.834M106.956 143c2.384-.858 4.604-2.123 6.445-3.887.506-.483.522-1.416 0-1.898-.543-.499-1.341-.515-1.884 0a20 20 0 0 1-.585.536l-.288.241c-.048.038-.154.097-.186.15.037-.064.186-.139.042-.032q-.66.5-1.367.928-.703.427-1.453.783l-.415.193c-.064.026-.123.053-.187.08-.154.07-.032.043.038-.016-.102.08-.314.129-.432.171-.143.054-.292.108-.436.161-.655.236-1.16.922-.931 1.652.213.648.936 1.19 1.639.938M122.05 161.085c-2.927-2.156-7.137-.638-9.659 1.41-1.411 1.147-2.592 2.563-4.146 3.528-1.672 1.035-3.556 1.624-5.408 2.23-1.623.531-.926 3.121.708 2.585 1.788-.585 3.598-1.18 5.269-2.059 1.629-.863 2.949-2.107 4.284-3.357 1.155-1.077 2.353-2.021 3.896-2.434 1.246-.332 2.63-.375 3.705.413.58.429 1.484.097 1.82-.483.404-.68.112-1.404-.469-1.833"/><path fill="#000" d="M111.613 166.237c2.155-1.496 3.598-3.951 3.374-6.648-.239-2.89-2.001-5.319-4.045-7.238-.559-.526-1.735-.558-2.091.273-2.007 4.659-2.917 9.705-2.369 14.777.075.718.559 1.34 1.331 1.34.66 0 1.41-.616 1.33-1.34a26.75 26.75 0 0 1 2.007-13.426l-2.092.274c1.474 1.388 2.997 3.147 3.257 5.249.219 1.753-.617 3.436-2.049 4.428-.59.413-.857 1.175-.479 1.834.346.584 1.23.89 1.826.477M139.661 59.192c4.683-2.236 8.318-7.066 7.36-12.47-.213-1.207-1.863-1.213-2.432-.323-2.326 3.668-5.391 6.853-8.846 9.464-.574.434-.867 1.158-.479 1.833.33.569 1.241.917 1.821.483 3.837-2.895 7.211-6.343 9.798-10.423l-2.432-.322c.127.708.095 1.818-.075 2.568-.239 1.062-.548 1.764-1.123 2.681-1.139 1.828-2.938 3.233-4.944 4.188-.65.31-.82 1.249-.479 1.833.399.676 1.181.8 1.831.488M161.461 77.733l6.498-6.45-2.092-.274c2.113 4.075.357 8.842-3.124 11.512-.569.44-.873 1.153-.479 1.833.33.569 1.246.923 1.82.483 2.342-1.802 4.2-4.171 4.982-7.072.74-2.734.394-5.603-.905-8.107-.404-.777-1.506-.852-2.091-.273l-6.499 6.45c-1.213 1.212.671 3.11 1.89 1.898"/></svg>