<svg width="200" height="200" viewBox="0 0 200 200" fill="none" xmlns="http://www.w3.org/2000/svg">
<path d="M99.3347 28.6471C91.6601 27.7571 83.7619 28.8187 76.1672 27.237C73.1601 26.6097 70.2063 25.5374 67.6569 23.7841C65.6771 22.4222 63.825 20.4277 63.7398 17.8917C63.6813 16.1599 61.1638 16.1706 61.0787 17.8917C60.8498 22.4383 60.6157 26.985 60.3868 31.5263C61.0521 31.1403 61.7227 30.7542 62.388 30.3682C52.5898 24.5883 44.8087 13.5595 47.3155 1.67272C47.6667 -0.00546786 45.1813 -0.723928 44.7502 0.959625C42.7756 8.65893 40.7372 16.6102 41.3333 24.6312C41.4823 26.6258 41.7804 28.6096 42.27 30.5505C42.7384 32.4163 43.3877 34.2446 43.7017 36.148C44.2552 39.4722 43.1109 43.0109 40.4871 45.1824C38.289 47 34.6326 48.276 32.0354 46.6032C30.955 45.9062 29.4329 47.3324 30.2152 48.4369C34.4198 54.3776 39.4492 61.0796 39.8378 68.6556C40.2156 76.0225 35.0531 82.7728 37.0702 90.2147C38.0548 93.8392 40.6095 96.0803 43.5686 98.1392C46.3415 100.069 48.6673 102.273 50.2214 105.324C52.9783 110.718 52.9996 117.318 52.6536 123.242C52.5632 124.76 51.6956 125.156 50.3012 125.167C48.7684 125.178 47.2463 124.856 45.7082 124.963C45.0163 125.012 44.2818 125.103 43.6378 125.392C42.8075 125.762 42.584 126.443 42.6053 127.317C42.6319 128.486 43.212 129.532 44.0157 130.347C45.8572 132.212 48.4863 133.135 50.6897 134.459C52.015 135.252 53.0794 136.201 53.8777 137.547C54.8517 139.183 55.6075 140.973 56.4005 142.705C58.0823 146.378 59.663 150.233 60.2005 154.265C60.4613 156.195 60.472 158.206 60.1047 160.125C59.7375 162.05 59.0403 163.889 58.4548 165.755C57.4649 168.875 56.8635 172.151 58.1568 175.277C59.4607 178.435 62.1272 180.215 65.3418 181.03C66.8799 181.416 68.5511 181.716 69.6794 182.939C70.5522 183.888 70.9301 185.164 71.2281 186.392C71.9254 189.228 72.4895 191.796 74.4481 194.064C76.5078 196.45 79.4137 198.069 82.3835 198.992C85.976 200.107 89.5046 199.844 93.1929 199.56C95.1195 199.415 97.0355 199.356 98.9036 199.935C100.543 200.439 101.245 197.855 99.6115 197.351C95.5985 196.112 91.4898 197.378 87.4077 197.185C84.0866 197.029 80.6857 195.882 78.0512 193.812C76.891 192.901 75.8744 191.775 75.1825 190.461C74.5439 189.249 74.2991 187.861 74.001 186.536C73.3038 183.421 72.101 180.612 68.9875 179.314C67.327 178.623 65.4695 178.51 63.8516 177.717C62.4518 177.03 61.3448 175.899 60.6955 174.473C59.2319 171.24 60.605 167.744 61.6375 164.602C62.9574 160.586 63.3779 156.678 62.6008 152.495C61.8078 148.244 60.0515 144.222 58.2313 140.33C57.3319 138.41 56.5016 136.394 55.1657 134.738C54.064 133.376 52.5898 132.438 51.0783 131.601C49.6945 130.84 48.2522 130.17 46.9376 129.285C46.2084 128.797 45.1121 128.004 45.2771 127.049C44.9684 127.36 44.6597 127.671 44.3457 127.987C46.9323 126.958 49.8116 128.459 52.4407 127.553C55.666 126.443 55.3626 122.905 55.4052 120.09C55.4904 114.305 55.0007 108.235 52.0522 103.126C50.4503 100.348 48.2043 98.1607 45.6124 96.327C42.8661 94.3861 40.3274 92.5685 39.5238 89.0941C38.784 85.8825 39.6302 82.5958 40.5243 79.5129C41.5409 76.0225 42.6532 72.516 42.4935 68.8325C42.1423 60.64 37.0543 53.5304 32.5038 47.0965C31.897 47.7077 31.2903 48.3189 30.6836 48.9302C33.4351 50.6995 36.9265 50.158 39.7313 48.8122C42.8235 47.327 45.1227 44.4854 46.0701 41.1772C47.2569 37.022 45.5645 33.1294 44.6544 29.1189C43.6964 24.8993 43.7283 20.5189 44.2392 16.2403C44.8247 11.3129 46.0807 6.48747 47.3101 1.69417C46.4533 1.45826 45.6017 1.21699 44.7448 0.981076C42.7011 10.6964 46.762 20.4224 53.7074 27.1619C55.9161 29.3012 58.4016 31.151 61.0414 32.7059C61.9462 33.242 62.9947 32.545 63.0426 31.5477C63.2714 27.0011 63.5056 22.4544 63.7345 17.9131C62.8457 17.9131 61.9622 17.9131 61.0734 17.9131C61.2384 22.9209 65.6824 26.2451 69.871 28.0627C75.5498 30.529 81.7448 30.7596 87.8441 30.8454C91.6761 30.899 95.5134 30.9097 99.3294 31.3547C100.048 31.4405 100.655 30.6792 100.66 30.0143C100.676 29.194 100.048 28.7329 99.3347 28.6471Z" fill="black"/>
<path d="M89.0681 83.5771C89.297 85.6789 89.5258 87.786 89.7547 89.8878C89.8718 90.9387 89.9835 91.9895 90.1006 93.0458C90.1485 93.5015 90.2177 93.9572 90.2283 94.4183C90.2337 94.5631 90.1751 94.6811 90.223 94.5846C90.2709 94.4988 89.9569 94.7722 89.8984 94.8098C88.4241 95.8017 86.6891 96.622 85.0179 97.2225C83.3361 97.8284 81.5106 98.2251 79.7223 97.9249C76.8164 97.437 74.9217 95.2869 73.1121 93.1262C72.1967 92.0324 71.276 90.9226 70.1902 89.995C68.9502 88.9334 67.5664 88.1024 66.0709 87.459C62.4092 85.888 58.3483 85.4805 54.4365 86.1561C53.7287 86.2794 53.3295 87.1587 53.5051 87.8075C53.7127 88.5635 54.4312 88.8691 55.1444 88.7457C58.4441 88.1774 62.0313 88.5903 65.1022 89.9414C66.5286 90.5687 67.8538 91.4105 68.9715 92.5043C70.0359 93.5391 70.9513 94.7186 71.92 95.8445C74.1021 98.386 76.6514 100.332 80.0736 100.659C83.9641 101.035 88.0143 99.158 91.2396 97.1313C92.2401 96.504 92.8682 95.6408 92.8841 94.4237C92.9001 93.2817 92.65 92.086 92.5275 90.9494C92.2614 88.4937 91.9953 86.0381 91.7239 83.5879C91.6441 82.8694 91.1704 82.2475 90.3933 82.2475C89.7387 82.2367 88.9883 82.8533 89.0681 83.5771Z" fill="black"/>
<path d="M70.8073 94.1288C69.9983 95.9196 69.2212 97.8981 69.4554 99.9033C69.7109 102.102 71.1798 103.705 73.1969 104.477C77.6569 106.193 82.1702 103.844 85.8319 101.415C87.2582 100.472 85.9277 98.1501 84.4907 99.0991C81.606 101.013 78.2424 103.083 74.6392 102.128C73.4098 101.801 72.2762 101.013 72.1006 99.7317C71.8983 98.2948 72.5317 96.7614 73.1118 95.48C73.4098 94.8205 73.2981 94.0377 72.6328 93.6463C72.0527 93.3139 71.1053 93.4694 70.8073 94.1288Z" fill="black"/>
<path d="M93.7519 140.416C93.4751 140.319 93.2037 140.206 92.9322 140.099C92.7513 140.03 93.1451 140.19 92.9695 140.115C92.9056 140.089 92.8471 140.062 92.7832 140.035C92.6448 139.971 92.5065 139.912 92.3681 139.842C91.8572 139.601 91.3569 139.333 90.8725 139.038C90.4148 138.759 89.9678 138.464 89.542 138.137C89.5154 138.115 89.4888 138.099 89.4675 138.078C89.3876 138.019 89.4143 138.04 89.5473 138.142C89.5207 138.099 89.4409 138.056 89.3983 138.024C89.3025 137.944 89.2014 137.863 89.1056 137.783C88.8927 137.601 88.6851 137.413 88.4829 137.215C87.9773 136.732 87.0938 136.673 86.5988 137.215C86.1198 137.74 86.0613 138.593 86.5988 139.113C88.435 140.877 90.6597 142.142 93.044 143C93.6986 143.236 94.5289 142.732 94.6832 142.062C94.8535 141.311 94.4544 140.668 93.7519 140.416Z" fill="black"/>
<path d="M79.2961 163.396C80.3712 162.608 81.7497 162.651 83.0004 162.983C84.5438 163.39 85.7413 164.339 86.8962 165.417C88.2374 166.666 89.552 167.91 91.1806 168.774C92.8518 169.658 94.6613 170.248 96.4496 170.832C98.0835 171.363 98.7807 168.779 97.1574 168.248C95.3373 167.653 93.4904 167.074 91.8459 166.077C90.2492 165.112 89.0464 163.659 87.6041 162.495C85.0814 160.452 80.8821 158.924 77.9443 161.085C77.3642 161.514 77.0768 162.248 77.4653 162.919C77.8112 163.492 78.716 163.83 79.2961 163.396Z" fill="black"/>
<path d="M89.7336 163.921C88.3072 162.929 87.4663 161.246 87.6845 159.492C87.9506 157.391 89.4675 155.632 90.9417 154.243C90.2445 154.152 89.5473 154.061 88.8501 153.97C90.6703 158.195 91.3462 162.817 90.8566 167.395C90.7767 168.114 91.5218 168.736 92.1871 168.736C92.9695 168.736 93.4378 168.119 93.5177 167.395C94.0605 162.323 93.1558 157.278 91.1493 152.619C90.7927 151.788 89.6218 151.82 89.0577 152.345C87.0139 154.265 85.2523 156.694 85.0128 159.583C84.7893 162.286 86.2316 164.736 88.3871 166.232C88.9778 166.645 89.8613 166.344 90.2072 165.749C90.6011 165.09 90.3297 164.334 89.7336 163.921Z" fill="black"/>
<path d="M61.6857 56.876C59.6792 55.9163 57.8856 54.5115 56.7413 52.6886C56.1772 51.7878 55.8791 51.1069 55.6343 50.0775C55.5012 49.4984 55.48 49.3537 55.464 48.7639C55.4587 48.528 55.4587 48.2974 55.4746 48.0615C55.4853 47.9221 55.4959 47.7827 55.5119 47.6433C55.4853 47.8685 55.5438 47.461 55.5491 47.4396C54.7402 47.5468 53.9259 47.654 53.1169 47.7613C55.7035 51.8415 59.0778 55.289 62.9151 58.1843C63.4899 58.6186 64.4 58.2754 64.7353 57.7017C65.1344 57.0154 64.8364 56.3023 64.2563 55.868C60.8022 53.2623 57.7419 50.0721 55.4108 46.4048C54.8466 45.5147 53.1914 45.5201 52.9785 46.7265C52.0259 52.131 55.6609 56.9618 60.3391 59.1976C60.9884 59.5086 61.7761 59.3799 62.1593 58.7151C62.5 58.1253 62.335 57.187 61.6857 56.876Z" fill="black"/>
<path d="M40.423 75.8348C38.2568 73.6848 36.0907 71.5348 33.9246 69.3848C33.3391 68.8004 32.2374 68.8808 31.8329 69.6582C30.5343 72.1621 30.1884 75.0306 30.9282 77.765C31.7052 80.6657 33.5733 83.0409 35.9097 84.837C36.4792 85.2767 37.4 84.9282 37.7299 84.3545C38.1291 83.6628 37.8257 82.9605 37.2509 82.5208C33.7702 79.8507 32.0139 75.0789 34.1268 71.0094C33.4296 71.1005 32.7324 71.1917 32.0352 71.2828C34.2013 73.4328 36.3675 75.5828 38.5336 77.7329C39.763 78.9446 41.6418 77.0519 40.423 75.8348Z" fill="black"/>
<path d="M100.665 31.3281C107.35 30.556 114.104 31.135 120.788 30.3898C126.063 29.8 131.64 28.2558 135.643 24.5456C137.527 22.7923 138.836 20.5083 138.921 17.8865C138.032 17.8865 137.149 17.8865 136.26 17.8865C136.489 22.4331 136.723 26.9798 136.952 31.5211C137.005 32.5183 138.048 33.2154 138.953 32.6792C147.575 27.591 154.489 19.1089 155.66 8.87891C155.963 6.23026 155.798 3.56017 155.25 0.954417C154.393 1.19033 153.541 1.4316 152.684 1.66752C154.819 9.98877 157.15 18.7872 155.67 27.4302C154.968 31.5425 152.983 35.5209 153.632 39.778C154.153 43.2148 156.25 46.3889 159.183 48.2011C162.126 50.0241 166.229 50.8927 169.306 48.9089C168.699 48.2976 168.092 47.6864 167.486 47.0752C163.414 52.8336 158.933 59.0423 157.772 66.1894C157.182 69.8514 157.693 73.3472 158.699 76.8859C159.625 80.1404 160.822 83.4056 160.732 86.8424C160.646 90.1076 159.199 92.767 156.618 94.7186C153.925 96.7507 151.242 98.4718 149.182 101.217C145.622 105.967 144.675 112.031 144.584 117.838C144.557 119.452 144.595 121.071 144.653 122.685C144.717 124.411 145.02 126.138 146.617 127.103C149.422 128.797 152.754 126.808 155.644 127.961C155.335 127.65 155.026 127.339 154.712 127.022C154.845 127.805 154.105 128.481 153.499 128.947C152.397 129.789 151.114 130.4 149.901 131.044C148.661 131.703 147.426 132.373 146.319 133.242C144.866 134.384 143.871 135.917 143.062 137.563C139.438 144.914 135.483 153.284 137.495 161.68C138.341 165.203 140.481 168.902 139.837 172.629C139.602 173.985 139.017 175.288 138.064 176.285C136.84 177.567 135.286 178.081 133.615 178.494C131.864 178.928 130.156 179.432 128.782 180.666C127.697 181.641 127.01 182.971 126.558 184.344C125.642 187.1 125.573 189.968 123.567 192.247C121.145 194.992 117.515 196.579 113.944 197.045C109.42 197.635 104.827 195.952 100.378 197.33C98.7439 197.834 99.4411 200.423 101.086 199.914C104.822 198.761 108.771 200.026 112.582 199.844C115.892 199.683 119.218 198.729 122.045 196.965C124.594 195.373 126.76 193.121 127.777 190.236C128.623 187.85 128.532 184.73 130.39 182.826C131.561 181.631 133.248 181.363 134.797 180.966C136.436 180.542 137.947 179.91 139.262 178.821C141.487 176.977 142.647 174.028 142.599 171.154C142.53 167.24 140.523 163.728 139.842 159.932C139.134 156.002 140.002 151.976 141.295 148.265C141.955 146.367 142.748 144.517 143.583 142.695C144.398 140.92 145.17 139.07 146.186 137.403C147.735 134.867 150.518 133.816 152.998 132.432C154.952 131.344 157.411 129.773 157.389 127.226C157.363 123.795 151.812 125.183 149.693 125.167C149.151 125.162 148.544 125.141 148.059 124.862C147.421 124.497 147.368 123.773 147.336 123.108C147.261 121.591 147.235 120.068 147.24 118.551C147.256 115.516 147.458 112.466 148.219 109.522C148.98 106.568 150.321 103.774 152.386 101.517C154.867 98.8096 158.438 97.3673 160.737 94.4988C162.829 91.8877 163.595 88.5689 163.355 85.2607C163.079 81.4754 161.642 77.9421 160.758 74.2801C159.864 70.5913 160.024 67.0151 161.205 63.4174C162.392 59.793 164.361 56.4634 166.442 53.3C167.523 51.6594 168.651 50.0509 169.785 48.4478C170.567 47.3433 169.045 45.9171 167.965 46.6141C165.601 48.1368 162.483 47.1771 160.301 45.7616C157.703 44.078 156.091 40.9039 156.144 37.8049C156.181 35.8158 156.804 33.8963 157.341 32.0036C157.868 30.1324 158.267 28.2505 158.502 26.3203C158.986 22.342 158.741 18.3368 158.172 14.3799C157.517 9.84936 156.383 5.40457 155.25 0.97586C154.819 -0.702331 152.328 0.0107669 152.684 1.68896C155.186 13.5757 147.41 24.6046 137.612 30.3844C138.277 30.7705 138.948 31.1565 139.613 31.5425C139.384 26.9959 139.15 22.4492 138.921 17.9079C138.836 16.1922 136.319 16.1761 136.26 17.9079C136.18 20.3903 134.392 22.3688 132.46 23.7199C129.889 25.5161 126.888 26.6152 123.838 27.2532C116.243 28.8349 108.345 27.7787 100.671 28.6633C99.952 28.7491 99.3506 29.2209 99.34 30.0037C99.3293 30.6525 99.952 31.4138 100.665 31.3281Z" fill="black"/>
<path d="M108.277 83.577C108.037 85.7699 107.798 87.9574 107.563 90.1503C107.446 91.2012 107.335 92.2521 107.217 93.3083C107.1 94.3753 107.031 95.4101 107.766 96.2894C108.324 96.965 109.165 97.3617 109.921 97.7746C110.81 98.2678 111.715 98.7289 112.646 99.1418C114.519 99.9675 116.473 100.589 118.532 100.686C122.061 100.852 125.052 99.1793 127.389 96.6325C129.438 94.3967 131.103 91.9411 133.828 90.4667C137.134 88.6812 141.184 88.1022 144.867 88.7402C145.575 88.8635 146.298 88.5526 146.506 87.8019C146.682 87.1585 146.288 86.2739 145.575 86.1506C142.126 85.5554 138.528 85.786 135.218 86.9494C132.152 88.0271 129.693 89.834 127.591 92.3003C125.845 94.3431 124.137 96.7559 121.476 97.6191C117.947 98.7665 114.339 97.1419 111.268 95.453C110.821 95.2064 110.384 94.949 109.948 94.6916C109.889 94.6595 109.804 94.5844 109.772 94.5308C109.91 94.7453 109.793 94.3431 109.799 94.2144C109.847 93.0349 110.049 91.8446 110.177 90.6704C110.432 88.3059 110.693 85.9361 110.948 83.5716C111.028 82.8532 110.283 82.2312 109.618 82.2312C108.825 82.2366 108.356 82.8531 108.277 83.577Z" fill="black"/>
<path d="M126.899 95.485C127.469 96.7504 128.075 98.2355 127.916 99.651C127.767 100.975 126.644 101.801 125.366 102.133C121.758 103.077 118.405 101.018 115.515 99.1041C114.078 98.1551 112.747 100.471 114.174 101.42C117.835 103.849 122.349 106.192 126.809 104.482C128.826 103.71 130.295 102.107 130.55 99.9084C130.784 97.9031 130.002 95.9247 129.198 94.1339C128.9 93.4744 127.953 93.3136 127.378 93.6514C126.707 94.0481 126.601 94.8202 126.899 95.485Z" fill="black"/>
<path d="M106.956 143C109.34 142.142 111.56 140.877 113.401 139.113C113.907 138.63 113.923 137.697 113.401 137.215C112.858 136.716 112.06 136.7 111.517 137.215C111.325 137.397 111.129 137.579 110.932 137.751C110.836 137.831 110.74 137.912 110.644 137.992C110.596 138.03 110.49 138.089 110.458 138.142C110.495 138.078 110.644 138.003 110.5 138.11C110.059 138.443 109.606 138.754 109.133 139.038C108.664 139.322 108.18 139.585 107.68 139.821C107.541 139.885 107.403 139.949 107.265 140.014C107.201 140.04 107.142 140.067 107.078 140.094C106.924 140.164 107.046 140.137 107.116 140.078C107.014 140.158 106.802 140.207 106.684 140.249C106.541 140.303 106.392 140.357 106.248 140.41C105.593 140.646 105.088 141.332 105.317 142.062C105.53 142.71 106.253 143.252 106.956 143Z" fill="black"/>
<path d="M122.05 161.085C119.123 158.929 114.913 160.447 112.391 162.495C110.98 163.642 109.799 165.058 108.245 166.023C106.573 167.058 104.689 167.647 102.837 168.253C101.214 168.784 101.911 171.374 103.545 170.838C105.333 170.253 107.143 169.658 108.814 168.779C110.443 167.916 111.763 166.672 113.098 165.422C114.253 164.345 115.451 163.401 116.994 162.988C118.24 162.656 119.624 162.613 120.699 163.401C121.279 163.83 122.183 163.498 122.519 162.918C122.923 162.238 122.631 161.514 122.05 161.085Z" fill="black"/>
<path d="M111.613 166.237C113.768 164.741 115.211 162.286 114.987 159.589C114.748 156.699 112.986 154.27 110.942 152.351C110.383 151.825 109.207 151.793 108.851 152.624C106.844 157.283 105.934 162.329 106.482 167.401C106.557 168.119 107.041 168.741 107.813 168.741C108.473 168.741 109.223 168.125 109.143 167.401C108.654 162.827 109.33 158.206 111.15 153.975C110.453 154.066 109.755 154.157 109.058 154.249C110.532 155.637 112.055 157.396 112.315 159.498C112.534 161.251 111.698 162.934 110.266 163.926C109.676 164.339 109.409 165.101 109.787 165.76C110.133 166.344 111.017 166.65 111.613 166.237Z" fill="black"/>
<path d="M139.661 59.1923C144.344 56.9565 147.979 52.1256 147.021 46.7211C146.808 45.5147 145.158 45.5094 144.589 46.3994C142.263 50.0667 139.198 53.2516 135.743 55.8627C135.169 56.297 134.876 57.0208 135.264 57.6964C135.594 58.2647 136.505 58.6132 137.085 58.1789C140.922 55.2836 144.296 51.8361 146.883 47.7559C146.074 47.6486 145.26 47.5414 144.451 47.4342C144.578 48.1419 144.546 49.2518 144.376 50.0024C144.137 51.064 143.828 51.7664 143.253 52.6832C142.114 54.5115 140.315 55.9163 138.309 56.8707C137.659 57.1816 137.489 58.1199 137.83 58.7043C138.229 59.3799 139.011 59.5032 139.661 59.1923Z" fill="black"/>
<path d="M161.461 77.7328C163.627 75.5828 165.793 73.4328 167.959 71.2828C167.262 71.1916 166.565 71.1005 165.867 71.0093C167.98 75.0842 166.224 79.8507 162.743 82.5208C162.174 82.9604 161.87 83.6735 162.264 84.3544C162.594 84.9228 163.51 85.2766 164.084 84.837C166.426 83.0355 168.284 80.6656 169.066 77.765C169.806 75.0306 169.46 72.1621 168.161 69.6582C167.757 68.8808 166.655 68.8057 166.07 69.3848C163.904 71.5348 161.737 73.6848 159.571 75.8348C158.358 77.0465 160.242 78.9446 161.461 77.7328Z" fill="black"/>
</svg>
