<svg xmlns="http://www.w3.org/2000/svg" width="200" height="200" fill="none"><path fill="#000" d="M123.164 38.624a118.3 118.3 0 0 1-16.887-10.66 109 109 0 0 1-3.873-3.075c-1.208-1-2.428-2.011-3.468-3.187A9.9 9.9 0 0 1 96.8 17.78c-.447-1.572-.64-3.208-.86-4.826L94.272.77C94.211.322 93.68 0 93.266 0c-.476 0-.86.33-1.007.77-1.963 5.813-6.3 10.468-8.757 16.056-1.199 2.727-1.93 5.617-1.474 8.603.213 1.397.752 2.635 1.337 3.902q.069.15.133.301l.05.121c.063.147-.062-.15 0 .005q.15.37.297.74c.209.535.401 1.075.59 1.614a43 43 0 0 1 1.069 3.45c.058.227.112.448.158.674q.024.121.046.243c.055.263-.008-.188 0-.009 0 .03-.012.126.005.147.05.07.062-.289.029-.201q-.088.35.601-.326c.26-.352.531-.435.823-.251.08.046.243.188.1.054.239.222.055.067-.02-.05-.393.51-.786 1.025-1.178 1.535 1.332.238 2.674.443 3.99.744.455.105.91.226 1.353.385.096.034.188.071.284.105.147.054-.108-.055.143.062q.313.145.61.314c.956.548 1.545 1.087 2.385 1.861 1.182 1.092 2.273 2.405 3.656 3.246 1.341.811 3.033.928 4.345 0 1.237-.874 1.943-2.305 2.081-3.798.317-3.438-2.938-5.771-5.75-6.888-4.04-1.602-8.64-1.74-12.8-.552-1.292.368-.744 2.388.555 2.016 3.28-.937 6.764-.95 10.044-.009 1.4.402 2.812.958 3.977 1.853.924.707 1.864 1.849 1.901 2.995.03.966-.367 2.062-1.111 2.61-.393.288-.756.405-1.228.342-.619-.083-1.179-.476-1.642-.874-1.793-1.539-3.314-3.45-5.398-4.63-2.064-1.17-4.554-1.392-6.844-1.802-.831-.15-1.713.707-1.178 1.535.238.368.514.748.96.865.745.201 1.371-.401 1.4-1.12.03-.778-.263-1.623-.476-2.36-.63-2.2-1.379-4.412-2.385-6.47-2.837-5.813 1.144-11.898 4.186-16.766 1.943-3.108 3.96-6.228 5.143-9.72h-2.014c.506 3.684 1.007 7.369 1.513 11.058.447 3.283.714 6.792 2.707 9.573.94 1.314 2.102 2.422 3.322 3.468 1.282 1.1 2.598 2.166 3.935 3.203a121 121 0 0 0 8.39 5.99c3.229 2.099 6.563 4.04 9.985 5.813 1.195.623 2.252-1.18 1.057-1.803"/><path fill="#000" d="M85.612 37.114c2.645 2.665 5.269 5.37 7.625 8.294l.35.44.185.233c.096.122-.1-.133-.009-.012q.05.067.1.134.352.466.69.937c.393.556.769 1.125 1.103 1.718.15.264.288.528.418.8.046.091.209.497.08.167q.069.173.133.347c.08.222.138.447.192.673.013.05.013.105.03.155.041.142-.009-.293-.013-.088 0 .1.017.2.012.301 0 .1-.07.306 0 .126.076-.201-.029.058-.046.138-.05.272.105-.247 0 .004-.096.23-.175.088 0 .03-.041.012-.13.129-.158.162-.109.134.083-.062.083-.058-.037.004-.092.067-.13.083-.054.03-.342.176-.146.084.193-.088-.146.046-.213.067a3 3 0 0 1-.338.08l-.159.024c-.125.03.25-.02-.004-.004-.313.021-.623.038-.936.03a11 11 0 0 1-1.379-.117c.243.029-.066-.013-.125-.021q-.358-.055-.71-.122c-2.482-.456-4.91-1.225-7.29-2.04a98 98 0 0 1-2.424-.862c-.785-.289-1.567-.644-2.369-.883a4.12 4.12 0 0 0-2.829.176c-1.875.799-3.133 2.656-4.286 4.25-.64.882-1.228 1.714-1.872 2.483a14 14 0 0 1-1.082 1.167q-.268.258-.556.49c-.091.075-.008.008.009-.004q-.081.063-.167.12-.163.12-.339.227a8 8 0 0 1-.568.313c-.209.105 0 .013-.159.067-.12.046-.246.084-.372.122-1.17.343-.877 1.97.276 2.053 3.393.251 6.764-.418 10.04-1.238 1.633-.41 3.254-.853 4.897-1.238 1.608-.38 3.292-.82 4.955-.765 1.14.037 2.519.49 2.978 1.656.435 1.104-.45 2.104-1.37 2.593-1.308.703-2.92.377-4.278.013-1.705-.456-3.384-.992-5.102-1.401a70.7 70.7 0 0 0-11.794-1.778c-1.003-.067-1.466 1.518-.526 1.949a83 83 0 0 0 9.964 3.835c1.274.398 2.52.745 3.844.925 1.24.167 2.494.246 3.743.305 2.566.121 5.206.134 7.726.472 1.015.139 2.214.381 3.07.732.949.394 1.776 1.142 2.298 2.1.593 1.096.87 2.413 1.145 3.664.322 1.46.627 2.923 1.186 4.316.209.523.698.89 1.287.732.497-.138.94-.761.731-1.288-.973-2.418-1.103-5.078-2.084-7.487-.498-1.221-1.204-2.296-2.26-3.103-.95-.724-2.09-1.133-3.239-1.397-2.565-.586-5.243-.644-7.858-.749-2.42-.096-4.897-.075-7.187-.69-3.873-1.041-7.666-2.505-11.31-4.174l-.526 1.95a67 67 0 0 1 11.239 1.701c1.876.448 3.702 1.075 5.578 1.523 1.759.422 3.614.544 5.276-.276 1.392-.686 2.49-2.025 2.637-3.597.15-1.61-.894-3.078-2.24-3.856-1.62-.937-3.53-.84-5.314-.556-1.817.288-3.606.74-5.385 1.2-3.97 1.025-7.976 2.145-12.117 1.84l.276 2.054c2.21-.644 3.752-2.464 5.089-4.233.664-.878 1.29-1.786 1.955-2.664.08-.105.038-.054.171-.218l.201-.25c.175-.214.355-.427.543-.628a9 9 0 0 1 .731-.72c.055-.05.276-.23.213-.18-.079.06.147-.1.184-.129q.126-.082.26-.159c.087-.05.175-.092.263-.138.167-.092.016-.012-.021.005q.074-.032.154-.059a3.6 3.6 0 0 1 .556-.138c-.272.042.07.004.133.004q.17-.001.339.017c-.213-.021.03.008.113.03q.157.036.313.087c.405.134.806.305 1.203.456.84.318 1.68.627 2.528.924 2.57.908 5.185 1.765 7.863 2.3 2.106.423 6.396 1.218 7.203-1.69.305-1.09-.092-2.233-.54-3.224-.567-1.263-1.378-2.413-2.21-3.517-2.297-3.05-4.938-5.835-7.607-8.557q-.52-.533-1.045-1.058c-.948-.946-2.427.53-1.479 1.488M121.242 38.578l2.248-7.708c.184-.636.372-1.267.556-1.903.091-.318.167-1.004.493-1.188.701-.405 1.608.866 1.951 1.272.359.435 1.103.372 1.479 0 .43-.43.363-1.042 0-1.48-.861-1.034-1.947-2.038-3.397-1.916a2.5 2.5 0 0 0-1.893 1.087c-.392.573-.543 1.31-.735 1.966q-1.361 4.654-2.716 9.31c-.376 1.296 1.638 1.853 2.014.56"/><path fill="#000" d="M101.184 73.614c-7.061 5.098-12.397 12.075-16.83 19.498-4.758 7.964-8.756 16.395-12.947 24.664-4.541 8.963-9.091 17.917-13.783 26.8-4.65 8.804-9.446 17.541-14.51 26.115a428 428 0 0 1-7.867 12.819 363 363 0 0 1-4.12 6.299c-.64.953-1.37 2.07-1.049 3.279.318 1.196 1.408 1.706 2.445 2.158l3.463 1.518c.518.226 1.12.151 1.429-.376.259-.444.146-1.205-.376-1.431l-3.464-1.518c-.409-.18-.944-.335-1.286-.636-.343-.297-.138-.681.05-1.02.576-1.042 1.32-2.016 1.976-3.007a419.335 419.335 0 0 0 9.726-15.559c4.997-8.394 9.73-16.943 14.314-25.567 4.57-8.603 9-17.281 13.407-25.968 4.187-8.252 8.202-16.621 12.747-24.68 4.099-7.265 8.87-14.304 15.308-19.703a44 44 0 0 1 2.419-1.882c.456-.33.677-.912.377-1.43-.264-.448-.97-.708-1.429-.373M120.281 39.423a119.8 119.8 0 0 0 23.075 10.41c1.642.54 3.297 1.083 5.014 1.326 1.738.247 3.442.142 5.134-.347 1.672-.485 3.251-1.247 4.83-1.966q5.59-2.545 11.18-5.09l-1.265-1.644c-3.886 4.785-5.607 10.845-8.925 15.981-1.47 2.275-3.288 4.342-5.84 5.412.096-.042-.214.084-.276.105q-.244.086-.489.167a10 10 0 0 1-1.082.276c-.623.126-1.174.16-1.859.26-1.279.192-2.545.48-3.794.79-1.27.314-2.586.623-3.781 1.167-.572.26-1.082.761-.894 1.46.188.71.894.87 1.529.874.94.008 1.333-1.134.74-1.786-1.442-1.581-2.829-3.367-4.646-4.538-1.885-1.213-4.216-1.64-6.355-2.163-1.116-.271-2.553-.627-2.929-1.781-.134-.414-.063-.916.138-1.397.184-.443.535-.912.936-1.246 2.31-1.928 5.774.355 7.6 1.965a18.27 18.27 0 0 1 5.456 8.582c.376 1.289 2.394.74 2.014-.556a20.4 20.4 0 0 0-5.327-8.887c-2.394-2.326-6.15-4.894-9.643-3.547-2.799 1.08-4.667 5.07-2.106 7.386 1.266 1.146 3.021 1.418 4.617 1.815 1.12.28 2.49.632 3.426 1.033.873.377 1.596.891 2.277 1.535 1.082 1.025 2.056 2.17 3.058 3.27.247-.593.493-1.191.74-1.785-.05 0-.217-.033-.255-.008-.029.016.284.067.096.008.455.142 1.212.736.401 1.623l.034-.034c-.134.134-.218.126-.034.055a4 4 0 0 0 .18-.084c-.201.1-.105.042.033-.008q.325-.12.656-.226c1.183-.38 2.39-.682 3.597-.962a39.407 39.407 0 0 1 2.662-.531c.083-.013.384-.055.133-.021.122-.017.239-.03.36-.042 1.487-.159 2.895-.51 4.249-1.163 5.172-2.492 7.683-8.385 10.031-13.266 1.366-2.836 2.825-5.897 4.746-8.269.757-.932-.163-2.145-1.266-1.643-3.196 1.455-6.388 2.906-9.584 4.362-2.908 1.326-5.958 3.074-9.258 2.89-1.642-.092-3.238-.594-4.792-1.088a118 118 0 0 1-4.638-1.589q-4.614-1.687-9.07-3.768a118 118 0 0 1-9.785-5.14c-1.158-.665-2.21 1.141-1.049 1.823"/><path fill="#000" d="M144.618 66.768c-4.157-1.167-8.523-2.33-12.868-2.41-2.035-.037-5.081.218-5.749 2.593-.305 1.088.058 2.226.526 3.204.648 1.355 1.626 2.564 2.607 3.69 1.479 1.693 3.121 3.24 4.801 4.73.497.438.994.873 1.5 1.3.434.368.932.711 1.283 1.167-.126-.163.058.096.062.109.046.083.096.167.138.25.142.26-.033-.112.025.055.029.075.054.146.075.222q.035.139.071.272c.009.029.05.334.021.096a4.8 4.8 0 0 1 0 .991c-.029.33.038-.2-.016.138-.038.25-.092.502-.151.749-.121.493-.276.974-.443 1.45-.376 1.072-.823 2.117-1.224 3.18-.781 2.066-1.479 4.366-.852 6.57.635-.268 1.274-.535 1.909-.807-2.131-2.882-3.321-6.257-4.408-9.636-.564-1.753-1.107-3.51-1.75-5.233-.631-1.68-1.295-3.458-2.57-4.767-1.207-1.238-3.142-2-4.838-1.385-1.583.573-2.448 2.054-2.611 3.676-.376 3.727 3.163 6.073 5.553 8.29a67.6 67.6 0 0 1 8.706 9.808l1.429-1.43a80 80 0 0 1-5.293-3.773c-1.529-1.192-3.109-2.4-4.487-3.769-.869-.861-1.429-1.639-2.11-2.61a90 90 0 0 1-2.378-3.6c-1.499-2.368-2.924-4.802-4.595-7.056-.573-.77-1.162-1.564-1.918-2.166a4.5 4.5 0 0 0-3.927-.875c-3.121.77-5.114 3.873-8.289 4.467-.556.105-.869.774-.732 1.288.159.582.727.837 1.287.732 2.942-.552 4.884-2.902 7.47-4.17.255-.125.331-.159.665-.255.384-.108.367-.108.697-.113.331-.004.297-.012.665.097.246.07.447.188.739.36.034.016.059.041.092.062.109.067-.171-.142-.071-.059.063.055.13.11.192.168.155.138.297.284.435.435q.226.246.439.506c.242.297.234.288.422.535 1.633 2.192 3.024 4.559 4.483 6.868 1.412 2.233 2.824 4.563 4.625 6.511 1.353 1.469 3.029 2.707 4.595 3.936a84 84 0 0 0 5.946 4.279c.844.552 2.047-.578 1.429-1.43a71 71 0 0 0-7.065-8.328c-1.266-1.271-2.587-2.476-3.932-3.66-1.074-.945-2.306-1.998-2.803-3.391-.356-.992-.305-2.347.509-3.066.953-.84 2.411-.217 3.196.59 1.091 1.12 1.63 2.735 2.156 4.174.573 1.564 1.066 3.153 1.575 4.738 1.154 3.593 2.407 7.24 4.671 10.306.31.418.794.652 1.304.426.468-.205.752-.723.606-1.233-.205-.724-.213-1.581-.084-2.305.163-.937.456-1.844.781-2.735.648-1.778 1.505-3.513 1.897-5.374.368-1.749.218-3.585-1.115-4.898-.898-.887-1.935-1.652-2.875-2.493-.86-.77-1.704-1.56-2.519-2.375a38 38 0 0 1-1.985-2.117c-.568-.656-.881-1.037-1.345-1.719a12 12 0 0 1-.919-1.585c-.125-.263.046.155-.063-.15q-.057-.162-.108-.322a5 5 0 0 1-.088-.335l-.021-.109c-.063-.263-.012.18 0 .017.013-.167.004-.364 0-.531.004.36-.004.096.021-.03.004-.029.021-.054.025-.083.042-.226-.109.159-.025.05.046-.058.092-.155.125-.226.101-.205-.179.16-.004.005.067-.06.134-.126.192-.189.159-.167-.217.113.055-.033.087-.05.171-.105.263-.15.083-.043.372-.13.046-.03.23-.075.451-.159.689-.213q.193-.047.393-.08c.063-.012.468-.062.146-.025.313-.033.627-.063.944-.075 1.868-.071 3.623.171 5.373.48 2.641.465 5.244 1.122 7.821 1.845 1.296.368 1.851-1.652.556-2.011M123.866 40.636q3.208-3.634 6.418-7.269c.455-.514.986-1.029 1.278-1.66a2.47 2.47 0 0 0-.042-2.188c-.71-1.417-2.256-1.731-3.681-1.92-.559-.075-1.044.536-1.044 1.046 0 .628.485.97 1.044 1.046.473.063 2.035.255 1.872 1.05-.079.38-.597.803-.835 1.07-.439.494-.874.992-1.312 1.485a7337 7337 0 0 0-5.177 5.864c-.372.422-.418 1.062 0 1.48.38.377 1.103.419 1.479-.004M117.052 37.495a507 507 0 0 1-14.561 25.663 507 507 0 0 1-4.357 7.047c-.719 1.142 1.086 2.192 1.805 1.054a503 503 0 0 0 18.918-32.71c.63-1.184-1.174-2.242-1.805-1.054"/><path fill="#000" d="m122.943 40.385-15.179 26.286c-1.408 2.438-2.816 4.881-4.228 7.32-.673 1.166 1.132 2.22 1.805 1.053l15.179-26.286q2.11-3.659 4.228-7.32c.672-1.166-1.133-2.22-1.805-1.053M97.474 69.925c-4.358 5.567-8.005 11.644-10.809 18.14-.221.518-.154 1.12.376 1.43.443.259 1.204.146 1.43-.377 2.723-6.315 6.237-12.3 10.477-17.716.347-.444.435-1.046 0-1.481-.363-.356-1.128-.443-1.474.004"/><path fill="#000" d="m104.677 74.563-5.578 10.164c-.827 1.505-1.583 3.082-2.553 4.504-.727 1.07-1.746 2-3.12 1.895-1.693-.13-3.168-1.51-4.346-2.61-.982-.916-2.46.56-1.479 1.48 1.333 1.242 2.812 2.497 4.592 3.012 1.746.51 3.518.041 4.855-1.167 1.295-1.171 2.076-2.828 2.903-4.333 1.011-1.845 2.027-3.69 3.038-5.533l3.484-6.35c.652-1.187-1.149-2.245-1.796-1.062"/><path fill="#000" d="M90.133 89.913a82 82 0 0 1 10.056-4.89c.522-.209.89-.698.731-1.288-.138-.497-.76-.94-1.287-.731a85 85 0 0 0-10.557 5.102c-1.162.67-.113 2.476 1.057 1.807M93.76 92.727c-2.646 7.859-5.854 15.513-9.414 22.999-3.568 7.499-7.47 14.831-11.49 22.096-4.031 7.29-8.188 14.508-12.253 21.777-4.078 7.29-8.072 14.63-11.766 22.125a260 260 0 0 0-5.235 11.259c-.676 1.556-1.232 3.43-2.615 4.53-.25.2-.51.351-.786.397a.68.68 0 0 1-.48-.126c-.48-.342-.702-1.116-.999-1.668-.4-.749-.935-1.293-1.733-1.598-.527-.205-1.145.226-1.287.732-.163.59.2 1.083.73 1.288a1 1 0 0 1 .135.105c.087.079.138.154.23.313.187.31.33.644.492.971.389.778.911 1.48 1.73 1.84 1.818.799 3.501-.602 4.529-1.991.547-.736.91-1.539 1.27-2.38q.62-1.448 1.258-2.89 1.28-2.878 2.628-5.725c3.63-7.658 7.608-15.145 11.71-22.556 4.112-7.424 8.344-14.78 12.484-22.187 4.128-7.386 8.164-14.827 11.887-22.426 3.718-7.604 7.123-15.375 9.96-23.35.351-.987.694-1.983 1.028-2.978.43-1.276-1.584-1.824-2.014-.557"/></svg>