<svg width="200" height="200" viewBox="0 0 200 200" fill="none" xmlns="http://www.w3.org/2000/svg">
<path d="M123.164 38.6242C117.248 35.5544 111.595 31.9868 106.277 27.9634C104.961 26.968 103.674 25.9433 102.404 24.8893C101.196 23.8897 99.9762 22.8776 98.9359 21.7023C97.9206 20.5606 97.2187 19.2473 96.8009 17.7793C96.3539 16.2067 96.1617 14.5714 95.9402 12.9528C95.3846 8.89174 94.8289 4.83065 94.2732 0.769562C94.2106 0.322048 93.68 0 93.2663 0C92.79 0 92.4057 0.330413 92.2594 0.769562C90.2958 6.58306 85.959 11.238 83.5024 16.8257C82.3033 19.5526 81.5721 22.4426 82.0275 25.4288C82.2406 26.8258 82.7796 28.0637 83.3645 29.331C83.4104 29.4314 83.4564 29.5317 83.4982 29.6321C83.5149 29.6739 83.5316 29.7116 83.5483 29.7534C83.611 29.8998 83.4857 29.6029 83.5483 29.7576C83.6486 30.0044 83.7489 30.2511 83.845 30.4979C84.0539 31.0332 84.246 31.5728 84.4341 32.1123C84.831 33.2499 85.2028 34.3959 85.5036 35.5627C85.5621 35.7886 85.6164 36.0103 85.6624 36.2361C85.6791 36.3156 85.6916 36.3992 85.7083 36.4787C85.7627 36.7422 85.7 36.2905 85.7083 36.4703C85.7083 36.4996 85.6958 36.5958 85.7125 36.6167C85.7627 36.6878 85.7752 36.3281 85.7418 36.4159C85.6833 36.6502 85.8838 36.5414 86.3434 36.0897C86.6024 35.7384 86.874 35.6548 87.1665 35.8388C87.2458 35.8848 87.4088 36.027 87.2667 35.8931C87.5049 36.1148 87.321 35.9601 87.2458 35.843C86.8531 36.3532 86.4604 36.8676 86.0676 37.3779C87.4004 37.6163 88.7416 37.8212 90.0576 38.1224C90.513 38.2269 90.9684 38.3482 91.4113 38.5071C91.5074 38.5406 91.5993 38.5782 91.6954 38.6117C91.8416 38.6661 91.5868 38.5573 91.8375 38.6744C92.0464 38.7706 92.2511 38.8752 92.4474 38.9881C93.4042 39.536 93.9933 40.0755 94.8331 40.8493C96.0154 41.9409 97.1059 43.2541 98.4888 44.0948C99.83 44.9062 101.522 45.0233 102.834 44.0948C104.071 43.2207 104.777 41.7903 104.915 40.2972C105.232 36.8593 101.977 34.5255 99.1657 33.4088C95.1255 31.807 90.5256 31.6689 86.3643 32.8567C85.0733 33.2248 85.6206 35.2449 86.92 34.8727C90.1997 33.9358 93.6841 33.9232 96.9639 34.8643C98.3635 35.2658 99.7756 35.822 100.941 36.7171C101.865 37.4239 102.805 38.5657 102.842 39.7117C102.872 40.6778 102.475 41.7736 101.731 42.3215C101.338 42.61 100.975 42.7271 100.503 42.6644C99.8843 42.5808 99.3244 42.1876 98.8607 41.7903C97.0683 40.2512 95.5475 38.3398 93.4627 37.1604C91.3988 35.9893 88.9087 35.7677 86.6191 35.3578C85.7877 35.2072 84.9062 36.0646 85.4409 36.8927C85.6791 37.2608 85.9549 37.6414 86.4019 37.7585C87.1456 37.9592 87.7723 37.357 87.8015 36.6376C87.8308 35.8597 87.5383 35.0148 87.3252 34.2787C86.6944 32.0788 85.9465 29.8663 84.9396 27.8086C82.1027 21.9951 86.0844 15.9098 89.1259 11.0415C91.0687 7.93397 93.0867 4.81392 94.269 1.32163C93.5964 1.32163 92.9279 1.32163 92.2553 1.32163C92.7608 5.0063 93.2622 8.69097 93.7677 12.3798C94.2147 15.663 94.4821 19.172 96.475 21.9533C97.4151 23.2666 98.5766 24.3749 99.7965 25.4205C101.079 26.5204 102.395 27.587 103.732 28.6242C106.444 30.7363 109.239 32.7396 112.122 34.6133C115.351 36.7129 118.685 38.6535 122.107 40.4268C123.302 41.05 124.359 39.2474 123.164 38.6242Z" fill="black"/>
<path d="M85.6121 37.1144C88.2568 39.7786 90.8806 42.4846 93.237 45.4081C93.3539 45.5545 93.4709 45.7009 93.5879 45.8472C93.6506 45.9267 93.7091 46.002 93.7717 46.0815C93.8678 46.2027 93.6715 45.9476 93.7634 46.0689C93.7968 46.1149 93.8302 46.1567 93.8637 46.2027C94.0976 46.5122 94.3274 46.8259 94.553 47.1396C94.9458 47.6959 95.3218 48.2646 95.656 48.8585C95.8064 49.122 95.9443 49.3855 96.0738 49.6574C96.1198 49.7494 96.2827 50.1551 96.1532 49.8247C96.1992 49.9418 96.2451 50.0547 96.2869 50.1718C96.3663 50.3935 96.4248 50.6193 96.4791 50.8452C96.4916 50.8954 96.4916 50.9497 96.5083 50.9999C96.5501 51.1421 96.5 50.7072 96.4958 50.9121C96.4958 51.0125 96.5125 51.1128 96.5083 51.2132C96.5083 51.3136 96.4373 51.5185 96.5083 51.3387C96.5835 51.1379 96.4791 51.3972 96.4624 51.4767C96.4122 51.7486 96.5668 51.23 96.4624 51.4809C96.3663 51.7109 96.2869 51.5687 96.4624 51.5102C96.4206 51.5227 96.3328 51.6398 96.3036 51.6733C96.195 51.8071 96.3872 51.6106 96.3872 51.6147C96.3496 51.6189 96.2953 51.6817 96.2577 51.6984C96.2033 51.7277 95.9151 51.874 96.1114 51.782C96.3036 51.6942 95.9652 51.828 95.8983 51.849C95.7855 51.8824 95.6727 51.9075 95.5599 51.9284C95.5056 51.9368 95.4555 51.9451 95.4012 51.9535C95.2758 51.9828 95.6518 51.9326 95.397 51.9493C95.0836 51.9702 94.7745 51.987 94.4611 51.9786C94.0851 51.9702 93.7091 51.941 93.3372 51.895C93.2537 51.8866 93.1659 51.874 93.0824 51.8615C93.3247 51.8908 93.0155 51.8489 92.957 51.8406C92.7189 51.8029 92.4807 51.7653 92.2468 51.7193C89.765 51.2634 87.3376 50.4939 84.9562 49.6783C84.1456 49.4023 83.3351 49.1137 82.5329 48.8167C81.7475 48.5281 80.9662 48.1726 80.164 47.9342C79.224 47.6498 78.2338 47.7251 77.3355 48.1099C75.4596 48.9087 74.202 50.7657 73.0489 52.3592C72.4097 53.2417 71.8206 54.074 71.1772 54.8435C70.8346 55.2492 70.4794 55.6465 70.0951 56.0104C69.9154 56.1819 69.7316 56.345 69.5394 56.4998C69.4475 56.575 69.531 56.5081 69.5478 56.4956C69.4934 56.5374 69.4391 56.5792 69.3806 56.6169C69.272 56.6963 69.1592 56.7716 69.0422 56.8427C68.8584 56.9556 68.6704 57.056 68.474 57.1564C68.2651 57.2609 68.474 57.1689 68.3152 57.2233C68.1941 57.2693 68.0687 57.3069 67.9434 57.3446C66.7736 57.6875 67.066 59.3145 68.2191 59.3981C71.6117 59.6491 74.9833 58.9799 78.2589 58.1602C79.8925 57.7503 81.5135 57.3069 83.1555 56.9222C84.764 56.5416 86.4477 56.1024 88.1106 56.1568C89.2512 56.1944 90.6299 56.6461 91.0895 57.813C91.524 58.9172 90.6383 59.9167 89.7191 60.4061C88.4114 61.1087 86.7987 60.7825 85.4408 60.4186C83.7362 59.9628 82.0567 59.4274 80.3395 59.0175C76.4665 58.089 72.5141 57.5035 68.545 57.24C67.5423 57.1731 67.0786 58.7582 68.0186 59.189C71.2566 60.6738 74.5822 61.9661 77.9831 63.0243C79.2574 63.4216 80.5024 63.7687 81.8269 63.9486C83.0677 64.1159 84.3211 64.1953 85.5703 64.2539C88.1356 64.3752 90.7761 64.3877 93.2955 64.7265C94.3107 64.8645 95.5098 65.1071 96.3663 65.4584C97.3147 65.8515 98.1419 66.6002 98.6642 67.558C99.2574 68.6537 99.5332 69.9712 99.8089 71.2217C100.131 72.6814 100.436 74.1452 100.995 75.5379C101.204 76.0607 101.693 76.4288 102.282 76.2698C102.779 76.1318 103.222 75.5086 103.013 74.9817C102.04 72.5643 101.91 69.9043 100.929 67.4952C100.431 66.274 99.7254 65.1991 98.6683 64.3919C97.7199 63.6683 96.5794 63.2585 95.4304 62.995C92.8651 62.4094 90.187 62.3509 87.5716 62.2463C85.1525 62.1501 82.675 62.1711 80.3855 61.5562C76.5125 60.5148 72.7189 59.051 69.0756 57.3822C68.9002 58.0305 68.7247 58.6829 68.5492 59.3312C72.3386 59.5822 76.0947 60.1468 79.788 61.0334C81.6639 61.481 83.4897 62.1083 85.3656 62.5558C87.1246 62.9782 88.9796 63.0995 90.6424 62.2798C92.0337 61.5939 93.1325 60.2555 93.2787 58.683C93.4291 57.0727 92.3846 55.6047 91.0393 54.8268C89.4183 53.8899 87.5089 53.9861 85.7249 54.2705C83.9075 54.5591 82.1193 55.0108 80.3395 55.4709C76.3704 56.4956 72.3637 57.6164 68.2233 57.3111C68.3152 57.997 68.4072 58.6788 68.4991 59.3647C70.7092 58.7206 72.2509 56.9013 73.5879 55.1321C74.2522 54.2538 74.8789 53.3462 75.5432 52.4679C75.6225 52.3634 75.5808 52.4136 75.7145 52.2505C75.7813 52.1668 75.8482 52.0832 75.915 51.9995C76.0905 51.7862 76.2701 51.5729 76.4581 51.3722C76.6127 51.2007 76.7757 51.0376 76.9428 50.8786C77.0222 50.8034 77.1057 50.7281 77.1893 50.6528C77.2436 50.6026 77.465 50.4228 77.4024 50.4729C77.323 50.5315 77.5486 50.3726 77.5862 50.3433C77.6698 50.2889 77.7575 50.2346 77.8452 50.1844C77.933 50.1342 78.0207 50.0924 78.1085 50.0464C78.2756 49.9543 78.1252 50.0338 78.0876 50.0505C78.1377 50.0296 78.1878 50.0087 78.2422 49.992C78.426 49.9334 78.6056 49.8832 78.7978 49.854C78.5263 49.8958 78.8689 49.8581 78.9315 49.8581C79.0443 49.8581 79.1571 49.8623 79.2699 49.8749C79.0569 49.854 79.2992 49.8832 79.3827 49.9041C79.4872 49.9292 79.5916 49.9585 79.6961 49.992C80.1014 50.1258 80.5024 50.2973 80.8994 50.4479C81.7391 50.7657 82.5789 51.0752 83.427 51.3722C85.9965 52.2797 88.6119 53.1371 91.29 53.6725C93.3957 54.0949 97.6865 54.8895 98.4929 51.9828C98.7979 50.8912 98.401 49.7494 97.9539 48.7582C97.3857 47.4951 96.5752 46.3449 95.7438 45.2408C93.4459 42.1918 90.8054 39.4064 88.1356 36.6837C87.7889 36.3282 87.4421 35.9768 87.0911 35.6255C86.1427 34.6803 84.6637 36.1567 85.6121 37.1144Z" fill="black"/>
<path d="M121.242 38.5783C121.99 36.0103 122.742 33.4382 123.49 30.8702C123.674 30.2345 123.862 29.6029 124.046 28.9672C124.137 28.6493 124.213 27.9634 124.539 27.7794C125.24 27.3737 126.147 28.6452 126.49 29.0508C126.849 29.4858 127.593 29.4231 127.969 29.0508C128.399 28.6201 128.332 28.0094 127.969 27.5703C127.108 26.5372 126.022 25.5335 124.572 25.6548C123.795 25.7217 123.122 26.0981 122.679 26.7422C122.287 27.3152 122.136 28.0513 121.944 28.7079C121.037 31.8112 120.131 34.9145 119.228 38.0179C118.852 39.3144 120.866 39.8707 121.242 38.5783Z" fill="black"/>
<path d="M101.184 73.614C94.1228 78.7123 88.7875 85.6885 84.3547 93.1123C79.596 101.076 75.5976 109.507 71.4071 117.776C66.8656 126.739 62.3158 135.693 57.6239 144.576C52.9738 153.38 48.1775 162.117 43.1137 170.691C40.5652 175.007 37.9456 179.286 35.2466 183.51C33.8971 185.622 32.5225 187.722 31.1271 189.809C30.4879 190.762 29.7567 191.879 30.0784 193.088C30.3959 194.284 31.4864 194.794 32.5225 195.246C33.6757 195.752 34.833 196.258 35.9861 196.764C36.5042 196.99 37.1058 196.915 37.415 196.388C37.674 195.944 37.5612 195.183 37.0389 194.957C35.8858 194.451 34.7285 193.945 33.5754 193.439C33.166 193.259 32.6312 193.104 32.2886 192.803C31.946 192.506 32.1507 192.122 32.3387 191.783C32.9153 190.741 33.659 189.767 34.3149 188.776C35.0043 187.73 35.6895 186.676 36.3663 185.622C38.9984 181.536 41.5512 177.395 44.0413 173.217C49.0381 164.823 53.7718 156.274 58.3551 147.65C62.9258 139.047 67.3545 130.369 71.7622 121.682C75.9486 113.43 79.9636 105.061 84.5093 97.0019C88.6079 89.7371 93.3792 82.6981 99.8174 77.2987C100.603 76.6421 101.409 76.0147 102.236 75.4166C102.692 75.0862 102.913 74.5049 102.613 73.9863C102.349 73.5387 101.643 73.2794 101.184 73.614Z" fill="black"/>
<path d="M120.281 39.4231C126.139 42.8569 132.289 45.7804 138.643 48.1727C140.202 48.7582 141.773 49.3145 143.356 49.8331C144.998 50.3726 146.653 50.9163 148.37 51.1589C150.108 51.4056 151.812 51.3011 153.504 50.8117C155.176 50.3266 156.755 49.5654 158.334 48.846C162.061 47.148 165.788 45.4541 169.514 43.7561C169.093 43.2082 168.671 42.6603 168.249 42.1124C164.363 46.8971 162.642 52.9573 159.324 58.0933C157.854 60.3685 156.036 62.4346 153.484 63.5053C153.58 63.4634 153.27 63.5889 153.208 63.6098C153.045 63.6684 152.882 63.7227 152.719 63.7771C152.364 63.89 152 63.982 151.637 64.0532C151.014 64.1786 150.463 64.2121 149.778 64.3125C148.499 64.5048 147.233 64.7934 145.984 65.1029C144.714 65.4166 143.398 65.7261 142.203 66.2698C141.631 66.5291 141.121 67.031 141.309 67.7295C141.497 68.4405 142.203 68.5994 142.838 68.6036C143.778 68.6119 144.171 67.4701 143.578 66.8177C142.136 65.2368 140.749 63.4509 138.932 62.2798C137.047 61.0669 134.716 60.6403 132.577 60.1175C131.461 59.8457 130.024 59.4902 129.648 58.3358C129.514 57.9218 129.585 57.4199 129.786 56.9389C129.97 56.4956 130.321 56.0272 130.722 55.6926C133.032 53.7645 136.496 56.0481 138.322 57.6583C140.912 59.9419 142.813 62.9239 143.778 66.2405C144.154 67.5287 146.172 66.9808 145.792 65.6843C144.814 62.33 142.972 59.2351 140.465 56.7967C138.071 54.4713 134.315 51.9033 130.822 53.2501C128.023 54.3291 126.155 58.3191 128.716 60.6361C129.982 61.7821 131.737 62.054 133.333 62.4513C134.453 62.7315 135.823 63.0828 136.759 63.4843C137.632 63.8608 138.355 64.3752 139.036 65.0193C140.118 66.044 141.092 67.1899 142.094 68.2899C142.341 67.696 142.587 67.0979 142.834 66.504C142.784 66.504 142.617 66.4706 142.579 66.4957C142.55 66.5124 142.863 66.5626 142.675 66.504C143.13 66.6462 143.887 67.2401 143.076 68.1268C143.089 68.1142 143.097 68.1059 143.11 68.0933C142.976 68.2272 142.892 68.2188 143.076 68.1477C143.135 68.1226 143.197 68.0933 143.256 68.064C143.055 68.1644 143.151 68.1059 143.289 68.0557C143.506 67.9762 143.724 67.9009 143.945 67.8298C145.128 67.4492 146.335 67.1481 147.542 66.8679C148.182 66.7215 148.821 66.5835 149.46 66.4664C149.707 66.4204 149.953 66.3785 150.204 66.3367C150.287 66.3242 150.588 66.2824 150.337 66.3158C150.459 66.2991 150.576 66.2865 150.697 66.274C152.184 66.1151 153.592 65.7637 154.946 65.1113C160.118 62.6186 162.629 56.7256 164.977 51.8448C166.343 49.0091 167.802 45.9477 169.723 43.5762C170.48 42.6436 169.56 41.4307 168.457 41.9326C165.261 43.388 162.069 44.8393 158.873 46.2948C155.965 47.6206 152.915 49.3688 149.615 49.1848C147.973 49.0928 146.377 48.5909 144.823 48.0974C143.264 47.5997 141.718 47.0685 140.185 46.5081C137.11 45.383 134.085 44.1283 131.115 42.7398C127.776 41.1797 124.509 39.465 121.33 37.5996C120.172 36.9346 119.12 38.7414 120.281 39.4231Z" fill="black"/>
<path d="M144.618 66.7675C140.461 65.6006 136.095 64.4379 131.75 64.3585C129.715 64.3208 126.669 64.576 126.001 66.9515C125.696 68.039 126.059 69.1766 126.527 70.1552C127.175 71.5103 128.153 72.719 129.134 73.8441C130.613 75.538 132.255 77.0854 133.935 78.5744C134.432 79.0135 134.929 79.4485 135.435 79.8751C135.869 80.2431 136.367 80.5861 136.718 81.042C136.592 80.8788 136.776 81.1382 136.78 81.1507C136.826 81.2344 136.876 81.318 136.918 81.4017C137.06 81.661 136.885 81.2887 136.943 81.456C136.972 81.5313 136.997 81.6024 137.018 81.6777C137.043 81.7697 137.064 81.8617 137.089 81.9495C137.098 81.9788 137.139 82.2841 137.11 82.0457C137.135 82.2716 137.139 82.5058 137.131 82.7316C137.127 82.832 137.119 82.9366 137.11 83.037C137.081 83.3674 137.148 82.8362 137.094 83.175C137.056 83.4259 137.002 83.6769 136.943 83.9236C136.822 84.4171 136.667 84.8981 136.5 85.3749C136.124 86.4456 135.677 87.4912 135.276 88.5535C134.495 90.6196 133.797 92.9199 134.424 95.124C135.059 94.8564 135.698 94.5887 136.333 94.3168C134.202 91.4352 133.012 88.06 131.925 84.6806C131.361 82.9282 130.818 81.1716 130.175 79.4485C129.544 77.7672 128.88 75.9897 127.605 74.6806C126.398 73.4426 124.463 72.6814 122.767 73.2962C121.184 73.8692 120.319 75.3497 120.156 76.9725C119.78 80.699 123.319 83.0453 125.709 85.262C128.917 88.2398 131.842 91.5272 134.415 95.0697C134.892 94.5929 135.368 94.1161 135.844 93.6393C134.031 92.4515 132.26 91.1968 130.551 89.8668C129.022 88.6748 127.442 87.4661 126.064 86.0985C125.195 85.2369 124.635 84.459 123.954 83.4887C123.127 82.3134 122.345 81.1005 121.576 79.8876C120.077 77.5204 118.652 75.0863 116.981 72.832C116.408 72.0624 115.819 71.2678 115.063 70.6655C113.947 69.7746 112.527 69.4484 111.136 69.7914C108.015 70.5609 106.022 73.6643 102.847 74.2581C102.291 74.3627 101.978 75.0319 102.115 75.5463C102.274 76.1277 102.842 76.3828 103.402 76.2782C106.344 75.7262 108.286 73.3757 110.872 72.1084C111.127 71.9829 111.203 71.9495 111.537 71.8533C111.921 71.7445 111.904 71.7445 112.234 71.7404C112.565 71.7362 112.531 71.7278 112.899 71.8366C113.145 71.9077 113.346 72.0248 113.638 72.1962C113.672 72.213 113.697 72.2381 113.73 72.259C113.839 72.3259 113.559 72.1168 113.659 72.2004C113.722 72.2548 113.789 72.3092 113.851 72.3677C114.006 72.5057 114.148 72.6521 114.286 72.8027C114.436 72.9658 114.583 73.1373 114.725 73.3088C114.967 73.6057 114.959 73.5973 115.147 73.8441C116.78 76.0357 118.171 78.4029 119.63 80.7116C121.042 82.9449 122.454 85.2745 124.255 87.2235C125.608 88.6915 127.284 89.9295 128.85 91.1591C130.772 92.669 132.748 94.0993 134.796 95.4377C135.64 95.9898 136.843 94.8605 136.225 94.0073C134.081 91.0588 131.729 88.2649 129.16 85.6802C127.894 84.4088 126.573 83.2042 125.228 82.0206C124.154 81.0754 122.922 80.0215 122.425 78.6287C122.069 77.6375 122.12 76.2824 122.934 75.563C123.887 74.7224 125.345 75.3456 126.13 76.1528C127.221 77.2736 127.76 78.888 128.286 80.3268C128.859 81.891 129.352 83.4803 129.861 85.0654C131.015 88.6581 132.268 92.3051 134.532 95.3708C134.842 95.789 135.326 96.0232 135.836 95.7974C136.304 95.5924 136.588 95.0738 136.442 94.5636C136.237 93.84 136.229 92.9826 136.358 92.2591C136.521 91.3222 136.814 90.4147 137.139 89.5238C137.787 87.7463 138.644 86.0106 139.036 84.1495C139.404 82.4012 139.254 80.5652 137.921 79.2519C137.023 78.3652 135.986 77.5999 135.046 76.7592C134.186 75.9897 133.342 75.1992 132.527 74.3836C131.842 73.7019 131.173 72.9993 130.542 72.2673C129.974 71.6107 129.661 71.2301 129.197 70.5484C128.85 70.0423 128.541 69.5153 128.278 68.9633C128.153 68.6998 128.324 69.118 128.215 68.8127C128.178 68.704 128.14 68.5994 128.107 68.4907C128.073 68.3777 128.044 68.269 128.019 68.1561C128.011 68.1184 128.006 68.085 127.998 68.0473C127.935 67.7838 127.986 68.2272 127.998 68.0641C128.011 67.8968 128.002 67.7002 127.998 67.5329C128.002 67.8926 127.994 67.6291 128.019 67.5036C128.023 67.4743 128.04 67.4492 128.044 67.42C128.086 67.1941 127.935 67.5789 128.019 67.4701C128.065 67.4116 128.111 67.3154 128.144 67.2443C128.245 67.0394 127.965 67.4032 128.14 67.2485C128.207 67.1899 128.274 67.123 128.332 67.0603C128.491 66.893 128.115 67.1732 128.387 67.0268C128.474 66.9766 128.558 66.9223 128.65 66.8763C128.733 66.8344 129.022 66.7466 128.696 66.847C128.926 66.7717 129.147 66.688 129.385 66.6337C129.515 66.6044 129.644 66.5751 129.778 66.5542C129.841 66.5417 130.246 66.4915 129.924 66.5291C130.237 66.4957 130.551 66.4664 130.868 66.4538C132.736 66.3827 134.491 66.6253 136.241 66.9348C138.882 67.399 141.485 68.0557 144.062 68.7792C145.358 69.1473 145.913 67.1272 144.618 66.7675Z" fill="black"/>
<path d="M123.866 40.6361C126.005 38.2145 128.144 35.7887 130.284 33.3671C130.739 32.8527 131.27 32.3382 131.562 31.7067C131.892 30.9957 131.871 30.2219 131.52 29.5193C130.81 28.1015 129.264 27.7878 127.839 27.5996C127.28 27.5243 126.795 28.1349 126.795 28.6452C126.795 29.2725 127.28 29.6155 127.839 29.6908C128.312 29.7535 129.874 29.9459 129.711 30.7406C129.632 31.1212 129.114 31.5436 128.876 31.8112C128.437 32.3048 128.002 32.8025 127.564 33.296C125.838 35.2492 124.113 37.2023 122.387 39.1597C122.015 39.5821 121.969 40.222 122.387 40.6402C122.767 41.0167 123.49 41.0585 123.866 40.6361Z" fill="black"/>
<path d="M117.052 37.4949C112.447 46.1901 107.593 54.7472 102.491 63.158C101.058 65.521 99.6043 67.8673 98.1337 70.2053C97.4151 71.3471 99.22 72.3969 99.9386 71.2592C105.178 62.9363 110.179 54.4586 114.921 45.8429C116.254 43.4213 117.566 40.9914 118.857 38.5489C119.487 37.3653 117.683 36.3071 117.052 37.4949Z" fill="black"/>
<path d="M122.943 40.385C117.883 49.147 112.824 57.9091 107.764 66.6712C106.356 69.1095 104.948 71.552 103.536 73.9903C102.863 75.1572 104.668 76.2112 105.341 75.0443C110.4 66.2822 115.46 57.5201 120.52 48.7581C121.928 46.3197 123.335 43.8772 124.748 41.4389C125.42 40.272 123.615 39.2181 122.943 40.385Z" fill="black"/>
<path d="M97.4736 69.9251C93.116 75.4919 89.4686 81.5689 86.6652 88.0641C86.4438 88.5827 86.5106 89.185 87.0412 89.4945C87.4841 89.7538 88.2445 89.6408 88.4701 89.118C91.1941 82.8027 94.7078 76.8177 98.9485 71.4015C99.2953 70.9582 99.383 70.3559 98.9485 69.9209C98.585 69.5654 97.8204 69.4776 97.4736 69.9251Z" fill="black"/>
<path d="M104.677 74.5633C102.817 77.951 100.958 81.3387 99.0991 84.7265C98.2718 86.2321 97.5156 87.8089 96.5463 89.2309C95.8194 90.3016 94.7999 91.2301 93.4254 91.1255C91.7333 90.9958 90.2585 89.6156 89.0803 88.5157C88.0984 87.5997 86.6194 89.0761 87.6013 89.9962C88.934 91.2384 90.413 92.4931 92.1929 93.0076C93.9393 93.5178 95.7107 93.0494 97.0477 91.8407C98.3429 90.6696 99.1242 89.0134 99.9514 87.5077C100.962 85.6633 101.978 83.8189 102.989 81.9745C104.15 79.8582 105.312 77.7419 106.473 75.6256C107.125 74.4378 105.324 73.3797 104.677 74.5633Z" fill="black"/>
<path d="M90.1326 89.9128C93.3705 88.06 96.7296 86.4163 100.189 85.0236C100.711 84.8145 101.079 84.3251 100.92 83.7354C100.782 83.2377 100.16 82.7944 99.6333 83.0035C96.0027 84.4631 92.4723 86.157 89.0756 88.106C87.9141 88.7752 88.9628 90.5819 90.1326 89.9128Z" fill="black"/>
<path d="M93.7591 92.7274C91.1144 100.586 87.9057 108.24 84.3461 115.726C80.7781 123.225 76.8759 130.557 72.8566 137.822C68.8249 145.112 64.6678 152.33 60.6026 159.599C56.5249 166.889 52.5307 174.229 48.8374 181.724C47.0074 185.438 45.2526 189.186 43.6023 192.983C42.9255 194.539 42.3698 196.413 40.9869 197.513C40.7362 197.713 40.4772 197.864 40.2014 197.91C40.1095 197.927 39.8965 197.914 39.721 197.784C39.2405 197.442 39.0191 196.668 38.7224 196.116C38.3214 195.367 37.7866 194.823 36.9886 194.518C36.4621 194.313 35.8438 194.744 35.7018 195.25C35.5388 195.84 35.9023 196.333 36.4329 196.538C36.4454 196.542 36.4956 196.58 36.5666 196.643C36.6543 196.722 36.7045 196.797 36.7964 196.956C36.9844 197.266 37.1264 197.6 37.2894 197.927C37.6779 198.705 38.2002 199.407 39.0191 199.767C40.8365 200.566 42.5202 199.165 43.548 197.776C44.0953 197.04 44.4588 196.237 44.8181 195.396C45.2318 194.43 45.6495 193.468 46.0757 192.506C46.928 190.587 47.8054 188.679 48.7037 186.781C52.3343 179.123 56.3118 171.636 60.4146 164.225C64.5257 156.801 68.758 149.445 72.8984 142.038C77.0263 134.652 81.0622 127.211 84.7848 119.612C88.5032 112.008 91.9083 104.237 94.7451 96.2615C95.0961 95.2745 95.4387 94.2791 95.7729 93.2837C96.2032 92.008 94.1894 91.4601 93.7591 92.7274Z" fill="black"/>
</svg>
