<svg xmlns="http://www.w3.org/2000/svg" width="200" height="200" fill="none"><path fill="#000" d="M99.064 3.395a101.3 101.3 0 0 1-3.919 27.339c-.72 2.519-1.44 5.124-2.72 7.43-1.152 2.08-2.83 3.755-5.123 4.5-2.178.71-4.541.659-6.754.127-4.616-1.11-8.472-4.212-11.509-7.753-3.584-4.177-6.19-9.123-8.72-13.981-.743-1.433-3.18-.445-2.633 1.115 2.173 6.176 4.53 12.323 6.483 18.574 1.603 5.13 2.542 10.913-.714 15.61-1.233 1.774-3.078 3.126-5.233 3.467-2.42.381-4.777-.566-6.771-1.866-2.248-1.462-4.155-3.409-5.913-5.42a193 193 0 0 1-5.988-7.198 199 199 0 0 1-12.2-17.245c-.991-1.566-3.458-.14-2.49 1.455A167 167 0 0 1 42.45 69.644c.985 3.403 2.115 6.927 2.478 10.463.346 3.415-.375 6.54-2.657 9.157-2.138 2.45-4.921 4.27-7.682 5.934a61.4 61.4 0 0 1-9.313 4.593c-7.284 2.836-15.041 4.327-22.861 4.327-1.62 0-1.966 2.409-.38 2.837 12.516 3.374 25.84 3.512 38.433.468a74 74 0 0 0 9.232-2.878c3.077-1.184 6.057-2.622 9.163-3.732 6.483-2.322 13.324-2.374 20.118-2.548l23.957-.624c1.85-.046 1.856-2.934 0-2.888l-21.248.554c-6.83.18-13.854.018-20.51 1.763-3.245.849-6.317 2.23-9.4 3.535a80 80 0 0 1-8.967 3.212 74.5 74.5 0 0 1-18.695 2.883 74.4 74.4 0 0 1-21.323-2.524l-.38 2.836a65.4 65.4 0 0 0 21.513-3.645 66.6 66.6 0 0 0 10.056-4.478c3.066-1.687 6.126-3.593 8.731-5.95 2.559-2.317 4.535-5.258 5.031-8.73.565-3.98-.513-7.961-1.527-11.774a168.5 168.5 0 0 0-7.227-21.33 171 171 0 0 0-11.63-22.988l-2.49 1.456A205 205 0 0 0 42.83 53.82c1.942 2.248 3.994 4.39 6.414 6.13 2.283 1.635 4.997 2.848 7.844 2.854 2.72.006 5.29-1.115 7.232-3.004 4.328-4.212 4.835-10.52 3.625-16.136-.807-3.762-2.236-7.384-3.51-11.006-1.32-3.744-2.633-7.488-3.953-11.237-.876.37-1.758.74-2.634 1.115 4.674 8.966 10.35 19.313 20.592 22.676 4.996 1.64 11.082 1.144 14.718-3.04 1.862-2.142 2.945-4.794 3.815-7.47a100 100 0 0 0 2.524-9.324 105.5 105.5 0 0 0 2.467-21.971c0-1.872-2.881-1.872-2.899-.012"/><path fill="#000" d="M100.43 95.152c.922-.18 1.147-.318.686-.405q.06.008-.069-.046c-.104-.104-.265-.22-.404-.353q-.499-.484-.956-1.005a14.4 14.4 0 0 1-1.648-2.34c-.911-1.606-1.51-3.408-1.574-5.263-.127-3.397 1.556-6.794 4.628-8.36 1.654-.843.196-3.333-1.452-2.495-3.424 1.744-5.516 5.32-5.977 9.064-.495 4.033 1.159 8.02 3.689 11.081.657.792 1.412 1.699 2.322 2.207 1.13.636 2.524.537 3.245-.635.974-1.578-1.516-3.028-2.49-1.45M60.118 62.902c7.002-.555 14.021-2.444 19.438-7.13 1.24-1.068 2.329-2.281 3.308-3.593.922-1.242 1.58-2.588 2.277-3.957.253-.503.524-1.052.945-1.439.282-.26.495-.352.956-.173.727.283 1.372.809 2.08 1.144.802.375 1.632.693 2.485.924 3.63.96 7.56.474 10.834-1.357 1.619-.907.167-3.403-1.452-2.496-2.605 1.456-5.734 1.825-8.616 1.069a10.7 10.7 0 0 1-2.005-.728c-.715-.353-1.366-.82-2.098-1.144-1.614-.717-3.314-.347-4.472.988-.934 1.074-1.406 2.397-2.08 3.628a17.5 17.5 0 0 1-2.57 3.524c-2.139 2.288-4.784 4.044-7.654 5.275-3.59 1.537-7.503 2.27-11.382 2.582-.778.064-1.44.618-1.44 1.445.005.727.668 1.502 1.446 1.438"/><path fill="#000" d="M58.804 60.944c.582 7.597-4.892 14.963-12.332 16.546-1.816.387-1.044 3.172.766 2.785 8.604-1.832 15.128-10.538 14.448-19.337-.058-.78-.617-1.444-1.44-1.444-.733.005-1.5.67-1.442 1.45M44.818 87.785a27.7 27.7 0 0 1 1.308 8.84c-.035 1.97-.098 4.876-1.873 6.164-.628.456-.94 1.254-.519 1.976.363.624 1.337.976 1.971.52 2.53-1.843 3.14-4.894 3.28-7.857.16-3.513-.33-7.06-1.384-10.411-.565-1.762-3.348-1.011-2.783.768"/><path fill="#000" d="M55.03 77.646c-.577-.133-.767-.121-.583.04l.04.023c.018.156.277.422.37.578.201.347.397.705.553 1.08.351.827.588 1.74.703 2.623.23 1.757.035 3.548-.496 5.235-1.072 3.385-3.532 6.245-6.339 8.337-.622.467-.94 1.247-.519 1.975.358.618 1.343.988 1.971.52 3.77-2.813 7.025-6.673 8.01-11.393.49-2.334.468-4.806-.218-7.1-.542-1.808-2.369-6.107-4.945-4.408-1.544 1.017-.098 3.518 1.452 2.49"/><path fill="#000" d="M54.73 78.605c.997-.393 2.005-.266 3.048-.144.974.115 1.931.202 2.905.104a13.05 13.05 0 0 0 5.67-1.936c3.487-2.184 5.804-5.76 6.772-9.729.57-2.34.709-4.778.49-7.17-.72.417-1.447.832-2.167 1.248 3.689 2.652 8.016 4.46 12.5 5.183 4.472.722 9.492.612 13.25-2.248 1.878-1.427 3.33-3.38 3.878-5.708.42-1.808-2.357-2.582-2.778-.768-1.153 4.945-6.645 6.413-11.077 6.193-5.146-.254-10.142-2.155-14.315-5.147-.853-.613-2.265.196-2.167 1.248.421 4.598-.518 9.584-3.942 12.912-1.521 1.479-3.428 2.53-5.515 2.94-2.426.474-4.95-.693-7.307.237-.726.284-1.228.965-1.009 1.78.179.687 1.032 1.294 1.764 1.005"/><path fill="#000" d="M65.858 77.115c5.146.606 10.679 1.23 15.635-.711 4.011-1.572 7.578-4.616 8.68-8.926.46-1.803-2.318-2.571-2.779-.768-.893 3.5-3.942 5.985-7.255 7.129-4.576 1.583-9.578.942-14.28.387-.773-.093-1.441.728-1.441 1.444 0 .855.662 1.352 1.44 1.445M87.262 42.618a93 93 0 0 1-7.636-18.332c-.525-1.78-3.308-1.023-2.778.768a96.5 96.5 0 0 0 7.924 19.02c.9 1.635 3.389.179 2.49-1.456M62.464 59.453a150 150 0 0 1-7.262-19.764c-.518-1.78-3.296-1.023-2.777.768a154.5 154.5 0 0 0 7.555 20.452c.323.71 1.348.884 1.97.52.721-.428.83-1.265.514-1.976"/><path fill="#000" d="M56.678 92.373c7.117 1.138 14.344-2.167 18.493-8.014A17.4 17.4 0 0 0 77.713 79c.501-1.792-2.277-2.56-2.778-.77-2.04 7.297-9.964 12.567-17.49 11.359-.767-.121-1.55.196-1.776 1.011-.19.688.231 1.652 1.009 1.774"/><path fill="#000" d="M55.047 89.934c1.435 2.675 2.876 5.35 4.31 8.02.358.664 1.332.93 1.971.52a1.48 1.48 0 0 0 .519-1.977c-1.435-2.674-2.876-5.35-4.31-8.019-.358-.664-1.332-.93-1.972-.52a1.48 1.48 0 0 0-.518 1.976M76.11 79.408a95.3 95.3 0 0 1 15.526 15.876c.478.618 1.539.503 2.04 0 .605-.606.478-1.421 0-2.045a95.6 95.6 0 0 0-15.525-15.876c-.605-.491-1.447-.595-2.04 0-.508.508-.611 1.554 0 2.045M89.434 67.507c3.205 2.322 6.034 5.453 8.092 8.908.397.67 1.296.913 1.97.52.669-.393.917-1.305.519-1.975-2.328-3.918-5.44-7.274-9.123-9.943-.628-.457-1.607-.11-1.97.52-.433.722-.121 1.513.512 1.97M47.578 105.435c5.613 3.628 12.598 3.155 18.834 1.774 3.486-.768 6.915-1.774 10.419-2.479a86 86 0 0 1 10.356-1.427 90 90 0 0 1 12.229-.08c1.85.115 1.844-2.774 0-2.889a90.8 90.8 0 0 0-21.162 1.196c-3.4.595-6.73 1.456-10.079 2.288-3.164.785-6.368 1.502-9.641 1.542-3.337.046-6.662-.595-9.498-2.426-1.567-1.006-3.014 1.496-1.458 2.501"/><path fill="#000" d="M99.064 3.395c.046 6.558.703 13.11 1.96 19.545.622 3.2 1.4 6.367 2.328 9.492.807 2.733 1.665 5.564 3.21 7.985 1.504 2.351 3.625 4.119 6.276 5.009 2.518.843 5.279.814 7.855.283 5.106-1.058 9.56-4.362 12.96-8.204 3.942-4.455 6.795-9.73 9.527-14.975-.876-.37-1.758-.74-2.634-1.115-1.176 3.345-2.357 6.684-3.533 10.03-1.135 3.223-2.363 6.43-3.308 9.711-1.642 5.708-2.063 12.167 1.712 17.153 1.579 2.086 3.775 3.744 6.38 4.264 2.869.572 5.716-.116 8.241-1.525 2.547-1.422 4.742-3.461 6.702-5.599 2.184-2.38 4.236-4.899 6.253-7.424a205 205 0 0 0 13.156-18.458l-2.489-1.456a170 170 0 0 0-18.176 41.788c-1.038 3.668-2.19 7.452-2.375 11.283-.184 3.819 1.078 7.273 3.579 10.133 2.236 2.56 5.169 4.507 8.051 6.257 3.106 1.884 6.379 3.484 9.751 4.83a65.2 65.2 0 0 0 24.095 4.616l-.381-2.837c-12.309 3.317-25.426 3.392-37.782.243a75 75 0 0 1-9.076-2.941c-3.078-1.219-6.063-2.657-9.204-3.72-6.472-2.184-13.376-2.219-20.124-2.392-7.987-.208-15.969-.422-23.957-.63-1.855-.046-1.855 2.843 0 2.889 7.129.185 14.264.376 21.393.56 6.742.18 13.71-.023 20.256 1.838 3.233.918 6.293 2.339 9.388 3.634a76 76 0 0 0 9.065 3.148 78 78 0 0 0 19.237 2.791 77.3 77.3 0 0 0 21.577-2.635c1.567-.422 1.25-2.837-.381-2.837a62.8 62.8 0 0 1-20.51-3.466 61.4 61.4 0 0 1-9.492-4.212c-2.887-1.583-5.803-3.339-8.258-5.563-2.305-2.086-4.086-4.674-4.317-7.858-.265-3.674.876-7.343 1.833-10.85a167 167 0 0 1 7.163-20.798 168 168 0 0 1 11.14-21.815c.968-1.595-1.498-3.022-2.489-1.456a198 198 0 0 1-10.714 15.339 200 200 0 0 1-5.924 7.302c-1.833 2.15-3.694 4.287-5.89 6.072-1.844 1.503-4.138 2.883-6.558 3.062-2.276.168-4.38-.653-5.976-2.276-3.815-3.86-3.694-9.596-2.432-14.507.893-3.472 2.201-6.84 3.394-10.22 1.257-3.565 2.513-7.135 3.769-10.7.542-1.542-1.879-2.56-2.633-1.115-2.254 4.322-4.559 8.69-7.55 12.549-2.835 3.663-6.477 7.077-10.909 8.654-4.311 1.537-9.636 1.381-12.644-2.536-1.545-2.01-2.357-4.495-3.101-6.887a103 103 0 0 1-2.328-8.926 101.5 101.5 0 0 1-2.213-20.527c-.023-1.86-2.904-1.86-2.893 0"/><path fill="#000" d="M98.079 96.613c.6.97 1.694 1.248 2.737.86.934-.346 1.637-1.097 2.3-1.819a17.4 17.4 0 0 0 3.285-5.182c1.475-3.623 1.354-7.77-.571-11.208-1.032-1.843-2.582-3.409-4.466-4.368-1.648-.838-3.112 1.652-1.453 2.496 3.072 1.566 4.755 4.963 4.628 8.36-.069 1.848-.668 3.657-1.579 5.263a14.4 14.4 0 0 1-1.648 2.34 18 18 0 0 1-.957 1.005c.035-.035-.415.364-.323.306-.167.07-.218.098-.15.093-.46.086-.236.22.686.404-.974-1.589-3.469-.139-2.49 1.45M140.886 60.025c-6.57-.526-13.365-2.369-18.24-7.054a18 18 0 0 1-2.784-3.362c-.754-1.185-1.233-2.514-1.988-3.698-.83-1.3-2.092-2.392-3.723-2.27-1.642.12-2.921 1.369-4.431 1.912-3.181 1.144-6.743.924-9.705-.728-1.62-.907-3.078 1.589-1.452 2.496 2.962 1.658 6.385 2.178 9.722 1.6a13.7 13.7 0 0 0 4.512-1.64c.467-.267 1.17-.821 1.654-.763.375.046.686.456.939.855.796 1.242 1.297 2.646 2.11 3.882a21.6 21.6 0 0 0 3.112 3.755c2.386 2.294 5.215 4.016 8.264 5.27 3.815 1.57 7.912 2.304 12.01 2.628.778.063 1.44-.71 1.44-1.444 0-.832-.662-1.381-1.44-1.439"/><path fill="#000" d="M139.319 60.955c-.68 8.799 5.843 17.505 14.447 19.337 1.81.387 2.582-2.398.767-2.785-7.44-1.583-12.915-8.955-12.333-16.552.058-.78-.703-1.444-1.441-1.444-.829 0-1.383.658-1.44 1.444M153.403 87.029c-1.06 3.345-1.55 6.898-1.383 10.41.139 2.964.744 6.02 3.274 7.858.628.456 1.608.109 1.971-.52.426-.728.115-1.52-.519-1.976-1.781-1.294-1.838-4.2-1.873-6.165a27.7 27.7 0 0 1 1.308-8.84c.565-1.773-2.219-2.535-2.778-.768"/><path fill="#000" d="M147.421 75.162c-2.547-1.681-4.357 2.507-4.916 4.298-.72 2.323-.749 4.836-.253 7.21.985 4.72 4.241 8.58 8.01 11.393.623.468 1.608.104 1.971-.52.433-.74.11-1.508-.518-1.976-2.807-2.097-5.268-4.95-6.34-8.336-.53-1.67-.726-3.455-.501-5.2.115-.867.34-1.745.669-2.554.149-.375.34-.733.536-1.086.109-.19.27-.381.357-.577.19-.428.369.404-.479-.156 1.562 1.022 3.009-1.48 1.464-2.496"/><path fill="#000" d="M147.041 75.832c-2.357-.93-4.881.237-7.307-.237-2.087-.41-3.994-1.456-5.516-2.94-3.417-3.334-4.356-8.314-3.936-12.913.098-1.046-1.314-1.86-2.167-1.248-4.172 2.993-9.168 4.894-14.315 5.148-4.437.22-9.924-1.248-11.076-6.2-.421-1.808-3.199-1.045-2.778.769.991 4.252 4.87 7.124 8.985 7.967 4.535.93 9.48.116 13.761-1.52a30.2 30.2 0 0 0 6.881-3.674l-2.166-1.248c-.381 4.148.317 8.533 2.524 12.121 2.04 3.31 5.486 5.945 9.365 6.58 1.152.191 2.276.226 3.434.093 1.199-.133 2.398-.37 3.55.087.726.283 1.579-.312 1.775-1.011.213-.82-.288-1.49-1.014-1.774"/><path fill="#000" d="M135.146 74.232c-4.702.548-9.705 1.195-14.28-.393-3.308-1.144-6.357-3.629-7.25-7.13-.461-1.802-3.239-1.04-2.778.769 1.095 4.31 4.668 7.36 8.673 8.932 4.956 1.94 10.489 1.311 15.635.71.772-.092 1.441-.6 1.441-1.444 0-.71-.663-1.537-1.441-1.444M116.232 44.08a96.4 96.4 0 0 0 7.93-19.02c.53-1.785-2.253-2.548-2.778-.768a93 93 0 0 1-7.636 18.331c-.899 1.63 1.585 3.086 2.484 1.456M141.03 60.92a154.4 154.4 0 0 0 7.555-20.452c.519-1.79-2.259-2.553-2.778-.768a149.6 149.6 0 0 1-7.267 19.765c-.322.71-.201 1.554.519 1.975.617.359 1.648.191 1.971-.52"/><path fill="#000" d="M143.554 89.6c-7.526 1.201-15.45-4.062-17.485-11.365-.501-1.785-3.279-1.028-2.777.769 1.896 6.8 8.016 12.103 14.914 13.334a18.1 18.1 0 0 0 6.115.046c.766-.121 1.198-1.086 1.008-1.78-.225-.82-1.003-1.132-1.775-1.004"/><path fill="#000" d="M143.462 88.484c-1.435 2.675-2.876 5.344-4.311 8.02-.357.664-.184 1.6.519 1.975.668.353 1.591.19 1.971-.52 1.435-2.675 2.876-5.35 4.311-8.019.357-.664.184-1.6-.519-1.976-.669-.352-1.591-.19-1.971.52M122.854 77.369a95.5 95.5 0 0 0-15.526 15.87c-.478.618-.599 1.444 0 2.045.496.497 1.556.618 2.04 0a95.3 95.3 0 0 1 15.526-15.87c.605-.491.507-1.531 0-2.046-.605-.6-1.435-.49-2.04 0M110.118 65.017c-3.683 2.669-6.795 6.026-9.129 9.943-.397.67-.15 1.583.519 1.975.68.399 1.573.156 1.971-.52 2.057-3.454 4.893-6.586 8.091-8.908.628-.457.939-1.26.519-1.976-.363-.618-1.337-.977-1.971-.514M151.962 102.951c-5.376 3.478-12.056 2.577-17.945 1.173-3.349-.797-6.662-1.716-10.045-2.357a92 92 0 0 0-10.443-1.364 90 90 0 0 0-11.952-.063c-1.844.109-1.856 3.004 0 2.888 7.088-.433 14.229-.04 21.219 1.248 6.766 1.248 13.439 3.894 20.389 3.79 3.579-.052 7.198-.861 10.23-2.819 1.556-1.005.115-3.507-1.453-2.496"/><path fill="#000" d="M104.383 195.603c-.173-6.165.185-12.352 1.136-18.453.472-3.022 1.077-6.02 1.815-8.984.645-2.583 1.274-5.275 2.513-7.649 1.071-2.063 2.662-3.796 4.887-4.605 2.115-.768 4.443-.843 6.638-.41 4.692.924 8.691 3.871 11.878 7.331 3.74 4.056 6.518 8.898 9.221 13.675.783 1.381 3.244.445 2.633-1.115-2.386-6.095-4.95-12.155-7.117-18.337-1.763-5.026-2.939-10.752.081-15.541 1.135-1.803 2.829-3.224 4.927-3.715 2.467-.578 4.95.277 7.06 1.548 2.363 1.422 4.38 3.351 6.253 5.362q3.162 3.39 6.16 6.927a198 198 0 0 1 12.713 16.702c1.038 1.52 3.516.11 2.49-1.456-8.016-12.259-14.431-25.547-18.983-39.482-1.124-3.444-2.398-7.002-2.876-10.602-.444-3.374.282-6.534 2.478-9.163 2.08-2.49 4.789-4.396 7.492-6.141a64 64 0 0 1 9.151-4.888c7.095-3.079 14.8-4.79 22.522-5.06 1.568-.053 2.023-2.456.38-2.837a77.9 77.9 0 0 0-38.358.826 76 76 0 0 0-9.313 3.264c-3.043 1.288-5.97 2.843-9.042 4.056-6.316 2.49-13.053 2.796-19.75 3.206-8.022.491-16.044.977-24.066 1.468-1.844.109-1.855 3.004 0 2.888l21.358-1.3c6.725-.41 13.67-.496 20.182-2.42 3.256-.96 6.322-2.456 9.388-3.888 2.87-1.34 5.791-2.537 8.805-3.519a74.8 74.8 0 0 1 18.736-3.564 74.3 74.3 0 0 1 21.282 1.779l.381-2.837a65.3 65.3 0 0 0-21.346 4.368 66 66 0 0 0-9.676 4.674c-3.032 1.79-6.057 3.801-8.616 6.234-2.605 2.484-4.524 5.54-4.933 9.168-.438 3.842.761 7.696 1.856 11.336a171 171 0 0 0 8.131 21.555 168.4 168.4 0 0 0 12.316 22.347l2.489-1.456a205 205 0 0 0-12.039-15.951 201 201 0 0 0-6.558-7.476c-2.063-2.236-4.23-4.397-6.771-6.095-2.38-1.589-5.221-2.768-8.126-2.618-2.726.139-5.25 1.352-7.106 3.357-4.12 4.454-4.374 10.752-2.91 16.362.945 3.639 2.455 7.117 3.827 10.613l4.339 11.092c.876-.37 1.758-.739 2.634-1.115-4.968-8.787-11.002-18.973-21.34-21.977-5.049-1.467-11.111-.797-14.621 3.495-1.769 2.167-2.772 4.807-3.544 7.47a99 99 0 0 0-2.219 9.464 105.2 105.2 0 0 0-1.729 22.098c.058 1.843 2.939 1.855 2.887-.011"/><path fill="#000" d="M99.82 103.945c-.197.231-.433.358-.698.369q-.036-.059.075.029c.069.087.294.214.415.324q.501.452.968.947a14 14 0 0 1 1.711 2.213c.969 1.554 1.678 3.334 1.827 5.171.277 3.414-1.227 6.956-4.287 8.648-1.625.902-.173 3.398 1.452 2.496 3.394-1.883 5.383-5.54 5.711-9.348.34-3.969-1.423-7.874-3.999-10.803-.686-.78-1.499-1.705-2.432-2.184-1.13-.584-2.553-.526-3.24.676-.91 1.618 1.574 3.073 2.496 1.462M141.295 134.726c-6.973.798-13.946 2.895-19.196 7.765a22.7 22.7 0 0 0-3.193 3.698c-.882 1.271-1.487 2.64-2.138 4.032-.236.509-.496 1.069-.887 1.474-.317.329-.559.421-1.061.213-.686-.283-1.314-.716-2-1.017a15 15 0 0 0-2.512-.849c-3.654-.832-7.573-.248-10.788 1.693-1.585.959-.139 3.461 1.452 2.496a11.68 11.68 0 0 1 8.569-1.404 11.4 11.4 0 0 1 2.035.647c.772.335 1.469.815 2.253 1.121 1.585.63 3.25.173 4.328-1.138.905-1.104 1.331-2.438 1.965-3.692a17.9 17.9 0 0 1 2.432-3.623c2.069-2.368 4.634-4.2 7.457-5.546 3.522-1.675 7.417-2.559 11.278-2.998.773-.087 1.441-.601 1.441-1.445.006-.693-.657-1.513-1.435-1.427"/><path fill="#000" d="M142.626 136.691c-.847-7.557 4.311-15.16 11.705-17.003 1.798-.451 1.037-3.236-.767-2.785-8.523 2.126-14.805 11.006-13.819 19.788.086.774.599 1.444 1.441 1.444.714 0 1.527-.664 1.44-1.444M155.697 109.375c-1.003-2.831-1.573-5.777-1.625-8.787-.035-2.236-.012-4.974 1.907-6.477.617-.48.502-1.536 0-2.045-.605-.606-1.423-.48-2.04 0-2.374 1.86-2.749 5.177-2.754 7.985a30.2 30.2 0 0 0 1.728 10.087c.26.734.986 1.225 1.775 1.011.709-.191 1.268-1.034 1.009-1.774"/><path fill="#000" d="M145.865 119.792c.824-.589.675.347.427-.15-.075-.15-.196-.283-.288-.428q-.364-.573-.652-1.19c-.357-.774-.587-1.618-.743-2.461-.323-1.733-.179-3.559.288-5.246.997-3.582 3.458-6.517 6.311-8.799.61-.485.507-1.537 0-2.045-.6-.6-1.43-.491-2.041 0-3.613 2.894-6.662 6.968-7.388 11.641-.363 2.323-.265 4.738.513 6.968.386 1.115.911 2.195 1.614 3.149.766 1.04 2.184 1.923 3.417 1.051.634-.451.934-1.259.519-1.976-.375-.624-1.337-.97-1.977-.514"/><path fill="#000" d="M145.796 118.977c-.887.387-2.023.174-2.945.099-.985-.081-1.942-.081-2.922.057-1.896.26-3.734.988-5.325 2.063-3.411 2.299-5.636 5.922-6.466 9.931-.49 2.369-.559 4.795-.259 7.193.72-.416 1.446-.832 2.167-1.248-3.844-2.559-8.235-4.177-12.805-4.778-4.542-.601-9.469-.19-13.157 2.779-1.781 1.433-3.135 3.467-3.579 5.725-.15.763.219 1.56 1.008 1.78.709.196 1.62-.243 1.775-1.011.98-4.986 6.351-6.69 10.818-6.627 5.157.075 10.211 1.768 14.493 4.622.842.561 2.306-.162 2.167-1.248-.588-4.674.202-9.804 3.654-13.259 1.498-1.496 3.371-2.577 5.452-3.004 1.077-.22 2.149-.156 3.238-.069 1.459.121 2.79.08 4.15-.515.714-.312.876-1.357.518-1.975-.443-.734-1.267-.827-1.982-.515"/><path fill="#000" d="M135.071 120.722c-5.146-.422-10.621-.838-15.508 1.196-3.988 1.658-7.543 4.865-8.494 9.232-.398 1.814 2.38 2.589 2.777.769.778-3.565 3.746-6.194 7.066-7.447 4.501-1.699 9.468-1.248 14.159-.861.778.063 1.441-.711 1.441-1.445 0-.831-.663-1.375-1.441-1.444M114.797 155.9a93 93 0 0 1 8.276 18.049c.588 1.756 3.371.999 2.778-.768a96.6 96.6 0 0 0-8.564-18.742c-.951-1.589-3.446-.139-2.49 1.461M139.001 138.216a149 149 0 0 1 7.953 19.493c.577 1.756 3.36 1.005 2.778-.769a155.5 155.5 0 0 0-8.247-20.186c-.818-1.664-3.308-.202-2.484 1.462"/><path fill="#000" d="M143.335 105.117c-6.984-.872-14.073 2.883-17.876 8.695a17.4 17.4 0 0 0-2.334 5.396c-.438 1.809 2.34 2.577 2.778.769 1.849-7.632 9.693-12.936 17.432-11.971.773.098 1.441-.734 1.441-1.444 0-.861-.668-1.346-1.441-1.445"/><path fill="#000" d="M145.404 107.578q-2.289-3.933-4.587-7.868c-.381-.653-1.32-.942-1.971-.52-.657.422-.922 1.276-.519 1.976q2.29 3.933 4.588 7.868c.38.653 1.319.942 1.97.52.657-.421.928-1.276.519-1.976M124.438 118.602c-5.826-4.385-11.116-9.481-15.773-15.102-.495-.601-1.521-.514-2.04 0-.593.595-.501 1.438 0 2.045 4.824 5.818 10.322 11.012 16.355 15.553.623.468 1.608.098 1.971-.52.438-.74.11-1.508-.513-1.976M111.835 131.167a28.8 28.8 0 0 1-4.639-3.87 29 29 0 0 1-2.029-2.288 30.636 30.636 0 0 1-1.734-2.438c-.409-.636-1.297-.954-1.971-.52-.634.41-.951 1.294-.519 1.976a33.35 33.35 0 0 0 9.446 9.642c.628.422 1.625.144 1.971-.52.38-.734.144-1.531-.525-1.982M152.354 91.812c-5.826-3.483-12.868-2.733-19.144-1.092-3.446.902-6.835 2.017-10.304 2.825-3.36.786-6.76 1.381-10.189 1.757-4.011.439-8.051.595-12.091.49-1.856-.045-1.856 2.843 0 2.89a91 91 0 0 0 20.897-1.872c3.365-.7 6.65-1.658 9.952-2.606 3.153-.907 6.357-1.774 9.647-1.958 3.389-.191 6.83.294 9.78 2.062 1.596.953 3.043-1.543 1.452-2.496"/><path fill="#000" d="M104.383 195.603a106 106 0 0 0-2.581-19.297 105 105 0 0 0-2.611-9.33c-.899-2.71-1.833-5.529-3.423-7.927-1.556-2.34-3.706-4.119-6.403-4.962-2.559-.803-5.365-.717-7.953-.093-5.094 1.219-9.457 4.662-12.742 8.643-3.786 4.593-6.46 9.943-9.013 15.287.876.37 1.758.74 2.634 1.115 1.049-3.339 2.092-6.673 3.14-10.012 1.032-3.293 2.162-6.575 3.003-9.92 1.499-5.968 1.62-12.45-2.484-17.419-1.683-2.039-4.051-3.472-6.679-3.83-2.818-.387-5.59.462-7.982 1.953-2.449 1.531-4.535 3.605-6.397 5.794-2.115 2.49-4.103 5.102-6.05 7.725a203 203 0 0 0-12.38 18.713l2.49 1.456c7.452-13.323 13.122-27.657 16.753-42.493.905-3.698 1.948-7.54 1.971-11.364.017-3.692-1.256-7.02-3.74-9.741-2.288-2.513-5.267-4.373-8.207-6.031a66 66 0 0 0-10.073-4.605 65.1 65.1 0 0 0-24.268-3.801l.38 2.836c12.235-3.755 25.398-4.304 37.903-1.548a74 74 0 0 1 9.267 2.68c3.112 1.127 6.155 2.456 9.342 3.386 6.558 1.918 13.462 1.687 20.222 1.629 7.895-.069 15.785-.132 23.68-.202 1.856-.017 1.856-2.906 0-2.889-7.083.058-14.171.122-21.254.18-6.742.057-13.716.514-20.32-1.087-3.227-.78-6.293-2.068-9.388-3.24a78 78 0 0 0-9.25-2.89 77.8 77.8 0 0 0-19.253-2.177 77.2 77.2 0 0 0-21.704 3.374c-1.51.462-1.29 2.894.38 2.836a62.8 62.8 0 0 1 20.753 2.779 61.4 61.4 0 0 1 9.578 3.865c2.91 1.473 5.873 3.114 8.374 5.223 2.426 2.045 4.333 4.628 4.639 7.88.334 3.617-.64 7.251-1.464 10.74a167 167 0 0 1-6.391 20.897 166.6 166.6 0 0 1-10.414 22.318c-.91 1.624 1.55 3.062 2.49 1.456a201 201 0 0 1 10.235-15.784 195 195 0 0 1 5.602-7.429c1.74-2.19 3.51-4.368 5.613-6.223 1.815-1.6 4.04-3.067 6.494-3.374a7.4 7.4 0 0 1 5.907 1.878c4.063 3.669 4.26 9.423 3.176 14.432-.778 3.593-2.006 7.089-3.106 10.59l-3.354 10.688c-.484 1.537 1.919 2.606 2.633 1.115 2.127-4.449 4.317-8.914 7.198-12.93 2.674-3.726 6.19-7.221 10.512-8.943 4.38-1.745 9.757-1.681 12.909 2.282 1.567 1.97 2.443 4.431 3.256 6.788a105 105 0 0 1 2.593 8.765 101.4 101.4 0 0 1 2.893 20.255c.058 1.837 2.939 1.849 2.864-.017"/><path fill="#000" d="M102.171 102.402c-.634-.953-1.683-1.236-2.743-.82-.934.364-1.608 1.132-2.248 1.877-1.343 1.578-2.403 3.334-3.124 5.281-1.354 3.651-1.117 7.828.917 11.185 1.095 1.808 2.68 3.333 4.599 4.229.703.329 1.55.196 1.971-.52.363-.624.19-1.647-.519-1.976-3.118-1.456-4.968-4.761-4.956-8.169.005-1.849.513-3.686 1.371-5.321.444-.844.957-1.664 1.556-2.404q.44-.538.922-1.034c-.057.058.421-.41.306-.323.161-.035.207-.075.138-.11.461-.098.231-.248-.68-.439 1.026 1.542 3.521.098 2.49-1.456M60.58 140.417c6.575.295 13.45 1.866 18.487 6.378 1.083.971 2.086 2.051 2.91 3.253.807 1.179 1.343 2.519 2.161 3.686.957 1.369 2.346 2.392 4.098 2.074 1.475-.266 2.64-1.433 4-2.005 3.094-1.288 6.742-1.178 9.727.353 1.648.849 3.106-1.647 1.452-2.496-3.014-1.549-6.448-1.993-9.768-1.3-1.562.329-3.1.936-4.46 1.785-.461.289-1.072.861-1.654.838-.317-.012-.657-.37-.91-.711-.894-1.196-1.424-2.646-2.289-3.871a21.7 21.7 0 0 0-3.233-3.657c-2.466-2.207-5.336-3.847-8.431-5.003-3.856-1.444-7.999-2.039-12.096-2.224-1.85-.075-1.845 2.813.005 2.9"/><path fill="#000" d="M62.164 139.481c.374-8.805-6.386-17.326-15.059-18.863-.766-.133-1.55.208-1.775 1.011-.19.699.236 1.641 1.009 1.78 7.48 1.323 13.266 8.446 12.943 16.072-.075 1.861 2.807 1.855 2.882 0M47.169 113.905c.95-3.42 1.331-7.026 1.026-10.567-.248-2.9-.934-5.922-3.493-7.65-1.544-1.04-2.985 1.462-1.452 2.496 1.815 1.225 2.011 3.998 2.12 5.974a27.6 27.6 0 0 1-.985 8.978c-.49 1.797 2.288 2.56 2.784.769"/><path fill="#000" d="M53.531 125.488c2.64 1.612 4.31-2.582 4.812-4.454.628-2.351.588-4.876-.006-7.233-1.17-4.645-4.5-8.383-8.35-11.052-.64-.445-1.602-.122-1.97.52-.422.716-.128 1.531.518 1.975 2.84 1.971 5.411 4.686 6.616 7.985.628 1.727.876 3.53.72 5.367-.07.832-.27 1.658-.542 2.444-.138.398-.3.768-.495 1.138-.104.196-.271.399-.346.607-.161.439-.334-.301.501.213-1.596-.976-3.043 1.52-1.458 2.49"/><path fill="#000" d="M53.883 124.818c2.391.85 4.863-.369 7.313-.017 2.086.3 4.068 1.311 5.624 2.727 3.539 3.212 4.68 8.129 4.42 12.756-.057 1.011 1.303 1.913 2.167 1.248 4.029-3.108 8.91-5.199 13.993-5.656 4.426-.398 10.114.797 11.45 5.749.485 1.791 3.263 1.034 2.779-.769-1.147-4.258-5.147-7.031-9.342-7.707-4.593-.739-9.44.249-13.693 2.04a29.8 29.8 0 0 0-6.639 3.847c.72.416 1.447.832 2.167 1.248.236-4.154-.588-8.527-2.916-12.028-2.196-3.299-5.694-5.749-9.647-6.292-1.182-.162-2.311-.127-3.487.041-1.147.161-2.294.439-3.423.034-.732-.26-1.58.295-1.775 1.011-.213.792.277 1.508 1.008 1.768"/><path fill="#000" d="M66.21 125.962c4.581-.699 9.48-1.462 14.004-.035 3.296 1.04 6.425 3.369 7.428 6.806.519 1.78 3.302 1.023 2.778-.768-1.257-4.299-4.933-7.28-9.042-8.695-5.13-1.768-10.713-.89-15.935-.093-.772.116-1.193 1.087-1.008 1.78.23.826 1.002 1.126 1.775 1.005M85.844 155.45a96.4 96.4 0 0 0-7.279 19.279c-.466 1.803 2.311 2.571 2.778.768a93 93 0 0 1 6.985-18.591c.841-1.653-1.643-3.12-2.484-1.456M60.331 139.828a152 152 0 0 0-6.713 20.354c-.456 1.802 2.322 2.57 2.777.768a152 152 0 0 1 6.714-20.354c.294-.722-.323-1.589-1.008-1.779-.824-.226-1.47.283-1.77 1.011"/><path fill="#000" d="M56.891 110.964c7.463-1.462 15.606 3.438 17.906 10.682.559 1.768 3.342 1.011 2.777-.768-2.126-6.719-8.344-11.809-15.277-12.832a18 18 0 0 0-6.167.133c-.766.151-1.198 1.063-1.008 1.78.213.797 1.003 1.155 1.769 1.005"/><path fill="#000" d="M57.046 112.102q2.013-4.082 4.034-8.163c.334-.676.202-1.595-.518-1.976-.652-.347-1.614-.202-1.971.52q-2.013 4.082-4.034 8.163c-.335.676-.202 1.595.518 1.976.651.347 1.614.202 1.971-.52M78.018 122.49c5.705-4.945 10.788-10.561 15.19-16.696.456-.636.11-1.607-.518-1.976-.726-.428-1.516-.116-1.97.52-4.26 5.927-9.233 11.329-14.742 16.107-.588.508-.525 1.519 0 2.045.587.584 1.446.509 2.04 0M91.457 134.154a32.7 32.7 0 0 0 8.506-10.012c.375-.681.167-1.577-.518-1.976-.663-.387-1.597-.167-1.971.52-2.029 3.692-4.691 6.806-8.051 9.429-.617.48-.502 1.537 0 2.045.605.601 1.418.474 2.034-.006M48.028 97.924c5.215-3.634 11.843-3.05 17.75-1.86 3.463.693 6.898 1.525 10.396 2.057 3.475.526 6.973.872 10.483 1 3.936.144 7.883.017 11.808-.359.772-.075 1.44-.612 1.44-1.444 0-.722-.662-1.52-1.44-1.445-7.065.676-14.229.55-21.248-.496-6.835-1.017-13.647-3.467-20.626-3.085-3.532.19-7.082 1.097-10.016 3.142-.64.445-.933 1.266-.518 1.976.369.63 1.331.96 1.97.514"/></svg>