<svg width="200" height="200" viewBox="0 0 200 200" fill="none" xmlns="http://www.w3.org/2000/svg">
<path d="M99.0642 3.3952C99.0238 9.51343 98.4476 15.6201 97.3065 21.6286C96.7244 24.6964 96.0041 27.7353 95.1454 30.7337C94.425 33.2526 93.7047 35.8582 92.4253 38.1634C91.2727 40.2433 89.5957 41.9187 87.302 42.664C85.1236 43.3746 82.7608 43.3226 80.5478 42.7911C75.9317 41.6818 72.0763 38.5794 69.0392 35.0379C65.4546 30.8608 62.8498 25.9154 60.3198 21.0566C59.5764 19.6238 57.1387 20.6118 57.6862 22.1717C59.8588 28.3477 62.2159 34.4948 64.1695 40.7459C65.7716 45.8762 66.711 51.6594 63.4549 56.3564C62.2216 58.13 60.3775 59.4819 58.2221 59.8228C55.8017 60.2041 53.4446 59.2566 51.4506 57.9567C49.2031 56.495 47.2956 54.5481 45.5379 52.5375C43.4805 50.1919 41.4923 47.7827 39.5501 45.3389C35.1761 39.8157 31.1132 34.0499 27.35 28.0935C26.3587 26.5278 23.8922 27.9548 24.8604 29.5494C32.4444 42.0747 38.3803 55.5706 42.4489 69.6443C43.4344 73.0472 44.5639 76.5714 44.927 80.1071C45.2728 83.5216 44.5524 86.6471 42.2703 89.2643C40.1322 91.7139 37.3487 93.5338 34.5882 95.1976C31.6203 96.9828 28.5026 98.5312 25.2753 99.7906C17.9909 102.627 10.234 104.118 2.41366 104.118C0.794266 104.118 0.448486 106.527 2.0333 106.955C14.5504 110.329 27.8744 110.467 40.4665 107.423C43.6015 106.666 46.6904 105.707 49.6987 104.545C52.7761 103.361 55.7556 101.923 58.8618 100.813C65.3451 98.4907 72.1858 98.4387 78.9803 98.2654C86.9678 98.0574 94.9494 97.8494 102.937 97.6415C104.787 97.5952 104.793 94.7066 102.937 94.7528C95.8542 94.9376 88.7716 95.1225 81.6889 95.3074C74.8598 95.4865 67.8347 95.3247 61.1785 97.0695C57.934 97.9188 54.8623 99.2996 51.7791 100.605C48.8516 101.847 45.8663 102.934 42.812 103.817C36.7263 105.568 30.4389 106.539 24.117 106.7C16.9248 106.891 9.74414 106.048 2.79401 104.176C2.66723 105.123 2.54044 106.065 2.41366 107.012C9.71532 107.012 17.0285 105.776 23.9268 103.367C27.3903 102.154 30.7674 100.657 33.9831 98.8894C37.049 97.2024 40.1091 95.2959 42.714 92.9387C45.2728 90.622 47.2495 87.6813 47.7451 84.2091C48.3098 80.2285 47.2322 76.2478 46.2179 72.4348C44.2873 65.1726 41.8726 58.0434 38.9911 51.1047C35.689 43.1608 31.8163 35.4712 27.3615 28.1166C26.5316 28.6019 25.7018 29.0872 24.8719 29.5725C28.4565 35.2458 32.3234 40.7343 36.4439 46.0264C38.507 48.6782 40.6393 51.278 42.8293 53.8201C44.7714 56.0675 46.823 58.2109 49.2434 59.9499C51.5256 61.5849 54.2399 62.7981 57.0868 62.8039C59.8069 62.8097 62.3772 61.6889 64.3193 59.7997C68.6473 55.588 69.1544 49.2791 67.9442 43.6635C67.1374 39.9024 65.7082 36.28 64.4346 32.6576C63.1149 28.9138 61.8009 25.1701 60.4812 21.4206C59.6052 21.7903 58.7235 22.1601 57.8475 22.5356C62.5213 31.5021 68.1978 41.8494 78.4386 45.2118C83.4351 46.8526 89.5207 46.3557 93.1572 42.1729C95.0186 40.0295 96.1021 37.3777 96.9723 34.7028C97.9692 31.6408 98.7991 28.521 99.4964 25.3781C101.087 18.1679 101.911 10.7902 101.963 3.40675C101.963 1.53489 99.0815 1.53488 99.0642 3.3952Z" fill="black"/>
<path d="M100.43 95.1515C101.352 94.9724 101.577 94.8337 101.116 94.7471C101.156 94.7528 101.133 94.7355 101.047 94.7008C100.943 94.5968 100.782 94.4813 100.643 94.3484C100.309 94.0249 99.9922 93.6898 99.6867 93.3431C99.0586 92.621 98.5111 91.8353 98.0385 91.0033C97.128 89.3972 96.5286 87.5947 96.4652 85.7401C96.3384 82.343 98.0212 78.9459 101.093 77.3803C102.747 76.5368 101.289 74.0467 99.6406 74.8845C96.2174 76.6292 94.1255 80.2054 93.6644 83.9491C93.1688 87.9818 94.8228 91.9681 97.3527 95.0301C98.0097 95.8216 98.7646 96.7287 99.6752 97.2371C100.805 97.8726 102.199 97.7744 102.92 96.6016C103.894 95.0244 101.404 93.5742 100.43 95.1515Z" fill="black"/>
<path d="M60.1179 62.9021C67.1199 62.3475 74.1392 60.4583 79.5564 55.7728C80.7954 54.704 81.8846 53.4908 82.8643 52.1793C83.7864 50.9372 84.4433 49.591 85.1406 48.2218C85.3942 47.7192 85.6651 47.1703 86.0858 46.7832C86.3682 46.5232 86.5814 46.4308 87.0424 46.6099C87.7686 46.893 88.414 47.4187 89.1228 47.7538C89.9239 48.1293 90.7538 48.4471 91.6067 48.6782C95.2373 49.6372 99.1677 49.152 102.441 47.3205C104.06 46.4135 102.608 43.9176 100.989 44.8247C98.3839 46.2806 95.2546 46.6503 92.3732 45.8935C91.6816 45.7144 91.0073 45.4775 90.3676 45.1656C89.653 44.8131 89.0018 44.3452 88.2699 44.0216C86.6563 43.3052 84.9562 43.675 83.7979 45.0096C82.8643 46.0842 82.3917 47.4072 81.7175 48.6378C81.0086 49.9204 80.1499 51.0931 79.1472 52.162C77.0091 54.4498 74.3639 56.2061 71.494 57.4367C67.9036 58.9735 63.9906 59.7072 60.1121 60.0192C59.3341 60.0827 58.6714 60.6374 58.6714 61.4635C58.6771 62.1915 59.3399 62.9656 60.1179 62.9021Z" fill="black"/>
<path d="M58.8044 60.9437C59.3864 68.5409 53.9116 75.9071 46.4716 77.4901C44.6563 77.8772 45.4285 80.6618 47.2381 80.2748C55.8422 78.4433 62.3659 69.7368 61.6858 60.9379C61.6282 60.158 61.0692 59.4936 60.2451 59.4936C59.5132 59.4993 58.7467 60.1637 58.8044 60.9437Z" fill="black"/>
<path d="M44.8176 87.7852C45.7224 90.6508 46.1777 93.6146 46.1258 96.6246C46.0912 98.5947 46.0278 101.501 44.2528 102.789C43.6247 103.245 43.3135 104.043 43.7342 104.765C44.0972 105.389 45.0712 105.741 45.7051 105.285C48.235 103.442 48.8459 100.391 48.9842 97.4277C49.1456 93.915 48.6557 90.3677 47.6011 87.0169C47.0363 85.2548 44.2528 86.0058 44.8176 87.7852Z" fill="black"/>
<path d="M55.0294 77.6458C54.4531 77.513 54.263 77.5245 54.4474 77.6863C54.4589 77.6921 54.4762 77.7036 54.4877 77.7094C54.505 77.8654 54.7644 78.1311 54.8566 78.2871C55.0583 78.6338 55.2542 78.992 55.4098 79.3675C55.7613 80.1937 55.9976 81.1065 56.1129 81.9904C56.3434 83.7467 56.1475 85.5377 55.6173 87.2247C54.5454 90.6103 52.0846 93.4701 49.278 95.5615C48.6556 96.0294 48.3387 96.8094 48.7594 97.5373C49.1167 98.1555 50.1021 98.5253 50.7303 98.0573C54.4993 95.2437 57.7553 91.3844 58.7408 86.6643C59.2306 84.3303 59.2076 81.8576 58.5218 79.5639C57.9801 77.7556 56.1532 73.4573 53.5772 75.1558C52.0327 76.1726 53.4792 78.6742 55.0294 77.6458Z" fill="black"/>
<path d="M54.7298 78.6052C55.7268 78.2123 56.7354 78.3394 57.7784 78.4607C58.7524 78.5763 59.709 78.6629 60.683 78.5647C62.6943 78.3683 64.6306 77.7097 66.3537 76.6293C69.8403 74.4454 72.157 70.8693 73.1252 66.9002C73.6957 64.5604 73.834 62.1223 73.615 59.7305C72.8947 60.1465 72.1685 60.5624 71.4482 60.9784C75.1365 63.6302 79.4644 65.4385 83.948 66.1607C88.4201 66.8829 93.4396 66.7731 97.1971 63.9133C99.0758 62.4863 100.528 60.5335 101.076 58.2053C101.496 56.3969 98.7185 55.6228 98.2978 57.4369C97.1452 62.3823 91.6531 63.8497 87.2214 63.6302C82.0751 63.376 77.0786 61.4752 72.9062 58.4826C72.0533 57.8702 70.6414 58.679 70.7393 59.7305C71.16 64.3293 70.2207 69.3151 66.7975 72.6429C65.276 74.1219 63.3685 75.1734 61.2823 75.5836C58.8561 76.0573 56.3319 74.8903 53.9749 75.8205C53.2488 76.1036 52.7474 76.7853 52.9664 77.5999C53.145 78.2874 53.9979 78.894 54.7298 78.6052Z" fill="black"/>
<path d="M65.8582 77.1145C71.0045 77.7211 76.537 78.3451 81.4931 76.4039C85.5041 74.8325 89.0714 71.7878 90.1721 67.4779C90.6332 65.6753 87.8554 64.9069 87.3944 66.7095C86.5011 70.2106 83.4525 72.6948 80.1388 73.8388C75.563 75.4218 70.5608 74.7805 65.8582 74.2258C65.086 74.1334 64.4175 74.9538 64.4175 75.6702C64.4175 76.5252 65.0802 77.0221 65.8582 77.1145Z" fill="black"/>
<path d="M87.2617 42.6177C84.069 36.7941 81.5103 30.6586 79.6258 24.2861C79.1014 22.5067 76.3179 23.2635 76.8481 25.0545C78.8017 31.6581 81.4642 38.0421 84.7721 44.0736C85.6711 45.7086 88.1607 44.2527 87.2617 42.6177Z" fill="black"/>
<path d="M62.4637 59.453C59.5764 53.0459 57.1617 46.4366 55.2023 39.6886C54.6837 37.9092 51.9059 38.666 52.4246 40.457C54.4531 47.4476 56.9888 54.2765 59.9798 60.9089C60.3025 61.6195 61.3283 61.7928 61.9507 61.4289C62.6711 61.0013 62.7806 60.1636 62.4637 59.453Z" fill="black"/>
<path d="M56.678 92.3727C63.7952 93.5108 71.0219 90.2062 75.1713 84.3595C76.3181 82.7418 77.1768 80.9104 77.7127 78.9981C78.2141 77.2071 75.4364 76.4387 74.935 78.2297C72.8949 85.5265 64.9708 90.7955 57.4444 89.588C56.6779 89.4667 55.8942 89.7844 55.6694 90.599C55.4793 91.2865 55.9 92.2514 56.678 92.3727Z" fill="black"/>
<path d="M55.0468 89.9344C56.4817 92.6093 57.9225 95.2843 59.3574 97.9534C59.7147 98.6178 60.6887 98.8836 61.3284 98.4734C62.0026 98.0401 62.2274 97.2081 61.847 96.4975C60.4121 93.8226 58.9713 91.1477 57.5363 88.4785C57.179 87.8141 56.2051 87.5484 55.5654 87.9586C54.8912 88.3919 54.6664 89.2238 55.0468 89.9344Z" fill="black"/>
<path d="M76.1106 79.408C81.8851 84.0761 87.0948 89.4029 91.636 95.2842C92.1143 95.9024 93.1747 95.7869 93.6761 95.2842C94.2812 94.6776 94.1544 93.863 93.6761 93.239C89.1349 87.3635 83.9252 82.0309 78.1507 77.3628C77.5456 76.8717 76.7042 76.7678 76.1106 77.3628C75.6034 77.8712 75.4997 78.9169 76.1106 79.408Z" fill="black"/>
<path d="M89.4344 67.5066C92.6386 69.8291 95.4682 72.9605 97.5256 76.4153C97.9233 77.0855 98.8223 77.3282 99.4965 76.9353C100.165 76.5424 100.413 75.6296 100.015 74.9595C97.687 71.0424 94.575 67.6857 90.8925 65.0166C90.2643 64.5602 89.2846 64.9068 88.9215 65.5366C88.4893 66.2587 88.8005 67.0502 89.4344 67.5066Z" fill="black"/>
<path d="M47.5782 105.435C53.1914 109.063 60.1761 108.59 66.4116 107.209C69.8982 106.441 73.3271 105.435 76.831 104.73C80.2542 104.043 83.7062 103.569 87.187 103.303C91.2557 102.997 95.3416 102.974 99.416 103.223C101.266 103.338 101.26 100.449 99.416 100.334C92.3391 99.9005 85.2334 100.311 78.2545 101.53C74.8543 102.125 71.5233 102.986 68.1751 103.818C65.0112 104.603 61.807 105.32 58.5336 105.36C55.1969 105.406 51.8716 104.765 49.0363 102.934C47.4687 101.928 46.0222 104.43 47.5782 105.435Z" fill="black"/>
<path d="M99.0642 3.39524C99.1103 9.95255 99.7673 16.5041 101.024 22.9401C101.646 26.1407 102.424 29.3067 103.352 32.4323C104.159 35.165 105.017 37.9959 106.562 40.4166C108.066 42.768 110.187 44.5359 112.838 45.4256C115.356 46.2691 118.117 46.2402 120.693 45.7087C125.799 44.6514 130.253 41.3468 133.653 37.5048C137.595 33.0505 140.448 27.7757 143.18 22.5299C142.304 22.1601 141.422 21.7904 140.546 21.4149C139.37 24.76 138.189 28.0993 137.013 31.4444C135.878 34.6681 134.65 37.8746 133.705 41.1561C132.063 46.8642 131.642 53.3233 135.417 58.3091C136.996 60.3948 139.192 62.0529 141.797 62.5728C144.666 63.1448 147.513 62.4573 150.038 61.0476C152.585 59.6264 154.78 57.587 156.74 55.4493C158.924 53.0691 160.976 50.5501 162.993 48.0254C167.713 42.1209 172.11 35.9565 176.149 29.5667C175.32 29.0814 174.49 28.5961 173.66 28.1108C165.77 41.133 159.627 55.2356 155.484 69.8986C154.446 73.5672 153.294 77.3514 153.109 81.1818C152.925 85.0006 154.187 88.4555 156.688 91.3153C158.924 93.8746 161.857 95.8216 164.739 97.5722C167.845 99.4556 171.118 101.056 174.49 102.402C182.131 105.452 190.361 107.018 198.585 107.018C198.458 106.071 198.331 105.129 198.204 104.181C185.895 107.498 172.778 107.573 160.422 104.424C157.339 103.638 154.302 102.656 151.346 101.483C148.268 100.264 145.283 98.8259 142.142 97.7628C135.67 95.579 128.766 95.5443 122.018 95.371C114.031 95.163 106.049 94.9492 98.0614 94.7412C96.2058 94.695 96.2058 97.5837 98.0614 97.6299C105.19 97.8148 112.325 98.0055 119.454 98.1903C126.196 98.3694 133.164 98.1672 139.71 100.028C142.943 100.946 146.003 102.367 149.098 103.662C152.055 104.898 155.074 105.955 158.163 106.81C164.416 108.543 170.911 109.474 177.4 109.601C184.661 109.745 191.957 108.855 198.977 106.966C200.544 106.544 200.227 104.129 198.596 104.129C191.617 104.129 184.684 102.945 178.086 100.663C174.807 99.5307 171.637 98.121 168.594 96.4513C165.707 94.8683 162.791 93.112 160.336 90.8877C158.031 88.8021 156.25 86.2139 156.019 83.0305C155.754 79.3561 156.895 75.6875 157.852 72.1806C159.783 65.1033 162.169 58.1416 165.015 51.3821C168.185 43.8484 171.925 36.5573 176.155 29.5667C177.123 27.9722 174.657 26.5452 173.666 28.1108C170.335 33.3856 166.767 38.5101 162.952 43.4497C161.033 45.934 159.057 48.3663 157.028 50.7523C155.195 52.9015 153.334 55.0392 151.138 56.8244C149.294 58.3265 147 59.7073 144.58 59.8864C142.304 60.0539 140.2 59.2335 138.604 57.6101C134.789 53.7508 134.91 48.0139 136.172 43.1031C137.065 39.6309 138.373 36.2627 139.566 32.8829C140.823 29.3183 142.079 25.7479 143.335 22.1832C143.877 20.6407 141.456 19.6239 140.702 21.0682C138.448 25.3897 136.143 29.7574 133.152 33.6167C130.317 37.2795 126.675 40.6939 122.243 42.2712C117.932 43.8079 112.607 43.652 109.599 39.7349C108.054 37.7244 107.242 35.2401 106.498 32.8483C105.588 29.9134 104.816 26.9322 104.17 23.9222C102.729 17.1743 102.003 10.2934 101.957 3.39524C101.934 1.53492 99.0527 1.53492 99.0642 3.39524Z" fill="black"/>
<path d="M98.0788 96.6131C98.6782 97.5837 99.7731 97.861 100.816 97.4739C101.75 97.1273 102.453 96.3762 103.116 95.654C104.51 94.1288 105.617 92.3898 106.401 90.4717C107.876 86.8493 107.755 82.7012 105.83 79.2636C104.798 77.4207 103.248 75.855 101.364 74.896C99.7155 74.0582 98.2517 76.5483 99.9114 77.3918C102.983 78.9575 104.666 82.3545 104.539 85.7516C104.47 87.6004 103.871 89.4087 102.96 91.0148C102.487 91.8468 101.94 92.6325 101.312 93.3547C101.006 93.7013 100.689 94.0364 100.355 94.3599C100.39 94.3253 99.9403 94.7239 100.032 94.6661C99.8653 94.7355 99.8135 94.7643 99.8826 94.7586C99.4216 94.8452 99.6464 94.9781 100.568 95.163C99.5945 93.5742 97.0991 95.0243 98.0788 96.6131Z" fill="black"/>
<path d="M140.886 60.0251C134.316 59.4993 127.521 57.6564 122.646 52.9709C121.591 51.9599 120.646 50.8448 119.862 49.6085C119.108 48.4241 118.629 47.0953 117.874 45.911C117.044 44.611 115.782 43.5191 114.151 43.6405C112.509 43.7618 111.23 45.0097 109.72 45.5528C106.539 46.6967 102.977 46.4771 100.015 44.8248C98.3955 43.9178 96.9374 46.4136 98.5626 47.3206C101.525 48.9787 104.948 49.4987 108.285 48.921C109.864 48.6494 111.408 48.0832 112.797 47.2802C113.264 47.0144 113.967 46.4598 114.451 46.5176C114.826 46.5638 115.137 46.974 115.39 47.3726C116.186 48.6148 116.687 50.0187 117.5 51.255C118.387 52.6185 119.442 53.8837 120.612 55.0103C122.998 57.3039 125.827 59.0256 128.876 60.2793C132.691 61.8507 136.788 62.5844 140.886 62.908C141.664 62.9715 142.326 62.1974 142.326 61.4636C142.326 60.6317 141.664 60.0829 140.886 60.0251Z" fill="black"/>
<path d="M139.319 60.955C138.639 69.754 145.162 78.4605 153.766 80.2919C155.576 80.679 156.348 77.8943 154.533 77.5072C147.093 75.9242 141.618 68.5523 142.2 60.955C142.258 60.1751 141.497 59.5107 140.759 59.5107C139.93 59.5107 139.376 60.1693 139.319 60.955Z" fill="black"/>
<path d="M153.403 87.0285C152.343 90.3736 151.853 93.9267 152.02 97.4393C152.159 100.403 152.764 103.459 155.294 105.297C155.922 105.753 156.902 105.406 157.265 104.777C157.691 104.049 157.38 103.257 156.746 102.801C154.965 101.507 154.908 98.6006 154.873 96.6363C154.821 93.6262 155.276 90.6625 156.181 87.7969C156.746 86.0232 153.962 85.2606 153.403 87.0285Z" fill="black"/>
<path d="M147.421 75.1617C144.874 73.4805 143.064 77.6691 142.505 79.4601C141.785 81.7826 141.756 84.2958 142.252 86.6703C143.237 91.3904 146.493 95.2497 150.262 98.0633C150.885 98.5312 151.87 98.1673 152.233 97.5433C152.666 96.8038 152.343 96.0354 151.715 95.5674C148.908 93.4702 146.447 90.6162 145.375 87.2307C144.845 85.561 144.649 83.7758 144.874 82.0311C144.989 81.1644 145.214 80.2863 145.543 79.4774C145.692 79.1019 145.883 78.7437 146.079 78.3913C146.188 78.2007 146.349 78.01 146.436 77.8136C146.626 77.3861 146.805 78.218 145.957 77.6576C147.519 78.6802 148.966 76.1786 147.421 75.1617Z" fill="black"/>
<path d="M147.041 75.832C144.684 74.9019 142.16 76.0689 139.734 75.5951C137.647 75.1849 135.74 74.1392 134.218 72.6545C130.801 69.3209 129.862 64.3408 130.282 59.742C130.38 58.6963 128.968 57.8817 128.115 58.4941C123.943 61.4868 118.947 63.3875 113.8 63.6418C109.363 63.8613 103.876 62.3939 102.724 57.4426C102.303 55.6343 99.5254 56.3969 99.9461 58.211C100.937 62.4632 104.816 65.3345 108.931 66.178C113.466 67.1082 118.411 66.2936 122.692 64.6586C125.136 63.7284 127.447 62.5094 129.573 60.9842C128.853 60.5682 128.127 60.1522 127.407 59.7363C127.026 63.8844 127.724 68.2694 129.931 71.8572C131.971 75.1676 135.417 77.8021 139.296 78.4376C140.448 78.6283 141.572 78.6629 142.73 78.5301C143.929 78.3972 145.128 78.1603 146.28 78.6167C147.006 78.8998 147.859 78.3047 148.055 77.6057C148.268 76.7853 147.767 76.1151 147.041 75.832Z" fill="black"/>
<path d="M135.146 74.2316C130.444 74.7804 125.441 75.4275 120.866 73.8387C117.558 72.6948 114.509 70.2105 113.616 66.7094C113.155 64.9069 110.377 65.6695 110.838 67.4778C111.933 71.7877 115.506 74.8382 119.511 76.4096C124.467 78.3508 130 77.7211 135.146 77.1202C135.918 77.0278 136.587 76.5194 136.587 75.6759C136.587 74.9653 135.924 74.1391 135.146 74.2316Z" fill="black"/>
<path d="M116.232 44.0793C119.546 38.0478 122.208 31.658 124.162 25.0602C124.692 23.275 121.909 22.5124 121.384 24.2918C119.5 30.6643 116.941 36.7999 113.748 42.6234C112.849 44.2527 115.333 45.7086 116.232 44.0793Z" fill="black"/>
<path d="M141.03 60.9204C144.021 54.288 146.557 47.4592 148.585 40.4685C149.104 38.6775 146.326 37.9149 145.807 39.7001C143.848 46.4481 141.428 53.0574 138.54 59.4645C138.218 60.1751 138.339 61.0186 139.059 61.4404C139.676 61.7986 140.707 61.631 141.03 60.9204Z" fill="black"/>
<path d="M143.554 89.5995C136.028 90.8012 128.104 85.538 126.069 78.2354C125.568 76.4502 122.79 77.2071 123.292 79.0038C125.188 85.8038 131.308 91.1074 138.206 92.338C140.252 92.702 142.275 92.7135 144.321 92.3842C145.087 92.2629 145.519 91.2981 145.329 90.6048C145.104 89.7844 144.326 89.4724 143.554 89.5995Z" fill="black"/>
<path d="M143.462 88.4844C142.027 91.1593 140.586 93.8284 139.151 96.5034C138.794 97.1677 138.967 98.1037 139.67 98.4792C140.338 98.8316 141.261 98.6699 141.641 97.9593C143.076 95.2843 144.517 92.6094 145.952 89.9403C146.309 89.2759 146.136 88.3399 145.433 87.9644C144.764 87.612 143.842 87.7737 143.462 88.4844Z" fill="black"/>
<path d="M122.854 77.3685C117.079 82.0367 111.869 87.3634 107.328 93.239C106.85 93.8572 106.729 94.6833 107.328 95.2842C107.824 95.781 108.884 95.9024 109.368 95.2842C113.91 89.4086 119.119 84.0761 124.894 79.4137C125.499 78.9227 125.401 77.8827 124.894 77.3685C124.289 76.7677 123.459 76.8775 122.854 77.3685Z" fill="black"/>
<path d="M110.118 65.0167C106.435 67.6858 103.323 71.0425 100.989 74.9596C100.592 75.6297 100.839 76.5425 101.508 76.9354C102.188 77.334 103.081 77.0914 103.479 76.4154C105.536 72.9606 108.372 69.8292 111.57 67.5067C112.198 67.0503 112.509 66.2473 112.089 65.5309C111.726 64.9127 110.752 64.5545 110.118 65.0167Z" fill="black"/>
<path d="M151.962 102.951C146.586 106.429 139.906 105.528 134.017 104.124C130.668 103.327 127.355 102.408 123.972 101.767C120.52 101.114 117.027 100.657 113.529 100.403C109.553 100.114 105.559 100.097 101.577 100.34C99.7327 100.449 99.7212 103.344 101.577 103.228C108.665 102.795 115.806 103.188 122.796 104.476C129.562 105.724 136.235 108.37 143.185 108.266C146.764 108.214 150.383 107.405 153.415 105.447C154.971 104.442 153.53 101.94 151.962 102.951Z" fill="black"/>
<path d="M104.383 195.603C104.21 189.438 104.568 183.251 105.519 177.15C105.991 174.128 106.596 171.13 107.334 168.166C107.979 165.583 108.608 162.891 109.847 160.517C110.918 158.454 112.509 156.721 114.734 155.912C116.849 155.144 119.177 155.069 121.372 155.502C126.064 156.426 130.063 159.373 133.25 162.833C136.99 166.889 139.768 171.731 142.471 176.508C143.254 177.889 145.715 176.953 145.104 175.393C142.718 169.298 140.154 163.238 137.987 157.056C136.224 152.03 135.048 146.304 138.068 141.515C139.203 139.712 140.897 138.291 142.995 137.8C145.462 137.222 147.945 138.077 150.055 139.348C152.418 140.77 154.435 142.699 156.308 144.71C158.417 146.969 160.468 149.28 162.468 151.637C166.998 156.975 171.239 162.55 175.181 168.339C176.219 169.859 178.697 168.449 177.671 166.883C169.655 154.624 163.24 141.336 158.688 127.401C157.564 123.957 156.29 120.399 155.812 116.799C155.368 113.425 156.094 110.265 158.29 107.636C160.37 105.146 163.079 103.24 165.782 101.495C168.692 99.6174 171.758 97.9882 174.933 96.6074C182.028 93.528 189.733 91.8179 197.455 91.5464C199.023 91.4944 199.478 89.091 197.835 88.7097C185.238 85.7806 171.942 86.0694 159.477 89.5359C156.308 90.4198 153.196 91.5117 150.164 92.8001C147.121 94.0884 144.194 95.6426 141.122 96.8558C134.806 99.3459 128.069 99.652 121.372 100.062C113.35 100.553 105.328 101.039 97.3064 101.53C95.4622 101.639 95.4507 104.534 97.3064 104.418C104.424 103.985 111.547 103.552 118.664 103.118C125.389 102.708 132.334 102.622 138.846 100.698C142.102 99.7387 145.168 98.2424 148.234 96.8096C151.104 95.4692 154.025 94.2733 157.039 93.2912C163.102 91.3095 169.412 90.1078 175.775 89.7265C182.915 89.299 190.09 89.8825 197.057 91.506C197.184 90.5585 197.311 89.6168 197.438 88.6693C190.148 88.9235 182.898 90.3909 176.092 93.037C172.749 94.3369 169.505 95.8852 166.416 97.7108C163.384 99.5018 160.359 101.512 157.8 103.945C155.195 106.429 153.276 109.485 152.867 113.113C152.429 116.955 153.628 120.809 154.723 124.449C156.941 131.809 159.667 139.013 162.854 146.004C166.387 153.751 170.507 161.227 175.17 168.351C176 167.865 176.829 167.38 177.659 166.895C173.908 161.389 169.891 156.062 165.62 150.944C163.494 148.396 161.31 145.906 159.062 143.468C156.999 141.232 154.832 139.071 152.291 137.373C149.911 135.784 147.07 134.605 144.165 134.755C141.439 134.894 138.915 136.107 137.059 138.112C132.939 142.566 132.685 148.864 134.149 154.474C135.094 158.113 136.604 161.591 137.976 165.087C139.422 168.784 140.869 172.482 142.315 176.179C143.191 175.809 144.073 175.44 144.949 175.064C139.981 166.277 133.947 156.091 123.609 153.087C118.56 151.62 112.498 152.29 108.988 156.582C107.219 158.749 106.216 161.389 105.444 164.052C104.545 167.166 103.813 170.332 103.225 173.516C101.876 180.795 101.289 188.208 101.496 195.614C101.554 197.457 104.435 197.469 104.383 195.603Z" fill="black"/>
<path d="M99.8192 103.945C99.6232 104.176 99.387 104.303 99.1219 104.314C99.0988 104.274 99.1219 104.285 99.1968 104.343C99.2659 104.43 99.4907 104.557 99.6117 104.667C99.946 104.967 100.269 105.285 100.58 105.614C101.225 106.296 101.796 107.03 102.291 107.827C103.26 109.381 103.969 111.161 104.118 112.998C104.395 116.412 102.891 119.954 99.8307 121.646C98.2056 122.548 99.6578 125.044 101.283 124.142C104.677 122.259 106.666 118.602 106.994 114.794C107.334 110.825 105.571 106.92 102.995 103.991C102.309 103.211 101.496 102.286 100.563 101.807C99.4331 101.223 98.0096 101.281 97.3238 102.483C96.4133 104.101 98.8971 105.556 99.8192 103.945Z" fill="black"/>
<path d="M141.295 134.726C134.322 135.524 127.349 137.621 122.099 142.491C120.906 143.6 119.834 144.848 118.906 146.189C118.024 147.46 117.419 148.829 116.768 150.221C116.532 150.73 116.272 151.29 115.881 151.695C115.564 152.024 115.322 152.116 114.82 151.908C114.134 151.625 113.506 151.192 112.82 150.891C112.008 150.539 111.172 150.244 110.308 150.042C106.654 149.21 102.735 149.794 99.5196 151.735C97.9347 152.694 99.3812 155.196 100.972 154.231C103.525 152.688 106.625 152.168 109.541 152.827C110.233 152.983 110.924 153.191 111.576 153.474C112.348 153.809 113.045 154.289 113.829 154.595C115.414 155.225 117.079 154.768 118.157 153.457C119.062 152.353 119.488 151.019 120.122 149.765C120.785 148.465 121.597 147.24 122.554 146.142C124.623 143.774 127.188 141.942 130.011 140.596C133.533 138.921 137.428 138.037 141.289 137.598C142.062 137.511 142.73 136.997 142.73 136.153C142.736 135.46 142.073 134.64 141.295 134.726Z" fill="black"/>
<path d="M142.626 136.691C141.779 129.134 146.937 121.531 154.331 119.688C156.129 119.237 155.368 116.452 153.564 116.903C145.041 119.029 138.759 127.909 139.745 136.691C139.831 137.465 140.344 138.135 141.186 138.135C141.9 138.135 142.713 137.471 142.626 136.691Z" fill="black"/>
<path d="M155.697 109.375C154.694 106.544 154.124 103.598 154.072 100.588C154.037 98.352 154.06 95.6135 155.979 94.1114C156.596 93.6319 156.481 92.5746 155.979 92.0662C155.374 91.4596 154.556 91.5867 153.939 92.0662C151.565 93.9265 151.19 97.2428 151.185 100.051C151.179 103.477 151.772 106.914 152.913 110.138C153.173 110.872 153.899 111.363 154.688 111.149C155.397 110.958 155.956 110.115 155.697 109.375Z" fill="black"/>
<path d="M145.865 119.792C146.689 119.203 146.54 120.139 146.292 119.642C146.217 119.492 146.096 119.359 146.004 119.214C145.762 118.833 145.543 118.434 145.352 118.024C144.995 117.25 144.765 116.406 144.609 115.563C144.286 113.83 144.43 112.004 144.897 110.317C145.894 106.735 148.355 103.8 151.208 101.518C151.818 101.033 151.715 99.9814 151.208 99.473C150.608 98.8722 149.778 98.9819 149.167 99.473C145.554 102.367 142.505 106.441 141.779 111.114C141.416 113.437 141.514 115.852 142.292 118.082C142.678 119.197 143.203 120.277 143.906 121.231C144.672 122.271 146.09 123.154 147.323 122.282C147.957 121.831 148.257 121.023 147.842 120.306C147.467 119.682 146.505 119.336 145.865 119.792Z" fill="black"/>
<path d="M145.796 118.977C144.909 119.364 143.773 119.151 142.851 119.076C141.866 118.995 140.909 118.995 139.929 119.133C138.033 119.393 136.195 120.121 134.604 121.196C131.193 123.495 128.968 127.118 128.138 131.127C127.648 133.496 127.579 135.922 127.879 138.32C128.599 137.904 129.325 137.488 130.046 137.072C126.202 134.513 121.811 132.895 117.241 132.294C112.699 131.693 107.772 132.104 104.084 135.073C102.303 136.506 100.949 138.54 100.505 140.798C100.355 141.561 100.724 142.358 101.513 142.578C102.222 142.774 103.133 142.335 103.288 141.567C104.268 136.581 109.639 134.877 114.106 134.94C119.263 135.015 124.317 136.708 128.599 139.562C129.441 140.123 130.905 139.4 130.766 138.314C130.178 133.64 130.968 128.51 134.42 125.055C135.918 123.559 137.791 122.478 139.872 122.051C140.949 121.831 142.021 121.895 143.11 121.982C144.569 122.103 145.9 122.062 147.26 121.467C147.974 121.155 148.136 120.11 147.778 119.492C147.335 118.758 146.511 118.665 145.796 118.977Z" fill="black"/>
<path d="M135.071 120.722C129.925 120.3 124.45 119.884 119.563 121.918C115.575 123.576 112.02 126.783 111.069 131.15C110.671 132.964 113.449 133.739 113.846 131.919C114.624 128.354 117.592 125.725 120.912 124.472C125.413 122.773 130.38 123.224 135.071 123.611C135.849 123.674 136.512 122.9 136.512 122.166C136.512 121.335 135.849 120.791 135.071 120.722Z" fill="black"/>
<path d="M114.797 155.9C118.192 161.609 120.969 167.652 123.073 173.949C123.661 175.705 126.444 174.948 125.851 173.181C123.672 166.652 120.802 160.355 117.287 154.439C116.336 152.85 113.841 154.3 114.797 155.9Z" fill="black"/>
<path d="M139.001 138.216C142.108 144.519 144.764 151.03 146.954 157.709C147.531 159.465 150.314 158.714 149.732 156.94C147.461 150.031 144.701 143.277 141.485 136.754C140.667 135.09 138.177 136.552 139.001 138.216Z" fill="black"/>
<path d="M143.335 105.117C136.351 104.245 129.262 108 125.459 113.812C124.387 115.453 123.586 117.296 123.125 119.208C122.687 121.017 125.465 121.785 125.903 119.977C127.752 112.345 135.596 107.041 143.335 108.006C144.108 108.104 144.776 107.272 144.776 106.562C144.776 105.701 144.108 105.216 143.335 105.117Z" fill="black"/>
<path d="M145.404 107.578C143.877 104.956 142.35 102.333 140.817 99.7097C140.436 99.0568 139.497 98.768 138.846 99.1897C138.189 99.6115 137.924 100.466 138.327 101.166C139.854 103.788 141.382 106.411 142.915 109.034C143.295 109.687 144.234 109.976 144.885 109.554C145.542 109.133 145.813 108.278 145.404 107.578Z" fill="black"/>
<path d="M124.438 118.602C118.612 114.217 113.322 109.121 108.665 103.5C108.17 102.899 107.144 102.986 106.625 103.5C106.032 104.095 106.124 104.938 106.625 105.545C111.449 111.363 116.947 116.557 122.98 121.098C123.603 121.566 124.588 121.196 124.951 120.578C125.389 119.838 125.061 119.07 124.438 118.602Z" fill="black"/>
<path d="M111.835 131.167C110.152 130.035 108.689 128.822 107.196 127.297C106.481 126.569 105.801 125.806 105.167 125.009C104.879 124.651 104.666 124.367 104.332 123.9C104.021 123.466 103.721 123.021 103.433 122.571C103.024 121.935 102.136 121.617 101.462 122.051C100.828 122.461 100.511 123.345 100.943 124.027C103.404 127.857 106.614 131.127 110.389 133.669C111.017 134.091 112.014 133.813 112.36 133.149C112.74 132.415 112.504 131.618 111.835 131.167Z" fill="black"/>
<path d="M152.354 91.8122C146.528 88.3285 139.486 89.0795 133.21 90.7203C129.764 91.6216 126.375 92.7366 122.906 93.5454C119.546 94.3312 116.146 94.9262 112.717 95.3018C108.706 95.7409 104.666 95.8968 100.626 95.7929C98.7705 95.7466 98.7705 98.6353 100.626 98.6815C107.634 98.8664 114.659 98.2367 121.523 96.8097C124.888 96.1106 128.173 95.1516 131.475 94.2041C134.628 93.297 137.832 92.4304 141.122 92.2455C144.511 92.0549 147.952 92.5402 150.902 94.3081C152.498 95.2613 153.945 92.7655 152.354 91.8122Z" fill="black"/>
<path d="M104.383 195.603C104.113 189.109 103.254 182.638 101.802 176.306C101.076 173.158 100.205 170.044 99.191 166.976C98.292 164.266 97.3584 161.447 95.7678 159.049C94.2118 156.709 92.0622 154.93 89.3652 154.087C86.8064 153.284 83.9999 153.37 81.4123 153.994C76.3179 155.213 71.9553 158.656 68.6704 162.637C64.8841 167.23 62.2101 172.58 59.6572 177.924C60.5331 178.294 61.4148 178.664 62.2908 179.039C63.3397 175.7 64.3828 172.366 65.4316 169.027C66.4632 165.734 67.5927 162.452 68.4341 159.107C69.9325 153.139 70.0535 146.657 65.9503 141.688C64.2675 139.649 61.8989 138.216 59.271 137.858C56.4529 137.471 53.681 138.32 51.2893 139.811C48.8401 141.342 46.7539 143.416 44.8924 145.605C42.7774 148.095 40.7892 150.707 38.8413 153.33C34.3693 159.332 30.243 165.584 26.4625 172.043C27.2924 172.528 28.1222 173.013 28.9521 173.499C36.4036 160.176 42.0744 145.842 45.705 131.006C46.6098 127.308 47.6529 123.466 47.676 119.642C47.6933 115.95 46.4196 112.622 43.9358 109.901C41.6479 107.388 38.6685 105.528 35.7294 103.87C32.5136 102.05 29.1308 100.519 25.6557 99.2651C17.9103 96.4746 9.61164 95.1747 1.3879 95.4636C1.51469 96.4111 1.64148 97.3528 1.76826 98.3003C14.003 94.545 27.1656 93.9961 39.6712 96.7519C42.812 97.4452 45.9125 98.3349 48.9381 99.4326C52.05 100.559 55.0929 101.888 58.2798 102.818C64.838 104.736 71.7421 104.505 78.502 104.447C86.3973 104.378 94.2868 104.315 102.182 104.245C104.038 104.228 104.038 101.339 102.182 101.356C95.0993 101.414 88.0109 101.478 80.9282 101.536C74.1856 101.593 67.2124 102.05 60.608 100.449C57.3808 99.6695 54.3149 98.3811 51.2202 97.2083C48.1946 96.0586 45.1115 95.0823 41.9706 94.3196C35.6833 92.7944 29.1826 92.0607 22.7166 92.1416C15.3746 92.2282 8.03836 93.3606 1.01331 95.5156C-0.49658 95.9778 -0.277594 98.41 1.39366 98.3523C8.41871 98.1096 15.4322 99.0513 22.1461 101.131C25.4425 102.154 28.6467 103.436 31.7241 104.996C34.6344 106.469 37.5966 108.11 40.0977 110.219C42.5239 112.264 44.4314 114.847 44.7369 118.099C45.0711 121.716 44.0972 125.35 43.2731 128.839C41.6018 135.934 39.4637 142.919 36.8819 149.736C33.9717 157.426 30.4793 164.879 26.4683 172.054C25.5577 173.678 28.0185 175.116 28.9579 173.51C32.1217 168.091 35.5392 162.822 39.1929 157.726C41.0025 155.207 42.8697 152.723 44.7945 150.297C46.5349 148.107 48.3041 145.929 50.4076 144.074C52.2229 142.474 54.4474 141.007 56.9024 140.7C59.0578 140.429 61.2016 141.122 62.8095 142.578C66.8724 146.247 67.0683 152.001 65.9849 157.01C65.2069 160.603 63.9794 164.099 62.8786 167.6C61.7606 171.164 60.6426 174.723 59.5246 178.288C59.0405 179.825 61.4437 180.894 62.1583 179.403C64.2848 174.954 66.4747 170.489 69.3562 166.473C72.0302 162.747 75.5456 159.252 79.8678 157.53C84.2477 155.785 89.6245 155.849 92.7768 159.812C94.3444 161.782 95.2204 164.243 96.0329 166.6C97.0242 169.483 97.8886 172.407 98.6263 175.365C100.274 182.003 101.237 188.785 101.519 195.62C101.577 197.457 104.458 197.469 104.383 195.603Z" fill="black"/>
<path d="M102.171 102.402C101.537 101.449 100.488 101.166 99.4276 101.582C98.494 101.946 97.8197 102.714 97.18 103.459C95.8372 105.037 94.7769 106.793 94.0565 108.74C92.7022 112.391 92.9385 116.568 94.9728 119.925C96.0678 121.733 97.6526 123.258 99.5716 124.154C100.275 124.483 101.122 124.35 101.543 123.634C101.906 123.01 101.733 121.987 101.024 121.658C97.9062 120.202 96.0562 116.897 96.0678 113.489C96.0735 111.64 96.5807 109.803 97.4394 108.168C97.8831 107.324 98.396 106.504 98.9953 105.764C99.2893 105.406 99.5947 105.06 99.9174 104.73C99.8598 104.788 100.338 104.32 100.223 104.407C100.384 104.372 100.43 104.332 100.361 104.297C100.822 104.199 100.592 104.049 99.6811 103.858C100.707 105.4 103.202 103.956 102.171 102.402Z" fill="black"/>
<path d="M60.5793 140.417C67.1548 140.712 74.03 142.283 79.0668 146.795C80.1503 147.766 81.153 148.846 81.9771 150.048C82.7839 151.227 83.3199 152.567 84.1382 153.734C85.0949 155.103 86.4838 156.126 88.2357 155.808C89.711 155.542 90.8751 154.375 92.2352 153.803C95.3299 152.515 98.9779 152.625 101.963 154.156C103.611 155.005 105.069 152.509 103.415 151.66C100.401 150.111 96.9666 149.667 93.6471 150.36C92.0854 150.689 90.5467 151.296 89.1866 152.145C88.7256 152.434 88.1147 153.006 87.5326 152.983C87.2157 152.971 86.8756 152.613 86.6221 152.272C85.7288 151.076 85.1986 149.626 84.3342 148.401C83.3948 147.067 82.3172 145.836 81.1012 144.744C78.6346 142.537 75.7647 140.897 72.67 139.741C68.8145 138.297 64.671 137.702 60.5735 137.517C58.7236 137.442 58.7294 140.33 60.5793 140.417Z" fill="black"/>
<path d="M62.1638 139.481C62.5384 130.676 55.7784 122.155 47.1052 120.618C46.3387 120.485 45.5549 120.826 45.3302 121.629C45.14 122.328 45.5665 123.27 46.3387 123.409C53.819 124.732 59.605 131.855 59.2823 139.481C59.2074 141.342 62.0889 141.336 62.1638 139.481Z" fill="black"/>
<path d="M47.1688 113.905C48.1197 110.485 48.5 106.879 48.1946 103.338C47.9468 100.438 47.261 97.4161 44.7022 95.6887C43.1578 94.6488 41.717 97.1504 43.25 98.1845C45.0653 99.4093 45.2612 102.182 45.3707 104.158C45.5379 107.197 45.2036 110.207 44.3853 113.136C43.8954 114.933 46.6732 115.696 47.1688 113.905Z" fill="black"/>
<path d="M53.5312 125.488C56.1706 127.1 57.8419 122.906 58.3433 121.034C58.9714 118.683 58.9311 116.158 58.3375 113.801C57.1676 109.156 53.8366 105.418 49.987 102.749C49.3473 102.304 48.3849 102.627 48.0161 103.269C47.5954 103.985 47.8893 104.8 48.5347 105.244C51.3759 107.215 53.9461 109.93 55.1506 113.229C55.7788 114.956 56.0266 116.759 55.871 118.596C55.8018 119.428 55.6001 120.254 55.3293 121.04C55.1909 121.438 55.0296 121.808 54.8336 122.178C54.7299 122.374 54.5628 122.577 54.4879 122.785C54.3265 123.224 54.1536 122.484 54.9892 122.998C53.3929 122.022 51.9464 124.518 53.5312 125.488Z" fill="black"/>
<path d="M53.8825 124.818C56.2741 125.668 58.7464 124.449 61.1957 124.801C63.2819 125.101 65.2643 126.112 66.8203 127.528C70.3588 130.74 71.4998 135.657 71.2405 140.284C71.1829 141.295 72.5429 142.197 73.4074 141.532C77.4357 138.424 82.3169 136.333 87.3998 135.876C91.8258 135.478 97.5138 136.673 98.8508 141.625C99.3349 143.416 102.113 142.659 101.629 140.856C100.482 136.598 96.4823 133.825 92.2868 133.149C87.6938 132.41 82.8471 133.398 78.594 135.189C76.2197 136.188 73.9952 137.465 71.9551 139.036C72.6755 139.452 73.4016 139.868 74.122 140.284C74.3583 136.13 73.5342 131.757 71.2059 128.256C69.0102 124.957 65.5121 122.507 61.5588 121.964C60.3773 121.802 59.2478 121.837 58.0722 122.005C56.9253 122.166 55.7785 122.444 54.649 122.039C53.9171 121.779 53.0699 122.334 52.874 123.05C52.6607 123.842 53.1506 124.558 53.8825 124.818Z" fill="black"/>
<path d="M66.2097 125.962C70.7912 125.263 75.6898 124.5 80.2137 125.927C83.5101 126.967 86.6394 129.296 87.6421 132.733C88.1608 134.513 90.9443 133.756 90.4199 131.965C89.1635 127.666 85.4868 124.685 81.3778 123.27C76.2488 121.502 70.6645 122.38 65.4432 123.177C64.671 123.293 64.2503 124.264 64.4347 124.957C64.6652 125.783 65.4375 126.083 66.2097 125.962Z" fill="black"/>
<path d="M85.844 155.45C82.7435 161.597 80.2885 168.062 78.5654 174.729C78.0986 176.532 80.8763 177.3 81.3431 175.497C83.0086 169.067 85.3368 162.833 88.3278 156.906C89.1692 155.253 86.6853 153.786 85.844 155.45Z" fill="black"/>
<path d="M60.3314 139.828C57.6171 146.443 55.3753 153.249 53.6176 160.182C53.1623 161.984 55.9401 162.752 56.3954 160.95C58.1531 154.017 60.3948 147.211 63.1092 140.596C63.4031 139.874 62.7865 139.007 62.1007 138.817C61.2766 138.591 60.6311 139.1 60.3314 139.828Z" fill="black"/>
<path d="M56.891 110.964C64.3541 109.502 72.4971 114.402 74.7966 121.646C75.3556 123.414 78.1391 122.657 77.5743 120.878C75.4478 114.159 69.2295 109.069 62.2967 108.046C60.2278 107.74 58.1819 107.775 56.1303 108.179C55.3639 108.33 54.9316 109.242 55.1218 109.959C55.335 110.756 56.1246 111.114 56.891 110.964Z" fill="black"/>
<path d="M57.0462 112.102C58.389 109.381 59.7318 106.66 61.0803 103.939C61.4145 103.263 61.282 102.344 60.5616 101.963C59.9104 101.616 58.948 101.761 58.5907 102.483C57.2479 105.204 55.9052 107.925 54.5566 110.646C54.2224 111.322 54.3549 112.241 55.0753 112.622C55.7265 112.969 56.6889 112.824 57.0462 112.102Z" fill="black"/>
<path d="M78.0176 122.49C83.7229 117.545 88.8058 111.929 93.2087 105.794C93.664 105.158 93.3182 104.187 92.6901 103.818C91.9639 103.39 91.1744 103.702 90.7191 104.338C86.4603 110.265 81.4869 115.667 75.9775 120.445C75.3897 120.953 75.4531 121.964 75.9775 122.49C76.5653 123.074 77.424 122.999 78.0176 122.49Z" fill="black"/>
<path d="M91.4571 134.154C94.9322 131.445 97.8367 128.007 99.9632 124.142C100.338 123.461 100.13 122.565 99.4446 122.166C98.7818 121.779 97.8482 121.999 97.4737 122.686C95.4451 126.378 92.7826 129.492 89.4228 132.115C88.8062 132.595 88.9214 133.652 89.4228 134.16C90.0279 134.761 90.8405 134.634 91.4571 134.154Z" fill="black"/>
<path d="M48.0277 97.9244C53.2431 94.2905 59.8705 94.874 65.7776 96.0641C69.2411 96.7574 72.6758 97.5893 76.1739 98.1209C79.649 98.6466 83.1471 98.9932 86.6567 99.1203C90.5928 99.2648 94.5405 99.1377 98.4651 98.7621C99.2373 98.687 99.9058 98.1497 99.9058 97.3178C99.9058 96.5956 99.2431 95.7983 98.4651 95.8734C91.3997 96.5494 84.2363 96.4223 77.217 95.3766C70.3822 94.3598 63.5704 91.9102 56.5914 92.2915C53.0587 92.4821 49.5087 93.3892 46.5754 95.4344C45.9357 95.8792 45.6418 96.6996 46.0567 97.4102C46.4256 98.04 47.388 98.3693 48.0277 97.9244Z" fill="black"/>
</svg>
