<svg xmlns="http://www.w3.org/2000/svg" width="200" height="200" fill="none"><g clip-path="url(#a)"><path fill="#fff" d="M60.15 106.337c17.651 0 31.961-4.531 31.961-10.12 0-5.59-14.31-10.121-31.962-10.121s-31.961 4.53-31.961 10.12 14.31 10.121 31.961 10.121"/><path fill="#000" fill-rule="evenodd" d="M31.306 93.086c-1.508 1.13-2.106 2.198-2.106 3.13 0 .933.598 2.001 2.106 3.13 1.491 1.117 3.713 2.165 6.549 3.063 5.66 1.792 13.543 2.917 22.294 2.917s16.634-1.125 22.295-2.917c2.835-.898 5.057-1.946 6.548-3.062 1.508-1.13 2.106-2.198 2.106-3.13 0-.933-.598-2.001-2.106-3.13-1.49-1.117-3.713-2.165-6.549-3.063-5.66-1.792-13.542-2.917-22.294-2.917-8.751 0-16.634 1.125-22.294 2.917-2.836.898-5.058 1.946-6.549 3.062m5.937-4.99c5.907-1.87 14.006-3.011 22.906-3.011s16.999 1.14 22.906 3.011c2.948.933 5.407 2.066 7.151 3.372 1.727 1.292 2.917 2.886 2.917 4.748s-1.19 3.457-2.917 4.749c-1.743 1.305-4.203 2.438-7.15 3.372-5.908 1.87-14.007 3.011-22.907 3.011s-16.999-1.141-22.906-3.011c-2.948-.934-5.407-2.067-7.151-3.372-1.726-1.292-2.917-2.886-2.917-4.749s1.19-3.456 2.917-4.748c1.744-1.306 4.203-2.439 7.15-3.372" clip-rule="evenodd"/><path fill="#fff" d="M99.405 89.506c.242-6.212-13.86-11.804-31.498-12.49S35.774 80.81 35.532 87.023s13.86 11.804 31.498 12.49 32.132-3.795 32.375-10.007"/><path fill="#000" fill-rule="evenodd" d="M44.95 94.4c5.568 2.208 13.384 3.762 22.12 4.102 8.735.34 16.649-.603 22.372-2.372 2.866-.886 5.127-1.962 6.665-3.144 1.544-1.187 2.242-2.384 2.286-3.52.044-1.134-.558-2.381-2.005-3.685-1.442-1.298-3.612-2.547-6.4-3.652-5.568-2.208-13.385-3.763-22.12-4.102s-16.65.603-22.372 2.372c-2.866.885-5.128 1.962-6.666 3.144-1.544 1.187-2.242 2.384-2.286 3.519s.559 2.382 2.006 3.686c1.44 1.298 3.611 2.546 6.4 3.652m-7.757-2.15c-1.68-1.514-2.749-3.296-2.672-5.267.077-1.97 1.281-3.664 3.074-5.042 1.8-1.384 4.31-2.55 7.302-3.474 5.995-1.853 14.147-2.807 23.05-2.461 8.902.346 16.955 1.93 22.788 4.243 2.911 1.154 5.323 2.512 7.009 4.03 1.68 1.514 2.749 3.295 2.673 5.267-.077 1.97-1.282 3.663-3.075 5.042-1.799 1.384-4.31 2.55-7.302 3.474-5.994 1.853-14.147 2.807-23.05 2.461-8.901-.346-16.955-1.93-22.787-4.243-2.912-1.155-5.324-2.512-7.01-4.03" clip-rule="evenodd"/><path fill="#fff" d="M153.823 85.958c16.934 0 30.662-3.75 30.662-8.377s-13.728-8.377-30.662-8.377-30.662 3.75-30.662 8.377 13.728 8.377 30.662 8.377"/><path fill="#000" fill-rule="evenodd" d="M126.121 75.17c-1.472.95-1.947 1.788-1.947 2.411s.475 1.46 1.947 2.412c1.428.922 3.562 1.791 6.289 2.536 5.439 1.486 13.01 2.418 21.414 2.418 8.403 0 15.974-.932 21.414-2.418 2.726-.745 4.86-1.614 6.288-2.536 1.473-.952 1.947-1.79 1.947-2.412 0-.623-.474-1.46-1.947-2.412-1.428-.922-3.562-1.791-6.288-2.536-5.44-1.486-13.011-2.418-21.414-2.418s-15.975.932-21.414 2.418c-2.727.745-4.861 1.614-6.289 2.536m5.754-4.488c5.659-1.546 13.418-2.49 21.949-2.49 8.53 0 16.29.944 21.948 2.49 2.822.771 5.179 1.707 6.854 2.79 1.63 1.052 2.872 2.418 2.872 4.109s-1.242 3.057-2.872 4.11c-1.675 1.082-4.032 2.018-6.854 2.789-5.658 1.546-13.418 2.49-21.948 2.49s-16.29-.944-21.949-2.49c-2.821-.77-5.178-1.707-6.853-2.789-1.631-1.053-2.873-2.42-2.873-4.11s1.242-3.057 2.873-4.11c1.675-1.082 4.032-2.018 6.853-2.789" clip-rule="evenodd"/><path fill="#fff" d="M128.54 79.276c17.652 0 31.962-4.531 31.962-10.12 0-5.59-14.31-10.121-31.962-10.121s-31.962 4.53-31.962 10.12 14.31 10.12 31.962 10.12"/><path fill="#000" fill-rule="evenodd" d="M99.697 66.025c-1.509 1.13-2.107 2.198-2.107 3.13 0 .933.598 2.001 2.107 3.13 1.491 1.117 3.712 2.165 6.548 3.063 5.661 1.792 13.543 2.917 22.295 2.917 8.751 0 16.634-1.125 22.294-2.917 2.836-.898 5.058-1.946 6.548-3.062 1.509-1.13 2.107-2.198 2.107-3.13 0-.933-.598-2.002-2.107-3.13-1.49-1.117-3.712-2.165-6.548-3.063-5.66-1.792-13.543-2.917-22.294-2.917s-16.634 1.125-22.295 2.917c-2.836.898-5.057 1.946-6.548 3.062m5.936-4.99c5.908-1.87 14.006-3.011 22.907-3.011s16.999 1.14 22.906 3.011c2.948.934 5.407 2.066 7.151 3.372 1.726 1.292 2.917 2.886 2.917 4.748s-1.191 3.457-2.917 4.749c-1.744 1.306-4.203 2.438-7.151 3.372-5.907 1.87-14.006 3.011-22.906 3.011-8.901 0-16.999-1.14-22.907-3.011-2.948-.934-5.407-2.066-7.15-3.372-1.727-1.292-2.918-2.886-2.918-4.749s1.191-3.456 2.917-4.748c1.744-1.306 4.203-2.438 7.151-3.372" clip-rule="evenodd"/><path fill="#fff" d="M75.26 91.237c16.781 0 30.386-4.531 30.386-10.12 0-5.59-13.605-10.121-30.387-10.121-16.781 0-30.386 4.53-30.386 10.12s13.605 10.121 30.386 10.121"/><path fill="#000" fill-rule="evenodd" d="M47.888 77.971c-1.423 1.12-2.003 2.19-2.003 3.145s.58 2.026 2.003 3.146c1.41 1.11 3.515 2.155 6.205 3.051 5.37 1.789 12.854 2.913 21.166 2.913s15.796-1.124 21.166-2.913c2.69-.896 4.795-1.94 6.206-3.051 1.422-1.12 2.002-2.19 2.002-3.146 0-.954-.58-2.025-2.002-3.145-1.411-1.11-3.515-2.156-6.206-3.052-5.37-1.788-12.853-2.912-21.166-2.912-8.312 0-15.796 1.124-21.166 2.912-2.69.896-4.795 1.941-6.205 3.052m5.565-4.97c5.627-1.875 13.337-3.017 21.806-3.017s16.18 1.142 21.807 3.017c2.808.935 5.154 2.071 6.818 3.382 1.654 1.302 2.774 2.894 2.774 4.733 0 1.84-1.12 3.432-2.774 4.734-1.664 1.31-4.01 2.447-6.818 3.382-5.627 1.874-13.337 3.016-21.807 3.016s-16.18-1.142-21.806-3.016c-2.809-.935-5.155-2.072-6.82-3.382-1.652-1.302-2.773-2.894-2.773-4.734s1.12-3.431 2.774-4.733c1.664-1.31 4.01-2.447 6.819-3.382" clip-rule="evenodd"/><path fill="#fff" d="M33.08 151.989c17.652 0 31.962-6.893 31.962-15.396s-14.31-15.395-31.962-15.395-31.962 6.893-31.962 15.395c0 8.503 14.31 15.396 31.962 15.396"/><path fill="#000" fill-rule="evenodd" d="M10.92 126.618c-5.691 2.741-8.79 6.333-8.79 9.975 0 3.643 3.099 7.235 8.79 9.976 5.618 2.706 13.452 4.408 22.16 4.408s16.541-1.702 22.16-4.408c5.69-2.741 8.789-6.333 8.789-9.976 0-3.642-3.098-7.234-8.789-9.975-5.619-2.706-13.452-4.409-22.16-4.409s-16.542 1.703-22.16 4.409m-.88-1.821c5.948-2.866 14.096-4.61 23.04-4.61s17.091 1.744 23.04 4.61c5.877 2.831 9.934 6.937 9.934 11.796 0 4.86-4.057 8.966-9.934 11.797-5.949 2.866-14.096 4.61-23.04 4.61s-17.092-1.744-23.04-4.61c-5.878-2.831-9.935-6.937-9.935-11.797 0-4.859 4.057-8.965 9.935-11.796" clip-rule="evenodd"/><path fill="#fff" d="M101.984 150.338c17.652 0 31.962-7.939 31.962-17.733s-14.31-17.733-31.962-17.733-31.961 7.939-31.961 17.733 14.31 17.733 31.961 17.733"/><path fill="#000" fill-rule="evenodd" d="M79.876 120.95c-5.641 3.13-8.84 7.292-8.84 11.655s3.199 8.525 8.84 11.655c5.607 3.111 13.422 5.067 22.109 5.067s16.502-1.956 22.109-5.067c5.641-3.13 8.84-7.292 8.84-11.655s-3.199-8.525-8.84-11.655c-5.607-3.111-13.422-5.067-22.109-5.067s-16.502 1.956-22.109 5.067m-.983-1.768c5.96-3.307 14.127-5.321 23.092-5.321s17.131 2.014 23.092 5.321c5.927 3.288 9.882 7.992 9.882 13.423s-3.955 10.135-9.882 13.423c-5.961 3.308-14.127 5.322-23.092 5.322s-17.131-2.014-23.092-5.322c-5.927-3.288-9.882-7.992-9.882-13.423s3.955-10.135 9.882-13.423" clip-rule="evenodd"/><path fill="#fff" d="M105.131 69.155c14.785 0 26.77-4.51 26.77-10.072s-11.985-10.072-26.77-10.072-26.77 4.51-26.77 10.072c0 5.563 11.986 10.072 26.77 10.072"/><path fill="#000" fill-rule="evenodd" d="M81.139 55.918c-1.23 1.094-1.765 2.166-1.765 3.165s.535 2.072 1.765 3.166 3.065 2.124 5.42 3.01c4.704 1.77 11.27 2.885 18.572 2.885 7.303 0 13.869-1.115 18.573-2.885 2.355-.886 4.191-1.917 5.42-3.01 1.23-1.095 1.765-2.166 1.765-3.166s-.535-2.07-1.765-3.165c-1.229-1.093-3.065-2.124-5.42-3.01-4.704-1.77-11.27-2.886-18.573-2.886-7.302 0-13.868 1.116-18.572 2.886-2.355.886-4.191 1.917-5.42 3.01m4.706-4.903C90.831 49.139 97.65 48 105.131 48s14.301 1.14 19.286 3.015c2.489.936 4.574 2.076 6.054 3.393 1.479 1.316 2.443 2.893 2.443 4.675s-.964 3.36-2.443 4.676-3.565 2.456-6.054 3.393c-4.985 1.875-11.804 3.015-19.286 3.015s-14.3-1.14-19.286-3.015c-2.489-.937-4.573-2.076-6.053-3.393s-2.443-2.894-2.443-4.676.964-3.36 2.443-4.675c1.48-1.317 3.564-2.457 6.053-3.393" clip-rule="evenodd"/><path fill="#fff" d="M167.026 79.862c17.652 0 31.962-3.906 31.962-8.725s-14.31-8.725-31.962-8.725-31.962 3.907-31.962 8.725c0 4.82 14.31 8.725 31.962 8.725"/><path fill="#000" fill-rule="evenodd" d="M138.125 68.59c-1.538.994-2.048 1.877-2.048 2.547s.51 1.554 2.048 2.547c1.494.964 3.723 1.87 6.568 2.647 5.674 1.55 13.571 2.52 22.333 2.52s16.659-.97 22.333-2.52c2.845-.776 5.074-1.683 6.568-2.647 1.538-.993 2.048-1.876 2.048-2.547 0-.67-.51-1.553-2.048-2.546-1.494-.965-3.723-1.871-6.568-2.648-5.674-1.549-13.571-2.52-22.333-2.52s-16.659.971-22.333 2.52c-2.845.777-5.074 1.683-6.568 2.648m6.034-4.598c5.893-1.608 13.977-2.59 22.867-2.59s16.974.982 22.867 2.59c2.94.803 5.392 1.776 7.133 2.9 1.696 1.095 2.974 2.506 2.974 4.245s-1.278 3.151-2.974 4.246c-1.741 1.124-4.193 2.097-7.133 2.9-5.893 1.608-13.977 2.59-22.867 2.59s-16.974-.982-22.867-2.59c-2.94-.803-5.392-1.776-7.133-2.9-1.696-1.095-2.974-2.507-2.974-4.246s1.278-3.15 2.974-4.245c1.741-1.124 4.193-2.097 7.133-2.9" clip-rule="evenodd"/><path fill="#fff" d="M33.432 148.955c17.905 0 32.42-6.992 32.42-15.618 0-8.625-14.515-15.617-32.42-15.617s-32.42 6.992-32.42 15.617 14.515 15.618 32.42 15.618"/><path fill="#000" fill-rule="evenodd" d="M10.948 123.205c-5.773 2.781-8.923 6.428-8.923 10.132s3.15 7.352 8.923 10.133c5.702 2.747 13.65 4.474 22.484 4.474s16.782-1.727 22.484-4.474c5.773-2.781 8.923-6.429 8.923-10.133s-3.15-7.351-8.923-10.132c-5.702-2.747-13.65-4.474-22.484-4.474s-16.782 1.727-22.484 4.474m-.88-1.822c6.032-2.906 14.293-4.675 23.364-4.675 9.07 0 17.332 1.769 23.364 4.675 5.96 2.871 10.068 7.033 10.068 11.954s-4.108 9.083-10.068 11.955c-6.032 2.905-14.294 4.674-23.364 4.674s-17.332-1.769-23.364-4.674C4.108 142.42 0 138.259 0 133.337s4.108-9.083 10.068-11.954" clip-rule="evenodd"/><path fill="#fff" d="M60.335 103.785c17.652 0 31.962-4.532 31.962-10.121s-14.31-10.12-31.962-10.12-31.962 4.53-31.962 10.12 14.31 10.121 31.962 10.121"/><path fill="#000" fill-rule="evenodd" d="M31.493 90.534c-1.509 1.13-2.107 2.198-2.107 3.13s.598 2 2.107 3.13c1.49 1.116 3.712 2.164 6.548 3.062 5.66 1.793 13.543 2.917 22.295 2.917 8.751 0 16.634-1.124 22.294-2.917 2.836-.898 5.058-1.946 6.548-3.062 1.509-1.13 2.107-2.198 2.107-3.13s-.598-2-2.107-3.13c-1.49-1.116-3.712-2.164-6.548-3.062-5.66-1.793-13.543-2.917-22.294-2.917s-16.634 1.124-22.295 2.917c-2.836.898-5.057 1.946-6.548 3.062m5.936-4.99c5.908-1.87 14.006-3.012 22.907-3.012s16.998 1.141 22.906 3.012c2.948.933 5.407 2.066 7.15 3.371 1.727 1.293 2.918 2.887 2.918 4.749s-1.191 3.456-2.917 4.748c-1.744 1.306-4.203 2.439-7.151 3.372-5.908 1.871-14.006 3.012-22.906 3.012s-17-1.141-22.907-3.012c-2.948-.933-5.407-2.066-7.15-3.372-1.727-1.292-2.918-2.886-2.918-4.748s1.191-3.456 2.917-4.749c1.744-1.305 4.203-2.438 7.151-3.371" clip-rule="evenodd"/></g><defs><clipPath id="a"><path fill="#fff" d="M0 0h200v200H0z"/></clipPath></defs></svg>