<svg xmlns="http://www.w3.org/2000/svg" width="200" height="200" fill="none"><g fill="#000" clip-path="url(#a)"><path d="M99.311 16.99c-1.684.248-3.266 1.03-4.333 2.377-1.028 1.299-1.563 2.893-1.865 4.504-.334 1.772-.442 3.58-.557 5.378a65 65 0 0 1-.2 2.601c-.08.769-.153 1.37-.344 2.205a10 10 0 0 1-.347 1.197l-.096.248c-.054.14-.006.016.003-.01-.022.048-.044.1-.067.147-.13.28-.28.552-.442.816-.688 1.121-1.684 2.09-2.951 2.516-.965.324-.551 1.858.423 1.531 2.27-.762 3.938-2.729 4.709-4.949.531-1.531.678-3.192.802-4.797.137-1.766.203-3.538.42-5.298a19 19 0 0 1 .175-1.125q.114-.62.28-1.232a11 11 0 0 1 .41-1.233q.06-.132.122-.266c.083-.175.172-.343.267-.512q.158-.278.344-.537c.029-.038.054-.076.083-.114.086-.117-.032.035.025-.032q.1-.123.204-.238c.134-.146.274-.289.423-.42.23-.203.182-.164.402-.314.786-.53 1.534-.765 2.534-.915.426-.063.659-.6.557-.978-.128-.448-.554-.613-.98-.55"/><path d="M88.835 40.402c1.933 4.437 5.88 7.877 10.455 9.412 1.321.444 2.696.705 4.084.813.43.032.796-.388.796-.794 0-.458-.366-.763-.796-.794-4.38-.33-8.547-2.678-11.225-6.134a15.6 15.6 0 0 1-1.942-3.3c-.172-.395-.748-.483-1.088-.287-.405.232-.456.687-.284 1.084M77.652 34.83c-3.037-2.35-5.037-5.645-6.463-9.155-1.442-3.551-2.674-7.44-5.765-9.946-1.464-1.188-3.187-2.048-5.084-2.226-1.76-.165-3.483.419-4.83 1.543-2.365 1.976-3.367 5.239-4.147 8.104-1.303 4.784-1.48 9.758-1.42 14.688.013 1.023 1.604 1.023 1.592 0-.051-4.203.04-8.45.945-12.57a35 35 0 0 1 1.305-4.545c.478-1.306 1.089-2.633 2-3.698.926-1.083 2.142-1.855 3.597-1.947 1.671-.108 3.256.566 4.59 1.525 3.006 2.163 4.218 5.829 5.536 9.117 1.557 3.894 3.652 7.62 7.026 10.234.34.264.796.33 1.127 0 .264-.273.331-.86-.01-1.124"/><path d="M89.494 38.832a17.9 17.9 0 0 1-6.16-.68c-.987-.285-1.407 1.249-.423 1.532 2.13.613 4.367.883 6.583.733.43-.028.796-.346.796-.794 0-.403-.366-.82-.796-.79M73.293 9.809c-.172 1.232-.85 2.284-1.372 3.392-.28.594-.602 1.217-.72 1.868a4.5 4.5 0 0 0 .036 1.814c.264 1.185 1 2.246 1.837 3.103.404.417.85.785 1.318 1.128.512.378 1.101.635 1.633.985 1.19.778 2.234 1.75 3.342 2.636l-.203-.35c.916 4.728-1.821 9.048-4.257 12.853-.706 1.102-1.416 2.202-2.072 3.336-.513.886.863 1.686 1.375.8 2.334-4.037 5.508-7.837 6.456-12.512.242-1.188.338-2.411.22-3.618q-.045-.454-.118-.902c-.025-.162-.044-.325-.108-.477-.09-.216-.258-.33-.433-.473-.5-.407-.99-.83-1.49-1.24-.51-.419-1.031-.828-1.573-1.206-.531-.369-1.104-.648-1.652-.988a7 7 0 0 1-2.266-2.332c-.284-.483-.503-1.026-.532-1.591-.032-.648.2-1.198.462-1.779.592-1.315 1.448-2.576 1.652-4.031.06-.426-.105-.855-.557-.978-.373-.093-.917.136-.978.562M49.802 34.874c1.277 6.115-2.95 11.83-6.535 16.334a215 215 0 0 1-21.078 22.877c-.516.486-.105 1.34.563 1.357 7.326.155 14.578-2.459 20.231-7.078a29.3 29.3 0 0 0 4.295-4.332l-1.251-.963A201 201 0 0 1 30.3 84.873a204 204 0 0 1-18.537 19.57 202 202 0 0 1-11.508 9.864c-.647.514.057 1.524.773 1.327a135 135 0 0 0 19.315-6.988 134 134 0 0 0 17.97-9.803c3.235-2.1 6.374-4.345 9.417-6.715.34-.264.277-.845 0-1.124-.334-.334-.786-.264-1.127 0a132.5 132.5 0 0 1-16.847 11.136 133 133 0 0 1-18.337 8.463 133 133 0 0 1-10.814 3.5l.774 1.328a203 203 0 0 0 20.046-18.236A204.5 204.5 0 0 0 38.902 76.41 201 201 0 0 0 47.4 63.87c.468-.747-.675-1.678-1.251-.963-4.378 5.457-10.71 9.184-17.586 10.476a28.3 28.3 0 0 1-5.813.47l.564 1.357A216 216 0 0 0 44.018 52.8c2.028-2.535 4.037-5.124 5.514-8.03 1.627-3.2 2.547-6.745 1.802-10.321-.09-.42-.583-.664-.98-.556-.434.124-.64.559-.552.981M82.344 127.149c1.19 8.262 2.216 16.566 2.53 24.917.313 8.227-.063 16.528-1.807 24.59-.974 4.513-2.372 8.941-4.266 13.157-.175.39-.115.854.286 1.086.34.197.914.108 1.09-.286 3.456-7.69 5.303-15.959 6.016-24.338.716-8.412.328-16.884-.516-25.273-.48-4.774-1.114-9.529-1.799-14.278-.06-.426-.601-.658-.98-.556-.455.13-.618.556-.554.981"/><path d="M75.9 15.097c.5 1.95 2.028 3.113 3.62 4.19 1.601 1.083 3.133 2.303 3.706 4.231.29.975.394 2.017.356 3.034a60 60 0 0 1-.321 4.136 83 83 0 0 1-1.3 8.071c-.626 3.015-1.394 5.997-2.24 8.958-.284.985 1.254 1.404 1.534.422 1.538-5.371 2.795-10.828 3.473-16.38.169-1.373.3-2.752.385-4.134.074-1.178.077-2.325-.117-3.49-.185-1.106-.573-2.212-1.226-3.13-.62-.873-1.404-1.61-2.257-2.252-1.554-1.169-3.566-2.055-4.081-4.075-.249-.991-1.786-.572-1.532.42M85.088 54.432c-.347 2.796-.391 5.956 2.184 7.742 1.207.835 2.722 1.156 4.158 1.308 1.563.166 3.202 0 4.62-.718 1.39-.702 2.533-1.991 2.867-3.529.217-.997-1.317-1.423-1.534-.422-.541 2.493-3.279 3.265-5.523 3.116-1.181-.076-2.439-.324-3.47-.928-.984-.578-1.544-1.496-1.773-2.595-.271-1.296-.096-2.674.066-3.974.054-.425-.404-.794-.796-.794-.477 0-.745.366-.799.794M95.228 36.723c1.11-.639 1.594-1.855 1.798-3.059.261-1.531.385-3.097.57-4.638.172-1.455.258-2.95.576-4.383.264-1.182.822-2.176 1.971-2.675 1.219-.53 2.652-.486 3.954-.451 1.025.029 1.025-1.56 0-1.588-2.544-.07-5.616.155-6.908 2.728-.666 1.325-.764 2.83-.936 4.28-.198 1.65-.392 3.303-.59 4.954-.13 1.11-.133 2.83-1.24 3.463-.886.508-.087 1.88.805 1.369"/><path d="M100.267 18.521c.452.067.901.166 1.333.312.367.124.567.213.956.448q.233.139.452.301c-.125-.092.092.077.117.099q.105.091.21.187.205.194.386.407l.114.137c-.025-.032.112.152.147.203.21.302.391.626.554.956q.062.132.121.263c.038.083-.004-.006-.01-.022q.03.068.054.137.109.281.204.562c.258.788.43 1.601.557 2.42.115.731.201 1.63.267 2.494.067.886.118 1.776.179 2.665.114 1.652.235 3.339.687 4.94.688 2.433 2.423 4.647 4.874 5.473.974.327 1.391-1.207.424-1.531-1.108-.372-2.031-1.166-2.69-2.116a8.3 8.3 0 0 1-.771-1.362c.073.162-.025-.064-.044-.112q-.049-.123-.093-.25a8 8 0 0 1-.162-.521 13 13 0 0 1-.252-1.087 18 18 0 0 1-.095-.556q-.025-.152-.045-.305c-.003-.025-.019-.155-.003-.019l-.019-.155a49 49 0 0 1-.226-2.56c-.121-1.808-.213-3.622-.49-5.413-.248-1.589-.669-3.228-1.563-4.584-1.092-1.652-2.792-2.65-4.744-2.938-.423-.064-.856.104-.98.555-.108.372.124.909.551.972"/><path d="M109.792 39.598c-1.77 4.063-5.295 7.268-9.503 8.681-1.184.397-2.413.661-3.661.756-.43.032-.796.343-.796.794 0 .404.366.826.796.794 4.842-.365 9.42-2.849 12.403-6.667a16.4 16.4 0 0 0 2.136-3.555c.172-.393.118-.85-.287-1.086-.337-.197-.917-.111-1.088.283M123.477 35.955c2.922-2.265 4.979-5.43 6.428-8.79 1.438-3.345 2.432-7.157 5.157-9.742 2.212-2.097 5.816-3.4 8.385-1.182 2.142 1.846 2.989 4.844 3.699 7.471 1.242 4.606 1.382 9.39 1.328 14.13-.013 1.022 1.579 1.022 1.591 0 .051-4.448-.073-8.936-1.066-13.288-.691-3.027-1.627-6.344-3.712-8.73-1.114-1.273-2.607-2.096-4.298-2.299-1.833-.222-3.702.387-5.24 1.36-3.422 2.163-4.985 5.848-6.405 9.466-.783 1.995-1.62 3.954-2.766 5.771-1.134 1.798-2.537 3.406-4.225 4.711-.34.264-.277.845 0 1.125.335.33.783.26 1.124-.003"/><path d="M110.508 40.42c2.215.147 4.45-.12 6.583-.733.984-.283.564-1.817-.423-1.531a18 18 0 0 1-6.16.68c-.43-.03-.796.384-.796.794 0 .45.366.762.796.79M148.665 34.452c-1.353 6.496 2.649 12.442 6.479 17.293a215 215 0 0 0 21.542 23.465l.564-1.356c-6.947.146-13.906-2.307-19.251-6.731a29.2 29.2 0 0 1-4.148-4.213c-.566-.708-1.722.207-1.251.963a204.5 204.5 0 0 0 15.886 22.02 204 204 0 0 0 18.626 19.678 202 202 0 0 0 11.508 9.863l.774-1.327a132 132 0 0 1-18.999-6.859 134 134 0 0 1-17.789-9.698 131 131 0 0 1-9.213-6.543c-.338-.264-.796-.33-1.127 0-.274.273-.341.858 0 1.124a134.4 134.4 0 0 0 17.108 11.35 135.4 135.4 0 0 0 18.649 8.608 133 133 0 0 0 10.948 3.549c.716.197 1.423-.814.773-1.328a203 203 0 0 1-37.272-38.703 201 201 0 0 1-8.497-12.54q-.626.48-1.251.962c4.54 5.66 11.219 9.57 18.353 10.895 2.034.378 4.103.56 6.173.515.668-.013 1.079-.87.563-1.357a216 216 0 0 1-20.282-21.886c-1.977-2.456-3.931-4.949-5.428-7.735-1.569-2.925-2.597-6.267-1.903-9.593.086-.42-.124-.858-.557-.978-.395-.102-.892.14-.978.562M116.124 126.727c-1.219 8.449-2.28 16.94-2.595 25.479-.309 8.367.112 16.81 1.901 25.005a68 68 0 0 0 4.396 13.399c.175.391.745.486 1.089.286.404-.235.462-.693.286-1.087-3.355-7.461-5.131-15.549-5.809-23.674-.698-8.32-.319-16.696.512-24.99.468-4.679 1.086-9.342 1.757-13.996.061-.422-.105-.854-.557-.978-.375-.099-.92.13-.98.556M113.004 54.115c.258 2.08.605 4.844-1.293 6.299-.929.711-2.168 1.007-3.311 1.146-1.276.156-2.667.121-3.852-.431-1.098-.515-1.98-1.43-2.241-2.634-.216-.997-1.751-.575-1.534.423.299 1.375 1.232 2.522 2.407 3.268 1.324.842 2.96 1.106 4.507 1.023 1.471-.076 3.009-.372 4.308-1.093a5.27 5.27 0 0 0 2.527-3.256c.42-1.547.271-3.176.073-4.745-.054-.426-.327-.794-.795-.794-.392 0-.85.365-.796.794M105.259 35.354c-.92-.527-1.045-1.817-1.159-2.767-.201-1.677-.398-3.354-.599-5.031-.172-1.449-.226-2.999-.773-4.368-.532-1.328-1.496-2.262-2.827-2.776-1.356-.524-2.884-.524-4.317-.486-1.022.028-1.025 1.617 0 1.588 1.194-.032 2.423-.048 3.572.318 1.143.358 1.884 1.175 2.222 2.315.404 1.37.465 2.85.63 4.26.188 1.588.357 3.183.57 4.768.185 1.366.592 2.818 1.872 3.551.895.509 1.7-.864.809-1.372M124.98 10.005c.182 1.29.882 2.427 1.442 3.58.258.528.561 1.093.653 1.68.08.502-.013 1.004-.185 1.474-.366 1.017-1.168 1.868-1.983 2.548-.452.378-.958.626-1.461.925-.548.327-1.067.698-1.573 1.086-.512.397-1.012.81-1.509 1.226-.242.203-.48.403-.726.604-.343.28-.509.485-.585.927a11.9 11.9 0 0 0-.07 3.596c.315 2.401 1.289 4.644 2.46 6.744 1.29 2.309 2.834 4.466 4.155 6.753.512.886 1.888.086 1.375-.8-2.298-3.98-5.491-7.735-6.341-12.37-.23-1.258-.23-2.563.016-3.818q-.102.176-.204.35c.968-.776 1.884-1.62 2.9-2.335.551-.391 1.14-.687 1.716-1.036.477-.289.923-.667 1.334-1.045.894-.823 1.658-1.833 2.056-2.992.185-.537.28-1.131.239-1.7-.051-.692-.287-1.277-.557-1.906-.554-1.293-1.41-2.496-1.608-3.916-.06-.426-.601-.658-.98-.556-.468.13-.624.556-.564.981"/><path d="M122.372 14.45c-.455 1.778-2.066 2.661-3.489 3.649-1.808 1.255-3.327 2.82-3.903 5-.63 2.389-.286 4.946-.028 7.363a87 87 0 0 0 1.324 8.342c.633 3.065 1.41 6.099 2.273 9.11.28.981 1.818.565 1.534-.422-1.496-5.232-2.756-10.553-3.415-15.96q-.255-2.059-.386-4.132c-.07-1.102-.108-2.208.102-3.3.191-.988.545-1.976 1.207-2.751a11 11 0 0 1 2.094-1.878c1.767-1.226 3.652-2.373 4.219-4.6.254-.99-1.28-1.413-1.532-.422"/></g><defs><clipPath id="a"><path fill="#fff" d="M0 0h200v200H0z"/></clipPath></defs></svg>