<svg xmlns="http://www.w3.org/2000/svg" width="200" height="200" fill="none"><g fill="#000" clip-path="url(#a)"><path d="M71.972 23.808c-8.884 2.89-16.706 8.259-22.33 15.754-6.046 8.062-9.27 18.123-10.71 28.002-1.63 11.207-1.032 22.65 1.099 33.748 1.955 10.174 5.21 20.265 10.416 29.262 2.209 3.815 4.757 7.609 7.956 10.67 2.714 2.596 5.913 4.449 9.385 5.838.928.371 1.868.707 2.817 1.027 1.104.372 1.976-.96 1.455-1.894-1.77-3.18-2.926-6.602-4.54-9.849-2.038-4.114-4.494-7.985-6.295-12.228-3.54-8.363-5.283-17.674-5.05-26.749.113-4.527.789-9.059 2.378-13.312 1.284-3.438 3.266-6.932 6.232-9.188 6.109-4.65 15.684-3.33 20.137 2.963 2.12 2.999 3.245 6.72 3.348 10.38a17.1 17.1 0 0 1-.83 5.792c-.64 2.002-1.3 4.16-.496 6.22.377.97.955 1.651 1.925 2.054.727.299 1.723-.47 1.63-1.244-.165-1.456.062-3.118 1.14-4.196l-2.027-.264c.449.93 1.398 1.56 2.445 1.502 1.192-.062 1.966-.893 2.394-1.935l-2.358.31c.274.48.547.954.82 1.434.671 1.167 2.317.578 2.405-.65-.005.077.036-.093.046-.088a.1.1 0 0 1-.051.067q-.388.21-.754-.093c.532.45 1.3.522 1.827 0 .46-.459.537-1.373 0-1.827-1.64-1.388-3.519.072-3.648 1.94l2.404-.65c-.273-.48-.546-.954-.82-1.434-.603-1.053-1.96-.661-2.358.31.037-.083-.123.2-.056.05q.03-.006.061-.02c-.154.041-.17.047-.04.016.102.026.113.02.02 0-.083-.02-.083-.026 0-.005.041.19-.083-.181-.108-.228-.367-.758-1.476-.81-2.028-.263-1.532 1.538-2.141 3.903-1.894 6.024l1.63-1.244c.186.077.016-.041.016-.046-.051-.13-.144-.243-.2-.372-.156-.382-.218-.805-.228-1.218-.02-1.08.35-2.127.676-3.144.65-2.013 1.027-4.072 1.037-6.194.01-4-1.073-8.135-3.204-11.537-2.162-3.448-5.536-6.034-9.467-7.123-3.978-1.104-8.395-.764-12.14.96-3.787 1.74-6.563 5.1-8.44 8.744-2.106 4.094-3.215 8.595-3.72 13.153-.537 4.831-.351 9.724.288 14.535.624 4.713 1.677 9.364 3.25 13.849 1.58 4.501 3.736 8.724 6.047 12.884 1.027 1.848 2.033 3.696 2.864 5.642.66 1.543 1.264 3.123 1.98 4.651.47.996.976 1.966 1.513 2.926.485-.629.97-1.264 1.454-1.894-3.307-1.11-6.645-2.55-9.343-4.697-3.116-2.478-5.526-5.688-7.667-9.018-5.386-8.367-8.801-17.891-10.99-27.564-2.393-10.566-3.347-21.524-2.326-32.323.919-9.689 3.514-19.548 8.668-27.879 4.705-7.608 11.8-13.503 20.116-16.796a51 51 0 0 1 2.905-1.043c1.594-.521.918-3.014-.666-2.498"/><path d="M93.156 101.245c-2.693 6.375-5.387 12.837-6.408 19.728-.924 6.225-.717 12.982 2.028 18.753 1.434 3.02 3.848 5.384 5.494 8.269 1.42 2.488 2.296 5.245 2.859 8.042 1.238 6.158.944 12.611-.104 18.769-1.362 7.995-3.895 15.722-5.727 23.615-.381 1.646 1.9 2.214 2.487.686 1.115-2.901 2.936-5.44 4.788-7.908 1.801-2.405 3.565-4.81 4.912-7.505 2.801-5.59 4.277-11.8 4.7-18.02.459-6.7-.573-13.24-2.487-19.65-1.888-6.324-4.406-12.585-5.004-19.213-.284-3.107-.253-6.292.366-9.353.542-2.658 1.517-5.358 3.415-7.314 1.161-1.192-.665-3.02-1.826-1.827-3.87 3.974-4.767 10.106-4.7 15.428.082 6.628 2.064 12.9 4.065 19.15 1.058 3.304 2.09 6.618 2.786 10.02.65 3.2.945 6.452.919 9.714-.052 6.173-1.192 12.481-3.699 18.139-1.373 3.097-3.22 5.853-5.248 8.553-2.15 2.864-4.184 5.734-5.479 9.1.831.227 1.656.459 2.487.686 3.096-13.338 8.095-26.604 6.341-40.52-.382-3.014-1.016-6.003-2.167-8.821-.552-1.358-1.187-2.679-1.976-3.913-.898-1.409-1.96-2.699-2.936-4.052-1.826-2.519-2.997-5.239-3.621-8.29-.63-3.076-.713-6.256-.47-9.379.593-7.551 3.503-14.669 6.423-21.576.269-.64.191-1.383-.464-1.765-.531-.325-1.486-.191-1.754.454M73.757 25.733c2.012-3.907 4.205-7.779 5.96-11.81.856-1.972 1.516-3.985 1.939-6.09.433-2.148.676-4.332.923-6.51l-1.63 1.244c1.017.408 1.373 2.225 1.61 3.231.433 1.874.872 3.737 1.46 5.57a52 52 0 0 0 4.906 10.809c.857 1.42 3.086.124 2.23-1.301a48.8 48.8 0 0 1-4.99-11.304c-.552-1.848-.856-3.763-1.419-5.606-.52-1.714-1.387-3.2-3.11-3.887-.862-.346-1.548.511-1.631 1.244-.46 4.031-1.027 8.011-2.709 11.743-1.738 3.866-3.823 7.598-5.763 11.366-.763 1.472 1.46 2.783 2.224 1.301M81.92 52.673l8.527-2.272c.088-.02.49-.098.418-.118.372.113.645.748.841 1.037l2.214 3.283 2.213 3.283c.232.346.547.717.645 1.136.103.423.02.04.03.067.135.289-.082.062.068-.067.01-.01.418-.33.428-.217a4 4 0 0 1-.31-.109c-1.13-.48-2.213-1.177-3.276-1.786a84 84 0 0 1-3.131-1.879c-2.338-1.466-4.566-3.128-7.187-4.067-.655-.232-1.414.263-1.59.903-.195.718.243 1.353.904 1.59 2.646.945 4.922 2.798 7.295 4.253a89 89 0 0 0 3.782 2.2c1.135.624 2.585 1.713 3.952 1.403 1.49-.34 1.909-1.93 1.44-3.231-.48-1.311-1.476-2.473-2.256-3.618q-1.283-1.904-2.574-3.815c-.743-1.105-1.47-2.545-2.89-2.85-.86-.185-1.738.12-2.563.341q-1.238.331-2.477.661c-1.733.46-3.467.924-5.2 1.383-1.59.424-.914 2.917.696 2.489M101.262 77.754c.469 3.153-.238 6.467-1.894 9.182-.48.785.031 1.585.769 1.895 1.398.583 2.884 1.012 4.344.377 1.439-.625 2.115-2.008 2.048-3.541-.134-2.958-1.088-5.926-2.543-8.486-.821-1.446-3.049-.145-2.229 1.3a17.2 17.2 0 0 1 2.105 6.251c.062.475.149.997.088 1.477a.84.84 0 0 1-.176.433c.078-.113-.139.119-.072.067.015-.01-.134.088-.17.109-.253.144-.558.19-.965.129-.599-.093-1.187-.362-1.744-.599.258.63.516 1.265.769 1.894 2.043-3.344 2.724-7.314 2.151-11.17-.103-.691-.975-1.068-1.589-.903-.733.201-.996.893-.892 1.585M55.958 133.981c-.243-1.311.402-2.565 1.114-3.618.774-1.152 1.93-2.081 2.595-3.294.857-1.559.382-3.164-.289-4.681a18.3 18.3 0 0 0-2.084-3.572c-1.594-2.127-3.59-3.954-5.928-5.229-1.16-.63-2.384-1.074-3.637-1.477-.45-.144-.903-.299-1.295-.567-.305-.212-.49-.393-.392-.759.144-.527.727-.95 1.13-1.27.536-.423 1.109-.805 1.671-1.187 1.254-.847 2.528-1.678 3.642-2.71 1.95-1.802 3.349-4.511 3.029-7.221-.165-1.4-.769-2.716-1.852-3.645-1.053-.903-2.322-1.414-3.617-1.868-2.482-.878-4.674-2.096-6.537-3.985a15.5 15.5 0 0 1-2.1-2.612c-.113-.18-.355-.805-.526-.893-.082-.041-.232-.082-.154.196.02.073.232-.01.15-.026.432.083 1.093-.129 1.526-.18.934-.109 1.868-.222 2.802-.33 3.905-.465 7.81-.925 11.716-1.39.692-.082 1.29-.536 1.29-1.29 0-.635-.593-1.373-1.29-1.29l-10.7 1.27c-1.785.211-3.57.407-5.35.635-.753.093-1.48.242-2.028.82-.64.682-.696 1.637-.376 2.473.531 1.383 1.61 2.674 2.584 3.773.97 1.09 2.075 2.05 3.272 2.886a17.2 17.2 0 0 0 3.802 1.987c1.166.444 2.42.748 3.462 1.466 2.11 1.455 1.47 4.279.237 6.101-1.635 2.421-4.648 3.582-6.805 5.456-1.145.996-1.97 2.509-1.414 4.042.49 1.337 1.755 2.028 3.024 2.483 1.17.418 2.316.748 3.415 1.347a15.5 15.5 0 0 1 3.132 2.255 16.4 16.4 0 0 1 2.863 3.511 16 16 0 0 1 1.094 2.111c.258.609.609 1.393.31 2.044-.294.64-.945 1.171-1.388 1.708-.568.682-1.115 1.389-1.569 2.153-.928 1.564-1.367 3.267-1.032 5.069.13.686.955 1.073 1.59.903.727-.207 1.037-.909.913-1.595"/><path d="M97.681 105.896a35.4 35.4 0 0 0-4.158 12.3c-.098.687.17 1.389.903 1.59.603.165 1.485-.206 1.589-.903.588-4.104 1.872-8.068 3.9-11.687.805-1.45-1.424-2.751-2.234-1.3M91.263 110.278l-4.04-2.679c-.562-.372-1.45-.129-1.765.465-.34.645-.139 1.368.465 1.765l4.04 2.679c.562.372 1.45.129 1.764-.465.34-.645.134-1.367-.464-1.765M86.759 81.635c-.026-.15.005.238.005.238 0 .04-.031.34-.016.263-.02.129-.124.47-.201.676-.119.32-.408.82-.64 1.208-.541.908-1.124 1.874-1.29 2.937-.185 1.187.047 2.318.867 3.226.83.919 2.054 1.182 3.163.64.624-.304.794-1.197.464-1.765-.371-.64-1.135-.77-1.764-.465.196-.098-.062-.041.082-.03.196.01-.144-.094.041-.011.191.083-.18-.191.093.02-.056-.04-.123-.072-.18-.113.108.078.072.072.005-.015-.227-.29.067.123-.057-.057-.046-.067-.082-.134-.124-.201-.067-.114.026.144-.036-.078l-.062-.232c.047.186.006.026.006-.083 0-.093 0-.186.01-.284.005-.093.01-.093 0-.005l.03-.134c.058-.201.11-.403.186-.599.083-.211-.061.13.037-.082.051-.109.103-.212.154-.32.392-.754.883-1.446 1.228-2.22.47-1.043.676-2.065.485-3.2-.113-.687-.965-1.074-1.589-.904-.722.207-1.011.904-.898 1.59M127.347 26.296c8.337 2.71 15.834 7.82 21.05 14.917 5.788 7.883 8.822 17.556 10.205 27.151 1.542 10.68.913 21.69-1.12 32.262-1.888 9.823-4.968 19.558-9.942 28.271-2.115 3.701-4.524 7.36-7.594 10.349-2.425 2.359-5.335 4.119-8.503 5.374a48 48 0 0 1-2.739.991c.485.629.97 1.264 1.455 1.894 1.816-3.273 2.997-6.803 4.679-10.133 1.063-2.106 2.28-4.139 3.385-6.225a77 77 0 0 0 3.116-6.55c3.627-8.734 5.396-18.5 5.03-27.951-.18-4.677-.923-9.405-2.641-13.772-1.476-3.752-3.612-7.417-6.831-9.926-6.702-5.224-17.119-4.362-22.789 1.987-2.642 2.958-4.195 6.814-4.741 10.716-.295 2.111-.305 4.212.03 6.324.166 1.042.444 2.044.769 3.045.33 1.017.702 2.06.676 3.144-.01.412-.072.83-.227 1.218-.051.129-.144.242-.201.371.005-.01-.176.124.015.047l1.631 1.244c.242-2.122-.361-4.486-1.894-6.024-.547-.547-1.661-.5-2.027.263-.021.041-.155.423-.109.227l.067-.015q-.233.06-.041.02c.103.026.114.026.021 0-.083-.025-.083-.02 0 0 .067.15-.093-.134-.057-.051-.397-.97-1.754-1.358-2.358-.31-.273.48-.547.955-.82 1.435l2.404.65c-.129-1.868-2.007-3.329-3.648-1.94-.531.449-.464 1.362 0 1.827.527.526 1.29.449 1.827 0q-.365.301-.753.093a.13.13 0 0 1-.052-.067c.026-.01.052.165.046.088.083 1.223 1.734 1.822 2.405.65.273-.48.547-.955.82-1.435l-2.358-.31c.428 1.043 1.202 1.874 2.394 1.936 1.042.057 1.997-.578 2.446-1.502l-2.028.263c1.078 1.079 1.305 2.74 1.14 4.197-.087.774.908 1.543 1.631 1.244 1.898-.785 2.476-3.025 2.259-4.92-.242-2.162-1.243-4.14-1.532-6.297-.49-3.67.206-7.609 1.847-10.922 1.636-3.304 4.37-5.993 7.889-7.211 3.462-1.193 7.475-1.12 10.855.33 3.632 1.559 6.129 4.733 7.852 8.187 1.925 3.845 2.915 8.15 3.313 12.414.856 9.157-.583 18.649-3.689 27.285-1.538 4.279-3.658 8.285-5.866 12.249-.996 1.781-1.935 3.582-2.73 5.461-.639 1.507-1.223 3.025-1.924 4.506-.454.965-.949 1.91-1.471 2.839-.521.934.351 2.266 1.455 1.895 3.663-1.229 7.177-2.783 10.242-5.167 3.271-2.55 5.819-5.905 8.069-9.359 5.608-8.599 9.199-18.463 11.464-28.436 2.497-10.974 3.524-22.397 2.394-33.619-1.017-10.112-3.725-20.384-9.189-29.045-5.061-8.027-12.558-14.097-21.349-17.597a52 52 0 0 0-2.993-1.078c-1.558-.506-2.239 1.987-.665 2.498"/><path d="M128.477 24.432c-1.94-3.768-4.025-7.5-5.763-11.366-1.682-3.732-2.25-7.712-2.709-11.743-.082-.733-.774-1.59-1.63-1.244-1.718.687-2.585 2.173-3.111 3.887-.563 1.843-.867 3.758-1.419 5.606a49.2 49.2 0 0 1-4.989 11.304c-.857 1.425 1.372 2.725 2.229 1.3a52 52 0 0 0 4.906-10.808c.583-1.807 1.022-3.634 1.445-5.482.232-1.027.588-2.906 1.63-3.319l-1.63-1.244c.242 2.137.485 4.28.897 6.39.424 2.153 1.094 4.202 1.966 6.215 1.754 4.031 3.947 7.903 5.959 11.81.753 1.471 2.982.17 2.219-1.306M118.772 50.185c-1.486-.398-2.972-.79-4.458-1.188-1.491-.397-3.007-.913-4.529-1.182-1.651-.289-2.637.604-3.504 1.884-.861 1.27-1.712 2.54-2.574 3.815-.841 1.25-1.801 2.472-2.538 3.783-.609 1.08-.903 2.576.113 3.52 1.218 1.131 2.75.259 3.957-.381a92 92 0 0 0 3.808-2.153c1.377-.82 2.719-1.698 4.065-2.57 1.326-.862 2.678-1.719 4.169-2.25.655-.233 1.094-.878.903-1.59-.175-.635-.929-1.136-1.589-.904-2.317.831-4.308 2.225-6.367 3.541a90 90 0 0 1-6.397 3.748c-.248.134-.496.278-.753.397-.031.015-.15.067-.212.098-.377.191-.108-.03-.021.062 0 0 .516.392.331.428-.021.006.02-.185.005-.15.067-.144.118-.335.211-.495.609-1.094 1.409-2.11 2.11-3.148l2.214-3.283c.32-.475.624-.97.965-1.43.294-.398.33-.45.753-.367 1.408.284 2.801.744 4.184 1.11 1.486.398 2.972.79 4.458 1.187 1.62.429 2.301-2.06.696-2.482M96.262 77.067c-.572 3.856.109 7.825 2.152 11.17q.388-.947.768-1.894c-.552.232-1.124.49-1.718.588a3.3 3.3 0 0 1-.567.026c.01 0-.418-.14-.361-.108-.294-.145-.434-.269-.485-.64-.062-.475.025-1.007.087-1.477a17.2 17.2 0 0 1 2.105-6.25c.82-1.446-1.408-2.747-2.228-1.301-1.46 2.565-2.405 5.528-2.544 8.486-.067 1.445.542 2.828 1.894 3.474 1.5.712 3.038.299 4.493-.31.738-.31 1.249-1.11.769-1.895-1.656-2.715-2.363-6.023-1.893-9.182.103-.687-.17-1.389-.903-1.59-.594-.165-1.466.212-1.569.903M146.539 134.668c.609-3.263-1.393-5.854-3.415-8.166-.428-.491-.779-.919-.666-1.606.114-.666.439-1.321.733-1.925.588-1.192 1.3-2.338 2.157-3.355 1.651-1.962 3.756-3.619 6.17-4.537 1.166-.444 2.451-.677 3.493-1.399 1.223-.847 1.904-2.302 1.383-3.768-.537-1.502-1.961-2.457-3.215-3.33-1.207-.841-2.486-1.6-3.596-2.575-1.656-1.456-3.307-4.047-2.29-6.324.485-1.078 1.584-1.657 2.636-2.06 1.3-.495 2.626-.908 3.87-1.553 2.595-1.342 4.793-3.355 6.495-5.72.986-1.372 2.399-3.664.418-4.908-.764-.48-1.744-.475-2.611-.578-.975-.114-1.955-.232-2.93-.346-4.035-.48-8.064-.955-12.099-1.435-.691-.082-1.289.65-1.289 1.29 0 .764.593 1.208 1.289 1.29l10.443 1.24 5.092.604c.052.005.655.098.66.087.083-.278-.077-.237-.154-.196a3 3 0 0 0-.15.274c-.351.62-.758 1.218-1.197 1.78-1.615 2.076-3.751 3.784-6.165 4.827-2.394 1.032-5.273 1.528-6.542 4.114-1.202 2.462-.521 5.492 1.042 7.634 1.754 2.411 4.442 3.686 6.728 5.492.412.326.98.744 1.13 1.27.098.346-.062.521-.326.718-.882.671-2.151.82-3.157 1.228a18 18 0 0 0-6.511 4.553 19.4 19.4 0 0 0-2.642 3.685c-.81 1.482-1.728 3.268-1.403 5.002.31 1.636 1.837 2.762 2.765 4.052.816 1.131 1.626 2.514 1.357 3.964-.129.687.191 1.394.903 1.59.635.16 1.465-.227 1.594-.913M110.048 112.508l4.04-2.679c.562-.372.856-1.156.464-1.765-.361-.563-1.161-.862-1.765-.465l-4.039 2.679c-.563.372-.857 1.156-.465 1.765.361.563 1.166.863 1.765.465M110.76 80.954c-.186 1.11.005 2.111.454 3.133.351.8.856 1.513 1.259 2.287.185.356.252.5.361.934.015.057.062.31.041.14q.016.138.016.278c0-.005-.031.362 0 .207.025-.145-.031.098-.042.118-.025.093-.113.238-.025.083q-.056.108-.119.206c-.114.197.041-.025-.047.062-.015.016-.185.186-.077.088.119-.103-.139.083-.139.083.082-.062.165-.042.02-.016.109-.02.196.016.047-.005.361.046-.124-.088.155.046-.625-.304-1.393-.17-1.765.465-.33.568-.165 1.46.464 1.765 1.089.532 2.296.295 3.122-.598.846-.904 1.104-2.065.908-3.268-.17-1.043-.717-1.982-1.254-2.875-.242-.408-.547-.924-.676-1.27a4 4 0 0 1-.201-.707c.031.16-.015-.227-.015-.232 0-.036.031-.403.005-.238.113-.66-.176-1.42-.903-1.59-.624-.144-1.471.192-1.589.904"/></g><defs><clipPath id="a"><path fill="#fff" d="M0 0h200v200H0z"/></clipPath></defs></svg>