<svg xmlns="http://www.w3.org/2000/svg" width="200" height="200" fill="none"><g fill="#000" fill-rule="evenodd" clip-path="url(#a)" clip-rule="evenodd"><path d="M92.048.795C41.65.795.795 41.65.795 92.048c0 50.397 40.855 91.252 91.253 91.252 50.397 0 91.252-40.855 91.252-91.252C183.3 41.65 142.445.795 92.048.795M0 92.048C0 41.21 41.211 0 92.048 0c50.836 0 92.047 41.211 92.047 92.048 0 50.836-41.211 92.047-92.047 92.047C41.21 184.095 0 142.884 0 92.048"/><path d="M145.825 92.445c-29.481 0-53.38 23.899-53.38 53.38s23.899 53.38 53.38 53.38 53.38-23.899 53.38-53.38-23.899-53.38-53.38-53.38m-54.175 53.38c0-29.92 24.255-54.175 54.175-54.175S200 115.905 200 145.825 175.745 200 145.825 200 91.65 175.745 91.65 145.825"/></g><defs><clipPath id="a"><path fill="#fff" d="M0 0h200v200H0z"/></clipPath></defs></svg>