<svg xmlns="http://www.w3.org/2000/svg" width="200" height="200" fill="none"><path fill="#000" d="M87.165 13.867 74.13 12.94c-4.262-.303-8.527-.652-12.797-.84-7.812-.34-15.704.084-23.074 2.904-6.17 2.358-11.78 6.058-16.517 10.656-4.991 4.843-8.901 10.627-11.765 16.951-1.718 3.798-3.175 7.712-4.625 11.62A437 437 0 0 0 .034 69.378c-.225.675.73 1.233 1.205.701a57.5 57.5 0 0 1 23.357-15.695 57 57 0 0 1 7.745-2.165l-.911-.695a48.35 48.35 0 0 1-3.259 18.555c-.225.583.56 1.15 1.059.814A69.4 69.4 0 0 1 48.809 61.8c.689-.197 1.51-.54 1.903.265.352.728.464 1.628.608 2.416.346 1.894.476 3.819.528 5.74.11 3.946.037 7.9.037 11.846l.003 13.502c0 .646.776.924 1.232.51 5.9-5.362 13.864-8.297 21.822-8.176 4.178.064 8.602.84 12.059 3.32 3.091 2.216 5.297 5.587 6.658 9.1 1.903 4.912 2.359 10.217 2.806 15.421.078.918 1.522.926 1.442 0-.753-8.754-1.797-18.683-8.928-24.787-3.434-2.941-7.817-4.093-12.25-4.416-4.172-.303-8.416.23-12.398 1.498-4.522 1.44-8.714 3.827-12.23 7.019l1.232.51q-.002-6.294-.003-12.586c0-4.153.07-8.312-.032-12.463-.049-2.02-.184-4.04-.522-6.035-.248-1.463-.473-3.92-2.254-4.324-.9-.205-1.86.18-2.714.43q-1.367.405-2.713.86c-1.8.612-3.57 1.3-5.315 2.053a70 70 0 0 0-11.277 6.147l1.058.814a49.4 49.4 0 0 0 3.31-18.94c-.011-.49-.45-.79-.91-.695C22.452 52.785 13.5 57.17 6.062 63.406a57 57 0 0 0-5.839 5.655l1.205.7c2.633-7.948 5.401-15.89 8.593-23.635 1.428-3.463 3.054-6.846 5.064-10.012a52 52 0 0 1 5.986-7.715c4.45-4.736 9.79-8.638 15.747-11.256a42.3 42.3 0 0 1 9.49-2.884c4.071-.736 8.23-.889 12.359-.802 4.178.09 8.344.421 12.511.719l12.832.912 3.157.225c.923.063.92-1.383-.003-1.446"/><path fill="#000" d="M86.978 13.974a186.148 186.148 0 0 0-15.871 5.302c-1.615.62-3.336 1.177-4.818 2.086-2.846 1.74-3.706 5.097-4.363 8.16a39.3 39.3 0 0 0-.865 9.239c.161 6.147 1.785 12.304 5.006 17.565a30.03 30.03 0 0 0 12.869 11.5c5.222 2.438 11.122 3.408 16.814 2.346.698-.13 1.39-.295 2.073-.485.891-.248.513-1.642-.384-1.391-5.288 1.477-10.931.98-16.03-.976-5.12-1.965-9.705-5.443-12.9-9.911-3.414-4.78-5.37-10.512-5.877-16.351a37.6 37.6 0 0 1 .269-8.89c.224-1.48.536-2.947.934-4.387.378-1.37.822-2.82 1.738-3.94.984-1.2 2.437-1.803 3.841-2.363q2.528-1.009 5.081-1.943a186 186 0 0 1 12.867-4.176c.89-.248.513-1.642-.384-1.386"/><path fill="#000" d="M95.245 68.674c-4.293-1.308-8.333-3.9-10.946-7.603-2.537-3.599-3.52-8.119-2.442-12.42.585-2.343 1.77-4.499 3.544-6.153l-1.133-.874c-2.37 3.576-1.595 8.081.052 11.767 1.603 3.585 3.904 7.12 7.22 9.325 1.871 1.244 4.066 2.02 6.32 2.055.929.015.929-1.428 0-1.443-3.682-.058-6.848-2.34-9.048-5.146-1.13-1.437-2.056-3.048-2.858-4.69-.836-1.706-1.528-3.55-1.71-5.455-.187-1.986.15-4.01 1.266-5.689.468-.704-.55-1.417-1.133-.874-3.46 3.232-4.861 8.21-4.259 12.838.64 4.91 3.51 9.112 7.408 12.058 2.194 1.66 4.706 2.892 7.333 3.692.894.274 1.274-1.117.386-1.388M112.835 15.31c4.276-.303 8.555-.61 12.831-.912 4.199-.3 8.4-.641 12.604-.837 7.722-.358 15.49-.012 22.8 2.724 6.07 2.272 11.589 5.937 16.226 10.449 4.882 4.753 8.676 10.407 11.482 16.607 1.71 3.775 3.146 7.675 4.585 11.557a444 444 0 0 1 5.21 14.864l1.206-.702c-6.482-7.23-14.784-12.76-23.913-16.038a57.5 57.5 0 0 0-7.823-2.194c-.462-.095-.903.205-.912.695a49.4 49.4 0 0 0 3.311 18.94l1.058-.814a70 70 0 0 0-9.934-5.55 72 72 0 0 0-5.271-2.159c-1.765-.64-3.575-1.299-5.409-1.717-.86-.197-1.777-.162-2.42.516-.565.595-.758 1.438-.937 2.214-.455 1.966-.669 3.986-.77 5.998-.204 4.127-.086 8.278-.086 12.408l-.003 14.212 1.231-.511c-6.22-5.654-14.608-8.769-23.005-8.596-4.362.09-9.014.924-12.624 3.513-3.339 2.393-5.686 5.888-7.203 9.669-2.047 5.103-2.508 10.673-2.973 16.099-.08.927 1.364.921 1.442 0 .715-8.338 1.655-17.793 8.388-23.664 3.227-2.814 7.489-3.856 11.673-4.119 3.95-.245 7.921.269 11.692 1.47 4.28 1.362 8.268 3.625 11.592 6.65.453.412 1.232.135 1.232-.511.002-7.958-.075-15.918.014-23.876.02-1.893.086-3.79.32-5.668q.177-1.456.519-2.88c.133-.549.262-1.533.972-1.597.418-.037.862.139 1.257.254q.662.19 1.321.39 1.272.39 2.531.828a67 67 0 0 1 5.038 1.986 70 70 0 0 1 10.686 5.89c.496.333 1.286-.227 1.059-.813a48.2 48.2 0 0 1-3.259-18.556l-.911.696a57.5 57.5 0 0 1 25.323 12.26 58 58 0 0 1 5.776 5.6c.476.531 1.43-.026 1.205-.701-2.673-8.07-5.476-16.146-8.743-23.997-1.459-3.504-3.097-6.927-5.144-10.127a54 54 0 0 0-6.13-7.877c-4.507-4.797-9.94-8.789-15.969-11.45-3.114-1.374-6.364-2.407-9.712-3.025-4.132-.764-8.345-.966-12.54-.894-4.208.072-8.406.404-12.602.704l-13.036.926q-1.629.118-3.258.231c-.917.055-.926 1.501.003 1.435"/><path fill="#000" d="M112.638 15.365q5.234 1.488 10.372 3.284a190 190 0 0 1 5.11 1.867c1.543.59 3.16 1.123 4.602 1.937 1.326.75 2.209 1.87 2.777 3.276.553 1.374.905 2.843 1.211 4.289.614 2.91.874 5.888.787 8.858-.173 5.859-1.736 11.707-4.804 16.723-2.93 4.785-7.232 8.578-12.304 10.959-4.888 2.294-10.525 3.224-15.854 2.205a24 24 0 0 1-1.969-.465c-.894-.25-1.277 1.143-.384 1.391 5.537 1.548 11.506 1.066 16.846-.992 5.441-2.099 10.228-5.724 13.645-10.463 3.607-5.008 5.606-11.049 6.142-17.173a39 39 0 0 0-.32-9.274 38 38 0 0 0-.963-4.5c-.43-1.535-.972-3.065-1.97-4.329-1.052-1.33-2.581-2.055-4.115-2.678a160 160 0 0 0-5.158-1.986 185 185 0 0 0-13.262-4.32c-.899-.255-1.283 1.136-.389 1.39"/><path fill="#000" d="M105.138 70.065c4.672-1.423 8.971-4.246 11.806-8.266 2.762-3.92 3.763-8.916 2.575-13.583-.649-2.552-1.97-4.938-3.902-6.742-.574-.537-1.603.164-1.133.874 2.125 3.207 1.349 7.265-.162 10.55-1.499 3.258-3.558 6.548-6.594 8.569-1.664 1.108-3.582 1.827-5.594 1.858-.926.015-.929 1.458 0 1.444 4.054-.067 7.624-2.465 10.069-5.568 1.24-1.573 2.269-3.299 3.14-5.1.926-1.916 1.647-3.934 1.849-6.067.207-2.214-.222-4.546-1.462-6.416l-1.134.874c3.169 2.959 4.412 7.496 3.85 11.73-.588 4.445-3.284 8.356-6.834 10.997a22.4 22.4 0 0 1-6.86 3.449c-.882.277-.505 1.668.386 1.397M96.476 115.711c-.07 6.442.308 12.887 1.13 19.277a139 139 0 0 0 3.717 18.755c1.384 5.1 3.108 10.139 5.525 14.847 2.382 4.644 5.499 8.97 9.49 12.365 4.334 3.685 9.628 6.312 15.323 6.921a22 22 0 0 0 2.079.124c.663.011.899-.777.51-1.233l-3.08-3.584c-.816-.95-1.562-1.992-2.462-2.863-.975-.944-2.114-1.461-3.449-1.657-1.375-.202-2.768-.179-4.152-.292q-2.689-.218-5.378-.435c-.389-.032-.721.355-.721.721 0 .416.332.69.721.722l4.588.372c1.355.11 2.719.124 4.071.248 1.168.107 2.258.384 3.141 1.192.876.8 1.571 1.79 2.341 2.684l3.359 3.908.511-1.232c-5.545-.087-10.854-2.332-15.217-5.68-4.057-3.114-7.249-7.207-9.711-11.666-2.492-4.514-4.257-9.389-5.675-14.334-1.693-5.905-2.956-11.937-3.832-18.015a137.5 137.5 0 0 1-1.387-21.151c.008-.924-1.434-.924-1.442.006"/></svg>