<svg xmlns="http://www.w3.org/2000/svg" width="200" height="200" fill="none"><path fill="#000" d="M0 49.11C.16 66.677 6.43 83.35 14.72 98.605c8.316 15.297 20.105 28.327 32.15 40.731 5.864 6.04 12.055 11.76 18.862 16.721 7.028 5.125 15.024 9.046 23.055 12.33q2.989 1.22 6.03 2.307c1.989.711 4.27 1.169 6.098 2.236 1.84 1.071 3.855 1.704 5.863 2.388a163.14 163.14 0 0 0 32.899 7.526c17.738 2.166 35.838 1.306 53.26-2.705a149 149 0 0 0 6.374-1.619c1.209-.332.694-2.22-.518-1.884-17.036 4.707-34.825 6.321-52.434 4.926a159 159 0 0 1-26.085-4.297 164 164 0 0 1-15.745-4.804c-1.092-.395-2.016-.915-3.037-1.451-1.797-.946-3.914-1.403-5.824-2.083-8.101-2.882-15.918-6.494-23.333-10.861-7.227-4.257-13.675-9.863-19.679-15.696-5.968-5.801-11.703-11.924-17.22-18.159-5.726-6.474-10.942-13.39-15.538-20.72A134.6 134.6 0 0 1 8.257 80.21c-3.04-7.94-5.24-16.251-6-24.739a79 79 0 0 1-.308-6.36c-.011-1.255-1.96-1.26-1.949 0"/><path fill="#000" d="M97.843 135.207c5.297 4.781 11.11 8.953 17.137 12.749 5.988 3.772 12.19 7.189 18.393 10.594 6.319 3.472 12.771 6.681 19.433 9.445 6.663 2.764 13.516 5.075 20.53 6.763a128.4 128.4 0 0 0 25.523 3.503c1.255.047 1.251-1.911 0-1.954a126.6 126.6 0 0 1-22.506-2.858c-6.986-1.537-13.828-3.683-20.482-6.306-6.604-2.604-13.013-5.684-19.263-9.054-6.182-3.331-12.342-6.736-18.338-10.395-5.96-3.64-11.757-7.588-17.071-12.135a102 102 0 0 1-1.973-1.736c-.935-.836-2.32.54-1.383 1.384"/><path fill="#000" d="M60.453 49.36a162 162 0 0 0 2.312 19.043 153 153 0 0 0 4.55 18.378 155 155 0 0 0 7.867 20.001l.503 1.048c.206.426.471.723.803 1.055.257.258.542.497.717.817.187.344.367.696.554 1.04q.544.998 1.11 1.978a82 82 0 0 0 4.909 7.491 85.2 85.2 0 0 0 13.695 14.66c.401.34.982.395 1.38 0 .347-.348.405-1.04 0-1.384a84.4 84.4 0 0 1-12.183-12.666 80 80 0 0 1-4.993-7.213 77 77 0 0 1-2.745-4.821c-.214-.406-.48-.703-.803-1.028-.265-.266-.55-.504-.717-.84-.176-.344-.336-.696-.503-1.048a151 151 0 0 1-7.006-17.432 152 152 0 0 1-4.79-18.132 155 155 0 0 1-2.706-20.95c-.082-1.247-2.031-1.255-1.954.004"/><path fill="#000" fill-rule="evenodd" d="M.738 48.274c20.236.039 40.117.039 60.298 0l.003 1.564c-20.183.039-40.066.039-60.304 0z" clip-rule="evenodd"/><path fill="#000" d="M77.037 110.023a227 227 0 0 0-21.15 23.441 229 229 0 0 0-5.403 7.177c-.308.426-.074 1.091.351 1.337.492.289 1.026.078 1.334-.352a226 226 0 0 1 26.248-30.219c.904-.876-.476-2.256-1.38-1.384M74.581 102.744c-2.666.23-4.522 2.541-6.311 4.296a619.118 619.118 0 0 0-18.24 18.62 555 555 0 0 0-6.66 7.225c-.842.93.534 2.314 1.38 1.384a597 597 0 0 1 23.414-24.391 457 457 0 0 1 3.35-3.28c.837-.809 1.84-1.794 3.063-1.9.527-.047.975-.418.975-.977.004-.497-.445-1.024-.97-.977"/><path fill="#000" d="M43.74 132.67c-4.632-1.615-9.388 1.458-12.003 5.149-2.893 4.077-3.899 9.421-3.1 14.316.433 2.639 1.497 5.117 2.768 7.447 1.337 2.451 2.846 4.817 4.41 7.127a112 112 0 0 0 2.436 3.452c.76 1.036 1.54 2.072 2.14 3.213.944 1.787 1.435 4.379-.214 5.931-.842.794-2.078 1.067-3.193 1.173-1.478.137-2.982.082-4.46-.012-3.161-.203-6.28-.817-9.298-1.775-1.197-.379-1.711 1.505-.518 1.885a41.5 41.5 0 0 0 8.444 1.731 40 40 0 0 0 4.315.196c1.182-.012 2.39-.086 3.532-.411 1.123-.32 2.21-.907 2.955-1.825.78-.966 1.166-2.135 1.244-3.37.16-2.588-1.2-4.887-2.663-6.9-1.637-2.264-3.255-4.531-4.752-6.889-1.47-2.31-2.947-4.675-4.015-7.205-1.903-4.507-1.969-9.726.035-14.218 1.052-2.353 2.596-4.496 4.76-5.938 1.984-1.322 4.347-1.994 6.662-1.185.5.172 1.064-.199 1.201-.684.14-.547-.187-1.036-.686-1.208M35.23 16.283c-4.288 4.21-9.02 8.171-12.19 13.363-2.721 4.456-4.71 11.196-.44 15.399 1.761 1.736 4.167 2.674 6.588 2.963 2.093.25 4.748-.02 6.327-1.583 1.372-1.357 1.318-3.362.834-5.098-.261-.942-.643-1.85-1.033-2.744q-.288-.649-.58-1.298-.126-.276-.25-.552-.07-.156-.14-.312c-.02-.043-.13-.305-.07-.16-1.116-2.651-1.478-5.564-1.159-8.418.34-3.021 1.755-5.617 3.045-8.31.343-.716.667-1.444.963-2.178.199-.49-.215-1.076-.682-1.204-.558-.153-1.002.191-1.201.684-1.068 2.65-2.631 5.082-3.458 7.83-.87 2.885-.943 6.036-.347 8.984.417 2.068 1.306 3.91 2.148 5.825.308.704.647 1.532.881 2.377q.082.286.144.578.031.14.055.286l.023.14c.024.16-.015-.14.004.02q.03.272.035.544c0 .09 0 .175-.004.265-.004.067-.03.32-.003.125a3.4 3.4 0 0 1-.114.49c-.019.066-.085.234-.019.077-.043.102-.098.2-.152.297q-.065.112-.14.212c.097-.133-.028.027-.067.07a4 4 0 0 1-.19.191q-.053.049-.106.09c-.12.098.101-.07-.031.02-.73.5-1.673.758-2.546.837-2.101.183-4.257-.286-6.058-1.396-1.934-1.193-3.076-3.136-3.212-5.415-.156-2.6.744-5.172 1.953-7.435 2.663-4.993 7.01-8.828 11.04-12.686q.773-.739 1.528-1.482c.9-.895-.48-2.28-1.376-1.396"/></svg>