<svg xmlns="http://www.w3.org/2000/svg" width="200" height="200" fill="none"><path fill="#000" d="M160.051.049c-7.754 2.761-16.214 5.888-21.619 12.418-2.899 3.503-4.48 7.702-5.068 12.18-.634 4.854-.234 9.757-.09 14.628.15 5.05-.1 9.984-1.578 14.846-1.518 5-3.892 9.75-6.542 14.241-5.101 8.644-11.75 16.205-19.31 22.785-7.392 6.43-15.555 11.922-23.94 16.969q-1.565.939-3.14 1.864c-.469.274-.472.841-.16 1.225q7.085 8.641 14.169 17.283l6.995 8.531q1.792 2.188 3.586 4.376c.865 1.054 1.881 2.911 3.44 1.83.643-.446 1.218-1.032 1.809-1.54q1.122-.969 2.246-1.939 2.085-1.8 4.171-3.603c2.546-2.2 5.108-4.388 7.597-6.651 4.784-4.345 9.345-9.03 12.813-14.513 1.874-2.967 3.411-6.128 4.883-9.307 1.452-3.145 2.896-6.3 4.267-9.482 2.709-6.29 5.152-12.754 6.386-19.512 1.225-6.704 1.015-13.415-.347-20.082-1.368-6.704-3.671-13.166-5.776-19.661-1.06-3.27-2.147-6.562-2.843-9.928-.694-3.344-.925-6.888.24-10.158 1.056-2.955 3.19-5.398 5.464-7.502a38 38 0 0 1 7.783-5.54 37 37 0 0 1 4.311-1.978c.928-.359.525-1.864-.416-1.503-5.764 2.223-11.256 5.77-15.28 10.495-2.049 2.41-3.571 5.19-4.039 8.347-.497 3.32.009 6.686.812 9.918 1.637 6.602 4.124 12.979 6.073 19.49 1.937 6.468 3.443 13.132 3.312 19.917-.131 6.789-1.856 13.431-4.174 19.78-2.349 6.44-5.233 12.727-8.201 18.905-1.478 3.076-3.093 6.087-5.052 8.886-1.852 2.646-3.97 5.099-6.217 7.418-4.639 4.791-9.8 9.055-14.842 13.406q-2.032 1.755-4.065 3.51-.534.463-1.068.922c-.153.131-.644.664-.816.639-.2-.031-.606-.735-.74-.897q-.491-.601-.987-1.203l-6.995-8.531q-6.996-8.533-13.99-17.066l-3.409-4.158-.159 1.225c8.391-4.918 16.59-10.208 24.146-16.345 7.623-6.19 14.525-13.278 20.023-21.429 2.912-4.314 5.47-8.899 7.514-13.686 2.012-4.713 3.336-9.6 3.586-14.728.459-9.35-2.14-19.783 2.593-28.43 4.093-7.48 12.44-11.226 20.079-14.075q1.484-.55 2.977-1.082c.944-.336.541-1.842-.412-1.505"/><path fill="#000" d="M91.723 116.603c1.224 0 2.399-1.075 2.343-2.338-.057-1.265-1.031-2.337-2.344-2.337-1.224 0-2.399 1.075-2.343 2.337.057 1.266 1.031 2.338 2.343 2.338M97.94 125.533c1.225 0 2.399-1.075 2.343-2.338-.056-1.265-1.03-2.337-2.343-2.337-1.225 0-2.4 1.075-2.343 2.337.056 1.269 1.03 2.338 2.343 2.338M104.156 132.976c1.225 0 2.4-1.075 2.343-2.337-.056-1.266-1.031-2.338-2.343-2.338-1.224 0-2.399 1.075-2.343 2.338.056 1.268 1.031 2.337 2.343 2.337M94.454 101.629l9.978 11.966c3.24 3.884 6.445 7.802 9.725 11.654 1.594 1.871 3.324 3.678 5.505 4.869.881.483 1.672-.863.787-1.346-1.908-1.045-3.433-2.597-4.845-4.227-1.59-1.836-3.124-3.725-4.68-5.592l-9.779-11.726-5.586-6.701c-.268-.324-.824-.277-1.105 0-.322.321-.272.779 0 1.103M104.885 93.447a190 190 0 0 0 26.121 25.098c.331.262.781.321 1.106 0 .271-.271.331-.839 0-1.103a190.3 190.3 0 0 1-26.121-25.098c-.275-.321-.822-.28-1.106 0-.319.318-.278.782 0 1.103M131.778 58.76a96 96 0 0 0 17.951 5.033c.415.075.84-.112.962-.545.103-.378-.128-.886-.547-.96a95.7 95.7 0 0 1-17.951-5.034c-.394-.153-.856.168-.962.545-.122.443.15.807.547.96M133.055 52.687c5.08.92 10.216 1.509 15.371 1.758 1.006.05 1.002-1.508 0-1.558a115 115 0 0 1-14.956-1.702c-.415-.075-.843.112-.962.545-.103.378.128.883.547.957M134.496 45.774c3.664-.072 7.326-.337 10.962-.792.419-.053.781-.32.781-.779 0-.38-.359-.832-.781-.78-3.636.456-7.298.72-10.962.793-1.003.021-1.006 1.58 0 1.558M134.248 42.071c3.571.175 7.151.047 10.703-.377.419-.05.782-.32.782-.78 0-.383-.36-.828-.782-.778a64 64 0 0 1-10.703.377c-1.006-.047-1.003 1.512 0 1.558M93.12 129.005c-7.349 1.051-13.335 6.452-16.977 12.655-4.374 7.443-5.702 16.158-7.286 24.505-.78 4.121-1.646 8.242-2.97 12.225-.666 1.998-1.45 3.952-2.407 5.832-.874 1.72-1.858 3.444-3.133 4.906-1.14 1.306-2.543 2.472-4.274 2.858-1.815.408-3.611-.277-5.214-1.078-1.64-.823-3.24-1.889-5.033-2.351-1.48-.383-3.133-.43-4.602.041-1.4.449-2.6 1.396-3.046 2.83-.55 1.761.24 3.5 1.453 4.772 1.24 1.3 2.87 2.26 4.52 2.952 1.55.648 3.35 1.113 5.02.679a4.1 4.1 0 0 0 2.082-1.29c.275-.321.315-.789 0-1.103-.282-.281-.831-.322-1.106 0-.984 1.153-2.493 1.137-3.884.788-1.602-.402-3.146-1.194-4.464-2.182-1.15-.86-2.43-2.182-2.227-3.74.078-.586.309-1.019.671-1.39.394-.399.928-.677 1.478-.842 1.256-.38 2.64-.318 3.911.05 1.694.493 3.203 1.54 4.78 2.3 1.765.851 3.637 1.453 5.617 1.154 1.8-.275 3.393-1.303 4.677-2.553 1.36-1.328 2.418-2.933 3.35-4.576 1.015-1.789 1.868-3.668 2.602-5.588 1.45-3.794 2.402-7.752 3.205-11.723 1.653-8.17 2.671-16.67 6.336-24.259 2.974-6.166 8.057-11.876 14.833-13.83a19 19 0 0 1 2.5-.533c.418-.059.646-.589.546-.96-.121-.452-.54-.608-.959-.549"/><path fill="#000" d="M93.844 129.342c-5.99.125-12.072.265-17.892 1.83-4.892 1.315-9.55 3.752-12.996 7.518-1.638 1.789-2.962 3.846-3.818 6.115-.99 2.621-1.194 5.445-.978 8.219.24 3.08.922 6.103 1.337 9.158.325 2.397.528 4.906-.21 7.25-.652 2.076-2.242 3.815-4.539 3.887-2.365.075-4.348-1.593-4.695-3.931a4.4 4.4 0 0 1 .053-1.558c.21-.979-1.294-1.397-1.506-.415-.547 2.544.578 5.336 2.865 6.652 2.309 1.328 5.31.985 7.27-.801 1.784-1.627 2.437-4.127 2.583-6.452.185-2.88-.409-5.792-.887-8.619-.51-3.014-1.009-6.078-.7-9.145.25-2.474 1.14-4.828 2.493-6.907 2.625-4.03 6.852-6.954 11.332-8.587 5.745-2.094 11.912-2.45 17.97-2.606q1.155-.028 2.312-.053c1.012-.018 1.015-1.577.006-1.555"/><path fill="#000" d="M93.67 130.09c-2.568.963-4.546 2.974-5.802 5.377-1.447 2.771-1.878 5.919-1.993 9.005-.125 3.41-.031 6.835.019 10.245q.074 5.28.243 10.554c.113 3.516.26 7.035.434 10.548.085 1.705.185 3.413.279 5.118.068 1.225.087 2.462-.05 3.684-.12 1.069-.397 2.163-.966 3.082-.634 1.026-1.64 1.646-2.818 1.905-1.5.33-3.105.206-4.63.206-1.755 0-3.514-.016-5.27 0-1.147.012-2.43.271-3.318 1.044-.425.371-.7.888-.731 1.452-.04.736.344 1.381.847 1.886a12.3 12.3 0 0 0 3.317 2.388c1.15.554 2.472.941 3.746.611a3.6 3.6 0 0 0 1.644-.97c.709-.714-.397-1.817-1.106-1.103-1.653 1.664-4.452-.246-5.849-1.437a10 10 0 0 1-.693-.636 1.5 1.5 0 0 1-.25-.315 1 1 0 0 1-.066-.137c-.04-.1-.022-.084-.031-.125-.028-.14-.016-.174.081-.314.044-.066.034-.05.134-.147.06-.056.094-.081.22-.156.964-.58 2.167-.486 3.295-.486h5.04c1.468 0 2.986.05 4.414-.355 2.496-.711 3.933-2.834 4.392-5.29.5-2.652.172-5.38.028-8.048q-.268-5.04-.453-10.08a571 571 0 0 1-.38-20.157c-.004-3.098.04-6.253.999-9.229.734-2.272 2.115-4.482 4.14-5.82a8 8 0 0 1 1.546-.801c.394-.146.665-.526.547-.96-.1-.371-.563-.685-.96-.539"/></svg>