<svg xmlns="http://www.w3.org/2000/svg" width="200" height="200" fill="none"><g fill="#000" clip-path="url(#a)"><path d="M94.563 1.161a80 80 0 0 1-5.784 14.228c-2.333 4.442-5.156 8.606-7.064 13.266-4.046 9.879-1.902 20.785 2.418 30.166 2.444 5.297 5.574 10.23 8.685 15.142 1.137 1.79 3.967.126 2.823-1.67-5.352-8.434-10.88-17.158-12.462-27.249-.758-4.833-.432-9.819 1.267-14.42 1.673-4.528 4.45-8.532 6.725-12.749A84 84 0 0 0 97.713 2.05c.614-2.055-2.536-2.93-3.15-.889"/><path d="M98.125 75.415c-4.039-4.614-9.796-6.51-15.6-7.604-1.424-.272-2.855-.504-4.286-.756-1.34-.232-2.693-.365-4-.762-2.437-.743-4.562-2.241-6.306-4.11-2.052-2.202-3.555-4.92-4.555-7.764-.294-.842-1.118-1.406-2.013-1.16-.804.225-1.438 1.193-1.144 2.041 1.902 5.424 5.418 10.648 10.666 13.2 2.66 1.293 5.509 1.585 8.378 2.082 2.855.49 5.73 1.008 8.482 1.943 3.104 1.054 5.882 2.744 8.064 5.237 1.406 1.598 3.706-.755 2.314-2.347"/><path d="M59.763 54.465c-.36 3.965-.49 7.956.177 11.9.673 3.998 2.346 7.671 4.96 10.74 4.849 5.69 11.698 11.344 19.612 10.005 4.686-.795 8.594-3.865 12.247-6.736.699-.55.568-1.77 0-2.346-.686-.697-1.608-.55-2.314 0-2.875 2.26-5.914 4.614-9.482 5.588-3.274.889-6.548.113-9.45-1.551-2.934-1.677-5.424-4.044-7.66-6.57-2.345-2.645-3.881-5.636-4.593-9.13-.798-3.904-.582-7.962-.223-11.906.079-.896-.81-1.658-1.633-1.658-.955.007-1.556.77-1.64 1.664M94.648 102.863c-5.235 4.415-11.659 7.849-18.645 7.518-6.169-.292-11.22-3.998-14.331-9.262-1.732-2.93-2.85-6.159-3.477-9.507-.797.623-1.601 1.246-2.398 1.87 2.346 1.81 5.038 3.149 7.986 3.513 2.947.358 5.633-.67 8.293-1.816 2.535-1.094 5.019-1.956 7.816-1.598 2.633.338 5.176 1.558 7.228 3.242 2.418 1.989 4.28 4.528 5.81 7.26 1.038 1.856 3.861.185 2.822-1.671-2.868-5.138-7.077-9.753-12.789-11.523-2.869-.888-5.966-.954-8.835-.046-2.66.842-5.13 2.446-7.914 2.857-3.216.471-6.294-1.166-8.77-3.076-.51-.391-1.36-.239-1.817.133-.543.437-.713 1.06-.588 1.743 1.202 6.464 4.346 12.889 9.54 16.986 6.13 4.84 14.352 5.277 21.462 2.486 4.026-1.578 7.607-3.965 10.914-6.756.68-.57.582-1.75 0-2.347-.667-.683-1.627-.576-2.307-.006M93.282 121.897c-2.477-.398-5.013-.517-7.437.232-2.261.696-4.248 2.049-5.921 3.719-3.261 3.262-5.542 8.248-10.136 9.819-1.823.623-1.366 3.05.431 3.255 6.895.789 14.548 1.704 21.05-1.346 1.777-.835 3.411-2.068 4.614-3.646.542-.709.68-1.657 0-2.347-.562-.57-1.765-.709-2.314 0-2.516 3.295-6.64 4.356-10.626 4.648-4.248.311-8.502-.146-12.724-.624l.432 3.256c4.796-1.638 7.365-5.901 10.547-9.561 1.366-1.564 2.967-3.043 4.915-3.779 2.02-.762 4.182-.775 6.3-.431.869.14 1.758-.225 2.012-1.16.21-.782-.267-1.889-1.143-2.035M95.995 141.548c-4.45-.319-9.038.968-12.711 3.547-1.824 1.286-3.333 2.824-4.706 4.587-1.156 1.479-2.385 3.302-4.228 3.925-1.496.511-1.607 2.732 0 3.196 2.085.597 4.235 1.061 6.398 1.253 2 .179 4.039-.139 5.62-1.472 1.347-1.134 1.98-2.897 3.373-3.984 1.32-1.028 2.947-1.413 4.587-1.267.882.08 1.634-.822 1.634-1.657 0-.962-.752-1.578-1.634-1.658-1.843-.165-3.712.266-5.34 1.147-1.692.922-2.803 2.341-3.888 3.899-.98 1.405-2.163 1.79-3.83 1.71-2.038-.099-4.09-.61-6.044-1.173v3.195c4.15-1.412 5.855-5.867 9.162-8.446 3.307-2.573 7.47-3.799 11.607-3.501.882.067 1.633-.809 1.633-1.657 0-.935-.751-1.585-1.633-1.644M94.955 2.09a84.6 84.6 0 0 0 5.692 14.214c2.222 4.349 5.006 8.4 6.98 12.882 4.064 9.242 2.032 19.604-2.105 28.422-2.411 5.144-5.463 9.944-8.496 14.724-1.143 1.797 1.687 3.461 2.824 1.671 5.489-8.652 11.168-17.688 12.795-28.037.804-5.119.68-10.422-.98-15.362-1.614-4.813-4.398-9.056-6.842-13.451A79.8 79.8 0 0 1 98.111 1.2c-.614-2.029-3.764-1.16-3.156.889"/><path d="M96.863 77.809a19.3 19.3 0 0 1 6.745-5.165c2.973-1.373 6.071-1.34 9.253-1.578 5.895-.444 11.202-3.222 15.044-7.783a25 25 0 0 0 4.647-8.261c.673-2.022-2.477-2.897-3.15-.882-1.628 4.873-5.111 9.13-9.574 11.589-2.464 1.36-5.091 1.923-7.882 2.082-1.66.093-3.313.152-4.96.397-1.634.24-3.169.75-4.679 1.413a21.5 21.5 0 0 0-7.77 5.847c-.569.683-.66 1.677 0 2.347.601.59 1.751.676 2.326-.007"/><path d="M129.644 54.512c.627 6.908.666 14.519-4.019 20.114-3.967 4.734-9.901 10.37-16.586 9.335-4.111-.636-7.607-3.368-10.803-5.88-.7-.55-1.634-.69-2.313 0-.562.57-.7 1.79 0 2.346 3.3 2.593 6.705 5.251 10.789 6.405 3.895 1.1 7.875.384 11.43-1.479 3.372-1.77 6.287-4.435 8.829-7.266 2.666-2.977 4.601-6.325 5.496-10.27.987-4.362.85-8.87.444-13.292-.078-.889-.692-1.658-1.633-1.658-.824-.013-1.719.75-1.634 1.645M95.713 105.256c5.888 4.973 13.084 8.858 20.952 8.493 3.666-.172 7.287-1.28 10.325-3.401 2.732-1.909 4.98-4.435 6.705-7.299 1.935-3.21 3.242-6.823 3.928-10.509.124-.663-.026-1.32-.588-1.743-.477-.358-1.294-.53-1.817-.133-2.176 1.677-4.744 3.123-7.548 3.143-2.83.026-5.398-1.525-7.979-2.513-5.83-2.234-11.986-.577-16.671 3.401-2.516 2.135-4.503 4.88-6.117 7.757-1.04 1.856 1.784 3.534 2.823 1.671 2.666-4.767 6.561-9.11 12.038-10.323 2.784-.617 5.358-.04 7.946 1.04 2.614 1.088 5.196 2.334 8.091 2.275 3.326-.073 6.456-1.585 9.064-3.593-.797-.624-1.601-1.247-2.398-1.87-1.072 5.768-3.712 11.509-8.326 15.222-5.254 4.23-12.312 4.342-18.39 2.029-3.562-1.359-6.816-3.547-9.73-6-.68-.57-1.648-.677-2.314 0-.569.603-.673 1.783.006 2.353M95.76 126.326c2.417-.769 4.992-1.141 7.482-.504 2.418.623 4.346 2.101 5.973 3.984 3.281 3.799 5.758 8.314 10.718 10.084l.431-3.255c-4.189.411-8.417.789-12.626.424-3.771-.325-8.103-1.405-10.397-4.508-.53-.716-1.412-1.081-2.235-.597-.693.411-1.118 1.545-.588 2.268 4.613 6.238 13.22 6.59 20.252 6.192 1.869-.106 3.732-.285 5.594-.464 1.823-.179 2.229-2.612.431-3.255-3.587-1.287-5.79-4.834-8.038-7.718-1.326-1.703-2.751-3.288-4.542-4.501-1.777-1.207-3.823-1.916-5.94-2.181-2.484-.312-5.013.079-7.391.835-1.994.636-1.138 3.839.875 3.196M94.72 144.909c4.144-.298 8.307.928 11.607 3.501 3.307 2.572 5.012 7.027 9.162 8.446v-3.195c-1.915.55-3.921 1.047-5.914 1.166-1.712.1-2.948-.245-3.961-1.704-1.065-1.531-2.143-2.91-3.783-3.838-1.647-.928-3.562-1.379-5.444-1.213-.876.079-1.634.702-1.634 1.657 0 .835.752 1.737 1.634 1.657 1.627-.145 3.235.239 4.555 1.247 1.418 1.081 2.052 2.857 3.405 4.004 1.542 1.306 3.529 1.644 5.489 1.485 2.202-.179 4.405-.656 6.522-1.266 1.608-.464 1.497-2.685 0-3.195-1.843-.63-3.071-2.447-4.228-3.925-1.372-1.757-2.875-3.302-4.705-4.588-3.667-2.579-8.254-3.865-12.711-3.547-.882.066-1.634.716-1.634 1.657.007.842.758 1.717 1.64 1.651"/><path d="M95.197 75.555c-1.268 5.217-2.536 10.56-2.458 15.977.033 2.62.399 5.264 1.203 7.757.764 2.38 1.81 4.648 1.804 7.194-.007 2.499-.726 4.919-1.38 7.306-.705 2.565-1.326 5.138-1.45 7.816-.249 5.43 1.104 10.787.81 16.223-.287 5.424-1.581 10.767-1.385 16.217.163 4.555 1.19 9.056 2.92 13.26 3.563 8.651 9.745 15.878 17.339 21.162 7.979 5.556 17.318 8.93 26.761 10.846q1.782.358 3.575.657c.869.146 1.758-.232 2.012-1.161.216-.788-.267-1.896-1.143-2.042-9.254-1.544-18.416-4.309-26.513-9.195-7.574-4.575-13.953-11.025-17.913-19.061-1.863-3.779-3.163-7.929-3.6-12.132-.537-5.172.391-10.243.953-15.362.288-2.645.406-5.284.222-7.942-.182-2.679-.568-5.337-.725-8.022-.15-2.592-.013-5.118.582-7.644.568-2.4 1.352-4.747 1.81-7.18.477-2.553.562-5.119-.118-7.638-.647-2.407-1.692-4.654-2.137-7.127-.915-5.059-.006-10.31 1.105-15.262.28-1.26.581-2.513.888-3.766.49-2.075-2.66-2.957-3.162-.881M114.855 57.926a341 341 0 0 1 17.619-27.58c.516-.73.124-1.843-.589-2.268-.823-.49-1.718-.132-2.235.597a341 341 0 0 0-17.618 27.58c-1.059 1.843 1.764 3.514 2.823 1.67M79.898 56.01a340 340 0 0 1-18.174-27.202c-1.091-1.817-3.921-.153-2.823 1.67a342 342 0 0 0 18.174 27.203c.53.716 1.412 1.08 2.235.596.693-.41 1.117-1.544.588-2.267"/></g><defs><clipPath id="a"><path fill="#fff" d="M0 0h200v200H0z"/></clipPath></defs></svg>