<svg xmlns="http://www.w3.org/2000/svg" width="200" height="200" fill="none"><path fill="#000" d="M98.407 15.513v182.956c0 2.041 3.184 2.041 3.184 0V15.509c0-2.038-3.184-2.038-3.184.004"/><path fill="#000" d="M100.253 20.657c-2.835-1.496-5.013-4.087-5.963-7.143-1.198-3.855.114-7.91-.765-11.815-.212-.955-1.451-.947-1.94-.254-.725 1.04-1.455 2.076-2.181 3.116-.684.976-1.41 1.936-1.99 2.98-1.113 1.986-1.448 4.273-1.291 6.522.271 3.813 1.884 7.444 4.444 10.28a16.3 16.3 0 0 0 5.119 3.817c.518.245 1.146.144 1.452-.38.271-.461.14-1.2-.382-1.446-3.12-1.471-5.582-3.986-7.093-7.068-.71-1.45-1.201-3.056-1.376-4.662-.203-1.894-.118-3.935.769-5.66.573-1.112 1.337-2.122 2.05-3.145l2.305-3.288-1.94-.254c.739 3.301-.178 6.725.352 10.065.433 2.705 1.753 5.262 3.604 7.274a14 14 0 0 0 3.744 2.883c1.218.642 2.292-1.184 1.082-1.822"/><path fill="#000" d="M94.222 13.826c2.772-2.08 4.474-5.275 4.529-8.745l-2.084.279c.78 1.982.95 4.142.382 6.205-.578 2.084-1.847 3.868-2.072 6.057-.06.57.53 1.057 1.061 1.057.624 0 1.002-.486 1.062-1.057.102-1.006.547-1.957.959-2.866.467-1.031.925-2.067 1.172-3.174.492-2.253.33-4.637-.514-6.789-.191-.49-.607-.84-1.163-.756a1.06 1.06 0 0 0-.921 1.04C96.59 7.74 95.308 10.386 93.156 12c-.458.343-.692.913-.382 1.446.26.452.985.727 1.448.38M88.772 18.189c-4.39-2.524-6.796-7.677-6.418-12.643a11.6 11.6 0 0 1 1.014-3.965l-1.668.215a13.8 13.8 0 0 1 3.129 4.752c.208.532.713.9 1.307.74.51-.14.95-.766.743-1.303-.828-2.134-2.05-4.058-3.672-5.685-.441-.444-1.38-.414-1.668.216-2.479 5.39-1.358 11.886 2.436 16.392a14 14 0 0 0 3.732 3.11c1.18.673 2.25-1.149 1.065-1.83"/><path fill="#000" d="M80.159 4.46a6.6 6.6 0 0 1-2.797-2.892c-.208-.414-.769-.604-1.197-.486-.476.131-.743.55-.781 1.019-.336 4.235-.65 8.623.598 12.748 1.053 3.488 3.417 6.7 6.775 8.294 1.897.9 3.952 1.221 6.019.79.56-.118.887-.773.743-1.302-.162-.579-.743-.854-1.308-.74-3.035.63-5.95-1.06-7.874-3.288-2.33-2.701-3.026-6.353-3.115-9.82-.06-2.235.11-4.467.284-6.69l-1.978.532a8.54 8.54 0 0 0 3.561 3.652c1.197.66 2.271-1.167 1.07-1.818"/><path fill="#000" d="M76.059 12.27c-2.305-1.5-3.914-4.066-4.194-6.805-.106-1.014-1.38-1.47-1.978-.532-1.72 2.705-1.325 6.1-.246 8.961.581 1.543 1.324 3.018 1.969 4.531.594 1.4 1.104 2.837 1.728 4.223.615 1.374 1.37 2.684 2.38 3.813 1.058 1.183 2.386 2.117 3.753 2.916 2.81 1.645 5.85 3.027 8.974 3.965 3.56 1.07 7.292 1.463 10.972.812.565-.102.883-.786.743-1.302-.165-.592-.739-.837-1.307-.74-5.943 1.053-11.958-1.137-17.123-3.901-1.24-.664-2.488-1.374-3.55-2.304-1.048-.917-1.837-2.004-2.478-3.234-.632-1.213-1.108-2.49-1.609-3.757-.56-1.412-1.201-2.782-1.812-4.168-1.193-2.693-2.271-6.036-.552-8.75l-1.978-.533a11.69 11.69 0 0 0 5.246 8.632c1.134.744 2.2-1.086 1.061-1.826"/><path fill="#000" d="M100.466 32.818c-1.91-1.627-4.33-2.151-6.787-2.244-2.585-.098-5.293.017-7.844.46-2.45.427-4.873 1.45-6.533 3.357-.785.904-1.418 1.97-1.69 3.145-.31 1.335-.088 2.62.06 3.956.153 1.403-.03 2.63-.743 3.86-.704 1.217-1.685 2.244-2.657 3.254-.488.507-.365 1.285.217 1.661 1.876 1.217 4.079-.532 5.305-1.894 1.244-1.382 2.144-3.013 3.065-4.615.883-1.535 1.8-3.07 3.163-4.232 1.434-1.225 3.31-1.821 5.153-2.096 2.207-.33 4.478-.207 6.698-.076 1.362.08 1.358-2.033 0-2.114-3.905-.232-8.171-.367-11.694 1.62-3.345 1.885-4.729 5.422-6.724 8.479-.514.786-1.082 1.526-1.774 2.164-.463.43-1.46 1.37-2.123.942l.217 1.661c1.63-1.695 3.374-3.575 3.91-5.938.292-1.294.114-2.54-.035-3.838-.131-1.125-.148-2.224.374-3.26 2.177-4.315 7.984-4.328 12.152-4.391 2.305-.034 4.945.067 6.788 1.636.437.372 1.074.427 1.502 0 .382-.38.438-1.125 0-1.497M79.658 27.873c-2.959-1.281-5.973.49-7.853 2.781-1.69 2.058-2.878 4.806-5.45 5.935l1.286 1.66c2.479-2.726 6.333-4.129 9.992-3.474.565.102 1.142-.152 1.307-.74.14-.51-.174-1.2-.742-1.301-4.394-.787-9.046.706-12.06 4.02-.844.93.204 2.134 1.286 1.66 2.467-1.081 3.872-3.49 5.374-5.587.726-1.01 1.575-1.949 2.649-2.604.913-.558 2.093-.98 3.141-.529.526.229 1.138.157 1.452-.38.263-.444.148-1.213-.382-1.441M100.029 96.988c-1.927-.415-3.727-1.294-5.175-2.638-1.375-1.272-2.36-2.87-3.15-4.557-1.612-3.432-2.487-7.152-4.308-10.495-3.506-6.442-9.423-11.438-16.249-14.101a29.3 29.3 0 0 0-5.857-1.62 33 33 0 0 0-3.07-.354c-.691-.051-1.799-.06-2.236-.698q-.32.776-.633 1.552c5.361-1.273 11.024-.913 16.232.853a29.3 29.3 0 0 1 7.36 3.729c2.492 1.737 4.47 4.007 6.724 6.015a23.7 23.7 0 0 0 9.228 5.114c1.316.38 1.876-1.661.565-2.037a21.15 21.15 0 0 1-8.001-4.312c-2.395-2.075-4.462-4.45-7.038-6.315-4.665-3.373-10.298-5.347-16.028-5.816a31 31 0 0 0-9.606.731c-.633.148-1.019.998-.633 1.551 1.206 1.75 3.337 1.64 5.234 1.843 1.766.186 3.519.575 5.213 1.104a29.4 29.4 0 0 1 9.478 5.009c2.823 2.24 5.25 4.966 7.072 8.073 1.974 3.373 2.912 7.165 4.487 10.716.878 1.978 2.016 3.884 3.595 5.389a13.03 13.03 0 0 0 6.24 3.297c1.324.292 1.893-1.746.556-2.033M101.638 65.02c-1.316-3.433-4.674-5.331-8.18-5.927a17 17 0 0 0-2.683-.254c-1.065-.012-2.126.119-3.192.076-1.69-.072-2.95-.917-3.811-2.329-.985-1.614-1.41-3.517-1.762-5.355q-.887.513-1.774 1.027c1.18 1.298 2.504 2.506 4.024 3.398 1.545.91 3.217 1.37 5 1.505 1.596.123 3.196.013 4.792.106 1.384.08 2.806.355 3.863 1.31 1.01.913 2.513-.579 1.503-1.496-2.547-2.304-6.024-1.894-9.199-1.987-1.587-.046-3.098-.296-4.512-1.056-1.532-.825-2.806-2.004-3.969-3.28-.764-.842-1.957.067-1.774 1.026.615 3.205 1.685 7.178 4.966 8.645 2.02.904 4.156.444 6.283.524 1.617.063 3.285.384 4.754 1.073 1.57.736 2.992 1.886 3.625 3.543.203.532.713.9 1.307.74.514-.132.947-.757.739-1.29M100.967 116.385c0-1.881-1.456-3.263-3.124-3.897-1.855-.702-3.897-.262-5.79-.761-2.861-.757-5.12-3.453-5.276-6.408l-1.813.748c3.111 4.003 8.672 5.795 13.566 4.519 1.32-.347.76-2.384-.564-2.038-4.228 1.104-8.842-.549-11.504-3.973-.568-.731-1.859-.11-1.812.748.178 3.327 2.275 6.467 5.319 7.884.76.35 1.54.612 2.368.735 1.087.161 2.178.148 3.269.237 1.243.105 3.23.655 3.23 2.21.008 1.353 2.131 1.357 2.131-.004M100.809 22.55c2.454-1.293 4.504-3.343 5.824-5.773 1.486-2.727 1.821-5.635 1.698-8.695-.081-1.915-.242-3.863.183-5.753l-1.94.254c1.316 1.876 2.733 3.72 3.93 5.68 1.083 1.78 1.384 3.742 1.248 5.796-.212 3.284-1.668 6.497-3.879 8.923a14.8 14.8 0 0 1-4.64 3.428c-.518.245-.654.985-.382 1.446.31.528.934.625 1.452.38 3.43-1.614 6.244-4.497 7.886-7.896 1.745-3.61 2.475-8.192.777-11.954-.539-1.192-1.333-2.248-2.08-3.318l-2.483-3.55c-.484-.694-1.727-.702-1.94.253-.874 3.906.438 7.964-.764 11.815-.951 3.056-3.132 5.651-5.963 7.143-1.206.634-.132 2.456 1.073 1.822"/><path fill="#000" d="M106.845 12.068c-2.152-1.61-3.434-4.26-3.476-6.924a1.065 1.065 0 0 0-.922-1.04c-.56-.067-.967.254-1.163.757-.849 2.152-1.01 4.536-.513 6.789.237 1.082.679 2.088 1.133 3.094.425.934.892 1.91.998 2.946.059.566.445 1.057 1.061 1.057.526 0 1.12-.486 1.061-1.057-.225-2.194-1.494-3.973-2.071-6.057-.573-2.063-.404-4.223.382-6.206l-2.085-.279c.056 3.47 1.758 6.67 4.53 8.746.458.342 1.184.072 1.451-.38.314-.541.072-1.1-.386-1.446M112.292 20.078c5.051-2.904 7.976-8.932 7.454-14.68a14.6 14.6 0 0 0-1.287-4.823c-.288-.63-1.222-.66-1.668-.216-1.621 1.623-2.844 3.55-3.671 5.685-.208.533.229 1.159.742 1.302.599.165 1.1-.203 1.308-.74.692-1.783 1.774-3.394 3.128-4.75l-1.668-.216c2.059 4.48 1.014 10.166-2.152 13.881a12.4 12.4 0 0 1-3.256 2.727c-1.184.684-.114 2.51 1.07 1.83"/><path fill="#000" d="M120.909 6.353a8.56 8.56 0 0 0 3.561-3.652l-1.978-.532c.302 3.795.633 7.726-.322 11.463-.803 3.15-2.662 5.99-5.586 7.55-1.465.781-3.158 1.128-4.801.786-.56-.114-1.146.165-1.308.74-.144.524.179 1.183.743 1.301 3.668.761 7.276-.9 9.729-3.593 2.742-3.014 3.753-6.995 3.931-10.981.11-2.422-.072-4.849-.268-7.262-.038-.47-.305-.888-.781-1.019-.433-.118-.989.072-1.197.486a6.6 6.6 0 0 1-2.797 2.891c-1.201.647-.131 2.469 1.074 1.822"/><path fill="#000" d="M125.009 14.16c2.984-1.94 4.885-5.106 5.246-8.631l-1.978.533c1.515 2.392.841 5.317-.136 7.773-.56 1.412-1.248 2.769-1.833 4.172-.527 1.26-.981 2.553-1.55 3.791-.564 1.23-1.227 2.435-2.156 3.424-.972 1.036-2.148 1.822-3.375 2.524-2.597 1.488-5.357 2.752-8.23 3.614-3.179.955-6.55 1.395-9.844.812-.564-.102-1.142.152-1.307.74-.14.51.174 1.2.743 1.301 6.609 1.171 13.163-1.09 18.918-4.201 1.376-.744 2.717-1.569 3.889-2.608 1.163-1.032 2.075-2.308 2.78-3.682.696-1.349 1.227-2.777 1.787-4.185.586-1.475 1.282-2.904 1.902-4.362 1.362-3.2 2.245-7.034.246-10.183-.594-.938-1.872-.482-1.978.533-.28 2.739-1.889 5.305-4.194 6.805-1.142.748-.076 2.579 1.07 1.83"/><path fill="#000" d="M101.03 34.378c1.626-1.386 3.897-1.619 5.952-1.64 2.427-.025 4.979.017 7.351.55 2.034.452 4.067 1.403 5.251 3.187.599.9.883 1.864.841 2.946-.047 1.293-.404 2.57-.268 3.867.289 2.795 2.186 4.938 4.058 6.882l.217-1.661c-.578.372-1.414-.326-1.851-.698a10 10 0 0 1-1.673-1.855c-1.023-1.45-1.812-3.052-2.75-4.557-.993-1.59-2.165-3.043-3.735-4.1-1.635-1.1-3.57-1.649-5.51-1.91-2.258-.3-4.534-.22-6.796-.085-1.358.08-1.367 2.194 0 2.113 3.782-.224 8.103-.477 11.367 1.797 1.448 1.006 2.428 2.532 3.307 4.02.942 1.602 1.808 3.246 2.98 4.7 1.231 1.53 3.655 3.74 5.73 2.397.578-.377.705-1.15.217-1.662-1.571-1.631-3.438-3.533-3.468-5.947-.017-1.425.416-2.815.271-4.244a6.8 6.8 0 0 0-1.188-3.204c-3.099-4.447-9.088-4.65-14.016-4.658-2.78-.004-5.607.406-7.79 2.261-.436.372-.381 1.112 0 1.497.434.435 1.066.376 1.503.004M121.405 29.762c1.023-.444 2.173-.05 3.073.482 1.104.66 1.974 1.61 2.717 2.646 1.502 2.092 2.907 4.502 5.373 5.588 1.074.47 2.14-.723 1.287-1.661-3.014-3.314-7.662-4.802-12.06-4.02-.564.101-.883.786-.743 1.302.162.592.739.84 1.308.74 3.659-.656 7.513.748 9.992 3.474l1.286-1.661c-2.572-1.129-3.761-3.876-5.45-5.935-1.881-2.29-4.894-4.062-7.853-2.781-.526.228-.645.993-.382 1.445.318.541.925.61 1.452.38M100.529 99.093c4.143-.888 7.331-3.733 9.233-7.427 1.778-3.458 2.623-7.304 4.414-10.753 3.324-6.396 9.177-11.434 15.969-13.886a28 28 0 0 1 5.9-1.458c2.037-.267 4.487 0 5.802-1.907.382-.553 0-1.403-.632-1.55-5.586-1.324-11.512-1.045-16.966.722-2.717.883-5.336 2.118-7.713 3.699a31 31 0 0 0-3.493 2.7c-1.227 1.104-2.365 2.3-3.566 3.433-2.555 2.4-5.552 4.185-8.935 5.157-1.307.376-.751 2.418.565 2.037a23.6 23.6 0 0 0 8.281-4.307c2.394-1.923 4.347-4.328 6.8-6.188 4.368-3.31 9.712-5.36 15.175-5.855 3.111-.279 6.248-.084 9.292.639-.213-.516-.425-1.036-.633-1.552-.373.541-1.265.613-1.863.668-.947.085-1.885.157-2.827.292-1.779.253-3.532.68-5.23 1.255-3.489 1.188-6.723 2.98-9.61 5.258a31 31 0 0 0-7.224 8.15c-1.991 3.276-3.01 6.932-4.445 10.453-.772 1.898-1.753 3.77-3.183 5.263-1.532 1.598-3.502 2.654-5.662 3.12-1.346.283-.782 2.32.551 2.037M100.403 65.645c1.158-3.027 4.728-4.333 7.725-4.574 2.063-.169 4.228.355 6.231-.287 1.685-.541 2.976-1.788 3.833-3.302.976-1.724 1.465-3.69 1.838-5.621.183-.96-1.006-1.873-1.774-1.028-1.142 1.256-2.394 2.418-3.893 3.238-1.434.787-2.967 1.049-4.588 1.095-3.179.093-6.656-.317-9.198 1.987-1.015.917.492 2.41 1.502 1.496 1.036-.938 2.428-1.221 3.786-1.306 1.622-.102 3.248.013 4.869-.11 1.753-.135 3.396-.58 4.924-1.462 1.554-.897 2.899-2.122 4.1-3.441q-.887-.514-1.774-1.027c-.547 2.853-1.439 6.995-4.826 7.608-1.057.19-2.161.042-3.222.009-.874-.03-1.744.017-2.61.13-1.787.233-3.549.723-5.124 1.624-1.766 1.014-3.12 2.515-3.85 4.417-.203.533.225 1.158.743 1.302.599.152 1.104-.212 1.308-.748M101.153 116.449c0-1.552 1.987-2.105 3.23-2.211 1.091-.093 2.182-.076 3.269-.237a8.6 8.6 0 0 0 2.368-.735c3.048-1.416 5.141-4.553 5.319-7.884.047-.853-1.244-1.479-1.813-.748-2.661 3.424-7.271 5.077-11.503 3.974-1.324-.347-1.884 1.69-.564 2.037 4.894 1.277 10.454-.516 13.566-4.519q-.906-.373-1.813-.748c-.157 2.955-2.415 5.652-5.276 6.408-1.893.499-3.93.059-5.79.761-1.668.63-3.124 2.016-3.124 3.897.004 1.366 2.127 1.366 2.131.005"/></svg>