<svg width="200" height="200" viewBox="0 0 200 200" fill="none" xmlns="http://www.w3.org/2000/svg">
<path fill-rule="evenodd" clip-rule="evenodd" d="M105.64 70.3924C87.351 70.3924 72.5253 85.187 72.5253 103.437C72.5253 121.687 87.351 136.482 105.64 136.482C123.928 136.482 138.754 121.687 138.754 103.437C138.754 85.187 123.928 70.3924 105.64 70.3924ZM70.8621 103.437C70.8621 84.2704 86.4325 68.7327 105.64 68.7327C124.847 68.7327 140.417 84.2704 140.417 103.437C140.417 122.604 124.847 138.142 105.64 138.142C86.4325 138.142 70.8621 122.604 70.8621 103.437Z" fill="black"/>
<path d="M109.357 68.326C106.505 59.0648 108.288 48.6916 113.773 40.7416C115.128 38.779 116.721 36.999 118.496 35.4057C120.517 33.5924 122.733 32.024 124.904 30.4017C127.112 28.7544 129.307 27.0532 131.203 25.0408C133.045 23.0865 134.575 20.85 135.802 18.4684C138.563 13.1033 139.91 7.16574 141.186 1.31527C141.428 0.20741 139.877 -0.556056 139.286 0.514456C137.61 3.56002 135.951 6.64708 134.858 9.9582C134.313 11.6096 133.935 13.315 133.777 15.0452C133.627 16.6883 133.756 18.3024 133.993 19.9289C134.401 22.7297 135.332 25.8582 134.376 28.6424C133.369 31.5884 129.856 32.746 127.128 33.4721C123.814 34.3518 120.388 34.6339 117.003 35.136C115.394 35.3725 113.748 35.6173 112.193 36.1111C110.825 36.5467 109.486 37.2189 108.621 38.4015C107.66 39.7209 107.665 41.3723 108.313 42.8204C108.97 44.2976 110.251 45.3847 111.635 46.1647C113.037 46.949 114.567 47.4925 115.893 48.4095C116.979 49.1605 117.864 50.1937 118.538 51.3223C121.823 56.8284 119.939 63.3967 117.074 68.633C116.662 69.3841 116.23 70.1226 115.781 70.8529C115.082 71.9939 116.879 73.0396 117.577 71.8985C120.924 66.4298 123.665 59.8864 121.71 53.426C120.862 50.6211 119.178 48.061 116.692 46.4469C115.328 45.5631 113.773 45.0278 112.38 44.1938C111.257 43.5217 110.068 42.4387 109.927 41.057C109.631 38.2064 114.18 37.7002 116.093 37.3724C119.469 36.7915 122.904 36.5467 126.255 35.8206C127.96 35.4513 129.619 34.941 131.22 34.2439C132.708 33.5966 134.155 32.7294 135.166 31.439C137.145 28.9121 136.97 25.7005 136.525 22.7006C136.301 21.1944 135.993 19.7007 135.852 18.1862C135.702 16.568 135.785 14.9373 136.105 13.344C136.771 9.98725 138.243 6.86699 139.835 3.85877C140.242 3.09116 140.662 2.32769 141.078 1.56422C140.446 1.29867 139.81 1.03312 139.178 0.763415C138.035 5.9998 136.875 11.3316 134.596 16.2112C133.494 18.5679 132.139 20.8293 130.43 22.8002C128.658 24.8416 126.563 26.5677 124.413 28.1901C122.201 29.8581 119.927 31.4556 117.814 33.2481C115.848 34.9202 114.093 36.7915 112.563 38.8703C109.635 42.8412 107.615 47.505 106.633 52.3306C105.523 57.8034 105.702 63.5294 107.349 68.8737C107.744 70.1517 109.752 69.6081 109.357 68.326Z" fill="black"/>
<path d="M136.783 86.1347C137.868 81.7448 141.523 78.2262 145.889 77.1059C151.39 75.691 156.637 78.9855 161.993 79.6867C167.444 80.4004 173.29 78.7365 177.381 75.0229C179.406 73.1848 180.841 70.799 181.356 68.102C181.905 65.2224 181.598 62.3054 181.456 59.4051C181.332 56.8865 181.415 54.3969 182.396 52.036C183.253 49.9738 184.745 48.2643 186.978 47.8618C186.541 47.5299 186.101 47.1938 185.664 46.8618C185.756 49.5796 184.442 52.2932 182.23 53.9031C180.949 54.8367 179.423 55.1147 178.051 55.8492C176.525 56.6666 175.61 58.1686 174.866 59.6748C173.327 62.8033 172.471 66.1891 171.564 69.5376C170.712 72.6786 169.818 75.886 168.038 78.6452C166.521 80.9979 164.354 83.1928 161.71 84.2468C159.311 85.2011 156.745 84.9895 154.612 83.7364C152.695 82.612 151.161 80.8402 149.722 79.0851C148.226 77.2635 146.808 75.3507 145.057 73.7533C143.174 72.0396 140.953 70.8156 138.384 70.5874C134.899 70.2762 131.552 71.9442 128.7 73.7574C127.98 74.2138 127.278 74.691 126.579 75.1765C126.117 75.496 125.905 76.0852 126.205 76.5955C126.471 77.0519 127.165 77.2884 127.627 76.969C130.346 75.0852 133.415 72.94 136.82 72.6579C139.369 72.4462 141.56 73.4296 143.365 75.0188C146.953 78.1764 149.153 82.7406 153.265 85.3422C155.61 86.8235 158.446 87.3214 161.14 86.6119C164.076 85.8442 166.621 83.8443 168.5 81.5207C172.899 76.0769 173.381 68.9443 175.83 62.6208C176.396 61.1602 177.061 59.4756 178.167 58.3346C179.277 57.1894 181.028 57.0026 182.388 56.2558C185.016 54.8077 186.978 52.1024 187.552 49.1647C187.702 48.4054 187.772 47.6336 187.747 46.8618C187.722 46.144 187.107 45.7415 186.433 45.8619C181.689 46.7208 179.656 51.982 179.365 56.2433C178.999 61.5668 181.024 67.575 177.277 72.1392C173.839 76.3258 168.005 78.2096 162.712 77.6951C159.86 77.4212 157.144 76.3507 154.404 75.5914C151.681 74.8362 148.874 74.3964 146.068 74.9441C140.716 75.9939 136.097 80.2925 134.787 85.587C134.454 86.8816 136.458 87.4334 136.783 86.1347Z" fill="black"/>
<path d="M109.551 137.706C109.988 139.984 108.57 142.071 107.277 143.805C105.83 145.743 104.179 147.552 103.185 149.784C101.318 153.992 101.322 158.921 103.073 163.17C103.95 165.303 105.222 167.27 106.915 168.855C108.919 170.73 111.401 171.917 113.871 173.049C116.299 174.161 118.852 175.257 120.757 177.186C122.304 178.755 123.647 180.983 123.343 183.273C123.156 184.676 122.241 185.767 121.63 186.995C120.894 188.476 120.728 190.008 121.547 191.501C121.917 192.173 122.437 192.767 122.94 193.335C123.58 194.061 124.22 194.779 124.861 195.505C126.096 196.899 127.331 198.294 128.565 199.688C128.902 199.111 129.239 198.53 129.576 197.953C128.087 197.348 127.168 195.841 126.578 194.335C125.867 192.514 125.439 190.597 124.732 188.771C123.933 186.713 122.786 185.024 121.11 183.572C119.459 182.145 117.443 180.916 116.304 179.004C114.985 176.78 115.414 174.099 115.838 171.684C116.312 168.971 116.723 166.34 116.195 163.602C115.198 158.398 111.647 154.042 108.17 150.228C104.424 146.112 100.216 141.909 98.8399 136.337C98.5198 135.042 96.5156 135.59 96.8358 136.889C98.1165 142.079 101.696 146.216 105.218 150.071C108.669 153.851 112.445 157.805 113.884 162.855C114.624 165.452 114.395 167.971 113.929 170.593C113.455 173.278 112.89 176.17 113.913 178.804C114.798 181.082 116.632 182.601 118.486 184.087C119.372 184.8 120.262 185.522 121.019 186.377C121.663 187.107 122.146 187.962 122.536 188.85C124.245 192.75 124.462 198.099 129.023 199.949C129.443 200.119 129.983 199.837 130.195 199.472C130.437 199.057 130.341 198.563 130.033 198.215C128.936 196.974 127.838 195.738 126.74 194.497C125.73 193.356 124.599 192.252 123.701 191.016C123.385 190.584 123.098 190.103 123.044 189.559C122.985 188.974 123.227 188.402 123.489 187.891C124.091 186.734 124.877 185.676 125.218 184.394C125.863 181.95 125.044 179.377 123.609 177.373C121.996 175.12 119.78 173.597 117.322 172.377C114.844 171.149 112.216 170.17 109.917 168.606C108.096 167.369 106.649 165.676 105.617 163.738C103.613 159.967 103.26 155.34 104.765 151.34C106.603 146.444 112.661 142.951 111.547 137.138C111.443 136.586 110.778 136.274 110.266 136.411C109.701 136.59 109.447 137.154 109.551 137.706Z" fill="black"/>
<path d="M80.2919 80.1017C77.0154 76.1184 73.9052 71.8322 71.9094 67.0481C70.9614 64.7826 70.2504 62.3718 70.0009 59.9238C69.7348 57.289 70.0425 54.733 70.662 52.1688C71.3106 49.4925 72.1381 46.8453 72.3668 44.086C72.5871 41.4595 72.0757 38.8704 70.7826 36.5675C68.2878 32.1236 63.8387 29.4474 60.1797 26.0906C58.2296 24.3023 56.4375 22.2442 55.6225 19.6841C54.8658 17.3107 54.9157 14.705 56.4375 12.647C55.793 12.4727 55.1443 12.2984 54.4999 12.1242C54.7951 15.0618 55.7182 17.9041 57.2899 20.4144C58.8782 22.9538 61.1527 24.8292 63.1818 26.991C64.8824 28.8001 66.6454 31.3519 66.1422 33.9825C65.8928 35.2895 65.0778 36.331 64.2337 37.3227C63.3647 38.3434 62.4999 39.3641 61.8512 40.5425C59.2026 45.3764 59.5934 51.4551 62.2129 56.2102C64.82 60.9403 69.3481 64.3137 74.2878 66.3261C79.3772 68.4007 85.5601 69.2389 89.269 73.6827C89.6266 74.1143 90.3667 74.052 90.741 73.6827C91.1692 73.2554 91.1027 72.6496 90.741 72.2139C87.3855 68.1933 82.0799 66.8821 77.3356 65.2514C72.5414 63.6 67.9801 61.0316 65.0279 56.7952C62.1672 52.6957 61.1069 47.1191 63.2275 42.447C63.7764 41.2354 64.5248 40.1815 65.3855 39.1733C66.2587 38.1525 67.1693 37.1277 67.714 35.8829C68.899 33.1817 68.0882 30.1486 66.4998 27.7876C64.6828 25.0865 61.9427 23.2152 59.9759 20.6468C58.0965 18.1945 56.899 15.1988 56.5872 12.1283C56.4791 11.0744 55.2774 10.7549 54.6496 11.6055C53.1693 13.6054 52.8408 16.1406 53.2234 18.5472C53.6225 21.0783 54.8741 23.3355 56.5082 25.2815C59.8138 29.2191 64.5373 31.6838 67.7348 35.7252C69.2566 37.6505 70.267 39.9077 70.3502 42.3765C70.4458 45.1565 69.6308 47.8618 68.9489 50.5298C68.267 53.1978 67.7348 55.8865 67.8512 58.6541C67.9593 61.2557 68.5206 63.8324 69.4063 66.2763C71.4686 71.9566 75.0321 76.9399 78.8449 81.5747C79.2025 82.0062 79.9468 81.9439 80.3169 81.5747C80.7202 81.139 80.6495 80.5373 80.2919 80.1017Z" fill="black"/>
<path d="M71.5442 109.321C69.5816 109.283 67.5899 109.74 66.0016 110.935C64.5338 112.039 63.486 113.566 62.7417 115.229C61.1159 118.864 60.5962 122.843 59.4985 126.644C59.3696 127.092 59.2324 127.54 59.0785 127.984C59.0037 128.2 58.9288 128.412 58.8498 128.623C58.8166 128.715 58.7833 128.802 58.7459 128.889C58.7292 128.934 58.592 129.262 58.671 129.076C58.3467 129.839 57.9559 130.573 57.4735 131.25C57.4403 131.295 57.407 131.341 57.3737 131.387C57.3945 131.358 57.5026 131.225 57.382 131.374C57.2615 131.524 57.1367 131.669 57.0078 131.814C56.7625 132.084 56.5005 132.337 56.222 132.573C55.7355 132.98 55.1742 133.312 54.6003 133.573C53.4777 134.08 52.2178 134.291 50.9995 134.395C48.1846 134.631 45.3155 134.395 42.5463 135.071C40.9995 135.449 39.5193 136.117 38.3093 137.162C37.0744 138.233 36.4091 139.677 36.2511 141.287C36.1056 142.743 36.4465 144.171 36.5422 145.619C36.6295 146.901 36.4382 148.154 35.9975 149.361C35.1825 151.602 33.3696 153.573 31.1035 154.394C30.5131 154.61 29.8894 154.768 29.2615 154.834C29.5068 155.423 29.7522 156.017 29.9975 156.606C31.8852 155.042 34.4216 154.374 36.7293 153.548C39.249 152.648 41.7563 151.536 43.4237 149.357C44.3301 148.175 44.8748 146.801 45.0078 145.32C45.1367 143.913 44.8332 142.482 44.4257 141.146C43.6274 138.536 42.1679 135.897 42.3925 133.092C42.592 130.569 44.3342 128.304 46.5255 127.146C48.8083 125.943 51.4611 125.984 53.8228 127.001C59.2365 129.333 63.3488 134.748 69.7063 134.64C72.3176 134.594 74.5837 133.337 76.0265 131.175C77.3903 129.134 77.9142 126.586 78.0473 124.171C78.0806 123.586 78.0847 122.997 78.0639 122.412C78.0223 121.08 75.9433 121.076 75.9849 122.412C76.0223 123.565 75.9641 124.81 75.7895 125.856C75.6065 126.951 75.2864 128.129 74.8498 129.038C73.9184 130.976 72.3758 132.362 70.2386 132.54C67.3903 132.781 64.7375 131.474 62.4174 129.968C59.9683 128.378 57.6939 126.474 55.0078 125.271C52.4091 124.105 49.5317 123.756 46.8124 124.764C44.1139 125.764 41.9933 127.798 40.9247 130.47C39.8062 133.262 40.4341 136.075 41.4112 138.801C42.2802 141.237 43.5484 143.955 42.6461 146.54C41.8353 148.872 39.5775 150.229 37.4153 151.087C34.9954 152.05 32.4091 152.672 30.143 153.996C29.5734 154.332 29.037 154.718 28.5255 155.141C27.8603 155.693 28.38 157.004 29.2615 156.913C32.1264 156.61 34.6336 155.183 36.38 152.901C38.0058 150.78 38.854 148.004 38.5921 145.337C38.4548 143.951 38.1222 142.515 38.3467 141.121C38.5754 139.689 39.5193 138.66 40.7542 137.963C43.2241 136.569 46.1887 136.66 48.9372 136.577C51.669 136.494 54.5712 136.266 56.8872 134.656C58.7583 133.358 59.9226 131.519 60.7417 129.441C62.1721 125.818 62.6128 121.893 63.8103 118.196C63.9558 117.744 64.1138 117.296 64.2885 116.852C64.3301 116.744 64.3758 116.636 64.4174 116.528C64.4881 116.35 64.3883 116.586 64.4673 116.412C64.5671 116.188 64.6669 115.968 64.775 115.748C64.9704 115.354 65.1824 114.964 65.4195 114.59C65.5276 114.42 65.6357 114.254 65.7521 114.092C65.7854 114.043 65.9392 113.839 65.8893 113.906C65.8394 113.968 66.0265 113.736 66.0639 113.694C66.3217 113.387 66.6045 113.101 66.908 112.839C66.987 112.773 67.066 112.707 67.145 112.64C67.2365 112.566 67.1242 112.657 67.1118 112.665C67.1575 112.632 67.2074 112.595 67.2573 112.561C67.4278 112.441 67.6024 112.329 67.7854 112.225C68.2552 111.956 68.3675 111.91 68.7999 111.765C69.2407 111.62 69.6939 111.512 70.1554 111.445C69.9766 111.47 70.3051 111.429 70.355 111.425C70.4839 111.412 70.6086 111.404 70.7375 111.395C71.0036 111.383 71.2698 111.379 71.54 111.383C72.8831 111.42 72.8831 109.346 71.5442 109.321Z" fill="black"/>
<path d="M72.8325 94.9436C68.6371 91.1055 62.8824 90.2715 57.4105 90.0184C54.7369 89.8939 52.0508 89.9479 49.3814 89.728C46.9781 89.5288 44.5831 89.1097 42.2962 88.3421C40.1673 87.6284 38.109 86.5579 36.5207 84.9563C34.633 83.0518 33.8637 80.6244 33.502 78.0104C33.2816 76.4378 33.1527 74.8445 32.8034 73.2927C32.4916 71.8985 31.9635 70.55 31.2608 69.3052C29.8804 66.8572 27.8596 64.8199 25.6683 63.0896C23.4396 61.3262 21.0114 59.8739 18.6455 58.3055C16.4916 56.874 14.3045 55.2558 12.9116 53.0359C12.5748 52.5007 12.2837 51.9405 12.0633 51.3513C11.6351 51.7787 11.211 52.2019 10.7827 52.6293C11.3108 52.7496 11.6184 53.065 11.8513 53.6044C12.0883 54.1521 12.159 54.7869 12.1382 55.3927C12.0633 57.2557 11.3482 59.0939 12.0467 60.9279C13.2193 64.0191 16.8575 64.795 19.818 64.658C21.6766 64.5709 23.6309 64.2265 25.4604 64.7037C26.8741 65.073 28.001 65.9941 28.7702 67.2223C30.6745 70.2596 30.2421 73.94 29.7348 77.3092C29.2359 80.6245 28.8741 83.8567 29.5394 87.1762C30.1174 90.0557 31.477 92.8192 33.8554 94.6158C40.0259 99.2754 47.8013 94.4913 52.9406 90.62C55.8013 88.4666 58.8533 86.2135 62.3585 85.255C63.9884 84.8111 65.6974 84.7073 67.3398 85.1513C69.003 85.5994 70.4624 86.5703 71.7764 87.6575C72.4416 88.2093 73.082 88.7944 73.7223 89.3794C74.7077 90.2798 76.1797 88.8193 75.1942 87.9106C72.4791 85.4252 69.6017 83.0518 65.7639 82.807C62.0508 82.5663 58.4915 84.3214 55.4645 86.2882C52.3918 88.2882 49.6475 90.7445 46.3918 92.4706C43.502 94.0058 40.0092 95.1428 36.8034 93.9063C34.1839 92.898 32.5872 90.4624 31.8471 87.8608C31.003 84.9065 31.1486 81.8526 31.5935 78.8486C32.1465 75.135 32.8284 71.2595 31.3274 67.6704C30.6912 66.1518 29.739 64.7991 28.4001 63.8157C26.8949 62.7162 25.028 62.3801 23.1943 62.3967C21.4188 62.4091 19.6309 62.7494 17.8596 62.5419C16.6288 62.3967 15.2401 61.9735 14.4334 60.9901C13.3565 59.6748 13.9469 57.7371 14.1423 56.2101C14.3336 54.7122 14.159 53.0816 13.211 51.8492C12.7411 51.2393 12.1008 50.7995 11.3399 50.6294C10.633 50.4717 9.76397 51.119 10.0592 51.9073C12.1132 57.3802 17.6475 59.9569 22.1714 63.0772C24.4209 64.629 26.6122 66.3883 28.2837 68.5667C29.0737 69.5998 29.7681 70.7492 30.2338 71.9649C30.7868 73.413 31.0363 74.9441 31.2234 76.4752C31.5851 79.4004 31.9552 82.3505 33.7057 84.8235C35.0903 86.7861 37.0197 88.2798 39.1777 89.3172C43.8637 91.5702 49.0571 91.8856 54.1714 92.0059C59.4604 92.1304 65.3065 92.2009 69.8678 95.2465C70.4001 95.5992 70.8907 95.9975 71.3605 96.4249C72.346 97.3087 73.8221 95.8481 72.8325 94.9436Z" fill="black"/>
<path d="M137.573 117.15C139.315 116.482 141.045 117.312 142.28 118.574C143.773 120.101 144.309 122.213 144.696 124.25C145.116 126.453 145.344 128.706 146.218 130.793C146.979 132.611 148.143 134.341 149.868 135.37C151.964 136.623 154.338 136.32 156.563 135.598C157.656 135.245 158.729 134.831 159.856 134.582C160.825 134.366 161.806 134.27 162.796 134.27C167.049 134.275 170.941 136.162 173.719 139.341C175.502 141.378 176.933 143.727 178.45 145.963C180.139 148.453 181.823 150.942 183.511 153.432C183.719 152.925 183.927 152.415 184.13 151.909C182.8 152.116 181.336 152.523 180.559 153.722C179.802 154.888 180.072 156.361 181.058 157.299C183.182 159.324 186.417 158.573 188.188 156.498C189.993 154.382 190.509 151.382 189.469 148.797C188.33 145.959 185.897 143.942 183.112 142.805C179.877 141.486 176.238 141.382 172.791 141.399C169.041 141.415 165.295 141.743 161.594 142.349C158.513 142.851 154.9 144.054 151.935 142.511C149.374 141.175 147.814 138.486 146.384 136.096C144.696 133.279 143.091 130.217 142.675 126.914C142.48 125.37 142.642 123.872 142.895 122.345C143.145 120.823 143.399 119.267 143.083 117.736C142.937 117.03 142.633 116.346 142.201 115.769C141.864 115.321 141.303 115.092 140.779 115.395C140.338 115.653 140.068 116.362 140.405 116.814C141.195 117.864 141.228 119.088 141.099 120.35C140.954 121.76 140.609 123.142 140.521 124.561C140.33 127.748 141.344 130.864 142.712 133.702C143.997 136.37 145.552 139.038 147.423 141.341C149.299 143.648 151.76 145.175 154.783 145.307C156.409 145.382 158.039 145.096 159.636 144.801C161.282 144.498 162.924 144.204 164.588 144C168.01 143.577 171.461 143.407 174.904 143.498C177.927 143.577 181.116 143.88 183.785 145.424C185.827 146.606 187.769 148.693 187.922 151.15C188.051 153.187 187.033 155.556 184.991 156.291C184.143 156.593 183.128 156.432 182.484 155.793C182.234 155.544 182.143 155.324 182.197 155.108C182.301 154.706 182.642 154.469 183.041 154.303C183.556 154.091 184.13 153.996 184.679 153.913C185.324 153.813 185.648 152.901 185.299 152.39C183.764 150.129 182.23 147.863 180.7 145.602C179.286 143.515 177.922 141.374 176.392 139.37C174.937 137.465 173.278 135.748 171.203 134.507C169.365 133.411 167.29 132.681 165.174 132.382C162.949 132.067 160.683 132.171 158.513 132.781C156.396 133.378 154.085 134.677 151.839 133.992C150.064 133.453 148.883 131.752 148.18 130.129C147.303 128.1 147.107 125.843 146.7 123.694C146.226 121.192 145.432 118.686 143.532 116.885C141.823 115.267 139.332 114.254 137.02 115.142C136.496 115.341 136.135 115.839 136.293 116.42C136.434 116.926 137.049 117.354 137.573 117.15Z" fill="black"/>
<path d="M140.308 102.172C142.055 101.006 144.2 100.512 146.287 100.811C148.4 101.114 150.001 102.217 151.568 103.587C153.156 104.972 154.816 106.379 157.007 106.574C159.647 106.806 161.826 105.093 163.98 103.852C165.51 102.972 168.325 101.939 169.464 103.972C170.117 105.138 171.913 104.093 171.26 102.927C170.125 100.906 167.531 100.371 165.423 100.96C162.911 101.661 161.04 103.723 158.524 104.379C156.296 104.96 154.608 103.495 153.04 102.126C151.26 100.574 149.418 99.263 147.04 98.848C144.362 98.3833 141.539 98.8646 139.265 100.383C138.154 101.118 139.194 102.914 140.308 102.172Z" fill="black"/>
<path d="M71.8972 99.7941C68.7787 98.0638 65.1488 96.8315 61.5812 97.8232C59.864 98.3003 58.5126 99.2754 57.3068 100.558C56.234 101.699 55.1488 102.578 53.5937 102.952C52.0844 103.313 50.4503 103.134 49.0781 102.4C47.8973 101.769 46.8494 103.562 48.0303 104.192C50.7871 105.665 54.3713 105.528 56.9409 103.699C58.3089 102.728 59.2153 101.226 60.6914 100.404C62.076 99.6322 63.706 99.4289 65.2652 99.5866C67.2486 99.7858 69.128 100.628 70.8494 101.587C72.0178 102.238 73.0656 100.445 71.8972 99.7941Z" fill="black"/>
<path d="M78.1002 84.2384C77.0607 80.6452 73.7219 78.5581 70.3581 77.4253C68.5493 76.8195 66.6699 76.471 64.8612 75.8776C64.0421 75.6079 63.252 75.2386 62.62 74.6412C62.0046 74.0603 61.5473 73.359 61.1481 72.6163C60.1169 70.6993 59.3934 68.5998 58.8404 66.5003C58.4994 65.2099 56.4953 65.7576 56.8362 67.0521C57.3518 69.0106 58.0421 70.9151 58.8986 72.7491C59.672 74.4088 60.7073 76.0104 62.2998 76.9896C63.9048 77.9772 65.8633 78.305 67.6595 78.7863C69.4599 79.2718 71.2645 79.8194 72.8528 80.8153C74.3331 81.7447 75.6013 83.0766 76.0919 84.782C76.4662 86.0724 78.4703 85.5247 78.1002 84.2384Z" fill="black"/>
<path d="M97.6442 70.0438C96.401 67.8613 93.8687 66.9152 92.4675 64.853C91.0746 62.7992 90.5881 60.3303 91.0538 57.8989C91.3282 56.4674 91.7565 55.0691 91.9394 53.621C92.0933 52.3886 92.0101 51.1522 91.6608 49.9572C91.0455 47.8452 89.7856 46.0029 88.638 44.1482C87.4446 42.2146 86.3053 40.1939 86.5798 37.8828C86.6463 37.3268 86.0559 36.8455 85.5403 36.8455C84.9249 36.8455 84.5673 37.3226 84.5008 37.8828C83.9561 42.4885 87.8729 45.7622 89.3947 49.7372C89.7897 50.7704 89.9935 51.787 89.9311 52.8907C89.8521 54.3139 89.3906 55.6873 89.1037 57.0773C88.5423 59.7785 88.796 62.4672 90.085 64.9277C90.7502 66.2016 91.6858 67.3385 92.8001 68.2472C93.8687 69.1185 95.1452 69.8654 95.8438 71.0936C96.5132 72.2512 98.3095 71.2056 97.6442 70.0438Z" fill="black"/>
<path d="M83.9678 128.474C82.001 127.445 79.7723 128.744 79.0239 130.669C78.1341 132.951 79.2983 135.196 79.4646 137.478C79.5977 139.291 78.6247 141.017 76.7911 141.511C75.7225 141.801 74.579 141.523 73.4896 141.639C72.4751 141.747 71.5229 142.021 70.604 142.457C68.5582 143.424 66.9907 145.183 66.1882 147.282C65.9886 147.805 66.4085 148.419 66.9158 148.56C67.5021 148.722 67.9927 148.361 68.1965 147.834C68.7786 146.303 70.0052 145.079 71.4564 144.345C72.1507 143.992 72.9407 143.756 73.7183 143.693C74.8368 143.606 75.9511 143.797 77.0655 143.581C78.9158 143.216 80.475 141.801 81.1736 140.084C82.0301 137.976 81.2027 135.843 80.8617 133.727C80.7121 132.806 80.6455 131.611 81.2734 130.835C81.473 130.586 81.7765 130.37 82.0676 130.258C82.3919 130.134 82.6497 130.121 82.9199 130.266C84.105 130.889 85.157 129.096 83.9678 128.474Z" fill="black"/>
<path d="M123.461 132.66C124.612 133.748 124.733 135.416 124.687 136.909C124.625 138.81 124.292 140.731 124.816 142.598C125.802 146.117 129.664 147.349 131.369 150.39C132.305 152.062 132.637 153.975 132.4 155.872C132.33 156.428 132.928 156.909 133.44 156.909C134.059 156.909 134.409 156.432 134.479 155.872C134.953 152.083 133.253 148.511 130.371 146.108C129.12 145.067 127.565 144.042 126.958 142.465C126.272 140.685 126.721 138.681 126.77 136.835C126.825 134.818 126.467 132.644 124.937 131.196C123.96 130.279 122.488 131.743 123.461 132.66Z" fill="black"/>
<path d="M123.806 73.9524C123.748 72.7076 124.663 71.7409 125.694 71.1683C127.066 70.4048 128.659 70.1725 130.114 69.6206C131.486 69.1019 132.771 68.3675 133.652 67.1684C134.642 65.824 134.688 64.1228 134.567 62.5253C134.422 60.542 134.255 58.5628 134.097 56.5794C134.052 56.0193 133.652 55.5421 133.058 55.5421C132.53 55.5421 131.973 56.0193 132.018 56.5794C132.156 58.3346 132.297 60.0897 132.434 61.849C132.542 63.21 132.804 64.8572 131.923 66.0315C131.128 67.0854 129.773 67.5833 128.559 67.9526C127.025 68.4215 125.37 68.7907 124.052 69.7534C122.7 70.7409 121.644 72.2097 121.727 73.9483C121.79 75.2802 123.869 75.2885 123.806 73.9524Z" fill="black"/>
<path d="M104.749 103.421C104.425 105.105 106.371 106.354 107.818 105.429C109.248 104.512 109.236 102.483 108.571 101.109C107.88 99.6779 106.246 98.8273 104.691 99.3584C103.165 99.8771 102.101 101.304 101.726 102.836C101.356 104.35 101.552 106.076 102.45 107.379C103.327 108.653 104.712 109.437 106.246 109.591C109.373 109.91 111.273 107.113 111.83 104.4C112.454 101.371 112.487 97.6033 109.527 95.79C106.953 94.2092 103.523 94.5951 101.02 96.1137C98.4708 97.6614 96.8242 100.292 96.6371 103.267C96.4583 106.109 97.6433 109.101 99.7764 111.001C102.142 113.109 105.639 114.005 108.645 112.819C111.427 111.719 113.365 109.308 114.733 106.732C115.069 106.097 115.373 105.445 115.656 104.786C115.876 104.271 115.81 103.674 115.282 103.367C114.845 103.109 114.08 103.221 113.86 103.74C112.234 107.524 109.223 112.221 104.392 111.126C100.121 110.155 97.477 105.217 99.2109 101.138C100.005 99.2713 101.693 97.8024 103.618 97.1842C105.469 96.5909 108.105 96.6655 109.373 98.375C110.101 99.3543 110.117 100.665 110.063 101.827C110.013 102.869 109.872 103.902 109.552 104.898C109.286 105.719 108.857 106.557 108.138 107.068C107.373 107.611 106.408 107.665 105.548 107.321C103.386 106.462 102.941 103.226 104.683 101.715C105.465 101.039 106.383 101.197 106.783 102.176C106.936 102.545 107.045 103.109 106.841 103.487C106.783 103.595 106.579 103.715 106.716 103.665C106.791 103.636 106.662 103.603 106.679 103.636C106.741 103.773 106.803 103.732 106.758 103.972C106.862 103.425 106.604 102.852 106.03 102.694C105.519 102.558 104.853 102.869 104.749 103.421Z" fill="black"/>
</svg>
