<svg xmlns="http://www.w3.org/2000/svg" width="200" height="200" fill="none"><path fill="#000" fill-rule="evenodd" d="M105.64 70.392c-18.289 0-33.115 14.795-33.115 33.045s14.826 33.045 33.115 33.045c18.288 0 33.114-14.795 33.114-33.045s-14.826-33.045-33.114-33.045m-34.778 33.045c0-19.167 15.57-34.704 34.778-34.704s34.777 15.537 34.777 34.704-15.57 34.705-34.777 34.705-34.778-15.538-34.778-34.705" clip-rule="evenodd"/><path fill="#000" d="M109.357 68.326c-2.852-9.261-1.069-19.634 4.416-27.584a30.4 30.4 0 0 1 4.723-5.336c2.021-1.814 4.237-3.382 6.408-5.004 2.208-1.648 4.403-3.349 6.299-5.361 1.842-1.954 3.372-4.191 4.599-6.573 2.761-5.365 4.108-11.302 5.384-17.153.242-1.108-1.309-1.871-1.9-.8-1.676 3.045-3.335 6.132-4.428 9.443a23 23 0 0 0-1.081 5.087c-.15 1.643-.021 3.257.216 4.884.408 2.8 1.339 5.93.383 8.713-1.007 2.946-4.52 4.104-7.248 4.83-3.314.88-6.74 1.162-10.125 1.664-1.609.236-3.255.481-4.81.975-1.368.436-2.707 1.108-3.572 2.29-.961 1.32-.956 2.971-.308 4.42.657 1.477 1.938 2.564 3.322 3.344 1.402.784 2.932 1.328 4.258 2.245 1.086.75 1.971 1.784 2.645 2.912 3.285 5.506 1.401 12.075-1.464 17.311q-.619 1.126-1.293 2.22c-.699 1.14 1.098 2.187 1.796 1.046 3.347-5.47 6.088-12.013 4.133-18.473-.848-2.805-2.532-5.365-5.018-6.98-1.364-.883-2.919-1.418-4.312-2.252-1.123-.672-2.312-1.755-2.453-3.137-.296-2.85 4.253-3.357 6.166-3.685 3.376-.58 6.811-.825 10.162-1.551 1.705-.37 3.364-.88 4.965-1.577 1.488-.647 2.935-1.515 3.946-2.805 1.979-2.527 1.804-5.738 1.359-8.738-.224-1.507-.532-3-.673-4.515a16.7 16.7 0 0 1 .253-4.842c.666-3.357 2.138-6.477 3.73-9.485.407-.768.827-1.531 1.243-2.295q-.95-.396-1.9-.8c-1.143 5.236-2.303 10.568-4.582 15.447-1.102 2.357-2.457 4.618-4.166 6.59-1.772 2.04-3.867 3.767-6.017 5.39-2.212 1.667-4.486 3.265-6.599 5.057a33.2 33.2 0 0 0-5.251 5.622c-2.928 3.971-4.948 8.635-5.93 13.46-1.11 5.473-.931 11.2.716 16.544.395 1.278 2.403.734 2.008-.548M136.783 86.135c1.085-4.39 4.74-7.909 9.106-9.03 5.501-1.414 10.748 1.88 16.104 2.582 5.451.713 11.297-.95 15.388-4.664 2.025-1.838 3.46-4.224 3.975-6.921.549-2.88.242-5.797.1-8.697-.124-2.519-.041-5.008.94-7.369.857-2.062 2.349-3.772 4.582-4.174l-1.314-1c.092 2.718-1.222 5.431-3.434 7.041-1.281.934-2.807 1.212-4.179 1.946-1.526.818-2.441 2.32-3.185 3.826-1.539 3.128-2.395 6.514-3.302 9.863-.852 3.14-1.746 6.348-3.526 9.107-1.517 2.353-3.684 4.548-6.328 5.602-2.399.954-4.965.743-7.098-.51-1.917-1.125-3.451-2.897-4.89-4.652-1.496-1.822-2.914-3.734-4.665-5.332-1.883-1.713-4.104-2.937-6.673-3.166-3.485-.31-6.832 1.357-9.684 3.17-.72.457-1.422.934-2.121 1.42-.462.319-.674.908-.374 1.418.266.457.96.693 1.422.374 2.719-1.884 5.788-4.029 9.193-4.311 2.549-.212 4.74.772 6.545 2.36 3.588 3.158 5.788 7.723 9.9 10.324 2.345 1.481 5.181 1.98 7.875 1.27 2.936-.768 5.481-2.768 7.36-5.091 4.399-5.444 4.881-12.577 7.33-18.9.566-1.46 1.231-3.145 2.337-4.286 1.11-1.146 2.861-1.332 4.221-2.08 2.628-1.447 4.59-4.153 5.164-7.09.15-.76.22-1.531.195-2.303-.025-.718-.64-1.12-1.314-1-4.744.859-6.777 6.12-7.068 10.381-.366 5.324 1.659 11.332-2.088 15.896-3.438 4.187-9.272 6.07-14.565 5.556-2.852-.274-5.568-1.344-8.308-2.104-2.723-.755-5.53-1.195-8.336-.647-5.352 1.05-9.971 5.349-11.281 10.643-.333 1.295 1.671 1.846 1.996.548M109.551 137.706c.437 2.278-.981 4.365-2.274 6.099-1.447 1.938-3.098 3.747-4.092 5.979-1.867 4.208-1.863 9.137-.112 13.386.877 2.133 2.149 4.1 3.842 5.685 2.004 1.875 4.486 3.062 6.956 4.194 2.428 1.112 4.981 2.208 6.886 4.137 1.547 1.569 2.89 3.797 2.586 6.087-.187 1.403-1.102 2.494-1.713 3.722-.736 1.481-.902 3.013-.083 4.506.37.672.89 1.266 1.393 1.834.64.726 1.28 1.444 1.921 2.17l3.704 4.183 1.011-1.735c-1.489-.605-2.408-2.112-2.998-3.618-.711-1.821-1.139-3.738-1.846-5.564-.799-2.058-1.946-3.747-3.622-5.199-1.651-1.427-3.667-2.656-4.806-4.568-1.319-2.224-.89-4.905-.466-7.32.474-2.713.885-5.344.357-8.082-.997-5.204-4.548-9.56-8.025-13.374-3.746-4.116-7.954-8.319-9.33-13.891-.32-1.295-2.324-.747-2.004.552 1.28 5.19 4.86 9.327 8.382 13.182 3.451 3.78 7.227 7.734 8.666 12.784.74 2.597.511 5.116.045 7.738-.474 2.685-1.039 5.577-.016 8.211.885 2.278 2.719 3.797 4.573 5.283.886.713 1.776 1.435 2.533 2.29.644.73 1.127 1.585 1.517 2.473 1.709 3.9 1.926 9.249 6.487 11.099.42.17.96-.112 1.172-.477.242-.415.146-.909-.162-1.257-1.097-1.241-2.195-2.477-3.293-3.718-1.01-1.141-2.141-2.245-3.039-3.481-.316-.432-.603-.913-.657-1.457-.059-.585.183-1.157.445-1.668.602-1.157 1.388-2.215 1.729-3.497.645-2.444-.174-5.017-1.609-7.021-1.613-2.253-3.829-3.776-6.287-4.996-2.478-1.228-5.106-2.207-7.405-3.771-1.821-1.237-3.268-2.93-4.3-4.868-2.004-3.771-2.357-8.398-.852-12.398 1.838-4.896 7.896-8.389 6.782-14.202-.104-.552-.769-.864-1.281-.727-.565.179-.819.743-.715 1.295M80.292 80.102c-3.277-3.984-6.387-8.27-8.383-13.054-.948-2.265-1.659-4.676-1.908-7.124-.266-2.635.041-5.191.661-7.755.649-2.676 1.476-5.324 1.705-8.083.22-2.626-.291-5.216-1.584-7.518-2.495-4.444-6.944-7.12-10.603-10.477-1.95-1.789-3.742-3.847-4.557-6.407-.757-2.373-.707-4.979.815-7.037l-1.938-.523c.295 2.938 1.218 5.78 2.79 8.29 1.588 2.54 3.863 4.415 5.892 6.577 1.7 1.81 3.463 4.36 2.96 6.992-.25 1.306-1.064 2.348-1.908 3.34-.87 1.02-1.734 2.041-2.383 3.22-2.648 4.833-2.258 10.912.362 15.667 2.607 4.73 7.135 8.104 12.075 10.116 5.09 2.075 11.272 2.913 14.981 7.357.358.431 1.098.369 1.472 0 .428-.428.362-1.033 0-1.47-3.356-4.02-8.661-5.33-13.405-6.962-4.795-1.651-9.356-4.22-12.308-8.456-2.86-4.1-3.921-9.676-1.8-14.348.548-1.212 1.297-2.266 2.157-3.274.874-1.02 1.784-2.045 2.329-3.29 1.185-2.701.374-5.734-1.214-8.095-1.817-2.701-4.557-4.573-6.524-7.141a16.94 16.94 0 0 1-3.389-8.519c-.108-1.054-1.31-1.373-1.937-.523-1.48 2-1.81 4.536-1.427 6.942.4 2.531 1.651 4.788 3.285 6.735 3.306 3.937 8.03 6.402 11.227 10.443 1.522 1.925 2.532 4.183 2.615 6.651.096 2.78-.72 5.486-1.401 8.154-.682 2.668-1.214 5.356-1.098 8.124.108 2.602.67 5.178 1.555 7.622 2.063 5.68 5.626 10.664 9.439 15.299.358.431 1.102.369 1.472 0 .403-.436.333-1.038-.025-1.473M71.544 109.321c-1.962-.038-3.954.419-5.542 1.614-1.468 1.104-2.516 2.631-3.26 4.294-1.626 3.635-2.146 7.614-3.243 11.415a26 26 0 0 1-.65 1.979 5 5 0 0 1-.103.266c-.017.045-.154.373-.075.187a11.4 11.4 0 0 1-1.197 2.174l-.1.137c.02-.029.129-.162.008-.013q-.18.224-.374.44-.368.405-.786.759a7.1 7.1 0 0 1-1.622 1c-1.122.507-2.382.718-3.6.822-2.815.236-5.684 0-8.454.676-1.547.378-3.027 1.046-4.237 2.091-1.235 1.071-1.9 2.515-2.058 4.125-.145 1.456.196 2.884.291 4.332a9 9 0 0 1-.544 3.742c-.816 2.241-2.628 4.212-4.894 5.033a7.8 7.8 0 0 1-1.842.44l.735 1.772c1.888-1.564 4.425-2.232 6.732-3.058 2.52-.9 5.027-2.012 6.695-4.191a7.7 7.7 0 0 0 1.584-4.037c.129-1.407-.175-2.838-.582-4.174-.799-2.61-2.258-5.249-2.034-8.054.2-2.523 1.942-4.788 4.133-5.946 2.283-1.203 4.936-1.162 7.298-.145 5.413 2.332 9.526 7.747 15.883 7.639 2.612-.046 4.878-1.303 6.32-3.465 1.364-2.041 1.888-4.589 2.021-7.004.034-.585.038-1.174.017-1.759-.042-1.332-2.12-1.336-2.08 0 .038 1.153-.02 2.398-.194 3.444-.184 1.095-.504 2.273-.94 3.182-.932 1.938-2.474 3.324-4.611 3.502-2.849.241-5.502-1.066-7.822-2.572-2.449-1.59-4.723-3.494-7.41-4.697-2.598-1.166-5.475-1.515-8.195-.507-2.698 1-4.819 3.034-5.887 5.706-1.119 2.792-.49 5.605.486 8.331.87 2.436 2.137 5.154 1.235 7.739-.81 2.332-3.068 3.689-5.23 4.547-2.42.963-5.007 1.585-7.273 2.909-.57.336-1.106.722-1.617 1.145-.666.552-.146 1.863.736 1.772 2.864-.303 5.372-1.73 7.118-4.012 1.626-2.121 2.474-4.897 2.212-7.564-.137-1.386-.47-2.822-.245-4.216.228-1.432 1.172-2.461 2.407-3.158 2.47-1.394 5.435-1.303 8.183-1.386 2.732-.083 5.634-.311 7.95-1.921 1.871-1.298 3.036-3.137 3.855-5.215 1.43-3.623 1.87-7.548 3.068-11.245q.218-.678.478-1.344.065-.162.13-.324c.07-.178-.03.058.05-.116.1-.224.199-.444.307-.664.195-.394.407-.784.644-1.158.109-.17.217-.336.333-.498.033-.049.187-.253.137-.186-.05.062.138-.17.175-.212q.388-.461.844-.855l.237-.199c.092-.074-.02.017-.033.025q.07-.051.145-.104.254-.18.528-.336c.47-.269.583-.315 1.015-.46a8 8 0 0 1 1.355-.32c-.178.025.15-.016.2-.02q.192-.018.382-.03.4-.018.803-.012c1.343.037 1.343-2.037.004-2.062M72.833 94.944c-4.196-3.838-9.95-4.672-15.422-4.926-2.674-.124-5.36-.07-8.03-.29-2.403-.2-4.798-.618-7.085-1.386-2.129-.714-4.187-1.784-5.775-3.386-1.888-1.904-2.657-4.332-3.019-6.946-.22-1.572-.35-3.166-.699-4.717a14.6 14.6 0 0 0-1.542-3.988c-1.38-2.448-3.401-4.485-5.593-6.215-2.228-1.764-4.657-3.216-7.023-4.785-2.153-1.431-4.34-3.05-5.733-5.27a9.3 9.3 0 0 1-.849-1.684l-1.28 1.278c.528.12.835.436 1.068.975.237.548.308 1.183.287 1.789-.075 1.863-.79 3.7-.091 5.535 1.172 3.091 4.81 3.867 7.771 3.73 1.859-.087 3.813-.431 5.642.046 1.414.369 2.541 1.29 3.31 2.518 1.904 3.038 1.472 6.718.965 10.087-.5 3.316-.86 6.548-.196 9.867.578 2.88 1.938 5.643 4.316 7.44 6.17 4.66 13.946-.125 19.086-3.996 2.86-2.153 5.912-4.407 9.417-5.365 1.63-.444 3.34-.548 4.982-.104 1.663.448 3.122 1.42 4.436 2.507.666.551 1.306 1.136 1.946 1.721.986.9 2.458-.56 1.472-1.468-2.715-2.486-5.592-4.86-9.43-5.104-3.713-.24-7.272 1.514-10.3 3.481-3.072 2-5.816 4.457-9.072 6.183-2.89 1.535-6.383 2.672-9.589 1.435-2.62-1.008-4.216-3.444-4.956-6.045-.844-2.955-.698-6.008-.254-9.012.554-3.714 1.235-7.59-.266-11.179-.636-1.518-1.588-2.87-2.927-3.854-1.505-1.1-3.372-1.436-5.206-1.42-1.775.013-3.563.353-5.334.146-1.231-.145-2.62-.569-3.427-1.552-1.076-1.315-.486-3.253-.29-4.78.19-1.498.016-3.128-.932-4.36-.47-.61-1.11-1.05-1.871-1.22-.707-.158-1.576.489-1.28 1.277 2.053 5.473 7.588 8.05 12.111 11.17 2.25 1.552 4.441 3.311 6.113 5.49.79 1.033 1.484 2.182 1.95 3.398.553 1.448.802 2.98.99 4.51.361 2.925.731 5.876 2.482 8.349 1.384 1.962 3.314 3.456 5.472 4.493 4.686 2.253 9.88 2.569 14.993 2.689 5.29.124 11.136.195 15.697 3.24.532.353 1.023.752 1.493 1.179.985.884 2.461-.577 1.471-1.481M137.573 117.15c1.742-.668 3.472.162 4.707 1.424 1.493 1.527 2.029 3.639 2.416 5.676.42 2.203.648 4.456 1.522 6.543.761 1.818 1.925 3.548 3.65 4.577 2.096 1.253 4.47.95 6.695.228 1.093-.353 2.166-.767 3.293-1.016.969-.216 1.95-.312 2.94-.312 4.253.005 8.145 1.892 10.923 5.071 1.783 2.037 3.214 4.386 4.731 6.622 1.689 2.49 3.373 4.979 5.061 7.469q.313-.762.619-1.523c-1.33.207-2.794.614-3.571 1.813-.757 1.166-.487 2.639.499 3.577 2.124 2.025 5.359 1.274 7.13-.801 1.805-2.116 2.321-5.116 1.281-7.701-1.139-2.838-3.572-4.855-6.357-5.992-3.235-1.319-6.874-1.423-10.321-1.406-3.75.016-7.496.344-11.197.95-3.081.502-6.694 1.705-9.659.162-2.561-1.336-4.121-4.025-5.551-6.415-1.688-2.817-3.293-5.879-3.709-9.182-.195-1.544-.033-3.042.22-4.569.25-1.522.504-3.078.188-4.609a5 5 0 0 0-.882-1.967c-.337-.448-.898-.677-1.422-.374-.441.258-.711.967-.374 1.419.79 1.05.823 2.274.694 3.536-.145 1.41-.49 2.792-.578 4.211-.191 3.187.823 6.303 2.191 9.141 1.285 2.668 2.84 5.336 4.711 7.639 1.876 2.307 4.337 3.834 7.36 3.966 1.626.075 3.256-.211 4.853-.506 1.646-.303 3.288-.597 4.952-.801a69 69 0 0 1 10.316-.502c3.023.079 6.212.382 8.881 1.926 2.042 1.182 3.984 3.269 4.137 5.726.129 2.037-.889 4.406-2.931 5.141-.848.302-1.863.141-2.507-.498-.25-.249-.341-.469-.287-.685.104-.402.445-.639.844-.805.515-.212 1.089-.307 1.638-.39.645-.1.969-1.012.62-1.523a5414 5414 0 0 1-4.599-6.788c-1.414-2.087-2.778-4.228-4.308-6.232-1.455-1.905-3.114-3.622-5.189-4.863a16.3 16.3 0 0 0-6.029-2.125c-2.225-.315-4.491-.211-6.661.399-2.117.597-4.428 1.896-6.674 1.211-1.775-.539-2.956-2.24-3.659-3.863-.877-2.029-1.073-4.286-1.48-6.435-.474-2.502-1.268-5.008-3.168-6.809-1.709-1.618-4.2-2.631-6.512-1.743-.524.199-.885.697-.727 1.278.141.506.756.934 1.28.73M140.308 102.172a8.62 8.62 0 0 1 5.979-1.361c2.113.303 3.714 1.406 5.281 2.776 1.588 1.385 3.248 2.792 5.439 2.987 2.64.232 4.819-1.481 6.973-2.722 1.53-.88 4.345-1.913 5.484.12.653 1.166 2.449.121 1.796-1.045-1.135-2.021-3.729-2.556-5.837-1.967-2.512.701-4.383 2.763-6.899 3.419-2.228.581-3.916-.884-5.484-2.253-1.78-1.552-3.622-2.863-6-3.278-2.678-.465-5.501.017-7.775 1.535-1.111.735-.071 2.531 1.043 1.789M71.897 99.794c-3.118-1.73-6.748-2.962-10.316-1.97-1.717.476-3.068 1.451-4.274 2.734-1.073 1.141-2.158 2.02-3.713 2.394-1.51.361-3.144.182-4.516-.552-1.18-.631-2.229 1.162-1.048 1.792 2.757 1.473 6.341 1.336 8.91-.493 1.369-.971 2.275-2.473 3.751-3.295 1.385-.772 3.015-.975 4.574-.817 1.984.199 3.863 1.041 5.584 2 1.169.651 2.217-1.142 1.048-1.793M78.1 84.238c-1.04-3.593-4.378-5.68-7.742-6.813-1.809-.605-3.688-.954-5.497-1.547-.819-.27-1.609-.64-2.241-1.237-.615-.58-1.073-1.282-1.472-2.025C60.117 70.7 59.393 68.6 58.84 66.5c-.34-1.29-2.345-.742-2.004.552A34 34 0 0 0 58.9 72.75c.773 1.66 1.808 3.261 3.4 4.24 1.606.988 3.564 1.316 5.36 1.797 1.8.486 3.605 1.033 5.194 2.03 1.48.929 2.748 2.26 3.239 3.966.374 1.29 2.378.743 2.008-.544M97.644 70.044c-1.243-2.183-3.775-3.129-5.177-5.191-1.392-2.054-1.879-4.523-1.413-6.954.274-1.432.703-2.83.885-4.278a9 9 0 0 0-.278-3.664c-.615-2.112-1.875-3.954-3.023-5.809-1.193-1.933-2.333-3.954-2.058-6.265.066-.556-.524-1.038-1.04-1.038-.615 0-.973.478-1.04 1.038-.544 4.605 3.373 7.88 4.895 11.854.395 1.033.599 2.05.536 3.154-.079 1.423-.54 2.796-.827 4.186-.562 2.702-.308 5.39.981 7.85a10.7 10.7 0 0 0 2.715 3.32c1.069.871 2.345 1.618 3.044 2.847.67 1.157 2.466.112 1.8-1.05M83.968 128.474c-1.967-1.029-4.196.27-4.944 2.195-.89 2.282.274 4.527.44 6.809.134 1.813-.84 3.539-2.673 4.033-1.069.29-2.212.012-3.301.128a8.8 8.8 0 0 0-2.886.818c-2.046.967-3.613 2.726-4.416 4.825-.2.523.22 1.137.728 1.278.586.162 1.077-.199 1.28-.726.583-1.531 1.81-2.755 3.26-3.489a6.2 6.2 0 0 1 2.262-.652c1.119-.087 2.233.104 3.347-.112 1.85-.365 3.41-1.78 4.109-3.497.856-2.108.029-4.241-.312-6.357-.15-.921-.216-2.116.411-2.892.2-.249.504-.465.795-.577.324-.124.582-.137.852.008 1.185.623 2.237-1.17 1.048-1.792M123.461 132.66c1.151 1.088 1.272 2.756 1.226 4.249-.062 1.901-.395 3.822.129 5.689.986 3.519 4.848 4.751 6.553 7.792.936 1.672 1.268 3.585 1.031 5.482-.07.556.528 1.037 1.04 1.037.619 0 .969-.477 1.039-1.037.474-3.789-1.226-7.361-4.108-9.764-1.251-1.041-2.806-2.066-3.413-3.643-.686-1.78-.237-3.784-.188-5.63.055-2.017-.303-4.191-1.833-5.639-.977-.917-2.449.547-1.476 1.464M123.806 73.952c-.058-1.244.857-2.211 1.888-2.784 1.372-.763 2.965-.996 4.42-1.547 1.372-.52 2.657-1.253 3.538-2.453.99-1.344 1.036-3.045.915-4.643-.145-1.983-.312-3.962-.47-5.946-.045-.56-.445-1.037-1.039-1.037-.528 0-1.085.477-1.04 1.037.138 1.756.279 3.51.416 5.27.108 1.361.37 3.008-.511 4.182-.795 1.054-2.15 1.552-3.364 1.922-1.534.468-3.189.838-4.507 1.8-1.352.988-2.408 2.457-2.325 4.195.063 1.332 2.142 1.34 2.079.004M104.749 103.421c-.324 1.684 1.622 2.933 3.069 2.008 1.43-.917 1.418-2.946.753-4.32-.691-1.431-2.325-2.282-3.88-1.75-1.526.518-2.59 1.945-2.965 3.477-.37 1.514-.174 3.24.724 4.543.877 1.274 2.262 2.058 3.796 2.212 3.127.319 5.027-2.478 5.584-5.191.624-3.029.657-6.797-2.303-8.61-2.574-1.58-6.004-1.195-8.507.324-2.55 1.547-4.196 4.178-4.383 7.153-.179 2.842 1.006 5.834 3.14 7.734 2.365 2.108 5.862 3.004 8.868 1.818 2.782-1.1 4.72-3.511 6.088-6.087.336-.635.64-1.287.923-1.946.22-.515.154-1.112-.374-1.419-.437-.258-1.202-.146-1.422.373-1.626 3.784-4.637 8.481-9.468 7.386-4.271-.971-6.915-5.909-5.181-9.988.794-1.867 2.482-3.336 4.407-3.954 1.851-.593 4.487-.519 5.755 1.191.728.98.744 2.29.69 3.452-.05 1.042-.191 2.075-.511 3.071-.266.821-.695 1.659-1.414 2.17-.765.543-1.73.597-2.59.253-2.162-.859-2.607-4.095-.865-5.606.782-.676 1.7-.518 2.1.461.153.369.262.933.058 1.311-.058.108-.262.228-.125.178.075-.029-.054-.062-.037-.029.062.137.124.096.079.336.104-.547-.154-1.12-.728-1.278-.511-.136-1.177.175-1.281.727"/></svg>