<svg xmlns="http://www.w3.org/2000/svg" width="200" height="200" fill="none"><path fill="#000" d="M50.816 2.255c.078 4.789 2.051 9.5 5.581 12.788 3.765 3.51 8.815 4.904 13.868 5.06 5.616.171 11.15-1.162 16.659-2.037 5.534-.878 11.23-1.02 16.709.309 8.586 2.089 16.811 8.067 19.508 16.755 1.295 4.172 1.595 9.58-1.554 13.053-3.019 3.328-8.06 3.814-12.28 4.026-5.347.27-10.884-.284-15.622-2.936-3.999-2.24-7.136-5.537-10.11-8.959-5.556-6.39-12.008-13.579-21.353-12.794-9.318.781-16.013 8.597-19.343 16.743-3.846 9.403-3.796 20.497-.106 29.945 3.383 8.665 9.788 16.082 18.078 20.41 9.392 4.904 20.654 5.599 30.524 1.66 9.895-3.948 17.38-12.312 27.877-14.959 9.526-2.4 19.836.592 26.906 7.324 6.133 5.838 11.73 16.101 6.97 24.359-4.089 7.093-13.631 9.593-21.25 10.057-11.284.692-22.355-2.628-32.628-6.999-5.247-2.233-10.332-4.945-15.706-6.857-4.626-1.644-9.742-2.344-14.387-.411-7.69 3.204-11.914 11.733-12.707 19.639-.874 8.709 3.658 17.281 11.144 21.749 4.476 2.672 9.648 3.59 14.81 3.354 5.678-.262 11.272-1.962 16.98-1.616 4.327.264 8.372 2.506 9.764 6.8.702 2.158.718 4.437-.006 6.595-.687 2.046-2.095 3.55-3.549 5.085-2.975 3.139-5.463 6.542-4.339 11.076.721 2.917 5.238 1.681 4.514-1.243-.94-3.799 3.549-6.66 5.568-9.288 2.95-3.839 3.839-9.111 2.247-13.698-1.529-4.415-4.953-7.715-9.395-9.17-5.325-1.743-11.127-.545-16.505.249-5.157.76-10.682 1.112-15.564-1.046-3.764-1.662-6.904-4.49-8.892-8.089-3.805-6.894-2.435-16.086 2.519-22.096 2.469-2.995 5.837-4.904 9.782-4.829 5.428.1 10.55 2.983 15.37 5.175 10.34 4.699 20.922 8.93 32.321 10.095 9.092.928 19.321-.162 27.146-5.262 3.527-2.298 6.377-5.4 7.947-9.329 1.761-4.416 1.499-9.454.013-13.906-3.081-9.226-10.488-16.833-19.424-20.58-9.698-4.066-20.211-3.1-29.46 1.68-4.747 2.453-8.933 5.819-13.48 8.6-4.458 2.724-9.324 4.714-14.555 5.268-9.842 1.043-19.624-2.603-26.573-9.587-6.82-6.854-10.303-16.326-10.125-25.935.165-8.852 3.649-19.1 11.48-24.088 3.583-2.286 7.788-2.899 11.811-1.426 3.793 1.389 6.758 4.44 9.399 7.373 2.965 3.295 5.702 6.798 9.145 9.631 3.952 3.25 8.447 5.527 13.522 6.386 5.247.888 10.856.829 16.069-.283 4.382-.934 8.568-3.266 10.718-7.327 4.57-8.625.434-19.485-5.977-25.962-7.204-7.277-17.458-10.4-27.55-10.042-5.758.206-11.336 1.66-17.03 2.36-4.81.592-10.162.713-14.482-1.815-3.896-2.28-6.24-6.567-6.312-11.035-.05-3.002-4.731-3.011-4.685 0"/><path fill="#000" d="M51.163 5.892c.078 4.71 1.979 9.307 5.384 12.598 3.527 3.41 8.266 4.895 13.079 5.203 5.337.342 10.653-.803 15.884-1.7 5.375-.922 10.878-1.404 16.287-.44 8.699 1.555 16.999 6.677 20.792 14.869 1.779 3.842 2.612 8.803.899 12.816-1.78 4.17-6.096 5.817-10.31 6.396-5.101.697-10.497.417-15.407-1.17-4.457-1.443-8.138-4.282-11.278-7.686-5.671-6.143-10.962-13.968-19.858-15.438-9.251-1.529-17.258 4.892-21.543 12.567-4.863 8.713-5.812 19.465-3.459 29.07 2.204 9.005 7.542 17.027 15.048 22.491 7.985 5.814 18.316 8.155 28.043 6.539 10.147-1.684 17.61-8.647 26.263-13.545 8.383-4.745 18.356-5.82 27.286-1.784 8.131 3.674 14.671 11.166 16.59 19.931.877 4.011.475 7.95-2.194 11.213-2.606 3.188-6.399 5.321-10.235 6.682-10.091 3.584-21.05 2.413-31.126-.585-5.356-1.595-10.591-3.637-15.707-5.879-5.056-2.217-10.144-4.82-15.534-6.125-5.15-1.245-10.282-.669-14.483 2.715-3.571 2.877-5.869 7.134-7.389 11.381-3.068 8.569-1.145 18.381 5.622 24.652a24.67 24.67 0 0 0 13.275 6.318c5.609.784 11.09-.536 16.627-1.249 4.183-.539 9.186-.778 12.648 2.077 3.299 2.718 4.616 7.532 3.078 11.527-.799 2.077-2.36 3.681-3.886 5.244-1.658 1.7-3.063 3.419-3.943 5.642-.468 1.18.512 2.553 1.636 2.874 1.326.377 2.416-.464 2.881-1.632.821-2.074 2.79-3.534 4.242-5.15 1.585-1.766 2.896-3.718 3.67-5.972 1.499-4.366.631-9.541-2.06-13.271-2.862-3.964-7.169-5.876-11.964-6.259-5.175-.411-10.263 1.012-15.372 1.548-5.204.542-10.223-.047-14.724-2.868-3.764-2.357-6.636-5.988-7.84-10.272-1.162-4.129-.706-8.42.79-12.399 1.482-3.952 4.01-8.27 8.024-10.08 4.816-2.173 10.46.259 14.967 2.108 5.228 2.143 10.325 4.571 15.604 6.602 10.075 3.873 20.888 6.753 31.778 5.754 8.933-.819 19.103-4.191 24.231-12.078 5.05-7.769 1.757-18.169-3.246-25.116-5.544-7.694-13.871-12.913-23.317-14.202-4.819-.657-9.791-.317-14.445 1.13-4.732 1.473-8.996 4.042-13.094 6.77-4.083 2.718-8.097 5.614-12.592 7.635-4.563 2.052-9.63 2.777-14.601 2.422-9.318-.66-18.12-5.483-23.776-12.878-5.827-7.614-8.265-17.556-6.998-27.022 1.111-8.3 5.606-18.312 14.121-21.357 8.746-3.126 15.432 4.088 20.592 10.067 2.959 3.428 5.943 6.763 9.779 9.245 4.31 2.79 9.27 4.15 14.352 4.63 9.17.862 21.05-.813 24.122-11.004 2.678-8.89-2.042-18.71-8.731-24.518-7.488-6.501-17.355-9.089-27.155-8.494-5.738.349-11.303 1.865-17.009 2.432-4.572.454-9.545.37-13.578-2.105-3.745-2.298-5.97-6.536-6.04-10.877-.068-2.995-4.75-3.004-4.7.007"/><path fill="#000" d="M100.82 180.402c-.378 4.911 2.697 9.077 6.374 11.988 3.708 2.937 7.947 6.072 12.579 7.327 2.437.66 4.582.162 6.495-1.463 1.767-1.501 3.427-3.282 4.91-5.06 2.878-3.453 5.181-7.701 4.785-12.34-.225-2.622-1.186-4.895-2.937-6.866-1.892-2.127-3.74-3.886-5.069-6.458-1.38-2.671-5.422-.311-4.042 2.357 1.176 2.28 2.721 4.285 4.529 6.097 1.501 1.504 2.681 2.908 2.859 5.107.378 4.726-3.018 8.575-6.118 11.704-.737.744-1.467 1.644-2.341 2.242-.964.663-2.104.134-3.099-.246-2.254-.856-4.302-2.239-6.274-3.596-3.715-2.557-8.356-5.717-7.966-10.802.225-2.989-4.457-2.974-4.685.009"/></svg>