<svg xmlns="http://www.w3.org/2000/svg" width="200" height="200" fill="none"><path fill="#000" d="M43.686 39.606c1.755 2.442 2.405 4.95 2.47 7.945.065 2.833.78 5.405 2.926 7.36 3.965 3.581 9.85 4.167 14.888 4.884 5.396.781 10.955 1.563 15.408 4.982 4.389 3.353 7.932 7.88 13.588 9.052 2.828.586 5.916.358 8.387-1.335 2.665-1.856 4.031-4.82 4.843-7.848s-3.868-4.33-4.713-1.302c-.553 2.051-1.365 4.46-3.446 5.438-1.853.879-4.096.456-5.916-.293-4.486-1.856-7.51-6.187-11.54-8.792-4.193-2.735-9.135-3.68-13.978-4.396-4.356-.651-9.752-.814-13.49-3.387-2.373-1.628-1.918-3.874-2.146-6.414a16.9 16.9 0 0 0-3.056-8.336c-.78-1.075-2.113-1.563-3.348-.88-1.073.587-1.658 2.248-.878 3.322"/><path fill="#000" d="M59.224 61.227c4.81 6.838 13.263 10.225 21.455 8.434 3.055-.651 1.755-5.373-1.3-4.722-5.917 1.27-12.451-1.237-15.962-6.186-1.788-2.54-6.014-.098-4.193 2.474M92.706 75.522c1.983 7.131 4.03 14.392 4.193 21.882.13 7.359-2.048 14.62-.325 21.947.715 3.061 5.429 1.758 4.714-1.303-1.69-7.163.78-14.62.455-21.882-.325-7.489-2.308-14.75-4.323-21.946-.878-3.029-5.56-1.726-4.714 1.302"/><path fill="#000" d="M85.88 105.968c-1.788 1.432-3.414 3.191-3.544 5.6-.13 2.117 1.04 3.973 2.926 4.917 1.528.782 3.186.847 4.388 2.182 1.463 1.596 2.73 3.289 4.389 4.689 3.185 2.703 7.151 4.689 11.41 4.559 4.063-.131 7.769-1.922 10.109-5.275 1.788-2.605-2.438-5.048-4.226-2.475-3.445 4.982-10.564 2.637-14.27-.619-2.21-1.954-3.77-4.917-6.469-6.219-.618-.293-1.3-.521-1.95-.749-.326-.098-1.17-.228-1.366-.521-.552-.847 1.463-2.182 2.016-2.638 1.04-.846.845-2.572 0-3.451-.976-1.01-2.373-.814-3.414 0M78.826 101.604c-6.112-2.149-13.556.554-16.741 6.285-3.154 5.698-1.658 13.481 3.413 17.551 1.04.847 2.438.977 3.445 0 .878-.847 1.008-2.638 0-3.452-3.38-2.702-4.81-7.717-2.633-11.657 2.178-3.907 7.087-5.47 11.215-4.038 2.958 1.075 4.226-3.647 1.3-4.689M47.944 66.6c-6.371 1.53-11.312 7.88-10.922 14.523.455 8.075 7.151 13.253 13.263 17.486 2.6 1.791 5.038-2.442 2.47-4.233-4.486-3.094-10.142-6.969-10.825-12.895-.553-4.656 2.86-9.117 7.314-10.192 3.023-.716 1.756-5.438-1.3-4.689M106.424 135.632c-2.828.293-5.656.619-8.484.391-2.926-.228-5.299-1.401-7.64-3.126-2.437-1.824-4.745-3.615-7.671-4.624-2.698-.912-5.916-1.205-8.68-.423-6.143 1.725-7.086 8.889-3.445 13.513 1.788 2.247 4.29 3.679 6.859 4.852 2.925 1.367 5.916 2.637 8.972 3.712 6.826 2.409 14.14 3.647 21.292 1.953 3.055-.716 1.755-5.437-1.3-4.721-5.299 1.237-10.695.521-15.831-1.01a72 72 0 0 1-7.672-2.8c-2.275-.977-4.648-1.921-6.696-3.321-1.626-1.14-3.154-2.931-2.959-5.047.195-2.182 2.373-2.638 4.194-2.638 5.493-.032 8.582 4.07 13.035 6.48 4.941 2.703 10.63 2.279 16.059 1.726 1.3-.13 2.438-1.01 2.438-2.442-.033-1.27-1.171-2.638-2.471-2.475M59.517 140.614c.812 4.526 3.478 8.368 7.281 10.941 2.6 1.758 5.039-2.475 2.47-4.233-2.762-1.856-4.453-4.754-5.038-8.011-.553-3.06-5.266-1.758-4.713 1.303M87.505 179.07c3.283 8.466 7.802 18.625 17.749 20.644 8.582 1.726 16.708-4.591 18.659-12.862.715-3.061-3.999-4.363-4.714-1.302-1.398 5.991-7.281 11.006-13.588 9.215-7.541-2.117-10.825-10.42-13.393-16.998-.487-1.237-1.625-2.084-2.99-1.693-1.203.326-2.21 1.758-1.723 2.996M151.121 37.131c-1.495 2.117-2.536 4.559-2.893 7.131-.325 2.182.325 4.917-1.235 6.708-1.301 1.466-3.381 2.15-5.202 2.638-2.438.651-4.941 1.01-7.444 1.367-4.876.717-9.817 1.4-14.238 3.712s-7.379 6.48-11.637 8.955c-1.918 1.14-4.454 2.019-6.664 1.368-2.568-.75-3.543-3.387-4.194-5.731-.812-3.029-5.526-1.759-4.713 1.302 1.463 5.34 5.071 9.867 11.085 9.476 5.819-.358 9.882-4.33 14.043-7.945 2.048-1.791 4.258-3.29 6.826-4.233 2.601-.912 5.331-1.4 8.062-1.824 5.104-.781 11.02-1.042 15.473-4.005 2.503-1.66 4.096-4.005 4.421-7.033.195-1.726 0-3.42.423-5.113.39-1.595 1.138-2.996 2.113-4.33 1.788-2.54-2.438-4.982-4.226-2.443"/><path fill="#000" d="M135.55 58.753c-3.51 4.982-10.044 7.489-15.961 6.186-3.055-.65-4.356 4.038-1.3 4.722 8.192 1.758 16.644-1.596 21.455-8.434 1.82-2.572-2.406-5.014-4.194-2.474M101.613 74.22c-1.983 7.163-3.966 14.457-4.324 21.946-.325 7.262 2.146 14.719.456 21.882-.716 3.061 3.965 4.364 4.713 1.303 1.723-7.327-.455-14.588-.325-21.947.13-7.457 2.21-14.718 4.193-21.882.813-3.028-3.9-4.33-4.713-1.303"/><path fill="#000" d="M109.642 109.419c.455.359 2.568 1.824 2.081 2.605-.39.652-2.503.912-3.186 1.238-2.796 1.27-4.388 4.33-6.631 6.317-3.674 3.256-10.825 5.6-14.27.618-1.789-2.572-6.015-.13-4.227 2.475 2.308 3.354 6.046 5.178 10.11 5.275 4.29.13 8.224-1.856 11.41-4.558 1.658-1.401 2.925-3.094 4.388-4.689 1.203-1.335 2.828-1.401 4.389-2.182 1.788-.912 2.958-2.67 2.925-4.689-.032-2.507-1.723-4.363-3.575-5.829-1.041-.846-2.439-1.009-3.446 0-.813.814-.975 2.605.032 3.419M121.475 106.326c4.128-1.433 9.037.098 11.215 4.038s.715 8.922-2.633 11.657c-1.04.846-.845 2.572 0 3.451 1.008 1.042 2.438.814 3.446 0 5.071-4.102 6.566-11.852 3.413-17.551-3.153-5.731-10.63-8.4-16.741-6.284-2.926 1.009-1.658 5.731 1.3 4.689M149.756 71.322c4.453 1.074 7.867 5.535 7.314 10.191-.683 5.927-6.339 9.802-10.825 12.895-2.568 1.791-.13 6.024 2.471 4.233 6.111-4.233 12.807-9.41 13.263-17.486.39-6.642-4.551-12.96-10.923-14.522-3.055-.75-4.356 3.94-1.3 4.689M107.432 140.288c4.031-1.367 6.859-4.428 10.499-6.48 2.308-1.302 5.949-2.246 8.517-1.107 3.381 1.531.455 5.764-1.397 7.164-3.739 2.833-8.712 4.461-13.101 5.829-5.591 1.758-11.41 2.8-17.196 1.432-3.056-.716-4.356 3.973-1.3 4.722 6.241 1.465 12.58.716 18.659-1.075 5.461-1.628 11.605-3.679 16.123-7.261 3.771-2.963 6.307-8.499 3.121-12.862-2.568-3.549-7.542-3.68-11.443-2.8-2.438.553-4.648 1.693-6.664 3.158-2.275 1.628-4.42 3.647-7.119 4.526-2.958 1.042-1.69 5.764 1.301 4.754M136.07 137.879c-.39 3.256-2.34 6.252-5.038 8.043-2.601 1.758-.163 5.991 2.47 4.233 4.259-2.866 6.827-7.197 7.444-12.276.163-1.303-1.235-2.442-2.438-2.442-1.43 0-2.275 1.139-2.438 2.442M107.594 177.767c-2.568 6.578-5.851 14.881-13.393 16.998-6.339 1.791-12.19-3.224-13.588-9.215-.715-3.061-5.428-1.759-4.713 1.302 1.918 8.271 10.077 14.588 18.659 12.862 9.947-2.019 14.433-12.178 17.749-20.644.487-1.238-.521-2.67-1.691-2.996-1.398-.423-2.568.456-3.023 1.693M101.19 3.071c.813 4.982-3.9 8.825-7.704 10.941-4.323 2.41-9.427 3.875-12.84 7.62-1.56 1.726-2.73 3.875-2.763 6.252-.033 2.41 1.138 4.46 2.405 6.414 1.236 1.922 2.146 3.647 1.3 5.96-.877 2.409-2.86 4.395-4.648 6.153-2.243 2.215 1.203 5.666 3.446 3.452 3.738-3.712 7.867-8.824 5.981-14.457-.78-2.312-2.698-4.038-3.446-6.35-.682-2.15.91-3.973 2.47-5.21 2.081-1.66 4.65-2.703 7.022-3.842 2.568-1.238 5.071-2.54 7.314-4.299 4.324-3.354 7.087-8.4 6.177-13.936-.52-3.094-5.201-1.791-4.714 1.302"/><path fill="#000" d="M100.41 123.714c3.153 0 3.153-4.884 0-4.884s-3.153 4.884 0 4.884"/></svg>