<svg xmlns="http://www.w3.org/2000/svg" width="200" height="200" fill="none"><path fill="url(#a)" d="M91.666 61.828c-.775-6.246-1.522-12.762.556-18.701 2.14-6.118 7.019-10.856 9.925-16.648 3.035-6.049 3.782-12.956 4.482-19.692a58.9 58.9 0 0 1-6.676 22.64c-1.506 2.828-3.247 5.538-4.484 8.491-3.2 7.633-2.819 16.234-2.385 24.506"/><path fill="url(#b)" d="M92.446 61.828c-.49-3.97-.975-7.977-.728-11.982.122-1.975.44-3.938 1.032-5.829.528-1.684 1.284-3.277 2.159-4.807 1.8-3.139 4.057-5.98 6.003-9.024a35.4 35.4 0 0 0 4.488-10.36c1.091-4.268 1.553-8.668 2.006-13.042h-1.562a58.05 58.05 0 0 1-6.175 21.492c-1.775 3.452-3.938 6.701-5.322 10.348-1.335 3.521-1.957 7.278-2.2 11.025-.279 4.255-.072 8.523.153 12.772.053 1.003 1.615 1.01 1.562 0-.39-7.441-.79-15.155 1.616-22.323 1.228-3.663 3.344-6.893 5.15-10.28a59.5 59.5 0 0 0 4.356-10.488 60 60 0 0 0 2.426-12.546c.037-.423-.385-.784-.782-.784-.459 0-.737.36-.781.784-.4 3.844-.809 7.698-1.672 11.47-.844 3.697-2.172 7.194-4.159 10.426-1.894 3.083-4.157 5.918-6.029 9.016-.934 1.546-1.756 3.16-2.384 4.854-.694 1.866-1.097 3.819-1.316 5.794-.5 4.49.047 9.019.6 13.478.053.42.322.784.781.784.378.006.832-.358.778-.778"/><path fill="url(#c)" d="M80.709 64.688c-.26-1.5-1.35-2.694-2.344-3.845-7.685-8.908-11.92-20.736-11.638-32.51"/><path fill="url(#d)" d="M81.462 64.48c-.247-1.313-1.038-2.407-1.879-3.414-.818-.975-1.656-1.928-2.425-2.948a48 48 0 0 1-4.147-6.534 48.4 48.4 0 0 1-4.897-14.569 46.7 46.7 0 0 1-.61-8.683c.023-1.01-1.54-1.01-1.562 0a49 49 0 0 0 2.182 15.5c1.547 4.999 3.875 9.771 6.912 14.03a49 49 0 0 0 2.775 3.536c.9 1.045 1.879 2.098 2.144 3.5.079.417.579.652.963.549.434-.123.622-.55.544-.966"/><path fill="url(#e)" d="M103.496 64.688c-1.59-5.212.944-10.812 4.235-15.15 3.291-4.336 7.428-8.102 9.822-12.996 1.463-2.989 2.207-6.272 2.935-9.52"/><path fill="url(#f)" d="M104.25 64.48c-1.556-5.21 1.128-10.589 4.238-14.65 3.3-4.308 7.422-8.064 9.806-13.022 1.456-3.029 2.216-6.315 2.95-9.58.222-.98-1.284-1.401-1.506-.416-.65 2.888-1.291 5.829-2.491 8.547-1.119 2.534-2.728 4.795-4.478 6.927-1.747 2.13-3.616 4.155-5.303 6.331-1.725 2.227-3.213 4.625-4.194 7.278-1.063 2.872-1.41 6.036-.525 9 .284.966 1.79.555 1.503-.414"/><path fill="url(#g)" d="M61.582 79.758c-.66-.01-1.315-.07-1.922-.292l-1.297.15c2.382.383 4.72.945 6.988 1.738z"/><path fill="url(#h)" d="M61.583 78.974c-.522-.01-1.032-.047-1.532-.2-.534-.167-1.14-.004-1.69.059-.388.044-.72.263-.77.68-.04.352.173.797.56.86 2.372.385 4.716.947 6.988 1.737.4.138.853-.157.963-.549.125-.452-.157-.8-.547-.966q-1.885-.797-3.77-1.593c-.387-.163-.859.176-.962.55-.125.45.157.799.547.965l3.769 1.593.416-1.512c-2.275-.787-4.616-1.348-6.988-1.737l-.206 1.54.778-.091c.297-.035.453-.028.744.044.553.135 1.128.178 1.697.188 1.009.019 1.009-1.55.003-1.568"/><path fill="url(#i)" d="M34.598 79.658Q17.677 81.104.761 82.552c7.65 2.75 16.06 1.856 24.135.925q16.734-1.93 33.467-3.86c-7.716-1.245-15.897-.63-23.766.04"/><path fill="url(#j)" d="M34.597 78.874q-13.193 1.13-26.385 2.254l-7.45.637c-.882.075-1.06 1.235-.207 1.54 6.885 2.455 14.335 2.038 21.48 1.272 7.724-.827 15.44-1.771 23.156-2.662q6.585-.76 13.17-1.517c.387-.044.719-.264.769-.68.04-.352-.172-.8-.56-.86-6.175-.988-12.447-.84-18.663-.408-1.772.126-3.541.273-5.31.424-.422.034-.781.335-.781.784 0 .395.36.821.781.784 6.135-.524 12.304-1.01 18.46-.624 1.707.106 3.407.282 5.097.551l.207-1.54-23.242 2.682c-3.86.445-7.722.897-11.582 1.336-3.584.404-7.184.762-10.797.762-3.997.003-7.99-.468-11.772-1.816l-.207 1.54q13.194-1.13 26.386-2.255l7.45-.636c.422-.035.782-.336.782-.784 0-.395-.36-.819-.782-.784"/><path fill="url(#k)" d="m65.352 81.354 4.168 1.765a34 34 0 0 0-4.168-1.765"/><path fill="url(#l)" d="m65.143 82.11 3.65 1.542.518.22c.357.15.788-.135.922-.455.144-.338.029-.803-.318-.978a36.5 36.5 0 0 0-4.357-1.844c-.387-.135-.872.154-.962.549-.097.439.134.818.547.966a38 38 0 0 1 2.068.793c-.118-.05.085.034.107.047q.146.062.29.129.256.112.51.228.507.236 1.006.486.3-.716.603-1.433l-3.65-1.542-.519-.22c-.378-.16-.875.173-.962.549-.103.458.144.79.547.963"/><path fill="url(#m)" d="M118.52 85.98c3.356-2.845 7.547-4.51 11.775-5.714 22.257-6.331 45.883-.897 68.95.903-10.885-2.48-22.211-.627-33.336.26-12.482.997-25.023.762-37.542.527"/><path fill="url(#n)" d="M119.072 86.534c3.828-3.22 8.713-4.86 13.488-6.061 5.182-1.305 10.491-2 15.819-2.27 5.385-.27 10.785-.113 16.16.257 5.469.376 10.923.975 16.37 1.596 5.422.618 10.841 1.26 16.276 1.73q1.026.09 2.053.17c.878.069 1.062-1.345.206-1.54-8.947-2.022-18.154-1.2-27.192-.341-4.622.438-9.241.83-13.881 1.034-4.704.207-9.413.276-14.12.27-5.3-.006-10.597-.107-15.894-.204-1.007-.019-1.007 1.55 0 1.568 9.363.176 18.729.351 28.092.013 4.656-.17 9.3-.499 13.941-.938 4.522-.427 9.044-.894 13.585-1.05 5.044-.176 10.116.043 15.05 1.16l.207-1.54c-5.51-.433-11.004-1.06-16.495-1.69-5.503-.63-11.007-1.257-16.529-1.684-5.456-.42-10.935-.64-16.407-.439-5.415.198-10.831.81-16.119 2.016-4.941 1.126-10.029 2.669-14.204 5.65a24 24 0 0 0-1.525 1.186c-.325.273-.281.828 0 1.11.335.317.794.27 1.119-.003"/><path fill="url(#o)" d="M78.23 104.505c-1.56 3.208-5.226 4.726-7.682 7.306-5.663 5.955-3.785 15.908-7.738 23.117-1.484 2.706-3.737 4.907-6.116 6.867"/><path fill="url(#p)" d="M77.555 104.107c-1.272 2.565-3.897 4.02-6.038 5.763-2.222 1.806-3.763 4.105-4.744 6.789-1.931 5.29-1.71 11.147-3.903 16.359-1.41 3.352-3.966 5.942-6.725 8.218-.326.27-.279.831 0 1.11.321.323.778.27 1.106 0 2.531-2.088 4.934-4.465 6.447-7.422 1.312-2.558 1.962-5.381 2.472-8.193.966-5.356 1.469-11.361 5.797-15.199 2.394-2.123 5.46-3.653 6.94-6.635.442-.897-.905-1.693-1.352-.79"/><path fill="url(#q)" d="M110.122 108.095c6.2 5.977 8.141 15.089 8.941 23.681.3 3.217.488 6.472 1.344 9.586.856 3.117 2.459 6.14 5.063 8.043"/><path fill="url(#r)" d="M109.569 108.65c4.044 3.923 6.219 9.244 7.434 14.666.622 2.766 1.007 5.578 1.272 8.401.322 3.421.507 6.901 1.478 10.216.935 3.179 2.629 6.158 5.319 8.152.341.251.872.057 1.069-.282.231-.398.06-.821-.281-1.072-2.241-1.659-3.669-4.233-4.491-6.858-1.009-3.22-1.203-6.607-1.512-9.946-.525-5.682-1.476-11.417-3.844-16.645-1.3-2.875-3.075-5.537-5.341-7.739-.722-.705-1.828.402-1.103 1.107"/><path fill="url(#s)" d="M95.31 108.095c2.14 14.951-7.723 28.855-10.073 43.771-1.4 8.887-.037 18.194 3.857 26.3 2.462 5.13 5.9 9.777 7.956 15.082a50.3 50.3 0 0 1-7.65-26.079c-.047-4.487.51-8.956 1.066-13.409l3.703-29.648"/><path fill="url(#t)" d="M94.556 108.302c.775 5.503-.179 11.053-1.707 16.343-1.584 5.488-3.762 10.778-5.569 16.19-1.85 5.531-3.244 11.207-3.353 17.068a45.8 45.8 0 0 0 3.14 17.553c1.107 2.81 2.52 5.459 4.026 8.072 1.51 2.615 3.078 5.205 4.356 7.949q.456.976.85 1.981.714-.3 1.429-.605c-4.504-7.196-7.129-15.547-7.5-24.038-.207-4.732.324-9.448.909-14.136q.896-7.196 1.797-14.396 1.01-8.085 2.019-16.171c.053-.42-.397-.784-.782-.784-.466 0-.728.361-.781.784l-3.638 29.143c-.593 4.764-1.219 9.552-1.122 14.365a51 51 0 0 0 1.888 12.753 51 51 0 0 0 5.863 13.273c.447.715 1.765.261 1.428-.605-2.206-5.647-5.879-10.529-8.391-16.023-2.46-5.384-3.782-11.301-3.92-17.218-.068-2.942.151-5.889.676-8.783.512-2.819 1.272-5.585 2.144-8.313 1.74-5.447 3.928-10.737 5.616-16.199 1.644-5.321 2.806-10.903 2.375-16.497a35 35 0 0 0-.238-2.12c-.06-.42-.59-.649-.962-.549-.46.123-.613.543-.553.963"/><path fill="url(#u)" d="M92.99 104.505c10.595 0 19.183-8.617 19.183-19.247S103.585 66.01 92.991 66.01s-19.182 8.617-19.182 19.247 8.588 19.247 19.182 19.247"/><path fill="url(#v)" fill-rule="evenodd" d="M91.05 65.478a20 20 0 0 1 3.882 0 .627.627 0 0 1-.121 1.249 18.7 18.7 0 0 0-3.64 0 .627.627 0 0 1-.121-1.248m6.913 1.175c.1-.331.449-.519.779-.418 1.253.38 2.453.883 3.588 1.492a.63.63 0 0 1 .256.85.625.625 0 0 1-.847.256 18.4 18.4 0 0 0-3.36-1.398.63.63 0 0 1-.416-.782m-9.944 0a.63.63 0 0 1-.417.782 18.4 18.4 0 0 0-3.36 1.398.624.624 0 0 1-.846-.257.63.63 0 0 1 .256-.849 19.7 19.7 0 0 1 3.587-1.492c.33-.1.68.087.78.418m16.658 3.328a.624.624 0 0 1 .88-.086 20 20 0 0 1 2.745 2.754.63.63 0 0 1-.086.883.624.624 0 0 1-.88-.086 18.7 18.7 0 0 0-2.573-2.582.63.63 0 0 1-.086-.883m-23.373 0c.22.268.181.663-.086.883-.939.774-1.801 1.64-2.573 2.582a.624.624 0 0 1-.88.086.63.63 0 0 1-.086-.882 20 20 0 0 1 2.746-2.755.624.624 0 0 1 .88.086m28.312 5.65a.624.624 0 0 1 .846.256 19.8 19.8 0 0 1 1.488 3.6.625.625 0 1 1-1.197.364 18.5 18.5 0 0 0-1.393-3.372.63.63 0 0 1 .256-.849m-33.25 0a.63.63 0 0 1 .255.848 18.5 18.5 0 0 0-1.393 3.372.625.625 0 1 1-1.196-.364c.38-1.257.88-2.462 1.487-3.6a.624.624 0 0 1 .846-.257m-2.406 7.115c.344.034.595.34.562.685a19 19 0 0 0 0 3.653.625.625 0 1 1-1.244.121 20 20 0 0 1 0-3.895.626.626 0 0 1 .682-.564m38.061 0a.626.626 0 0 1 .683.564 20.2 20.2 0 0 1 0 3.896.626.626 0 1 1-1.244-.122 19 19 0 0 0 0-3.653.626.626 0 0 1 .561-.685m-37.572 7.5c.33-.1.679.088.779.419a18.5 18.5 0 0 0 1.393 3.371.63.63 0 0 1-.256.85.624.624 0 0 1-.846-.257 19.8 19.8 0 0 1-1.487-3.6.627.627 0 0 1 .417-.782m37.084 0c.33.101.517.451.417.783a19.8 19.8 0 0 1-1.488 3.6.624.624 0 0 1-.846.256.63.63 0 0 1-.256-.849 18.5 18.5 0 0 0 1.393-3.371.625.625 0 0 1 .78-.418m-3.317 6.738c.267.22.305.615.086.882a20 20 0 0 1-2.745 2.755.624.624 0 0 1-.88-.086.63.63 0 0 1 .086-.883 18.7 18.7 0 0 0 2.573-2.582.624.624 0 0 1 .88-.086m-30.45 0a.624.624 0 0 1 .88.086 18.7 18.7 0 0 0 2.572 2.582c.267.22.306.615.086.883a.624.624 0 0 1-.88.086 20 20 0 0 1-2.745-2.755.63.63 0 0 1 .086-.882m24.82 4.955a.63.63 0 0 1-.256.849 19.7 19.7 0 0 1-3.588 1.493.627.627 0 0 1-.362-1.2 18.4 18.4 0 0 0 3.359-1.398.624.624 0 0 1 .847.256m-19.19 0a.624.624 0 0 1 .846-.256 18.4 18.4 0 0 0 3.36 1.398.627.627 0 0 1-.363 1.2 19.6 19.6 0 0 1-3.587-1.493.63.63 0 0 1-.256-.849m7.092 2.414a.626.626 0 0 1 .682-.564 18.6 18.6 0 0 0 3.641 0 .627.627 0 0 1 .121 1.249 20 20 0 0 1-3.883 0 .627.627 0 0 1-.561-.685" clip-rule="evenodd"/><path fill="url(#w)" d="M71.12 92.545c-4.562-.564-9.343 1.104-12.575 4.387-1.675 1.703-2.922 3.772-4.425 5.629a25.6 25.6 0 0 1-6.76 5.854q4.437-3.089 8.873-6.177c1.078-.75 2.178-1.524 2.934-2.6 1.166-1.659 1.65-4.12 3.581-4.722"/><path fill="url(#x)" d="M71.12 91.762c-3.752-.449-7.675.548-10.797 2.68-1.668 1.142-3.012 2.584-4.234 4.187-1.26 1.655-2.413 3.377-3.85 4.888a25 25 0 0 1-5.272 4.218l.787 1.354c2.619-1.825 5.241-3.646 7.86-5.471 1.175-.819 2.428-1.596 3.434-2.628.847-.866 1.37-1.91 1.907-2.979.465-.925 1-2.013 2.003-2.346.95-.313.544-1.828-.416-1.511-2.325.768-2.781 3.29-4.05 5.083-.772 1.091-1.96 1.834-3.034 2.584q-1.998 1.39-3.994 2.781l-4.5 3.133c-.816.567-.088 1.878.787 1.354a26.8 26.8 0 0 0 4.835-3.7c1.472-1.423 2.703-3.038 3.906-4.694 1.153-1.583 2.344-3.139 3.885-4.365a14.4 14.4 0 0 1 4.747-2.47 14.6 14.6 0 0 1 5.994-.534c.418.05.78-.395.78-.784.004-.46-.355-.73-.777-.78"/><path fill="url(#y)" d="M114.86 71.605c1.766-6.767 7.682-12.254 14.545-13.49 1.328-.238 2.875-.451 3.562-1.614-4.309 5.205-12.978 5.61-16.375 11.454"/><path fill="url(#z)" d="M115.613 71.815c1.647-6.224 6.866-11.285 13.113-12.756 1.754-.414 3.847-.451 4.913-2.157.463-.74-.65-1.64-1.228-.95-3.478 4.157-9.263 5.054-13.447 8.256-1.216.931-2.272 2.029-3.054 3.355-.512.872.838 1.659 1.35.79 1.297-2.204 3.447-3.606 5.676-4.757 2.375-1.226 4.884-2.2 7.15-3.634 1.269-.803 2.462-1.75 3.428-2.904l-1.228-.95c-.369.59-1.053.819-1.7.979-.791.197-1.6.291-2.391.486a18.7 18.7 0 0 0-4.634 1.825 20.1 20.1 0 0 0-7.226 6.857 18.6 18.6 0 0 0-2.234 5.146c-.253.972 1.253 1.39 1.512.414"/><path fill="url(#A)" d="M71.121 70.711q-5.8.198-11.604.123c-1.303-.016-2.619-.044-3.881-.367-1.934-.49-3.638-1.64-5.147-2.948-1.89-1.637-3.653-3.854-3.447-6.35a29 29 0 0 0 8.863 5.858c4.325 1.825 9.013 2.565 13.65 3.292"/><path fill="url(#B)" d="M71.12 69.928c-4.034.134-8.075.19-12.113.112-1.8-.034-3.518-.241-5.134-1.094-1.5-.79-2.872-1.885-4.028-3.123-1.188-1.273-2.15-2.85-2.029-4.653l-1.334.555a29.9 29.9 0 0 0 7.728 5.396c3.022 1.455 6.26 2.355 9.541 3.001 1.854.367 3.722.659 5.591.953.416.066.84-.106.963-.549.103-.373-.125-.9-.547-.965-3.25-.508-6.513-1.023-9.685-1.916-3.01-.85-5.866-2.089-8.478-3.813a28 28 0 0 1-4.004-3.218c-.509-.492-1.287-.115-1.334.556-.253 3.693 3.025 6.735 5.853 8.56 1.688 1.088 3.526 1.68 5.522 1.822 2.063.147 4.15.09 6.216.081a256 256 0 0 0 7.273-.14c1.003-.029 1.009-1.597 0-1.565"/><path fill="url(#C)" d="M115.1 98.698c6.05-.775 11.857 2.323 17.123 5.409 3.818 2.238 7.831 4.775 9.628 8.83q-6.583-4.08-13.166-8.159c-.95-.59-1.906-1.183-2.941-1.603-1.875-.765-3.928-.937-5.891-1.433-1.962-.492-3.969-1.417-4.994-3.17"/><path fill="url(#D)" d="M115.101 99.482c4.306-.53 8.472.915 12.269 2.834 1.875.947 3.7 2.004 5.503 3.086 1.582.95 3.147 1.95 4.554 3.148 1.565 1.333 2.9 2.891 3.75 4.782l1.069-1.072q-5.533-3.427-11.06-6.855c-1.775-1.101-3.532-2.349-5.497-3.089-1.869-.702-3.879-.865-5.797-1.373-1.679-.442-3.426-1.217-4.357-2.766-.519-.862-1.872-.075-1.35.79.928 1.543 2.456 2.503 4.106 3.114 1.819.674 3.769.844 5.638 1.326 2.047.53 3.766 1.678 5.544 2.779q2.8 1.734 5.597 3.468 3.192 1.978 6.388 3.957c.294.182.706.119.947-.122.262-.264.266-.631.122-.95-1.635-3.628-4.947-6.087-8.238-8.112-3.706-2.28-7.585-4.54-11.776-5.786-2.396-.712-4.922-1.038-7.412-.734-.419.05-.782.323-.782.784 0 .39.36.84.782.79"/><defs><radialGradient id="a" cx="0" cy="0" r="1" gradientTransform="matrix(20.3799 0 0 20.4489 98.75 34.604)" gradientUnits="userSpaceOnUse"><stop offset=".574" stop-opacity="0"/><stop offset=".798" stop-opacity=".651"/><stop offset="1" stop-opacity=".95"/></radialGradient><radialGradient id="b" cx="0" cy="0" r="1" gradientTransform="matrix(20.469 0 0 20.5382 98.75 34.674)" gradientUnits="userSpaceOnUse"><stop offset=".574" stop-opacity="0"/><stop offset=".798" stop-opacity=".651"/><stop offset="1" stop-opacity=".95"/></radialGradient><radialGradient id="c" cx="0" cy="0" r="1" gradientTransform="matrix(13.7329 0 0 13.7794 73.711 46.51)" gradientUnits="userSpaceOnUse"><stop offset=".574" stop-opacity="0"/><stop offset=".798" stop-opacity=".651"/><stop offset="1" stop-opacity=".95"/></radialGradient><radialGradient id="d" cx="0" cy="0" r="1" gradientTransform="matrix(13.8696 0 0 13.9165 73.706 46.523)" gradientUnits="userSpaceOnUse"><stop offset=".574" stop-opacity="0"/><stop offset=".798" stop-opacity=".651"/><stop offset="1" stop-opacity=".95"/></radialGradient><radialGradient id="e" cx="0" cy="0" r="1" gradientTransform="matrix(14.6408 0 0 14.6903 111.748 45.855)" gradientUnits="userSpaceOnUse"><stop offset=".574" stop-opacity="0"/><stop offset=".798" stop-opacity=".651"/><stop offset="1" stop-opacity=".95"/></radialGradient><radialGradient id="f" cx="0" cy="0" r="1" gradientTransform="matrix(14.7908 0 0 14.8408 111.752 45.85)" gradientUnits="userSpaceOnUse"><stop offset=".574" stop-opacity="0"/><stop offset=".798" stop-opacity=".651"/><stop offset="1" stop-opacity=".95"/></radialGradient><radialGradient id="g" cx="0" cy="0" r="1" gradientTransform="matrix(24.3867 0 0 24.4693 35.14 81.646)" gradientUnits="userSpaceOnUse"><stop offset=".574" stop-opacity="0"/><stop offset=".798" stop-opacity=".651"/><stop offset="1" stop-opacity=".95"/></radialGradient><radialGradient id="h" cx="0" cy="0" r="1" gradientTransform="matrix(2.99821 0 0 3.00836 61.314 80.404)" gradientUnits="userSpaceOnUse"><stop offset=".574" stop-opacity="0"/><stop offset=".798" stop-opacity=".651"/><stop offset="1" stop-opacity=".95"/></radialGradient><radialGradient id="i" cx="0" cy="0" r="1" gradientTransform="matrix(24.3866 0 0 24.4691 35.14 81.647)" gradientUnits="userSpaceOnUse"><stop offset=".574" stop-opacity="0"/><stop offset=".798" stop-opacity=".651"/><stop offset="1" stop-opacity=".95"/></radialGradient><radialGradient id="j" cx="0" cy="0" r="1" gradientTransform="matrix(21.1264 0 0 21.1978 29.77 81.647)" gradientUnits="userSpaceOnUse"><stop offset=".574" stop-opacity="0"/><stop offset=".798" stop-opacity=".651"/><stop offset="1" stop-opacity=".95"/></radialGradient><radialGradient id="k" cx="0" cy="0" r="1" gradientTransform="matrix(24.3867 0 0 24.4692 35.14 81.646)" gradientUnits="userSpaceOnUse"><stop offset=".574" stop-opacity="0"/><stop offset=".798" stop-opacity=".651"/><stop offset="1" stop-opacity=".95"/></radialGradient><radialGradient id="l" cx="0" cy="0" r="1" gradientTransform="matrix(1.6836 0 0 1.6893 67.44 82.235)" gradientUnits="userSpaceOnUse"><stop offset=".574" stop-opacity="0"/><stop offset=".798" stop-opacity=".651"/><stop offset="1" stop-opacity=".95"/></radialGradient><radialGradient id="m" cx="0" cy="0" r="1" gradientTransform="matrix(28.7042 0 0 28.8013 158.882 81.632)" gradientUnits="userSpaceOnUse"><stop offset=".574" stop-opacity="0"/><stop offset=".798" stop-opacity=".651"/><stop offset="1" stop-opacity=".95"/></radialGradient><radialGradient id="n" cx="0" cy="0" r="1" gradientTransform="matrix(28.7476 0 0 28.8449 158.873 81.628)" gradientUnits="userSpaceOnUse"><stop offset=".574" stop-opacity="0"/><stop offset=".798" stop-opacity=".651"/><stop offset="1" stop-opacity=".95"/></radialGradient><radialGradient id="o" cx="0" cy="0" r="1" gradientTransform="matrix(15.186 0 0 15.2374 67.46 123.148)" gradientUnits="userSpaceOnUse"><stop offset=".574" stop-opacity="0"/><stop offset=".798" stop-opacity=".651"/><stop offset="1" stop-opacity=".95"/></radialGradient><radialGradient id="p" cx="0" cy="0" r="1" gradientTransform="matrix(15.3447 0 0 15.3966 67.453 123.14)" gradientUnits="userSpaceOnUse"><stop offset=".574" stop-opacity="0"/><stop offset=".798" stop-opacity=".651"/><stop offset="1" stop-opacity=".95"/></radialGradient><radialGradient id="q" cx="0" cy="0" r="1" gradientTransform="matrix(15.5341 0 0 15.5866 117.794 128.749)" gradientUnits="userSpaceOnUse"><stop offset=".574" stop-opacity="0"/><stop offset=".798" stop-opacity=".651"/><stop offset="1" stop-opacity=".95"/></radialGradient><radialGradient id="r" cx="0" cy="0" r="1" gradientTransform="matrix(15.6733 0 0 15.7263 117.79 128.755)" gradientUnits="userSpaceOnUse"><stop offset=".574" stop-opacity="0"/><stop offset=".798" stop-opacity=".651"/><stop offset="1" stop-opacity=".95"/></radialGradient><radialGradient id="s" cx="0" cy="0" r="1" gradientTransform="matrix(30.3206 0 0 30.4231 90.874 150.671)" gradientUnits="userSpaceOnUse"><stop offset=".574" stop-opacity="0"/><stop offset=".798" stop-opacity=".651"/><stop offset="1" stop-opacity=".95"/></radialGradient><radialGradient id="t" cx="0" cy="0" r="1" gradientTransform="matrix(30.4055 0 0 30.5083 90.868 150.655)" gradientUnits="userSpaceOnUse"><stop offset=".574" stop-opacity="0"/><stop offset=".798" stop-opacity=".651"/><stop offset="1" stop-opacity=".95"/></radialGradient><radialGradient id="u" cx="0" cy="0" r="1" gradientTransform="matrix(19.1805 0 0 19.2454 92.99 85.258)" gradientUnits="userSpaceOnUse"><stop offset=".574" stop-opacity="0"/><stop offset=".798" stop-opacity=".651"/><stop offset="1" stop-opacity=".95"/></radialGradient><radialGradient id="v" cx="0" cy="0" r="1" gradientTransform="matrix(19.8055 0 0 19.8725 92.99 85.258)" gradientUnits="userSpaceOnUse"><stop offset=".574" stop-opacity="0"/><stop offset=".798" stop-opacity=".651"/><stop offset="1" stop-opacity=".95"/></radialGradient><radialGradient id="w" cx="0" cy="0" r="1" gradientTransform="matrix(10.1124 0 0 10.1467 59.242 100.426)" gradientUnits="userSpaceOnUse"><stop offset=".574" stop-opacity="0"/><stop offset=".798" stop-opacity=".651"/><stop offset="1" stop-opacity=".95"/></radialGradient><radialGradient id="x" cx="0" cy="0" r="1" gradientTransform="matrix(10.2513 0 0 10.286 59.258 100.415)" gradientUnits="userSpaceOnUse"><stop offset=".574" stop-opacity="0"/><stop offset=".798" stop-opacity=".651"/><stop offset="1" stop-opacity=".95"/></radialGradient><radialGradient id="y" cx="0" cy="0" r="1" gradientTransform="matrix(8.32436 0 0 8.35253 123.912 64.055)" gradientUnits="userSpaceOnUse"><stop offset=".574" stop-opacity="0"/><stop offset=".798" stop-opacity=".651"/><stop offset="1" stop-opacity=".95"/></radialGradient><radialGradient id="z" cx="0" cy="0" r="1" gradientTransform="matrix(8.45544 0 0 8.48404 123.913 64.083)" gradientUnits="userSpaceOnUse"><stop offset=".574" stop-opacity="0"/><stop offset=".798" stop-opacity=".651"/><stop offset="1" stop-opacity=".95"/></radialGradient><radialGradient id="A" cx="0" cy="0" r="1" gradientTransform="matrix(9.17815 0 0 9.2092 59.073 66.013)" gradientUnits="userSpaceOnUse"><stop offset=".574" stop-opacity="0"/><stop offset=".798" stop-opacity=".651"/><stop offset="1" stop-opacity=".95"/></radialGradient><radialGradient id="B" cx="0" cy="0" r="1" gradientTransform="matrix(9.35456 0 0 9.38622 59.06 65.92)" gradientUnits="userSpaceOnUse"><stop offset=".574" stop-opacity="0"/><stop offset=".798" stop-opacity=".651"/><stop offset="1" stop-opacity=".95"/></radialGradient><radialGradient id="C" cx="0" cy="0" r="1" gradientTransform="matrix(10.8023 0 0 10.8388 128.355 105.755)" gradientUnits="userSpaceOnUse"><stop offset=".574" stop-opacity="0"/><stop offset=".798" stop-opacity=".651"/><stop offset="1" stop-opacity=".95"/></radialGradient><radialGradient id="D" cx="0" cy="0" r="1" gradientTransform="matrix(11.0523 0 0 11.0897 128.452 105.877)" gradientUnits="userSpaceOnUse"><stop offset=".574" stop-opacity="0"/><stop offset=".798" stop-opacity=".651"/><stop offset="1" stop-opacity=".95"/></radialGradient></defs></svg>