<svg xmlns="http://www.w3.org/2000/svg" width="200" height="200" fill="none"><path fill="#000" d="M60.866 72.17c-10.123-.849-20.488-.284-30.24 2.785-8.42 2.652-16.303 7.242-22.46 13.743-3.32 3.507-6.1 7.55-8.09 11.999-.213.478.034 1.088.606 1.082 8.936-.063 16.656 5.491 23.562 10.694 6.945 5.235 13.882 10.596 19.814 17.046 3.302 3.591 6.241 7.512 8.594 11.826.275.501.923.426 1.212 0 6.536-9.623 16.42-16.724 27.403-19.934 3.099-.907 6.274-1.5 9.486-1.759.454-.038.797-.43.676-.91-3.543-14.308-10.94-27.55-21.105-37.994a80.4 80.4 0 0 0-9.312-8.183l.143 1.132c5.185-4.498 10.457-9.05 16.6-12.125 6.735-3.375 14.1-3.988 21.49-4.11q5.774-.092 11.541.214c1.841.098 3.731.135 5.555.397.845.121 1.289.533 1.578 1.345.289.815.494 1.664.761 2.488 2.072 6.398 5.163 12.404 8.823 17.987 4.186 6.39 9.085 12.258 14.205 17.875q.157-.602.309-1.203a152.5 152.5 0 0 0-21.796 5.335c-6.864 2.229-13.702 4.869-20.142 8.192-3.352 1.731-6.572 3.835-9.09 6.723-.601.689.387 1.711.993 1.02 2.232-2.56 5.014-4.466 7.962-6.053 3.065-1.653 6.271-3.049 9.48-4.376a152 152 0 0 1 20.822-6.902 152 152 0 0 1 12.147-2.549c.551-.092.638-.843.309-1.203-9.298-10.199-18.129-21.486-22.551-34.88-.264-.804-.503-1.613-.747-2.422-.219-.726-.483-1.466-1.03-2.004-1.134-1.115-3.228-.925-4.671-1.028A164 164 0 0 0 101.749 56c-7.566.009-15.362.265-22.442 3.285-7.204 3.073-13.245 8.279-19.143 13.395-.376.329-.19.881.143 1.132 11.412 8.578 20.449 20.397 25.98 33.746a81 81 0 0 1 3.792 11.569l.676-.909c-11.78.953-23.07 6.231-31.602 14.601a51.3 51.3 0 0 0-6.499 7.806h1.213c-4.303-7.887-10.524-14.414-17.248-20.167-3.377-2.888-6.89-5.609-10.424-8.287-3.632-2.75-7.288-5.505-11.268-7.711-4.391-2.433-9.197-4.149-14.236-4.115l.606 1.083c3.484-7.789 9.371-14.195 16.37-18.8 7.888-5.188 17.057-7.964 26.335-8.94 5.606-.587 11.26-.547 16.872-.078.89.075.887-1.364-.008-1.44"/><path fill="#000" d="M53.511 141.679c1.66.164 3.237.794 4.601 1.765.292.207.809.075.96-.259 2.316-5.062 6.915-8.348 11.527-11.017 2.73-1.578 5.53-3.026 8.304-4.515q4.664-2.504 9.326-5.007c1.564-.841 3.257-1.575 4.63-2.732 1.128-.954 2.108-2.454 1.504-3.994-.14-.36-.468-.613-.864-.504-.334.095-.632.524-.492.887.433 1.103-.452 2.061-1.297 2.715-.555.432-1.167.76-1.785 1.091l-2.347 1.261q-4.601 2.471-9.202 4.939c-2.74 1.471-5.505 2.902-8.206 4.451-2.375 1.362-4.691 2.848-6.785 4.633-2.28 1.944-4.262 4.296-5.528 7.063l.96-.259c-1.578-1.123-3.405-1.774-5.312-1.964-.378-.037-.701.357-.701.72.005.426.328.688.707.726"/><path fill="#000" d="M92.558 120.066a101.5 101.5 0 0 1 17.478-9.818 100.3 100.3 0 0 1 18.952-6.125 98 98 0 0 1 11.064-1.745c.309-.031.592-.201.676-.53.32-1.243.424-2.54.287-3.82-.042-.386-.292-.72-.702-.72-.348 0-.744.33-.702.72a9.6 9.6 0 0 1-.236 3.437q.338-.262.677-.529a101 101 0 0 0-19.856 4.008 102.5 102.5 0 0 0-18.602 7.84 102 102 0 0 0-9.744 6.033c-.311.218-.452.633-.253.984.183.323.646.484.96.265M56.42 140.921c3.46-3.541 7.349-6.596 11.456-9.306 4.152-2.738 8.506-5.134 12.92-7.394a458 458 0 0 1 7.506-3.74c.342-.167.432-.668.253-.985-.205-.36-.618-.426-.96-.259-4.492 2.206-8.987 4.42-13.36 6.864-4.332 2.422-8.552 5.074-12.47 8.152-2.224 1.748-4.352 3.619-6.337 5.649-.643.654.348 1.673.991 1.019M24.778 101.952a29.4 29.4 0 0 1 4.912 2.678l-.143-1.132c-.309.354-.73.398-1.09.17q.073.565.144 1.132.526-.497 1.05-.997c.345-.328.792-.653 1.036-1.074.314-.547.034-1.074-.27-1.537l-.83-1.27q-.304.542-.607 1.083c.511.023.966.224 1.373.544.3.236.786.049.96-.259.21-.372.05-.749-.253-.985-.6-.47-1.333-.708-2.083-.74-.514-.023-.898.636-.606 1.083.224.345.452.688.676 1.033.101.156.208.311.31.47q.041.06.075.126.093.195.017-.242c-.017 0-.082.067-.11.093-.575.55-1.159 1.097-1.737 1.647-.343.322-.228.895.143 1.131.873.559 2.097.395 2.79-.394a.744.744 0 0 0-.143-1.132 31 31 0 0 0-5.247-2.825c-.35-.149-.772.162-.864.504-.104.421.146.743.497.893M32.321 97.72l1.117.457a.5.5 0 0 0 .281.012.5.5 0 0 0 .261-.087.74.74 0 0 0 .323-.429.75.75 0 0 0-.07-.555l-.11-.147a.7.7 0 0 0-.308-.185l-1.118-.457a.5.5 0 0 0-.28-.012.5.5 0 0 0-.261.086.74.74 0 0 0-.323.43.75.75 0 0 0 .07.555q.054.074.11.147c.084.086.187.15.308.184M23.77 94.765q.038-.135.084-.265c.048-.138-.04.058.037-.083.078-.144.151-.282.244-.418.081-.118-.045.043.059-.072q.067-.079.137-.152.085-.087.174-.167a1 1 0 0 1 .099-.081q.183-.128.379-.233.045-.026.092-.046l.02-.009c.065-.023.126-.046.194-.066a2 2 0 0 1 .23-.058q.05-.011.1-.02-.113.014.012-.003c.185-.02.373-.04.559-.069.825-.124 1.44-.682 1.48-1.57.013-.316-.077-.627-.068-.94q0-.061.008-.122-.015.119 0 .04.01-.042.023-.086.042-.117-.009.009.055-.087.003-.023l.011-.012q-.113.081-.016.02-.131.057-.014.026c.373-.069.583-.535.49-.886-.106-.404-.488-.573-.864-.504-.828.152-1.1 1.126-1.016 1.868.02.179.03.357.048.539q-.009.135.008.029a1 1 0 0 1-.034.14c.009-.034.085-.14.003-.022q.097-.063-.005.002-.109.056-.003.01-.093.033-.188.054c-.026.006-.29.046-.146.029l-.236.026c-.78.089-1.463.357-2.072.87a3.7 3.7 0 0 0-1.173 1.86.737.737 0 0 0 .49.886.706.706 0 0 0 .86-.5M31.672 90.478a3.13 3.13 0 0 0-.58-1.91c-.189-.258-.47-.423-.793-.33-.269.074-.555.385-.516.693.081.617.2 1.21.427 1.788.205.53.43 1.103.96 1.365.564.277 1.123.012 1.58-.345q.654-.508 1.258-1.077a18.6 18.6 0 0 0 2.162-2.445c.308-.414.572-.86.875-1.275.093-.127.236-.213.326-.326q-.012.001-.02-.005-.046-.026.08.023c0-.006-.102-.162-.085-.242-.14.645.69 1.29 1.173.7l1.328-1.622.62-.757c.119-.144.234-.293.354-.432.124-.14.101-.155.225-.175h-.373c.042.005-.02-.044-.02-.032.003.011.07.104.093.135.123.17.25.32.435.42.325.182.721.185 1.044-.002.236-.138.41-.346.584-.556.081-.098.174-.187.258-.285-.053.06.056-.006.009-.009.002 0-.065.009-.031.015.168.023.325.144.488.193q.335.103.677.043c.376-.064.696-.28.968-.547.626-.616 1.157-1.368 1.718-2.045h-.993c.791.75 1.729 1.46 2.869 1.17a1.8 1.8 0 0 0 1-.689c.044-.063.187-.204.184-.276a.07.07 0 0 1 .04-.038l-.11.035c-.047-.063.155.086.146.08.149.107.273.268.374.421.314.472.895.45 1.212 0a6.4 6.4 0 0 0 .994-2.229c.213-.9-1.14-1.284-1.353-.383a5.3 5.3 0 0 1-.853 1.883h1.212c-.309-.463-.687-.895-1.207-1.105-.572-.23-1.17-.052-1.547.446-.235.311-.322.539-.75.478-.482-.069-.878-.49-1.218-.809-.26-.248-.738-.305-.993 0q-.606.727-1.21 1.454c-.166.199-.326.409-.511.59-.05.05-.107.093-.157.136q-.16.034-.06.026.105.002-.064-.03c-.455-.253-1.016-.35-1.485-.086-.334.188-.547.493-.795.778q-.046.052-.098.1l.042-.031q-.164.09.144-.023.105 0 .19.069c.014-.017-.238-.334-.308-.4-.523-.507-1.236-.305-1.693.175-.407.43-.761.928-1.137 1.385q-.62.755-1.238 1.515.587.35 1.173.7c.273-1.256-1.173-1.973-2.133-1.34-.444.292-.716.76-1.005 1.199q-.442.675-.952 1.298a17.6 17.6 0 0 1-2.33 2.367c-.166.138-.331.29-.514.403-.292.179.084 0 .014.09a4 4 0 0 0-.107-.202 5.5 5.5 0 0 1-.488-1.656l-1.308.363c.264.363.396.728.387 1.183-.011.922 1.393.922 1.412-.005"/><path fill="#000" d="M21.238 103.216c1.125.492 2.346.472 3.425-.15l-.96-.259c.084.164.112.323.115.504.002.731.937.956 1.308.363.435-.694.539-1.512.6-2.318.048-.628.029-1.38.357-1.926.385-.645 1.193-.726 1.864-.749a9.7 9.7 0 0 1 2.953.36c.674.187 1.182-.694.683-1.204l-.54-.55c-.227.4-.454.804-.682 1.204 1.424.21 2.856-.127 4.006-1.034.528-.417.913-.95 1.362-1.45.182-.205.373-.418.604-.562.23-.147.311-.141.539-.046.334.14.797-.156.864-.504l.346-1.8-1.283.173c.9 1.445 2.799 1.794 4.258 1.071.786-.389 1.286-1.085 1.55-1.923.138-.438.182-.99.463-1.365a.8.8 0 0 1 .3-.234c.029-.011.18-.034.152-.037-.073-.003.084.052.031.003.466.426 1.16.124 1.199-.51.03-.5.059-1.005.09-1.506l-1.2.51c.574.642 1.399.32 1.927-.196.118-.115.213-.245.317-.371.079-.101.048-.08.132-.135.19-.124-.04.014.076-.035q.034-.013.07-.02.077-.017-.014-.003c.042-.058.084.055-.003-.012q-.152-.045-.182-.23c-.082-.227-.121-.274-.121-.132-.028.388.342.72.702.72.404 0 .673-.332.702-.72.067-.896-.87-1.216-1.567-.982-.387.13-.646.36-.901.674a2 2 0 0 1-.28.299c-.026.02-.16.09-.166.104.033-.093.255-.026.297.023-.435-.49-1.162-.078-1.199.51q-.044.752-.09 1.505l1.2-.51c-.77-.702-1.896-.437-2.525.337-.342.42-.502.948-.642 1.469-.102.371-.233.85-.436 1.08-.398.455-.934.63-1.532.616-.21-.006-.593-.087-.772-.179-.292-.147-.475-.305-.626-.55-.304-.483-1.16-.469-1.283.173l-.346 1.8q.433-.25.865-.504c-1.398-.587-2.42.91-3.217 1.82-.811.924-2.08 1.45-3.293 1.272-.315-.046-.62.032-.792.331a.75.75 0 0 0 .11.873q.27.276.539.55l.682-1.204c-1.078-.3-2.207-.449-3.327-.412-.99.035-2.058.228-2.757 1.017-.598.677-.75 1.57-.822 2.447-.062.761-.042 1.575-.458 2.241l1.308.362a2.7 2.7 0 0 0-.306-1.232c-.176-.348-.642-.441-.96-.259-.6.345-1.364.432-2.01.15-.348-.153-.752-.107-.96.259-.168.311-.095.838.256.993M26.875 107.204c1.403.608 2.981.392 4.225-.512 1.21-.882 2.074-2.292 1.979-3.856l-1.308.363c.665 1.005 1.94 1.238 3.006.803.584-.239 1.078-.653 1.5-1.126.207-.23.398-.478.592-.719q.14-.183.292-.366c.047-.061.303-.274.311-.34-.002.017.09-.098-.01-.032-.102.067-.02-.097-.023 0 0 .015.146.153.176.188.191.224.365.449.61.619.536.371 1.193.331 1.763.072.544-.251 1.01-.689 1.39-1.158.485-.602.954-1.218 1.428-1.825q1.616-2.067 3.232-4.132-.342.091-.683.184c.817.115 1.446.815 2.17 1.241.868.51 1.918.533 2.58-.34.337-.443.444-.982.638-1.494.036-.095.075-.187.126-.277.062-.103-.011-.008.07-.103.081-.09.25-.202.309-.225.312-.12.606-.115.898-.023.31.098.477.254.624.593.19.455.8.418 1.103.147l1.987-1.794c.306-.276.607-.61.944-.85-.096.07.081-.028.028-.008-.028.012.132-.037.135-.04-.076.034.025.006.03 0q-.1-.026-.028-.006.355.103-.297-.576c-.054.383.092.775.491.887.328.092.809-.115.865-.504.19-1.367-1.353-1.483-2.16-.815-1.027.85-1.992 1.794-2.986 2.69l1.103.147c-.71-1.688-3.242-1.809-4.242-.372-.272.392-.387.873-.539 1.319-.047.144-.104.317-.202.435-.05.06-.073.072-.132.112-.056.037-.048.052-.165.052.16-.003-.146-.026-.054-.012.053.009-.11-.034-.143-.043-.124-.04-.048-.014-.138-.06a4 4 0 0 1-.275-.162c-.34-.216-.657-.472-.99-.696-.352-.237-.736-.453-1.143-.559-.292-.075-.593-.112-.848.084-.264.204-.477.573-.682.837q-1.222 1.564-2.446 3.127-.61.783-1.223 1.564c-.318.406-.63.852-1.045 1.163-.25.187-.544.374-.78.179-.382-.314-.562-.766-1.07-.928-1.297-.414-2.063 1.305-2.821 2.059-.329.326-.722.602-1.157.657-.345.043-.73-.026-.907-.294-.362-.547-1.355-.4-1.308.363.124 2.018-2.223 3.933-4.09 3.124-.348-.15-.752-.107-.96.259-.174.297-.101.826.25.979M36.403 111.054a2.64 2.64 0 0 0 2.063 1.658c1.03.17 2.016-.158 2.858-.769.938-.682 1.735-1.563 2.557-2.381q.645-.64 1.292-1.281c.289-.288.657-.766 1.092-.78.477-.015.946-.622.606-1.083-.44-.599.068-1.379.595-1.78.815-.619 1.783-.958 2.51-1.71l-.85.112c.951.579 2.167 1.126 3.256.605.472-.225.817-.645 1.039-1.12.21-.449.33-.956.69-1.31.405-.4.96-.645 1.446-.919l1.69-.95 3.621-2.033c.792-.446.085-1.69-.707-1.244-1.126.634-2.254 1.264-3.38 1.898-1.025.576-2.12 1.091-3.088 1.762-.444.308-.842.683-1.098 1.172-.207.397-.309.884-.58 1.247-.514.685-1.663-.035-2.182-.351a.7.7 0 0 0-.85.112c-.818.843-2.036 1.129-2.83 2.01-.756.837-1.239 2.217-.495 3.227l.607-1.082c-1.084.031-1.808.927-2.532 1.644-.786.78-1.558 1.575-2.359 2.338-.578.55-1.288 1.169-2.083 1.273-.541.069-1.32-.11-1.535-.645-.146-.36-.466-.617-.865-.504-.328.092-.634.521-.488.884M77.803 73.947c.25-1.166.642-2.289 1.201-3.34.042-.078.247-.343.239-.423-.012-.084-.315-.06-.273.046.034.086.216.204.284.27l.21.216c.335.346.677.709 1.095.95 1.022.591 2.078.176 2.771-.713.275-.355.514-.835.89-1.089.124-.083.205-.118.306-.08.149.054.05.097.082-.026-.166.662.693 1.26 1.173.7q.446-.522.893-1.043.2-.235.401-.47c.02-.022.382-.388.37-.423-.434-1.284-.165-.008-.182.015.003-.006.295.224.233.178q.194.141.416.222c.356.135.752.13 1.117.017.719-.218 1.291-.806 1.735-1.402.373-.504.727-1.157 1.33-1.41.17-.07.27-.081.422.025.37.256.592.55 1.072.599.834.09 1.516-.564 2.21-.939a9 9 0 0 1 2.223-.829c.755-.176 1.499-.207 2.268-.222.455-.008.907-.089 1.286-.365.295-.216.531-.596.856-.758.618-.308 1.426.432 1.85.815.287.257.713.288.994 0 .255-.262.286-.76 0-1.019-.615-.553-1.331-1.114-2.159-1.255a2.05 2.05 0 0 0-1.249.146c-.382.179-.643.487-.949.772-.241.225-.483.225-.8.228-.444 0-.884.02-1.328.074-.87.11-1.72.308-2.54.637-.396.158-.787.334-1.163.538-.37.199-.707.458-1.078.654-.295.155-.3.075-.553-.138-.342-.285-.738-.461-1.187-.45-.79.02-1.491.582-1.985 1.17-.46.546-.783 1.243-1.404 1.63-.23.143-.384.2-.6.071-.194-.118-.335-.273-.554-.351a1.12 1.12 0 0 0-.732-.012c-.486.159-.809.651-1.129 1.025l-1.07 1.253q.587.35 1.174.7c.278-1.118-.845-2.013-1.87-1.774-.483.112-.9.45-1.212.832-.3.366-.534.82-.896 1.135-.603.526-1.199-.303-1.631-.743-.356-.369-.758-.792-1.3-.792-.651 0-.985.564-1.26 1.082a14.2 14.2 0 0 0-1.345 3.683c-.197.904 1.157 1.29 1.347.383M83.442 81.114l2.476-2.52q.621-.637 1.25-1.27c.305-.305.628-.627 1.024-.808.264-.121.598-.173.873-.052.272.12.385.449.553.725.216.36.472.712.865.876.468.195.985.049 1.342-.311.334-.334.592-.763.906-1.12a12.73 12.73 0 0 1 3.45-2.782c.096-.052.192-.112.293-.153.053-.02.157-.017.117-.031.16.055.304.265.458.351.486.277 1.047.196 1.485-.135.345-.262.584-.541.935-.752.3-.181.559-.29.879-.409 1.485-.544 3.413-.852 4.115-2.519.152-.357.104-.772-.252-.985-.298-.178-.809-.1-.961.26-.252.598-.634.886-1.254 1.163-.556.247-1.309.44-1.938.665-.73.262-1.426.587-2.007 1.117-.12.11-.233.233-.365.328.042-.029.104.084-.003-.026-.067-.069-.154-.126-.23-.187-.491-.38-1.053-.374-1.603-.124-1.794.82-3.427 2.28-4.643 3.841-.03.038-.393.455-.382.481-.017-.037.174.006.2.003.09-.008-.057.006-.031-.023.014-.014.047.049-.014-.032-.132-.172-.337-.573-.514-.82-.573-.81-1.567-1.086-2.49-.798-1.11.343-1.91 1.348-2.704 2.154l-2.824 2.87c-.64.66.351 1.677.994 1.023M97.52 96.867l1.55-3.775-1.282.173c.37.607.78 1.24 1.4 1.61.626.374 1.452.451 2.089.06.247-.15.427-.369.606-.593.073-.092.144-.182.222-.268.146-.161.054-.009-.014-.063.455.36.952.69 1.589.48.598-.195.876-.754 1.356-1.108a.826.826 0 0 1 1.072.104c.219.224.382.472.663.63.393.219.859.176 1.241-.046.584-.34 1.064-1.002 1.485-1.523a17.3 17.3 0 0 0 2.543-4.25h-1.212c.353.83 1.266.933 2.041.936.387.003.699-.032 1.021.098-.087-.035.087.049.104.06.062.046.115.121.166.181.177.21.314.432.525.608.873.723 2.041.302 2.745-.455.337-.363.562-.803.795-1.238.196-.369.396-.769.752-1.005h-.707c.115.063.132.08.163.213.21.901 1.566.519 1.353-.383a1.64 1.64 0 0 0-.809-1.074c-.216-.118-.494-.14-.707 0-.764.507-1.106 1.302-1.555 2.076-.177.306-.407.602-.733.749-.284.127-.393.052-.598-.202-.289-.357-.533-.67-.966-.852-.345-.147-.718-.193-1.092-.207-.326-.012-.654.011-.977-.023-.039-.003.009 0-.104-.02q-.05-.013-.101-.03l.014.01-.084-.05q.07.061.02.006-.05-.052.008.012a1 1 0 0 1-.064-.133c-.2-.47-1.014-.475-1.213 0a16.7 16.7 0 0 1-1.918 3.432c-.379.522-.8 1.011-1.24 1.478-.096.1-.259.21-.329.325-.003.006-.062.029-.062.029.012.031.155-.012.152.008.006-.028-.213-.244-.23-.264a2.4 2.4 0 0 0-.379-.358c-.503-.377-1.143-.492-1.749-.382-.576.106-.997.472-1.393.89-.132.137-.317.319-.418.388-.093.066-.053-.029-.008.003-.104-.07-.205-.164-.306-.242-.531-.4-1.171-.395-1.682.037-.32.274-.545.89-1.019.835-.595-.066-.957-.754-1.238-1.218-.348-.57-1.056-.383-1.283.173l-1.55 3.775c-.146.36.158.792.492.887.398.112.71-.144.856-.504M45.352 116.326c.079-.729.318-2.235 1.348-1.765.53.242 1.047.414 1.628.227.52-.167.957-.541 1.297-.97.328-.415.564-.884.873-1.313.216-.3.475-.59.854-.619.303-.023.598.031.9-.009.332-.043.632-.144.938-.282.525-.236 1.025-.544 1.514-.852a22 22 0 0 0 3.346-2.609l-1.103-.147c.401.55 1.027.763 1.67.527.61-.222.907-.752 1.289-1.244.662-.852 1.687-1.264 2.734-1.18.379.028.702-.352.702-.72 0-.415-.323-.691-.702-.72a4.36 4.36 0 0 0-2.914.841 5 5 0 0 0-1.103 1.154c-.107.15-.225.366-.382.467-.143.092-.194-.009-.079.149-.275-.377-.741-.486-1.103-.146a20 20 0 0 1-2.953 2.315c-.497.319-1.017.665-1.561.892-.573.239-1.165.026-1.75.202-1.12.337-1.515 1.431-2.17 2.289-.196.256-.516.63-.861.625-.239-.006-.503-.202-.719-.288-.32-.13-.654-.17-.994-.113-1.558.26-1.948 1.93-2.097 3.286-.042.386.354.72.702.72.41.003.654-.329.696-.717M50.524 122.643c.505-1.134 1.016-2.277 1.684-3.323.637-.996 1.454-1.831 2.392-2.528 1.008-.748 2.088-1.388 3.15-2.05q.88-.55 1.757-1.1c.39-.244.988-.743 1.376-.783-.096.012.017.026-.02-.009.03.029.16.176.135.144.123.167.216.36.32.539.244.412.539.812.968 1.031 1.087.55 2.238-.141 3.024-.913.427-.42.777-.919 1.148-1.391.435-.555.867-1.114 1.305-1.667.295-.374.643-.855 1.106-1.016.365-.127.652.239.913.455.561.463 1.176.694 1.9.544.649-.133 1.202-.55 1.682-.994.379-.351.772-.829 1.28-.97a.8.8 0 0 1 .466.012c.067.02.135.051.185.1.054.046.012-.008.043.092.255.887 1.611.51 1.353-.382-.329-1.144-1.654-1.541-2.662-1.121-.561.237-1.013.643-1.454 1.06-.356.337-.778.772-1.288.818-.45.04-.809-.452-1.14-.697-.489-.36-1.12-.484-1.699-.288-.6.205-1.092.657-1.496 1.143-.452.544-.876 1.114-1.314 1.673-.415.53-.808 1.097-1.283 1.575-.297.297-.707.654-1.109.726-.384.069-.561-.245-.738-.553-.239-.412-.474-.85-.881-1.114-.542-.352-1.163-.254-1.702.046-.626.348-1.224.763-1.833 1.143-1.154.722-2.322 1.422-3.453 2.182-1.244.835-2.372 1.788-3.265 3.015-.864 1.186-1.468 2.542-2.066 3.881-.157.355-.098.775.253.985.306.176.805.092.963-.265M90.25 120.311c.132.006.25.052.354.15.129.121.23.293.286.457.155.464.11.864-.168 1.313-.309.499-.8.853-1.286 1.155-.634.395-1.303.737-1.965 1.083-2.796 1.465-5.665 2.775-8.461 4.238-4.992 2.615-9.899 5.897-13.004 10.809q-.615.972-1.109 2.013c-.18.38-.34.766-.5 1.155-.095.239-.193.501-.348.705-.16.213-.202.21-.426.072-.38-.23-.736-.507-1.1-.763q-1.18-.824-2.359-1.647c-.75-.521-1.451.726-.707 1.244q1.123.783 2.246 1.566c.637.447 1.383 1.175 2.206 1.138.755-.035 1.28-.654 1.586-1.308.292-.624.525-1.275.84-1.891 1.319-2.609 3.253-4.823 5.443-6.701 5.014-4.299 11.254-6.631 16.984-9.697 1.367-.732 3.12-1.601 3.535-3.286.353-1.437-.486-3.19-2.047-3.248-.901-.028-.901 1.411 0 1.443"/><path fill="#000" d="M91.9 118.995c.93 3.176 4.854 3.711 7.451 2.565 1.676-.737 3.057-1.995 4.453-3.17 1.42-1.195 2.936-2.202 4.606-2.994 3.521-1.665 7.429-2.433 11.232-3.075a88 88 0 0 1 12.597-1.198 86 86 0 0 1 3.554-.012c1.013.018 2.319.159 2.698-1.085.168-.55.177-1.175.247-1.748.079-.616.154-1.235.233-1.852q.243-1.923.486-3.846c.047-.386-.357-.72-.702-.72-.421 0-.654.331-.702.72l-.809 6.412c-.028.227.012.642-.238.688-.385.069-.823-.003-1.213-.008a83 83 0 0 0-3.074.002 91 91 0 0 0-12.232 1.063c-3.691.57-7.442 1.273-10.948 2.632-1.668.645-3.287 1.439-4.764 2.467-1.452 1.011-2.712 2.275-4.144 3.312-1.359.984-2.815 1.695-4.489 1.523-1.246-.127-2.52-.809-2.888-2.065-.261-.878-1.615-.501-1.354.389M65.894 68.376c.29 1.46 1.76 2.346 2.76 3.282a37 37 0 0 1 2.967 3.116 37.2 37.2 0 0 1 6.724 11.817c.176.515 1.019.789 1.282.172.506-1.183.593-2.508.11-3.72l-.677.91a2.83 2.83 0 0 1 2.196.861l.85-1.131c-.946-.689-1.485-1.823-2.004-2.851a119 119 0 0 0-1.977-3.755c-1.37-2.487-2.83-4.92-4.387-7.29a104 104 0 0 0-2.715-3.934c-.225-.31-.606-.469-.96-.259-.3.179-.48.671-.253.985 3.4 4.696 6.404 9.683 9.026 14.875.662 1.31 1.359 2.597 2.557 3.47.66.48 1.404-.565.85-1.132a4.22 4.22 0 0 0-3.188-1.284c-.407.017-.86.455-.677.91.332.832.39 1.77.031 2.608l1.283.173c-1.943-5.615-5.149-10.751-9.34-14.883a37 37 0 0 0-1.794-1.653c-.536-.464-1.17-.933-1.32-1.676-.075-.38-.516-.602-.864-.504-.376.118-.556.513-.48.893M137.747 77.308c.042 4.05 1.435 7.932 3.327 11.442 1.861 3.453 4.444 6.404 7.111 9.217 1.325 1.397 2.723 2.712 4.258 3.864 1.564 1.169 3.338 2.056 5.121 2.81q.683.29 1.378.545c.427.158.921.256 1.314.489.834.495 1.853.752 2.774 1.031 1.917.582 3.877.99 5.859 1.247 4.483.581 9.073.253 13.43-.974.87-.244.5-1.635-.373-1.387a32.5 32.5 0 0 1-11.527 1.085 34 34 0 0 1-5.646-.973 35 35 0 0 1-2.731-.829 8 8 0 0 1-1.174-.498c-.446-.239-.965-.363-1.437-.536a29 29 0 0 1-5-2.387c-1.564-.942-2.953-2.183-4.253-3.472-2.602-2.586-5.101-5.373-7.049-8.515-2.24-3.614-3.936-7.823-3.978-12.156-.011-.928-1.415-.93-1.404-.003"/><path fill="#000" d="M159.468 97.083c2.386 2.194 5.185 3.801 7.981 5.37 2.816 1.581 5.78 2.92 8.908 3.686 1.878.46 3.804.728 5.729.8.904.035.902-1.405 0-1.44-3.2-.123-6.336-.837-9.314-2.035-2.841-1.143-5.553-2.695-8.158-4.316-1.466-.913-2.881-1.91-4.158-3.087-.668-.613-1.662.4-.988 1.022"/><path fill="#000" d="M151.079 77.365c.18 2.9.674 5.782 1.525 8.558a37 37 0 0 0 1.535 4.088c.141.314.261.68.461.956.092.127.205.222.289.357.095.159.174.329.264.49q.51.912 1.117 1.759a19.8 19.8 0 0 0 3.116 3.435c.289.25.708.29.994 0 .25-.256.292-.766 0-1.02a18.8 18.8 0 0 1-2.661-2.821 18 18 0 0 1-1.558-2.456c-.172-.323-.413-.562-.567-.893a34.2 34.2 0 0 1-2.524-7.826 35 35 0 0 1-.587-4.627c-.025-.389-.306-.72-.702-.72-.362 0-.727.329-.702.72"/><path fill="#000" fill-rule="evenodd" d="M138.397 76.72c4.463.009 8.844.009 13.296 0l.002 1.152c-4.453.008-8.836.008-13.3 0z" clip-rule="evenodd"/><path fill="#000" d="M154.878 90.694a52.6 52.6 0 0 0-5.932 7.008c-.222.314-.053.803.253.985.353.213.735.058.96-.26a50.6 50.6 0 0 1 5.713-6.714c.651-.645-.343-1.661-.994-1.02M154.681 88.906c-.851.115-1.37.745-1.954 1.333a132 132 0 0 0-5.275 5.612c-.606.685.385 1.704.994 1.019a132 132 0 0 1 4.812-5.143q.417-.422.833-.84c.118-.118.405-.516.59-.539.376-.052.702-.293.702-.72 0-.35-.323-.774-.702-.722"/><path fill="#000" d="M148.008 95.675c-1.078-.354-2.226.19-2.931 1.04-.741.895-1.123 2.107-1.072 3.28.053 1.295.648 2.406 1.314 3.477.328.533.685 1.043 1.044 1.555.202.288.634.812.455 1.207-.166.36-1.005.23-1.303.213a8.2 8.2 0 0 1-2.03-.389c-.864-.276-1.235 1.114-.373 1.388 1.137.363 2.487.616 3.675.383 1.314-.259 1.735-1.615 1.232-2.782-.233-.538-.626-.993-.951-1.474a22 22 0 0 1-1-1.609c-.547-.979-.836-2.01-.528-3.124.242-.879 1.053-2.12 2.1-1.774.859.282 1.227-1.109.368-1.39M145.658 69.55c-.996.997-2.091 1.944-2.807 3.188-.685 1.186-1.039 2.83-.034 3.948.767.852 2.361 1.232 3.347.567 1.03-.697.564-1.92.16-2.84-.02-.042-.138-.33-.084-.192a4 4 0 0 1-.163-.53 3.3 3.3 0 0 1-.056-1.157c.101-.807.572-1.518.87-2.255.143-.36-.157-.792-.491-.887-.405-.112-.719.141-.865.504-.227.567-.545 1.088-.736 1.676-.205.63-.247 1.324-.165 1.98.07.557.238 1.052.46 1.559l.101.227q.031.067.056.133c-.039-.098.006.017.012.028.031.09.064.179.089.268.014.046.059.282.043.133.005.051 0 .273.016.106a.4.4 0 0 1-.028.11c.006-.006.071-.127.068-.121-.009.025-.076.051-.017.028.078-.031-.051.032-.068.038-.112.043.082-.026-.05.017a1.3 1.3 0 0 1-.211.052c-.056.008-.342 0-.432-.017-.213-.04-.393-.101-.573-.208-.817-.486-.502-1.61-.092-2.35.648-1.177 1.707-2.055 2.639-2.985.651-.65-.34-1.667-.989-1.02M117.742 113.135q11.846.32 23.691.726a3367 3367 0 0 1 36.855 1.468l-.677-.909c-.907 3.178-.988 7.506 2.089 9.496l.353-1.342c-4.696-.49-9.393-.979-14.092-1.437-4.7-.458-9.405-.881-14.113-1.241-4.705-.36-9.416-.656-14.129-.855a294 294 0 0 0-14.143-.271q-1.745.01-3.484.046c-.59.012-1.182.035-1.772.041-.415.003-.831-.009-1.128-.343-.511-.57-.727-1.463-.75-2.22a4.57 4.57 0 0 1 .539-2.329c.194-.352.424-.657.708-.939.648-.648-.346-1.667-.994-1.019-1.348 1.35-1.892 3.354-1.553 5.237.172.95.615 2.001 1.393 2.586.912.685 2.22.455 3.279.432 4.876-.104 9.758-.058 14.632.098 4.876.158 9.749.426 14.617.771 4.874.346 9.739.766 14.601 1.227 4.863.461 9.725.962 14.584 1.469q.901.095 1.805.187c.736.077.896-.991.354-1.342-2.482-1.604-2.161-5.359-1.443-7.869.132-.467-.23-.89-.676-.91q-11.839-.54-23.68-.991-11.772-.45-23.548-.818-6.657-.208-13.318-.385c-.904-.026-.904 1.413 0 1.436"/><path fill="#000" d="M117.933 113.058q15.55-2.584 31.1-5.169c5.154-.858 10.351-1.586 15.466-2.68 2.422-.519 4.823-1.325 7.296-1.564 2.585-.247 5.196.193 7.773.392 5.826.446 11.679.498 17.512.161l-.185-1.414a94 94 0 0 0-9.082 3.666 91 91 0 0 0-4.343 2.162c-1.322.703-2.7 1.385-3.916 2.269-1.207.875-2.232 2.027-2.321 3.611-.054.924 1.353.921 1.403 0 .062-1.109.98-1.924 1.817-2.502 1.153-.798 2.425-1.443 3.66-2.099a90 90 0 0 1 8.274-3.888 96 96 0 0 1 4.882-1.834c.713-.245.642-1.462-.186-1.414-5.207.3-10.432.294-15.639-.031-2.594-.161-5.191-.544-7.791-.59-2.588-.044-5.067.619-7.563 1.232-5.064 1.238-10.258 1.941-15.395 2.793-5.21.867-10.418 1.73-15.628 2.597q-8.753 1.456-17.504 2.908c-.374.064-.584.539-.491.887.109.412.485.57.861.507"/><path fill="#000" d="m180.839 123.602 10.649-6.651 5.263-3.289c.837-.521 1.741-.996 2.524-1.601.814-.63.887-1.595.491-2.502-.182-.42-.449-.786-.704-1.163a10 10 0 0 1-.792-1.399 9 9 0 0 1-.761-2.865c-.036-.386-.297-.72-.701-.72-.351 0-.739.331-.702.72.171 1.834.774 3.582 1.813 5.09.233.34.991 1.215.587 1.63-.286.294-.747.49-1.089.703q-.659.41-1.317.823l-10.23 6.39q-2.871 1.793-5.744 3.587c-.766.487-.061 1.731.713 1.247"/><path fill="#000" d="M178.774 114.86c1.283.055 2.473-.452 3.604-1.013 1.185-.59 2.364-1.198 3.543-1.8a399 399 0 0 0 7.106-3.703 210 210 0 0 0 3.997-2.197c.792-.446.085-1.69-.707-1.243-4.537 2.556-9.172 4.92-13.809 7.276-1.171.593-2.381 1.298-3.729 1.241-.909-.038-.906 1.402-.005 1.439M178.021 118.048a72.291 72.291 0 0 0 19.865-9.2c.755-.501.053-1.748-.708-1.244a71.3 71.3 0 0 1-14.994 7.576 72 72 0 0 1-4.534 1.477c-.87.253-.499 1.641.371 1.391M178.925 120.789a68.9 68.9 0 0 0 19.96-9.715c.312-.219.452-.631.253-.985-.18-.317-.646-.481-.96-.259a67.8 67.8 0 0 1-15.028 8.013 68 68 0 0 1-4.595 1.555c-.871.262-.5 1.653.37 1.391"/><path fill="#000" d="M178.735 116.438a109.3 109.3 0 0 0 17.36-7.639c.798-.437.09-1.678-.707-1.244a107 107 0 0 1-13.169 6.102q-1.916.734-3.858 1.39c-.853.291-.488 1.682.374 1.391M154.294 110.656a75 75 0 0 1 4.306-.256c.64-.017 1.322-.089 1.96.003.496.072.836.354 1.196.685.404.375.819.749 1.344.933.623.222 1.275.09 1.853-.204.533-.271 1.168-.708 1.496-1.227.396-.625.191-1.405-.463-1.73-.536-.265-1.193-.251-1.771-.326-.416-.054-.885-.129-1.095-.457q-.211.528-.418 1.056a6.1 6.1 0 0 1 1.861-.126c.601.049 1.199.293 1.802.172.57-.115.943-.532 1.233-1.022.207-.351.308-.628.738-.679 1.235-.153 2.504.046 3.742-.09.915-.098 2.134-.601 2.021-1.759-.036-.386-.294-.72-.702-.72-.35 0-.738.331-.701.72a.6.6 0 0 1 .005.158.13.13 0 0 1 .014-.089c.09-.031-.067.064.003.009-.157.115-.255.15-.441.196-.404.106-.878.072-1.33.08q-.906.016-1.808.032c-.556.009-1.134-.012-1.654.222-.466.21-.755.599-1.01 1.036-.174.303-.233.533-.596.501-.572-.052-1.122-.213-1.704-.227a7.7 7.7 0 0 0-1.85.198c-.429.098-.659.683-.418 1.057.562.884 1.491 1.08 2.448 1.186.191.023.385.038.576.067q.137.02.275.049c.036.008.134.049.151.037.048-.029-.092-.357-.073-.357-.017 0-.233.239-.255.259-.076.064-.155.121-.233.182-.216.158-.449.319-.705.408-.814.283-1.46-.737-2.044-1.157-.974-.697-2.254-.553-3.377-.521-1.46.04-2.919.129-4.376.256-.379.035-.702.308-.702.72 0 .368.323.76.702.725M132.843 117.195c.367-.604.909-1.301 1.608-1.5.724-.204 1.14.611 1.569 1.08.604.662 1.365 1.192 2.272 1.227.39.014.791-.078 1.137-.265.188-.104.365-.248.505-.412.05-.058.137-.164.166-.216.207-.386-.121.337-.076-.003-.014.112 1.14.432 1.252.461.455.109.923.173 1.389.207.961.072 1.923.009 2.884-.017a63 63 0 0 1 6.047.126q3.475.24 6.908.867c.711.13 1.135-.633.683-1.203l-.924-1.167c-.239-.302-.744-.256-.994 0-.292.3-.238.715 0 1.02q.464.582.924 1.166l.682-1.204a64.8 64.8 0 0 0-12.917-1.056c-.974.02-1.951.089-2.928.049a7.3 7.3 0 0 1-1.269-.15 6 6 0 0 1-.699-.202c-.247-.089-.474-.23-.727-.302-.564-.164-1.002.098-1.344.535-.177.225-.363.337-.657.329-.778-.02-1.314-.786-1.777-1.336-.685-.812-1.637-1.253-2.67-.858-.977.371-1.724 1.209-2.266 2.096-.471.792.744 1.514 1.222.728"/></svg>