<svg xmlns="http://www.w3.org/2000/svg" width="200" height="200" fill="none"><path fill="#000" d="M60.683 101.887a71.3 71.3 0 0 1-12.6-27.26c-.297-1.32-2.17-1.474-2.818-.37a104.1 104.1 0 0 0-10.628 25.275 120 120 0 0 0-.826 3.249c-.271 1.146-.69 2.398-.703 3.582-.024 2.792 2.978 3.057 5.086 3.415 4.772.814 9.636 1.023 14.45.53 3.588-.364 9.087-1.72 8.884-6.356-.087-1.979-3.169-1.985-3.083 0 .025.555-.055.845-.314 1.184-.395.518-.888.807-1.467 1.103-1.369.697-2.86.876-4.322 1.017-4.142.395-8.36.321-12.471-.308a50 50 0 0 1-3.033-.561c-.191-.043-.444-.154-.641-.142a4 4 0 0 1-.21-.061q-.167-.091.173.234c.037-.006.216-1.085.234-1.184q.639-2.931 1.455-5.825a102 102 0 0 1 3.982-11.473 100 100 0 0 1 6.073-12.126l-2.818-.37a73.5 73.5 0 0 0 12.91 27.994c.499.666 1.33 1.005 2.108.555.684-.376 1.085-1.436.58-2.102M130.666 115.579c1.029 11.768 1.837 23.549 2.644 35.33.056.832.666 1.541 1.541 1.541.789 0 1.597-.709 1.542-1.541-.808-11.781-1.616-23.568-2.645-35.33-.074-.832-.654-1.541-1.541-1.541-.777 0-1.609.709-1.541 1.541"/><path fill="#000" d="M48.662 81.623c5.11-8.587 12.299-15.942 21.287-20.442 4.432-2.22 9.29-3.711 14.21-4.315 5.437-.666 10.997.055 16.151 1.85 5.795 2.015 11.041 5.43 15.591 9.511 1.473 1.32 3.662-.85 2.182-2.182-8.735-7.835-19.857-13.07-31.785-12.446-10.684.554-20.93 5.35-28.851 12.41-4.532 4.03-8.354 8.846-11.448 14.055-1.018 1.714 1.646 3.267 2.663 1.56"/><path fill="#000" d="M117.8 68.29c9.456-7.775 19.141-15.29 28.154-23.587a323 323 0 0 0 25.288-26.053 329 329 0 0 0 13.297-16.38l-2.873-.776a50.7 50.7 0 0 1-1.855 15.461c-.703 2.503-1.819 4.809-2.842 7.195-1.03 2.391-1.991 4.802-2.719 7.305-.142.499-.006 1.153.395 1.498 1.424 1.226 2.663 2.768 2.922 4.63.228 1.664-.265 3.372-.962 4.888-1.72 3.742-4.593 6.972-6.652 10.357-.548.9-.622 2.028-.45 3.04.068.412.198.831.413 1.195.302.524.789.808 1.246 1.177 1.51 1.221 2.86 2.768 3.347 4.686.487 1.905-.166 3.57-1.11 5.203a263 263 0 0 1-3.495 5.844c-4.667 7.546-9.827 14.802-15.794 21.386a115 115 0 0 1-12.336 11.756c-.437.357-.863.764-1.337 1.078-.383.253-.827.451-1.221.697a21.5 21.5 0 0 0-2.867 2.127c-.906.801-2.04 1.356-3.101 1.942-4.42 2.447-9.062 4.445-13.778 6.245a338 338 0 0 1-7.188 2.632c-1.005.358-2.059.635-2.965 1.215-.857.542-1.603 1.245-2.355 1.923-.721.66-1.449 1.239-2.33 1.683-1.776.888-.216 3.545 1.553 2.663 1.843-.918 3.052-2.601 4.772-3.662.918-.567 2.059-.82 3.076-1.183 1.202-.432 2.398-.863 3.6-1.307 4.926-1.813 9.814-3.767 14.506-6.14a74 74 0 0 0 3.544-1.911c.543-.315 1.085-.629 1.622-.956.561-.345 1.005-.795 1.51-1.221a17 17 0 0 1 2.737-1.855c1.018-.561 1.911-1.393 2.805-2.139a116 116 0 0 0 10.24-9.593c6.3-6.664 11.781-14.068 16.688-21.798a220 220 0 0 0 3.662-5.986c1.196-2.022 2.478-3.977 2.762-6.356.246-2.108-.376-4.272-1.529-6.035a13.4 13.4 0 0 0-2.17-2.546c-.438-.401-.9-.802-1.387-1.141-.327-.228-.037-.148-.043.006-.007.148.006-.037-.007-.012.025-.043-.067-.358-.074-.42-.006-.203.007-.338.025-.443.031-.167.117-.34-.018-.105.283-.487.653-.956.967-1.424.605-.894 1.227-1.776 1.85-2.663 1.208-1.72 2.41-3.459 3.397-5.32 1.942-3.668 2.916-8.015.468-11.707-.659-.993-1.467-1.868-2.367-2.645.129.5.265.999.394 1.498.728-2.521 1.696-4.95 2.744-7.348 1.066-2.454 2.182-4.84 2.891-7.429a53.7 53.7 0 0 0 1.886-15.997c-.055-1.64-1.978-1.948-2.872-.777a322 322 0 0 1-23.728 27.723c-8.385 8.741-17.262 16.953-26.589 24.677-5.283 4.371-10.647 8.643-15.942 12.996-.641.53-.549 1.633 0 2.182.653.641 1.553.536 2.195.006"/><path fill="#000" d="M85.57 114.167c1.098-7.342 3.946-14.197 7.978-20.405 4.013-6.19 9.056-11.645 14.388-16.707 3.002-2.848 6.109-5.579 9.26-8.267.634-.542.554-1.62 0-2.182-.629-.629-1.548-.542-2.183 0-11.331 9.685-22.84 20.38-28.832 34.344-1.708 3.976-2.94 8.113-3.582 12.397-.123.82.203 1.659 1.079 1.899.727.197 1.77-.253 1.892-1.079M92.58 54.739c-.814-3.298.733-6.553 2.965-8.933 2.657-2.842 6.183-4.364 9.839-5.499 4.007-1.245 8.119-2.108 11.99-3.754 3.446-1.467 6.627-3.477 9.475-5.912a36.6 36.6 0 0 0 7.996-9.728c.98-1.726-1.658-3.267-2.663-1.553a13.8 13.8 0 0 0-1.819 5.523c-.222 2.004.235 3.847.524 5.813.5 3.379-1.855 6.036-4.469 7.817-2.737 1.868-5.863 3.107-8.52 5.099-2.589 1.941-5.049 4.592-5.591 7.903-.345 2.108.29 3.927.74 5.955.166.746.271 1.529-.179 2.188-.16.228-.345.444-.598.568-.086.043-.234.018-.222.024-1.763-.906-3.323 1.757-1.554 2.663 1.788.913 3.644.185 4.797-1.356 1.208-1.621 1.085-3.545.604-5.413-.426-1.676-.894-3.168-.364-4.876.468-1.498 1.486-2.774 2.601-3.847 4.945-4.753 13.791-6.023 15.665-13.605.586-2.368-.259-4.47-.407-6.812a10.65 10.65 0 0 1 1.455-6.091l-2.663-1.553c-3.662 6.472-9.518 11.768-16.441 14.567-7.602 3.07-16.695 3.464-22.539 9.882-2.903 3.193-4.66 7.435-3.594 11.756.475 1.923 3.446 1.104 2.972-.826M73.148 149.201c-5.45 16.553-18.691 28.932-32.39 38.955-4.216 3.089-8.544 6.03-12.865 8.97-1.19.814-.845 2.928.777 2.873a114 114 0 0 0 29.782-5 115.7 115.7 0 0 0 27.445-12.576 114 114 0 0 0 13.76-10.184c.628-.542.561-1.621 0-2.182-.623-.623-1.548-.543-2.183 0-7.41 6.393-15.689 11.756-24.517 15.979-8.859 4.247-18.29 7.299-27.95 9.105a108.4 108.4 0 0 1-16.344 1.769c.26.956.518 1.918.777 2.873 15.08-10.258 30.633-20.954 40.49-36.692 2.565-4.094 4.667-8.483 6.177-13.076.635-1.886-2.342-2.694-2.959-.814M75.83 55.978a5 5 0 0 1-.271-.986c.067.394 0-.142 0-.222-.007-.173.012-.34.012-.512.006-.333-.068.253.012-.099.037-.166.068-.332.111-.499s.105-.327.16-.487q.095-.248-.006.012l.111-.234c.136-.271.296-.524.469-.77.105-.142.105-.136-.006.006q.082-.1.166-.191c.117-.13.234-.247.364-.364.061-.056.13-.111.19-.166q-.22.163-.005.006c.105-.068.21-.142.32-.21q.22-.13.45-.234c-.332.16.16-.05.235-.068.172-.05.339-.086.511-.117-.363.068.18-.006.26-.006.135 0 .264 0 .4.006.086.006.179.012.265.024q-.288-.038-.012.007c.172.049.345.08.517.13.062.018.574.227.26.08q.426.195.825.455.112.074.222.155c-.135-.105-.129-.1.007.012.135.123.27.24.394.37s.247.265.358.4c-.204-.258.055.093.074.124a6 6 0 0 1 .388.703c-.068-.167-.068-.16-.006 0 .05.172.11.339.148.511a3 3 0 0 1 .05.265c-.025-.185-.025-.19-.007-.006.074.802.66 1.578 1.541 1.541.77-.037 1.621-.684 1.541-1.54-.27-3.034-2.644-5.697-5.683-6.203-3.2-.536-5.999 1.326-7.207 4.248-.604 1.461-.69 3.206-.117 4.691.29.752 1.048 1.35 1.898 1.08.716-.248 1.37-1.104 1.06-1.912M35.118 109.075c-.876 3.261-1.757 6.516-2.633 9.777-.437 1.616-.881 3.225-1.306 4.84-.327 1.257-.537 2.57-.327 3.865.487 2.99 3.606 4.143 6.165 2.823 2.774-1.43 3.174-4.839 3.674-7.582.672-3.681 1.344-7.367 2.01-11.047.147-.82-.223-1.665-1.08-1.899-.745-.204-1.744.253-1.898 1.079-.506 2.786-1.017 5.573-1.523 8.359-.259 1.436-.518 2.873-.783 4.303-.203 1.097-.388 2.287-1.005 3.243-.376.579-1.078 1.128-1.769 1.054-.629-.068-.795-.703-.814-1.264-.03-1.066.303-2.09.574-3.113.37-1.381.746-2.762 1.116-4.149.85-3.163 1.701-6.319 2.552-9.481.536-1.905-2.435-2.725-2.953-.808M36.825 140.127c-2.712 1.671-5.104 4.352-6.047 7.447-.5 1.634 0 3.36 1.523 4.235 1.337.771 2.959.715 4.333.093 1.43-.654 2.43-1.887 3.662-2.818 1.184-.894 2.552-1.473 3.995-1.788 2.725-.591 5.653-.018 7.91 1.634 2.496 1.831 4.068 4.852 4.136 7.94.012.605.462 1.394 1.134 1.486 2.053.277 3.52-.752 4.704-2.349 1.066-1.43 1.917-3.119 2.614-4.753 1.43-3.353 1.596-7.071-.703-10.079-1.88-2.454-4.74-3.915-7.62-4.864-3.532-1.165-7.626-1.96-11.287-1.036-4.038 1.017-7.28 3.866-10.296 6.584-1.479 1.332.71 3.508 2.183 2.182 2.207-1.985 4.494-4.05 7.256-5.233 3.002-1.283 6.22-.845 9.302-.099 4.279 1.042 10.197 3.674 9.087 9.062-.357 1.745-1.177 3.323-2.047 4.858-.357.635-.708 1.301-1.177 1.862-.24.289-.82.937-1.184.887.377.494.753.993 1.135 1.486-.136-5.967-4.5-11.546-10.462-12.631-3.04-.555-6.202-.099-8.926 1.368-1.357.728-2.435 1.776-3.594 2.762-.432.37-.919.734-1.474.888-.364.098-.783.074-1.103-.111-.13-.074-.198-.235-.18-.13-.042-.351.069-.653.204-.998.284-.722.69-1.412 1.122-2.053.876-1.295 2.047-2.368 3.372-3.181 1.671-1.024.124-3.693-1.572-2.651M31.709 158.091c.721 2.312-.518 4.525-1.911 6.325-1.745 2.256-3.903 4.223-5.888 6.27-2.126 2.188-4.29 4.346-6.38 6.565-1.56 1.652-3.206 4.217-2.244 6.559 1.14 2.787 4.278 2.448 6.682 1.967a57 57 0 0 0 7.281-1.967 61.3 61.3 0 0 0 13.47-6.516 60.3 60.3 0 0 0 12.786-11.078c.542-.629.616-1.56 0-2.182-.555-.555-1.634-.629-2.183 0-6.121 7.065-13.963 12.631-22.686 16.003a59 59 0 0 1-6.713 2.14c-1.122.283-2.25.536-3.385.746-.635.117-1.85.443-2.342-.148-.13-.154-.136-.339-.13-.475.037-.475.271-.949.506-1.356.591-1.036 1.448-1.844 2.274-2.694 2.029-2.09 4.063-4.18 6.091-6.27 3.668-3.773 9.593-8.735 7.737-14.709-.58-1.886-3.557-1.085-2.965.82"/></svg>