<svg xmlns="http://www.w3.org/2000/svg" width="200" height="200" fill="none"><path fill="#000" d="M99.96 55.424c-3.953.487-7.924.864-11.897 1.121-3.823.247-7.766.566-11.559-.15-5.642-1.067-10.618-4.367-14.373-8.65-2.322-2.651-4.165-5.707-5.536-8.951-.383-.902-1.826-.254-1.563.661 3.03 10.495 7.616 21.477 16.27 28.566 2.203 1.804 4.617 3.285 7.268 4.335l-.205-1.568c-4.713 2.947-10.007 4.963-15.526 5.666-.674.086-1.022.655-.739 1.29 2.596 5.792 6.515 11.002 11.58 14.847a30 30 0 0 0 4.21 2.682l.43-1.599-3.392.196c-.493.027-1.026.017-1.478.243-.489.247-.79.69-.947 1.207-.3.995-.25 2.189-.212 3.218.044 1.087.181 2.174.383 3.24.76 4.044 2.455 7.93 4.24 11.613 3.15 6.499 7.308 12.738 12.817 17.467 2.9 2.49 6.163 4.52 9.76 5.824.435.157.937-.179 1.054-.601.13-.476-.161-.898-.599-1.056-6.032-2.181-10.977-6.605-14.882-11.602-2.13-2.727-3.97-5.687-5.581-8.746-1.727-3.272-3.283-6.694-4.374-10.234-.663-2.147-1.122-4.369-1.118-6.626 0-.555.007-1.131.085-1.684.079-.552.127-.51.67-.542q1.787-.101 3.574-.209c.797-.044 1.228-1.18.43-1.598-5.262-2.771-9.56-7.127-12.672-12.175a41 41 0 0 1-2.5-4.74q-.37.645-.739 1.29c5.83-.745 11.401-2.785 16.387-5.903.67-.418.465-1.303-.205-1.567-4.562-1.804-8.389-5.13-11.463-8.9-3.365-4.126-5.882-8.937-7.851-13.87-1.166-2.921-2.155-5.912-3.027-8.933q-.782.329-1.563.662c2.466 5.837 6.518 11.046 11.802 14.572 2.407 1.608 5.095 2.85 7.91 3.55 3.744.929 7.619.802 11.438.586a206 206 0 0 0 13.696-1.228c.458-.055.855-.353.855-.857-.003-.412-.397-.906-.858-.847"/><path fill="#000" d="M99.718 57.142c4.078.497 8.17.881 12.268 1.138 3.992.25 8.056.511 12.01-.267 5.89-1.16 11.173-4.65 15.089-9.108a34.6 34.6 0 0 0 5.8-9.242q-.786-.329-1.574-.662c-2.952 10.147-7.357 20.682-15.709 27.609-2.035 1.687-4.326 3.12-6.795 4.087-.675.264-.875 1.153-.207 1.567 5.022 3.118 10.632 5.158 16.505 5.902l-.744-1.29c-2.504 5.55-6.245 10.652-11.159 14.318a30.4 30.4 0 0 1-4.123 2.596c-.799.418-.369 1.55.434 1.597q1.571.091 3.138.182c.244.014.902-.027 1.023.113.23.268.161 1.012.179 1.33.096 2.017-.186 4.016-.689 5.968-.94 3.648-2.508 7.167-4.209 10.524-3.076 6.059-7.036 11.81-12.261 16.234-2.656 2.246-5.676 4.108-8.962 5.287-.437.158-.73.583-.603 1.057.117.421.62.757 1.061.6 6.64-2.384 12.013-7.174 16.253-12.688 2.246-2.922 4.181-6.07 5.859-9.345 1.842-3.59 3.551-7.379 4.549-11.296.6-2.355.944-4.865.655-7.293-.066-.553-.176-1.122-.562-1.55-.409-.457-.961-.57-1.549-.614-1.292-.093-2.587-.148-3.879-.223l.434 1.598c5.508-2.88 10.023-7.428 13.298-12.657a41 41 0 0 0 2.601-4.873c.286-.635-.066-1.204-.744-1.29-5.559-.702-10.891-2.722-15.637-5.664l-.206 1.567c10.198-4.002 16.569-13.937 20.527-23.641 1.233-3.021 2.266-6.121 3.179-9.255.262-.906-1.185-1.575-1.574-.662-2.377 5.582-6.217 10.627-11.325 13.994-2.352 1.55-4.939 2.73-7.69 3.385-3.648.867-7.443.675-11.156.463q-6.774-.388-13.508-1.21c-.462-.056-.861.435-.861.857.003.507.4.799.864.857"/><path fill="#000" d="M84.518 125.504c-1.656 3.223-3.314 6.582-3.623 10.246-.298 3.551 1.11 6.749 3.18 9.555 2.05 2.782 4.384 5.526 7.194 7.57 2.622 1.903 5.727 3.062 8.87 3.769 3.198.721 6.481 1.019 9.744 1.265 1.83.14 3.66.219 5.48-.086a11 11 0 0 0 4.373-1.77c5.528-3.773 7.071-10.984 6.498-17.275-.507-5.571-2.759-11.299-7.437-14.665a14 14 0 0 0-1.738-1.059c-.98-.503-1.847.97-.863 1.476 4.692 2.413 7.2 7.392 8.081 12.402.494 2.816.497 5.793-.034 8.599-.555 2.939-1.772 5.758-3.941 7.87-.957.93-2.081 1.719-3.325 2.211-1.522.605-3.149.749-4.774.715-1.638-.035-3.276-.192-4.908-.342a63 63 0 0 1-4.534-.564c-2.954-.496-5.902-1.275-8.544-2.707-2.865-1.555-5.09-3.885-7.153-6.363-1.97-2.368-3.962-5.007-4.41-8.137-.474-3.319.798-6.627 2.203-9.569.367-.766.75-1.518 1.138-2.273.507-.984-.974-1.849-1.477-.868"/><path fill="#000" d="M91.67 133.998c.484 2.999 1.355 6.05 3.272 8.467 2.185 2.76 5.632 3.818 9.038 4.051 3.444.236 7.066-.524 9.958-2.462 2.596-1.743 4.637-4.359 5.474-7.389.247-.894.425-1.87.381-2.801-.052-1.106-.488-1.993-1.191-2.828-1.306-1.551-2.874-2.887-4.544-4.03-.381-.261-.95-.072-1.173.308-.247.424-.076.911.308 1.171 1.355.928 2.6 2.006 3.712 3.215.487.527.994 1.065 1.131 1.791.131.685.018 1.424-.127 2.099-.562 2.646-2.188 5.047-4.362 6.653-2.48 1.828-5.55 2.646-8.61 2.602-2.96-.041-6.18-.743-8.263-2.983-2.075-2.232-2.877-5.396-3.347-8.32-.072-.455-.645-.712-1.057-.599-.49.133-.675.596-.6 1.055M99.802 157.527c1.383 1.367 2.751 2.775 3.866 4.371 1.025 1.47 1.922 3.159 2.073 4.975.296 3.604-2.242 6.372-5.247 7.978-3.8 2.032-8.282 2.217-12.37 3.361-1.957.548-3.873 1.315-5.462 2.6-1.54 1.247-2.53 3.022-2.899 4.954-.43 2.251-.172 4.56.32 6.78a27.5 27.5 0 0 0 2.63 7.026l1.487-.863c-1.569-2.882-1.132-6.506.684-9.185a8.1 8.1 0 0 1 3.924-3.052c1.905-.703 3.938-.86 5.95-.946 2.128-.089 4.267-.106 6.372-.476 2.087-.37 4.01-1.185 5.66-2.515 1.575-1.264 2.807-2.922 3.866-4.625 1.131-1.819 2.142-3.73 3.057-5.666 2.087-4.419 3.718-9.712 1.231-14.316-.526-.97-2.008-.106-1.485.863 2.087 3.864.667 8.458-1.042 12.182a57 57 0 0 1-3.037 5.728c-1.015 1.679-2.18 3.286-3.707 4.543-3.261 2.682-7.649 2.394-11.614 2.603-2.06.11-4.165.336-6.087 1.121a10.06 10.06 0 0 0-4.385 3.422c-2.328 3.186-2.775 7.698-.877 11.185.53.97 2.005.106 1.486-.863a25.8 25.8 0 0 1-2.352-6.163c-.461-1.905-.76-3.916-.502-5.875.247-1.86 1.093-3.525 2.586-4.69 1.544-1.206 3.473-1.826 5.347-2.306 4.165-1.062 8.619-1.37 12.422-3.532 3.181-1.805 5.819-4.875 5.791-8.688-.034-4.501-3.452-8.167-6.468-11.14-.788-.781-2.005.431-1.218 1.209M84.74 9.297c1.468-2.125 3.223-4.134 5.386-5.57C92.282 2.3 94.743 1.58 97.33 1.72c5.171.282 9.815 3.612 12.717 7.767 2.981 4.27 4.453 9.497 4.439 14.691-.013 5.61-1.752 11.118-4.466 15.986-1.379 2.476-3.056 4.71-4.764 6.96-1.605 2.108-3.23 4.412-3.727 7.073a9.6 9.6 0 0 0-.164 2.025c.034 1.102 1.745 1.106 1.711 0-.082-2.746 1.386-5.136 2.947-7.278 1.708-2.346 3.528-4.577 5.003-7.087 2.991-5.092 4.956-10.87 5.158-16.807.188-5.472-1.202-11.093-4.172-15.71-2.954-4.591-7.639-8.337-13.132-9.172-2.789-.422-5.571-.054-8.107 1.206-2.47 1.229-4.545 3.19-6.242 5.342a33 33 0 0 0-1.263 1.713c-.264.381-.072.955.308 1.174.417.255.9.08 1.164-.305"/><path fill="#000" d="M97.643 10.446c.678 1.105.62 2.538-.124 3.602-.802 1.147-2.333 1.488-3.642 1.634-1.607.185-3.242.202-4.801.672a11.5 11.5 0 0 0-4.475 2.559c-.665.614-1.191 1.412-1.924 1.948-.458.334-1.209.614-1.66.17-.788-.774-2.003.434-1.218 1.208.674.662 1.614.829 2.523.638.922-.195 1.673-.826 2.296-1.494.637-.68 1.236-1.378 1.997-1.928A9.6 9.6 0 0 1 89 18.176c3.236-1.167 7.659-.01 9.938-3.17 1.125-1.561 1.197-3.786.192-5.42-.578-.938-2.068-.081-1.487.86"/><path fill="#000" d="M97.783 16.34c1.673 2.603 3.654 5.691 3.258 8.937-.338 2.77-2.586 4.703-4.519 6.47-1.045.959-2.073 1.933-2.95 3.052a19.5 19.5 0 0 0-2.265 3.639c-1.26 2.647-1.984 5.503-2.387 8.4-.461 3.327-.55 6.686-.536 10.041.003 1.101 1.71 1.101 1.707 0-.02-5.753.103-11.895 2.528-17.227.59-1.3 1.311-2.552 2.186-3.677.863-1.108 1.891-2.07 2.923-3.016 2.08-1.906 4.337-3.975 4.901-6.878.748-3.858-1.37-7.487-3.375-10.603-.59-.923-2.07-.065-1.472.862M82.528 7.96a17.8 17.8 0 0 1-2.845 3.175c-1.01.887-2.282 1.538-3.175 2.55-.861.976-1.207 2.231-.841 3.496.345 1.194 1.221 2.145 2.401 2.55l-.205-1.558c-2.179 1.01-4.495 2.169-6.034 4.068-.373.46-.715.948-.968 1.487-.28.593-.383 1.194-.595 1.804-.055.157-.127.256-.174.283-.24.123-.565.136-.828.18-.588.096-1.163.267-1.584.72-.602.648 0 1.59.831 1.425.397-.078.944-.225 1.328-.027a.6.6 0 0 1 .17.16c.062.113-.027.181.059.09-.746.804.461 2.014 1.21 1.206.709-.764.565-1.892-.147-2.608-.814-.815-2.042-.669-3.068-.467l.831 1.425c.124-.133.247-.17.51-.225.246-.051.496-.079.742-.126.592-.12 1.153-.406 1.485-.925.349-.548.383-1.227.612-1.827.181-.467.448-.917.756-1.316 1.41-1.838 3.677-2.902 5.73-3.854.718-.334.427-1.34-.206-1.558-.687-.235-1.183-.979-1.28-1.654-.14-.982.514-1.698 1.297-2.284 1.006-.757 2.025-1.47 2.938-2.346a19.7 19.7 0 0 0 2.528-2.98c.263-.38.069-.949-.308-1.167-.427-.249-.906-.075-1.17.304"/><path fill="#000" d="m83.723 10.306.263.262a.65.65 0 0 0 .273.177.65.65 0 0 0 .328.074.64.64 0 0 0 .328-.075.6.6 0 0 0 .273-.176l.133-.174a.8.8 0 0 0 .116-.429l-.03-.224a.85.85 0 0 0-.22-.374l-.262-.262a.65.65 0 0 0-.273-.177.65.65 0 0 0-.328-.075.64.64 0 0 0-.328.075.6.6 0 0 0-.273.177l-.133.173a.83.83 0 0 0-.117.429l.031.224a.85.85 0 0 0 .219.375M82.21 106.659a55.2 55.2 0 0 0 10.278 16.021c.751.815 1.97-.395 1.225-1.207a52.8 52.8 0 0 1-9.832-15.271c-.18-.426-.574-.73-1.066-.597-.408.116-.785.628-.605 1.054M117.1 106.2c-2.349 5.597-5.702 10.788-9.83 15.273-.748.812.474 2.022 1.224 1.207a55.2 55.2 0 0 0 10.278-16.023c.18-.426-.194-.938-.606-1.05-.502-.137-.889.167-1.066.593"/></svg>