<svg xmlns="http://www.w3.org/2000/svg" width="200" height="200" fill="none"><g fill="#000" clip-path="url(#a)"><path d="M88.156.63c-3.125 3.076-6.254 6.152-9.378 9.23-1.454 1.432-2.886 2.848-3.942 4.616-1.025 1.72-1.897 3.54-2.872 5.295a188 188 0 0 1-6.408 10.663 221 221 0 0 1-3.437 5.158q-.892 1.3-1.803 2.592c-.54.76-1.1 1.51-1.527 2.338-.996 1.931-.889 3.957-.547 6.042.312 1.914.86 3.785 1.548 5.595 1.44 3.78 3.445 7.3 5.497 10.767 4.296 7.264 8.823 14.387 13.47 21.429 4.706 7.127 9.527 14.173 14.366 21.21q.884 1.287 1.774 2.574c.274.395.727.627 1.206.494.423-.116.829-.571.786-1.034a195 195 0 0 1-.812-23.463c.034-1.382-2.103-1.382-2.137 0a195 195 0 0 0 .812 23.463l1.992-.541c-4.745-6.895-9.486-13.787-14.128-20.751-4.625-6.939-9.152-13.946-13.465-21.086-2.082-3.441-4.198-6.891-5.946-10.517-.838-1.738-1.573-3.527-2.129-5.38-.534-1.777-.996-3.687-.97-5.553.026-1.906 1.244-3.356 2.291-4.84a238 238 0 0 0 3.45-5.038 199 199 0 0 0 6.476-10.406 182 182 0 0 0 2.937-5.286c.919-1.73 1.778-3.45 3.12-4.896 1.415-1.524 2.95-2.944 4.433-4.403l4.574-4.501 2.287-2.253c.974-.97-.535-2.489-1.518-1.519"/><path d="M95.504 82.836c-6.946-3.914-12.315-10.62-14.016-18.495a23.9 23.9 0 0 1-.483-6.453c.081-1.377-2.056-1.373-2.137 0-.505 8.453 3.39 16.73 9.523 22.403a32.3 32.3 0 0 0 6.036 4.398c1.197.674 2.274-1.18 1.077-1.853"/><path d="M88.413 1.84q2.937 3.023 5.873 6.054.24-.897.47-1.794c-6.993 2.558-12.003 8.295-15.187 14.89-1.749 3.621-3.125 7.509-3.937 11.452-.94 4.579-.975 9.307-.94 13.963.03 4.008.56 8.453 3.868 11.152.449.365 1.073.438 1.513 0 .376-.377.449-1.15 0-1.519-2.637-2.154-3.146-5.56-3.227-8.787-.111-4.279-.099-8.69.602-12.92.633-3.82 1.86-7.608 3.442-11.136 1.372-3.05 3.077-5.994 5.27-8.526 2.492-2.875 5.579-5.188 9.16-6.5.745-.275 1.065-1.18.471-1.794Q92.854 3.35 89.918.32c-.958-.987-2.467.532-1.505 1.52"/><path d="M76.487 42.329a166 166 0 0 0 22.044 1.45c1.338 0 2.672-.004 3.993-.214 2.475-.39 4.599-1.871 5.369-4.334.867-2.772-.492-5.596-2.433-7.54l-.756 1.833c4.163-.28 8.335-.326 12.503-.142q-.378-.917-.757-1.832c-1.419 1.424-2.517 3.14-3.163 5.05-.282.837-.509 1.712-.363 2.596.145.872.748 1.674 1.654 1.824.569.094 1.15-.15 1.317-.75.141-.516-.176-1.224-.748-1.323-.3-.051-.073.043-.06.043.038.082.03.065-.039-.051q.034.091-.004-.017c-.056-.142-.06-.343-.043-.498.06-.562.338-1.326.582-1.905.555-1.3 1.38-2.459 2.372-3.454.675-.678.154-1.79-.757-1.833a111 111 0 0 0-12.503.142c-.898.06-1.445 1.141-.757 1.832 1.394 1.395 2.505 3.36 1.907 5.381-.603 2.038-2.552 2.815-4.501 2.974-2.535.21-5.13.077-7.669.008a170 170 0 0 1-8.1-.425 170 170 0 0 1-9.101-.956c-.573-.078-1.069.549-1.069 1.072.013.64.509.992 1.082 1.069M81.047 57.922c5.074-2.222 10.554-3.574 16.068-4.025 1.432-.116 2.873-.193 4.309-.171 1.052.013 2.044.18 2.561 1.197 1.004 1.982-1.039 6.329 2.261 6.638 1.642.154 3.343.064 4.993.09 1.765.03 3.526.056 5.292.086.573.008 1.073-.498 1.068-1.073q-.024-2.934-.055-5.87c-.013-1.382-2.15-1.382-2.137 0q.025 2.936.055 5.87l1.069-1.073-9.31-.154c-.282-.004-.573.004-.855-.013-.137-.008.055.047.06.064a8 8 0 0 1-.026-.339c-.021-.742.06-1.484.068-2.227.017-1.257-.196-2.553-.953-3.587-.863-1.171-2.124-1.652-3.539-1.746-1.411-.095-2.86.008-4.27.107a54 54 0 0 0-8.537 1.283 53 53 0 0 0-9.2 3.08c-.53.233-.649 1.01-.384 1.469.316.562.928.63 1.462.394"/><path d="M114.676 40.926c3.338-.073 6.766-.15 9.977-1.155 2.83-.883 5.552-2.6 7.023-5.26.795-1.442 1.09-3.021.821-4.652q-.137.521-.274 1.043c.791-.618 2.437 0 3.014.854 1.056 1.545.372 3.78-.005 5.44-.987 4.382-2.334 8.682-2.868 13.157-.491 4.093.004 8.101 1.27 12.01 1.175 3.626 2.821 7.072 4.266 10.59 1.573 3.84 2.954 7.857 2.958 12.058q.39-.516.786-1.034c-.32.133.112.064.077.099-.03.03-.201-.172-.205-.18-.149-.19-.222-.412-.286-.636a71 71 0 0 0-.53-1.85 52 52 0 0 0-1.296-3.745 53 53 0 0 0-3.406-7.213c-2.659-4.643-6.109-8.887-10.311-12.204-2.479-1.956-5.164-3.595-8.058-4.853-.53-.232-1.145-.159-1.461.386-.265.455-.15 1.236.384 1.468 5.087 2.21 9.52 5.604 13.111 9.83 3.445 4.06 6.078 8.827 7.933 13.813q.77 2.072 1.372 4.197c.227.793.415 1.553.945 2.21.543.673 1.454 1.102 2.3.75.444-.184.786-.519.786-1.034 0-8.165-4.608-15.224-7.134-22.733-.62-1.841-1.141-3.742-1.393-5.673-.283-2.175-.214-4.394.076-6.565.62-4.656 2.159-9.123 3.065-13.722.432-2.193.59-4.87-1.252-6.501-1.577-1.4-3.924-1.768-5.643-.434-.312.245-.333.695-.273 1.043.496 3.004-2.321 5.514-4.745 6.664-3.386 1.6-7.357 1.605-11.016 1.686-1.385.03-1.389 2.176-.008 2.146M113.791 77.403a441 441 0 0 0-1.406 22.631 441 441 0 0 0 .697 45.364c.504 7.573 1.21 15.13 2.107 22.665a435 435 0 0 0 3.741 25.166c.102.571.795.893 1.316.751.599-.167.851-.746.748-1.321a431 431 0 0 1-3.364-22.15 437 437 0 0 1-2.223-22.537 442 442 0 0 1-.966-45.132c.227-7.556.646-15.109 1.261-22.643.077-.931.154-1.863.24-2.794.051-.58-.526-1.073-1.069-1.073-.633 0-1.03.494-1.082 1.073"/><path d="M119.523 194.444c.261.223.022.008.026-.009-.008.06.009.15-.034.202-.167.227-.141.231-.496.201-.838-.064-1.684-.437-2.522-.562-1.821-.27-3.633-.206-5.446.086-3.706.597-7.19 2.154-10.597 3.669l1.608.927c-.749-9.35-.676-18.76.239-28.098.453-4.621 1.21-9.204 1.684-13.825.479-4.677.432-9.281-.06-13.954-.474-4.493-.962-8.973-1.244-13.482a213.58 213.58 0 0 1 1.355-40.537 205 205 0 0 1 6.015-29.42c-.342.263-.688.524-1.03.79 3.432.33 5.809 3.764 6.442 6.909.683 3.394-.578 7.505-3.382 9.629-1.41 1.068-3.142 1.27-4.796 1.733-1.774.494-3.411 1.395-4.343 3.051-1.812 3.214-.641 7.621 1.432 10.423 1.227 1.656 2.732 3.042 4.155 4.518.697.721 1.381 1.464 1.954 2.288.602.858 1.252 1.879 1.192 2.969-.055.948-.658 1.772-1.257 2.463-.773.892-1.581 1.755-2.376 2.63-1.595 1.76-3.236 3.489-4.784 5.295-1.35 1.579-2.278 3.394-2.013 5.531.252 2.056 1.424 3.944 2.945 5.313 1.437 1.295 3.206 2.124 4.737 3.286.718.545 1.538 1.249 1.936 2.077.445.927-.581 1.884-1.081 2.588l-4.262 6.016c-1.21 1.712-2.86 3.51-2.993 5.711-.119 2.012 1.214 3.639 2.698 4.81 1.885 1.489 3.851 2.884 5.775 4.321q1.488 1.109 2.975 2.219l-.218-1.687a143 143 0 0 1-11.832 13.032c-.992.961.521 2.48 1.513 1.519a143 143 0 0 0 11.832-13.032c.466-.579.376-1.24-.218-1.686q-3.034-2.259-6.061-4.519c-.881-.656-1.8-1.283-2.638-1.991-.649-.549-1.321-1.201-1.586-2.038-.286-.914.039-1.785.509-2.574.577-.966 1.278-1.863 1.924-2.781 1.444-2.042 2.894-4.085 4.338-6.127.595-.841 1.347-1.7 1.535-2.747.209-1.167-.329-2.184-1.039-3.068-1.239-1.536-2.958-2.531-4.595-3.583-1.616-1.038-3.133-2.312-3.813-4.183-.735-2.03.06-3.691 1.415-5.214 1.637-1.841 3.309-3.656 4.963-5.479 1.376-1.519 3.27-3.146 3.689-5.257.461-2.296-.847-4.33-2.232-6.033-1.303-1.605-2.876-2.956-4.261-4.488-1.266-1.4-2.24-2.953-2.719-4.798-.406-1.566-.487-3.38.389-4.805.94-1.532 2.783-1.876 4.399-2.262 1.791-.429 3.406-1.06 4.783-2.326 5.6-5.157 4.787-16.03-2.573-19.184a8.2 8.2 0 0 0-2.471-.618c-.462-.043-.911.364-1.03.79a207 207 0 0 0-5.587 26.316 216 216 0 0 0-2.223 26.93 213 213 0 0 0 1.205 27.136c.505 4.638 1.018 9.238.757 13.911-.261 4.677-1.026 9.307-1.59 13.954a157.6 157.6 0 0 0-.629 31.633c.069.863.842 1.266 1.608.927 3.877-1.725 7.993-3.57 12.306-3.647a13.2 13.2 0 0 1 2.963.262c1.051.223 2.12.695 3.201.369 1.535-.464 2.356-2.815 1.035-3.948-1.03-.88-2.548.631-1.501 1.528"/><path d="M113.133 173.341c-1.398-.266-2.83-.472-4.236-.163-1.466.321-2.68 1.33-3.317 2.686-.706 1.514-.864 3.192-1.056 4.836-.21 1.81-.449 3.664-.47 5.488-.009.879.282 1.652.953 2.227a7.9 7.9 0 0 0 2.06 1.266c1.449.605 3.116.738 4.625.283 2.907-.88 4.886-3.978 3.933-6.994-.543-1.717-2.154-2.987-4.001-2.609-1.821.373-2.834 2.308-2.834 4.046 0 1.382 2.137 1.382 2.137 0 0-.772.372-1.884 1.274-1.969.859-.082 1.342.802 1.471 1.536.35 1.986-1.116 3.634-2.98 4.033-1.017.219-2.141.047-3.073-.407-.432-.211-.949-.481-1.274-.846-.334-.373-.137-1.068-.103-1.532q.142-2.105.381-4.205c.141-1.24.256-2.514.658-3.699.351-1.034 1.03-1.798 2.107-2.051 1.031-.244 2.151-.047 3.172.15.564.108 1.154-.158 1.317-.75.145-.528-.175-1.215-.744-1.326"/></g><defs><clipPath id="a"><path fill="#fff" d="M0 0h200v200H0z"/></clipPath></defs></svg>