<svg xmlns="http://www.w3.org/2000/svg" width="200" height="200" fill="none"><path fill="#000" d="M173.377 108.753c-8.38 4.981-18.39 6.361-27.992 5.242-9.979-1.157-19.462-5.133-28.14-10.011-9.056-5.09-17.292-11.454-26.248-16.711-8.127-4.77-16.94-8.252-26.288-9.755-8.937-1.434-18.22-1.183-26.919 1.438-9.15 2.76-17.013 8.184-23.381 15.204C8.005 101.22 2.745 109.72.783 119.11c-1.769 8.459-.596 17.406 4.083 24.787 4.759 7.503 12.84 12.346 21.902 12.095 9.164-.256 17.53-5.666 21.414-13.923.89-1.897 1.55-3.878 1.923-5.942.283-1.552-2.111-2.217-2.395-.655-1.535 8.459-7.992 15.485-16.467 17.475-4.41 1.035-9.14.714-13.352-.966-3.636-1.448-6.776-3.961-9.21-6.981-5.106-6.331-7.019-14.79-5.936-22.742 1.242-9.134 5.946-17.578 11.857-24.564 5.941-7.016 13.263-12.755 22.056-15.78 8.32-2.863 17.341-3.43 26.03-2.227 8.98 1.241 17.55 4.33 25.418 8.764 8.797 4.956 16.804 11.15 25.498 16.278 8.409 4.961 17.48 9.129 27.132 11.011 9.125 1.784 18.876 1.498 27.624-1.837a41 41 0 0 0 6.274-3.02c1.366-.818.119-2.947-1.257-2.129"/><path fill="#000" d="M13.743 125.548c-2.225 4.548-1.162 10.499 2.782 13.82 4.341 3.656 10.75 3.582 15.558.882 2.374-1.33 4.356-3.232 5.98-5.385 1.75-2.311 3.2-5.045 3.77-7.898 1.034-5.192-1.132-10.804-5.29-14.105-5.036-3.995-12.264-4.306-17.852-1.251-1.401.763-.15 2.892 1.251 2.128 4.138-2.261 9.453-2.37 13.566.02 3.79 2.202 6.22 6.513 6.11 10.873-.064 2.537-1.102 4.937-2.404 7.08-1.207 1.99-2.742 3.823-4.605 5.242-3.576 2.729-8.678 3.838-12.816 1.66-4.133-2.177-5.96-7.622-3.909-11.824.293-.596.164-1.33-.447-1.685-.537-.315-1.396-.158-1.694.443M171.509 86.14c-7.65 4.557-16.532 6.123-25.359 5.434-8.797-.685-17.411-3.469-25.294-7.321-8.072-3.942-15.454-9.09-22.95-13.983-7.48-4.882-15.19-9.538-23.67-12.508-9.487-3.326-19.9-4.543-29.884-3.213a59 59 0 0 0-3.815.636c-.656.133-1.038.906-.87 1.517.19.68.87.99 1.53.863 9.956-2 20.447-1.148 30.113 1.832 8.564 2.64 16.333 7.193 23.81 12.017 7.535 4.862 14.882 10.06 22.88 14.169 8.002 4.109 16.645 7.1 25.607 8.203 8.896 1.093 18.071.049 26.173-3.897a42 42 0 0 0 2.986-1.616c1.366-.818.119-2.951-1.257-2.133"/><path fill="#000" d="M199.406 65.152c-7.928-4.71-17.629-2.976-25.493.906-4.167 2.06-7.928 4.764-11.817 7.282-3.626 2.345-7.387 4.345-11.599 5.42-3.85.98-7.948 1.27-11.872.541-4.024-.749-7.685-2.547-10.695-5.306-5.648-5.178-10.457-13.81-6.806-21.402 1.565-3.256 4.511-5.823 8.256-6.099 3.959-.29 7.6 1.779 9.364 5.301.407.813.666 1.69.829 2.582.12.655.924 1.025 1.53.862.696-.187.989-.857.87-1.517-.77-4.213-3.915-7.78-7.998-9.13-4.207-1.389-8.926-.28-12.101 2.755-2.851 2.724-4.411 6.705-4.475 10.597-.08 4.557 1.738 8.996 4.336 12.686 2.608 3.705 6.006 7.03 10.134 9.03 3.87 1.873 8.201 2.647 12.488 2.474 4.406-.177 8.728-1.286 12.727-3.118 4.411-2.025 8.295-4.977 12.364-7.573 7.545-4.808 16.869-8.76 25.84-5.542 1.004.36 1.958.827 2.872 1.374 1.366.818 2.617-1.31 1.246-2.123"/><path fill="#000" d="M125.744 58.003c-.661-1.4-.194-3.296 1.043-4.242 1.57-1.207 3.795-.877 5.36.128 1.629 1.05 3.035 3.05 3.323 4.966.263 1.744-.586 3.602-1.987 4.661-1.739 1.32-4.237 1.32-6.11.31-1.406-.758-2.662 1.37-1.252 2.129 2.539 1.364 5.797 1.458 8.286-.089 2.235-1.39 3.706-3.995 3.586-6.626-.248-5.479-6.805-10.982-12.14-7.81-2.692 1.602-3.547 5.075-2.25 7.82.283.6 1.157.753 1.699.443.616-.37.725-1.089.442-1.69"/></svg>