<svg xmlns="http://www.w3.org/2000/svg" width="200" height="200" fill="none"><g fill="#000" clip-path="url(#a)"><path fill-rule="evenodd" d="M100.67 52.861c-25.984 0-47.048 21.054-47.048 47.024s21.064 47.025 47.048 47.025 47.049-21.054 47.049-47.025c0-25.97-21.065-47.024-47.049-47.024M51.9 99.885c0-26.921 21.835-48.745 48.77-48.745s48.771 21.824 48.771 48.745-21.836 48.745-48.771 48.745S51.9 126.806 51.9 99.885" clip-rule="evenodd"/><path fill-rule="evenodd" d="M101.686.453 87.128 53.767l-1.661-.453L100.025 0z" clip-rule="evenodd"/><path fill-rule="evenodd" d="m101.311 0 14.558 53.314-1.661.453L99.65.453zM99.65 198.741l14.558-53.314 1.661.453-14.558 53.314z" clip-rule="evenodd"/><path fill-rule="evenodd" d="M100.025 199.194 85.467 145.88l1.661-.453 14.558 53.314zM1.952 96.883l53.342 14.55-.454 1.66L1.5 98.543z" clip-rule="evenodd"/><path fill-rule="evenodd" d="m1.499 97.257 53.341-14.55.454 1.66-53.342 14.55zM199.546 102.608l-53.342-14.546.454-1.66 53.341 14.546z" clip-rule="evenodd"/><path fill-rule="evenodd" d="m199.999 102.238-53.341 14.547-.454-1.661 53.342-14.546zM33.822 26.98 58.88 76.24l-1.535.78L32.287 27.76z" clip-rule="evenodd"/><path fill-rule="evenodd" d="M33.242 26.894 79.86 56.61l-.926 1.45-46.618-29.715zM176.077 35.476 126.308 59.55l-.75-1.549 49.769-24.076z" clip-rule="evenodd"/><path fill-rule="evenodd" d="m176.174 34.898-30.64 46.005-1.433-.954 30.639-46.004zM168.287 172.295l-26.408-48.551 1.513-.822 26.408 48.551z" clip-rule="evenodd"/><path fill-rule="evenodd" d="m168.872 172.364-47.424-28.412.886-1.476 47.423 28.412zM22.434 161.192l50.647-22.178.691 1.576-50.647 22.179z" clip-rule="evenodd"/><path fill-rule="evenodd" d="m22.319 161.765 32.353-44.813 1.396 1.007-32.353 44.813z" clip-rule="evenodd"/><path fill-rule="evenodd" d="M99.887 1.836c-54.214 0-98.165 43.974-98.165 98.221s43.95 98.222 98.165 98.222c54.214 0 98.165-43.974 98.165-98.222S154.101 1.836 99.887 1.836M0 100.057C0 44.861 44.72.115 99.887.115c55.166 0 99.886 44.746 99.886 99.942S155.053 200 99.887 200C44.72 200 0 155.253 0 100.057" clip-rule="evenodd"/><path d="M55.558 102.97c6.888-3.76 13.78-7.516 20.666-11.276 6.32-3.446 12.776-7.396 20.004-8.528 5.634-.881 11.308.525 16.576 2.457 5.553 2.04 10.848 4.711 16.371 6.837 5.277 2.026 10.937 3.592 16.641 3.11.732-.06 1.463-.16 2.187-.275-.276-.654-.551-1.312-.831-1.966-5.325 3.902-10.675 7.778-16.28 11.276-5.342 3.334-10.938 6.363-16.9 8.432-5.643 1.958-11.587 3.008-17.57 2.53-6.875-.55-13.422-3.123-19.771-5.649-6.672-2.654-13.336-5.317-20.008-7.976-.826-.331-1.653-.658-2.48-.99-.537-.215-1.183.237-1.325.753-.168.611.21 1.106.753 1.325l20.236 8.067c6.504 2.594 13.086 5.356 20.072 6.337 6.164.865 12.388.207 18.337-1.57 6.138-1.833 11.937-4.715 17.425-7.985 5.721-3.407 11.162-7.267 16.538-11.186l2.053-1.501c.999-.732.401-2.169-.831-1.967-5.552.912-11.144-.438-16.344-2.331-5.557-2.023-10.852-4.694-16.366-6.828-5.329-2.065-11.032-3.67-16.805-3.231-7.283.55-13.869 4.151-20.158 7.58a48292 48292 0 0 0-23.287 12.709c-1.206.65-.12 2.509 1.097 1.846"/><path d="M83.332 88.209c.99-.28 1.876.163 2.686.71.955.645 1.769 1.475 2.66 2.202a17.25 17.25 0 0 0 6.59 3.348c4.726 1.217 9.819.348 13.835-2.444 2.178-1.519 4.012-3.494 5.294-5.825.668-1.214-1.192-2.302-1.859-1.085-2.101 3.82-5.837 6.596-10.112 7.482-4.485.93-9.302-.439-12.737-3.429-1.92-1.67-4.153-3.816-6.926-3.033-1.334.374-.77 2.448.569 2.074M105.013 36.923h-6.154l-1.382 3.832h-1.998l5.609-14.682h1.695l5.62 14.682h-1.988zm-5.57-1.593h4.995l-2.502-6.867z"/><path fill-rule="evenodd" d="M101.051 26.02h1.769l5.661 14.789h-2.103l-1.403-3.832h-6.078l-1.383 3.832h-2.113zm.074.107-5.568 14.574h1.882l1.382-3.831h6.23l1.402 3.831h1.872l-5.579-14.574zm.811 2.179 2.579 7.078h-5.148zm0 .315-2.415 6.655h4.84z" clip-rule="evenodd"/><path d="M155.258 106.96V92.278h4.146q1.917 0 3.39.847t2.27 2.41q.808 1.563.817 3.59v.938q0 2.076-.807 3.64a5.6 5.6 0 0 1-2.29 2.4q-1.483.837-3.46.857zm1.937-13.089v11.506h2.038q2.24 0 3.481-1.392 1.251-1.392 1.251-3.963v-.857q0-2.5-1.181-3.882-1.17-1.391-3.329-1.412zM45.809 98.609q-.273 2.33-1.725 3.6-1.444 1.26-3.844 1.26-2.604 0-4.177-1.865-1.564-1.866-1.564-4.992v-1.411q0-2.047.727-3.6.735-1.553 2.078-2.38 1.342-.837 3.107-.837 2.34 0 3.753 1.311 1.413 1.3 1.645 3.61h-1.947q-.253-1.755-1.1-2.541-.837-.787-2.35-.787-1.857 0-2.916 1.372-1.05 1.371-1.05 3.902v1.422q0 2.39 1 3.801.998 1.412 2.794 1.412 1.614 0 2.471-.726.868-.736 1.15-2.551zM54.723 140.741h-1.937v-14.682h1.937zM138.598 134.213l4.602 11.48 4.602-11.48h2.408v14.07h-1.857v-5.479l.174-5.914-4.621 11.393h-1.421l-4.612-11.364.184 5.885v5.479H136.2v-14.07zM96.076 156.706q0-1.536.6-2.763.608-1.227 1.682-1.894 1.083-.667 2.465-.667 2.137 0 3.452 1.478 1.324 1.479 1.324 3.933v.126q0 1.527-.589 2.744a4.4 4.4 0 0 1-1.673 1.885q-1.083.676-2.494.676-2.128 0-3.452-1.478-1.315-1.48-1.315-3.914zm1.798.213q0 1.74.803 2.793.811 1.053 2.166 1.053 1.362 0 2.165-1.063.803-1.073.803-2.996 0-1.72-.822-2.783-.811-1.072-2.166-1.072-1.325 0-2.136 1.053-.813 1.053-.813 3.015"/><path fill-rule="evenodd" d="M100.823 151.597q-1.326.001-2.352.635-1.017.63-1.602 1.806-.576 1.177-.578 2.668v.126c0 1.583.427 2.833 1.26 3.771.84.936 1.93 1.406 3.292 1.406q1.356-.001 2.38-.644h.001a4.2 4.2 0 0 0 1.592-1.795q.567-1.167.568-2.651v-.126c0-1.596-.429-2.852-1.269-3.789l-.001-.001c-.832-.935-1.922-1.406-3.291-1.406m-2.578.269q1.14-.7 2.578-.699c1.481 0 2.692.515 3.613 1.55.926 1.034 1.379 2.4 1.379 4.076v.126q.001 1.57-.611 2.838-.606 1.262-1.753 1.973v.001l-.114-.183.114.182q-1.141.71-2.608.709c-1.475 0-2.685-.515-3.612-1.55-.92-1.034-1.37-2.393-1.37-4.057v-.126q0-1.58.621-2.858v-.001c.423-.851 1.01-1.514 1.762-1.981zm.271 1.907c.582-.755 1.357-1.137 2.307-1.137.969 0 1.755.388 2.337 1.157.584.755.866 1.733.866 2.913 0 1.309-.272 2.36-.845 3.125l-.001.001c-.576.764-1.363 1.148-2.337 1.148-.968 0-1.753-.381-2.336-1.137l-.001-.001c-.572-.75-.847-1.731-.847-2.923 0-1.334.276-2.392.857-3.146m2.307-.707c-.815 0-1.465.32-1.966.969-.501.651-.767 1.602-.767 2.884 0 1.127.26 2.007.758 2.662.5.648 1.158.969 1.995.969.843 0 1.5-.324 1.993-.977.498-.665.76-1.612.76-2.867 0-1.112-.266-1.99-.777-2.651l-.001-.002c-.501-.661-1.159-.987-1.995-.987" clip-rule="evenodd"/></g><defs><clipPath id="a"><path fill="#fff" d="M0 0h200v200H0z"/></clipPath></defs></svg>