<svg width="200" height="200" viewBox="0 0 200 200" fill="none" xmlns="http://www.w3.org/2000/svg">
<path d="M91.6664 61.828C90.8914 55.5817 90.1445 49.0657 92.2227 43.1267C94.3635 37.0089 99.2419 32.2709 102.148 26.4792C105.183 20.4305 105.93 13.5225 106.63 6.78705C105.961 14.6827 103.676 22.4373 99.9544 29.4268C98.4481 32.2552 96.7073 34.9644 95.4698 37.9183C92.2696 45.5506 92.6509 54.1518 93.0853 62.4238" fill="url(#paint0_radial_501_28547)"/>
<path d="M92.4478 61.828C91.9572 57.8582 91.4728 53.8508 91.7197 49.8465C91.8415 47.871 92.1603 45.908 92.751 44.0172C93.2791 42.3333 94.0354 40.7404 94.9105 39.2102C96.7106 36.0714 98.9669 33.2304 100.914 30.1856C102.964 26.9778 104.458 23.5191 105.402 19.8253C106.492 15.5576 106.955 11.1582 107.408 6.78392C106.886 6.78392 106.367 6.78392 105.845 6.78392C105.205 14.2563 103.095 21.6095 99.6701 28.276C97.895 31.7284 95.7324 34.977 94.3479 38.6238C93.0135 42.1452 92.3916 45.9018 92.1478 49.6489C91.8697 53.9041 92.0759 58.1718 92.3009 62.4206C92.3541 63.4241 93.9167 63.4303 93.8635 62.4206C93.4729 54.9796 93.0729 47.2658 95.4792 40.0976C96.7074 36.4351 98.8232 33.2053 100.63 29.8188C102.411 26.4761 103.873 22.9516 104.986 19.3299C106.242 15.2503 107.046 11.0391 107.411 6.78392C107.449 6.36061 107.027 6 106.63 6C106.17 6 105.892 6.36061 105.849 6.78392C105.449 10.6283 105.039 14.4821 104.177 18.2543C103.333 21.9513 102.005 25.4476 100.017 28.6805C98.1231 31.7629 95.8605 34.5976 93.9885 37.6956C93.0541 39.2415 92.2322 40.8564 91.604 42.5497C90.9102 44.4154 90.5071 46.369 90.2883 48.3445C89.7883 52.8348 90.3352 57.3628 90.8884 61.8217C90.9415 62.2419 91.2102 62.6056 91.6696 62.6056C92.0478 62.6119 92.501 62.2513 92.4478 61.828Z" fill="black"/>
<path d="M80.7096 64.6906C80.4502 63.1918 79.3595 61.9971 78.3657 60.8463C70.6809 51.9377 66.4463 40.1099 66.7275 28.3353" fill="url(#paint1_radial_501_28547)"/>
<path d="M81.4629 64.4839C81.216 63.17 80.4253 62.0756 79.5846 61.0691C78.7658 60.0939 77.9283 59.1406 77.1595 58.1215C75.6032 56.0614 74.2156 53.8727 73.0124 51.5867C70.6154 47.0337 68.9622 42.095 68.1152 37.0183C67.6371 34.1522 67.4433 31.2392 67.5058 28.3355C67.5277 27.3258 65.9651 27.3258 65.9432 28.3355C65.8276 33.5721 66.5776 38.8338 68.1246 43.8353C69.6716 48.8336 71.9998 53.6061 75.0375 57.8644C75.9063 59.0842 76.8345 60.2663 77.8127 61.4015C78.7127 62.4457 79.6909 63.4993 79.9565 64.9009C80.0347 65.318 80.5347 65.5531 80.9191 65.4497C81.3504 65.3274 81.541 64.9009 81.4629 64.4839Z" fill="black"/>
<path d="M103.495 64.691C101.905 59.4795 104.439 53.8792 107.73 49.5425C111.021 45.2058 115.159 41.4398 117.552 36.545C119.015 33.5567 119.759 30.2736 120.487 27.025" fill="url(#paint2_radial_501_28547)"/>
<path d="M104.248 64.4839C102.692 59.2724 105.377 53.8947 108.486 49.8339C111.786 45.5255 115.908 41.7689 118.293 36.8114C119.749 33.7823 120.509 30.4961 121.243 27.2318C121.465 26.2503 119.959 25.8302 119.737 26.8148C119.087 29.7027 118.446 32.644 117.246 35.3627C116.127 37.8963 114.518 40.1572 112.768 42.2894C111.021 44.4186 109.152 46.4442 107.464 48.6204C105.739 50.8468 104.252 53.2456 103.27 55.8984C102.208 58.7707 101.861 61.9346 102.745 64.8978C103.03 65.8636 104.539 65.4528 104.248 64.4839Z" fill="black"/>
<path d="M61.5837 79.7612C60.9243 79.7518 60.268 79.6922 59.6617 79.4696C59.2304 79.5198 58.796 79.57 58.3647 79.6201C60.7461 80.0027 63.0838 80.564 65.3526 81.3573L61.5837 79.7612Z" fill="url(#paint3_radial_501_28547)"/>
<path d="M61.5837 78.9771C61.0618 78.9677 60.5524 78.9301 60.0523 78.7765C59.5179 78.6103 58.9116 78.7733 58.3616 78.836C57.9741 78.8799 57.6428 79.0994 57.5928 79.5165C57.5522 79.8677 57.7647 80.313 58.1522 80.3757C60.5242 80.7614 62.8681 81.3226 65.1401 82.1128C65.5401 82.2508 65.9933 81.9561 66.1027 81.5641C66.2277 81.1125 65.9464 80.7645 65.5558 80.5983C64.2994 80.0684 63.0431 79.5353 61.7868 79.0054C61.3993 78.8423 60.9274 79.181 60.8243 79.5541C60.6992 80.0056 60.9805 80.3537 61.3712 80.5199C62.6275 81.0498 63.8838 81.5829 65.1401 82.1128C65.2776 81.608 65.4183 81.1063 65.5558 80.6014C63.2806 79.8144 60.9399 79.2531 58.5679 78.8643C58.4991 79.3785 58.4304 79.8896 58.3616 80.4039C58.621 80.3725 58.8804 80.3443 59.1398 80.3129C59.4367 80.2785 59.5929 80.2847 59.8836 80.3568C60.4367 80.4917 61.0118 80.5356 61.5805 80.545C62.5868 80.5638 62.5868 78.996 61.5837 78.9771Z" fill="black"/>
<path d="M34.5975 79.6609C23.3187 80.6267 12.04 81.5893 0.76123 82.5551C8.41166 85.3052 16.8215 84.4115 24.897 83.4802C36.0538 82.1945 47.2076 80.9058 58.3645 79.6201C50.6453 78.3753 42.4636 78.9898 34.5975 79.6609Z" fill="url(#paint4_radial_501_28547)"/>
<path d="M34.5978 78.8767C25.8035 79.6293 17.0062 80.3819 8.21191 81.1313C5.72739 81.3445 3.246 81.5546 0.761489 81.7678C-0.119811 81.8431 -0.297944 83.0033 0.555229 83.3075C7.43999 85.7627 14.8904 85.3457 22.0346 84.5806C29.76 83.7527 37.476 82.8089 45.1921 81.9184C49.583 81.4135 53.9707 80.9055 58.3616 80.4007C58.7491 80.3568 59.0804 80.1373 59.1304 79.7202C59.171 79.369 58.9585 78.9206 58.571 78.861C52.3956 77.8733 46.1234 78.0207 39.9074 78.4534C38.1355 78.5788 36.3666 78.7262 34.5978 78.8767C34.1759 78.9112 33.8165 79.2122 33.8165 79.6606C33.8165 80.0557 34.1759 80.4822 34.5978 80.4446C40.7325 79.9209 46.9016 79.4349 53.0582 79.8206C54.7645 79.9272 56.4646 80.1028 58.1553 80.3725C58.2241 79.8582 58.2928 79.3471 58.3616 78.8328C50.6143 79.7265 42.867 80.6202 35.1197 81.5138C31.2601 81.9591 27.3974 82.4107 23.5378 82.8497C19.9532 83.2542 16.353 83.6116 12.7403 83.6116C8.74319 83.6148 4.74921 83.1444 0.967749 81.7961C0.898995 82.3103 0.830243 82.8214 0.761489 83.3357C9.55573 82.5831 18.3531 81.8306 27.1473 81.0811C29.6319 80.8679 32.1133 80.6578 34.5978 80.4446C35.0197 80.4101 35.3791 80.1091 35.3791 79.6606C35.3791 79.2655 35.0197 78.8422 34.5978 78.8767Z" fill="black"/>
<path d="M65.3496 81.3539L69.5186 83.1193C68.1592 82.4326 66.7684 81.8494 65.3496 81.3539Z" fill="url(#paint5_radial_501_28547)"/>
<path d="M65.1433 82.1097C66.359 82.6239 67.5747 83.1382 68.7935 83.6524C68.9654 83.7246 69.1404 83.7998 69.3123 83.8719C69.6686 84.0224 70.0998 83.7371 70.2342 83.4173C70.378 83.0786 70.2623 82.6145 69.9154 82.4389C68.506 81.7302 67.0497 81.1157 65.5589 80.5951C65.1714 80.4603 64.687 80.7488 64.5964 81.1439C64.4964 81.5829 64.7277 81.9654 65.1433 82.1097C65.8402 82.3543 66.5309 82.6177 67.2122 82.903C67.0934 82.8528 67.2965 82.9375 67.3184 82.95C67.4153 82.9908 67.5122 83.0347 67.6091 83.0786C67.7778 83.1539 67.9497 83.2291 68.1185 83.3075C68.456 83.4643 68.7935 83.6273 69.1248 83.7935C69.3248 83.3169 69.5248 82.8372 69.7279 82.3605C68.5122 81.8463 67.2965 81.332 66.0777 80.8178C65.9058 80.7456 65.7308 80.6704 65.5589 80.5983C65.1808 80.4383 64.6839 80.7707 64.5964 81.147C64.4933 81.6048 64.737 81.9403 65.1433 82.1097Z" fill="black"/>
<path d="M118.521 85.9823C121.877 83.1383 126.068 81.4732 130.297 80.2691C152.554 73.9381 176.18 79.3723 199.247 81.1722C188.362 78.6918 177.037 80.545 165.911 81.4324C153.429 82.4296 140.888 82.1944 128.368 81.9592" fill="url(#paint6_radial_501_28547)"/>
<path d="M119.071 86.5372C122.899 83.3168 127.784 81.6768 132.559 80.4759C137.741 79.1714 143.051 78.4753 148.379 78.2056C153.764 77.9359 159.164 78.0927 164.539 78.4627C170.008 78.839 175.462 79.4379 180.909 80.0588C186.331 80.6765 191.75 81.3194 197.185 81.7897C197.869 81.8493 198.554 81.9057 199.238 81.959C200.116 82.028 200.301 80.6138 199.444 80.4194C190.497 78.3969 181.29 79.2184 172.252 80.0776C167.63 80.5166 163.011 80.9086 158.37 81.1124C153.667 81.3194 148.957 81.3884 144.251 81.3821C138.95 81.3758 133.653 81.2755 128.356 81.1783C127.35 81.1594 127.35 82.7273 128.356 82.7461C137.719 82.9217 147.085 83.0973 156.448 82.7586C161.105 82.5893 165.749 82.2601 170.39 81.8211C174.912 81.3946 179.434 80.9274 183.975 80.7706C189.019 80.595 194.091 80.8145 199.026 81.9308C199.094 81.4166 199.163 80.9055 199.232 80.3912C193.722 79.9585 188.228 79.3313 182.737 78.7011C177.234 78.0708 171.73 77.4436 166.208 77.0172C160.752 76.597 155.273 76.3775 149.801 76.5782C144.385 76.7757 138.969 77.3872 133.681 78.5944C128.74 79.7202 123.653 81.2629 119.477 84.245C118.952 84.6181 118.446 85.0164 117.952 85.4303C117.627 85.7031 117.671 86.2581 117.952 86.5403C118.287 86.857 118.749 86.81 119.071 86.5372Z" fill="black"/>
<path d="M78.2285 104.505C76.669 107.713 73.0032 109.23 70.5468 111.811C64.884 117.766 66.7622 127.719 62.8088 134.927C61.3244 137.634 59.0711 139.835 56.6929 141.795" fill="url(#paint7_radial_501_28547)"/>
<path d="M77.5531 104.11C76.2812 106.675 73.656 108.13 71.5153 109.873C69.2933 111.679 67.7526 113.978 66.7713 116.662C64.8399 121.952 65.0618 127.81 62.8679 133.021C61.4585 136.373 58.9021 138.963 56.1425 141.24C55.8175 141.509 55.8644 142.071 56.1425 142.35C56.4644 142.673 56.9207 142.619 57.2489 142.35C59.7802 140.261 62.1835 137.885 63.6961 134.928C65.0087 132.369 65.6587 129.547 66.1681 126.734C67.1338 121.378 67.6369 115.373 71.9653 111.535C74.3592 109.412 77.425 107.882 78.9063 104.9C79.3501 104 78.0031 103.207 77.5531 104.11Z" fill="black"/>
<path d="M110.121 108.098C116.321 114.075 118.262 123.187 119.062 131.779C119.362 134.996 119.549 138.251 120.406 141.365C121.262 144.482 122.865 147.505 125.468 149.408" fill="url(#paint8_radial_501_28547)"/>
<path d="M109.568 108.65C113.612 112.573 115.787 117.894 117.002 123.316C117.624 126.082 118.009 128.894 118.274 131.716C118.596 135.137 118.781 138.618 119.753 141.933C120.687 145.112 122.381 148.091 125.072 150.085C125.412 150.336 125.944 150.142 126.14 149.803C126.372 149.405 126.2 148.982 125.859 148.731C123.618 147.072 122.19 144.498 121.368 141.873C120.359 138.653 120.165 135.266 119.856 131.927C119.331 126.245 118.381 120.509 116.012 115.282C114.712 112.407 112.937 109.745 110.671 107.543C109.949 106.841 108.843 107.948 109.568 108.65Z" fill="black"/>
<path d="M95.3076 108.098C97.4484 123.049 87.5853 136.953 85.2352 151.87C83.8351 160.756 85.1977 170.063 89.0917 178.169C91.5543 183.299 94.992 187.946 97.0484 193.251C92.1731 185.487 89.4917 176.35 89.3979 167.172C89.3511 162.685 89.9073 158.216 90.4636 153.764C91.6981 143.88 92.9325 133.999 94.167 124.116" fill="url(#paint9_radial_501_28547)"/>
<path d="M94.5543 108.305C95.3293 113.808 94.3761 119.359 92.8479 124.649C91.2635 130.136 89.0852 135.426 87.2789 140.838C85.4288 146.37 84.0349 152.045 83.9255 157.906C83.813 163.879 84.8787 169.9 87.0664 175.459C88.1727 178.269 89.5852 180.919 91.0916 183.531C92.601 186.146 94.1699 188.736 95.4481 191.477C95.7512 192.129 96.0356 192.787 96.2981 193.458C96.7731 193.258 97.2513 193.057 97.7263 192.853C93.2229 185.657 90.5978 177.306 90.2259 168.815C90.0196 164.083 90.5509 159.367 91.1353 154.679C91.7322 149.882 92.3323 145.084 92.9323 140.283C93.6042 134.893 94.2793 129.503 94.9512 124.112C95.0043 123.692 94.5543 123.328 94.1699 123.328C93.7042 123.328 93.4417 123.689 93.3886 124.112C92.176 133.827 90.9634 143.541 89.7509 153.256C89.1571 158.019 88.5321 162.807 88.6289 167.62C88.7133 171.926 89.354 176.231 90.5165 180.373C91.826 185.045 93.8074 189.536 96.3794 193.647C96.8263 194.361 98.1451 193.907 97.8076 193.041C95.6012 187.394 91.9291 182.512 89.4165 177.018C86.957 171.634 85.635 165.717 85.4975 159.8C85.4288 156.859 85.6475 153.911 86.1725 151.017C86.6851 148.198 87.4445 145.432 88.3164 142.704C90.0571 137.257 92.2448 131.967 93.9324 126.505C95.5762 121.184 96.7388 115.602 96.3075 110.008C96.2512 109.299 96.17 108.594 96.07 107.888C96.0106 107.468 95.4793 107.239 95.1074 107.34C94.6511 107.465 94.4949 107.885 94.5543 108.305Z" fill="black"/>
<path d="M92.9919 104.508C103.586 104.508 112.174 95.8909 112.174 85.2611C112.174 74.6313 103.586 66.0142 92.9919 66.0142C82.3978 66.0142 73.8096 74.6313 73.8096 85.2611C73.8096 95.8909 82.3978 104.508 92.9919 104.508Z" fill="url(#paint10_radial_501_28547)"/>
<path fill-rule="evenodd" clip-rule="evenodd" d="M92.9919 66.6413C82.743 66.6413 74.4346 74.9777 74.4346 85.2611C74.4346 95.5445 82.743 103.881 92.9919 103.881C103.241 103.881 111.549 95.5445 111.549 85.2611C111.549 74.9777 103.241 66.6413 92.9919 66.6413ZM73.1846 85.2611C73.1846 74.2849 82.0526 65.387 92.9919 65.387C103.931 65.387 112.799 74.2849 112.799 85.2611C112.799 96.2372 103.931 105.135 92.9919 105.135C82.0526 105.135 73.1846 96.2372 73.1846 85.2611Z" fill="black"/>
<path d="M71.1215 92.5484C66.5588 91.984 61.7773 93.6522 58.5458 96.9353C56.8708 98.638 55.6238 100.708 54.1206 102.564C52.233 104.894 49.9329 106.885 47.3608 108.418C50.3173 106.358 53.2768 104.301 56.2332 102.241C57.3114 101.491 58.4115 100.717 59.1678 99.6414C60.3334 97.9826 60.8179 95.5211 62.7492 94.919" fill="url(#paint11_radial_501_28547)"/>
<path d="M71.1216 91.7646C67.3683 91.3162 63.4462 92.3133 60.3242 94.4456C58.6553 95.587 57.3115 97.0294 56.0895 98.6317C54.8301 100.287 53.6769 102.009 52.2393 103.52C50.6767 105.163 48.9079 106.574 46.9672 107.738C47.2297 108.189 47.4922 108.641 47.7547 109.092C50.3736 107.267 52.9956 105.446 55.6145 103.621C56.7896 102.802 58.0428 102.025 59.0491 100.993C59.896 100.127 60.4179 99.0833 60.9554 98.014C61.4211 97.089 61.9555 96.0009 62.9587 95.6685C63.9087 95.3549 63.5025 93.8404 62.543 94.1571C60.2179 94.9254 59.7616 97.4465 58.4928 99.2401C57.7209 100.331 56.5333 101.074 55.4583 101.824C54.1269 102.752 52.7956 103.677 51.4643 104.605C49.9642 105.649 48.4641 106.694 46.964 107.738C46.1484 108.305 46.8765 109.616 47.7516 109.092C49.4954 108.048 51.1236 106.803 52.5862 105.392C54.0582 103.969 55.2895 102.354 56.4927 100.698C57.6459 99.1146 58.8366 97.5593 60.3773 96.3333C61.7805 95.2201 63.4149 94.3829 65.1244 93.8623C67.0683 93.2697 69.0996 93.091 71.1185 93.3293C71.5373 93.3795 71.8998 92.9342 71.8998 92.5454C71.9029 92.0813 71.5435 91.8147 71.1216 91.7646Z" fill="black"/>
<path d="M114.858 71.6082C116.624 64.8414 122.54 59.3539 129.403 58.1184C130.731 57.8801 132.278 57.6669 132.966 56.5035C128.656 61.7088 119.987 62.1133 116.59 67.9582" fill="url(#paint12_radial_501_28547)"/>
<path d="M115.612 71.8182C117.259 65.5939 122.478 60.5328 128.725 59.0622C130.478 58.6483 132.572 58.6107 133.638 56.9048C134.1 56.1648 132.988 55.2649 132.41 55.9547C128.931 60.1127 123.147 61.0095 118.962 64.211C117.746 65.1423 116.69 66.2398 115.909 67.5662C115.396 68.4379 116.746 69.225 117.259 68.3564C118.556 66.152 120.706 64.7504 122.934 63.5996C125.309 62.3735 127.819 61.3983 130.084 59.9653C131.353 59.1625 132.547 58.2156 133.513 57.0616C133.103 56.7449 132.694 56.4282 132.285 56.1115C131.916 56.701 131.231 56.9299 130.584 57.0898C129.794 57.2874 128.984 57.3815 128.194 57.5759C126.578 57.9678 125.012 58.595 123.559 59.4009C120.628 61.0251 118.115 63.4177 116.334 66.2586C115.337 67.8453 114.577 69.5887 114.099 71.4043C113.849 72.3764 115.355 72.7934 115.612 71.8182Z" fill="black"/>
<path d="M71.1218 70.7146C67.256 70.8463 63.387 70.8871 59.5181 70.8369C58.2149 70.8212 56.8992 70.793 55.6366 70.47C53.7021 69.9808 51.9989 68.83 50.4894 67.5225C48.5987 65.8856 46.8361 63.6687 47.0424 61.1727C49.605 63.6499 52.627 65.6473 55.9054 67.0302C60.2306 68.8551 64.9184 69.5952 69.5561 70.3226" fill="url(#paint13_radial_501_28547)"/>
<path d="M71.1218 69.9306C67.0872 70.0655 63.0464 70.1219 59.0087 70.0435C57.2086 70.009 55.4897 69.8021 53.874 68.9492C52.3739 68.159 51.002 67.0646 49.8456 65.826C48.6581 64.5529 47.6955 62.9757 47.8174 61.1726C47.3736 61.3576 46.9267 61.5427 46.483 61.7277C48.7581 63.9164 51.3707 65.757 54.2115 67.1242C57.2336 68.5792 60.4712 69.4791 63.7527 70.1251C65.6059 70.4919 67.4748 70.7835 69.3436 71.0783C69.7593 71.1442 70.1843 70.9717 70.3062 70.5296C70.4093 70.1564 70.1812 69.6296 69.7593 69.5638C66.5091 69.0558 63.2464 68.5415 60.0743 67.6478C57.0648 66.7981 54.2084 65.5595 51.5957 63.8348C50.1644 62.8879 48.83 61.8092 47.5924 60.6176C47.083 60.1253 46.3048 60.5016 46.2579 61.1726C46.0048 64.8665 49.2831 67.9081 52.1114 69.7331C53.799 70.8212 55.6366 71.4138 57.6336 71.5549C59.6962 71.7023 61.7838 71.6459 63.8496 71.6365C66.2747 71.6239 68.6967 71.5769 71.1218 71.4954C72.125 71.464 72.1281 69.8961 71.1218 69.9306Z" fill="black"/>
<path d="M115.102 98.7007C121.153 97.9262 126.959 101.024 132.225 104.11C136.044 106.349 140.057 108.885 141.854 112.94C137.466 110.221 133.075 107.5 128.688 104.781C127.738 104.191 126.781 103.599 125.747 103.179C123.872 102.413 121.818 102.241 119.856 101.746C117.893 101.253 115.887 100.328 114.862 98.5753" fill="url(#paint14_radial_501_28547)"/>
<path d="M115.102 99.4845C119.409 98.9546 123.575 100.4 127.372 102.319C129.247 103.266 131.072 104.323 132.875 105.405C134.456 106.355 136.022 107.355 137.428 108.553C138.994 109.886 140.329 111.444 141.179 113.335C141.535 112.977 141.891 112.62 142.247 112.263C138.56 109.977 134.872 107.694 131.187 105.408C129.412 104.307 127.656 103.059 125.69 102.319C123.821 101.617 121.812 101.454 119.893 100.946C118.215 100.504 116.468 99.7291 115.537 98.1801C115.018 97.3178 113.665 98.1048 114.186 98.9703C115.115 100.513 116.643 101.473 118.293 102.084C120.112 102.758 122.062 102.928 123.931 103.41C125.978 103.94 127.697 105.088 129.475 106.189C131.341 107.346 133.206 108.5 135.072 109.657C137.2 110.977 139.329 112.294 141.46 113.614C141.754 113.796 142.166 113.733 142.407 113.492C142.669 113.228 142.672 112.861 142.529 112.542C140.894 108.914 137.582 106.455 134.291 104.43C130.584 102.15 126.706 99.889 122.515 98.6442C120.118 97.9324 117.593 97.6063 115.102 97.9104C114.683 97.9606 114.321 98.2334 114.321 98.6943C114.321 99.0832 114.68 99.5347 115.102 99.4845Z" fill="black"/>
<defs>
<radialGradient id="paint0_radial_501_28547" cx="0" cy="0" r="1" gradientUnits="userSpaceOnUse" gradientTransform="translate(98.7499 34.6058) scale(20.3802 20.4489)">
<stop offset="0.5744" stop-opacity="0"/>
<stop offset="0.7977" stop-opacity="0.6512"/>
<stop offset="1" stop-opacity="0.95"/>
</radialGradient>
<radialGradient id="paint1_radial_501_28547" cx="0" cy="0" r="1" gradientUnits="userSpaceOnUse" gradientTransform="translate(73.7105 46.5128) scale(13.7332 13.7794)">
<stop offset="0.5744" stop-opacity="0"/>
<stop offset="0.7977" stop-opacity="0.6512"/>
<stop offset="1" stop-opacity="0.95"/>
</radialGradient>
<radialGradient id="paint2_radial_501_28547" cx="0" cy="0" r="1" gradientUnits="userSpaceOnUse" gradientTransform="translate(111.749 45.8581) scale(14.641 14.6903)">
<stop offset="0.5744" stop-opacity="0"/>
<stop offset="0.7977" stop-opacity="0.6512"/>
<stop offset="1" stop-opacity="0.95"/>
</radialGradient>
<radialGradient id="paint3_radial_501_28547" cx="0" cy="0" r="1" gradientUnits="userSpaceOnUse" gradientTransform="translate(35.1392 81.6484) scale(24.3871 24.4692)">
<stop offset="0.5744" stop-opacity="0"/>
<stop offset="0.7977" stop-opacity="0.6512"/>
<stop offset="1" stop-opacity="0.95"/>
</radialGradient>
<radialGradient id="paint4_radial_501_28547" cx="0" cy="0" r="1" gradientUnits="userSpaceOnUse" gradientTransform="translate(35.1389 81.6492) scale(24.387 24.4691)">
<stop offset="0.5744" stop-opacity="0"/>
<stop offset="0.7977" stop-opacity="0.6512"/>
<stop offset="1" stop-opacity="0.95"/>
</radialGradient>
<radialGradient id="paint5_radial_501_28547" cx="0" cy="0" r="1" gradientUnits="userSpaceOnUse" gradientTransform="translate(35.1393 81.6482) scale(24.3871 24.4692)">
<stop offset="0.5744" stop-opacity="0"/>
<stop offset="0.7977" stop-opacity="0.6512"/>
<stop offset="1" stop-opacity="0.95"/>
</radialGradient>
<radialGradient id="paint6_radial_501_28547" cx="0" cy="0" r="1" gradientUnits="userSpaceOnUse" gradientTransform="translate(158.883 81.6338) scale(28.7047 28.8013)">
<stop offset="0.5744" stop-opacity="0"/>
<stop offset="0.7977" stop-opacity="0.6512"/>
<stop offset="1" stop-opacity="0.95"/>
</radialGradient>
<radialGradient id="paint7_radial_501_28547" cx="0" cy="0" r="1" gradientUnits="userSpaceOnUse" gradientTransform="translate(67.4607 123.151) scale(15.1863 15.2374)">
<stop offset="0.5744" stop-opacity="0"/>
<stop offset="0.7977" stop-opacity="0.6512"/>
<stop offset="1" stop-opacity="0.95"/>
</radialGradient>
<radialGradient id="paint8_radial_501_28547" cx="0" cy="0" r="1" gradientUnits="userSpaceOnUse" gradientTransform="translate(117.795 128.751) scale(15.5343 15.5866)">
<stop offset="0.5744" stop-opacity="0"/>
<stop offset="0.7977" stop-opacity="0.6512"/>
<stop offset="1" stop-opacity="0.95"/>
</radialGradient>
<radialGradient id="paint9_radial_501_28547" cx="0" cy="0" r="1" gradientUnits="userSpaceOnUse" gradientTransform="translate(90.8734 150.673) scale(30.3211 30.4231)">
<stop offset="0.5744" stop-opacity="0"/>
<stop offset="0.7977" stop-opacity="0.6512"/>
<stop offset="1" stop-opacity="0.95"/>
</radialGradient>
<radialGradient id="paint10_radial_501_28547" cx="0" cy="0" r="1" gradientUnits="userSpaceOnUse" gradientTransform="translate(92.9906 85.2604) scale(19.1808 19.2454)">
<stop offset="0.5744" stop-opacity="0"/>
<stop offset="0.7977" stop-opacity="0.6512"/>
<stop offset="1" stop-opacity="0.95"/>
</radialGradient>
<radialGradient id="paint11_radial_501_28547" cx="0" cy="0" r="1" gradientUnits="userSpaceOnUse" gradientTransform="translate(59.241 100.428) scale(10.1126 10.1467)">
<stop offset="0.5744" stop-opacity="0"/>
<stop offset="0.7977" stop-opacity="0.6512"/>
<stop offset="1" stop-opacity="0.95"/>
</radialGradient>
<radialGradient id="paint12_radial_501_28547" cx="0" cy="0" r="1" gradientUnits="userSpaceOnUse" gradientTransform="translate(123.912 64.0572) scale(8.32449 8.35253)">
<stop offset="0.5744" stop-opacity="0"/>
<stop offset="0.7977" stop-opacity="0.6512"/>
<stop offset="1" stop-opacity="0.95"/>
</radialGradient>
<radialGradient id="paint13_radial_501_28547" cx="0" cy="0" r="1" gradientUnits="userSpaceOnUse" gradientTransform="translate(59.0719 66.015) scale(9.1783 9.2092)">
<stop offset="0.5744" stop-opacity="0"/>
<stop offset="0.7977" stop-opacity="0.6512"/>
<stop offset="1" stop-opacity="0.95"/>
</radialGradient>
<radialGradient id="paint14_radial_501_28547" cx="0" cy="0" r="1" gradientUnits="userSpaceOnUse" gradientTransform="translate(128.356 105.758) scale(10.8024 10.8388)">
<stop offset="0.5744" stop-opacity="0"/>
<stop offset="0.7977" stop-opacity="0.6512"/>
<stop offset="1" stop-opacity="0.95"/>
</radialGradient>
</defs>
</svg>
