<svg width="200" height="200" viewBox="0 0 200 200" fill="none" xmlns="http://www.w3.org/2000/svg">
<g clip-path="url(#clip0_501_28722)">
<path d="M6.26604 47.2733C7.49482 50.2776 8.4213 53.3956 9.02195 56.5843C9.59904 59.6592 9.81496 62.836 10.8906 65.8011C12.881 71.2802 17.5684 75.1748 22.6798 77.6732C25.9225 79.2577 29.3576 80.3912 32.7809 81.5129C33.9861 81.9051 34.5004 80.0147 33.303 79.6225C27.7873 77.8183 22.0242 75.9553 17.5998 72.0333C15.6683 70.3232 14.0077 68.2563 13.0106 65.8639C11.8367 63.0439 11.5816 59.9415 11.0791 56.9608C10.4863 53.4623 9.50482 50.0422 8.1622 46.7556C7.96198 46.2653 7.51052 45.9202 6.95306 46.0692C6.48589 46.1947 6.06583 46.7791 6.26604 47.2733Z" fill="black"/>
<path d="M35.8666 80.1753C34.0725 79.8851 32.2823 79.9714 30.5236 80.4499C28.863 80.9009 27.2848 81.65 25.7734 82.458C25.0235 82.858 24.2855 83.2816 23.5474 83.6973C22.8212 84.1092 22.1106 84.5837 21.349 84.9249C19.92 85.5642 18.2908 85.7054 16.748 85.5133C14.9146 85.2819 13.1637 84.5641 11.5934 83.611C10.5099 82.9561 9.52448 84.6504 10.6041 85.3054C13.572 87.1056 17.223 88.1018 20.662 87.2272C22.3265 86.8036 23.7555 85.8349 25.2316 85.0034C26.6999 84.1758 28.1838 83.3365 29.7737 82.7521C31.56 82.0932 33.4522 81.7598 35.3484 82.0697C35.8705 82.156 36.4044 81.9324 36.5575 81.3833C36.6792 80.9127 36.3926 80.2616 35.8666 80.1753Z" fill="black"/>
<path d="M9.91338 84.9251C12.5711 88.8864 15.861 92.6359 20.7996 93.487C25.0002 94.2126 30.1352 94.342 33.3622 91.0671C35.4625 88.9374 36.228 85.9213 36.8875 83.1013C37.1741 81.8737 35.2819 81.3482 34.9953 82.5797C34.4653 84.8428 33.9275 87.2705 32.4592 89.1374C31.2501 90.6709 29.4521 91.4554 27.5638 91.7809C25.6872 92.1025 23.7047 91.9731 21.8321 91.6828C19.775 91.3612 17.9142 90.667 16.2732 89.361C14.3927 87.8667 12.9363 85.9174 11.6093 83.9368C10.9105 82.8935 9.20674 83.874 9.91338 84.9251Z" fill="black"/>
<path d="M44.3658 93.9026C43.6042 97.7698 42.0732 101.586 38.9757 104.175C37.5742 105.343 35.8704 106.139 34.0645 106.426C32.2861 106.708 30.4489 106.445 28.749 105.9C26.7429 105.253 24.8742 104.163 23.2647 102.806C23.033 103.363 22.8014 103.924 22.5698 104.48C24.2697 104.426 26.0049 104.096 27.4888 103.229C28.9963 102.351 29.9503 100.958 30.7551 99.4524C31.4853 98.0875 32.1762 96.7069 33.4482 95.7617C34.7044 94.8283 36.259 94.2909 37.8176 94.1772C39.9729 94.0164 42.081 94.5223 44.0753 95.3028C44.57 95.495 45.151 95.091 45.2845 94.6165C45.4376 94.0595 45.096 93.6046 44.5974 93.4085C41.1113 92.0475 37.1581 91.6122 33.7073 93.3104C32.1801 94.0634 30.9357 95.2361 30.0406 96.6795C29.1926 98.0483 28.6351 99.6563 27.4653 100.802C26.1815 102.057 24.3089 102.461 22.5698 102.516C21.7846 102.539 21.1918 103.61 21.8749 104.19C25.0744 106.889 29.2829 108.83 33.5542 108.446C37.8843 108.057 41.4804 105.296 43.6513 101.625C44.9586 99.4132 45.7595 96.9344 46.2541 94.4282C46.3562 93.9105 46.1049 93.3692 45.5671 93.2202C45.0921 93.0869 44.4718 93.381 44.3658 93.9026Z" fill="black"/>
<path d="M50.7098 103.37C48.3347 104.743 46.5956 106.771 46.1559 109.532C45.6809 112.505 46.6466 115.925 44.9546 118.608C44.4364 119.427 45.4728 120.478 46.2972 119.949C48.6056 118.47 50.9258 116.956 52.9004 115.039C54.883 113.113 56.5946 110.626 56.5279 107.755C56.4965 106.496 54.5336 106.492 54.565 107.755C54.6239 110.152 53.0417 112.211 51.3183 113.838C49.5046 115.552 47.4043 116.913 45.3079 118.255C45.7555 118.702 46.203 119.149 46.6506 119.596C48.4093 116.807 47.7105 113.568 48.001 110.473C48.107 109.328 48.4329 108.257 49.0688 107.316C49.7048 106.371 50.6941 105.645 51.7031 105.061C52.7905 104.433 51.8051 102.735 50.7098 103.37Z" fill="black"/>
<path d="M59.5349 111.227C57.3404 112.764 55.7072 114.964 54.8828 117.514C54.4824 118.753 54.3175 120.051 54.3214 121.353C54.3254 122.616 54.4824 123.997 53.7757 125.115C53.5441 125.479 53.6305 126.001 53.9289 126.303C54.2625 126.636 54.7101 126.632 55.1184 126.456C56.2451 125.97 57.3678 125.417 58.3846 124.722C59.2954 124.099 60.1198 123.318 60.4496 122.236C60.7951 121.094 60.3475 119.914 60.6223 118.773C60.8422 117.867 61.3839 117.051 62.1613 116.525C63.2016 115.823 62.2201 114.125 61.1719 114.831C60.2494 115.455 59.5074 116.29 59.0599 117.314C58.5652 118.443 58.5691 119.518 58.628 120.726C58.6516 121.228 58.6359 121.691 58.3532 122.122C58.1098 122.487 57.7526 122.781 57.3953 123.028C56.3785 123.722 55.2558 124.279 54.1291 124.762C54.5766 125.209 55.0241 125.656 55.4717 126.103C56.2058 124.942 56.304 123.573 56.2922 122.232C56.2804 120.996 56.2843 119.812 56.6023 118.608C57.203 116.337 58.5888 114.27 60.5203 112.917C60.9521 112.615 61.1562 112.058 60.8736 111.576C60.6263 111.148 59.9707 110.921 59.5349 111.227Z" fill="black"/>
<path d="M6.9176 47.7322C9.489 49.4658 12.2174 50.9483 15.0676 52.1602C17.8078 53.3212 20.7089 54.1409 23.3235 55.5763C28.1837 58.2394 30.9317 63.2714 32.3175 68.4721C33.2362 71.9157 33.6366 75.4651 34.0292 78.9989C34.0881 79.5245 34.4374 79.9794 35.0106 79.9794C35.4974 79.9794 36.051 79.5284 35.9921 78.9989C35.305 72.806 34.5709 66.3973 31.3557 60.9182C29.9424 58.51 28.0777 56.3608 25.7693 54.7723C23.2293 53.0231 20.2378 52.0975 17.3877 50.9993C14.0508 49.7128 10.8748 48.0381 7.9069 46.0418C6.85872 45.3319 5.87334 47.0302 6.9176 47.7322Z" fill="black"/>
<path d="M36.0158 81.6227C36.059 79.8068 36.538 78.0223 37.4252 76.4338C38.2692 74.9238 39.549 73.8649 40.8053 72.7079C42.089 71.5273 43.1608 70.1742 43.8674 68.5701C44.5701 66.9738 44.9627 65.2795 45.0491 63.5342C45.1433 61.6241 44.8528 59.6748 44.1854 57.8825C44.0009 57.3883 43.5219 57.0471 42.9763 57.1961C42.4973 57.3255 42.1047 57.9021 42.2892 58.4041C43.3885 61.3613 43.4238 64.8167 42.1047 67.719C41.4138 69.2329 40.4088 70.4213 39.1839 71.5312C37.8727 72.7196 36.6008 73.8806 35.7253 75.4455C34.6693 77.3359 34.0961 79.4617 34.0451 81.6266C34.0254 82.8856 35.9883 82.8856 36.0158 81.6227Z" fill="black"/>
<path d="M42.6582 58.6943C44.201 60.271 45.685 61.9261 46.7646 63.8636C47.8285 65.7697 48.2956 67.7935 48.2053 69.9702C48.064 73.3589 47.3888 77.6418 44.3463 79.7009C42.1086 81.2148 39.2545 81.2619 36.6478 81.3246C35.3876 81.356 35.3837 83.317 36.6478 83.2857C39.3841 83.219 42.2499 83.1013 44.7153 81.7717C46.584 80.7598 47.9227 79.0381 48.7471 77.1084C49.5911 75.1278 49.9641 72.9941 50.1172 70.8566C50.2938 68.3857 49.9916 66.0639 48.9355 63.8047C47.7813 61.3378 45.9362 59.2434 44.044 57.3098C43.1607 56.4038 41.7709 57.7922 42.6582 58.6943Z" fill="black"/>
<path d="M45.8304 94.7617C50.3137 94.8127 54.8833 93.8675 58.4047 90.9455C61.6945 88.2197 63.1353 84.027 62.6642 79.8304C62.3894 77.4105 61.6278 75.0925 60.4697 72.9511C60.0732 72.2176 58.8719 72.3745 58.6756 73.1864C58.3027 74.7199 57.6706 76.226 56.4772 77.3006C55.2366 78.4184 53.4857 78.6851 51.9468 79.1832C50.3254 79.7088 48.865 80.5403 47.7266 81.8267C46.5881 83.1171 45.7872 84.6781 45.3672 86.3449C44.8058 88.5727 44.8882 90.8788 45.269 93.1262C45.3554 93.6478 46.0031 93.942 46.4782 93.8125C47.0317 93.6596 47.2515 93.1301 47.1652 92.6046C46.6116 89.3022 46.9061 85.5409 49.3204 82.9955C50.4314 81.8228 51.7937 81.2619 53.3169 80.8187C54.9736 80.3363 56.6263 79.8382 57.9219 78.6381C59.3155 77.3477 60.1282 75.5239 60.5678 73.708C59.9711 73.7865 59.3705 73.8649 58.7738 73.9434C60.5247 77.1791 61.408 81.1207 60.3284 84.7173C59.2763 88.2158 56.2495 90.6827 52.8694 91.8241C50.6002 92.5889 48.2173 92.8281 45.8343 92.8046C44.5663 92.7889 44.5663 94.7499 45.8304 94.7617Z" fill="black"/>
<path d="M53.6662 104.339C55.0756 102.206 57.1759 100.708 59.8101 100.766C61.4158 100.806 62.9782 101.335 64.5446 101.649C66.2994 101.998 68.1053 102.143 69.8209 101.535C69.5029 100.99 69.1849 100.441 68.8669 99.8957C67.1003 101.637 65.3141 103.394 63.2491 104.783C61.3255 106.073 58.97 107.23 56.6027 106.646C55.3779 106.344 54.8518 108.234 56.0806 108.536C58.8758 109.23 61.6631 108.156 63.995 106.638C66.3073 105.132 68.3016 103.21 70.2567 101.284C70.924 100.625 70.2488 99.3113 69.3027 99.6447C65.9147 100.841 62.5425 98.5975 59.1152 98.8171C56.0453 99.0132 53.6309 100.845 51.9781 103.347C51.2715 104.402 52.9714 105.387 53.6662 104.339Z" fill="black"/>
<path d="M60.1517 113.27C61.828 111.701 64.0579 110.724 66.3506 110.575C67.5793 110.493 68.7296 110.681 69.923 110.944C71.2892 111.246 72.73 111.505 74.0844 111.003C73.7154 110.524 73.3463 110.042 72.9773 109.564C72.3138 110.509 71.5797 111.426 70.7435 112.227C70.4255 112.529 70.0722 112.831 69.6639 112.995C69.1693 113.191 68.7021 113.109 68.2035 112.976C67.069 112.67 66.0326 112.47 64.8627 112.689C63.7674 112.893 62.7585 113.458 61.9654 114.227C61.0586 115.109 62.4483 116.494 63.3552 115.615C64.054 114.937 64.9844 114.541 65.9619 114.533C67.0965 114.525 68.1289 115.168 69.2753 115.07C70.453 114.968 71.4266 114.317 72.251 113.505C73.1579 112.611 73.9509 111.591 74.6811 110.556C75.16 109.877 74.3592 108.826 73.574 109.116C72.2864 109.591 70.9634 109.156 69.6796 108.889C68.3802 108.618 67.065 108.52 65.746 108.677C63.1353 108.991 60.6974 110.085 58.7738 111.889C57.8394 112.748 59.2292 114.133 60.1517 113.27Z" fill="black"/>
<path d="M34.4412 81.4187C35.6582 83.9955 36.9066 86.5919 38.6496 88.8667C39.5368 90.0237 40.5222 91.0826 41.6764 91.9769C42.8502 92.8868 44.2596 93.4829 45.3745 94.4595C47.4277 96.2558 48.099 99.0876 49.3278 101.421C50.745 104.12 53.0691 106.085 55.1301 108.265C57.2775 110.532 58.7065 113.27 60.43 115.85C62.067 118.302 64.0652 120.4 66.4914 122.079C71.1395 125.295 76.9301 126.789 82.5479 126.679C89.0647 126.554 95.3892 124.448 101.129 121.455C101.831 121.09 102.522 120.706 103.209 120.314C104.305 119.686 103.319 117.992 102.22 118.619C96.8339 121.698 90.8784 124.075 84.6482 124.605C79.1756 125.071 73.5617 124.059 68.8115 121.235C66.5149 119.871 64.4539 118.082 62.8679 115.921C61.0227 113.407 59.6448 110.587 57.6662 108.171C55.8171 105.912 53.4067 104.127 51.7696 101.692C50.2739 99.4602 49.6654 96.7539 48.0912 94.5733C47.2039 93.3417 46.0851 92.471 44.7896 91.6906C43.5844 90.965 42.4734 90.2002 41.488 89.1844C39.58 87.2155 38.2453 84.7681 37.044 82.3286C36.7338 81.6971 36.4355 81.0657 36.1332 80.4303C35.9055 79.9518 35.2185 79.8263 34.7906 80.0773C34.3038 80.3636 34.2135 80.9402 34.4412 81.4187Z" fill="black"/>
<path d="M36.9498 65.6716C35.9566 59.3532 35.2774 52.9877 34.8966 46.6026C34.822 45.3475 32.8591 45.3397 32.9337 46.6026C33.3224 53.1642 34.0369 59.7023 35.0576 66.1933C35.14 66.7149 35.7956 67.0052 36.2667 66.8797C36.8242 66.7267 37.0322 66.1972 36.9498 65.6716Z" fill="black"/>
<path d="M19.8768 78.1125C13.5798 76.5437 7.36136 74.6729 1.24497 72.504C0.746391 72.3275 0.169298 72.704 0.035821 73.1903C-0.113359 73.7316 0.220333 74.2179 0.722836 74.3983C6.83923 76.5672 13.0577 78.438 19.3547 80.0069C20.5795 80.3089 21.1017 78.4184 19.8768 78.1125Z" fill="black"/>
<path d="M190.661 42.5708C189.593 45.5633 188.812 48.6539 188.353 51.7994C187.905 54.8664 187.839 58.0198 186.955 61.0123C185.408 66.26 181.047 70.0252 176.379 72.551C173.396 74.1669 170.22 75.3671 167.051 76.5633C166.557 76.7516 166.215 77.2261 166.364 77.7713C166.494 78.2459 167.075 78.6459 167.574 78.4577C173.242 76.3201 179.072 74.0885 183.548 69.8644C185.565 67.9583 187.226 65.6913 188.286 63.1224C189.507 60.1691 189.695 56.9412 190.053 53.7996C190.469 50.1482 191.313 46.5556 192.546 43.0924C192.722 42.5943 192.345 42.0178 191.859 41.8844C191.325 41.7393 190.838 42.0727 190.661 42.5708Z" fill="black"/>
<path d="M165.038 79.1283C168.496 78.4066 171.766 79.8107 174.801 81.3325C176.328 82.0973 177.836 83.0582 179.496 83.4974C181.157 83.9367 182.904 83.9093 184.58 83.568C186.484 83.1798 188.302 82.3444 189.907 81.2658C190.952 80.5677 189.97 78.8655 188.918 79.5714C186.307 81.3207 183.002 82.4502 179.873 81.5639C179.08 81.3403 178.409 80.952 177.679 80.5873C176.925 80.2147 176.179 79.8264 175.429 79.4538C173.874 78.6811 172.281 77.9477 170.608 77.481C168.61 76.9241 166.553 76.8142 164.519 77.2378C164.001 77.3476 163.699 77.9556 163.832 78.4458C163.978 78.9792 164.515 79.2341 165.038 79.1283Z" fill="black"/>
<path d="M188.895 79.8774C186.739 83.4269 184.07 86.9489 179.806 87.9372C176.273 88.7569 171.578 89.259 168.72 86.5096C166.851 84.7133 166.137 82.0659 165.458 79.6538C165.116 78.4419 163.22 78.9557 163.565 80.1755C164.272 82.6777 165.049 85.2153 166.737 87.2509C168.202 89.0197 170.357 90.012 172.599 90.3415C174.876 90.6748 177.18 90.463 179.433 90.0199C181.793 89.5531 183.889 88.6001 185.722 87.0352C187.725 85.3251 189.232 83.1013 190.59 80.8697C191.246 79.7833 189.55 78.7988 188.895 79.8774Z" fill="black"/>
<path d="M154.716 91.9064C155.772 96.2285 157.81 100.386 161.472 103.073C164.947 105.618 169.387 105.983 173.372 104.477C175.648 103.614 177.71 102.292 179.496 100.641C180.124 100.06 179.633 98.9583 178.801 98.9661C177.187 98.9858 175.515 98.7308 174.168 97.7817C172.865 96.8639 172.194 95.3108 171.369 93.9969C170.455 92.5418 169.285 91.3142 167.738 90.5219C166.148 89.7061 164.362 89.3218 162.576 89.3532C160.334 89.3924 158.183 90.0395 156.145 90.9416C155.662 91.1573 155.548 91.8633 155.792 92.2829C156.082 92.781 156.648 92.8516 157.134 92.6359C160.212 91.275 163.946 90.6396 167.016 92.3614C168.425 93.1536 169.297 94.342 170.105 95.7069C170.953 97.1463 171.825 98.5661 173.238 99.5192C174.852 100.609 176.885 100.951 178.797 100.927C178.565 100.37 178.334 99.8094 178.102 99.2524C175.421 101.727 171.852 103.551 168.127 103.429C164.354 103.308 161.139 100.88 159.18 97.7817C157.939 95.8167 157.15 93.6321 156.601 91.3848C156.31 90.1611 154.414 90.6788 154.716 91.9064Z" fill="black"/>
<path d="M149.734 102.798C150.779 103.339 151.843 104.053 152.518 104.967C153.217 105.908 153.562 106.983 153.731 108.148C154.163 111.18 153.59 114.403 155.45 117.074C155.898 116.627 156.345 116.18 156.793 115.733C154.642 114.49 152.471 113.227 150.582 111.599C148.792 110.054 147.085 108.054 147.037 105.685C147.01 104.426 145.047 104.422 145.075 105.685C145.169 110.277 149.393 113.47 152.922 115.706C153.868 116.306 154.834 116.866 155.8 117.427C156.605 117.894 157.723 116.921 157.142 116.086C155.321 113.47 156.13 110.058 155.525 107.097C154.968 104.351 153.166 102.374 150.72 101.108C149.605 100.527 148.612 102.218 149.734 102.798Z" fill="black"/>
<path d="M141.27 111.042C143.248 112.297 144.748 114.262 145.455 116.494C145.828 117.67 145.906 118.831 145.949 120.055C145.996 121.412 146.126 122.824 146.927 123.969C147.296 123.491 147.665 123.008 148.034 122.53C146.919 122.11 145.804 121.608 144.799 120.965C144.454 120.741 144.112 120.479 143.869 120.141C143.566 119.718 143.543 119.243 143.551 118.741C143.566 117.565 143.5 116.509 142.989 115.431C142.518 114.431 141.721 113.599 140.783 113.027C139.703 112.368 138.714 114.062 139.794 114.721C140.591 115.207 141.195 115.972 141.458 116.874C141.788 118.004 141.392 119.204 141.788 120.326C142.177 121.42 143.029 122.189 143.998 122.777C145.101 123.448 146.307 123.969 147.512 124.424C148.297 124.722 149.094 123.663 148.619 122.985C147.857 121.891 147.936 120.534 147.885 119.259C147.83 117.949 147.618 116.651 147.155 115.419C146.212 112.921 144.52 110.787 142.263 109.356C141.191 108.669 140.206 110.368 141.27 111.042Z" fill="black"/>
<path d="M190.904 41.8687C188.387 43.7356 185.694 45.3594 182.864 46.7046C180.08 48.0264 177.109 48.999 174.498 50.6698C169.547 53.8389 166.807 59.3258 165.582 64.9187C164.782 68.5701 164.53 72.3157 164.287 76.0378C164.252 76.5672 164.762 77.0183 165.268 77.0183C165.83 77.0183 166.214 76.5672 166.25 76.0378C166.638 70.1037 167.043 63.899 169.932 58.5571C171.169 56.2745 172.833 54.184 174.985 52.6975C177.434 51.0032 180.273 50.0227 182.97 48.8068C186.126 47.3871 189.114 45.6221 191.893 43.563C192.317 43.2493 192.533 42.7159 192.246 42.2217C192.003 41.802 191.332 41.551 190.904 41.8687Z" fill="black"/>
<path d="M166.348 78.6575C166.215 76.724 165.689 74.8492 164.758 73.1431C163.887 71.5429 162.666 70.3271 161.268 69.1818C159.981 68.1268 158.791 67.0639 157.959 65.6049C157.181 64.2518 156.695 62.7065 156.53 61.1534C156.337 59.3531 156.51 57.5529 157.064 55.8311C157.452 54.627 155.556 54.1093 155.171 55.3095C154.115 58.5962 154.304 62.2359 155.67 65.397C156.341 66.9502 157.338 68.3425 158.595 69.476C159.816 70.582 161.264 71.5076 162.261 72.845C163.506 74.5158 164.252 76.5828 164.393 78.6575C164.428 79.187 164.817 79.6381 165.375 79.6381C165.869 79.6381 166.384 79.187 166.348 78.6575Z" fill="black"/>
<path d="M155.302 54.7369C153.661 56.5724 152.063 58.5256 150.999 60.7612C149.919 63.032 149.507 65.3971 149.747 67.8954C150.135 71.9704 151.321 76.6416 155.082 78.9007C157.681 80.4617 160.853 80.4499 163.785 80.3872C165.045 80.3597 165.049 78.3987 163.785 78.4261C161.422 78.4771 158.839 78.5752 156.656 77.5202C155.003 76.7201 153.873 75.3081 153.111 73.6687C152.349 72.0293 151.965 70.1741 151.764 68.3974C151.521 66.2599 151.639 64.2361 152.479 62.228C153.437 59.9336 155.05 57.9569 156.695 56.1214C157.531 55.1879 156.146 53.7956 155.302 54.7369Z" fill="black"/>
<path d="M155.128 90.3061C151.116 90.5296 146.86 89.9766 143.598 87.4469C142.232 86.3879 141.109 85.0034 140.438 83.4071C139.731 81.7246 139.531 79.8773 139.649 78.0692C139.786 75.9984 140.387 73.951 141.286 72.0881C140.689 72.0096 140.088 71.9312 139.492 71.8527C139.963 73.4686 140.709 75.0453 141.898 76.2611C143.146 77.5397 144.784 78.1163 146.479 78.532C148.03 78.9085 149.565 79.2694 150.802 80.3401C151.964 81.3481 152.812 82.6737 153.287 84.1327C153.95 86.1565 153.974 88.294 153.719 90.3923C153.656 90.9179 154.217 91.3729 154.7 91.3729C155.285 91.3729 155.619 90.9218 155.682 90.3923C156.129 86.7252 155.587 82.8737 153.169 79.9557C152.089 78.6575 150.672 77.7162 149.071 77.1868C147.461 76.6534 145.659 76.5318 144.195 75.6179C142.691 74.6766 141.863 72.9744 141.384 71.3311C141.164 70.5741 139.971 70.3074 139.59 71.0958C137.784 74.8296 136.963 79.3086 138.314 83.3209C139.672 87.3527 143.131 90.1609 147.112 91.4199C149.687 92.2357 152.439 92.4161 155.124 92.2671C156.384 92.1965 156.392 90.2355 155.128 90.3061Z" fill="black"/>
<path d="M149.448 101.154C147.681 98.7267 145.184 96.95 142.087 96.9108C138.683 96.8637 135.394 99.2405 131.994 98.209C131.075 97.9305 130.306 99.1895 131.04 99.8484C133.077 101.684 135.154 103.527 137.529 104.924C139.912 106.328 142.758 107.312 145.518 106.496C146.727 106.139 146.213 104.245 144.996 104.606C142.652 105.3 140.262 104.292 138.267 103.08C136.139 101.786 134.271 100.123 132.426 98.46C132.108 99.0052 131.79 99.5543 131.472 100.099C133.183 100.617 134.95 100.437 136.662 100.021C138.216 99.6445 139.771 99.0169 141.376 98.8954C144.022 98.6953 146.229 100.052 147.756 102.147C148.066 102.574 148.608 102.786 149.098 102.5C149.519 102.253 149.762 101.586 149.448 101.154Z" fill="black"/>
<path d="M143.057 109.979C141.055 108.265 138.589 107.253 135.959 107.053C134.671 106.955 133.372 107.092 132.12 107.406C130.832 107.732 129.478 108.277 128.155 107.853C127.401 107.61 126.514 108.602 127.048 109.293C127.813 110.285 128.626 111.25 129.556 112.097C130.432 112.897 131.48 113.58 132.705 113.603C133.831 113.623 134.805 112.952 135.916 112.913C136.89 112.877 137.851 113.199 138.582 113.846C139.524 114.682 140.917 113.301 139.971 112.458C139.155 111.732 138.173 111.222 137.094 111.042C135.924 110.846 134.883 111.058 133.772 111.418C133.305 111.571 132.834 111.724 132.347 111.587C131.916 111.469 131.535 111.211 131.193 110.928C130.282 110.167 129.47 109.238 128.747 108.304C128.378 108.783 128.009 109.265 127.64 109.744C128.991 110.175 130.377 109.901 131.711 109.544C132.924 109.222 134.086 108.955 135.347 108.979C137.639 109.026 139.928 109.865 141.675 111.36C142.075 111.705 142.668 111.756 143.065 111.36C143.406 111.015 143.461 110.328 143.057 109.979Z" fill="black"/>
<path d="M164.134 77.7086C163.078 80.2344 161.979 82.7798 160.408 85.0389C159.655 86.1214 158.771 87.1137 157.758 87.9569C156.624 88.9021 155.269 89.5571 154.198 90.5847C152.211 92.4869 151.536 95.201 150.48 97.6444C149.322 100.323 147.304 102.296 145.396 104.445C144.387 105.583 143.469 106.783 142.672 108.077C141.851 109.403 141.125 110.787 140.351 112.14C138.942 114.592 137.274 116.761 135.067 118.549C130.949 121.883 125.575 123.616 120.318 123.824C114.021 124.071 107.791 122.353 102.118 119.714C101.388 119.373 100.666 119.02 99.9511 118.651C98.8283 118.074 97.8351 119.765 98.9618 120.345C104.792 123.338 111.147 125.507 117.739 125.781C123.49 126.021 129.383 124.671 134.247 121.538C136.606 120.02 138.679 118.102 140.328 115.831C142.197 113.258 143.425 110.285 145.27 107.697C147.025 105.238 149.4 103.292 151.053 100.751C152.557 98.4328 153.051 95.6442 154.508 93.3105C155.266 92.0947 156.345 91.326 157.523 90.5416C158.748 89.7258 159.871 88.7962 160.832 87.6785C162.721 85.486 164.028 82.8935 165.17 80.254C165.461 79.5794 165.747 78.9048 166.03 78.2263C166.234 77.736 165.81 77.1477 165.343 77.0183C164.778 76.8692 164.338 77.2183 164.134 77.7086Z" fill="black"/>
<path d="M164.676 63.0282C165.395 56.5842 165.799 50.1089 165.893 43.6257C165.913 42.3628 163.95 42.3628 163.93 43.6257C163.836 50.1089 163.432 56.5842 162.713 63.0282C162.654 63.5537 163.208 64.0087 163.695 64.0087C164.276 64.0087 164.617 63.5537 164.676 63.0282Z" fill="black"/>
<path d="M180.917 76.3476C187.14 74.4963 193.268 72.351 199.278 69.9114C199.769 69.7114 200.114 69.2604 199.965 68.7035C199.836 68.2367 199.251 67.8171 198.756 68.0171C192.742 70.4566 186.614 72.6059 180.395 74.4532C179.186 74.814 179.7 76.7084 180.917 76.3476Z" fill="black"/>
<path d="M180.897 171.328C178.035 170.697 175.111 170.336 172.178 170.277C169.352 170.222 166.458 170.567 163.663 170.026C158.921 169.108 155.176 165.684 152.479 161.845C150.759 159.393 149.358 156.742 147.96 154.102C147.371 152.985 145.675 153.977 146.264 155.091C148.733 159.762 151.316 164.594 155.439 168.041C157.335 169.626 159.482 170.905 161.865 171.607C164.692 172.438 167.656 172.273 170.565 172.238C173.87 172.199 177.148 172.509 180.375 173.223C181.608 173.493 182.134 171.603 180.897 171.328Z" fill="black"/>
<path d="M145.286 152.683C146.37 155.852 145.4 158.985 144.321 162.013C143.798 163.472 143.174 164.88 143.013 166.433C142.864 167.877 143.107 169.375 143.602 170.736C144.207 172.399 145.145 173.885 146.299 175.215C146.649 175.615 147.332 175.572 147.689 175.215C148.085 174.819 148.038 174.23 147.689 173.827C145.93 171.803 144.642 169.097 144.984 166.359C145.063 165.739 145.239 165.127 145.479 164.555C145.793 163.786 146.052 162.99 146.331 162.209C146.849 160.743 147.339 159.256 147.575 157.715C147.862 155.844 147.799 153.965 147.182 152.165C147.01 151.663 146.507 151.333 145.973 151.479C145.483 151.608 145.114 152.177 145.286 152.683Z" fill="black"/>
<path d="M147.567 173.964C144.321 172.513 140.838 170.626 139.457 167.132C138.24 164.061 137.191 159.727 139.402 156.844C140.799 155.016 143.108 154.095 145.161 153.232C145.648 153.024 145.757 152.306 145.514 151.89C145.22 151.385 144.662 151.334 144.171 151.537C142.087 152.416 139.932 153.365 138.361 155.056C136.877 156.652 136.214 158.742 136.186 160.896C136.163 162.947 136.638 164.998 137.301 166.928C137.984 168.916 139.056 170.658 140.634 172.066C142.377 173.623 144.458 174.709 146.578 175.658C147.061 175.874 147.634 175.799 147.921 175.305C148.164 174.886 148.054 174.18 147.567 173.964Z" fill="black"/>
<path d="M132.991 144.894C129.285 146.305 125.747 148.514 123.745 152.047C122.791 153.734 122.242 155.652 122.277 157.593C122.312 159.499 122.866 161.354 123.741 163.041C124.723 164.931 126.136 166.61 127.761 167.979C128.554 168.646 129.536 167.994 129.402 167.026C129.21 165.622 129.304 164.061 130.05 162.821C130.776 161.621 132.06 160.86 133.12 159.99C135.64 157.915 136.598 154.773 136.135 151.592C135.856 149.682 135.067 147.874 134.078 146.231C133.426 145.152 131.73 146.137 132.382 147.219C133.944 149.816 134.961 152.993 133.791 155.95C132.696 158.711 129.477 159.574 128.166 162.178C127.322 163.857 127.259 165.72 127.51 167.547C128.056 167.23 128.605 166.912 129.151 166.594C126.686 164.52 124.57 161.582 124.279 158.283C123.973 154.848 125.767 151.769 128.366 149.639C129.885 148.392 131.687 147.482 133.517 146.784C134.011 146.596 134.353 146.125 134.204 145.576C134.066 145.105 133.489 144.705 132.991 144.894Z" fill="black"/>
<path d="M122.54 141.913C122.171 142.909 121.669 143.823 120.915 144.533C120.185 145.219 119.191 145.651 118.175 145.905C115.489 146.584 112.655 146.533 110.472 148.494C110.986 148.89 111.501 149.286 112.015 149.682C112.902 147.588 113.813 145.486 115.069 143.584C116.263 141.779 117.81 140.156 119.969 139.834C120.495 139.756 120.781 139.093 120.656 138.626C120.503 138.065 119.977 137.865 119.447 137.94C116.907 138.316 114.987 140.25 113.589 142.27C112.215 144.25 111.257 146.478 110.319 148.69C110.127 149.141 110.146 149.639 110.57 149.957C110.975 150.259 111.485 150.216 111.858 149.879C113.903 148.043 117.009 148.412 119.466 147.568C120.601 147.18 121.665 146.588 122.505 145.717C123.404 144.784 123.985 143.639 124.432 142.434C124.617 141.936 124.228 141.36 123.745 141.226C123.2 141.077 122.725 141.411 122.54 141.913Z" fill="black"/>
<path d="M114.37 135.088C113.436 137.057 111.854 138.622 109.864 139.524C107.759 140.481 105.2 140.077 103.39 141.697C103.936 142.015 104.485 142.332 105.031 142.65C105.282 141.607 105.577 140.528 106.056 139.563C106.228 139.21 106.432 138.842 106.735 138.583C107.057 138.312 107.477 138.25 107.885 138.21C108.89 138.108 109.832 137.936 110.696 137.379C111.528 136.842 112.223 136.085 112.631 135.175C112.851 134.692 112.769 134.12 112.278 133.833C111.858 133.586 111.155 133.7 110.935 134.186C110.582 134.971 110.009 135.606 109.212 135.959C108.305 136.363 107.269 136.19 106.354 136.563C105.392 136.955 104.729 137.783 104.297 138.704C103.786 139.795 103.421 140.96 103.139 142.128C102.903 143.101 104.053 143.733 104.78 143.082C105.596 142.348 106.852 142.277 107.889 142.113C109.067 141.921 110.185 141.572 111.249 141.026C113.326 139.963 115.069 138.187 116.066 136.077C116.294 135.598 116.2 135.018 115.713 134.735C115.285 134.488 114.598 134.606 114.37 135.088Z" fill="black"/>
<path d="M181.411 171.387C179.507 169.398 177.803 167.241 176.327 164.923C174.879 162.645 173.681 160.213 171.989 158.095C168.664 153.934 163.419 152.09 158.265 151.577C154.916 151.243 151.548 151.443 148.199 151.643C146.943 151.718 146.935 153.679 148.199 153.604C153.648 153.279 159.301 152.949 164.479 155.008C166.705 155.895 168.723 157.264 170.278 159.091C171.915 161.017 173.03 163.327 174.349 165.465C175.974 168.092 177.886 170.544 180.022 172.775C180.897 173.685 182.283 172.297 181.411 171.387Z" fill="black"/>
<path d="M146.138 153.945C147.751 153.628 149.318 152.965 150.657 152.004C152.015 151.035 153 149.839 153.888 148.439C154.673 147.2 155.45 146.007 156.636 145.105C157.762 144.246 159.077 143.662 160.448 143.321C161.963 142.944 163.565 142.877 165.1 143.168C165.622 143.266 166.16 143.023 166.309 142.481C166.438 142.003 166.148 141.375 165.622 141.273C162.567 140.701 159.317 141.187 156.624 142.764C155.265 143.56 154.119 144.619 153.204 145.897C152.305 147.152 151.638 148.576 150.492 149.639C149.133 150.894 147.426 151.702 145.62 152.055C145.098 152.157 144.803 152.777 144.933 153.263C145.082 153.804 145.616 154.047 146.138 153.945Z" fill="black"/>
<path d="M165.964 141.254C164.091 139.963 162.117 138.763 159.934 138.073C157.751 137.383 155.565 137.402 153.346 137.916C149.931 138.705 146.056 140.297 144.502 143.686C143.3 146.298 143.681 149.192 144.086 151.941C144.164 152.467 144.828 152.753 145.295 152.628C145.856 152.475 146.056 151.949 145.982 151.42C145.668 149.286 145.35 147.004 146.103 144.925C146.618 143.509 147.76 142.419 149.02 141.65C150.383 140.819 151.902 140.293 153.445 139.909C155.27 139.454 157.045 139.316 158.882 139.807C161.112 140.403 163.094 141.646 164.979 142.944C165.414 143.246 166.07 143.027 166.321 142.591C166.604 142.105 166.404 141.552 165.964 141.254Z" fill="black"/>
<path d="M134.459 145.066C133.803 141.473 133.909 137.579 135.923 134.414C137.647 131.704 140.599 130.327 143.755 130.217C145.585 130.154 147.383 130.464 149.114 131.049C149.035 130.452 148.957 129.852 148.878 129.256C147.563 129.825 146.291 130.637 145.384 131.762C144.313 133.092 143.967 134.625 143.775 136.288C143.606 137.732 143.422 139.093 142.589 140.324C141.828 141.454 140.701 142.297 139.476 142.874C137.859 143.634 136.025 143.862 134.255 143.87C132.991 143.874 132.991 145.835 134.255 145.831C137.509 145.819 140.901 144.995 143.245 142.599C144.313 141.509 145.09 140.144 145.412 138.646C145.738 137.116 145.608 135.402 146.287 133.959C146.982 132.484 148.423 131.574 149.868 130.947C150.708 130.586 150.347 129.393 149.632 129.154C146.177 127.989 142.275 127.844 138.895 129.331C135.397 130.868 133.144 134.308 132.437 137.987C131.954 140.513 132.1 143.07 132.559 145.584C132.653 146.105 133.289 146.4 133.768 146.27C134.322 146.121 134.553 145.588 134.459 145.066Z" fill="black"/>
<path d="M124.267 141.387C126.383 139.399 127.577 136.751 127.074 133.829C126.607 131.111 124.365 128.578 124.856 125.714C125.045 124.62 123.718 124.02 123.062 124.958C120.416 128.75 116.785 133.853 118.885 138.653C119.097 139.14 119.807 139.25 120.228 139.006C120.73 138.712 120.793 138.151 120.581 137.665C119.749 135.763 120.436 133.48 121.256 131.692C122.198 129.648 123.474 127.789 124.758 125.95C124.161 125.699 123.561 125.448 122.964 125.193C122.713 126.656 122.925 128.079 123.419 129.472C123.894 130.809 124.558 132.072 124.966 133.433C125.315 134.598 125.347 135.794 124.97 136.959C124.581 138.155 123.784 139.148 122.881 139.999C121.959 140.865 123.349 142.25 124.267 141.387Z" fill="black"/>
<path d="M115.709 136.661C116.973 134.747 117.601 132.402 117.472 130.111C117.405 128.958 117.166 127.829 116.742 126.754C116.337 125.726 115.65 124.53 115.858 123.389C116.027 122.467 114.955 121.702 114.217 122.436C113.444 123.205 112.722 124.032 112.082 124.915C111.446 125.793 110.947 126.844 111.089 127.95C111.214 128.97 111.913 129.782 112.066 130.79C112.196 131.657 111.952 132.496 111.465 133.21C111.167 133.649 111.383 134.296 111.819 134.551C112.306 134.833 112.863 134.637 113.161 134.198C113.719 133.386 114.017 132.417 114.057 131.433C114.1 130.358 113.735 129.433 113.283 128.48C113.118 128.131 112.977 127.766 113.032 127.378C113.095 126.934 113.346 126.53 113.589 126.166C114.162 125.311 114.877 124.542 115.607 123.816C115.061 123.499 114.512 123.181 113.966 122.863C113.519 125.295 115.215 127.291 115.47 129.637C115.701 131.763 115.191 133.884 114.013 135.665C113.318 136.728 115.014 137.712 115.709 136.661Z" fill="black"/>
<path d="M146.716 151.722C144.325 151.059 141.899 150.388 139.696 149.216C138.652 148.663 137.667 148.004 136.811 147.184C135.853 146.27 135.111 145.148 134.067 144.321C132.041 142.721 129.466 142.442 127.071 141.713C124.59 140.956 122.607 139.297 120.491 137.869C118.199 136.324 115.643 135.418 113.115 134.343C110.822 133.367 108.745 132.096 106.971 130.339C103.693 127.091 101.652 122.742 100.847 118.227C99.7122 111.881 101 105.332 103.183 99.3505C103.363 98.8524 102.978 98.2758 102.496 98.1425C101.95 97.9934 101.471 98.3268 101.286 98.8288C99.2529 104.398 98.0241 110.422 98.6208 116.364C99.1272 121.404 100.949 126.264 104.188 130.194C105.707 132.037 107.56 133.637 109.637 134.822C112.129 136.245 114.925 137.006 117.461 138.332C119.844 139.579 121.838 141.446 124.233 142.67C125.418 143.274 126.671 143.662 127.958 143.984C129.128 144.274 130.345 144.521 131.452 145.015C132.83 145.635 133.698 146.694 134.683 147.8C135.641 148.878 136.783 149.788 138.024 150.526C140.537 152.016 143.391 152.832 146.19 153.608C147.415 153.953 147.933 152.059 146.716 151.722Z" fill="black"/>
<path d="M159.58 150.753C165.387 150.671 171.185 150.31 176.96 149.671C177.486 149.612 177.941 149.263 177.941 148.69C177.941 148.204 177.49 147.651 176.96 147.71C171.189 148.349 165.387 148.71 159.58 148.792C158.316 148.808 158.312 150.773 159.58 150.753Z" fill="black"/>
<path d="M149.628 166.692C151.964 172.003 154.559 177.199 157.397 182.259C158.013 183.361 159.709 182.373 159.093 181.271C156.255 176.207 153.664 171.014 151.324 165.704C151.112 165.218 150.401 165.108 149.981 165.351C149.479 165.641 149.412 166.202 149.628 166.692Z" fill="black"/>
<path d="M126.168 6.20922C127.047 9.10762 128.194 11.9276 129.587 14.6181C130.922 17.191 132.594 19.5874 133.78 22.2387C136.222 27.7061 135.001 33.8363 132.516 39.0526C131.067 42.0961 129.234 44.9357 127.412 47.7635C126.725 48.8264 128.425 49.8108 129.108 48.7519C132.406 43.6336 135.817 38.2878 136.795 32.1655C137.278 29.1376 137.203 26 136.206 23.078C135.236 20.2306 133.564 17.7205 132.096 15.1202C130.408 12.1315 129.061 8.97035 128.064 5.68366C127.695 4.48351 125.803 4.99338 126.168 6.20922Z" fill="black"/>
<path d="M127.314 50.9993C129.717 48.297 133.179 47.4616 136.61 46.8616C138.279 46.5713 140.049 46.4537 141.624 45.8104C143.202 45.1633 144.599 44.1475 145.73 42.865C147.061 41.3589 148.023 39.5979 148.694 37.7114C148.871 37.2133 148.494 36.6367 148.007 36.5034C147.465 36.3543 146.978 36.6877 146.798 37.1897C145.781 40.0411 143.779 42.9042 140.85 44.0181C140.061 44.3201 139.264 44.4299 138.44 44.5671C137.607 44.7044 136.775 44.8495 135.943 44.9986C134.255 45.2966 132.563 45.6418 130.957 46.2576C129.041 46.991 127.298 48.0735 125.924 49.6148C125.088 50.5522 126.47 51.9445 127.314 50.9993Z" fill="black"/>
<path d="M147.006 37.217C147.383 41.3038 147.406 45.8063 144.592 49.1165C142.209 51.9169 138.644 55.2506 134.628 54.6388C132.159 54.2623 130.058 52.6464 128.139 51.1599C127.719 50.8344 127.157 50.752 126.749 51.1599C126.411 51.4972 126.329 52.2189 126.749 52.5483C128.731 54.0819 130.777 55.6546 133.23 56.337C135.57 56.9881 137.961 56.5645 140.097 55.4624C142.122 54.4152 143.873 52.8386 145.4 51.1638C147.002 49.4028 148.164 47.4222 148.702 45.0886C149.295 42.5078 149.212 39.8408 148.969 37.2248C148.922 36.6993 148.553 36.2443 147.987 36.2443C147.493 36.2365 146.955 36.6875 147.006 37.217Z" fill="black"/>
<path d="M126.627 67.2406C130.164 70.1821 134.487 72.4805 139.213 72.2648C141.416 72.1628 143.591 71.5078 145.416 70.2527C147.057 69.1232 148.408 67.6289 149.444 65.9345C150.606 64.0363 151.391 61.8987 151.803 59.7181C151.878 59.3259 151.788 58.9376 151.45 58.6866C151.164 58.4748 150.673 58.3728 150.359 58.6081C149.052 59.6004 147.509 60.4554 145.825 60.4672C144.125 60.4829 142.582 59.5651 141.031 58.9807C137.529 57.659 133.831 58.6395 131.016 60.9927C129.505 62.2556 128.312 63.8794 127.342 65.5815C126.718 66.6797 128.414 67.672 129.038 66.5699C130.64 63.75 132.979 61.181 136.269 60.4633C137.941 60.0985 139.488 60.4397 141.043 61.079C142.613 61.7222 144.164 62.4596 145.903 62.4243C147.901 62.3811 149.782 61.4869 151.348 60.2985C150.869 59.9299 150.386 59.5612 149.907 59.1925C149.263 62.6047 147.677 66.0012 144.906 68.1976C141.75 70.6999 137.51 70.7665 133.859 69.3977C131.719 68.5937 129.764 67.2994 128.013 65.8483C127.605 65.511 127.024 65.4482 126.623 65.8483C126.278 66.2012 126.215 66.8994 126.627 67.2406Z" fill="black"/>
<path d="M129.355 79.0029C130.627 78.7989 131.926 78.8068 133.14 79.2578C134.309 79.6932 135.271 80.5678 136.092 81.4934C138.004 83.6584 139.543 86.1803 142.428 87.149C142.514 86.5058 142.601 85.8665 142.687 85.2233C140.151 85.5096 137.595 85.7763 135.044 85.592C132.649 85.4194 130.168 84.7919 128.66 82.8426C128.334 82.4229 127.612 82.5014 127.27 82.8426C126.854 83.2583 126.945 83.8074 127.27 84.231C129.999 87.757 135.303 87.804 139.338 87.5138C140.457 87.4314 141.572 87.3098 142.687 87.1843C143.763 87.0627 144.049 85.6273 142.946 85.2586C140.186 84.333 138.816 81.3797 136.857 79.45C135.852 78.4617 134.659 77.6576 133.301 77.2497C131.84 76.8105 130.317 76.8771 128.833 77.1125C128.311 77.1948 128.016 77.8498 128.146 78.3205C128.303 78.8774 128.829 79.0853 129.355 79.0029Z" fill="black"/>
<path d="M127.204 90.6984C129.693 90.5219 132.194 91.2475 134.176 92.7692C136.163 94.291 137.187 96.9266 139.68 97.7659C139.68 97.1345 139.68 96.507 139.68 95.8755C138.53 96.201 137.325 96.4952 136.127 96.5658C135.099 96.6246 134.357 96.4207 133.748 95.5578C133.109 94.6518 132.461 93.836 131.475 93.2869C130.486 92.7378 129.336 92.4711 128.205 92.5692C127.679 92.6163 127.224 92.9849 127.224 93.5497C127.224 94.0439 127.675 94.5773 128.205 94.5302C129.183 94.4439 130.148 94.6714 130.941 95.2676C131.793 95.9069 132.174 96.958 132.987 97.6365C133.913 98.4092 135.107 98.6092 136.285 98.515C137.607 98.4091 138.93 98.1268 140.202 97.7659C141.168 97.4914 141.101 96.1775 140.202 95.8755C139.095 95.5029 138.357 94.4283 137.662 93.5536C136.838 92.5143 135.935 91.6005 134.836 90.8396C132.634 89.3139 129.878 88.553 127.2 88.7413C126.67 88.7805 126.219 89.1648 126.219 89.7218C126.223 90.216 126.674 90.7337 127.204 90.6984Z" fill="black"/>
<path d="M125.936 5.71507C125.049 8.62917 123.895 11.4452 122.462 14.1318C121.06 16.7596 119.364 19.2227 118.218 21.9799C115.788 27.8238 117.076 34.2756 119.671 39.8253C121.139 42.959 123.019 45.877 124.888 48.7833C125.571 49.8422 127.271 48.8578 126.584 47.7949C123.369 42.806 120.048 37.6446 119.098 31.6752C118.642 28.816 118.838 25.8666 119.859 23.1447C120.864 20.466 122.533 18.097 123.899 15.6026C125.528 12.6297 126.843 9.48418 127.829 6.24063C128.194 5.02479 126.301 4.50708 125.936 5.71507Z" fill="black"/>
<path d="M128.072 49.642C126.946 48.3203 125.536 47.2182 123.978 46.4495C123.161 46.0455 122.297 45.6925 121.406 45.4925C120.401 45.265 119.369 45.1983 118.34 45.1474C116.625 45.0611 114.968 44.8963 113.398 44.1433C111.992 43.4687 110.76 42.5235 109.711 41.3743C108.569 40.1232 107.678 38.6289 107.132 37.0248C106.728 35.8364 104.832 36.3462 105.24 37.5464C106.304 40.688 108.439 43.4491 111.262 45.2062C112.785 46.1553 114.477 46.7436 116.256 46.9594C118.215 47.1947 120.181 47.0378 122.062 47.7398C123.86 48.4105 125.442 49.5714 126.683 51.0265C127.028 51.4305 127.715 51.3795 128.072 51.0265C128.473 50.6304 128.418 50.046 128.072 49.642Z" fill="black"/>
<path d="M105.031 37.2484C104.815 39.5938 104.736 41.9549 105.137 44.2885C105.541 46.6535 106.546 48.8264 108.116 50.6423C111.029 54.0074 115.144 57.3529 119.898 56.5607C122.713 56.09 125.06 54.2741 127.255 52.5758C127.675 52.2503 127.596 51.5287 127.255 51.1874C126.843 50.7756 126.289 50.8619 125.865 51.1874C124.138 52.5249 122.312 53.9172 120.169 54.4937C118.202 55.0193 116.235 54.5604 114.492 53.576C112.729 52.5837 111.234 51.1835 109.891 49.6892C108.482 48.1243 107.559 46.3555 107.131 44.2885C106.652 41.9784 106.782 39.5781 106.998 37.2445C107.045 36.715 106.511 36.264 106.016 36.264C105.439 36.2679 105.078 36.7189 105.031 37.2484Z" fill="black"/>
<path d="M125.983 65.8834C122.839 68.4955 118.98 70.5271 114.783 70.331C111.077 70.1585 108.043 67.966 106.174 64.8519C105.134 63.1183 104.462 61.2083 104.085 59.2277C103.606 59.5963 103.124 59.965 102.645 60.3337C104.054 61.4044 105.671 62.1967 107.442 62.4124C109.212 62.6242 110.826 62.0162 112.424 61.3377C113.947 60.6906 115.439 60.1807 117.119 60.3925C118.701 60.5925 120.228 61.3142 121.461 62.3104C122.913 63.487 124.032 64.9892 124.951 66.6051C125.575 67.7032 127.271 66.7149 126.647 65.6167C124.924 62.5771 122.395 59.8473 118.964 58.8002C117.241 58.2746 115.38 58.2354 113.656 58.7727C112.059 59.2708 110.575 60.2199 108.902 60.4631C106.971 60.7416 105.122 59.7728 103.634 58.6433C103.328 58.4119 102.817 58.5021 102.543 58.7217C102.217 58.9806 102.115 59.3492 102.189 59.7532C102.912 63.5772 104.8 67.3777 107.921 69.8015C111.603 72.6646 116.542 72.9235 120.813 71.2723C123.231 70.3389 125.383 68.9269 127.369 67.2757C127.778 66.9384 127.719 66.2403 127.369 65.8873C126.969 65.4794 126.392 65.5422 125.983 65.8834Z" fill="black"/>
<path d="M127.867 77.8379C125.363 77.0535 122.626 77.0339 120.302 78.3635C118.12 79.6107 116.875 81.7992 115.266 83.6347C114.441 84.576 113.503 85.4389 112.302 85.8624C111.23 86.239 111.458 87.6823 112.561 87.7882C116.73 88.1882 121.417 88.6785 125.296 86.7449C126.411 86.1919 127.341 85.3918 128.083 84.3995C128.401 83.9759 128.15 83.3053 127.73 83.0582C127.228 82.764 126.705 82.9837 126.387 83.4112C125.009 85.2467 122.407 85.886 120.141 86.0782C117.613 86.2939 115.073 86.0664 112.557 85.8272C112.643 86.4704 112.73 87.1097 112.816 87.7529C115.792 86.7018 117.283 84.0348 119.254 81.7874C120.232 80.6735 121.39 79.7989 122.842 79.4303C124.338 79.0498 125.885 79.2734 127.337 79.7283C128.554 80.1088 129.069 78.2183 127.867 77.8379Z" fill="black"/>
<path d="M127.969 88.7646C125.296 88.5764 122.54 89.3373 120.334 90.8629C119.238 91.6238 118.331 92.5337 117.507 93.577C116.812 94.4516 116.074 95.5302 114.967 95.8989C114.068 96.2009 114.001 97.5148 114.967 97.7893C116.219 98.1423 117.511 98.4168 118.81 98.5306C120.012 98.6365 121.237 98.4482 122.187 97.6599C122.995 96.9892 123.376 95.9459 124.212 95.3027C125.005 94.6948 125.983 94.4673 126.968 94.5536C127.498 94.6007 127.95 94.0673 127.95 93.5731C127.95 93.0044 127.498 92.6396 126.968 92.5926C125.861 92.4945 124.738 92.7495 123.761 93.2711C122.744 93.8163 122.077 94.6556 121.425 95.5773C120.836 96.4087 120.126 96.6362 119.125 96.5892C117.9 96.5303 116.667 96.2283 115.493 95.895C115.493 96.5264 115.493 97.1539 115.493 97.7854C117.986 96.95 119.011 94.3144 120.997 92.7887C122.984 91.2669 125.484 90.5413 127.969 90.7178C128.499 90.7571 128.951 90.2393 128.951 89.7373C128.951 89.1843 128.499 88.8039 127.969 88.7646Z" fill="black"/>
<path d="M125.791 50.2148C126.521 53.1682 127.255 56.1725 127.196 59.2356C127.169 60.7456 126.906 62.2007 126.407 63.6244C125.905 65.0599 125.39 66.4444 125.394 67.9897C125.406 70.9743 126.882 73.7002 127.079 76.6574C127.287 79.8029 126.478 82.9131 126.584 86.0586C126.69 89.2237 127.467 92.3339 127.448 95.5108C127.436 98.0876 126.878 100.629 125.924 103.022C124.009 107.842 120.428 111.936 116.169 114.843C111.489 118.031 106.076 119.933 100.548 121.032C99.861 121.169 99.174 121.291 98.4831 121.404C97.9609 121.491 97.6665 122.138 97.7961 122.612C97.9492 123.169 98.4791 123.385 99.0052 123.299C104.725 122.361 110.398 120.636 115.399 117.659C120.153 114.835 124.228 110.83 126.761 105.885C128.009 103.445 128.865 100.833 129.222 98.119C129.626 95.0441 129.159 92.0398 128.79 88.9884C128.594 87.3607 128.472 85.7331 128.566 84.0976C128.657 82.5091 128.888 80.9364 129.002 79.3519C129.12 77.736 129.069 76.1279 128.743 74.5356C128.433 73.0452 127.934 71.6019 127.609 70.1154C127.298 68.6839 127.255 67.2915 127.687 65.8835C128.142 64.4049 128.735 63.0126 128.959 61.4712C129.418 58.2982 128.932 55.1214 128.229 52.0229C128.052 51.2464 127.864 50.4776 127.675 49.705C127.381 48.4695 125.489 48.9872 125.791 50.2148Z" fill="black"/>
<path d="M117.57 38.2759C114.308 32.6713 110.775 27.2235 106.986 21.9601C106.676 21.5326 106.13 21.3247 105.644 21.6071C105.22 21.8542 104.98 22.517 105.29 22.9484C109.079 28.2119 112.612 33.6596 115.874 39.2642C116.51 40.3585 118.206 39.3701 117.57 38.2759Z" fill="black"/>
<path d="M138.569 39.1233C142.467 33.9383 146.11 28.5651 149.487 23.031C150.146 21.9525 148.45 20.9641 147.791 22.0427C144.411 27.5806 140.767 32.95 136.873 38.1349C136.555 38.5585 136.806 39.2292 137.226 39.4763C137.729 39.7665 138.251 39.5469 138.569 39.1233Z" fill="black"/>
<path d="M39.9293 191.743C42.4615 190.397 45.1153 189.311 47.8673 188.507C50.5604 187.722 53.332 187.209 55.8838 186.012C60.5673 183.812 63.5823 179.274 65.3724 174.58C66.5384 171.528 67.2372 168.328 67.9321 165.143C68.199 163.912 66.3068 163.386 66.0398 164.621C64.9131 169.795 63.7432 175.14 60.5751 179.506C59.2403 181.341 57.5365 182.93 55.5265 184C53.0925 185.295 50.3209 185.769 47.6946 186.514C44.6639 187.373 41.7234 188.566 38.944 190.044C37.8251 190.644 38.8144 192.335 39.9293 191.743Z" fill="black"/>
<path d="M66.2684 162.551C66.08 165.708 67.4422 168.547 69.1657 171.105C69.5897 171.732 70.0293 172.348 70.4651 172.968C70.9009 173.583 71.3837 174.172 71.7685 174.819C72.479 176.019 72.7813 177.399 72.7656 178.784C72.746 180.431 72.3024 182.063 71.5997 183.545C71.372 184.024 71.4662 184.604 71.953 184.887C72.3809 185.138 73.0679 185.016 73.2956 184.534C74.6461 181.694 75.2899 178.282 74.1436 175.262C73.59 173.803 72.6164 172.618 71.7253 171.356C70.8381 170.101 69.9587 168.83 69.2795 167.449C68.5218 165.912 68.1293 164.261 68.2313 162.547C68.3059 161.292 66.343 161.295 66.2684 162.551Z" fill="black"/>
<path d="M73.1459 185.04C74.8144 183.659 76.4043 182.173 77.6449 180.388C78.909 178.568 79.596 176.509 79.7373 174.305C79.9768 170.583 79.5371 166.077 76.3926 163.582C74.2137 161.856 71.4264 161.46 68.749 161.115C68.223 161.048 67.7676 161.613 67.7676 162.096C67.7676 162.68 68.219 163.009 68.749 163.076C70.8101 163.343 72.9928 163.641 74.7633 164.806C76.106 165.688 76.9108 167.132 77.3387 168.646C77.8098 170.316 77.8804 172.069 77.8019 173.795C77.7155 175.65 77.2641 177.333 76.2709 178.913C75.101 180.769 73.4364 182.263 71.7601 183.651C71.3518 183.989 71.4107 184.687 71.7601 185.04C72.1605 185.444 72.7376 185.377 73.1459 185.04Z" fill="black"/>
<path d="M77.9905 153.714C81.4492 154.036 84.9942 155.095 87.491 157.621C89.8151 159.974 90.5492 163.213 89.8386 166.402C89.4185 168.281 88.602 170.026 87.5185 171.611C88.1152 171.689 88.7158 171.767 89.3126 171.846C89.1202 170.426 88.6805 168.979 87.8364 167.806C86.8903 166.492 85.5987 165.747 84.1305 165.135C82.8546 164.602 81.5827 164.127 80.6091 163.104C79.6551 162.103 79.0701 160.805 78.7953 159.46C78.4145 157.593 78.6893 155.652 79.1918 153.836C79.5295 152.616 77.6372 152.098 77.2996 153.314C76.4006 156.562 76.3025 160.225 78.1829 163.162C79.0191 164.472 80.1772 165.504 81.5827 166.171C82.8703 166.783 84.4092 167.139 85.4967 168.104C86.7176 169.191 87.2083 170.791 87.4203 172.364C87.4714 172.736 87.8993 173.026 88.2369 173.066C88.6452 173.113 88.9867 172.932 89.2144 172.599C91.3579 169.465 92.5788 165.527 91.8565 161.739C91.142 157.997 88.2801 155.016 84.8882 153.467C82.7015 152.467 80.3735 151.973 77.9866 151.749C77.4566 151.698 77.0052 152.236 77.0052 152.73C77.0091 153.306 77.4606 153.667 77.9905 153.714Z" fill="black"/>
<path d="M85.5635 147.078C86.2898 148.078 87.1103 148.996 88.1703 149.651C89.1674 150.271 90.3059 150.58 91.4679 150.686C94.1414 150.926 97.1289 149.635 99.665 150.886C100.701 151.396 101.542 150.212 100.855 149.345C99.3549 147.462 97.8277 145.568 95.9669 144.023C94.0747 142.454 91.7192 141.105 89.1674 141.422C88.6413 141.489 88.186 141.826 88.186 142.403C88.186 142.881 88.6374 143.45 89.1674 143.383C91.3423 143.113 93.2974 144.285 94.903 145.686C96.6186 147.18 98.0554 148.957 99.4687 150.733C99.8652 150.22 100.262 149.706 100.658 149.192C99.3235 148.533 97.8827 148.349 96.4066 148.423C95.0325 148.494 93.6742 148.761 92.2963 148.761C91.3109 148.761 90.3177 148.6 89.4736 148.141C88.5746 147.655 87.8562 146.913 87.2595 146.09C86.9493 145.662 86.4076 145.45 85.9168 145.737C85.4929 145.984 85.2495 146.647 85.5635 147.078Z" fill="black"/>
<path d="M91.9149 138.716C93.4184 140.45 95.5148 141.681 97.7565 142.176C98.9067 142.427 100.073 142.489 101.243 142.372C102.33 142.258 103.633 141.94 104.662 142.446C105.526 142.87 106.503 141.999 106.005 141.105C105.475 140.152 104.874 139.246 104.199 138.391C103.578 137.606 102.758 136.849 101.745 136.645C100.654 136.426 99.6212 136.924 98.5377 136.787C97.6622 136.677 96.9203 136.206 96.3628 135.543C96.0213 135.135 95.3264 135.19 94.9731 135.543C94.5687 135.947 94.6315 136.524 94.9731 136.932C95.6051 137.685 96.4531 138.23 97.3874 138.528C98.4552 138.873 99.4445 138.72 100.528 138.567C101.466 138.434 102.028 138.85 102.617 139.54C103.272 140.316 103.818 141.207 104.309 142.093C104.756 141.646 105.204 141.199 105.651 140.752C103.437 139.665 101.046 140.76 98.7222 140.371C96.6062 140.018 94.7022 138.948 93.2968 137.328C92.9513 136.928 92.2643 136.971 91.907 137.328C91.5184 137.724 91.5655 138.312 91.9149 138.716Z" fill="black"/>
<path d="M40.1533 191.225C41.4998 188.715 42.6108 186.075 43.4549 183.353C44.2479 180.788 44.6876 178.082 45.7829 175.623C47.785 171.124 52.0642 168.269 56.5631 166.626C59.5192 165.547 62.6049 164.88 65.6749 164.222C66.9076 163.955 66.3855 162.064 65.1528 162.331C59.8176 163.48 54.2783 164.704 49.7715 167.947C47.7379 169.41 45.9399 171.226 44.6994 173.415C43.3214 175.854 42.7325 178.612 42.0063 181.286C41.1622 184.397 39.9805 187.393 38.4573 190.237C37.8606 191.347 39.5566 192.339 40.1533 191.225Z" fill="black"/>
<path d="M67.7475 162.033C66.1143 162.158 64.4694 161.923 62.9619 161.276C61.5329 160.664 60.4769 159.601 59.3267 158.593C56.9201 156.487 53.8973 155.448 50.6938 155.648C48.9115 155.758 47.192 156.213 45.5903 157.001C45.1153 157.236 44.9857 157.911 45.237 158.342C45.5196 158.829 46.1006 158.927 46.5796 158.695C49.1274 157.444 52.1896 157.228 54.8748 158.15C56.2096 158.609 57.3049 159.405 58.3413 160.343C59.4876 161.378 60.6182 162.386 62.0512 163.006C63.8452 163.786 65.7924 164.147 67.7475 163.998C68.2775 163.959 68.7289 163.578 68.7289 163.017C68.7289 162.515 68.2775 161.994 67.7475 162.033Z" fill="black"/>
<path d="M46.6436 158.456C49.0619 155.562 51.9159 152.745 55.8888 152.479C59.0373 152.271 62.9945 152.428 65.1851 155.056C66.6534 156.821 66.9517 159.323 67.2305 161.515C67.2972 162.041 67.6348 162.496 68.2119 162.496C68.6908 162.496 69.2601 162.045 69.1934 161.515C68.895 159.162 68.5809 156.707 67.2972 154.648C66.2137 152.91 64.5059 151.765 62.5784 151.141C60.7254 150.541 58.7193 150.404 56.7839 150.471C54.6012 150.541 52.5519 150.988 50.6557 152.114C48.5358 153.373 46.8202 155.189 45.2538 157.068C44.9162 157.475 44.8534 158.056 45.2538 158.456C45.6032 158.805 46.302 158.864 46.6436 158.456Z" fill="black"/>
<path d="M78.5834 152.31C78.2223 148.333 77.0288 144.301 74.1237 141.418C72.785 140.089 71.1283 139.081 69.2989 138.587C67.4617 138.092 65.5184 138.12 63.6615 138.493C61.5455 138.92 59.5198 139.834 57.7374 141.042C57.4077 141.265 57.2075 141.611 57.2703 142.018C57.3213 142.36 57.5922 142.779 57.973 142.834C59.3313 143.022 60.7682 143.407 61.8085 144.344C62.9116 145.333 63.3396 146.796 63.9049 148.117C64.5252 149.572 65.3928 150.784 66.6647 151.741C67.8896 152.663 69.3735 153.239 70.885 153.471C72.9421 153.785 75.0188 153.541 77.017 152.996C78.234 152.663 77.7158 150.773 76.4949 151.106C73.582 151.902 70.1783 152.035 67.6776 150.063C65.3103 148.2 65.3653 144.795 63.0883 142.862C61.7928 141.76 60.1675 141.179 58.4991 140.948C58.5776 141.544 58.6561 142.144 58.7346 142.74C61.4159 140.92 64.8314 139.693 68.1016 140.324C71.3678 140.956 73.794 143.379 75.1562 146.325C76.0199 148.196 76.4399 150.27 76.6284 152.31C76.6755 152.835 77.0445 153.29 77.6098 153.29C78.0966 153.29 78.6305 152.839 78.5834 152.31Z" fill="black"/>
<path d="M86.4265 144.337C84.4047 143.278 82.7991 141.576 82.6538 139.203C82.5635 137.712 82.8972 136.226 83.0346 134.751C83.1838 133.143 83.0621 131.574 82.3633 130.1C81.849 130.496 81.3348 130.892 80.8205 131.288C82.5518 132.716 84.283 134.167 85.7395 135.889C87.0154 137.395 88.2913 139.422 88.0047 141.458C87.9301 141.983 88.1342 142.513 88.6917 142.666C89.151 142.791 89.8263 142.509 89.9009 141.98C90.635 136.787 85.7827 132.853 82.2141 129.903C81.3465 129.19 80.1884 130.06 80.6713 131.092C81.3348 132.496 81.162 134.116 80.9775 135.61C80.7891 137.128 80.5535 138.626 80.8009 140.152C81.2288 142.799 83.121 144.819 85.4372 146.031C86.5521 146.615 87.5454 144.921 86.4265 144.337Z" fill="black"/>
<path d="M93.8033 137.795C92.1859 136.387 91.1259 134.48 90.7726 132.366C90.3879 130.041 91.491 127.66 90.4075 125.444C89.9599 125.891 89.5124 126.338 89.0649 126.785C89.9285 127.268 90.7961 127.797 91.5577 128.433C92.2722 129.033 92.7237 129.601 92.5824 130.57C92.4254 131.625 92.2762 132.586 92.5942 133.633C92.8847 134.594 93.4421 135.473 94.2116 136.12C94.6159 136.461 95.2009 136.516 95.6013 136.12C95.9507 135.771 96.0096 135.077 95.6013 134.731C94.9418 134.178 94.4785 133.441 94.3647 132.574C94.2234 131.488 94.7416 130.449 94.51 129.35C94.3058 128.362 93.5913 127.558 92.8297 126.942C91.9621 126.244 91.0278 125.628 90.0581 125.083C89.163 124.581 88.2954 125.566 88.7155 126.424C89.218 127.456 88.8961 128.758 88.7822 129.845C88.6566 131.013 88.7194 132.178 88.9706 133.327C89.4535 135.567 90.6901 137.665 92.4175 139.171C92.8179 139.52 93.4107 139.563 93.8072 139.171C94.1606 138.826 94.2037 138.144 93.8033 137.795Z" fill="black"/>
<path d="M67.5988 163.696C69.8404 162.347 72.1017 160.958 74.0175 159.158C74.9636 158.268 75.8234 157.26 76.5104 156.154C77.2445 154.973 77.641 153.577 78.5008 152.475C79.9415 150.62 82.3559 149.816 84.2442 148.529C86.5447 146.96 88.0718 144.678 89.8895 142.623C91.7621 140.505 94.1254 138.979 96.2768 137.179C98.2946 135.488 99.9788 133.441 101.2 131.107C103.614 126.499 104.313 121.161 103.594 116.039C102.719 109.791 99.8178 103.982 96.1747 98.8994C95.8685 98.468 95.3189 98.2641 94.8321 98.5464C94.4081 98.7935 94.1686 99.4564 94.4787 99.8878C97.6429 104.308 100.226 109.218 101.353 114.568C102.362 119.357 102.063 124.534 100.034 129.029C99.0445 131.221 97.6783 133.221 95.9234 134.877C93.8663 136.814 91.4127 138.285 89.4027 140.277C87.5419 142.125 86.1521 144.403 84.1657 146.133C82.3559 147.71 80.0161 148.514 78.1631 150.043C77.0011 151.004 76.2905 152.228 75.6545 153.573C75.0578 154.84 74.3433 155.993 73.3854 157.017C71.4539 159.084 69.0121 160.558 66.6095 162.005C65.526 162.653 66.5114 164.351 67.5988 163.696Z" fill="black"/>
<path d="M53.4185 162.629C47.8007 164.104 42.1161 165.312 36.3844 166.241C35.8623 166.328 35.5679 166.975 35.6974 167.449C35.8505 168.006 36.3805 168.218 36.9066 168.136C42.6382 167.206 48.3228 166.002 53.9406 164.523C55.1615 164.202 54.6433 162.307 53.4185 162.629Z" fill="black"/>
<path d="M65.9145 176.698C65.0901 182.439 63.9869 188.142 62.6089 193.778C62.3106 195.006 64.2028 195.527 64.5012 194.3C65.8752 188.664 66.9784 182.965 67.8067 177.219C67.8813 176.698 67.6771 176.164 67.1197 176.011C66.6604 175.886 65.9891 176.172 65.9145 176.698Z" fill="black"/>
<path d="M76.3926 5.89952C75.5054 8.81362 74.3512 11.6297 72.9182 14.3163C71.5167 16.9441 69.8208 19.4071 68.6745 22.1643C66.2444 28.0082 67.532 34.46 70.127 40.0097C71.5952 43.1435 73.4757 46.0615 75.3444 48.9677C76.0275 50.0267 77.7273 49.0422 77.0403 47.9794C73.8251 42.9905 70.5039 37.8291 69.5538 31.8597C69.0984 29.0005 69.2947 26.0511 70.3154 23.3292C71.3204 20.6504 72.9889 18.2815 74.3551 15.787C75.9843 12.8141 77.2994 9.66863 78.2848 6.42508C78.6538 5.20924 76.7616 4.69153 76.3926 5.89952Z" fill="black"/>
<path d="M78.5324 49.8264C76.1062 47.0967 72.6476 45.975 69.1615 45.3278C68.3057 45.167 67.4459 45.0297 66.5862 44.8807C65.7814 44.7434 64.9688 44.665 64.1836 44.4297C62.7193 43.9904 61.4434 43.104 60.3952 41.998C59.1625 40.6959 58.2596 39.0878 57.6589 37.4052C57.4823 36.9071 56.9876 36.5738 56.4498 36.7189C55.9669 36.8522 55.5861 37.4249 55.7628 37.9269C56.9052 41.1351 59.0172 44.2257 62.1697 45.7357C63.7675 46.5005 65.4791 46.6731 67.2025 46.9672C68.9181 47.2575 70.6455 47.5634 72.2982 48.1164C74.163 48.74 75.8314 49.7401 77.1427 51.2148C77.9828 52.1561 79.3686 50.7677 78.5324 49.8264Z" fill="black"/>
<path d="M55.4878 37.4328C55.2719 39.7782 55.1934 42.1393 55.5938 44.4729C55.9982 46.8379 57.0032 49.0107 58.5735 50.8267C61.4864 54.1918 65.6007 57.5373 70.3548 56.745C73.1696 56.2744 75.5172 54.4585 77.7118 52.7602C78.1318 52.4347 78.0533 51.713 77.7118 51.3718C77.2995 50.96 76.746 51.0463 76.322 51.3718C74.5947 52.7092 72.7692 54.1016 70.6257 54.6781C68.6589 55.2037 66.692 54.7448 64.949 53.7604C63.1863 52.7681 61.6906 51.3679 60.3479 49.8736C58.9386 48.3087 58.016 46.5398 57.5881 44.4729C57.1092 42.1628 57.2387 39.7625 57.4546 37.4289C57.5017 36.8994 56.9678 36.4484 56.4732 36.4484C55.9 36.4523 55.5389 36.9033 55.4878 37.4328Z" fill="black"/>
<path d="M76.4434 66.0639C73.2989 68.676 69.4398 70.7076 65.2431 70.5115C61.5372 70.3389 58.5025 68.1465 56.6339 65.0324C55.5935 63.2988 54.9222 61.3888 54.5453 59.4081C54.0664 59.7768 53.5835 60.1455 53.1046 60.5142C54.5139 61.5849 56.1314 62.3771 57.9019 62.5929C59.6724 62.8046 61.2859 62.1967 62.8837 61.5182C64.4069 60.8711 65.8987 60.3612 67.579 60.573C69.1611 60.773 70.6882 61.4947 71.9209 62.4909C73.3735 63.6675 74.4923 65.1696 75.411 66.7855C76.0352 67.8837 77.7311 66.8954 77.1069 65.7972C75.3835 62.7576 72.8553 60.0278 69.4241 58.9806C67.7007 58.4551 65.8398 58.4159 64.1164 58.9532C62.5186 59.4513 61.0347 60.4004 59.3623 60.6436C57.4308 60.9221 55.5817 59.9533 54.0939 58.8238C53.7877 58.5924 53.2773 58.6826 53.0025 58.9022C52.6766 59.161 52.5746 59.5297 52.6492 59.9337C53.3715 63.7577 55.2598 67.5582 58.3808 69.982C62.0632 72.8451 67.0019 73.104 71.2732 71.4528C73.6914 70.5193 75.8428 69.1074 77.8292 67.4562C78.2375 67.1189 78.1786 66.4208 77.8292 66.0678C77.4288 65.6638 76.8517 65.7266 76.4434 66.0639Z" fill="black"/>
<path d="M75.623 77.3241C74.1351 77.0887 72.6119 77.0181 71.1554 77.4613C69.7971 77.8732 68.6036 78.6733 67.5986 79.6616C65.6396 81.5913 64.2696 84.5407 61.5097 85.4702C60.4144 85.8389 60.6892 87.2744 61.7688 87.3959C65.9105 87.8627 70.5076 88.4039 74.4138 86.5998C75.4816 86.1056 76.4631 85.3761 77.1854 84.4426C77.5113 84.023 77.5937 83.4621 77.1854 83.0542C76.8478 82.7169 76.1255 82.6345 75.7957 83.0542C74.2843 85.0035 71.8071 85.631 69.4123 85.8036C66.8606 85.9879 64.3049 85.7173 61.7688 85.4349C61.8552 86.0781 61.9416 86.7174 62.0279 87.3606C64.9095 86.3919 66.4523 83.87 68.3642 81.705C69.1846 80.7794 70.1465 79.9048 71.3164 79.4694C72.5294 79.0184 73.8289 79.0106 75.1008 79.2145C75.623 79.2969 76.1569 79.0811 76.31 78.5281C76.4356 78.0653 76.149 77.4103 75.623 77.3241Z" fill="black"/>
<path d="M77.2525 88.9491C74.5791 88.7608 71.8232 89.5217 69.6169 91.0474C68.5216 91.8083 67.6186 92.7182 66.7903 93.7615C66.0954 94.6361 65.3574 95.7147 64.2503 96.0833C63.3513 96.3853 63.2845 97.6992 64.2503 97.9738C65.5026 98.3267 66.7942 98.6013 68.0936 98.715C69.2949 98.8209 70.5198 98.6327 71.4698 97.8443C72.2786 97.1737 72.6594 96.1304 73.4955 95.4872C74.2886 94.8792 75.2661 94.6518 76.2515 94.7381C76.7814 94.7851 77.2329 94.2517 77.2329 93.7575C77.2329 93.1888 76.7814 92.8241 76.2515 92.777C75.1444 92.679 74.0216 92.9339 73.0441 93.4555C72.0273 94.0007 71.3599 94.84 70.7082 95.7617C70.1194 96.5932 69.4088 96.8207 68.4077 96.7736C67.1829 96.7148 65.9502 96.4128 64.7764 96.0794C64.7764 96.7109 64.7764 97.3384 64.7764 97.9698C67.2692 97.1344 68.2939 94.4988 70.2803 92.9731C72.2668 91.4514 74.7675 90.7258 77.2525 90.9023C77.7825 90.9415 78.234 90.4238 78.234 89.9218C78.234 89.3688 77.7825 88.9844 77.2525 88.9491Z" fill="black"/>
<path d="M76.6279 6.4487C77.5073 9.34711 78.6537 12.1671 80.0473 14.8576C81.3821 17.4305 83.0545 19.8269 84.2401 22.4782C86.6819 27.9455 85.461 34.0757 82.976 39.2921C81.5273 42.3356 79.694 45.1752 77.8724 48.003C77.1854 49.0659 78.8853 50.0503 79.5684 48.9913C82.866 43.8731 86.2776 38.5273 87.2551 32.4049C87.738 29.3771 87.6634 26.2394 86.6662 23.3175C85.6965 20.4701 84.0242 17.96 82.5559 15.3596C80.8678 12.371 79.5213 9.20984 78.5241 5.92314C78.1551 4.72299 76.2589 5.23678 76.6279 6.4487Z" fill="black"/>
<path d="M77.7704 51.2425C78.8893 49.9286 80.2515 48.901 81.8219 48.1872C83.6081 47.3754 85.4689 47.395 87.3808 47.2538C90.9219 46.991 94.1096 45.3476 96.418 42.6493C97.6546 41.2059 98.6007 39.5626 99.2092 37.7624C99.6136 36.5661 97.7213 36.0484 97.317 37.2407C96.3395 40.1235 94.247 42.6414 91.5657 44.0965C90.0857 44.9005 88.5075 45.2339 86.8312 45.328C85.834 45.3829 84.8408 45.4182 83.8515 45.5634C82.8701 45.7046 81.9475 46.0066 81.0406 46.3988C79.2505 47.1753 77.637 48.3716 76.3729 49.858C76.0313 50.262 75.9763 50.8503 76.3729 51.2464C76.738 51.5916 77.4289 51.6465 77.7704 51.2425Z" fill="black"/>
<path d="M97.462 37.4604C97.8389 41.5472 97.8624 46.0497 95.0476 49.3599C92.6647 52.1603 89.1001 55.494 85.084 54.8822C82.6146 54.5057 80.5143 52.8898 78.5946 51.4033C78.1746 51.0778 77.6132 50.9954 77.2049 51.4033C76.8673 51.7406 76.7848 52.4623 77.2049 52.7917C79.1874 54.3253 81.2328 55.898 83.6864 56.5805C86.0262 57.2315 88.417 56.8079 90.5526 55.7058C92.5783 54.6586 94.3292 53.082 95.8564 51.4073C97.4581 49.6462 98.6201 47.6656 99.158 45.332C99.7507 42.7513 99.6683 40.0842 99.4249 37.4682C99.3778 36.9427 99.0088 36.4877 98.4435 36.4877C97.9527 36.4799 97.4149 36.9309 97.462 37.4604Z" fill="black"/>
<path d="M77.0838 67.4798C80.621 70.4214 84.9433 72.7197 89.6699 72.504C91.8723 72.402 94.0472 71.7471 95.8727 70.492C97.5137 69.3624 98.8641 67.8681 99.9006 66.1738C101.063 64.2755 101.848 62.138 102.26 59.9573C102.335 59.5651 102.244 59.1768 101.907 58.9258C101.62 58.714 101.129 58.6121 100.815 58.8474C99.508 59.8397 97.9651 60.6947 96.281 60.7064C94.5811 60.7221 93.0383 59.8044 91.4876 59.22C87.9858 57.8982 84.2877 58.8787 81.4729 61.232C79.9614 62.4949 78.768 64.1186 77.7983 65.8208C77.1741 66.919 78.8701 67.9113 79.4943 66.8092C81.096 63.9892 83.4358 61.4203 86.7256 60.7025C88.398 60.3378 89.9447 60.679 91.4993 61.3183C93.0697 61.9615 94.6204 62.6988 96.3595 62.6636C98.3577 62.6204 100.238 61.7262 101.805 60.5378C101.326 60.1691 100.843 59.8004 100.364 59.4318C99.72 62.844 98.1339 66.2405 95.3623 68.4368C92.206 70.9391 87.9661 71.0058 84.3151 69.637C82.1756 68.833 80.2205 67.5387 78.4696 66.0875C78.0613 65.7502 77.4803 65.6875 77.0799 66.0875C76.7344 66.4444 76.6755 67.1425 77.0838 67.4798Z" fill="black"/>
<path d="M77.1107 79.944C78.5633 79.4891 80.11 79.2694 81.6058 79.6459C83.0583 80.0146 84.2164 80.8892 85.1939 82.0031C87.1647 84.2505 88.6526 86.9214 91.6322 87.9686C91.7186 87.3253 91.805 86.6861 91.8914 86.0428C89.3749 86.286 86.8349 86.5096 84.3067 86.2939C82.0415 86.1017 79.4387 85.4624 78.0608 83.6268C77.7428 83.2033 77.2128 82.9875 76.7181 83.2739C76.302 83.517 76.0468 84.1877 76.3648 84.6152C79.1364 88.3059 84.3067 88.5137 88.5309 88.2784C89.6536 88.2157 90.7725 88.1098 91.8914 88.0039C92.9867 87.898 93.2301 86.4586 92.1505 86.0781C89.9952 85.3172 88.6722 83.219 87.3217 81.5129C86.5248 80.5049 85.669 79.5675 84.5933 78.8498C83.5255 78.1359 82.2967 77.7163 81.0247 77.5594C79.5329 77.3751 78.0137 77.6065 76.5847 78.0536C75.3873 78.4301 75.9016 80.3205 77.1107 79.944Z" fill="black"/>
<path d="M76.4864 90.9376C78.9753 90.7611 81.476 91.4867 83.4586 93.0085C85.445 94.5303 86.4697 97.1659 88.9625 98.0052C88.9625 97.3737 88.9625 96.7462 88.9625 96.1148C87.8123 96.4403 86.6071 96.7344 85.4097 96.805C84.3811 96.8639 83.6392 96.6599 83.0307 95.7971C82.3908 94.8911 81.743 94.0753 80.7576 93.5262C79.7683 92.9771 78.6181 92.7104 77.4874 92.8085C76.9614 92.8555 76.506 93.2242 76.506 93.789C76.506 94.2832 76.9574 94.8166 77.4874 94.7695C78.465 94.6832 79.4307 94.9107 80.2237 95.5068C81.0756 96.1461 81.4564 97.1973 82.2691 97.8758C83.1955 98.6484 84.389 98.8484 85.5667 98.7543C86.8897 98.6484 88.2127 98.366 89.4847 98.0052C90.4504 97.7307 90.3837 96.4168 89.4847 96.1148C88.3776 95.7422 87.6395 94.6675 86.9447 93.7929C86.1203 92.7536 85.2173 91.8397 84.1181 91.0788C81.9157 89.5531 79.1598 88.7923 76.4824 88.9805C75.9524 89.0197 75.501 89.4041 75.501 89.961C75.5049 90.4591 75.9564 90.9769 76.4864 90.9376Z" fill="black"/>
<path d="M76.7697 49.909C76.008 52.9956 75.2464 56.1568 75.2935 59.3611C75.3132 60.9104 75.533 62.4753 76.0159 63.95C76.4752 65.358 77.1033 66.6993 77.0994 68.2054C77.0955 69.684 76.6637 71.1156 76.2711 72.5275C75.8471 74.0454 75.4741 75.5671 75.3996 77.1516C75.2504 80.3638 76.063 83.5328 75.8863 86.7489C75.7136 89.9572 74.9363 93.1184 75.0541 96.3423C75.1522 99.0368 75.7686 101.7 76.8089 104.186C78.9485 109.305 82.6623 113.58 87.2241 116.706C92.0175 119.992 97.6274 121.989 103.3 123.122C104.015 123.263 104.729 123.393 105.448 123.51C105.97 123.597 106.504 123.373 106.657 122.824C106.786 122.357 106.496 121.702 105.97 121.616C100.411 120.702 94.9068 119.067 90.0428 116.176C85.4928 113.47 81.6612 109.654 79.2822 104.9C78.1633 102.665 77.3821 100.209 77.119 97.7229C76.7971 94.6637 77.3546 91.6633 77.6922 88.6354C77.865 87.0705 77.9356 85.5095 77.8257 83.9368C77.7158 82.3523 77.4841 80.7795 77.3899 79.1911C77.2996 77.6576 77.3821 76.1633 77.7393 74.669C78.0809 73.2492 78.552 71.8608 78.8268 70.4214C79.1134 68.9114 79.1644 67.3935 78.7561 65.9031C78.3675 64.4794 77.7393 63.1498 77.4724 61.6869C76.9228 58.6944 77.4684 55.5881 78.1358 52.6583C78.3046 51.9131 78.4852 51.1719 78.6697 50.4306C78.9681 49.203 77.0759 48.6813 76.7697 49.909Z" fill="black"/>
<path d="M88.5823 39.48C91.8447 33.8754 95.3779 28.4276 99.1663 23.1642C99.4764 22.7328 99.2409 22.0739 98.813 21.8229C98.3183 21.5326 97.7805 21.7444 97.4704 22.1759C93.682 27.4393 90.1487 32.887 86.8864 38.4917C86.2504 39.582 87.9464 40.5703 88.5823 39.48Z" fill="black"/>
<path d="M67.5793 38.3466C63.681 33.1616 60.0379 27.7884 56.6617 22.2543C56.0061 21.1797 54.3062 22.1641 54.9658 23.2427C58.3459 28.7806 61.989 34.15 65.8834 39.3349C66.2014 39.7585 66.7314 39.9742 67.226 39.6879C67.6461 39.4447 67.9013 38.7741 67.5793 38.3466Z" fill="black"/>
</g>
<defs>
<clipPath id="clip0_501_28722">
<rect width="200" height="200" fill="white"/>
</clipPath>
</defs>
</svg>
