<svg width="200" height="200" viewBox="0 0 200 200" fill="none" xmlns="http://www.w3.org/2000/svg">
<path fill-rule="evenodd" clip-rule="evenodd" d="M107.729 76.0364C89.7677 76.0364 75.2625 89.9406 75.2625 107.026C75.2625 124.111 89.7677 138.015 107.729 138.015C125.69 138.015 140.195 124.111 140.195 107.026C140.195 89.9406 125.69 76.0364 107.729 76.0364ZM73.8196 107.026C73.8196 89.0849 89.0319 74.5951 107.729 74.5951C126.426 74.5951 141.638 89.0849 141.638 107.026C141.638 124.966 126.426 139.456 107.729 139.456C89.0319 139.456 73.8196 124.966 73.8196 107.026Z" fill="black"/>
<path fill-rule="evenodd" clip-rule="evenodd" d="M108.451 34.5975V69.19H107.009V34.5975H108.451Z" fill="black"/>
<path fill-rule="evenodd" clip-rule="evenodd" d="M108.451 144.861V179.454H107.009V144.861H108.451Z" fill="black"/>
<path fill-rule="evenodd" clip-rule="evenodd" d="M66.2436 107.746H31.6128V106.305H66.2436V107.746Z" fill="black"/>
<path fill-rule="evenodd" clip-rule="evenodd" d="M146.689 106.305H181.32V107.746H146.689V106.305Z" fill="black"/>
<path fill-rule="evenodd" clip-rule="evenodd" d="M57.6067 68.2174L78.5294 81.1896L77.7685 82.4143L56.8457 69.442L57.6067 68.2174Z" fill="black"/>
<path fill-rule="evenodd" clip-rule="evenodd" d="M139.06 128.87L159.983 141.842L159.222 143.067L138.299 130.094L139.06 128.87Z" fill="black"/>
<path fill-rule="evenodd" clip-rule="evenodd" d="M65.8147 144.282L74.1117 138.156L74.9693 139.315L66.6724 145.441L65.8147 144.282Z" fill="black"/>
<path fill-rule="evenodd" clip-rule="evenodd" d="M136.34 77.7991L144.637 71.6733L145.494 72.8324L137.198 78.9582L136.34 77.7991Z" fill="black"/>
<path fill-rule="evenodd" clip-rule="evenodd" d="M191 72.7277L146.99 92.9067L146.388 91.5968L190.398 71.4178L191 72.7277Z" fill="black"/>
<path fill-rule="evenodd" clip-rule="evenodd" d="M9 144.184L70.145 121.843L70.6407 123.197L9.49568 145.538L9 144.184Z" fill="black"/>
<path fill-rule="evenodd" clip-rule="evenodd" d="M159.415 200L126.948 145.228L128.19 144.494L160.656 199.266L159.415 200Z" fill="black"/>
<path fill-rule="evenodd" clip-rule="evenodd" d="M51.7153 0L90.3142 65.5817L89.0703 66.3122L50.4714 0.730498L51.7153 0Z" fill="black"/>
</svg>
