<svg width="200" height="200" viewBox="0 0 200 200" fill="none" xmlns="http://www.w3.org/2000/svg">
<g clip-path="url(#clip0_501_30195)">
<path d="M60.1493 106.337C77.8013 106.337 92.1111 101.806 92.1111 96.2164C92.1111 90.6269 77.8013 86.0958 60.1493 86.0958C42.4973 86.0958 28.1875 90.6269 28.1875 96.2164C28.1875 101.806 42.4973 106.337 60.1493 106.337Z" fill="white"/>
<path fill-rule="evenodd" clip-rule="evenodd" d="M31.3062 93.0861C29.7977 94.2155 29.1998 95.284 29.1998 96.2163C29.1998 97.1487 29.7977 98.2172 31.3062 99.3466C32.797 100.463 35.0186 101.511 37.8546 102.409C43.515 104.201 51.3975 105.326 60.1491 105.326C68.9006 105.326 76.7831 104.201 82.4435 102.409C85.2795 101.511 87.5011 100.463 88.9919 99.3466C90.5004 98.2172 91.0984 97.1487 91.0984 96.2163C91.0984 95.284 90.5004 94.2155 88.9919 93.0861C87.5011 91.9701 85.2795 90.922 82.4435 90.024C76.7831 88.2316 68.9006 87.107 60.1491 87.107C51.3975 87.107 43.515 88.2316 37.8546 90.024C35.0186 90.922 32.797 91.9701 31.3062 93.0861ZM37.2427 88.096C43.1502 86.2255 51.2486 85.0845 60.1491 85.0845C69.0495 85.0845 77.1479 86.2255 83.0554 88.096C86.0033 89.0295 88.4625 90.1622 90.2064 91.4678C91.9325 92.7601 93.1233 94.354 93.1233 96.2163C93.1233 98.0787 91.9325 99.6726 90.2064 100.965C88.4625 102.27 86.0033 103.403 83.0554 104.337C77.1479 106.207 69.0495 107.348 60.1491 107.348C51.2486 107.348 43.1502 106.207 37.2427 104.337C34.2948 103.403 31.8357 102.27 30.0917 100.965C28.3656 99.6726 27.1748 98.0787 27.1748 96.2163C27.1748 94.354 28.3656 92.7601 30.0917 91.4678C31.8357 90.1622 34.2948 89.0295 37.2427 88.096Z" fill="black"/>
<path d="M99.4046 89.5062C99.6467 83.294 85.5447 77.702 67.9068 77.0162C50.269 76.3304 35.7743 80.8104 35.5322 87.0226C35.29 93.2348 49.3921 98.8268 67.03 99.5126C84.6678 100.198 99.1624 95.7184 99.4046 89.5062Z" fill="white"/>
<path fill-rule="evenodd" clip-rule="evenodd" d="M44.9499 94.4002C50.5177 96.608 58.3341 98.1625 67.0696 98.5022C75.8051 98.8419 83.7188 97.899 89.4416 96.1302C92.3077 95.2443 94.569 94.1681 96.1069 92.9857C97.6508 91.7986 98.349 90.6018 98.3932 89.4669C98.4374 88.3319 97.8345 87.0846 96.3877 85.7812C94.9465 84.4829 92.7758 83.2344 89.9874 82.1287C84.4196 79.9208 76.6032 78.3663 67.8677 78.0266C59.1322 77.687 51.2185 78.6298 45.4957 80.3986C42.6296 81.2845 40.3683 82.3607 38.8304 83.5432C37.2865 84.7302 36.5884 85.927 36.5441 87.0619C36.4999 88.1969 37.1028 89.4442 38.5496 90.7476C39.9908 92.0459 42.1615 93.2945 44.9499 94.4002ZM37.1934 92.2494C35.513 90.7356 34.444 88.9544 34.5208 86.9833C34.5976 85.0121 35.8021 83.3193 37.5952 81.9406C39.3943 80.5573 41.9045 79.3916 44.8971 78.4666C50.8916 76.6138 59.0441 75.6596 67.9465 76.0058C76.8488 76.3519 84.9024 77.9363 90.7346 80.249C93.6461 81.4035 96.0579 82.7606 97.7439 84.2794C99.4243 85.7932 100.493 87.5744 100.417 89.5456C100.34 91.5167 99.1352 93.2095 97.3421 94.5882C95.543 95.9715 93.0329 97.1372 90.0402 98.0622C84.0457 99.915 75.8932 100.869 66.9908 100.523C58.0885 100.177 50.0349 98.5925 44.2027 96.2799C41.2912 95.1253 38.8794 93.7682 37.1934 92.2494Z" fill="black"/>
<path d="M153.823 85.9582C170.757 85.9582 184.485 82.2076 184.485 77.5811C184.485 72.9545 170.757 69.2039 153.823 69.2039C136.889 69.2039 123.161 72.9545 123.161 77.5811C123.161 82.2076 136.889 85.9582 153.823 85.9582Z" fill="white"/>
<path fill-rule="evenodd" clip-rule="evenodd" d="M126.121 75.1694C124.649 76.1207 124.174 76.9585 124.174 77.581C124.174 78.2036 124.649 79.0414 126.121 79.9927C127.549 80.9151 129.683 81.7842 132.41 82.5292C137.849 84.0153 145.42 84.947 153.824 84.947C162.227 84.947 169.798 84.0153 175.238 82.5292C177.964 81.7842 180.098 80.9151 181.526 79.9927C182.999 79.0414 183.473 78.2036 183.473 77.581C183.473 76.9585 182.999 76.1207 181.526 75.1694C180.098 74.247 177.964 73.3779 175.238 72.6329C169.798 71.1468 162.227 70.2151 153.824 70.2151C145.42 70.2151 137.849 71.1468 132.41 72.6329C129.683 73.3779 127.549 74.247 126.121 75.1694ZM131.875 70.6821C137.534 69.1362 145.293 68.1926 153.824 68.1926C162.354 68.1926 170.114 69.1362 175.772 70.6821C178.594 71.453 180.951 72.3891 182.626 73.4711C184.256 74.5243 185.498 75.8903 185.498 77.581C185.498 79.2718 184.256 80.6378 182.626 81.691C180.951 82.773 178.594 83.7091 175.772 84.48C170.114 86.0259 162.354 86.9695 153.824 86.9695C145.293 86.9695 137.534 86.0259 131.875 84.48C129.054 83.7091 126.697 82.773 125.022 81.691C123.391 80.6378 122.149 79.2718 122.149 77.581C122.149 75.8903 123.391 74.5243 125.022 73.4711C126.697 72.3891 129.054 71.453 131.875 70.6821Z" fill="black"/>
<path d="M128.54 79.2759C146.192 79.2759 160.502 74.7448 160.502 69.1553C160.502 63.5659 146.192 59.0348 128.54 59.0348C110.888 59.0348 96.5781 63.5659 96.5781 69.1553C96.5781 74.7448 110.888 79.2759 128.54 79.2759Z" fill="white"/>
<path fill-rule="evenodd" clip-rule="evenodd" d="M99.6969 66.0251C98.1883 67.1545 97.5904 68.2229 97.5904 69.1553C97.5904 70.0877 98.1883 71.1562 99.6969 72.2856C101.188 73.4016 103.409 74.4497 106.245 75.3477C111.906 77.14 119.788 78.2647 128.54 78.2647C137.291 78.2647 145.174 77.14 150.834 75.3477C153.67 74.4497 155.892 73.4016 157.382 72.2856C158.891 71.1562 159.489 70.0877 159.489 69.1553C159.489 68.2229 158.891 67.1545 157.382 66.0251C155.892 64.9091 153.67 63.861 150.834 62.963C145.174 61.1706 137.291 60.046 128.54 60.046C119.788 60.046 111.906 61.1706 106.245 62.963C103.409 63.861 101.188 64.9091 99.6969 66.0251ZM105.633 61.035C111.541 59.1645 119.639 58.0235 128.54 58.0235C137.44 58.0235 145.539 59.1645 151.446 61.035C154.394 61.9685 156.853 63.1012 158.597 64.4068C160.323 65.699 161.514 67.293 161.514 69.1553C161.514 71.0177 160.323 72.6116 158.597 73.9039C156.853 75.2095 154.394 76.3422 151.446 77.2756C145.539 79.1462 137.44 80.2872 128.54 80.2872C119.639 80.2872 111.541 79.1462 105.633 77.2756C102.685 76.3422 100.226 75.2095 98.4824 73.9039C96.7562 72.6116 95.5654 71.0177 95.5654 69.1553C95.5654 67.293 96.7562 65.699 98.4824 64.4068C100.226 63.1012 102.685 61.9685 105.633 61.035Z" fill="black"/>
<path d="M75.2594 91.237C92.0413 91.237 105.646 86.7058 105.646 81.1164C105.646 75.5269 92.0413 70.9958 75.2594 70.9958C58.4775 70.9958 44.873 75.5269 44.873 81.1164C44.873 86.7058 58.4775 91.237 75.2594 91.237Z" fill="white"/>
<path fill-rule="evenodd" clip-rule="evenodd" d="M47.8876 77.9711C46.4654 79.091 45.8853 80.1615 45.8853 81.1164C45.8853 82.0712 46.4654 83.1417 47.8876 84.2616C49.2984 85.3726 51.4026 86.4173 54.0931 87.3134C59.4634 89.102 66.9468 90.2257 75.2592 90.2257C83.5716 90.2257 91.055 89.102 96.4253 87.3134C99.1157 86.4173 101.22 85.3726 102.631 84.2616C104.053 83.1417 104.633 82.0712 104.633 81.1164C104.633 80.1615 104.053 79.091 102.631 77.9711C101.22 76.8602 99.1157 75.8154 96.4253 74.9194C91.055 73.1307 83.5716 72.007 75.2592 72.007C66.9468 72.007 59.4634 73.1307 54.0931 74.9194C51.4026 75.8154 49.2984 76.8602 47.8876 77.9711ZM53.4525 73.0007C59.0799 71.1264 66.7897 69.9845 75.2592 69.9845C83.7287 69.9845 91.4385 71.1264 97.0659 73.0007C99.8743 73.9361 102.22 75.0722 103.884 76.3829C105.538 77.6846 106.658 79.2765 106.658 81.1164C106.658 82.9562 105.538 84.5482 103.884 85.8499C102.22 87.1605 99.8743 88.2966 97.0659 89.232C91.4385 91.1063 83.7287 92.2482 75.2592 92.2482C66.7897 92.2482 59.0799 91.1063 53.4525 89.232C50.6441 88.2966 48.2983 87.1605 46.6339 85.8499C44.9808 84.5482 43.8604 82.9562 43.8604 81.1164C43.8604 79.2765 44.9808 77.6846 46.6339 76.3829C48.2983 75.0722 50.6441 73.9361 53.4525 73.0007Z" fill="black"/>
<path d="M33.0799 151.989C50.7319 151.989 65.0417 145.096 65.0417 136.593C65.0417 128.091 50.7319 121.198 33.0799 121.198C15.4279 121.198 1.11816 128.091 1.11816 136.593C1.11816 145.096 15.4279 151.989 33.0799 151.989Z" fill="white"/>
<path fill-rule="evenodd" clip-rule="evenodd" d="M10.9191 126.618C5.22866 129.359 2.13042 132.951 2.13042 136.593C2.13042 140.236 5.22866 143.828 10.9191 146.569C16.5381 149.275 24.3719 150.977 33.0797 150.977C41.7876 150.977 49.6213 149.275 55.2403 146.569C60.9308 143.828 64.029 140.236 64.029 136.593C64.029 132.951 60.9308 129.359 55.2403 126.618C49.6213 123.912 41.7876 122.209 33.0797 122.209C24.3719 122.209 16.5381 123.912 10.9191 126.618ZM10.0395 124.797C15.9884 121.931 24.1356 120.187 33.0797 120.187C42.0239 120.187 50.171 121.931 56.1199 124.797C61.9973 127.628 66.0539 131.734 66.0539 136.593C66.0539 141.453 61.9973 145.559 56.1199 148.39C50.171 151.256 42.0239 153 33.0797 153C24.1356 153 15.9884 151.256 10.0395 148.39C4.16211 145.559 0.105469 141.453 0.105469 136.593C0.105469 131.734 4.16211 127.628 10.0395 124.797Z" fill="black"/>
<path d="M101.984 150.338C119.636 150.338 133.946 142.399 133.946 132.605C133.946 122.811 119.636 114.872 101.984 114.872C84.3322 114.872 70.0225 122.811 70.0225 132.605C70.0225 142.399 84.3322 150.338 101.984 150.338Z" fill="white"/>
<path fill-rule="evenodd" clip-rule="evenodd" d="M79.8763 120.95C74.2349 124.08 71.0357 128.242 71.0357 132.605C71.0357 136.968 74.2349 141.13 79.8763 144.26C85.4833 147.371 93.2979 149.327 101.985 149.327C110.672 149.327 118.487 147.371 124.094 144.26C129.735 141.13 132.934 136.968 132.934 132.605C132.934 128.242 129.735 124.08 124.094 120.95C118.487 117.839 110.672 115.883 101.985 115.883C93.2979 115.883 85.4833 117.839 79.8763 120.95ZM78.8929 119.182C84.8538 115.875 93.0201 113.861 101.985 113.861C110.95 113.861 119.116 115.875 125.077 119.182C131.004 122.47 134.959 127.174 134.959 132.605C134.959 138.036 131.004 142.74 125.077 146.028C119.116 149.336 110.95 151.35 101.985 151.35C93.0201 151.35 84.8538 149.336 78.8929 146.028C72.9664 142.74 69.0107 138.036 69.0107 132.605C69.0107 127.174 72.9664 122.47 78.8929 119.182Z" fill="black"/>
<path d="M105.131 69.1553C119.916 69.1553 131.901 64.6459 131.901 59.0833C131.901 53.5207 119.916 49.0113 105.131 49.0113C90.3466 49.0113 78.3613 53.5207 78.3613 59.0833C78.3613 64.6459 90.3466 69.1553 105.131 69.1553Z" fill="white"/>
<path fill-rule="evenodd" clip-rule="evenodd" d="M81.1387 55.918C79.9087 57.0121 79.3741 58.0839 79.3741 59.0833C79.3741 60.0827 79.9087 61.1545 81.1387 62.2486C82.3677 63.3419 84.2037 64.3727 86.5592 65.259C91.2628 67.0287 97.8288 68.1441 105.131 68.1441C112.434 68.1441 119 67.0287 123.704 65.259C126.059 64.3727 127.895 63.3419 129.124 62.2486C130.354 61.1545 130.889 60.0827 130.889 59.0833C130.889 58.0839 130.354 57.0121 129.124 55.918C127.895 54.8247 126.059 53.7939 123.704 52.9076C119 51.1379 112.434 50.0225 105.131 50.0225C97.8288 50.0225 91.2628 51.1379 86.5592 52.9076C84.2037 53.7939 82.3677 54.8247 81.1387 55.918ZM85.8454 51.0149C90.8305 49.1393 97.6494 48 105.131 48C112.613 48 119.432 49.1393 124.417 51.0149C126.906 51.9514 128.991 53.0909 130.471 54.4076C131.95 55.7235 132.914 57.3014 132.914 59.0833C132.914 60.8652 131.95 62.443 130.471 63.7589C128.991 65.0757 126.906 66.2152 124.417 67.1516C119.432 69.0273 112.613 70.1666 105.131 70.1666C97.6494 70.1666 90.8305 69.0273 85.8454 67.1516C83.3565 66.2152 81.2721 65.0757 79.7919 63.7589C78.3126 62.443 77.3491 60.8652 77.3491 59.0833C77.3491 57.3014 78.3126 55.7235 79.7919 54.4076C81.2721 53.0909 83.3565 51.9514 85.8454 51.0149Z" fill="black"/>
<path d="M167.026 79.8624C184.678 79.8624 198.988 75.9561 198.988 71.1374C198.988 66.3187 184.678 62.4123 167.026 62.4123C149.374 62.4123 135.064 66.3187 135.064 71.1374C135.064 75.9561 149.374 79.8624 167.026 79.8624Z" fill="white"/>
<path fill-rule="evenodd" clip-rule="evenodd" d="M138.125 68.5905C136.587 69.5836 136.077 70.4672 136.077 71.1374C136.077 71.8076 136.587 72.6911 138.125 73.6842C139.619 74.6484 141.848 75.5549 144.693 76.3314C150.367 77.8805 158.264 78.8512 167.026 78.8512C175.788 78.8512 183.685 77.8805 189.359 76.3314C192.204 75.5549 194.433 74.6484 195.927 73.6842C197.465 72.6911 197.975 71.8076 197.975 71.1374C197.975 70.4672 197.465 69.5836 195.927 68.5905C194.433 67.6264 192.204 66.7198 189.359 65.9433C183.685 64.3942 175.788 63.4236 167.026 63.4236C158.264 63.4236 150.367 64.3942 144.693 65.9433C141.848 66.7198 139.619 67.6264 138.125 68.5905ZM144.159 63.9924C150.052 62.3836 158.136 61.4011 167.026 61.4011C175.916 61.4011 184 62.3836 189.893 63.9924C192.833 64.7948 195.285 65.7683 197.026 66.8918C198.722 67.9865 200 69.3982 200 71.1374C200 72.8765 198.722 74.2883 197.026 75.3829C195.285 76.5065 192.833 77.48 189.893 78.2824C184 79.8912 175.916 80.8737 167.026 80.8737C158.136 80.8737 150.052 79.8912 144.159 78.2824C141.219 77.48 138.767 76.5065 137.026 75.3829C135.33 74.2883 134.052 72.8765 134.052 71.1374C134.052 69.3982 135.33 67.9865 137.026 66.8918C138.767 65.7683 141.219 64.7948 144.159 63.9924Z" fill="black"/>
<path d="M33.4321 148.955C51.3368 148.955 65.8515 141.963 65.8515 133.337C65.8515 124.712 51.3368 117.72 33.4321 117.72C15.5274 117.72 1.0127 124.712 1.0127 133.337C1.0127 141.963 15.5274 148.955 33.4321 148.955Z" fill="white"/>
<path fill-rule="evenodd" clip-rule="evenodd" d="M10.9477 123.205C5.17452 125.986 2.02495 129.633 2.02495 133.337C2.02495 137.041 5.17452 140.689 10.9477 143.47C16.6496 146.217 24.5977 147.944 33.4319 147.944C42.2661 147.944 50.2142 146.217 55.916 143.47C61.6892 140.689 64.8388 137.041 64.8388 133.337C64.8388 129.633 61.6892 125.986 55.916 123.205C50.2142 120.458 42.2661 118.731 33.4319 118.731C24.5977 118.731 16.6496 120.458 10.9477 123.205ZM10.068 121.383C16.0998 118.477 24.3613 116.708 33.4319 116.708C42.5024 116.708 50.764 118.477 56.7957 121.383C62.756 124.254 66.8638 128.416 66.8638 133.337C66.8638 138.259 62.756 142.42 56.7957 145.292C50.764 148.197 42.5024 149.966 33.4319 149.966C24.3613 149.966 16.0998 148.197 10.068 145.292C4.10776 142.42 0 138.259 0 133.337C0 128.416 4.10776 124.254 10.068 121.383Z" fill="black"/>
<path d="M60.3348 103.785C77.9868 103.785 92.2966 99.2534 92.2966 93.664C92.2966 88.0745 77.9868 83.5434 60.3348 83.5434C42.6828 83.5434 28.373 88.0745 28.373 93.664C28.373 99.2534 42.6828 103.785 60.3348 103.785Z" fill="white"/>
<path fill-rule="evenodd" clip-rule="evenodd" d="M31.4928 90.5337C29.9842 91.6631 29.3863 92.7316 29.3863 93.664C29.3863 94.5964 29.9842 95.6648 31.4928 96.7942C32.9836 97.9102 35.2051 98.9583 38.0412 99.8563C43.7015 101.649 51.584 102.773 60.3356 102.773C69.0872 102.773 76.9696 101.649 82.63 99.8563C85.466 98.9583 87.6876 97.9102 89.1784 96.7942C90.6869 95.6648 91.2849 94.5964 91.2849 93.664C91.2849 92.7316 90.6869 91.6631 89.1784 90.5337C87.6876 89.4177 85.466 88.3696 82.63 87.4716C76.9696 85.6792 69.0872 84.5546 60.3356 84.5546C51.584 84.5546 43.7015 85.6792 38.0412 87.4716C35.2051 88.3696 32.9836 89.4177 31.4928 90.5337ZM37.4292 85.5437C43.3367 83.6731 51.4352 82.5321 60.3356 82.5321C69.236 82.5321 77.3344 83.6731 83.2419 85.5437C86.1898 86.4771 88.649 87.6098 90.3929 88.9154C92.119 90.2077 93.3098 91.8016 93.3098 93.664C93.3098 95.5263 92.119 97.1203 90.3929 98.4125C88.649 99.7181 86.1898 100.851 83.2419 101.784C77.3344 103.655 69.236 104.796 60.3356 104.796C51.4352 104.796 43.3367 103.655 37.4292 101.784C34.4813 100.851 32.0222 99.7181 30.2783 98.4125C28.5521 97.1203 27.3613 95.5263 27.3613 93.664C27.3613 91.8016 28.5521 90.2077 30.2783 88.9154C32.0222 87.6098 34.4813 86.4771 37.4292 85.5437Z" fill="black"/>
</g>
<defs>
<clipPath id="clip0_501_30195">
<rect width="200" height="200" fill="white"/>
</clipPath>
</defs>
</svg>
