<svg width="200" height="200" viewBox="0 0 200 200" fill="none" xmlns="http://www.w3.org/2000/svg">
<g clip-path="url(#clip0_501_29051)">
<path d="M99.3112 16.9905C97.6271 17.2383 96.0449 18.0197 94.9785 19.3666C93.9502 20.6658 93.4154 22.2604 93.113 23.8709C92.7787 25.6434 92.6705 27.4508 92.5559 29.2487C92.5017 30.1159 92.4444 30.9863 92.3553 31.8503C92.2757 32.619 92.2025 33.2194 92.0115 34.0548C91.9192 34.4614 91.8077 34.8617 91.6645 35.2524C91.6327 35.335 91.6008 35.4175 91.569 35.5001C91.5149 35.6399 91.5626 35.516 91.5722 35.4906C91.5499 35.5383 91.5276 35.5891 91.5053 35.6367C91.3748 35.9163 91.2252 36.1894 91.0628 36.4531C90.3752 37.5744 89.3788 38.5433 88.1117 38.9689C87.1471 39.2929 87.561 40.8272 88.5351 40.5C90.805 39.7376 92.4731 37.7714 93.2435 35.551C93.7751 34.0199 93.9216 32.3586 94.0457 30.7544C94.1826 28.9883 94.2495 27.2158 94.466 25.456C94.4787 25.348 94.501 25.1891 94.5328 24.9731C94.5646 24.7603 94.6028 24.5443 94.641 24.3315C94.7174 23.9185 94.8098 23.5056 94.9212 23.099C95.0231 22.721 95.144 22.3493 95.2873 21.984C95.3032 21.9459 95.3892 21.7394 95.3319 21.8665C95.3701 21.7775 95.4114 21.6886 95.4528 21.5997C95.5356 21.4249 95.6247 21.2566 95.7202 21.0882C95.8253 20.904 95.9399 20.7229 96.0641 20.5514C96.0927 20.5133 96.1182 20.4752 96.1468 20.437C96.2328 20.3195 96.115 20.472 96.1723 20.4053C96.2391 20.3227 96.306 20.2433 96.376 20.167C96.5097 20.0209 96.6498 19.878 96.7994 19.7477C97.0286 19.5444 96.9809 19.5826 97.2006 19.4333C97.9869 18.9028 98.735 18.6677 99.7346 18.5184C100.161 18.4549 100.394 17.9181 100.292 17.5401C100.164 17.0922 99.7378 16.927 99.3112 16.9905Z" fill="black"/>
<path d="M88.8352 40.4016C90.7676 44.8392 94.7151 48.2794 99.2897 49.8136C100.611 50.2584 101.986 50.5188 103.374 50.6268C103.804 50.6586 104.17 50.2393 104.17 49.8327C104.17 49.3753 103.804 49.0703 103.374 49.0386C98.9937 48.7082 94.8265 46.3608 92.1492 42.9047C91.3661 41.8914 90.7166 40.7732 90.2073 39.6043C90.0354 39.2104 89.4592 39.1215 89.1185 39.3184C88.7142 39.5503 88.6633 40.0045 88.8352 40.4016Z" fill="black"/>
<path d="M77.6517 34.8299C74.6147 32.4793 72.6154 29.1852 71.1892 25.6751C69.7471 22.1238 68.5151 18.2357 65.424 15.7294C63.9596 14.5414 62.2373 13.6806 60.34 13.5027C58.5795 13.3375 56.8572 13.922 55.5106 15.0465C53.1453 17.0223 52.1425 20.2846 51.3626 23.1498C50.0605 27.9336 49.8823 32.9081 49.9427 37.8381C49.9555 38.8609 51.5472 38.8609 51.5345 37.8381C51.4836 33.6355 51.5759 29.3885 52.48 25.2685C52.8174 23.7343 53.244 22.2 53.7852 20.7229C54.2627 19.4174 54.874 18.0896 55.7844 17.0254C56.7108 15.9423 57.9269 15.1704 59.3817 15.0782C61.0531 14.9702 62.6384 15.6437 63.9723 16.603C66.9775 18.7662 68.1904 22.4319 69.5084 25.7196C71.0651 29.614 73.1598 33.3401 76.5343 35.9544C76.8749 36.218 77.3302 36.2847 77.6612 35.9544C77.9255 35.6812 77.9923 35.0935 77.6517 34.8299Z" fill="black"/>
<path d="M89.4942 38.8324C87.409 38.969 85.3429 38.7339 83.3342 38.1526C82.3473 37.8667 81.9271 39.401 82.9107 39.6837C85.0405 40.2967 87.2785 40.5667 89.4942 40.4175C89.9239 40.3889 90.29 40.0712 90.29 39.6233C90.29 39.2199 89.9239 38.8038 89.4942 38.8324Z" fill="black"/>
<path d="M73.2933 9.80884C73.1214 11.0413 72.4433 12.0928 71.9212 13.2014C71.6411 13.7954 71.3195 14.418 71.2017 15.0692C71.0903 15.6759 71.1031 16.2826 71.2368 16.883C71.501 18.0678 72.2364 19.1288 73.0736 19.9864C73.4779 20.4026 73.9236 20.771 74.3916 21.1141C74.9041 21.4921 75.4931 21.7494 76.0247 22.0988C77.2153 22.8771 78.2595 23.8491 79.3674 24.7353C79.3005 24.6178 79.2305 24.5003 79.1636 24.3859C80.0805 29.1126 77.3427 33.4327 74.9073 37.2382C74.2006 38.3404 73.4907 39.4395 72.8349 40.5735C72.3223 41.4598 73.6976 42.2602 74.2101 41.374C76.5436 37.3366 79.7175 33.5375 80.6662 28.8617C80.9082 27.6736 81.0037 26.4507 80.8859 25.2436C80.8572 24.9418 80.8158 24.6401 80.7681 24.3415C80.7426 24.1795 80.7235 24.0175 80.6598 23.865C80.5707 23.649 80.402 23.5346 80.2269 23.3917C79.7271 22.9851 79.2368 22.5626 78.737 22.1528C78.2277 21.7335 77.7056 21.3238 77.1644 20.9458C76.6328 20.5773 76.0597 20.2977 75.5122 19.9579C74.6081 19.3956 73.7835 18.5411 73.2455 17.6263C72.9622 17.1434 72.7425 16.6003 72.7139 16.0348C72.6821 15.3868 72.9145 14.8373 73.1755 14.256C73.7676 12.9409 74.624 11.6798 74.8277 10.225C74.8882 9.79932 74.7227 9.37048 74.2706 9.2466C73.8982 9.15448 73.3538 9.38319 73.2933 9.80884Z" fill="black"/>
<path d="M49.8023 34.8743C51.0789 40.9891 46.8512 46.7037 43.2666 51.208C39.1345 56.3984 34.7636 61.4015 30.1698 66.1885C27.5785 68.8885 24.9171 71.5219 22.1889 74.0853C21.6731 74.5713 22.0838 75.4258 22.7523 75.4417C30.0775 75.5974 37.3295 72.9831 42.9833 68.3644C44.5623 67.0747 46.0012 65.6199 47.2778 64.0316C46.8608 63.7108 46.4437 63.39 46.0267 63.0691C41.277 70.6738 36.0242 77.9671 30.3004 84.8728C24.5637 91.7945 18.3655 98.3381 11.763 104.443C8.05107 107.874 4.2118 111.165 0.254743 114.307C-0.391501 114.821 0.312046 115.831 1.02833 115.634C7.63403 113.801 14.0933 111.457 20.3425 108.646C26.5725 105.841 32.5861 102.563 38.3132 98.8432C41.5476 96.7435 44.6865 94.4977 47.7299 92.128C48.0705 91.8644 48.0068 91.2831 47.7299 91.0035C47.3956 90.67 46.9436 90.7399 46.6029 91.0035C41.2865 95.1394 35.6422 98.8591 29.756 102.14C23.8697 105.419 17.7352 108.255 11.4192 110.603C7.86643 111.924 4.25637 113.09 0.604925 114.103C0.862786 114.545 1.12065 114.989 1.37851 115.431C8.45855 109.805 15.1598 103.71 21.4248 97.1946C27.7058 90.6636 33.5443 83.7134 38.9021 76.4106C41.8914 72.3382 44.7247 68.1548 47.3988 63.8696C47.8668 63.1231 46.7239 62.1924 46.1477 62.9071C41.7704 68.3644 35.4385 72.0905 28.5622 73.3833C26.6457 73.7423 24.6974 73.8948 22.7492 73.8535C22.937 74.3045 23.1248 74.7588 23.3126 75.2098C28.2566 70.5626 32.9872 65.6834 37.4727 60.5915C39.7139 58.0471 41.8978 55.4487 44.0179 52.7994C46.0458 50.2646 48.0546 47.6757 49.5317 44.7692C51.1585 41.5704 52.0785 38.0254 51.3336 34.4486C51.2444 34.0293 50.751 33.7847 50.3531 33.8927C49.9201 34.0166 49.7132 34.4518 49.8023 34.8743Z" fill="black"/>
<path d="M82.344 127.149C83.5346 135.411 84.5597 143.715 84.8749 152.066C85.1868 160.293 84.8112 168.594 83.0666 176.656C82.0925 181.169 80.695 185.597 78.8008 189.813C78.6257 190.203 78.6862 190.667 79.0873 190.899C79.4279 191.096 80.001 191.007 80.1761 190.613C83.6333 182.923 85.4797 174.654 86.1928 166.275C86.9091 157.863 86.5207 149.391 85.6771 141.002C85.1964 136.228 84.5629 131.473 83.8784 126.724C83.818 126.298 83.2768 126.066 82.8979 126.168C82.4427 126.298 82.2803 126.724 82.344 127.149Z" fill="black"/>
<path d="M75.9004 15.0972C76.4002 17.0476 77.9283 18.2102 79.52 19.287C81.1213 20.3702 82.6526 21.59 83.2256 23.5181C83.5153 24.4933 83.6204 25.5352 83.5822 26.5517C83.528 27.9335 83.4102 29.3121 83.2606 30.6876C82.9677 33.3971 82.5189 36.0908 81.9618 38.7591C81.3346 41.7736 80.5674 44.7564 79.7206 47.7169C79.4373 48.7017 80.9749 49.121 81.255 48.1394C82.7927 42.7679 84.0501 37.3106 84.7282 31.7581C84.8969 30.3858 85.0274 29.0072 85.1134 27.6254C85.1866 26.4469 85.1898 25.3002 84.9956 24.1344C84.811 23.029 84.4226 21.9235 83.77 21.0055C83.1492 20.132 82.3661 19.395 81.5129 18.7533C79.9594 17.5844 77.9474 16.6981 77.4317 14.6779C77.1834 13.6868 75.6458 14.1061 75.9004 15.0972Z" fill="black"/>
<path d="M85.0884 54.4324C84.7414 57.2277 84.6969 60.3884 87.2723 62.1736C88.4788 63.009 89.9942 63.3298 91.4299 63.4823C92.993 63.6475 94.6325 63.4823 96.0491 62.7644C97.4403 62.0624 98.5832 60.7727 98.9174 59.2353C99.1339 58.2379 97.5995 57.8122 97.383 58.8128C96.8418 61.3064 94.104 62.0783 91.8597 61.929C90.6786 61.8527 89.4211 61.605 88.3897 61.0014C87.406 60.4233 86.8457 59.5053 86.6165 58.4062C86.3459 57.1102 86.521 55.7316 86.6834 54.4324C86.7375 54.0067 86.2791 53.6382 85.8875 53.6382C85.41 53.6382 85.1425 54.0035 85.0884 54.4324Z" fill="black"/>
<path d="M95.2275 36.723C96.3385 36.0845 96.8224 34.8679 97.0262 33.664C97.2872 32.1329 97.4114 30.5669 97.596 29.0263C97.7679 27.5714 97.8539 26.0753 98.1722 24.6427C98.4365 23.461 98.9936 22.4668 100.143 21.968C101.362 21.4376 102.795 21.482 104.097 21.517C105.122 21.5456 105.122 19.9573 104.097 19.9287C101.553 19.8588 98.481 20.0844 97.1885 22.6574C96.5232 23.982 96.4245 25.4876 96.2526 26.9361C96.0552 28.5879 95.861 30.2397 95.6636 31.8915C95.5331 33.0001 95.5299 34.7218 94.4221 35.3539C93.5371 35.8622 94.3361 37.2344 95.2275 36.723Z" fill="black"/>
<path d="M100.267 18.5214C100.719 18.5881 101.168 18.6866 101.6 18.8327C101.967 18.9566 102.167 19.0456 102.556 19.2806C102.712 19.3727 102.861 19.4744 103.008 19.5824C102.883 19.4903 103.1 19.6586 103.125 19.6809C103.195 19.7412 103.265 19.8047 103.335 19.8683C103.472 19.9985 103.6 20.1319 103.721 20.2749C103.746 20.3035 103.88 20.4655 103.835 20.4115C103.81 20.3797 103.947 20.5639 103.982 20.6148C104.192 20.9165 104.373 21.2405 104.536 21.5709C104.577 21.6598 104.618 21.7456 104.657 21.8345C104.695 21.9171 104.653 21.8282 104.647 21.8123C104.666 21.8568 104.685 21.9044 104.701 21.9489C104.774 22.1363 104.841 22.3237 104.905 22.5111C105.163 23.2989 105.335 24.1121 105.462 24.9317C105.577 25.6623 105.663 26.5612 105.729 27.4252C105.796 28.3115 105.847 29.2009 105.908 30.0903C106.022 31.7421 106.143 33.4289 106.595 35.0298C107.283 37.4631 109.018 39.6771 111.469 40.503C112.443 40.8302 112.86 39.2959 111.893 38.9719C110.785 38.6003 109.862 37.8061 109.203 36.8563C108.903 36.4275 108.646 35.9701 108.432 35.4936C108.505 35.6556 108.407 35.4301 108.388 35.3824C108.356 35.2998 108.324 35.2173 108.295 35.1315C108.235 34.96 108.181 34.7852 108.133 34.6105C108.031 34.2516 107.952 33.8895 107.881 33.5242C107.846 33.3399 107.815 33.1525 107.786 32.9683C107.77 32.8666 107.754 32.765 107.741 32.6633C107.738 32.6379 107.722 32.5077 107.738 32.6443C107.732 32.5934 107.725 32.5394 107.719 32.4886C107.617 31.6373 107.55 30.7828 107.493 29.9283C107.372 28.1209 107.28 26.3071 107.003 24.5155C106.755 22.9273 106.334 21.2882 105.44 19.9318C104.348 18.28 102.648 17.2826 100.696 16.9935C100.273 16.93 99.84 17.0983 99.7159 17.5494C99.6076 17.9211 99.84 18.4579 100.267 18.5214Z" fill="black"/>
<path d="M109.792 39.5978C108.022 43.6606 104.497 46.8657 100.289 48.2793C99.1046 48.6763 97.8758 48.94 96.6279 49.0353C96.1981 49.067 95.832 49.3783 95.832 49.8294C95.832 50.2328 96.1981 50.6553 96.6279 50.6235C101.47 50.2582 106.048 47.7742 109.031 43.956C109.887 42.8601 110.613 41.6784 111.167 40.4015C111.339 40.0076 111.285 39.5502 110.88 39.3151C110.543 39.1182 109.963 39.2039 109.792 39.5978Z" fill="black"/>
<path d="M123.477 35.9545C126.399 33.6896 128.456 30.5258 129.905 27.165C131.343 23.8201 132.337 20.0083 135.062 17.4226C137.274 15.3261 140.878 14.0237 143.447 16.2409C145.589 18.0865 146.436 21.0851 147.146 23.7121C148.388 28.3181 148.528 33.1019 148.474 37.8413C148.461 38.8642 150.053 38.8642 150.065 37.8413C150.116 33.3942 149.992 28.9057 148.999 24.5539C148.308 21.5267 147.372 18.2104 145.287 15.8248C144.173 14.551 142.68 13.7283 140.989 13.525C139.156 13.3026 137.287 13.9125 135.749 14.8845C132.327 17.0478 130.764 20.7325 129.344 24.3506C128.561 26.3455 127.724 28.3054 126.578 30.1223C125.444 31.9203 124.041 33.5276 122.353 34.8331C122.013 35.0968 122.076 35.6781 122.353 35.9576C122.688 36.288 123.136 36.2181 123.477 35.9545Z" fill="black"/>
<path d="M110.508 40.4206C112.723 40.5667 114.958 40.2999 117.091 39.6868C118.075 39.4041 117.655 37.8699 116.668 38.1558C114.662 38.7339 112.593 38.9721 110.508 38.8355C110.078 38.8069 109.712 39.2199 109.712 39.6297C109.712 40.0807 110.078 40.392 110.508 40.4206Z" fill="black"/>
<path d="M148.665 34.4519C147.312 40.9479 151.314 46.8944 155.144 51.7449C159.346 57.0688 163.809 62.1925 168.498 67.0971C171.153 69.8734 173.885 72.5766 176.686 75.2099C176.874 74.7589 177.062 74.3046 177.25 73.8536C170.303 73.9997 163.344 71.5474 157.999 67.1225C156.478 65.8614 155.086 64.451 153.851 62.9104C153.285 62.2021 152.129 63.1169 152.6 63.8729C157.398 71.5537 162.711 78.9138 168.486 85.8926C174.248 92.8555 180.475 99.4341 187.112 105.571C190.824 109.002 194.663 112.293 198.62 115.434C198.878 114.993 199.136 114.548 199.394 114.107C192.9 112.305 186.539 110.018 180.395 107.248C174.232 104.469 168.279 101.226 162.606 97.5504C159.445 95.5016 156.366 93.3225 153.393 91.0068C153.055 90.7432 152.597 90.6764 152.266 91.0068C151.992 91.28 151.925 91.8645 152.266 92.1313C157.671 96.3402 163.386 100.142 169.374 103.481C175.359 106.82 181.601 109.694 188.023 112.089C191.617 113.43 195.271 114.612 198.971 115.638C199.687 115.835 200.394 114.824 199.744 114.31C192.702 108.713 186.033 102.652 179.796 96.1718C173.576 89.7108 167.779 82.84 162.472 75.607C159.483 71.5347 156.649 67.3512 153.975 63.0661C153.558 63.3869 153.141 63.7077 152.724 64.0286C157.264 69.6891 163.943 73.5994 171.077 74.924C173.111 75.3021 175.18 75.4831 177.25 75.4386C177.918 75.4259 178.329 74.5683 177.813 74.0823C172.977 69.5366 168.349 64.7719 163.952 59.8006C161.753 57.3165 159.613 54.7817 157.531 52.196C155.554 49.7405 153.6 47.247 152.103 44.4611C150.534 41.5356 149.506 38.1939 150.2 34.868C150.286 34.4487 150.076 34.0104 149.643 33.8897C149.248 33.788 148.751 34.0294 148.665 34.4519Z" fill="black"/>
<path d="M116.124 126.727C114.905 135.176 113.844 143.667 113.529 152.206C113.22 160.573 113.641 169.016 115.43 177.211C116.436 181.817 117.894 186.309 119.826 190.61C120.001 191.001 120.571 191.096 120.915 190.896C121.319 190.661 121.377 190.203 121.201 189.809C117.846 182.348 116.07 174.26 115.392 166.135C114.694 157.815 115.073 149.439 115.904 141.145C116.372 136.466 116.99 131.803 117.661 127.149C117.722 126.727 117.556 126.295 117.104 126.171C116.729 126.072 116.184 126.301 116.124 126.727Z" fill="black"/>
<path d="M113.004 54.1147C113.262 56.1953 113.609 58.9589 111.711 60.4137C110.782 61.1253 109.543 61.4207 108.4 61.5605C107.124 61.7161 105.733 61.6812 104.548 61.1285C103.45 60.6139 102.568 59.699 102.307 58.4951C102.091 57.4977 100.556 57.9202 100.773 58.9176C101.072 60.293 102.005 61.4398 103.18 62.1862C104.504 63.028 106.14 63.2917 107.687 63.2091C109.158 63.1329 110.696 62.8374 111.995 62.1164C113.255 61.4143 114.147 60.2486 114.522 58.8604C114.942 57.3135 114.793 55.6839 114.595 54.1147C114.541 53.689 114.268 53.3206 113.8 53.3206C113.408 53.3206 112.95 53.6859 113.004 54.1147Z" fill="black"/>
<path d="M105.259 35.3541C104.339 34.8268 104.214 33.5371 104.1 32.5873C103.899 30.9101 103.702 29.2329 103.501 27.5557C103.329 26.1072 103.275 24.557 102.728 23.188C102.196 21.8602 101.232 20.9263 99.9008 20.4117C98.5447 19.8875 97.0166 19.8875 95.584 19.9257C94.5621 19.9543 94.5589 21.5425 95.584 21.5139C96.7778 21.4822 98.0066 21.4663 99.1559 21.8316C100.299 22.1905 101.04 23.0069 101.378 24.1473C101.782 25.5164 101.843 26.9966 102.008 28.407C102.196 29.9953 102.365 31.5899 102.578 33.175C102.763 34.5409 103.17 35.9925 104.45 36.7263C105.345 37.2346 106.15 35.8623 105.259 35.3541Z" fill="black"/>
<path d="M124.98 10.0053C125.162 11.295 125.862 12.4322 126.422 13.5852C126.68 14.1126 126.983 14.678 127.075 15.2656C127.155 15.7675 127.062 16.2694 126.89 16.7395C126.524 17.756 125.722 18.6073 124.907 19.2871C124.455 19.6651 123.949 19.9129 123.446 20.2115C122.898 20.5387 122.379 20.9103 121.873 21.2979C121.361 21.6949 120.861 22.1079 120.364 22.524C120.122 22.7273 119.884 22.9274 119.638 23.1275C119.295 23.4071 119.129 23.6135 119.053 24.0551C118.849 25.2495 118.823 26.4502 118.983 27.6509C119.298 30.0524 120.272 32.295 121.443 34.3947C122.733 36.704 124.277 38.8609 125.598 41.148C126.11 42.0342 127.486 41.2337 126.973 40.3475C124.675 36.3673 121.482 32.6126 120.632 27.9781C120.402 26.7202 120.402 25.4146 120.648 24.1599C120.581 24.2774 120.511 24.395 120.444 24.5093C121.412 23.7343 122.328 22.8893 123.344 22.1746C123.895 21.7839 124.484 21.4884 125.06 21.139C125.537 20.85 125.983 20.472 126.394 20.094C127.288 19.2712 128.052 18.2611 128.45 17.1017C128.635 16.5648 128.73 15.9708 128.689 15.4022C128.638 14.7097 128.402 14.1253 128.132 13.4963C127.578 12.2035 126.722 10.9996 126.524 9.57965C126.464 9.15399 125.923 8.92211 125.544 9.02375C125.076 9.15399 124.92 9.57965 124.98 10.0053Z" fill="black"/>
<path d="M122.372 14.4492C121.917 16.2281 120.306 17.1111 118.883 18.099C117.075 19.3538 115.556 20.9198 114.98 23.0989C114.35 25.4876 114.694 28.0448 114.952 30.4621C115.251 33.2638 115.706 36.0464 116.276 38.8037C116.909 41.869 117.686 44.9026 118.549 47.9139C118.829 48.8955 120.367 48.4794 120.083 47.4915C118.587 42.2597 117.327 36.939 116.668 31.5326C116.499 30.1603 116.368 28.7817 116.282 27.3999C116.212 26.2977 116.174 25.1922 116.384 24.0995C116.575 23.1116 116.929 22.1237 117.591 21.3486C118.208 20.6244 118.909 20.0145 119.685 19.4713C121.452 18.2452 123.337 17.0984 123.904 14.8717C124.158 13.8806 122.624 13.4581 122.372 14.4492Z" fill="black"/>
</g>
<defs>
<clipPath id="clip0_501_29051">
<rect width="200" height="200" fill="white"/>
</clipPath>
</defs>
</svg>
