<svg width="200" height="200" viewBox="0 0 200 200" fill="none" xmlns="http://www.w3.org/2000/svg">
<g clip-path="url(#clip0_501_29339)">
<path d="M71.972 23.8079C63.0877 26.6985 55.2662 32.0667 49.6425 39.5616C43.5958 47.6244 40.3713 57.6847 38.9318 67.5643C37.3015 78.7706 37.8999 90.2143 40.0307 101.312C41.9861 111.486 45.2416 121.577 50.4474 130.574C52.6556 134.389 55.2043 138.183 58.403 141.244C61.1168 143.84 64.3156 145.693 67.7878 147.082C68.7165 147.453 69.6555 147.789 70.6048 148.109C71.7089 148.481 72.5808 147.149 72.0597 146.215C70.2901 143.035 69.1344 139.613 67.5196 136.366C65.4816 132.252 63.0258 128.381 61.2252 124.138C57.6859 115.775 55.942 106.464 56.1742 97.3892C56.2877 92.8623 56.9636 88.3302 58.5527 84.0769C59.8373 80.6391 61.8185 77.1446 64.7851 74.8889C70.8937 70.2381 80.4694 71.5596 84.9219 77.8518C87.0424 80.8508 88.1671 84.5724 88.2703 88.2321C88.3271 90.2194 88.0484 92.1293 87.4396 94.0237C86.7999 96.0264 86.1395 98.1841 86.9444 100.244C87.321 101.214 87.8988 101.895 88.8688 102.298C89.5962 102.597 90.592 101.828 90.4991 101.054C90.334 99.5984 90.561 97.9363 91.6393 96.8575C90.9635 96.7697 90.2876 96.682 89.6117 96.5942C90.0606 97.5234 91.0099 98.1531 92.0572 98.0963C93.249 98.0344 94.0229 97.2033 94.4511 96.1606C93.6669 96.2639 92.8776 96.3671 92.0934 96.4704C92.3668 96.9504 92.6402 97.4253 92.9137 97.9053C93.5844 99.0719 95.2302 98.4834 95.3179 97.2549C95.3128 97.3324 95.354 97.162 95.3644 97.1672C95.3592 97.193 95.3437 97.2188 95.3128 97.2343C95.0548 97.3737 94.802 97.3427 94.5595 97.1414C95.0909 97.5905 95.8596 97.6627 96.3859 97.1414C96.8451 96.682 96.9225 95.7683 96.3859 95.3141C94.7452 93.9256 92.8673 95.3864 92.7383 97.2549C93.538 97.0381 94.3428 96.8213 95.1425 96.6046C94.8691 96.1245 94.5956 95.6496 94.3222 95.1696C93.7185 94.1166 92.3616 94.5089 91.9644 95.4793C92.0005 95.3967 91.8405 95.6806 91.9076 95.5309C91.9282 95.5257 91.9489 95.5206 91.9695 95.5103C91.8147 95.5515 91.7993 95.5567 91.9283 95.5257C92.0314 95.5515 92.0418 95.5464 91.9489 95.5257C91.8663 95.5051 91.8663 95.4999 91.9489 95.5206C91.9902 95.7116 91.8663 95.3399 91.8405 95.2934C91.4742 94.5347 90.365 94.4831 89.8129 95.0302C88.2806 96.5684 87.6718 98.9325 87.9195 101.054C88.4612 100.641 89.0081 100.223 89.5498 99.81C89.7355 99.8874 89.5653 99.7687 89.5653 99.7636C89.5137 99.6345 89.4208 99.521 89.3641 99.3919C89.2093 99.0099 89.1474 98.5867 89.1371 98.1737C89.1164 97.0949 89.4879 96.0471 89.8129 95.0302C90.463 93.0171 90.8396 90.9576 90.85 88.8361C90.8603 84.8357 89.7768 80.7011 87.646 77.2995C85.4843 73.8514 82.1101 71.2653 78.1787 70.1762C74.2009 69.0716 69.7845 69.4123 66.0388 71.1363C62.2519 72.8758 59.4762 76.2361 57.5982 79.8804C55.4932 83.9737 54.3839 88.4747 53.8783 93.0326C53.3418 97.864 53.5275 102.757 54.1673 107.568C54.7915 112.281 55.844 116.932 57.4176 121.417C58.9964 125.918 61.153 130.141 63.4643 134.301C64.491 136.149 65.4971 137.997 66.3278 139.943C66.9881 141.486 67.5918 143.066 68.3089 144.594C68.7784 145.59 69.284 146.56 69.8206 147.52C70.3056 146.891 70.7906 146.256 71.2755 145.626C67.9684 144.516 64.6303 143.076 61.932 140.929C58.8158 138.451 56.4064 135.241 54.2653 131.911C48.879 123.544 45.4635 114.02 43.2759 104.347C40.882 93.7811 39.9276 82.8226 40.9491 72.0241C41.8675 62.3354 44.4626 52.4764 49.6167 44.1453C54.322 36.5368 61.4161 30.6421 69.7329 27.3488C70.6874 26.972 71.6573 26.6262 72.6376 26.3062C74.2318 25.7848 73.556 23.2917 71.972 23.8079Z" fill="black"/>
<path d="M93.1559 101.245C90.4627 107.62 87.7695 114.082 86.748 120.973C85.8245 127.198 86.0308 133.955 88.7756 139.726C90.2099 142.746 92.6244 145.11 94.2703 147.995C95.6891 150.483 96.5662 153.24 97.1285 156.037C98.3668 162.195 98.0727 168.648 97.0253 174.806C95.6633 182.801 93.1301 190.528 91.2985 198.421C90.9167 200.067 93.1971 200.635 93.7853 199.107C94.8997 196.206 96.7209 193.667 98.5731 191.199C100.374 188.794 102.138 186.389 103.485 183.694C106.286 178.104 107.762 171.894 108.185 165.674C108.644 158.974 107.612 152.434 105.698 146.024C103.81 139.7 101.292 133.439 100.694 126.811C100.41 123.704 100.441 120.519 101.06 117.458C101.602 114.8 102.577 112.1 104.475 110.144C105.636 108.952 103.81 107.124 102.649 108.317C98.7795 112.291 97.8818 118.423 97.9488 123.745C98.0314 130.373 100.013 136.645 102.014 142.895C103.072 146.199 104.104 149.513 104.8 152.915C105.45 156.115 105.745 159.367 105.719 162.629C105.667 168.802 104.527 175.11 102.02 180.768C100.647 183.865 98.8001 186.621 96.7725 189.321C94.6211 192.185 92.5883 195.055 91.2933 198.421C92.124 198.648 92.9495 198.88 93.7801 199.107C96.8757 185.769 101.875 172.503 100.121 158.587C99.7391 155.573 99.1045 152.584 97.954 149.766C97.402 148.408 96.7674 147.087 95.978 145.853C95.0803 144.444 94.0175 143.154 93.0424 141.801C91.216 139.282 90.0448 136.562 89.4205 133.511C88.7911 130.435 88.7085 127.255 88.951 124.132C89.5443 116.581 92.4542 109.463 95.3744 102.556C95.6426 101.916 95.5653 101.173 94.91 100.791C94.3786 100.466 93.4241 100.6 93.1559 101.245Z" fill="black"/>
<path d="M73.7571 25.7332C75.7692 21.8257 77.9619 17.9544 79.7161 13.923C80.5725 11.9512 81.2329 9.93811 81.656 7.8321C82.0894 5.68479 82.3319 3.50136 82.5795 1.32308C82.0378 1.73602 81.4909 2.15413 80.9492 2.56707C81.9655 2.97486 82.3215 4.7918 82.5589 5.79835C82.9922 7.67208 83.4308 9.53549 84.0189 11.3679C85.2365 15.1412 86.8824 18.7802 88.9255 22.1767C89.7819 23.5962 92.0107 22.3006 91.1543 20.8759C89.0183 17.3298 87.3415 13.5359 86.1652 9.57162C85.6132 7.7237 85.3088 5.80867 84.7464 3.96591C84.2253 2.2522 83.3586 0.765607 81.6353 0.0790889C80.7737 -0.266751 80.0876 0.590108 80.005 1.32308C79.5458 5.35444 78.9783 9.33418 77.2964 13.0661C75.5577 16.9323 73.4733 20.6643 71.5334 24.4324C70.7698 25.9035 72.9935 27.2146 73.7571 25.7332Z" fill="black"/>
<path d="M81.9191 52.6725C84.4781 51.9911 87.0371 51.3097 89.591 50.6284C89.8747 50.551 90.1585 50.4736 90.4474 50.4013C90.5351 50.3806 90.9376 50.3032 90.8653 50.2826C91.2368 50.3961 91.5102 51.031 91.7063 51.3201C92.4441 52.4144 93.1818 53.5087 93.9196 54.603C94.6574 55.6973 95.3952 56.7916 96.133 57.8859C96.3651 58.2317 96.6799 58.6034 96.7779 59.0215C96.8811 59.4447 96.7985 59.0628 96.8088 59.0886C96.943 59.3776 96.7263 59.1505 96.8759 59.0215C96.8862 59.0111 97.2938 58.6911 97.3041 58.8047C97.3041 58.8098 97.0255 58.7118 96.9946 58.6963C95.8647 58.2162 94.7812 57.5194 93.7184 56.9103C92.6608 56.3064 91.6186 55.6818 90.5867 55.0314C88.2495 53.5654 86.0207 51.9034 83.3998 50.9639C82.7446 50.7316 81.9861 51.2272 81.8107 51.8672C81.6147 52.5847 82.0532 53.2196 82.7136 53.4571C85.3603 54.4017 87.6356 56.2547 90.0089 57.7104C91.2523 58.4743 92.5111 59.2073 93.7906 59.9093C94.9257 60.5339 96.3755 61.623 97.7427 61.3133C99.2337 60.9726 99.6516 59.3828 99.1821 58.082C98.7023 56.7709 97.7066 55.6095 96.9275 54.4636C96.0711 53.1938 95.2146 51.924 94.353 50.649C93.6101 49.5444 92.8826 48.1043 91.4638 47.7997C90.6022 47.6139 89.7251 47.9185 88.8996 48.1404C88.0741 48.3624 87.2486 48.5792 86.4231 48.8011C84.6896 49.2605 82.9561 49.7251 81.2226 50.1845C79.6335 50.6078 80.3094 53.1009 81.9191 52.6725Z" fill="black"/>
<path d="M101.262 77.7536C101.731 80.9075 101.024 84.2214 99.3681 86.9365C98.8883 87.7211 99.399 88.5211 100.137 88.8308C101.535 89.4141 103.021 89.8426 104.481 89.2077C105.92 88.5831 106.596 87.1997 106.529 85.6667C106.395 82.709 105.441 79.7409 103.986 77.1807C103.165 75.7354 100.937 77.0362 101.757 78.4815C102.845 80.4016 103.578 82.5335 103.862 84.7324C103.924 85.2073 104.011 85.7286 103.95 86.2087C103.929 86.3842 103.882 86.4874 103.774 86.6422C103.852 86.5287 103.635 86.761 103.702 86.7093C103.717 86.699 103.568 86.7971 103.532 86.8177C103.279 86.9623 102.974 87.0087 102.567 86.9468C101.968 86.8539 101.38 86.5855 100.823 86.348C101.081 86.9778 101.339 87.6127 101.592 88.2424C103.635 84.8976 104.316 80.9281 103.743 77.0723C103.64 76.3806 102.768 76.0038 102.154 76.169C101.421 76.3703 101.158 77.062 101.262 77.7536Z" fill="black"/>
<path d="M55.9577 133.981C55.7152 132.67 56.3602 131.416 57.0721 130.363C57.846 129.211 59.0017 128.282 59.6673 127.069C60.5237 125.51 60.0491 123.905 59.3784 122.388C58.8212 121.123 58.1195 119.92 57.294 118.816C55.6998 116.689 53.7031 114.862 51.366 113.587C50.2051 112.957 48.9823 112.513 47.7286 112.11C47.2798 111.966 46.8258 111.811 46.4337 111.543C46.1293 111.331 45.9435 111.15 46.0415 110.784C46.186 110.257 46.769 109.834 47.1714 109.514C47.708 109.091 48.2807 108.709 48.843 108.327C50.0968 107.48 51.3711 106.649 52.4855 105.617C54.4357 103.815 55.8339 101.106 55.514 98.3956C55.3489 96.9968 54.7453 95.6805 53.6618 94.7514C52.6093 93.8481 51.3402 93.337 50.0452 92.8828C47.5635 92.0053 45.3708 90.7871 43.5083 88.8979C42.9872 88.3714 42.4919 87.8139 42.0534 87.2203C41.8264 86.9158 41.6148 86.6061 41.4085 86.286C41.295 86.1054 41.0525 85.4808 40.8822 85.3931C40.7997 85.3518 40.6501 85.3105 40.7275 85.5892C40.7481 85.6615 40.9596 85.5789 40.8771 85.5634C41.3104 85.646 41.9708 85.4344 42.4042 85.3827C43.3381 85.2743 44.2719 85.1608 45.2057 85.0524C49.1113 84.5878 53.0169 84.1284 56.9225 83.6638C57.6139 83.5813 58.2123 83.127 58.2123 82.3734C58.2123 81.7385 57.619 81.0004 56.9225 81.083C53.3574 81.5062 49.7924 81.9295 46.2221 82.3528C44.437 82.5644 42.6519 82.7605 40.8719 82.9877C40.1187 83.0806 39.3912 83.2303 38.8443 83.8084C38.2045 84.4897 38.1478 85.4447 38.4677 86.2809C38.9991 87.6642 40.0774 88.9547 41.0525 90.0541C42.0224 91.1433 43.1265 92.1034 44.3235 92.9396C45.4998 93.7655 46.7793 94.4159 48.1259 94.9269C49.2919 95.3708 50.5456 95.6753 51.5878 96.3928C53.698 97.8484 53.0582 100.672 51.8251 102.494C50.1896 104.915 47.1766 106.076 45.02 107.95C43.8746 108.946 43.0491 110.459 43.6063 111.992C44.0965 113.329 45.3605 114.02 46.6297 114.475C47.8009 114.893 48.9462 115.223 50.0452 115.822C51.1802 116.441 52.2275 117.195 53.1769 118.077C54.2913 119.115 55.2509 120.287 56.0403 121.588C56.453 122.264 56.8245 122.971 57.1341 123.699C57.392 124.308 57.7429 125.092 57.4436 125.743C57.1495 126.383 56.4995 126.914 56.0558 127.451C55.4882 128.133 54.9413 128.84 54.4873 129.604C53.5587 131.168 53.1201 132.871 53.4555 134.673C53.5844 135.359 54.4099 135.746 55.0445 135.576C55.772 135.369 56.0816 134.667 55.9577 133.981Z" fill="black"/>
<path d="M97.681 105.896C95.5502 109.7 94.1366 113.881 93.5226 118.196C93.4246 118.883 93.6929 119.585 94.4255 119.786C95.0291 119.951 95.9114 119.58 96.0146 118.883C96.6027 114.779 97.8874 110.815 99.915 107.196C100.72 105.746 98.491 104.445 97.681 105.896Z" fill="black"/>
<path d="M91.2626 110.278C89.916 109.385 88.5694 108.492 87.2228 107.599C86.6605 107.227 85.7731 107.47 85.4584 108.064C85.1178 108.709 85.319 109.432 85.9227 109.829C87.2693 110.722 88.6159 111.615 89.9624 112.508C90.5248 112.88 91.4122 112.637 91.7269 112.043C92.0674 111.398 91.8611 110.676 91.2626 110.278Z" fill="black"/>
<path d="M86.7585 81.6352C86.7327 81.4855 86.7637 81.8726 86.7637 81.8726C86.7637 81.9139 86.7327 82.2133 86.7482 82.1359C86.7276 82.2649 86.6244 82.6056 86.547 82.8121C86.4283 83.1321 86.1394 83.6328 85.9072 84.0199C85.3655 84.9284 84.7825 85.8937 84.6174 86.957C84.4317 88.1442 84.6639 89.2746 85.4842 90.1831C86.3148 91.1019 87.5376 91.3652 88.6468 90.8232C89.2711 90.5187 89.4414 89.6257 89.1112 89.0579C88.7397 88.4178 87.9761 88.2888 87.3467 88.5933C87.5427 88.4952 87.2848 88.552 87.4292 88.5623C87.6253 88.5727 87.2848 88.4694 87.4705 88.552C87.6614 88.6346 87.2899 88.361 87.5634 88.5726C87.5066 88.5314 87.4396 88.5004 87.3828 88.4591C87.4912 88.5365 87.455 88.5314 87.388 88.4436C87.1609 88.1545 87.455 88.5675 87.3312 88.3868C87.2848 88.3197 87.2487 88.2526 87.2074 88.1855C87.1403 88.072 87.2332 88.33 87.1713 88.1081C87.1506 88.0307 87.13 87.9532 87.1094 87.8758C87.1558 88.0616 87.1145 87.9016 87.1145 87.7932C87.1145 87.7003 87.1145 87.6074 87.1248 87.5093C87.13 87.4164 87.1352 87.4164 87.1248 87.5042C87.1352 87.4577 87.1455 87.4113 87.1558 87.37C87.2125 87.1686 87.2641 86.9673 87.3415 86.7712C87.4241 86.5596 87.2796 86.9002 87.3776 86.6886C87.4292 86.5802 87.4808 86.477 87.5324 86.3686C87.9245 85.6149 88.4147 84.9233 88.7603 84.149C89.2298 83.1063 89.4362 82.0843 89.2453 80.9487C89.1318 80.2622 88.2805 79.875 87.6563 80.0454C86.9339 80.2519 86.645 80.9487 86.7585 81.6352Z" fill="black"/>
<path d="M127.347 26.2959C135.684 29.0058 143.181 34.116 148.397 41.2134C154.185 49.0955 157.219 58.7687 158.602 68.3644C160.144 79.0442 159.515 90.0543 157.482 100.626C155.594 110.449 152.514 120.184 147.54 128.897C145.425 132.598 143.016 136.257 139.946 139.246C137.521 141.605 134.611 143.365 131.443 144.62C130.54 144.981 129.627 145.306 128.704 145.611C129.189 146.24 129.674 146.875 130.159 147.505C131.975 144.232 133.156 140.702 134.838 137.372C135.901 135.266 137.118 133.233 138.223 131.147C139.358 129.01 140.41 126.832 141.339 124.597C144.966 115.863 146.735 106.097 146.369 96.6459C146.189 91.9693 145.446 87.2411 143.728 82.8742C142.252 79.1216 140.116 75.4567 136.897 72.9481C130.195 67.7244 119.778 68.5864 114.108 74.9354C111.466 77.8931 109.913 81.749 109.367 85.6513C109.072 87.7624 109.062 89.8633 109.397 91.9745C109.563 93.0171 109.841 94.0185 110.166 95.0199C110.496 96.0368 110.868 97.0795 110.842 98.1635C110.832 98.5764 110.77 98.9945 110.615 99.3816C110.564 99.5107 110.471 99.6242 110.414 99.7533C110.419 99.743 110.238 99.8772 110.429 99.7997C110.971 100.213 111.518 100.631 112.06 101.044C112.302 98.9222 111.699 96.5581 110.166 95.0199C109.619 94.4728 108.505 94.5192 108.139 95.2832C108.118 95.3245 107.984 95.7064 108.03 95.5103C108.051 95.5051 108.072 95.5 108.097 95.4948C107.943 95.5361 107.927 95.5413 108.056 95.5155C108.159 95.5413 108.17 95.5413 108.077 95.5155C107.994 95.4896 107.994 95.4948 108.077 95.5155C108.144 95.6651 107.984 95.3812 108.02 95.4638C107.623 94.4934 106.266 94.1063 105.662 95.1541C105.389 95.6342 105.115 96.1091 104.842 96.5891C105.642 96.8059 106.446 97.0227 107.246 97.2395C107.117 95.3709 105.239 93.9101 103.598 95.2987C103.067 95.7477 103.134 96.6614 103.598 97.1259C104.125 97.6524 104.888 97.575 105.425 97.1259C105.182 97.3272 104.93 97.3582 104.672 97.2188C104.646 97.2034 104.63 97.1775 104.62 97.1517C104.646 97.1414 104.672 97.3169 104.666 97.2395C104.749 98.4628 106.4 99.0616 107.071 97.8899C107.344 97.4098 107.618 96.9349 107.891 96.4549C107.107 96.3517 106.317 96.2484 105.533 96.1452C105.961 97.1879 106.735 98.0189 107.927 98.0809C108.969 98.1376 109.924 97.5027 110.373 96.5788C109.697 96.6665 109.021 96.7543 108.345 96.842C109.423 97.9208 109.65 99.5829 109.485 101.039C109.398 101.813 110.393 102.582 111.116 102.283C113.014 101.498 113.592 99.2577 113.375 97.3634C113.133 95.2006 112.132 93.2236 111.843 91.066C111.353 87.396 112.049 83.4575 113.69 80.1437C115.326 76.8401 118.06 74.1508 121.579 72.9326C125.041 71.7403 129.054 71.8125 132.434 73.263C136.066 74.8218 138.563 77.9963 140.286 81.4496C142.211 85.2951 143.201 89.6 143.599 93.8637C144.455 103.021 143.016 112.513 139.91 121.149C138.372 125.428 136.252 129.434 134.044 133.398C133.048 135.179 132.109 136.98 131.314 138.859C130.675 140.366 130.091 141.884 129.39 143.365C128.936 144.33 128.441 145.275 127.919 146.204C127.398 147.138 128.27 148.47 129.374 148.099C133.037 146.87 136.551 145.316 139.616 142.932C142.887 140.382 145.435 137.027 147.685 133.573C153.293 124.974 156.884 115.11 159.149 105.137C161.646 94.1631 162.673 82.74 161.543 71.5183C160.526 61.4064 157.818 51.1344 152.354 42.4729C147.293 34.4463 139.796 28.3761 131.005 24.8764C130.019 24.4841 129.018 24.1279 128.012 23.7976C126.454 23.2917 125.773 25.7849 127.347 26.2959Z" fill="black"/>
<path d="M128.477 24.4324C126.537 20.6643 124.452 16.9323 122.714 13.0661C121.032 9.33418 120.464 5.35444 120.005 1.32308C119.923 0.590108 119.231 -0.266751 118.375 0.0790889C116.657 0.765607 115.79 2.2522 115.264 3.96591C114.701 5.80867 114.397 7.7237 113.845 9.57162C112.663 13.541 110.987 17.3298 108.856 20.8759C107.999 22.3006 110.228 23.6014 111.085 22.1767C113.128 18.7802 114.774 15.1412 115.991 11.3679C116.574 9.5613 117.013 7.73402 117.436 5.8861C117.668 4.8589 118.024 2.98002 119.066 2.56707C118.524 2.15413 117.977 1.73602 117.436 1.32308C117.678 3.46006 117.921 5.60221 118.333 7.71338C118.757 9.86584 119.427 11.9151 120.299 13.9282C122.053 17.9595 124.246 21.8309 126.258 25.7383C127.011 27.2094 129.24 25.9087 128.477 24.4324Z" fill="black"/>
<path d="M118.772 50.1846C117.286 49.7871 115.8 49.3948 114.314 48.9974C112.823 48.5999 111.307 48.0837 109.785 47.8153C108.134 47.5262 107.148 48.4192 106.281 49.6994C105.42 50.9692 104.569 52.239 103.707 53.5139C102.866 54.7631 101.906 55.9864 101.169 57.2975C100.56 58.3763 100.266 59.8732 101.282 60.8179C102.5 61.9483 104.032 61.0759 105.239 60.4359C106.524 59.7494 107.793 59.0319 109.047 58.2834C110.424 57.4627 111.766 56.5852 113.112 55.7128C114.438 54.8508 115.79 53.994 117.281 53.4623C117.936 53.23 118.375 52.5848 118.184 51.8725C118.009 51.2376 117.255 50.7369 116.595 50.9692C114.278 51.8002 112.287 53.1939 110.228 54.5101C108.149 55.8471 106.013 57.0962 103.831 58.2576C103.583 58.3918 103.335 58.5363 103.078 58.6551C103.047 58.6705 102.928 58.7222 102.866 58.7531C102.489 58.9441 102.758 58.7222 102.845 58.8151C102.845 58.8151 103.361 59.2074 103.176 59.2435C103.155 59.2487 103.196 59.0577 103.181 59.0938C103.248 58.9493 103.299 58.7583 103.392 58.5983C104.001 57.504 104.801 56.4871 105.502 55.4496C106.24 54.3553 106.978 53.261 107.716 52.1667C108.036 51.6918 108.34 51.1963 108.681 50.7369C108.975 50.3394 109.011 50.2878 109.434 50.3704C110.842 50.6543 112.235 51.1137 113.618 51.4802C115.104 51.8776 116.59 52.2699 118.076 52.6674C119.696 53.0958 120.377 50.6078 118.772 50.1846Z" fill="black"/>
<path d="M96.2622 77.0672C95.6896 80.923 96.3706 84.8924 98.4137 88.2373C98.6716 87.6075 98.9296 86.9726 99.1824 86.3429C98.6304 86.5752 98.0577 86.8333 97.4644 86.9313C97.2993 86.9572 96.9639 86.9675 96.8968 86.9571C96.9072 86.9571 96.4789 86.8178 96.5357 86.8488C96.2416 86.7042 96.1023 86.5803 96.0507 86.2087C95.9888 85.7338 96.0765 85.2021 96.1384 84.7324C96.4222 82.5387 97.1496 80.4068 98.2434 78.4815C99.0637 77.0362 96.8349 75.7354 96.0146 77.1807C94.5545 79.7461 93.6103 82.709 93.471 85.6667C93.404 87.112 94.0128 88.4954 95.3645 89.1406C96.8659 89.8529 98.4034 89.44 99.8583 88.8309C100.596 88.5212 101.107 87.7211 100.627 86.9365C98.9709 84.2214 98.2641 80.9127 98.7336 77.7537C98.8367 77.0672 98.5633 76.3652 97.8307 76.1638C97.2374 75.9987 96.3654 76.3755 96.2622 77.0672Z" fill="black"/>
<path d="M146.539 134.668C147.148 131.405 145.146 128.814 143.124 126.502C142.696 126.011 142.345 125.583 142.458 124.896C142.572 124.23 142.897 123.575 143.191 122.971C143.779 121.779 144.491 120.633 145.348 119.616C146.999 117.654 149.104 115.997 151.518 115.079C152.684 114.635 153.969 114.402 155.011 113.68C156.234 112.833 156.915 111.378 156.394 109.912C155.857 108.41 154.433 107.455 153.179 106.582C151.972 105.741 150.693 104.982 149.583 104.007C147.927 102.551 146.276 99.9597 147.293 97.6834C147.778 96.6046 148.877 96.0264 149.929 95.6238C151.229 95.1283 152.555 94.7153 153.799 94.0701C156.394 92.7281 158.592 90.715 160.294 88.3509C161.28 86.9778 162.693 84.686 160.712 83.442C159.948 82.962 158.968 82.9671 158.101 82.8639C157.126 82.7503 156.146 82.6316 155.171 82.518C151.136 82.038 147.107 81.5631 143.072 81.0831C142.381 81.0005 141.783 81.7334 141.783 82.3735C141.783 83.1374 142.376 83.5814 143.072 83.6639C146.555 84.0769 150.032 84.4898 153.515 84.9028C155.212 85.1041 156.91 85.3054 158.607 85.5067C158.659 85.5119 159.262 85.6048 159.267 85.5945C159.35 85.3157 159.19 85.357 159.113 85.3983C159.097 85.4035 158.906 85.7751 158.963 85.6719C158.612 86.2913 158.205 86.8901 157.766 87.4527C156.151 89.5278 154.015 91.2363 151.601 92.279C149.207 93.3113 146.328 93.8069 145.059 96.3929C143.857 98.8551 144.538 101.885 146.101 104.027C147.855 106.438 150.543 107.713 152.829 109.519C153.241 109.845 153.809 110.263 153.959 110.789C154.057 111.135 153.897 111.31 153.633 111.507C152.751 112.178 151.482 112.327 150.476 112.735C148 113.747 145.771 115.301 143.965 117.288C142.949 118.408 142.051 119.647 141.323 120.973C140.513 122.455 139.595 124.241 139.92 125.975C140.23 127.611 141.757 128.737 142.685 130.027C143.501 131.158 144.311 132.541 144.042 133.991C143.913 134.678 144.233 135.385 144.945 135.581C145.58 135.741 146.41 135.354 146.539 134.668Z" fill="black"/>
<path d="M110.048 112.508C111.394 111.615 112.741 110.722 114.088 109.829C114.65 109.457 114.944 108.673 114.552 108.064C114.191 107.501 113.391 107.202 112.787 107.599C111.441 108.492 110.094 109.385 108.748 110.278C108.185 110.65 107.891 111.434 108.283 112.043C108.644 112.606 109.449 112.906 110.048 112.508Z" fill="black"/>
<path d="M110.76 80.9539C110.574 82.0637 110.765 83.0651 111.214 84.0871C111.565 84.8872 112.07 85.5995 112.473 86.3738C112.658 86.7299 112.725 86.8745 112.834 87.3081C112.849 87.3648 112.896 87.6178 112.875 87.4474C112.885 87.5403 112.891 87.6333 112.891 87.7262C112.891 87.721 112.86 88.0875 112.891 87.9326C112.916 87.7881 112.86 88.0307 112.849 88.0513C112.824 88.1443 112.736 88.2888 112.824 88.1339C112.787 88.2062 112.746 88.2733 112.705 88.3404C112.591 88.5366 112.746 88.3146 112.658 88.4024C112.643 88.4178 112.473 88.5882 112.581 88.4901C112.7 88.3869 112.442 88.5727 112.442 88.5727C112.524 88.5107 112.607 88.5314 112.462 88.5572C112.571 88.5366 112.658 88.5727 112.509 88.552C112.87 88.5985 112.385 88.4643 112.664 88.5985C112.039 88.294 111.271 88.4282 110.899 89.0631C110.569 89.6309 110.734 90.5238 111.363 90.8284C112.452 91.3601 113.659 91.1226 114.485 90.2296C115.331 89.3263 115.589 88.1649 115.393 86.9622C115.223 85.9195 114.676 84.9801 114.139 84.0871C113.897 83.6793 113.592 83.1631 113.463 82.8173C113.381 82.5902 113.303 82.3527 113.262 82.1101C113.293 82.2702 113.247 81.883 113.247 81.8779C113.247 81.8417 113.278 81.4752 113.252 81.6404C113.365 80.9797 113.076 80.2209 112.349 80.0506C111.725 79.906 110.878 80.2416 110.76 80.9539Z" fill="black"/>
</g>
<defs>
<clipPath id="clip0_501_29339">
<rect width="200" height="200" fill="white"/>
</clipPath>
</defs>
</svg>
