<svg width="200" height="200" viewBox="0 0 200 200" fill="none" xmlns="http://www.w3.org/2000/svg">
<path d="M98.4072 15.5129C98.4072 39.3995 98.4072 63.2861 98.4072 87.1685C98.4072 110.954 98.4072 134.739 98.4072 158.52C98.4072 171.835 98.4072 185.154 98.4072 198.469C98.4072 200.51 101.591 200.51 101.591 198.469C101.591 174.599 101.591 150.729 101.591 126.86C101.591 103.07 101.591 79.281 101.591 55.4916C101.591 42.164 101.591 28.8364 101.591 15.5087C101.591 13.4713 98.4072 13.4713 98.4072 15.5129Z" fill="black"/>
<path d="M100.253 20.6571C97.4179 19.1607 95.2403 16.5696 94.2895 13.5135C93.0925 9.6585 94.4041 5.60484 93.5255 1.69912C93.3132 0.743826 92.0738 0.752277 91.5856 1.4455C90.8598 2.48533 90.1297 3.52094 89.4039 4.56077C88.7204 5.5372 87.9946 6.49673 87.4131 7.54079C86.301 9.52746 85.9656 11.8143 86.1227 14.063C86.3943 17.8757 88.0073 21.5067 90.5669 24.343C91.9974 25.9281 93.7504 27.2469 95.686 28.1599C96.2039 28.4051 96.8321 28.3037 97.1377 27.7795C97.4094 27.3188 97.2778 26.5791 96.7557 26.3339C93.6358 24.8629 91.1739 22.3479 89.6628 19.2664C88.9539 17.8165 88.4615 16.2103 88.2875 14.6041C88.0837 12.7104 88.1686 10.6687 89.0558 8.94414C89.6288 7.83245 90.3929 6.8222 91.106 5.79928C91.8743 4.70449 92.6426 3.60548 93.4109 2.5107C92.7657 2.42616 92.1162 2.34162 91.471 2.25708C92.2096 5.55834 91.2927 8.98218 91.8233 12.3215C92.2563 15.0267 93.5764 17.5841 95.4271 19.5961C96.4968 20.7585 97.7744 21.7434 99.171 22.4789C100.389 23.1214 101.463 21.2953 100.253 20.6571Z" fill="black"/>
<path d="M94.2218 13.8264C96.9936 11.7467 98.6957 8.55117 98.7509 5.08083C98.0548 5.17382 97.3629 5.26681 96.6667 5.3598C97.4478 7.34225 97.6176 9.50223 97.0488 11.565C96.4715 13.6489 95.2023 15.4327 94.9774 17.6222C94.9179 18.1929 95.5079 18.679 96.0385 18.679C96.6625 18.679 97.0403 18.1929 97.0997 17.6222C97.2016 16.6162 97.6473 15.6652 98.059 14.7564C98.5259 13.725 98.9844 12.6894 99.2306 11.5819C99.723 9.32893 99.5617 6.94492 98.717 4.79339C98.5259 4.30306 98.11 3.95223 97.5539 4.03677C97.0318 4.11285 96.6413 4.53555 96.6328 5.0766C96.5903 7.73959 95.3084 10.3857 93.1564 12.0004C92.6979 12.3428 92.4645 12.9134 92.7743 13.446C93.0333 13.8983 93.7591 14.173 94.2218 13.8264Z" fill="black"/>
<path d="M88.7719 18.1886C84.3829 15.6651 81.9761 10.5125 82.3539 5.54577C82.4558 4.18891 82.7954 2.81937 83.3684 1.58087C82.8124 1.65273 82.2563 1.72459 81.7002 1.79645C83.0543 3.14908 84.1367 4.76378 84.8286 6.54756C85.0366 7.08016 85.5417 7.4479 86.136 7.28728C86.6453 7.14779 87.0868 6.5222 86.8788 5.98538C86.0511 3.85076 84.8286 1.92748 83.2071 0.300101C82.7657 -0.14373 81.8276 -0.114137 81.5389 0.515681C79.06 5.90506 80.1806 12.4019 83.9754 16.9079C85.0196 18.1506 86.2973 19.2073 87.7065 20.0189C88.8866 20.691 89.9562 18.8692 88.7719 18.1886Z" fill="black"/>
<path d="M80.159 4.45938C78.928 3.79152 77.9899 2.81509 77.3617 1.56813C77.1537 1.15389 76.5934 0.963677 76.1647 1.08203C75.6893 1.21307 75.4218 1.63154 75.3836 2.10073C75.0483 6.33615 74.7342 10.7237 75.9822 14.8493C77.0348 18.3365 79.3992 21.549 82.7567 23.1426C84.6541 24.0429 86.7086 24.3642 88.7758 23.933C89.3361 23.8147 89.6629 23.1595 89.5186 22.6311C89.3573 22.052 88.7758 21.7773 88.2112 21.8914C85.1762 22.5212 82.2601 20.8304 80.3372 18.6028C78.0069 15.9018 77.3107 12.2497 77.2216 8.78357C77.1622 6.5475 77.332 4.31566 77.506 2.09228C76.8481 2.26981 76.1859 2.44734 75.528 2.62487C76.3047 4.17194 77.5612 5.44849 79.0893 6.27697C80.2863 6.93638 81.3602 5.11033 80.159 4.45938Z" fill="black"/>
<path d="M76.0585 12.2708C73.7536 10.7702 72.1449 8.20447 71.8647 5.4654C71.7586 4.45093 70.4852 3.99442 69.8867 4.9328C68.1676 7.63806 68.5623 11.0323 69.6405 13.894C70.222 15.4368 70.9648 16.912 71.61 18.4253C72.2043 19.8244 72.7137 21.2616 73.3376 22.648C73.9531 24.0218 74.7087 25.3321 75.7189 26.4607C76.7759 27.6443 78.1045 28.5785 79.4713 29.3774C82.2813 31.0216 85.3205 32.4039 88.4446 33.3422C92.0059 34.4117 95.7371 34.8048 99.4172 34.1538C99.9818 34.0524 100.3 33.3676 100.16 32.8519C99.9945 32.2601 99.4215 32.015 98.8527 32.1122C92.9101 33.1647 86.8953 30.9751 81.7295 28.2107C80.49 27.5471 79.2421 26.8369 78.1809 25.907C77.1324 24.9898 76.3429 23.9034 75.702 22.6734C75.0695 21.4602 74.5941 20.1837 74.0932 18.9156C73.5329 17.5038 72.8919 16.1343 72.2807 14.7478C71.0879 12.0552 70.0098 8.71171 71.7289 5.998C71.071 5.82047 70.4088 5.64293 69.7508 5.4654C70.1116 8.98646 72.0133 12.1525 74.9973 14.0969C76.1307 14.8408 77.1961 13.0105 76.0585 12.2708Z" fill="black"/>
<path d="M100.466 32.8182C98.5562 31.1909 96.1367 30.6667 93.679 30.5737C91.094 30.4765 88.3859 30.5906 85.8348 31.0345C83.3856 31.4614 80.9618 32.4843 79.3021 34.3907C78.5169 35.2952 77.8844 36.3604 77.6128 37.5355C77.3029 38.8713 77.5236 40.1563 77.6722 41.492C77.825 42.8953 77.6425 44.1212 76.9293 45.3512C76.2247 46.5686 75.2442 47.5957 74.2722 48.606C73.784 49.1132 73.9071 49.891 74.4886 50.2672C76.3648 51.4845 78.5678 49.7346 79.7945 48.3735C81.0382 46.9913 81.9381 45.3597 82.8592 43.7576C83.7421 42.2233 84.659 40.6889 86.0216 39.5264C87.4563 38.3006 89.3324 37.7046 91.1747 37.4299C93.3819 37.1002 95.6528 37.2227 97.8728 37.3538C99.2354 37.4341 99.2311 35.3206 97.8728 35.2403C93.9677 35.0078 89.7017 34.8726 86.1786 36.8592C82.8338 38.7445 81.45 42.2824 79.455 45.3385C78.9414 46.1247 78.3726 46.8645 77.6807 47.5027C77.218 47.9339 76.2205 48.8723 75.5583 48.4453C75.6305 48.9991 75.7026 49.5528 75.7748 50.1065C77.4048 48.4115 79.1493 46.5305 79.6842 44.1676C79.9771 42.8742 79.7988 41.6272 79.6502 40.3296C79.5186 39.2052 79.5017 38.1062 80.0238 37.0706C82.2013 32.7548 88.0081 32.7422 92.1764 32.6788C94.4813 32.6449 97.1215 32.7464 98.9637 34.3146C99.4009 34.6866 100.038 34.7415 100.466 34.3146C100.848 33.9342 100.904 33.1902 100.466 32.8182Z" fill="black"/>
<path d="M79.6577 27.8726C76.6992 26.5919 73.6854 28.363 71.805 30.654C70.1156 32.7125 68.9271 35.46 66.3548 36.5886C66.7835 37.1424 67.2122 37.6961 67.6409 38.2498C70.1198 35.5234 73.974 34.1201 77.633 34.7753C78.1975 34.8767 78.7748 34.6231 78.9404 34.0355C79.0805 33.5241 78.7663 32.8351 78.1976 32.7336C73.8043 31.9474 69.152 33.4395 66.1383 36.7535C65.2936 37.6834 66.342 38.8881 67.4244 38.4147C69.8906 37.3326 71.2956 34.9232 72.7983 32.8266C73.5241 31.8164 74.3731 30.878 75.447 30.2228C76.3596 29.6649 77.5396 29.2422 78.5881 29.6944C79.1144 29.9227 79.7257 29.8508 80.0398 29.314C80.3029 28.8702 80.1883 28.1009 79.6577 27.8726Z" fill="black"/>
<path d="M100.029 96.9877C98.1015 96.5735 96.3017 95.6943 94.8543 94.3501C93.479 93.0778 92.4942 91.48 91.7047 89.7934C90.0917 86.3611 89.2173 82.6414 87.3963 79.2979C83.8901 72.856 77.973 67.8597 71.1475 65.1967C69.2586 64.457 67.2932 63.9117 65.2897 63.5778C64.271 63.4087 63.248 63.2946 62.2208 63.2227C61.5289 63.172 60.421 63.1635 59.9838 62.5253C59.7716 63.041 59.5593 63.5609 59.3514 64.0766C64.7124 62.8043 70.3749 63.1635 75.5832 64.9304C78.198 65.8181 80.6811 67.0777 82.9436 68.6586C85.4352 70.3959 87.4132 72.6658 89.6672 74.6736C92.3244 77.0449 95.4655 78.7991 98.8952 79.7882C100.211 80.1686 100.771 78.127 99.4598 77.7508C96.5182 76.9054 93.7719 75.4429 91.4585 73.4393C89.0644 71.3639 86.9973 68.9883 84.4207 67.1242C79.7558 63.7511 74.123 61.7771 68.3926 61.3079C65.1794 61.0458 61.9237 61.2994 58.7868 62.0392C58.1543 62.1871 57.7681 63.0367 58.1544 63.5905C59.3599 65.3404 61.4907 65.2305 63.3881 65.4334C65.1539 65.6194 66.907 66.0083 68.6006 66.5367C72.0219 67.6018 75.2733 69.318 78.0791 71.5456C80.9018 73.7859 83.3298 76.5123 85.1508 79.6191C87.1246 82.9922 88.0627 86.7838 89.6375 90.3345C90.5161 92.3127 91.6537 94.2191 93.2328 95.7239C94.9561 97.3682 97.1379 98.5221 99.4725 99.0209C100.797 99.3126 101.366 97.2752 100.029 96.9877Z" fill="black"/>
<path d="M101.638 65.0191C100.322 61.5868 96.9642 59.6889 93.458 59.0929C92.5709 58.9408 91.6752 58.852 90.7754 58.8393C89.7099 58.8266 88.6488 58.9577 87.5833 58.9154C85.8939 58.8435 84.6332 57.9982 83.7716 56.5863C82.7868 54.9716 82.3623 53.0695 82.01 51.2308C81.42 51.5732 80.8257 51.9155 80.2357 52.2579C81.4157 53.5556 82.7401 54.7645 84.2597 55.6564C85.8048 56.5652 87.4772 57.0259 89.26 57.1612C90.856 57.2838 92.4563 57.1739 94.0523 57.2669C95.4361 57.3472 96.8581 57.622 97.915 58.5772C98.9252 59.4903 100.428 57.9981 99.4176 57.0809C96.8708 54.7772 93.3944 55.1872 90.2193 55.0942C88.6318 55.0477 87.1207 54.7983 85.7072 54.0375C84.1748 53.2132 82.9014 52.0339 81.7384 50.7574C80.9743 49.9162 79.7815 50.825 79.964 51.7845C80.5795 54.9885 81.6492 58.9619 84.9304 60.4287C86.9509 61.3332 89.086 60.8725 91.2126 60.9528C92.8298 61.0162 94.498 61.3375 95.9667 62.0265C97.5372 62.7619 98.9592 63.9117 99.5917 65.5687C99.7954 66.1013 100.305 66.469 100.899 66.3084C101.413 66.1773 101.846 65.5517 101.638 65.0191Z" fill="black"/>
<path d="M100.967 116.385C100.967 114.504 99.5107 113.122 97.8425 112.488C95.9876 111.786 93.9459 112.226 92.0527 111.727C89.1918 110.97 86.9336 108.274 86.7765 105.319C86.1738 105.568 85.5668 105.818 84.964 106.067C88.0754 110.07 93.636 111.862 98.5302 110.586C99.8503 110.239 99.29 108.202 97.9656 108.548C93.7379 109.652 89.1239 107.999 86.4624 104.575C85.8936 103.844 84.6032 104.465 84.6499 105.323C84.8282 108.65 86.9251 111.79 89.9686 113.207C90.7284 113.557 91.5094 113.819 92.3371 113.942C93.4238 114.103 94.5147 114.09 95.6056 114.179C96.8493 114.284 98.8358 114.834 98.8358 116.389C98.8443 117.742 100.967 117.746 100.967 116.385Z" fill="black"/>
<path d="M100.809 22.5509C103.263 21.2575 105.313 19.2074 106.633 16.7769C108.119 14.0505 108.454 11.1423 108.331 8.082C108.25 6.16718 108.089 4.21855 108.514 2.3291C107.868 2.41364 107.219 2.49818 106.574 2.58272C107.89 4.45949 109.307 6.30245 110.504 8.26376C111.587 10.0433 111.888 12.0046 111.752 14.0589C111.54 17.3433 110.084 20.5558 107.873 22.9821C106.557 24.4235 105.003 25.5774 103.233 26.4101C102.715 26.6553 102.579 27.395 102.851 27.8558C103.161 28.3841 103.785 28.4813 104.303 28.2362C107.733 26.6215 110.547 23.7387 112.189 20.3402C113.934 16.7304 114.664 12.1483 112.966 8.38634C112.427 7.19434 111.633 6.13759 110.886 5.06817C110.059 3.88462 109.231 2.70107 108.403 1.51752C107.919 0.824299 106.676 0.815848 106.463 1.77114C105.589 5.67686 106.901 9.73475 105.699 13.5855C104.748 16.6416 102.567 19.237 99.7355 20.7291C98.53 21.3631 99.6039 23.185 100.809 22.5509Z" fill="black"/>
<path d="M106.845 12.068C104.693 10.4576 103.411 7.80725 103.369 5.14426C103.36 4.62434 102.97 4.16783 102.447 4.10442C101.887 4.03679 101.48 4.35804 101.284 4.86105C100.435 7.01258 100.274 9.39659 100.771 11.6496C101.008 12.7317 101.45 13.7377 101.904 14.7437C102.329 15.6779 102.796 16.6543 102.902 17.6899C102.961 18.2563 103.347 18.7466 103.963 18.7466C104.489 18.7466 105.083 18.2605 105.024 17.6899C104.799 15.4961 103.53 13.7166 102.953 11.6327C102.38 9.5699 102.549 7.40991 103.335 5.42746C102.638 5.33447 101.947 5.24148 101.25 5.14848C101.306 8.61882 103.008 11.8186 105.78 13.8941C106.238 14.2365 106.964 13.9659 107.231 13.5137C107.545 12.9726 107.303 12.4146 106.845 12.068Z" fill="black"/>
<path d="M112.292 20.078C117.343 17.1741 120.268 11.1464 119.746 5.39773C119.593 3.7154 119.168 2.11338 118.459 0.574763C118.171 -0.0550552 117.237 -0.0846481 116.791 0.359183C115.17 1.98234 113.947 3.90984 113.12 6.04446C112.912 6.57706 113.349 7.20264 113.862 7.34636C114.461 7.51121 114.962 7.14347 115.17 6.60664C115.862 4.82286 116.944 3.21239 118.298 1.85553C117.742 1.78367 117.186 1.71181 116.63 1.63995C118.689 6.12054 117.644 11.8058 114.478 15.5213C113.548 16.6119 112.466 17.5291 111.222 18.2477C110.038 18.9325 111.108 20.7585 112.292 20.078Z" fill="black"/>
<path d="M120.909 6.35322C122.433 5.52897 123.689 4.24819 124.47 2.70113C123.812 2.52359 123.15 2.34606 122.492 2.16852C122.794 5.96434 123.125 9.89542 122.17 13.6321C121.367 16.7812 119.508 19.6217 116.584 21.1814C115.119 21.9634 113.426 22.31 111.783 21.9676C111.223 21.8535 110.637 22.1325 110.475 22.7074C110.331 23.2315 110.654 23.8909 111.218 24.0093C114.886 24.7701 118.494 23.1089 120.947 20.4163C123.689 17.4025 124.7 13.4207 124.878 9.43468C124.988 7.01263 124.806 4.58635 124.61 2.17275C124.572 1.70356 124.305 1.28509 123.829 1.15405C123.396 1.0357 122.84 1.22591 122.632 1.64015C122.004 2.88711 121.066 3.86354 119.835 4.5314C118.634 5.17813 119.704 6.99995 120.909 6.35322Z" fill="black"/>
<path d="M125.009 14.1604C127.993 12.2202 129.894 9.05425 130.255 5.52896C129.597 5.70649 128.935 5.88402 128.277 6.06155C129.792 8.45401 129.118 11.3791 128.141 13.8349C127.581 15.2468 126.893 16.6036 126.308 18.007C125.781 19.2666 125.327 20.56 124.758 21.7985C124.194 23.0286 123.531 24.2333 122.602 25.2224C121.63 26.258 120.454 27.0442 119.227 27.7459C116.63 29.2338 113.87 30.4977 110.997 31.36C107.818 32.3152 104.447 32.7549 101.153 32.1715C100.589 32.0701 100.011 32.3237 99.8459 32.9112C99.7058 33.4227 100.02 34.1117 100.589 34.2132C107.198 35.384 113.752 33.1226 119.507 30.0115C120.883 29.2676 122.224 28.4433 123.396 27.4035C124.559 26.3721 125.471 25.0956 126.176 23.7218C126.872 22.3734 127.403 20.9447 127.963 19.5371C128.549 18.0619 129.245 16.6332 129.865 15.1749C131.227 11.9751 132.11 8.14122 130.111 4.99213C129.517 4.05374 128.239 4.51025 128.133 5.52472C127.853 8.2638 126.244 10.8296 123.939 12.3301C122.797 13.0783 123.863 14.9086 125.009 14.1604Z" fill="black"/>
<path d="M101.03 34.378C102.656 32.9916 104.927 32.7591 106.982 32.7379C109.409 32.7126 111.961 32.7548 114.333 33.2874C116.367 33.7397 118.4 34.6908 119.584 36.4746C120.183 37.3749 120.467 38.3387 120.425 39.4208C120.378 40.7142 120.021 41.9908 120.157 43.2885C120.446 46.0825 122.343 48.2255 124.215 50.1699C124.287 49.6162 124.359 49.0625 124.432 48.5088C123.854 48.8807 123.018 48.1833 122.581 47.8113C121.944 47.266 121.388 46.6362 120.908 45.9557C119.885 44.5058 119.096 42.9038 118.158 41.399C117.165 39.8097 115.993 38.3556 114.423 37.2988C112.788 36.1998 110.853 35.6503 108.913 35.3882C106.655 35.0881 104.379 35.1684 102.117 35.3037C100.759 35.384 100.75 37.4975 102.117 37.4172C105.899 37.1932 110.22 36.9395 113.484 39.2137C114.932 40.2197 115.912 41.7456 116.791 43.2335C117.733 44.8355 118.599 46.4798 119.771 47.9339C121.002 49.4641 123.426 51.6747 125.501 50.3306C126.079 49.9544 126.206 49.1808 125.718 48.6694C124.147 47.0378 122.28 45.1356 122.25 42.722C122.233 41.2975 122.666 39.9069 122.521 38.4782C122.403 37.3284 121.995 36.221 121.333 35.2741C118.234 30.8273 112.245 30.6245 107.317 30.616C104.537 30.6118 101.71 31.0218 99.5278 32.8774C99.0906 33.2494 99.1457 33.9891 99.5278 34.3738C99.9607 34.8092 100.593 34.75 101.03 34.378Z" fill="black"/>
<path d="M121.405 29.7619C122.428 29.3181 123.578 29.7112 124.478 30.2438C125.582 30.9032 126.452 31.8543 127.195 32.8899C128.697 34.9822 130.102 37.3916 132.568 38.4779C133.642 38.9471 134.708 37.7551 133.855 36.8167C130.841 33.5028 126.193 32.0149 121.795 32.7969C121.231 32.8983 120.912 33.5831 121.052 34.0988C121.214 34.6906 121.791 34.9399 122.36 34.8385C126.019 34.1833 129.873 35.5867 132.352 38.3131C132.781 37.7593 133.209 37.2056 133.638 36.6519C131.066 35.5233 129.877 32.7757 128.188 30.7172C126.307 28.4262 123.294 26.6551 120.335 27.9359C119.809 28.1641 119.69 28.9292 119.953 29.3815C120.271 29.9225 120.878 29.9902 121.405 29.7619Z" fill="black"/>
<path d="M100.529 99.0929C104.672 98.2052 107.86 95.3605 109.762 91.6661C111.54 88.2084 112.385 84.3619 114.176 80.9127C117.5 74.5173 123.353 69.4788 130.145 67.0271C132.051 66.3381 134.033 65.8309 136.045 65.5688C138.082 65.3025 140.532 65.5688 141.847 63.6624C142.229 63.1087 141.847 62.2591 141.215 62.1111C135.629 60.7881 129.703 61.0671 124.249 62.834C121.532 63.7174 118.913 64.9517 116.536 66.5326C115.309 67.3484 114.138 68.2529 113.043 69.2336C111.816 70.3368 110.678 71.5331 109.477 72.6659C106.922 75.0668 103.925 76.8506 100.542 77.8228C99.2346 78.199 99.7907 80.2406 101.107 79.8602C104.133 78.9894 106.939 77.5227 109.388 75.5529C111.782 73.6296 113.735 71.2245 116.188 69.3646C120.556 66.0549 125.9 64.0048 131.363 63.5103C134.474 63.2313 137.611 63.4257 140.655 64.1485C140.442 63.6329 140.23 63.1129 140.022 62.5973C139.649 63.1383 138.757 63.2102 138.159 63.2651C137.212 63.3497 136.274 63.4215 135.332 63.5568C133.553 63.8104 131.8 64.2373 130.102 64.8122C126.613 66 123.379 67.7922 120.492 70.0705C117.631 72.332 115.161 75.1091 113.268 78.2201C111.277 81.496 110.258 85.1523 108.823 88.6734C108.051 90.5713 107.07 92.4439 105.64 93.936C104.108 95.5338 102.138 96.5905 99.9775 97.0555C98.6319 97.3387 99.1964 99.3761 100.529 99.0929Z" fill="black"/>
<path d="M100.403 65.6447C101.561 62.6182 105.131 61.3121 108.128 61.0711C110.191 60.902 112.356 61.4262 114.359 60.7837C116.044 60.2426 117.335 58.9957 118.192 57.4824C119.168 55.7578 119.657 53.7923 120.03 51.8606C120.213 50.901 119.024 49.988 118.256 50.8334C117.114 52.0888 115.862 53.2512 114.363 54.0713C112.929 54.8575 111.396 55.1196 109.775 55.1661C106.596 55.259 103.119 54.849 100.577 57.1527C99.5621 58.07 101.069 59.5621 102.079 58.6491C103.115 57.7107 104.507 57.4275 105.865 57.3429C107.487 57.2415 109.113 57.3556 110.734 57.233C112.487 57.0978 114.13 56.6539 115.658 55.7705C117.212 54.8744 118.557 53.6486 119.758 52.3298C119.168 51.9874 118.574 51.645 117.984 51.3026C117.437 54.1558 116.545 58.2982 113.158 58.9112C112.101 59.1014 110.997 58.9534 109.936 58.9196C109.062 58.89 108.192 58.9365 107.326 59.0506C105.539 59.2831 103.777 59.7734 102.202 60.6738C100.436 61.6883 99.0824 63.1888 98.3523 65.091C98.1486 65.6236 98.5773 66.2492 99.0951 66.3929C99.6936 66.545 100.199 66.1815 100.403 65.6447Z" fill="black"/>
<path d="M101.153 116.449C101.153 114.897 103.14 114.344 104.383 114.238C105.474 114.145 106.565 114.162 107.652 114.001C108.479 113.879 109.265 113.617 110.02 113.266C113.068 111.85 115.161 108.713 115.339 105.382C115.386 104.529 114.095 103.903 113.526 104.634C110.865 108.058 106.255 109.711 102.023 108.608C100.699 108.261 100.139 110.298 101.459 110.645C106.353 111.922 111.913 110.129 115.025 106.126C114.422 105.877 113.815 105.628 113.212 105.378C113.055 108.333 110.797 111.03 107.936 111.786C106.043 112.285 104.006 111.845 102.146 112.547C100.478 113.177 99.0222 114.563 99.0222 116.444C99.0265 117.81 101.149 117.81 101.153 116.449Z" fill="black"/>
</svg>
