<svg width="200" height="200" viewBox="0 0 200 200" fill="none" xmlns="http://www.w3.org/2000/svg">
<path d="M91.6656 61.828C90.8905 55.5817 90.1436 49.0657 92.2218 43.1267C94.3626 37.009 99.2409 32.2709 102.147 26.4793C105.182 20.4305 105.929 13.5226 106.629 6.78708C105.96 14.6828 103.675 22.4374 99.9534 29.4268C98.4471 32.2552 96.7064 34.9645 95.4688 37.9183C92.2687 45.5506 92.65 54.1518 93.0844 62.4238" fill="url(#paint0_radial_501_29474)"/>
<path d="M92.4464 61.828C91.9558 57.8582 91.4714 53.8508 91.7183 49.8465C91.8402 47.871 92.1589 45.908 92.7496 44.0172C93.2777 42.3333 94.034 40.7404 94.909 39.2102C96.7091 36.0714 98.9655 33.2304 100.912 30.1856C102.962 26.9778 104.456 23.5192 105.4 19.8253C106.491 15.5576 106.953 11.1582 107.406 6.78392C106.885 6.78392 106.366 6.78392 105.844 6.78392C105.203 14.2563 103.094 21.6095 99.6686 28.276C97.8935 31.7284 95.7309 34.977 94.3465 38.6238C93.0121 42.1452 92.3902 45.9018 92.1464 49.6489C91.8683 53.9041 92.0746 58.1718 92.2996 62.4206C92.3527 63.4241 93.9153 63.4303 93.8621 62.4206C93.4715 54.9796 93.0715 47.2658 95.4778 40.0976C96.706 36.4351 98.8217 33.2053 100.628 29.8188C102.409 26.4761 103.872 22.9516 104.984 19.3299C106.241 15.2503 107.044 11.0391 107.41 6.78392C107.447 6.36061 107.025 6 106.628 6C106.169 6 105.891 6.36061 105.847 6.78392C105.447 10.6283 105.038 14.4821 104.175 18.2543C103.331 21.9513 102.003 25.4476 100.016 28.6805C98.1217 31.7629 95.8591 34.5976 93.9871 37.6956C93.0527 39.2415 92.2308 40.8564 91.6027 42.5497C90.9089 44.4155 90.5057 46.369 90.287 48.3445C89.787 52.8348 90.3339 57.3628 90.887 61.8217C90.9401 62.2419 91.2089 62.6056 91.6683 62.6056C92.0464 62.6119 92.4996 62.2482 92.4464 61.828Z" fill="url(#paint1_radial_501_29474)"/>
<path d="M80.7089 64.6877C80.4495 63.1888 79.3588 61.9941 78.365 60.8433C70.6803 51.9348 66.4458 40.1069 66.727 28.3324" fill="url(#paint2_radial_501_29474)"/>
<path d="M81.4616 64.4808C81.2148 63.167 80.4241 62.0726 79.5834 61.066C78.7647 60.0908 77.9271 59.1376 77.1583 58.1185C75.602 56.0583 74.2145 53.8696 73.0113 51.5837C70.6143 47.0306 68.9611 42.0919 68.1142 37.0152C67.6361 34.1492 67.4423 31.2361 67.5048 28.3325C67.5267 27.3228 65.9641 27.3228 65.9423 28.3325C65.8266 33.5691 66.5767 38.8308 68.1236 43.8322C69.6705 48.8305 71.9988 53.6031 75.0364 57.8613C75.9052 59.0811 76.8333 60.2633 77.8115 61.3984C78.7115 62.4426 79.6897 63.4962 79.9553 64.8979C80.0335 65.3149 80.5335 65.5501 80.9179 65.4466C81.3523 65.3243 81.5398 64.8979 81.4616 64.4808Z" fill="url(#paint3_radial_501_29474)"/>
<path d="M103.496 64.6875C101.906 59.476 104.44 53.8756 107.731 49.5389C111.022 45.2023 115.159 41.4363 117.553 36.5415C119.016 33.5531 119.76 30.2701 120.488 27.0215" fill="url(#paint4_radial_501_29474)"/>
<path d="M104.25 64.4808C102.694 59.2692 105.378 53.8915 108.488 49.8308C111.788 45.5223 115.91 41.7658 118.294 36.8082C119.75 33.7791 120.51 30.4929 121.244 27.2287C121.466 26.2472 119.96 25.827 119.738 26.8116C119.088 29.6996 118.447 32.6409 117.247 35.3595C116.128 37.8932 114.519 40.154 112.769 42.2863C111.022 44.4154 109.153 46.4411 107.466 48.6173C105.741 50.8436 104.253 53.2424 103.272 55.8952C102.209 58.7675 101.862 61.9314 102.747 64.8947C103.031 65.8605 104.537 65.4497 104.25 64.4808Z" fill="url(#paint5_radial_501_29474)"/>
<path d="M61.5822 79.7578C60.9228 79.7484 60.2665 79.6889 59.6602 79.4662C59.2289 79.5164 58.7945 79.5666 58.3633 79.6167C60.7446 79.9993 63.0822 80.5606 65.3511 81.3539L61.5822 79.7578Z" fill="url(#paint6_radial_501_29474)"/>
<path d="M61.5826 78.9741C61.0607 78.9647 60.5513 78.9271 60.0513 78.7734C59.5169 78.6072 58.9106 78.7703 58.3606 78.833C57.9731 78.8769 57.6418 79.0964 57.5918 79.5134C57.5512 79.8646 57.7637 80.3099 58.1512 80.3726C60.5232 80.7583 62.8671 81.3196 65.139 82.1098C65.539 82.2478 65.9922 81.953 66.1016 81.561C66.2266 81.1095 65.9453 80.7614 65.5547 80.5952C64.2984 80.0653 63.0421 79.5322 61.7858 79.0023C61.3982 78.8393 60.9264 79.1779 60.8232 79.5511C60.6982 80.0026 60.9795 80.3507 61.3701 80.5169C62.6264 81.0468 63.8827 81.5799 65.139 82.1098C65.2765 81.6049 65.4172 81.1032 65.5547 80.5984C63.2796 79.8113 60.9389 79.25 58.5669 78.8612C58.4981 79.3755 58.4294 79.8866 58.3606 80.4008C58.62 80.3695 58.8794 80.3413 59.1388 80.3099C59.4357 80.2754 59.5919 80.2817 59.8826 80.3538C60.4357 80.4886 61.0107 80.5325 61.5795 80.5419C62.5889 80.5608 62.5889 78.9929 61.5826 78.9741Z" fill="url(#paint7_radial_501_29474)"/>
<path d="M34.5975 79.6575C23.3189 80.6233 12.0403 81.5859 0.761719 82.5517C8.41203 85.3017 16.8217 84.4081 24.8971 83.4768C36.0538 82.1911 47.2074 80.9023 58.3641 79.6167C50.6481 78.3718 42.4665 78.9864 34.5975 79.6575Z" fill="url(#paint8_radial_501_29474)"/>
<path d="M34.5972 78.8737C25.8031 79.6262 17.0059 80.3788 8.21178 81.1282C5.7273 81.3415 3.24595 81.5516 0.761478 81.7648C-0.119807 81.8401 -0.297941 83.0003 0.555219 83.3044C7.43987 85.7597 14.8902 85.3426 22.0342 84.5775C29.7595 83.7497 37.4755 82.8058 45.1914 81.9153C49.5822 81.4105 53.9699 80.9025 58.3607 80.3976C58.7482 80.3537 59.0795 80.1342 59.1295 79.7172C59.1701 79.366 58.9576 78.9176 58.5701 78.858C52.3948 77.8702 46.1227 78.0176 39.9068 78.4504C38.1349 78.5758 36.366 78.7232 34.5972 78.8737C34.1753 78.9082 33.8159 79.2092 33.8159 79.6576C33.8159 80.0527 34.1753 80.4792 34.5972 80.4415C40.7318 79.9179 46.9008 79.4318 53.0573 79.8175C54.7637 79.9241 56.4637 80.0997 58.1544 80.3694C58.2232 79.8551 58.2919 79.344 58.3607 78.8298C50.6135 79.7234 42.8663 80.6171 35.1191 81.5108C31.2596 81.9561 27.3969 82.4076 23.5374 82.8466C19.9529 83.2511 16.3527 83.6086 12.7401 83.6086C8.74305 83.6117 4.74914 83.1414 0.967735 81.793C0.898983 82.3073 0.830231 82.8184 0.761478 83.3326C9.55558 82.5801 18.3528 81.8275 27.1469 81.0781C29.6314 80.8648 32.1128 80.6548 34.5972 80.4415C35.0191 80.407 35.3785 80.106 35.3785 79.6576C35.3785 79.2625 35.0191 78.8392 34.5972 78.8737Z" fill="url(#paint9_radial_501_29474)"/>
<path d="M65.3516 81.3538L69.5205 83.1192C68.1611 82.4294 66.7672 81.8461 65.3516 81.3538Z" fill="url(#paint10_radial_501_29474)"/>
<path d="M65.1426 82.1096C66.3583 82.6238 67.574 83.1381 68.7928 83.6523C68.9646 83.7245 69.1396 83.7997 69.3115 83.8718C69.6678 84.0224 70.0991 83.737 70.2334 83.4172C70.3772 83.0785 70.2616 82.6144 69.9147 82.4388C68.5052 81.7302 67.0489 81.1156 65.5583 80.595C65.1707 80.4602 64.6863 80.7487 64.5957 81.1438C64.4988 81.5828 64.7301 81.9622 65.1426 82.1096C65.8395 82.3542 66.5302 82.6176 67.2114 82.9029C67.0927 82.8527 67.2958 82.9374 67.3177 82.9499C67.4146 82.9907 67.5115 83.0346 67.6083 83.0785C67.7771 83.1538 67.949 83.229 68.1177 83.3074C68.4552 83.4642 68.7928 83.6273 69.124 83.7935C69.324 83.3168 69.524 82.8371 69.7272 82.3604C68.5115 81.8462 67.2958 81.3319 66.077 80.8177C65.9051 80.7455 65.7301 80.6703 65.5583 80.5982C65.1801 80.4383 64.6832 80.7706 64.5957 81.1469C64.4926 81.6047 64.7395 81.9371 65.1426 82.1096Z" fill="url(#paint11_radial_501_29474)"/>
<path d="M118.52 85.9791C121.876 83.1351 126.067 81.47 130.295 80.2659C152.552 73.9349 176.178 79.3691 199.245 81.169C188.36 78.6886 177.034 80.5418 165.909 81.4292C153.427 82.4264 140.886 82.1912 128.367 81.956" fill="url(#paint12_radial_501_29474)"/>
<path d="M119.072 86.5341C122.9 83.3137 127.785 81.6738 132.56 80.4728C137.742 79.1683 143.051 78.4722 148.379 78.2025C153.764 77.9329 159.164 78.0897 164.539 78.4597C170.008 78.8359 175.462 79.4349 180.909 80.0557C186.331 80.6735 191.75 81.3163 197.185 81.7866C197.869 81.8462 198.553 81.9027 199.238 81.956C200.116 82.025 200.3 80.6107 199.444 80.4163C190.497 78.3938 181.29 79.2154 172.252 80.0745C167.63 80.5135 163.011 80.9055 158.371 81.1093C153.667 81.3163 148.958 81.3853 144.251 81.379C138.951 81.3727 133.654 81.2724 128.357 81.1752C127.35 81.1564 127.35 82.7242 128.357 82.743C137.72 82.9186 147.086 83.0942 156.449 82.7556C161.105 82.5862 165.749 82.257 170.39 81.818C174.912 81.3915 179.434 80.9243 183.975 80.7675C189.019 80.5919 194.091 80.8114 199.025 81.9277C199.094 81.4135 199.163 80.9024 199.232 80.3881C193.722 79.9554 188.228 79.3283 182.737 78.698C177.234 78.0677 171.73 77.4406 166.208 77.0141C160.752 76.5939 155.273 76.3744 149.801 76.5751C144.386 76.7727 138.97 77.3841 133.682 78.5914C128.741 79.7171 123.653 81.2598 119.478 84.2419C118.953 84.615 118.447 85.0133 117.953 85.4272C117.628 85.7 117.672 86.255 117.953 86.5372C118.288 86.8539 118.747 86.8069 119.072 86.5341Z" fill="url(#paint13_radial_501_29474)"/>
<path d="M78.2296 104.505C76.6701 107.713 73.0044 109.231 70.548 111.811C64.8853 117.766 66.7635 127.719 62.8102 134.928C61.3258 137.634 59.0726 139.835 56.6943 141.795" fill="url(#paint14_radial_501_29474)"/>
<path d="M77.5547 104.107C76.2828 106.672 73.6577 108.127 71.517 109.87C69.295 111.676 67.7543 113.975 66.773 116.659C64.8417 121.949 65.0636 127.806 62.8698 133.018C61.4603 136.37 58.904 138.96 56.1445 141.236C55.8195 141.506 55.8664 142.067 56.1445 142.346C56.4664 142.669 56.9226 142.616 57.2508 142.346C59.7821 140.258 62.1854 137.881 63.6979 134.924C65.0105 132.366 65.6605 129.543 66.1699 126.731C67.1356 121.375 67.6387 115.37 71.967 111.532C74.3609 109.409 77.4266 107.879 78.9079 104.897C79.3486 104 78.0016 103.204 77.5547 104.107Z" fill="url(#paint15_radial_501_29474)"/>
<path d="M110.122 108.095C116.322 114.072 118.263 123.184 119.063 131.776C119.363 134.993 119.551 138.248 120.407 141.362C121.263 144.479 122.866 147.502 125.47 149.405" fill="url(#paint16_radial_501_29474)"/>
<path d="M109.569 108.65C113.613 112.573 115.788 117.894 117.003 123.316C117.625 126.082 118.01 128.894 118.275 131.717C118.597 135.138 118.782 138.618 119.753 141.933C120.688 145.112 122.382 148.091 125.072 150.085C125.413 150.336 125.944 150.142 126.141 149.803C126.372 149.405 126.201 148.982 125.86 148.731C123.619 147.072 122.191 144.498 121.369 141.873C120.36 138.653 120.166 135.266 119.857 131.927C119.332 126.245 118.381 120.51 116.013 115.282C114.713 112.407 112.938 109.745 110.672 107.543C109.95 106.838 108.844 107.945 109.569 108.65Z" fill="url(#paint17_radial_501_29474)"/>
<path d="M95.3094 108.095C97.4501 123.046 87.5872 136.95 85.2371 151.866C83.8371 160.753 85.1996 170.06 89.0935 178.166C91.5561 183.296 94.9938 187.943 97.0501 193.248C92.1749 185.481 89.4936 176.347 89.3998 167.169C89.3529 162.682 89.9092 158.213 90.4655 153.76C91.6999 143.877 92.9343 133.996 94.1688 124.112" fill="url(#paint18_radial_501_29474)"/>
<path d="M94.5556 108.302C95.3306 113.805 94.3774 119.355 92.8492 124.645C91.2648 130.133 89.0866 135.423 87.2803 140.835C85.4302 146.366 84.0364 152.042 83.927 157.903C83.8145 163.876 84.8802 169.897 87.0678 175.456C88.1741 178.266 89.5866 180.915 91.0929 183.528C92.6024 186.143 94.1712 188.733 95.4493 191.477C95.7525 192.129 96.0369 192.787 96.2994 193.458C96.7744 193.258 97.2526 193.057 97.7276 192.853C93.2243 185.657 90.5992 177.306 90.2273 168.815C90.021 164.083 90.5523 159.367 91.1367 154.679C91.7336 149.881 92.3336 145.084 92.9336 140.283C93.6055 134.893 94.2806 129.503 94.9525 124.112C95.0056 123.692 94.5556 123.328 94.1712 123.328C93.7055 123.328 93.443 123.689 93.3899 124.112C92.1773 133.827 90.9648 143.541 89.7522 153.255C89.1585 158.019 88.5334 162.807 88.6303 167.62C88.7147 171.925 89.3554 176.231 90.5179 180.373C91.8273 185.045 93.8087 189.536 96.3806 193.646C96.8275 194.361 98.1463 193.907 97.8088 193.041C95.6025 187.394 91.9305 182.512 89.4179 177.018C86.9584 171.634 85.6365 165.717 85.4989 159.8C85.4302 156.858 85.649 153.911 86.174 151.017C86.6865 148.198 87.4459 145.432 88.3178 142.704C90.0585 137.257 92.2461 131.967 93.9337 126.505C95.5775 121.184 96.74 115.602 96.3088 110.008C96.2525 109.299 96.1713 108.594 96.0713 107.888C96.0119 107.468 95.4806 107.239 95.1087 107.339C94.6493 107.462 94.4962 107.882 94.5556 108.302Z" fill="url(#paint19_radial_501_29474)"/>
<path d="M92.9906 104.505C103.585 104.505 112.173 95.8877 112.173 85.2579C112.173 74.6281 103.585 66.011 92.9906 66.011C82.3967 66.011 73.8086 74.6281 73.8086 85.2579C73.8086 95.8877 82.3967 104.505 92.9906 104.505Z" fill="url(#paint20_radial_501_29474)"/>
<path fill-rule="evenodd" clip-rule="evenodd" d="M91.0492 65.4781C91.6881 65.4157 92.3358 65.3838 92.9906 65.3838C93.6455 65.3838 94.2932 65.4157 94.9321 65.4781C95.2757 65.5117 95.5271 65.8183 95.4936 66.1631C95.4602 66.5078 95.1546 66.7601 94.811 66.7265C94.2123 66.668 93.605 66.6381 92.9906 66.6381C92.3763 66.6381 91.769 66.668 91.1703 66.7265C90.8267 66.7601 90.5211 66.5078 90.4877 66.1631C90.4542 65.8183 90.7056 65.5117 91.0492 65.4781ZM97.9626 66.6531C98.0627 66.3217 98.4117 66.1344 98.742 66.2348C99.995 66.6157 101.195 67.1178 102.33 67.7274C102.634 67.8909 102.749 68.271 102.586 68.5763C102.423 68.8816 102.044 68.9966 101.739 68.833C100.677 68.262 99.5528 67.7918 98.3796 67.4352C98.0492 67.3348 97.8625 66.9846 97.9626 66.6531ZM88.0187 66.6531C88.1188 66.9846 87.9321 67.3348 87.6017 67.4352C86.4285 67.7918 85.3043 68.262 84.2418 68.833C83.9375 68.9966 83.5587 68.8816 83.3957 68.5763C83.2327 68.271 83.3473 67.8909 83.6516 67.7274C84.7858 67.1178 85.9863 66.6157 87.2393 66.2348C87.5696 66.1344 87.9186 66.3217 88.0187 66.6531ZM104.677 69.9811C104.896 69.7135 105.29 69.6748 105.557 69.8947C106.559 70.7209 107.479 71.6439 108.302 72.6494C108.521 72.9171 108.483 73.3123 108.216 73.5321C107.949 73.752 107.555 73.7133 107.336 73.4457C106.564 72.5032 105.702 71.6381 104.763 70.8638C104.496 70.6439 104.458 70.2487 104.677 69.9811ZM81.3044 69.9811C81.5236 70.2487 81.485 70.6439 81.2183 70.8638C80.279 71.6381 79.4168 72.5032 78.6451 73.4457C78.426 73.7133 78.0321 73.752 77.7654 73.5321C77.4987 73.3123 77.4601 72.9171 77.6792 72.6495C78.5027 71.6439 79.4225 70.7209 80.4247 69.8947C80.6914 69.6748 81.0853 69.7135 81.3044 69.9811ZM109.616 75.6305C109.92 75.467 110.299 75.5819 110.462 75.8872C111.07 77.0253 111.57 78.2298 111.95 79.4871C112.05 79.8185 111.863 80.1687 111.533 80.2691C111.202 80.3695 110.853 80.1822 110.753 79.8507C110.398 78.6735 109.929 77.5455 109.36 76.4794C109.197 76.1741 109.312 75.794 109.616 75.6305ZM76.3653 75.6305C76.6696 75.794 76.7842 76.1741 76.6212 76.4794C76.0521 77.5455 75.5835 78.6735 75.228 79.8507C75.1279 80.1822 74.779 80.3695 74.4486 80.2691C74.1183 80.1687 73.9316 79.8185 74.0317 79.4871C74.4113 78.2298 74.9117 77.0253 75.5192 75.8872C75.6822 75.5819 76.061 75.467 76.3653 75.6305ZM73.9602 82.7464C74.3038 82.78 74.5552 83.0866 74.5217 83.4314C74.4635 84.0321 74.4336 84.6414 74.4336 85.2579C74.4336 85.8743 74.4635 86.4836 74.5217 87.0844C74.5552 87.4291 74.3038 87.7358 73.9602 87.7693C73.6166 87.8029 73.311 87.5506 73.2776 87.2059C73.2154 86.5648 73.1836 85.915 73.1836 85.2579C73.1836 84.6008 73.2154 83.951 73.2776 83.3099C73.311 82.9651 73.6166 82.7129 73.9602 82.7464ZM112.021 82.7464C112.365 82.7129 112.67 82.9651 112.704 83.3099C112.766 83.951 112.798 84.6008 112.798 85.2579C112.798 85.915 112.766 86.5648 112.704 87.2059C112.67 87.5506 112.365 87.8029 112.021 87.7693C111.678 87.7358 111.426 87.4291 111.46 87.0844C111.518 86.4836 111.548 85.8743 111.548 85.2579C111.548 84.6414 111.518 84.0321 111.46 83.4314C111.426 83.0866 111.678 82.78 112.021 82.7464ZM74.4486 90.2467C74.779 90.1462 75.1279 90.3335 75.228 90.665C75.5835 91.8423 76.0521 92.9703 76.6212 94.0363C76.7842 94.3416 76.6696 94.7217 76.3653 94.8853C76.061 95.0488 75.6822 94.9339 75.5192 94.6285C74.9117 93.4904 74.4113 92.286 74.0317 91.0287C73.9316 90.6972 74.1183 90.3471 74.4486 90.2467ZM111.533 90.2467C111.863 90.3471 112.05 90.6972 111.95 91.0287C111.57 92.286 111.07 93.4904 110.462 94.6285C110.299 94.9339 109.92 95.0488 109.616 94.8853C109.312 94.7217 109.197 94.3416 109.36 94.0363C109.929 92.9703 110.398 91.8423 110.753 90.665C110.853 90.3335 111.202 90.1462 111.533 90.2467ZM108.216 96.9836C108.483 97.2035 108.521 97.5987 108.302 97.8663C107.479 98.8719 106.559 99.7949 105.557 100.621C105.29 100.841 104.896 100.802 104.677 100.535C104.458 100.267 104.496 99.8718 104.763 99.652C105.702 98.8776 106.564 98.0125 107.336 97.0701C107.555 96.8025 107.949 96.7638 108.216 96.9836ZM77.7654 96.9836C78.0321 96.7638 78.426 96.8025 78.6451 97.0701C79.4168 98.0125 80.279 98.8776 81.2183 99.652C81.485 99.8718 81.5236 100.267 81.3044 100.535C81.0853 100.802 80.6914 100.841 80.4247 100.621C79.4225 99.7949 78.5027 98.8719 77.6792 97.8663C77.4601 97.5987 77.4987 97.2035 77.7654 96.9836ZM102.586 101.939C102.749 102.245 102.634 102.625 102.33 102.788C101.195 103.398 99.995 103.9 98.742 104.281C98.4117 104.381 98.0627 104.194 97.9626 103.863C97.8625 103.531 98.0492 103.181 98.3796 103.081C99.5528 102.724 100.677 102.254 101.739 101.683C102.044 101.519 102.423 101.634 102.586 101.939ZM83.3957 101.939C83.5587 101.634 83.9375 101.519 84.2418 101.683C85.3043 102.254 86.4285 102.724 87.6017 103.081C87.9321 103.181 88.1188 103.531 88.0187 103.863C87.9186 104.194 87.5696 104.381 87.2393 104.281C85.9863 103.9 84.7858 103.398 83.6516 102.788C83.3473 102.625 83.2327 102.245 83.3957 101.939ZM90.4877 104.353C90.5211 104.008 90.8267 103.756 91.1703 103.789C91.769 103.848 92.3763 103.878 92.9906 103.878C93.605 103.878 94.2123 103.848 94.811 103.789C95.1546 103.756 95.4602 104.008 95.4936 104.353C95.5271 104.697 95.2757 105.004 94.9321 105.038C94.2932 105.1 93.6455 105.132 92.9906 105.132C92.3358 105.132 91.6881 105.1 91.0492 105.038C90.7056 105.004 90.4542 104.697 90.4877 104.353Z" fill="url(#paint21_radial_501_29474)"/>
<path d="M71.1207 92.5453C66.558 91.9808 61.7766 93.649 58.5452 96.9321C56.8701 98.6348 55.6232 100.704 54.12 102.561C52.2324 104.891 49.9323 106.882 47.3604 108.415C50.3167 106.355 53.2762 104.298 56.2326 102.238C57.3108 101.488 58.4108 100.714 59.1671 99.6382C60.3328 97.9794 60.8172 95.5179 62.7485 94.9158" fill="url(#paint22_radial_501_29474)"/>
<path d="M71.1208 91.7615C67.3675 91.3131 63.4454 92.3103 60.3234 94.4425C58.6546 95.5839 57.3108 97.0264 56.0889 98.6287C54.8295 100.284 53.6763 102.006 52.2387 103.517C50.6762 105.16 48.9074 106.571 46.9667 107.735C47.2292 108.186 47.4917 108.638 47.7542 109.089C50.373 107.264 52.995 105.443 55.6139 103.618C56.7889 102.799 58.0421 102.022 59.0484 100.99C59.8953 100.124 60.4172 99.0802 60.9547 98.011C61.4204 97.0859 61.9548 95.9978 62.9579 95.6655C63.908 95.3519 63.5017 93.8373 62.5423 94.154C60.2172 94.9223 59.7609 97.4434 58.4921 99.237C57.7202 100.328 56.5327 101.071 55.4576 101.821C54.1263 102.749 52.795 103.674 51.4637 104.602C49.9637 105.646 48.4636 106.691 46.9635 107.735C46.1479 108.302 46.876 109.613 47.7511 109.089C49.4949 108.045 51.1231 106.8 52.5856 105.389C54.0576 103.966 55.2889 102.351 56.492 100.695C57.6452 99.1116 58.8359 97.5563 60.3766 96.3302C61.7798 95.217 63.4142 94.3798 65.1236 93.8593C67.0675 93.2667 69.0988 93.0879 71.1176 93.3262C71.5364 93.3764 71.8989 92.9311 71.8989 92.5423C71.902 92.0814 71.5427 91.8117 71.1208 91.7615Z" fill="url(#paint23_radial_501_29474)"/>
<path d="M114.86 71.6051C116.626 64.8383 122.542 59.3508 129.405 58.1153C130.733 57.877 132.28 57.6638 132.967 56.5005C128.658 61.7057 119.989 62.1102 116.592 67.9552" fill="url(#paint24_radial_501_29474)"/>
<path d="M115.613 71.8151C117.26 65.5907 122.479 60.5297 128.726 59.0591C130.48 58.6452 132.573 58.6075 133.639 56.9017C134.102 56.1617 132.989 55.2618 132.411 55.9516C128.933 60.1095 123.148 61.0064 118.964 64.2079C117.748 65.1392 116.692 66.2367 115.91 67.5631C115.398 68.4348 116.748 69.2219 117.26 68.3533C118.557 66.1489 120.707 64.7472 122.936 63.5964C125.311 62.3704 127.82 61.3952 130.086 59.9622C131.355 59.1594 132.548 58.2124 133.514 57.0585C133.105 56.7418 132.695 56.4251 132.286 56.1084C131.917 56.6979 131.233 56.9268 130.586 57.0867C129.795 57.2843 128.986 57.3784 128.195 57.5728C126.579 57.9647 125.014 58.5919 123.561 59.3977C120.629 61.022 118.117 63.4146 116.335 66.2555C115.338 67.8422 114.579 69.5856 114.101 71.4012C113.848 72.3733 115.354 72.7903 115.613 71.8151Z" fill="url(#paint25_radial_501_29474)"/>
<path d="M71.121 70.7114C67.2552 70.8431 63.3863 70.8838 59.5174 70.8337C58.2142 70.818 56.8985 70.7898 55.636 70.4668C53.7015 69.9776 51.9983 68.8268 50.4889 67.5192C48.5982 65.8824 46.8356 63.6655 47.0419 61.1694C49.6045 63.6466 52.6265 65.6441 55.9047 67.0269C60.2299 68.8519 64.9176 69.5919 69.5553 70.3194" fill="url(#paint26_radial_501_29474)"/>
<path d="M71.1205 69.9276C67.0859 70.0624 63.0451 70.1188 59.0075 70.0404C57.2074 70.006 55.4886 69.799 53.8729 68.9461C52.3728 68.1559 51.0009 67.0615 49.8446 65.8229C48.6571 64.5498 47.6945 62.9726 47.8164 61.1696C47.3726 61.3546 46.9257 61.5396 46.482 61.7246C48.7571 63.9133 51.3697 65.7539 54.2104 67.1211C57.2324 68.5761 60.47 69.476 63.7514 70.122C65.6046 70.4889 67.4734 70.7805 69.3423 71.0752C69.7579 71.1411 70.1829 70.9686 70.3048 70.5265C70.4079 70.1533 70.1798 69.6265 69.7579 69.5607C66.5078 69.0527 63.2452 68.5384 60.0731 67.6448C57.0637 66.795 54.2073 65.5564 51.5947 63.8318C50.1634 62.8848 48.8289 61.8061 47.5914 60.6145C47.082 60.1222 46.3038 60.4985 46.257 61.1696C46.0038 64.8634 49.2821 67.905 52.1103 69.73C53.7979 70.8181 55.6355 71.4107 57.6324 71.5519C59.695 71.6992 61.7826 71.6428 63.8483 71.6334C66.2734 71.6208 68.6954 71.5738 71.1205 71.4923C72.1236 71.4641 72.1299 69.8962 71.1205 69.9276Z" fill="url(#paint27_radial_501_29474)"/>
<path d="M115.1 98.6975C121.15 97.923 126.957 101.021 132.223 104.107C136.041 106.345 140.054 108.882 141.851 112.937C137.463 110.218 133.073 107.496 128.685 104.778C127.735 104.188 126.779 103.595 125.744 103.175C123.869 102.41 121.816 102.238 119.853 101.742C117.891 101.25 115.884 100.325 114.859 98.5721" fill="url(#paint28_radial_501_29474)"/>
<path d="M115.101 99.4816C119.407 98.9516 123.573 100.397 127.37 102.316C129.245 103.263 131.07 104.32 132.873 105.402C134.455 106.352 136.02 107.352 137.427 108.55C138.992 109.883 140.327 111.441 141.177 113.332C141.533 112.974 141.889 112.617 142.246 112.26C138.558 109.974 134.87 107.691 131.186 105.405C129.411 104.304 127.654 103.056 125.689 102.316C123.82 101.614 121.81 101.451 119.892 100.943C118.213 100.501 116.466 99.7261 115.535 98.1771C115.016 97.3148 113.663 98.1018 114.185 98.9673C115.113 100.51 116.641 101.47 118.291 102.081C120.11 102.755 122.06 102.925 123.929 103.407C125.976 103.937 127.695 105.085 129.473 106.186C131.339 107.343 133.205 108.497 135.07 109.654C137.198 110.974 139.327 112.291 141.458 113.611C141.752 113.793 142.164 113.73 142.405 113.489C142.667 113.225 142.671 112.858 142.527 112.539C140.892 108.911 137.58 106.452 134.289 104.427C130.583 102.147 126.704 99.8861 122.513 98.6412C120.117 97.9294 117.591 97.6033 115.101 97.9074C114.682 97.9576 114.319 98.2304 114.319 98.6914C114.319 99.0802 114.679 99.5317 115.101 99.4816Z" fill="url(#paint29_radial_501_29474)"/>
<defs>
<radialGradient id="paint0_radial_501_29474" cx="0" cy="0" r="1" gradientUnits="userSpaceOnUse" gradientTransform="translate(98.7505 34.6036) scale(20.3799 20.4489)">
<stop offset="0.5744" stop-opacity="0"/>
<stop offset="0.7977" stop-opacity="0.6512"/>
<stop offset="1" stop-opacity="0.95"/>
</radialGradient>
<radialGradient id="paint1_radial_501_29474" cx="0" cy="0" r="1" gradientUnits="userSpaceOnUse" gradientTransform="translate(98.7496 34.6738) scale(20.469 20.5382)">
<stop offset="0.5744" stop-opacity="0"/>
<stop offset="0.7977" stop-opacity="0.6512"/>
<stop offset="1" stop-opacity="0.95"/>
</radialGradient>
<radialGradient id="paint2_radial_501_29474" cx="0" cy="0" r="1" gradientUnits="userSpaceOnUse" gradientTransform="translate(73.7114 46.5107) scale(13.7329 13.7794)">
<stop offset="0.5744" stop-opacity="0"/>
<stop offset="0.7977" stop-opacity="0.6512"/>
<stop offset="1" stop-opacity="0.95"/>
</radialGradient>
<radialGradient id="paint3_radial_501_29474" cx="0" cy="0" r="1" gradientUnits="userSpaceOnUse" gradientTransform="translate(73.7064 46.5229) scale(13.8696 13.9165)">
<stop offset="0.5744" stop-opacity="0"/>
<stop offset="0.7977" stop-opacity="0.6512"/>
<stop offset="1" stop-opacity="0.95"/>
</radialGradient>
<radialGradient id="paint4_radial_501_29474" cx="0" cy="0" r="1" gradientUnits="userSpaceOnUse" gradientTransform="translate(111.748 45.8554) scale(14.6408 14.6903)">
<stop offset="0.5744" stop-opacity="0"/>
<stop offset="0.7977" stop-opacity="0.6512"/>
<stop offset="1" stop-opacity="0.95"/>
</radialGradient>
<radialGradient id="paint5_radial_501_29474" cx="0" cy="0" r="1" gradientUnits="userSpaceOnUse" gradientTransform="translate(111.752 45.8492) scale(14.7908 14.8408)">
<stop offset="0.5744" stop-opacity="0"/>
<stop offset="0.7977" stop-opacity="0.6512"/>
<stop offset="1" stop-opacity="0.95"/>
</radialGradient>
<radialGradient id="paint6_radial_501_29474" cx="0" cy="0" r="1" gradientUnits="userSpaceOnUse" gradientTransform="translate(35.1397 81.6459) scale(24.3867 24.4693)">
<stop offset="0.5744" stop-opacity="0"/>
<stop offset="0.7977" stop-opacity="0.6512"/>
<stop offset="1" stop-opacity="0.95"/>
</radialGradient>
<radialGradient id="paint7_radial_501_29474" cx="0" cy="0" r="1" gradientUnits="userSpaceOnUse" gradientTransform="translate(61.3142 80.4039) scale(2.99821 3.00836)">
<stop offset="0.5744" stop-opacity="0"/>
<stop offset="0.7977" stop-opacity="0.6512"/>
<stop offset="1" stop-opacity="0.95"/>
</radialGradient>
<radialGradient id="paint8_radial_501_29474" cx="0" cy="0" r="1" gradientUnits="userSpaceOnUse" gradientTransform="translate(35.1404 81.6467) scale(24.3866 24.4691)">
<stop offset="0.5744" stop-opacity="0"/>
<stop offset="0.7977" stop-opacity="0.6512"/>
<stop offset="1" stop-opacity="0.95"/>
</radialGradient>
<radialGradient id="paint9_radial_501_29474" cx="0" cy="0" r="1" gradientUnits="userSpaceOnUse" gradientTransform="translate(29.7701 81.6473) scale(21.1264 21.1978)">
<stop offset="0.5744" stop-opacity="0"/>
<stop offset="0.7977" stop-opacity="0.6512"/>
<stop offset="1" stop-opacity="0.95"/>
</radialGradient>
<radialGradient id="paint10_radial_501_29474" cx="0" cy="0" r="1" gradientUnits="userSpaceOnUse" gradientTransform="translate(35.1402 81.6458) scale(24.3867 24.4692)">
<stop offset="0.5744" stop-opacity="0"/>
<stop offset="0.7977" stop-opacity="0.6512"/>
<stop offset="1" stop-opacity="0.95"/>
</radialGradient>
<radialGradient id="paint11_radial_501_29474" cx="0" cy="0" r="1" gradientUnits="userSpaceOnUse" gradientTransform="translate(67.4399 82.2346) scale(1.6836 1.6893)">
<stop offset="0.5744" stop-opacity="0"/>
<stop offset="0.7977" stop-opacity="0.6512"/>
<stop offset="1" stop-opacity="0.95"/>
</radialGradient>
<radialGradient id="paint12_radial_501_29474" cx="0" cy="0" r="1" gradientUnits="userSpaceOnUse" gradientTransform="translate(158.882 81.6315) scale(28.7042 28.8013)">
<stop offset="0.5744" stop-opacity="0"/>
<stop offset="0.7977" stop-opacity="0.6512"/>
<stop offset="1" stop-opacity="0.95"/>
</radialGradient>
<radialGradient id="paint13_radial_501_29474" cx="0" cy="0" r="1" gradientUnits="userSpaceOnUse" gradientTransform="translate(158.873 81.6282) scale(28.7476 28.8449)">
<stop offset="0.5744" stop-opacity="0"/>
<stop offset="0.7977" stop-opacity="0.6512"/>
<stop offset="1" stop-opacity="0.95"/>
</radialGradient>
<radialGradient id="paint14_radial_501_29474" cx="0" cy="0" r="1" gradientUnits="userSpaceOnUse" gradientTransform="translate(67.4603 123.148) scale(15.186 15.2374)">
<stop offset="0.5744" stop-opacity="0"/>
<stop offset="0.7977" stop-opacity="0.6512"/>
<stop offset="1" stop-opacity="0.95"/>
</radialGradient>
<radialGradient id="paint15_radial_501_29474" cx="0" cy="0" r="1" gradientUnits="userSpaceOnUse" gradientTransform="translate(67.453 123.14) scale(15.3447 15.3966)">
<stop offset="0.5744" stop-opacity="0"/>
<stop offset="0.7977" stop-opacity="0.6512"/>
<stop offset="1" stop-opacity="0.95"/>
</radialGradient>
<radialGradient id="paint16_radial_501_29474" cx="0" cy="0" r="1" gradientUnits="userSpaceOnUse" gradientTransform="translate(117.794 128.749) scale(15.5341 15.5866)">
<stop offset="0.5744" stop-opacity="0"/>
<stop offset="0.7977" stop-opacity="0.6512"/>
<stop offset="1" stop-opacity="0.95"/>
</radialGradient>
<radialGradient id="paint17_radial_501_29474" cx="0" cy="0" r="1" gradientUnits="userSpaceOnUse" gradientTransform="translate(117.79 128.755) scale(15.6733 15.7263)">
<stop offset="0.5744" stop-opacity="0"/>
<stop offset="0.7977" stop-opacity="0.6512"/>
<stop offset="1" stop-opacity="0.95"/>
</radialGradient>
<radialGradient id="paint18_radial_501_29474" cx="0" cy="0" r="1" gradientUnits="userSpaceOnUse" gradientTransform="translate(90.8736 150.671) scale(30.3206 30.4231)">
<stop offset="0.5744" stop-opacity="0"/>
<stop offset="0.7977" stop-opacity="0.6512"/>
<stop offset="1" stop-opacity="0.95"/>
</radialGradient>
<radialGradient id="paint19_radial_501_29474" cx="0" cy="0" r="1" gradientUnits="userSpaceOnUse" gradientTransform="translate(90.8676 150.655) scale(30.4055 30.5083)">
<stop offset="0.5744" stop-opacity="0"/>
<stop offset="0.7977" stop-opacity="0.6512"/>
<stop offset="1" stop-opacity="0.95"/>
</radialGradient>
<radialGradient id="paint20_radial_501_29474" cx="0" cy="0" r="1" gradientUnits="userSpaceOnUse" gradientTransform="translate(92.9909 85.258) scale(19.1805 19.2454)">
<stop offset="0.5744" stop-opacity="0"/>
<stop offset="0.7977" stop-opacity="0.6512"/>
<stop offset="1" stop-opacity="0.95"/>
</radialGradient>
<radialGradient id="paint21_radial_501_29474" cx="0" cy="0" r="1" gradientUnits="userSpaceOnUse" gradientTransform="translate(92.9909 85.258) scale(19.8055 19.8725)">
<stop offset="0.5744" stop-opacity="0"/>
<stop offset="0.7977" stop-opacity="0.6512"/>
<stop offset="1" stop-opacity="0.95"/>
</radialGradient>
<radialGradient id="paint22_radial_501_29474" cx="0" cy="0" r="1" gradientUnits="userSpaceOnUse" gradientTransform="translate(59.2419 100.426) scale(10.1124 10.1467)">
<stop offset="0.5744" stop-opacity="0"/>
<stop offset="0.7977" stop-opacity="0.6512"/>
<stop offset="1" stop-opacity="0.95"/>
</radialGradient>
<radialGradient id="paint23_radial_501_29474" cx="0" cy="0" r="1" gradientUnits="userSpaceOnUse" gradientTransform="translate(59.2581 100.415) scale(10.2513 10.286)">
<stop offset="0.5744" stop-opacity="0"/>
<stop offset="0.7977" stop-opacity="0.6512"/>
<stop offset="1" stop-opacity="0.95"/>
</radialGradient>
<radialGradient id="paint24_radial_501_29474" cx="0" cy="0" r="1" gradientUnits="userSpaceOnUse" gradientTransform="translate(123.912 64.055) scale(8.32436 8.35253)">
<stop offset="0.5744" stop-opacity="0"/>
<stop offset="0.7977" stop-opacity="0.6512"/>
<stop offset="1" stop-opacity="0.95"/>
</radialGradient>
<radialGradient id="paint25_radial_501_29474" cx="0" cy="0" r="1" gradientUnits="userSpaceOnUse" gradientTransform="translate(123.913 64.0832) scale(8.45544 8.48404)">
<stop offset="0.5744" stop-opacity="0"/>
<stop offset="0.7977" stop-opacity="0.6512"/>
<stop offset="1" stop-opacity="0.95"/>
</radialGradient>
<radialGradient id="paint26_radial_501_29474" cx="0" cy="0" r="1" gradientUnits="userSpaceOnUse" gradientTransform="translate(59.0727 66.0126) scale(9.17815 9.2092)">
<stop offset="0.5744" stop-opacity="0"/>
<stop offset="0.7977" stop-opacity="0.6512"/>
<stop offset="1" stop-opacity="0.95"/>
</radialGradient>
<radialGradient id="paint27_radial_501_29474" cx="0" cy="0" r="1" gradientUnits="userSpaceOnUse" gradientTransform="translate(59.0597 65.9201) scale(9.35456 9.38622)">
<stop offset="0.5744" stop-opacity="0"/>
<stop offset="0.7977" stop-opacity="0.6512"/>
<stop offset="1" stop-opacity="0.95"/>
</radialGradient>
<radialGradient id="paint28_radial_501_29474" cx="0" cy="0" r="1" gradientUnits="userSpaceOnUse" gradientTransform="translate(128.355 105.755) scale(10.8023 10.8388)">
<stop offset="0.5744" stop-opacity="0"/>
<stop offset="0.7977" stop-opacity="0.6512"/>
<stop offset="1" stop-opacity="0.95"/>
</radialGradient>
<radialGradient id="paint29_radial_501_29474" cx="0" cy="0" r="1" gradientUnits="userSpaceOnUse" gradientTransform="translate(128.452 105.877) scale(11.0523 11.0897)">
<stop offset="0.5744" stop-opacity="0"/>
<stop offset="0.7977" stop-opacity="0.6512"/>
<stop offset="1" stop-opacity="0.95"/>
</radialGradient>
</defs>
</svg>
