<svg width="200" height="200" viewBox="0 0 200 200" fill="none" xmlns="http://www.w3.org/2000/svg">
<path d="M60.8658 72.1707C50.7426 71.3213 40.3779 71.8857 30.6253 74.9551C22.2061 77.607 14.3231 82.1967 8.16664 88.6983C4.84557 92.2054 2.06632 96.248 0.0759226 100.697C-0.137434 101.175 0.109609 101.785 0.682304 101.779C9.61803 101.716 17.3382 107.27 24.2442 112.473C31.1895 117.708 38.1264 123.069 44.0583 129.519C47.3598 133.11 50.299 137.031 52.6516 141.345C52.9267 141.846 53.5752 141.771 53.8643 141.345C60.3998 131.722 70.2844 124.621 81.2667 121.411C84.366 120.504 87.541 119.911 90.7526 119.652C91.2074 119.614 91.5499 119.222 91.4292 118.742C87.8864 104.434 80.489 91.1918 70.3237 80.7484C67.4322 77.7769 64.3132 75.0472 61.0118 72.5652C61.0595 72.9424 61.1072 73.3196 61.155 73.6968C66.3401 69.1992 71.6123 64.6469 77.7547 61.5718C84.4895 58.1971 91.8559 57.5838 99.2448 57.4629C103.094 57.3996 106.942 57.4715 110.786 57.676C112.627 57.7739 114.517 57.8113 116.341 58.0733C117.186 58.1943 117.63 58.606 117.919 59.418C118.208 60.2328 118.413 61.0823 118.68 61.9058C120.752 68.3037 123.843 74.3101 127.503 79.8932C131.689 86.2825 136.588 92.1507 141.708 97.7683C141.812 97.3681 141.916 96.965 142.017 96.5647C134.64 97.8057 127.349 99.5852 120.221 101.9C113.357 104.129 106.519 106.769 100.079 110.092C96.7266 111.823 93.5066 113.927 90.9884 116.815C90.3877 117.504 91.3758 118.526 91.9822 117.835C94.2141 115.275 96.9961 113.369 99.9438 111.782C103.009 110.129 106.215 108.733 109.424 107.406C116.195 104.604 123.158 102.298 130.246 100.504C134.261 99.4873 138.312 98.6408 142.393 97.9555C142.944 97.8633 143.031 97.1118 142.702 96.7519C133.404 86.5532 124.573 75.266 120.151 61.8712C119.887 61.0679 119.648 60.2588 119.404 59.4497C119.185 58.7241 118.921 57.9841 118.374 57.4456C117.24 56.3313 115.146 56.5213 113.703 56.4177C109.725 56.1326 105.735 55.9944 101.749 56.0002C94.1832 56.0088 86.3872 56.2651 79.3071 59.2855C72.1035 62.3578 66.0622 67.5637 60.164 72.6804C59.7878 73.0086 59.9731 73.5615 60.3072 73.812C71.7189 82.3896 80.7557 94.2094 86.2862 107.558C87.8386 111.307 89.1019 115.18 90.0789 119.127C90.3035 118.825 90.5308 118.52 90.7554 118.218C78.9759 119.171 67.6848 124.449 59.1533 132.819C56.7362 135.189 54.5662 137.812 52.6544 140.625C53.0586 140.625 53.4629 140.625 53.8671 140.625C49.5635 132.738 43.3425 126.211 36.6189 120.458C33.2417 117.57 29.7297 114.849 26.1953 112.171C22.5626 109.421 18.9075 106.666 14.9267 104.46C10.536 102.027 5.72988 100.311 0.690726 100.345C0.892854 100.705 1.09498 101.068 1.29711 101.428C4.781 93.6393 10.668 87.2327 17.6666 82.6286C25.5552 77.44 34.724 74.6642 44.0022 73.6881C49.6084 73.1007 55.2624 73.1411 60.8742 73.6104C61.7642 73.6853 61.7613 72.2456 60.8658 72.1707Z" fill="black"/>
<path d="M53.5112 141.679C55.1703 141.843 56.748 142.473 58.1124 143.444C58.4043 143.651 58.9209 143.519 59.0725 143.185C61.3885 138.123 65.9869 134.837 70.5994 132.168C73.3281 130.59 76.1298 129.142 78.9034 127.653C82.0112 125.983 85.1217 124.316 88.2294 122.646C89.7931 121.805 91.4859 121.071 92.8587 119.914C93.9872 118.96 94.967 117.46 94.3634 115.92C94.223 115.56 93.8946 115.307 93.4987 115.416C93.1647 115.511 92.8671 115.94 93.0075 116.303C93.4398 117.406 92.5555 118.364 91.7105 119.018C91.1546 119.45 90.5426 119.778 89.925 120.109C89.1418 120.53 88.3613 120.95 87.5781 121.37C84.5097 123.017 81.4441 124.664 78.3757 126.309C75.6357 127.78 72.8705 129.211 70.1698 130.76C67.7948 132.122 65.4788 133.608 63.3845 135.393C61.105 137.337 59.123 139.689 57.8569 142.456C58.1769 142.37 58.497 142.283 58.817 142.197C57.2393 141.074 55.4117 140.423 53.5055 140.233C53.1266 140.196 52.8037 140.59 52.8037 140.953C52.8093 141.379 53.1322 141.641 53.5112 141.679Z" fill="black"/>
<path d="M92.5575 120.066C98.0543 116.219 103.916 112.928 110.036 110.248C116.133 107.578 122.5 105.531 128.988 104.123C132.641 103.331 136.335 102.747 140.052 102.378C140.361 102.347 140.644 102.177 140.728 101.848C141.048 100.605 141.152 99.3088 141.015 98.0275C140.973 97.6417 140.723 97.3077 140.313 97.3077C139.965 97.3077 139.569 97.6388 139.611 98.0275C139.737 99.1879 139.664 100.337 139.375 101.465C139.6 101.29 139.827 101.114 140.052 100.936C133.326 101.604 126.667 102.94 120.196 104.944C113.77 106.933 107.526 109.562 101.594 112.784C98.2395 114.607 94.9859 116.622 91.8501 118.817C91.5385 119.035 91.3981 119.45 91.5974 119.801C91.7799 120.124 92.2431 120.285 92.5575 120.066Z" fill="black"/>
<path d="M56.4191 140.921C59.8806 137.38 63.7687 134.325 67.8758 131.615C72.0279 128.877 76.382 126.481 80.7952 124.221C83.2825 122.946 85.7922 121.71 88.302 120.481C88.6445 120.314 88.7343 119.813 88.5546 119.496C88.3497 119.136 87.937 119.07 87.5945 119.237C83.1028 121.443 78.6083 123.657 74.2344 126.101C69.9027 128.523 65.6833 131.175 61.7643 134.253C59.5409 136.001 57.4129 137.872 55.4281 139.902C54.7853 140.556 55.7763 141.575 56.4191 140.921Z" fill="black"/>
<path d="M24.7775 101.952C26.4928 102.678 28.1379 103.587 29.6903 104.63C29.6426 104.253 29.5949 103.875 29.5471 103.498C29.2383 103.852 28.8172 103.896 28.4579 103.668C28.5056 104.045 28.5533 104.422 28.6011 104.8C28.952 104.468 29.3001 104.137 29.651 103.803C29.9963 103.475 30.4427 103.15 30.6869 102.729C31.0013 102.182 30.7206 101.655 30.4174 101.192C30.1395 100.769 29.8644 100.345 29.5864 99.922C29.3843 100.282 29.1822 100.645 28.9801 101.005C29.491 101.028 29.9458 101.229 30.3528 101.549C30.6532 101.785 31.1389 101.598 31.3129 101.29C31.5235 100.918 31.3635 100.541 31.0603 100.305C30.4595 99.8356 29.7268 99.5966 28.9772 99.5649C28.4635 99.5419 28.0789 100.201 28.3709 100.648C28.5954 100.993 28.8228 101.336 29.0474 101.681C29.1485 101.837 29.2552 101.992 29.3562 102.151C29.3843 102.191 29.4096 102.234 29.432 102.277C29.4938 102.407 29.4994 102.326 29.4489 102.035C29.432 102.035 29.3675 102.102 29.3394 102.128C28.7639 102.678 28.18 103.225 27.6017 103.775C27.2592 104.097 27.3743 104.67 27.7448 104.906C28.6179 105.465 29.8419 105.301 30.5353 104.512C30.8469 104.155 30.7852 103.645 30.3921 103.38C28.733 102.266 26.9784 101.33 25.1452 100.555C24.7943 100.406 24.3732 100.717 24.2806 101.059C24.1767 101.48 24.4266 101.802 24.7775 101.952Z" fill="black"/>
<path d="M32.3211 97.7193C32.6945 97.8719 33.065 98.0245 33.4384 98.1771C33.5311 98.2059 33.6237 98.2117 33.7191 98.1886C33.8118 98.1829 33.8988 98.1569 33.9802 98.1022C34.1262 98.0158 34.2638 97.8431 34.3031 97.6732C34.3452 97.4889 34.3339 97.2816 34.2329 97.1175C34.1964 97.0685 34.1599 97.0196 34.1234 96.9706C34.0364 96.8814 33.9325 96.8209 33.8146 96.7864C33.4412 96.6337 33.0706 96.4811 32.6973 96.3285C32.6046 96.2997 32.512 96.294 32.4165 96.317C32.3239 96.3228 32.2369 96.3487 32.1555 96.4034C32.0095 96.4898 31.8719 96.6625 31.8326 96.8324C31.7905 97.0167 31.8017 97.224 31.9028 97.3882C31.9393 97.4371 31.9758 97.486 32.0123 97.535C32.0965 97.6214 32.2004 97.6847 32.3211 97.7193Z" fill="black"/>
<path d="M23.7699 94.7651C23.7952 94.6758 23.8232 94.5865 23.8541 94.5002C23.9018 94.362 23.8148 94.5578 23.8906 94.4167C23.9692 94.2727 24.0422 94.1345 24.1349 93.9992C24.2163 93.8811 24.0899 94.0423 24.1938 93.9272C24.2387 93.8753 24.2836 93.8235 24.3314 93.7746C24.3875 93.717 24.4465 93.6623 24.5054 93.6076C24.5307 93.5845 24.556 93.5615 24.584 93.5413C24.5307 93.5816 24.5391 93.5788 24.6037 93.5269C24.7272 93.4434 24.8507 93.3628 24.9827 93.2937C25.0135 93.2764 25.0444 93.262 25.0753 93.2476C25.0107 93.2736 25.0164 93.2707 25.095 93.239C25.1595 93.216 25.2213 93.1929 25.2887 93.1728C25.3645 93.1497 25.4403 93.1296 25.5189 93.1152C25.5526 93.1065 25.5862 93.1008 25.6199 93.095C25.5441 93.1037 25.5469 93.1037 25.6312 93.0922C25.8164 93.072 26.0045 93.0518 26.1898 93.0231C27.0152 92.8992 27.63 92.3406 27.6693 91.4538C27.6833 91.1371 27.5935 90.8261 27.6019 90.5122C27.6019 90.4719 27.6047 90.4316 27.6103 90.3913C27.5991 90.4719 27.5991 90.4834 27.6103 90.4316C27.6159 90.4028 27.6244 90.374 27.6328 90.3452C27.6609 90.2675 27.658 90.2704 27.6244 90.3539C27.6609 90.2963 27.6609 90.2876 27.6272 90.3308C27.5907 90.3712 27.5963 90.3683 27.6384 90.3193C27.5626 90.374 27.557 90.3798 27.6216 90.3395C27.5345 90.3769 27.5289 90.3855 27.6075 90.3654C27.9809 90.2963 28.1914 89.8298 28.0988 89.4785C27.9921 89.0754 27.6103 88.9056 27.2341 88.9747C26.406 89.1273 26.1337 90.1005 26.2179 90.8434C26.2375 91.0219 26.2488 91.2004 26.2656 91.3818C26.26 91.4711 26.2628 91.4826 26.274 91.4106C26.2656 91.4596 26.2544 91.5056 26.2403 91.5517C26.2488 91.5171 26.3246 91.4106 26.2432 91.5287C26.3077 91.4855 26.3049 91.4883 26.2375 91.5315C26.1645 91.569 26.1646 91.5718 26.2347 91.5402C26.173 91.5632 26.1112 91.5805 26.0466 91.5949C26.0214 91.6006 25.7575 91.641 25.9007 91.6237C25.8221 91.6323 25.7435 91.6409 25.6648 91.6496C24.8844 91.7388 24.2022 92.0066 23.593 92.5192C23.0288 92.9943 22.6161 93.6565 22.4196 94.3792C22.3185 94.7536 22.5459 95.1624 22.9109 95.2661C23.2758 95.3697 23.6688 95.1394 23.7699 94.7651Z" fill="black"/>
<path d="M31.6723 90.4777C31.6863 89.7952 31.4926 89.1186 31.0911 88.5686C30.9031 88.3095 30.6223 88.1454 30.2995 88.2375C30.03 88.3124 29.7436 88.6233 29.7829 88.9314C29.8643 89.5476 29.9823 90.1408 30.2096 90.7195C30.4146 91.2493 30.6392 91.8223 31.1698 92.0843C31.734 92.3608 32.2927 92.0959 32.7503 91.7388C33.1854 91.3991 33.6065 91.042 34.008 90.6619C34.7996 89.9162 35.5155 89.0956 36.1696 88.2174C36.4784 87.8027 36.7423 87.3564 37.0455 86.9418C37.1381 86.8151 37.2813 86.7287 37.3711 86.6164C37.3627 86.6164 37.3571 86.6164 37.3515 86.6107C37.3206 86.5934 37.3459 86.602 37.4301 86.6337C37.4301 86.6279 37.329 86.4725 37.3459 86.3918C37.2055 87.0368 38.0365 87.6818 38.5193 87.0915C38.9629 86.5502 39.4036 86.0118 39.8472 85.4704C40.0549 85.217 40.2599 84.9665 40.4676 84.7132C40.5855 84.5692 40.7006 84.4195 40.8213 84.2812C40.9449 84.1402 40.9224 84.1258 41.0459 84.1056C40.9224 84.1056 40.7961 84.1056 40.6726 84.1056C40.7147 84.1114 40.6529 84.0624 40.6529 84.0739C40.6557 84.0855 40.7231 84.1776 40.7456 84.2093C40.8691 84.3791 40.9954 84.5289 41.1807 84.6297C41.5063 84.8111 41.9022 84.8139 42.225 84.6268C42.4608 84.4886 42.6349 84.2813 42.8089 84.0711C42.8903 83.9732 42.983 83.8839 43.0672 83.786C43.0139 83.8465 43.1234 83.7802 43.0756 83.7774C43.0784 83.7774 43.0111 83.786 43.0448 83.7918C43.2132 83.8148 43.3704 83.9357 43.5332 83.9847C43.755 84.0538 43.9824 84.0682 44.2098 84.0279C44.586 83.9645 44.906 83.7486 45.1783 83.4808C45.8044 82.8646 46.3349 82.1131 46.8964 81.4364C46.5651 81.4364 46.2339 81.4364 45.9026 81.4364C46.6943 82.1851 47.6319 82.8963 48.7717 82.6055C48.9935 82.5479 49.204 82.4471 49.3893 82.3089C49.5465 82.1908 49.656 82.0757 49.7711 81.9173C49.816 81.8539 49.9592 81.7129 49.9564 81.6409C49.9648 81.6236 49.9788 81.6092 49.9957 81.6034C49.9592 81.615 49.9227 81.6265 49.8862 81.638C49.8385 81.5746 50.0406 81.7244 50.0322 81.7186C50.181 81.8251 50.3045 81.9864 50.4056 82.139C50.72 82.6112 51.3011 82.5882 51.6183 82.139C52.09 81.471 52.424 80.7108 52.6121 79.9104C52.8255 79.0091 51.4723 78.6262 51.259 79.5274C51.0962 80.2185 50.8126 80.8346 50.4056 81.4105C50.8098 81.4105 51.2141 81.4105 51.6183 81.4105C51.3095 80.9469 50.9305 80.515 50.4112 80.3048C49.8385 80.0745 49.2405 80.253 48.8643 80.7511C48.6285 81.0621 48.5415 81.2896 48.1148 81.2291C47.6319 81.16 47.2361 80.7396 46.8964 80.42C46.6353 80.1724 46.1581 80.1148 45.9026 80.42C45.4984 80.9037 45.0969 81.3904 44.6927 81.8741C44.527 82.0728 44.367 82.283 44.1817 82.4644C44.1312 82.5133 44.075 82.5565 44.0245 82.5997C43.9178 82.6227 43.8982 82.6314 43.9656 82.6256C44.0357 82.6285 44.0133 82.617 43.901 82.5968C43.4462 82.3434 42.8847 82.2455 42.4159 82.5104C42.0818 82.6976 41.8685 83.0028 41.6214 83.2879C41.5906 83.3224 41.5569 83.357 41.5232 83.3886C41.5372 83.3771 41.5513 83.3656 41.5653 83.357C41.4558 83.4174 41.5035 83.4088 41.7085 83.3339C41.7786 83.3339 41.8432 83.357 41.8994 83.403C41.9134 83.3858 41.6607 83.069 41.5906 83.0028C41.0684 82.496 40.3553 82.6976 39.8977 83.1785C39.4907 83.6075 39.137 84.1056 38.7608 84.5634C38.3481 85.0673 37.9354 85.5712 37.5227 86.078C37.913 86.3112 38.306 86.5444 38.6962 86.7777C38.9685 85.5223 37.5227 84.8053 36.5626 85.4388C36.1191 85.7296 35.8468 86.1989 35.5576 86.6366C35.2628 87.0858 34.9456 87.5205 34.6059 87.9352C33.9041 88.7961 33.1237 89.5908 32.2758 90.302C32.1102 90.4402 31.9446 90.5928 31.7621 90.7051C31.4701 90.8836 31.8463 90.7051 31.7761 90.7944C31.7789 90.7915 31.6667 90.5871 31.6695 90.5928C31.4196 90.0861 31.2568 89.4987 31.181 88.9372C30.7458 89.0581 30.3079 89.1791 29.8728 89.3C30.1367 89.6628 30.2686 90.0285 30.2602 90.4834C30.2489 91.4048 31.6526 91.4048 31.6723 90.4777Z" fill="black"/>
<path d="M21.2376 103.216C22.3634 103.708 23.5845 103.688 24.6626 103.066C24.3425 102.98 24.0225 102.894 23.7025 102.807C23.7867 102.971 23.8147 103.13 23.8176 103.311C23.8204 104.042 24.7552 104.267 25.1258 103.674C25.5609 102.98 25.6648 102.162 25.7265 101.356C25.7743 100.728 25.7546 99.9768 26.0831 99.4297C26.4677 98.7847 27.2762 98.7041 27.9471 98.6811C28.9494 98.6465 29.9347 98.7732 30.9004 99.041C31.5742 99.2282 32.0823 98.3471 31.5826 97.8374C31.403 97.6531 31.2233 97.4689 31.0436 97.2875C30.8162 97.6877 30.5888 98.0908 30.3614 98.491C31.7848 98.7012 33.2165 98.3643 34.3675 97.4573C34.8953 97.0398 35.2799 96.5071 35.729 96.0061C35.9115 95.8017 36.1024 95.5886 36.3326 95.4447C36.5628 95.2978 36.6442 95.3036 36.8716 95.3986C37.2057 95.5397 37.6689 95.2431 37.7363 94.8947C37.8514 94.2958 37.9665 93.694 38.0816 93.0951C37.6549 93.1527 37.2254 93.2103 36.7986 93.2678C37.6998 94.7133 39.5976 95.0617 41.0574 94.339C41.8434 93.9503 42.3431 93.2535 42.607 92.4156C42.7446 91.9779 42.7895 91.4251 43.0702 91.0507C43.1432 90.9557 43.2639 90.8636 43.3706 90.8175C43.3987 90.806 43.5503 90.783 43.5222 90.7801C43.4492 90.7772 43.6064 90.8319 43.5531 90.783C44.0191 91.2091 44.7125 90.9068 44.7518 90.2733C44.7827 89.7723 44.8108 89.2684 44.8416 88.7674C44.443 88.9373 44.0415 89.1072 43.6429 89.277C44.2156 89.9191 45.041 89.5967 45.5687 89.0813C45.6866 88.9661 45.7821 88.8365 45.886 88.7098C45.9646 88.609 45.9337 88.6292 46.0179 88.5745C46.2088 88.4507 45.9786 88.5889 46.0937 88.5399C46.1162 88.5313 46.1414 88.5255 46.1639 88.5198C46.2144 88.5083 46.2116 88.5083 46.1499 88.5169C46.192 88.4593 46.2341 88.5716 46.147 88.5054C46.046 88.4737 45.9842 88.3988 45.9646 88.275C45.8832 88.0476 45.8439 88.0015 45.8439 88.1426C45.8158 88.5313 46.1863 88.8624 46.5457 88.8624C46.9499 88.8624 47.2194 88.5313 47.2475 88.1426C47.3149 87.2471 46.3772 86.9275 45.681 87.1607C45.2936 87.2903 45.0353 87.5206 44.7799 87.8345C44.6957 87.9381 44.603 88.0504 44.4991 88.1339C44.4739 88.1541 44.3391 88.2232 44.3335 88.2376C44.3672 88.1454 44.589 88.2117 44.6311 88.2606C44.196 87.7711 43.4689 88.1829 43.4324 88.7703C43.4015 89.2713 43.3734 89.7752 43.3425 90.2762C43.7412 90.1063 44.1426 89.9364 44.5413 89.7665C43.772 89.064 42.6463 89.3289 42.0175 90.1034C41.675 90.5238 41.515 91.0507 41.3746 91.5719C41.2735 91.9433 41.1416 92.4213 40.9394 92.6517C40.5408 93.1066 40.0046 93.2822 39.4067 93.2678C39.1961 93.2621 38.8143 93.1815 38.6346 93.0893C38.3427 92.9425 38.1602 92.7841 38.0086 92.5394C37.7054 92.0556 36.8492 92.07 36.7257 92.7121C36.6106 93.311 36.4955 93.9128 36.3804 94.5117C36.6695 94.3447 36.9559 94.1777 37.245 94.0078C35.847 93.4205 34.8251 94.9177 34.0278 95.8276C33.2165 96.7519 31.9476 97.2788 30.7348 97.1003C30.4204 97.0542 30.1144 97.132 29.9431 97.4314C29.7859 97.7078 29.8337 98.0793 30.0526 98.3039C30.2323 98.4882 30.412 98.6724 30.5916 98.8538C30.819 98.4536 31.0464 98.0505 31.2738 97.6503C30.1958 97.3508 29.0673 97.2011 27.9471 97.2385C26.9561 97.2731 25.8894 97.466 25.1903 98.2549C24.5924 98.9316 24.4408 99.8242 24.3678 100.702C24.306 101.463 24.3257 102.277 23.9102 102.943C24.3453 103.063 24.7833 103.184 25.2184 103.305C25.2156 102.865 25.1117 102.465 24.9124 102.073C24.7356 101.725 24.2695 101.632 23.9523 101.814C23.3515 102.159 22.5879 102.246 21.9423 101.964C21.5942 101.811 21.1899 101.857 20.9822 102.223C20.8137 102.534 20.8867 103.061 21.2376 103.216Z" fill="black"/>
<path d="M26.8747 107.204C28.2784 107.812 29.8561 107.596 31.0997 106.692C32.3097 105.81 33.1743 104.4 33.0789 102.836C32.6438 102.957 32.2058 103.078 31.7707 103.199C32.436 104.204 33.7105 104.437 34.7773 104.002C35.3612 103.763 35.8553 103.349 36.2764 102.876C36.4842 102.646 36.6751 102.398 36.8688 102.157C36.9642 102.036 37.0597 101.912 37.1607 101.791C37.2085 101.73 37.4639 101.517 37.4724 101.451C37.4696 101.468 37.5622 101.353 37.4611 101.419C37.3601 101.486 37.4415 101.322 37.4387 101.419C37.4387 101.434 37.5847 101.572 37.6155 101.607C37.8064 101.831 37.9805 102.056 38.2247 102.226C38.7609 102.597 39.4178 102.557 39.9877 102.298C40.5323 102.047 40.9984 101.609 41.3774 101.14C41.863 100.538 42.3318 99.9222 42.8063 99.3146C43.8843 97.9383 44.9595 96.5591 46.0375 95.1827C45.8101 95.2432 45.5827 95.3065 45.3553 95.367C46.1723 95.4822 46.8011 96.1819 47.5254 96.608C48.3929 97.1177 49.4428 97.1407 50.1053 96.2682C50.4422 95.8248 50.5489 95.2864 50.7426 94.7739C50.7791 94.6788 50.8184 94.5867 50.8689 94.4974C50.9307 94.3938 50.8577 94.4888 50.9391 94.3938C51.0205 94.3045 51.189 94.1922 51.2479 94.1692C51.5595 94.0483 51.8543 94.054 52.1463 94.1462C52.4551 94.2441 52.6235 94.3995 52.7695 94.7393C52.9604 95.1942 53.5696 95.1568 53.8728 94.8862C54.5353 94.2872 55.1978 93.6912 55.8604 93.0923C56.1664 92.8159 56.4667 92.4819 56.8036 92.2429C56.7082 92.312 56.885 92.2141 56.8317 92.2342C56.8036 92.2458 56.9636 92.1968 56.9665 92.1939C56.8907 92.2285 56.9917 92.1997 56.9973 92.1939C56.93 92.1767 56.9215 92.1738 56.9693 92.1882C57.2051 92.2573 57.1068 92.0644 56.6717 91.6123C56.6183 91.9953 56.7643 92.3869 57.163 92.4992C57.4914 92.5913 57.9715 92.384 58.0276 91.9953C58.2185 90.6276 56.6745 90.5124 55.8688 91.1804C54.8413 92.0298 53.8756 92.9743 52.8818 93.8697C53.2495 93.9187 53.6173 93.9676 53.9851 94.0166C53.2748 92.3293 50.7426 92.2083 49.7432 93.6451C49.4709 94.0367 49.3558 94.5176 49.2042 94.9639C49.1565 95.1079 49.1003 95.2806 49.0021 95.3987C48.9515 95.4591 48.9291 95.4707 48.8701 95.511C48.814 95.5484 48.8224 95.5628 48.7045 95.5628C48.8645 95.5599 48.5585 95.5369 48.6511 95.5513C48.7045 95.5599 48.5417 95.5167 48.508 95.5081C48.3844 95.4678 48.4602 95.4937 48.3704 95.4476C48.2778 95.3987 48.1851 95.344 48.0953 95.2864C47.7556 95.0704 47.4384 94.8142 47.1043 94.5896C46.7534 94.3535 46.3688 94.1375 45.9617 94.031C45.6698 93.9561 45.3694 93.9187 45.1139 94.1145C44.85 94.3189 44.6367 94.6875 44.4317 94.9524C43.6176 95.9947 42.8007 97.037 41.9865 98.0794C41.5795 98.6005 41.1724 99.1217 40.7626 99.6429C40.4453 100.049 40.1337 100.495 39.7182 100.806C39.4684 100.993 39.1736 101.18 38.9378 100.985C38.556 100.671 38.3763 100.219 37.8682 100.057C36.5712 99.6429 35.8048 101.362 35.0468 102.116C34.7184 102.442 34.3253 102.718 33.8902 102.773C33.5449 102.816 33.1603 102.747 32.9834 102.479C32.6213 101.932 31.6275 102.079 31.6752 102.842C31.7987 104.86 29.4518 106.775 27.585 105.966C27.2368 105.816 26.8326 105.859 26.6248 106.225C26.4508 106.522 26.5238 107.051 26.8747 107.204Z" fill="black"/>
<path d="M36.4027 111.054C36.7676 111.958 37.52 112.557 38.466 112.712C39.4963 112.882 40.4817 112.554 41.3239 111.943C42.2615 111.261 43.0588 110.38 43.8814 109.562C44.3109 109.136 44.7404 108.707 45.1727 108.281C45.4619 107.993 45.8297 107.515 46.2648 107.501C46.742 107.486 47.2109 106.879 46.8712 106.418C46.4304 105.819 46.9386 105.039 47.4663 104.638C48.2805 104.019 49.249 103.68 49.9761 102.928C49.6925 102.966 49.409 103.003 49.1255 103.04C50.0772 103.619 51.2927 104.166 52.382 103.645C52.8536 103.42 53.1989 103 53.4207 102.525C53.6312 102.076 53.7519 101.569 54.1113 101.215C54.5155 100.815 55.0714 100.57 55.557 100.296C56.1213 99.9796 56.6828 99.6629 57.2471 99.3462C58.4542 98.6695 59.6614 97.99 60.8685 97.3133C61.6602 96.867 60.9527 95.6231 60.1611 96.0694C59.0353 96.7029 57.9068 97.3335 56.781 97.9669C55.7564 98.5428 54.6615 99.0582 53.693 99.7291C53.2494 100.037 52.8508 100.412 52.5953 100.901C52.3876 101.298 52.2865 101.785 52.0142 102.148C51.5005 102.833 50.3523 102.113 49.8329 101.797C49.5662 101.635 49.2013 101.684 48.9823 101.909C48.1654 102.752 46.947 103.038 46.1525 103.919C45.3973 104.756 44.9145 106.136 45.6584 107.146C45.8605 106.786 46.0627 106.424 46.2648 106.064C45.1812 106.095 44.4569 106.991 43.7326 107.708C42.9465 108.488 42.1745 109.283 41.3744 110.046C40.7961 110.596 40.0859 111.215 39.2914 111.319C38.7496 111.388 37.9719 111.209 37.7558 110.674C37.6098 110.314 37.2898 110.057 36.8911 110.17C36.5627 110.262 36.2567 110.691 36.4027 111.054Z" fill="black"/>
<path d="M77.8025 73.9472C78.0524 72.781 78.4454 71.6581 79.0041 70.6071C79.0462 70.5294 79.2511 70.2645 79.2427 70.1838C79.2314 70.1003 78.9283 70.1234 78.9704 70.2299C79.0041 70.3163 79.1865 70.4343 79.2539 70.5006C79.3241 70.5725 79.3943 70.6445 79.4644 70.7165C79.7985 71.062 80.141 71.4248 80.5593 71.6667C81.5812 72.257 82.6367 71.8423 83.3301 70.9526C83.6053 70.5985 83.8439 70.1176 84.2201 69.8642C84.3436 69.7807 84.425 69.7462 84.5261 69.7836C84.6749 69.8383 84.5766 69.8815 84.6075 69.7577C84.4418 70.4199 85.3009 71.0188 85.7809 70.4574C86.0785 70.109 86.3761 69.7634 86.6737 69.415C86.8084 69.2595 86.9404 69.1012 87.0751 68.9457C87.0948 68.9227 87.4569 68.557 87.4457 68.5224C87.0106 67.2382 87.2801 68.5138 87.2632 68.5368C87.266 68.5311 87.558 68.7614 87.4962 68.7154C87.6254 68.8104 87.7629 68.8824 87.9117 68.9371C88.2682 69.0724 88.6641 69.0666 89.029 68.9543C89.7477 68.7355 90.3204 68.1481 90.7639 67.5521C91.1373 67.0482 91.4911 66.3946 92.0946 66.1412C92.2631 66.0721 92.3641 66.0606 92.5157 66.1671C92.8863 66.4234 93.1081 66.7171 93.5881 66.766C94.4219 66.8553 95.1041 66.2017 95.7975 65.8273C96.4993 65.4501 97.2489 65.1766 98.0209 64.9981C98.7761 64.8224 99.52 64.7908 100.289 64.7764C100.744 64.7677 101.196 64.6871 101.575 64.4107C101.87 64.1947 102.106 63.8147 102.431 63.6534C103.049 63.3453 103.857 64.0853 104.281 64.4683C104.568 64.7245 104.994 64.7562 105.275 64.4683C105.53 64.2063 105.561 63.7081 105.275 63.449C104.66 62.8961 103.944 62.3347 103.116 62.1936C102.687 62.1187 102.268 62.1533 101.867 62.3404C101.485 62.519 101.224 62.827 100.918 63.1121C100.677 63.3367 100.435 63.3367 100.118 63.3396C99.6744 63.3396 99.2337 63.3597 98.7901 63.4144C97.9198 63.5238 97.0692 63.7225 96.2495 64.0508C95.8536 64.2091 95.4634 64.3848 95.0872 64.5892C94.7167 64.7879 94.3798 65.047 94.0092 65.2428C93.7144 65.3983 93.7088 65.3177 93.4562 65.1046C93.1137 64.8196 92.7179 64.6439 92.2687 64.6554C91.4798 64.6756 90.778 65.2371 90.2839 65.8245C89.8235 66.3715 89.5007 67.0683 88.8802 67.4542C88.65 67.5982 88.4956 67.6557 88.2795 67.5262C88.0858 67.4081 87.9454 67.2526 87.7264 67.1749C87.4878 67.0914 87.2351 67.0828 86.9937 67.1634C86.508 67.3217 86.1852 67.8141 85.8652 68.1884C85.5086 68.6059 85.1521 69.0234 84.7956 69.4409C85.1858 69.6742 85.5788 69.9074 85.969 70.1406C86.247 69.0234 85.124 68.128 84.0994 68.3669C83.6165 68.4792 83.1982 68.8161 82.8866 69.1991C82.5862 69.5648 82.3532 70.0197 81.991 70.3336C81.3875 70.8605 80.7923 70.0312 80.36 69.5907C80.0035 69.2221 79.602 68.7989 79.0602 68.7989C78.4089 68.7989 78.0748 69.3632 77.7997 69.8815C77.1849 71.0361 76.7301 72.28 76.455 73.5642C76.2585 74.4683 77.6116 74.8542 77.8025 73.9472Z" fill="black"/>
<path d="M83.4419 81.1139C84.2673 80.2731 85.0926 79.4352 85.918 78.5944C86.3335 78.1712 86.7489 77.745 87.1672 77.3246C87.4732 77.0194 87.7961 76.6969 88.1919 76.5155C88.4558 76.3946 88.7899 76.3428 89.065 76.4637C89.3373 76.5846 89.4496 76.9129 89.618 77.1893C89.8342 77.5492 90.0897 77.9005 90.4827 78.0646C90.9515 78.2604 91.4681 78.1136 91.8246 77.7537C92.1587 77.4197 92.4169 76.9906 92.7314 76.6336C93.0598 76.2593 93.4079 75.9051 93.7757 75.5711C94.5084 74.9031 95.3197 74.3301 96.1816 73.8521C96.277 73.8003 96.3725 73.7398 96.4735 73.6995C96.5269 73.6794 96.6307 73.6822 96.5914 73.6678C96.7515 73.7226 96.8946 73.9328 97.049 74.0191C97.5347 74.2956 98.0962 74.2149 98.5341 73.8838C98.8794 73.6218 99.118 73.3425 99.4689 73.1323C99.7693 72.9509 100.028 72.8415 100.348 72.7234C101.833 72.1792 103.761 71.8711 104.463 70.204C104.615 69.8469 104.567 69.4323 104.211 69.2192C103.913 69.0407 103.402 69.1184 103.25 69.4784C102.998 70.0773 102.616 70.3652 101.996 70.6416C101.44 70.8893 100.687 71.0822 100.058 71.3068C99.3286 71.5688 98.6324 71.8942 98.0512 72.424C97.9305 72.5334 97.8182 72.6572 97.6863 72.7522C97.7284 72.7234 97.7902 72.8357 97.6835 72.7263C97.6161 72.6572 97.5291 72.5996 97.4533 72.5391C96.962 72.1591 96.4005 72.1648 95.8503 72.4153C94.0564 73.2359 92.4226 74.6958 91.207 76.2564C91.1761 76.2938 90.8139 76.7113 90.8252 76.7373C90.8083 76.6998 90.9992 76.743 91.0245 76.7401C91.1143 76.7315 90.9684 76.7459 90.9936 76.7171C91.0077 76.7027 91.0413 76.766 90.9796 76.6854C90.8476 76.5127 90.6427 76.1124 90.4658 75.8648C89.8931 75.0557 88.8994 74.7793 87.9757 75.0672C86.8668 75.4099 86.0668 76.4148 85.2723 77.221C84.3318 78.1769 83.3886 79.1358 82.4481 80.0917C81.808 80.7511 82.799 81.7675 83.4419 81.1139Z" fill="black"/>
<path d="M97.5209 96.867C98.0374 95.6087 98.554 94.3504 99.0705 93.0921C98.6438 93.1497 98.2143 93.2073 97.7876 93.2649C98.1581 93.8724 98.568 94.5059 99.1884 94.8744C99.8145 95.2488 100.64 95.3265 101.277 94.9349C101.524 94.7852 101.704 94.5663 101.883 94.3418C101.956 94.2496 102.027 94.1604 102.105 94.074C102.251 93.9127 102.159 94.0653 102.091 94.0106C102.546 94.3706 103.043 94.7017 103.68 94.4915C104.278 94.2957 104.556 93.7371 105.036 93.3829C105.365 93.1411 105.828 93.1986 106.108 93.4866C106.327 93.7112 106.49 93.9588 106.771 94.1172C107.164 94.336 107.63 94.2928 108.012 94.0711C108.596 93.7313 109.076 93.0691 109.497 92.5479C110.538 91.2608 111.4 89.8384 112.04 88.298C111.636 88.298 111.232 88.298 110.828 88.298C111.181 89.1272 112.094 89.2309 112.869 89.2338C113.256 89.2366 113.568 89.2021 113.89 89.3317C113.803 89.2971 113.977 89.3806 113.994 89.3921C114.056 89.4382 114.109 89.5131 114.16 89.5735C114.337 89.7837 114.474 90.0054 114.685 90.1811C115.558 90.9038 116.726 90.4834 117.43 89.7261C117.767 89.3633 117.992 88.9228 118.225 88.488C118.421 88.1194 118.621 87.7192 118.977 87.4831C118.741 87.4831 118.506 87.4831 118.27 87.4831C118.385 87.5464 118.402 87.5637 118.433 87.6962C118.643 88.5974 119.999 88.2145 119.786 87.3132C119.676 86.8496 119.387 86.4638 118.977 86.2392C118.761 86.1212 118.483 86.0981 118.27 86.2392C117.506 86.746 117.164 87.5407 116.715 88.3152C116.538 88.6205 116.308 88.917 115.982 89.0639C115.698 89.1906 115.589 89.1157 115.384 88.8623C115.095 88.5053 114.851 88.1914 114.418 88.01C114.073 87.8632 113.7 87.8171 113.326 87.8027C113 87.7912 112.672 87.8142 112.349 87.7797C112.31 87.7768 112.358 87.7797 112.245 87.7595C112.212 87.7509 112.178 87.7422 112.144 87.7307C112.198 87.7595 112.203 87.7624 112.158 87.7394C112.13 87.725 112.102 87.7077 112.074 87.6904C112.122 87.7307 112.127 87.7336 112.094 87.6962C112.06 87.6616 112.063 87.6645 112.102 87.7077C112.077 87.6645 112.057 87.6213 112.038 87.5752C111.838 87.1059 111.024 87.1001 110.825 87.5752C110.319 88.7932 109.679 89.9478 108.907 91.0075C108.528 91.5286 108.107 92.0181 107.667 92.4846C107.571 92.5853 107.408 92.6948 107.338 92.8099C107.335 92.8157 107.276 92.8387 107.276 92.8387C107.288 92.8704 107.431 92.8272 107.428 92.8474C107.434 92.8186 107.215 92.6026 107.198 92.5825C107.083 92.4471 106.959 92.332 106.819 92.2254C106.316 91.8482 105.676 91.7331 105.07 91.8425C104.494 91.949 104.073 92.3147 103.677 92.7322C103.545 92.8704 103.36 93.0518 103.259 93.1209C103.166 93.1871 103.206 93.0921 103.251 93.1238C103.147 93.0547 103.046 92.9597 102.945 92.8819C102.414 92.4817 101.774 92.4874 101.263 92.9193C100.943 93.1929 100.718 93.8091 100.244 93.7544C99.6488 93.6881 99.2867 93 99.006 92.5364C98.6578 91.9663 97.9504 92.1534 97.723 92.7092C97.2065 93.9674 96.6899 95.2257 96.1734 96.484C96.0274 96.8439 96.3306 97.2758 96.6646 97.3709C97.0633 97.4831 97.3749 97.2269 97.5209 96.867Z" fill="black"/>
<path d="M45.3523 116.326C45.4309 115.597 45.6695 114.091 46.6998 114.561C47.2304 114.803 47.747 114.975 48.3281 114.788C48.8474 114.621 49.2854 114.247 49.6251 113.818C49.9535 113.403 50.1893 112.934 50.4981 112.505C50.7143 112.205 50.9726 111.915 51.3516 111.886C51.6548 111.863 51.9495 111.917 52.2527 111.877C52.584 111.834 52.8844 111.733 53.1904 111.595C53.7153 111.359 54.2151 111.051 54.7035 110.743C55.8966 109.988 57.0168 109.11 58.0499 108.134C57.6821 108.085 57.3143 108.036 56.9466 107.987C57.348 108.537 57.9741 108.75 58.6169 108.514C59.2261 108.292 59.5237 107.762 59.9055 107.27C60.568 106.418 61.5927 106.006 62.6398 106.09C63.0188 106.118 63.3417 105.738 63.3417 105.37C63.3417 104.955 63.0188 104.679 62.6398 104.65C61.618 104.569 60.554 104.872 59.7258 105.491C59.2879 105.819 58.9398 106.196 58.6226 106.645C58.5159 106.795 58.398 107.011 58.2408 107.112C58.0976 107.204 58.0471 107.103 58.1622 107.261C57.887 106.884 57.421 106.775 57.0589 107.115C56.1437 107.978 55.1611 108.753 54.1056 109.43C53.6087 109.749 53.0893 110.095 52.5447 110.322C51.972 110.561 51.3796 110.348 50.7957 110.524C49.6756 110.861 49.2798 111.955 48.6257 112.813C48.4291 113.069 48.1091 113.443 47.7638 113.438C47.5252 113.432 47.2613 113.236 47.0451 113.15C46.7251 113.02 46.391 112.98 46.0513 113.037C44.4933 113.297 44.1031 114.967 43.9543 116.323C43.9122 116.709 44.308 117.043 44.6561 117.043C45.066 117.046 45.3102 116.714 45.3523 116.326Z" fill="black"/>
<path d="M50.5236 122.643C51.0289 121.509 51.5398 120.366 52.208 119.32C52.8452 118.324 53.6622 117.489 54.5998 116.792C55.6076 116.044 56.6885 115.404 57.7496 114.742C58.3364 114.377 58.9231 114.008 59.507 113.642C59.8972 113.398 60.4952 112.899 60.8826 112.859C60.7872 112.871 60.8995 112.885 60.863 112.85C60.8938 112.879 61.023 113.026 60.9977 112.994C61.1212 113.161 61.2139 113.354 61.3178 113.533C61.562 113.945 61.8568 114.345 62.2863 114.564C63.3727 115.114 64.5237 114.423 65.3098 113.651C65.7365 113.231 66.0874 112.732 66.458 112.26C66.8931 111.705 67.3254 111.146 67.7634 110.593C68.0581 110.219 68.4063 109.738 68.8695 109.577C69.2344 109.45 69.5208 109.816 69.7818 110.032C70.3433 110.495 70.9581 110.726 71.6824 110.576C72.3309 110.443 72.8839 110.026 73.364 109.582C73.743 109.231 74.136 108.753 74.6441 108.612C74.7929 108.572 74.9473 108.572 75.1102 108.624C75.1775 108.644 75.2449 108.675 75.2954 108.724C75.3488 108.77 75.3067 108.716 75.3375 108.816C75.593 109.703 76.949 109.326 76.6907 108.434C76.3622 107.29 75.0372 106.893 74.0293 107.313C73.4679 107.55 73.0159 107.956 72.5751 108.373C72.2186 108.71 71.7975 109.145 71.2866 109.191C70.8374 109.231 70.4781 108.739 70.1468 108.494C69.6583 108.134 69.0267 108.01 68.4484 108.206C67.8476 108.411 67.3563 108.863 66.9521 109.349C66.5001 109.893 66.0762 110.463 65.6382 111.022C65.2227 111.552 64.8297 112.119 64.3553 112.597C64.0577 112.894 63.6478 113.251 63.2464 113.323C62.8618 113.392 62.6849 113.078 62.5081 112.77C62.2694 112.358 62.0336 111.92 61.6266 111.656C61.0847 111.304 60.4643 111.402 59.9253 111.702C59.2993 112.05 58.7013 112.465 58.0921 112.845C56.9383 113.567 55.7705 114.267 54.6391 115.027C53.3955 115.862 52.2669 116.815 51.3742 118.042C50.5095 119.228 49.906 120.584 49.308 121.923C49.1508 122.278 49.2097 122.698 49.5607 122.908C49.8667 123.084 50.3664 123 50.5236 122.643Z" fill="black"/>
<path d="M90.2502 120.311C90.3821 120.317 90.5 120.363 90.6039 120.461C90.733 120.582 90.8341 120.754 90.8902 120.918C91.0446 121.382 90.9997 121.782 90.7218 122.231C90.413 122.73 89.9217 123.084 89.436 123.386C88.8016 123.781 88.1334 124.123 87.4709 124.469C84.6748 125.934 81.8057 127.244 79.0096 128.707C74.0182 131.322 69.111 134.604 66.0061 139.516C65.5962 140.164 65.2256 140.835 64.8972 141.529C64.7175 141.909 64.5575 142.295 64.3975 142.684C64.302 142.923 64.2038 143.185 64.0494 143.389C63.8894 143.602 63.8472 143.599 63.6227 143.461C63.2437 143.231 62.8871 142.954 62.5222 142.698C61.7361 142.148 60.9501 141.601 60.164 141.051C59.4145 140.53 58.7126 141.777 59.4566 142.295C60.2061 142.816 60.9529 143.34 61.7025 143.861C62.3397 144.308 63.0865 145.036 63.909 144.999C64.6642 144.964 65.1892 144.345 65.4952 143.691C65.7871 143.067 66.0201 142.416 66.3345 141.8C67.654 139.191 69.5882 136.977 71.778 135.099C76.7918 130.8 83.0325 128.468 88.7623 125.402C90.1295 124.67 91.8812 123.801 92.2967 122.116C92.6504 120.679 91.811 118.926 90.2502 118.868C89.349 118.84 89.349 120.279 90.2502 120.311Z" fill="black"/>
<path d="M91.9005 118.995C92.8297 122.171 96.7543 122.706 99.3511 121.56C101.027 120.823 102.408 119.565 103.804 118.39C105.224 117.195 106.74 116.188 108.41 115.396C111.931 113.731 115.839 112.963 119.642 112.321C123.806 111.618 128.02 111.221 132.239 111.123C133.424 111.094 134.608 111.091 135.793 111.111C136.806 111.129 138.112 111.27 138.491 110.026C138.659 109.476 138.668 108.851 138.738 108.278C138.817 107.662 138.892 107.043 138.971 106.426C139.134 105.145 139.294 103.861 139.457 102.58C139.504 102.194 139.1 101.86 138.755 101.86C138.334 101.86 138.101 102.191 138.053 102.58C137.783 104.716 137.514 106.856 137.244 108.992C137.216 109.219 137.256 109.634 137.006 109.68C136.621 109.749 136.183 109.677 135.793 109.672C134.768 109.654 133.744 109.654 132.719 109.674C128.623 109.749 124.536 110.109 120.487 110.737C116.796 111.307 113.045 112.01 109.539 113.369C107.871 114.014 106.252 114.808 104.775 115.836C103.323 116.847 102.063 118.111 100.631 119.148C99.2725 120.132 97.8155 120.843 96.1423 120.671C94.8959 120.544 93.6214 119.862 93.2536 118.606C92.9925 117.728 91.6394 118.105 91.9005 118.995Z" fill="black"/>
<path d="M65.894 68.3758C66.1832 69.8356 67.6542 70.7225 68.6536 71.6583C69.7008 72.6373 70.6917 73.6767 71.621 74.7738C73.5019 76.9938 75.1161 79.4527 76.4327 82.0643C77.1711 83.5271 77.8083 85.0387 78.3445 86.5907C78.5214 87.1061 79.3636 87.3796 79.6275 86.7635C80.1328 85.58 80.2198 84.2555 79.737 83.0433C79.5124 83.3456 79.285 83.6509 79.0604 83.9532C79.8914 83.9158 80.6662 84.2095 81.2557 84.8141C81.5393 84.4369 81.8228 84.0597 82.1063 83.6825C81.1603 82.9944 80.6213 81.8599 80.1019 80.832C79.4646 79.5679 78.8077 78.3183 78.1255 77.0773C76.7556 74.5895 75.2958 72.1564 73.7377 69.7867C72.8618 68.4535 71.9579 67.1434 71.023 65.8535C70.7984 65.5425 70.4166 65.3841 70.0629 65.5943C69.7625 65.7729 69.5829 66.2652 69.8102 66.5791C73.2099 71.2753 76.2138 76.2624 78.8358 81.4539C79.4983 82.764 80.1946 84.0511 81.3933 84.9235C82.053 85.4044 82.7969 84.3592 82.2439 83.792C81.4017 82.931 80.2451 82.4559 79.0548 82.5077C78.6477 82.525 78.1957 82.9627 78.3782 83.4176C78.7095 84.2498 78.7684 85.1884 78.4091 86.0263C78.8358 86.0839 79.2653 86.1415 79.692 86.1991C77.7494 80.5843 74.5434 75.4475 70.3521 71.3156C69.7737 70.7455 69.173 70.1927 68.5582 69.6629C68.022 69.1993 67.3875 68.73 67.2387 67.9871C67.1629 67.607 66.7222 67.3853 66.3741 67.4832C65.9979 67.6013 65.8182 67.9957 65.894 68.3758Z" fill="black"/>
<path d="M137.747 77.3076C137.789 81.3588 139.182 85.2402 141.074 88.7502C142.935 92.2026 145.518 95.1539 148.185 97.9671C149.51 99.3636 150.908 100.679 152.443 101.831C154.007 103 155.781 103.887 157.564 104.641C158.019 104.834 158.479 105.016 158.942 105.186C159.369 105.344 159.863 105.442 160.256 105.675C161.09 106.17 162.109 106.427 163.03 106.706C164.947 107.288 166.907 107.696 168.889 107.953C173.372 108.534 177.962 108.206 182.319 106.979C183.189 106.735 182.819 105.344 181.946 105.592C178.195 106.648 174.296 107.003 170.419 106.677C168.513 106.516 166.626 106.185 164.773 105.704C163.852 105.465 162.943 105.189 162.042 104.875C161.629 104.731 161.25 104.584 160.868 104.377C160.422 104.138 159.903 104.014 159.431 103.841C157.693 103.208 156.02 102.41 154.431 101.454C152.867 100.512 151.478 99.2714 150.178 97.9815C147.576 95.3958 145.077 92.6086 143.129 89.4672C140.889 85.8535 139.193 81.6439 139.151 77.3105C139.14 76.3833 137.736 76.3804 137.747 77.3076Z" fill="black"/>
<path d="M159.468 97.0831C161.854 99.2772 164.653 100.884 167.449 102.453C170.265 104.034 173.229 105.373 176.357 106.139C178.235 106.599 180.161 106.867 182.086 106.939C182.99 106.974 182.988 105.534 182.086 105.499C178.886 105.376 175.75 104.662 172.772 103.464C169.931 102.321 167.219 100.769 164.614 99.1476C163.148 98.2348 161.733 97.2386 160.456 96.0609C159.788 95.4476 158.794 96.4611 159.468 97.0831Z" fill="black"/>
<path d="M151.079 77.365C151.259 80.2646 151.753 83.1468 152.604 85.9225C153.033 87.3161 153.55 88.681 154.139 90.0112C154.28 90.3251 154.4 90.6908 154.6 90.9672C154.692 91.0939 154.805 91.1889 154.889 91.3242C154.984 91.4826 155.063 91.6525 155.153 91.8137C155.492 92.4213 155.866 93.0087 156.27 93.573C157.177 94.8399 158.216 95.9917 159.386 97.0081C159.675 97.2586 160.094 97.2989 160.38 97.0081C160.63 96.7518 160.672 96.2422 160.38 95.9888C159.403 95.1423 158.505 94.2007 157.719 93.167C157.331 92.6574 156.975 92.1189 156.643 91.569C156.475 91.2868 156.312 91.0017 156.161 90.7109C155.989 90.3884 155.748 90.1494 155.594 89.8183C154.44 87.3305 153.598 84.693 153.07 81.9922C152.769 80.4661 152.581 78.9199 152.483 77.365C152.458 76.9763 152.177 76.6452 151.781 76.6452C151.419 76.6452 151.054 76.9735 151.079 77.365Z" fill="black"/>
<path fill-rule="evenodd" clip-rule="evenodd" d="M138.397 76.7201C142.86 76.7287 147.241 76.7287 151.693 76.7201L151.695 77.8718C147.242 77.8804 142.859 77.8804 138.395 77.8718L138.397 76.7201Z" fill="black"/>
<path d="M154.878 90.6938C152.702 92.8447 150.723 95.1942 148.946 97.7022C148.724 98.016 148.893 98.5055 149.199 98.6869C149.552 98.9 149.934 98.7445 150.159 98.4278C151.866 96.0206 153.783 93.7776 155.872 91.7131C156.523 91.0681 155.529 90.0517 154.878 90.6938Z" fill="black"/>
<path d="M154.681 88.9056C153.83 89.0208 153.311 89.6514 152.727 90.2388C152.123 90.8463 151.525 91.4568 150.933 92.0758C149.748 93.3111 148.589 94.5694 147.452 95.8507C146.846 96.536 147.837 97.5553 148.446 96.87C149.496 95.6866 150.565 94.5233 151.655 93.3802C152.185 92.8245 152.719 92.2745 153.258 91.7274C153.536 91.4452 153.813 91.1659 154.091 90.8866C154.209 90.7686 154.496 90.3712 154.681 90.3482C155.057 90.2964 155.383 90.0545 155.383 89.6284C155.383 89.2771 155.06 88.8538 154.681 88.9056Z" fill="black"/>
<path d="M148.008 95.6751C146.93 95.321 145.782 95.8652 145.077 96.7146C144.336 97.6101 143.954 98.8223 144.005 99.9942C144.058 101.29 144.653 102.401 145.319 103.472C145.647 104.005 146.004 104.515 146.363 105.027C146.565 105.315 146.997 105.839 146.818 106.234C146.652 106.594 145.813 106.464 145.515 106.447C144.822 106.409 144.148 106.268 143.485 106.058C142.621 105.782 142.25 107.172 143.112 107.446C144.249 107.809 145.599 108.062 146.787 107.829C148.101 107.57 148.522 106.214 148.019 105.047C147.786 104.509 147.393 104.054 147.068 103.573C146.714 103.052 146.377 102.514 146.068 101.964C145.521 100.985 145.232 99.9539 145.54 98.8396C145.782 97.9614 146.593 96.7203 147.64 97.0659C148.499 97.3481 148.867 95.9573 148.008 95.6751Z" fill="black"/>
<path d="M145.658 69.5505C144.662 70.5468 143.567 71.4941 142.851 72.738C142.166 73.9243 141.812 75.5684 142.817 76.6856C143.584 77.5379 145.178 77.918 146.164 77.2528C147.194 76.556 146.728 75.3323 146.324 74.4138C146.304 74.3706 146.186 74.0827 146.24 74.2209C146.175 74.0481 146.119 73.8725 146.077 73.6911C145.99 73.3139 145.973 72.9165 146.021 72.5336C146.122 71.7273 146.593 71.0161 146.891 70.279C147.034 69.9191 146.734 69.4872 146.4 69.3922C145.995 69.2799 145.681 69.5333 145.535 69.8961C145.308 70.4633 144.99 70.9845 144.799 71.5719C144.594 72.2024 144.552 72.8964 144.634 73.5529C144.704 74.1086 144.872 74.6038 145.094 75.1106C145.128 75.1855 145.162 75.2632 145.195 75.3381C145.215 75.3813 145.235 75.4273 145.251 75.4705C145.212 75.3726 145.257 75.4878 145.263 75.4993C145.294 75.5886 145.327 75.6778 145.352 75.7671C145.366 75.8132 145.411 76.0493 145.395 75.8995C145.4 75.9514 145.395 76.1731 145.411 76.0061C145.409 76.0291 145.395 76.1011 145.383 76.1155C145.389 76.1097 145.454 75.9888 145.451 75.9946C145.442 76.0205 145.375 76.0464 145.434 76.0234C145.512 75.9917 145.383 76.055 145.366 76.0608C145.254 76.104 145.448 76.0349 145.316 76.0781C145.249 76.1011 145.176 76.1184 145.105 76.1299C145.049 76.1385 144.763 76.1299 144.673 76.1126C144.46 76.0723 144.28 76.0118 144.1 75.9053C143.283 75.4187 143.598 74.2957 144.008 73.5557C144.656 72.3781 145.715 71.4999 146.647 70.5698C147.298 69.9191 146.307 68.9027 145.658 69.5505Z" fill="black"/>
<path d="M117.742 113.135C125.639 113.348 133.536 113.59 141.433 113.861C149.282 114.129 157.129 114.428 164.978 114.751C169.416 114.935 173.852 115.128 178.288 115.329C178.063 115.027 177.836 114.722 177.611 114.42C176.704 117.598 176.623 121.926 179.7 123.916C179.818 123.469 179.936 123.02 180.053 122.574C175.357 122.084 170.66 121.595 165.961 121.137C161.261 120.679 156.556 120.256 151.848 119.896C147.143 119.536 142.432 119.24 137.719 119.041C133.008 118.842 128.292 118.742 123.576 118.77C122.413 118.776 121.251 118.793 120.092 118.816C119.502 118.828 118.91 118.851 118.32 118.857C117.905 118.86 117.489 118.848 117.192 118.514C116.681 117.944 116.465 117.051 116.442 116.294C116.417 115.485 116.594 114.673 116.981 113.965C117.175 113.613 117.405 113.308 117.689 113.026C118.337 112.378 117.343 111.359 116.695 112.007C115.347 113.357 114.803 115.361 115.142 117.244C115.314 118.194 115.757 119.245 116.535 119.83C117.447 120.515 118.755 120.285 119.814 120.262C124.69 120.158 129.572 120.204 134.446 120.36C139.322 120.518 144.195 120.786 149.063 121.131C153.937 121.477 158.802 121.897 163.664 122.358C168.527 122.819 173.389 123.32 178.248 123.827C178.849 123.89 179.45 123.953 180.053 124.014C180.789 124.091 180.949 123.023 180.407 122.672C177.925 121.068 178.246 117.313 178.964 114.803C179.096 114.336 178.734 113.913 178.288 113.893C170.396 113.533 162.502 113.202 154.608 112.902C146.759 112.603 138.912 112.329 131.06 112.084C126.622 111.946 122.183 111.817 117.742 111.699C116.838 111.673 116.838 113.112 117.742 113.135Z" fill="black"/>
<path d="M117.933 113.058C128.301 111.336 138.666 109.611 149.033 107.889C154.187 107.031 159.384 106.303 164.499 105.209C166.921 104.69 169.322 103.884 171.795 103.645C174.38 103.398 176.991 103.838 179.568 104.037C185.394 104.483 191.247 104.535 197.08 104.198C197.019 103.726 196.957 103.256 196.895 102.784C193.81 103.847 190.778 105.07 187.813 106.45C186.348 107.132 184.899 107.852 183.47 108.612C182.148 109.315 180.77 109.997 179.554 110.881C178.347 111.756 177.322 112.908 177.233 114.492C177.179 115.416 178.586 115.413 178.636 114.492C178.698 113.383 179.616 112.568 180.453 111.99C181.606 111.192 182.878 110.547 184.113 109.891C186.806 108.457 189.568 107.155 192.387 106.003C193.998 105.347 195.626 104.736 197.269 104.169C197.982 103.924 197.911 102.707 197.083 102.755C191.876 103.055 186.651 103.049 181.444 102.724C178.85 102.563 176.253 102.18 173.653 102.134C171.065 102.09 168.586 102.753 166.09 103.366C161.026 104.604 155.832 105.307 150.695 106.159C145.485 107.026 140.277 107.889 135.067 108.756C129.233 109.726 123.396 110.697 117.563 111.664C117.189 111.728 116.979 112.203 117.072 112.551C117.181 112.963 117.557 113.121 117.933 113.058Z" fill="black"/>
<path d="M180.839 123.602C184.388 121.385 187.939 119.168 191.488 116.951C193.242 115.854 194.997 114.759 196.751 113.662C197.588 113.141 198.492 112.666 199.275 112.061C200.089 111.431 200.162 110.466 199.766 109.559C199.584 109.139 199.317 108.773 199.062 108.396C198.761 107.953 198.495 107.486 198.27 106.997C197.86 106.101 197.602 105.116 197.509 104.132C197.473 103.746 197.212 103.412 196.808 103.412C196.457 103.412 196.069 103.743 196.106 104.132C196.277 105.966 196.88 107.714 197.919 109.222C198.152 109.562 198.91 110.437 198.506 110.852C198.22 111.146 197.759 111.342 197.417 111.555C196.979 111.828 196.538 112.102 196.1 112.378C192.689 114.509 189.281 116.637 185.87 118.768C183.956 119.962 182.041 121.16 180.126 122.355C179.36 122.842 180.065 124.086 180.839 123.602Z" fill="black"/>
<path d="M178.774 114.86C180.057 114.915 181.247 114.408 182.378 113.847C183.563 113.257 184.742 112.649 185.921 112.047C188.299 110.832 190.671 109.608 193.027 108.344C194.366 107.625 195.699 106.896 197.024 106.147C197.816 105.701 197.109 104.457 196.317 104.904C191.78 107.46 187.145 109.824 182.508 112.18C181.337 112.773 180.127 113.478 178.779 113.421C177.87 113.383 177.873 114.823 178.774 114.86Z" fill="black"/>
<path d="M178.021 118.048C183.49 116.464 188.784 114.227 193.753 111.394C195.157 110.593 196.535 109.744 197.886 108.848C198.641 108.347 197.939 107.1 197.178 107.604C192.484 110.711 187.451 113.268 182.184 115.18C180.688 115.724 179.178 116.214 177.65 116.657C176.78 116.91 177.151 118.298 178.021 118.048Z" fill="black"/>
<path d="M178.925 120.789C184.453 119.133 189.787 116.775 194.75 113.778C196.16 112.928 197.538 112.024 198.885 111.074C199.197 110.855 199.337 110.443 199.138 110.089C198.958 109.772 198.492 109.608 198.178 109.83C193.515 113.121 188.459 115.831 183.15 117.843C181.637 118.416 180.104 118.935 178.555 119.398C177.684 119.66 178.055 121.051 178.925 120.789Z" fill="black"/>
<path d="M178.735 116.438C183.403 114.852 187.971 112.946 192.395 110.737C193.642 110.115 194.874 109.467 196.095 108.799C196.893 108.362 196.185 107.121 195.388 107.555C191.135 109.885 186.739 111.929 182.219 113.657C180.941 114.146 179.656 114.61 178.361 115.047C177.508 115.338 177.873 116.729 178.735 116.438Z" fill="black"/>
<path d="M154.294 110.656C155.725 110.53 157.163 110.443 158.6 110.4C159.24 110.383 159.922 110.311 160.56 110.403C161.056 110.475 161.396 110.757 161.756 111.088C162.16 111.463 162.575 111.837 163.1 112.021C163.723 112.243 164.375 112.111 164.953 111.817C165.486 111.546 166.121 111.109 166.449 110.59C166.845 109.965 166.64 109.185 165.986 108.86C165.45 108.595 164.793 108.609 164.215 108.534C163.799 108.48 163.33 108.405 163.12 108.077C162.98 108.428 162.839 108.782 162.702 109.133C163.316 108.995 163.937 108.955 164.563 109.007C165.164 109.056 165.762 109.3 166.365 109.179C166.935 109.064 167.308 108.647 167.598 108.157C167.805 107.806 167.906 107.529 168.336 107.478C169.571 107.325 170.84 107.524 172.078 107.388C172.993 107.29 174.212 106.787 174.099 105.629C174.063 105.243 173.805 104.909 173.397 104.909C173.047 104.909 172.659 105.24 172.696 105.629C172.704 105.681 172.707 105.733 172.701 105.787C172.696 105.756 172.698 105.727 172.715 105.698C172.805 105.667 172.648 105.762 172.718 105.707C172.561 105.822 172.463 105.857 172.277 105.903C171.873 106.009 171.399 105.975 170.947 105.983C170.343 105.995 169.74 106.003 169.139 106.015C168.583 106.024 168.005 106.003 167.485 106.237C167.019 106.447 166.73 106.836 166.475 107.273C166.301 107.576 166.242 107.806 165.879 107.774C165.307 107.722 164.757 107.561 164.175 107.547C163.555 107.532 162.932 107.61 162.325 107.745C161.896 107.843 161.666 108.428 161.907 108.802C162.469 109.686 163.398 109.882 164.355 109.988C164.546 110.011 164.74 110.026 164.931 110.055C165.023 110.069 165.113 110.083 165.206 110.104C165.242 110.112 165.34 110.153 165.357 110.141C165.405 110.112 165.265 109.784 165.284 109.784C165.267 109.784 165.051 110.023 165.029 110.043C164.953 110.107 164.874 110.164 164.796 110.225C164.58 110.383 164.347 110.544 164.091 110.633C163.277 110.916 162.631 109.896 162.047 109.476C161.073 108.779 159.793 108.923 158.67 108.955C157.21 108.995 155.751 109.084 154.294 109.211C153.915 109.246 153.592 109.519 153.592 109.931C153.592 110.299 153.915 110.691 154.294 110.656Z" fill="black"/>
<path d="M132.843 117.195C133.21 116.591 133.752 115.894 134.451 115.695C135.175 115.491 135.591 116.306 136.02 116.775C136.624 117.437 137.385 117.967 138.292 118.002C138.682 118.016 139.083 117.924 139.429 117.737C139.617 117.633 139.794 117.489 139.934 117.325C139.984 117.267 140.071 117.161 140.1 117.109C140.307 116.723 139.979 117.446 140.024 117.106C140.01 117.218 141.164 117.538 141.276 117.567C141.731 117.676 142.199 117.74 142.665 117.774C143.626 117.846 144.588 117.783 145.549 117.757C147.564 117.702 149.583 117.745 151.596 117.883C153.912 118.042 156.216 118.333 158.504 118.75C159.215 118.88 159.639 118.117 159.187 117.547C158.878 117.158 158.569 116.769 158.263 116.38C158.024 116.078 157.519 116.124 157.269 116.38C156.977 116.68 157.031 117.095 157.269 117.4C157.578 117.788 157.887 118.177 158.193 118.566C158.42 118.166 158.648 117.763 158.875 117.362C154.616 116.585 150.285 116.219 145.958 116.306C144.984 116.326 144.007 116.395 143.03 116.355C142.604 116.337 142.18 116.297 141.761 116.205C141.526 116.153 141.29 116.084 141.062 116.003C140.815 115.914 140.588 115.773 140.335 115.701C139.771 115.537 139.333 115.799 138.991 116.236C138.814 116.461 138.628 116.573 138.334 116.565C137.556 116.545 137.02 115.779 136.557 115.229C135.872 114.417 134.92 113.976 133.887 114.371C132.91 114.742 132.163 115.58 131.621 116.467C131.15 117.259 132.365 117.981 132.843 117.195Z" fill="black"/>
</svg>
