<svg xmlns="http://www.w3.org/2000/svg" width="196" height="200" fill="none"><path fill="#291F10" d="M97.625 124.849c-.583-.231-1.148-.556-1.752-.674-1.483-.289-2.737-.69-2.467-2.625.09-.651-.199-1.229-.686-1.693-.516-.493-1.223-.665-1.723-.294-.524.388.044.788.358 1.154.586.684.183 1.263-.47 1.425-1.204.296-1.064 1.62-1.845 2.181-.873-.083-.984-.758-1.01-1.364-.073-1.683-1.015-2.07-2.523-2.005-5.02.215-9.813-.691-14.256-3.134-5.015-2.758-9.775-5.834-13.301-10.49-1.67-2.205-1.739-2.315-1.3-6.122 3.084 7.044 8.52 11.02 14.447 14.527 2.778 1.643 5.814 2.439 8.89 3.12 3.636.803 5.718-1.502 7.882-3.961-.491-.204-.797-.434-.908-.362-3.014 1.939-3.011 1.947-6.855 1.209-1.141-.219-1.705-1.479-.965-1.839 2.448-1.193.925-4.063 2.692-5.468.966-.768.253-1.597-.443-2.198-8.43-7.282-9.9-16.937-8.867-27.203.598-5.952 4.689-10.21 8.587-14.39.314-.337.862-.511 1.66-.074-1.755 2.832-3.664 5.654-5.804 8.064-4.752 5.35-3.964 19.837.704 26.293.834 1.152 1.816 1.72 3.189 1.61 1.158-.092 1.59-.923 2.1-1.876.551-1.026.147-1.51-.407-2.28-1.399-1.95-1.337-1.994-.479-4.22.216.082.512.102.634.258.58.748.264 2.38 1.552 2.3 1.464-.091.665-1.585.943-2.436 1.917-5.875 5.249-14.37 10.846-18.237.583 3.01.579 3.004-1.692 4.703-2.205 1.65-3.394 4.03-4.576 6.414-1.126 2.269 1.12 2.944 1.915 4.282.927-.155 1.576-.71 1.694-1.44.31-1.913 1.735-1.508 2.924-1.552 1.124-.04 1.477.458 1.292 1.67-.19 1.251-1.293 2.087-1.537 3.955 1.958-1.39 3.852-1.843 3.579-4.537-.11-1.076 1.243-2.098 1.464-3.39.09-.53.755-.845 1.192-.52.966.721 1.934-.326 3.084.227-.273 1.967.024 3.923-2.103 5.525-1.563 1.178-1.962 3.726-4.326 4.277-.107.025-.192.457-.166.685.06.518.51.474.876.48 1.32.02 2.722-.412 3.524-1.203a32.4 32.4 0 0 0 4.775-5.965c.603-.975 1.195-1.892 2.011-2.658 1.645-1.546 2.153-1.51 2.596.688.457 2.263 1.907 2.29 3.625 2.392 5.667.34 10.841 2.186 15.301 5.677 3.042 2.381 5.012 5.516 5 9.703-2.959-6.045-7.066-10.655-14.313-12.248.738 1.812 2.64 1.257 3.434 2.568-.554 1.55-2.561 1.22-3.516 2.404.829 2.445 3.4 2.656 5.224 3.628 1.01.538 1.374.776 1.135 1.753-.359 1.469-.665 2.987-1.634 4.199-.621.777-1.293 1.408-2.543 1.279-3.842-.396-3.989-.183-3.362 3.628.038.228.237.429.369.656 1.385.079 2.593-2.353 3.622-1.046 1.181 1.501 4.695-.19 3.995 3.262-.104.039-.338.221-.535.187-1.064-.186-2.62-1.216-3.064-.069-.532 1.37-1.597 2.892-.783 4.632.804 1.718 1.521 3.497 1.687 5.408.331 3.808.067 7.53-2.047 11.247-.774-.924-.371-1.754-.199-2.481.501-2.108.671-4.251.697-6.399.018-1.505.058-2.994-2.073-3.451-.874-.188-2.456-1.309-.011-2.073.907-.283.591-1.123.136-1.477-.845-.655-1.641-1.864-2.911-1.275-1.195.554-1.791 1.761-2.043 3.032-.09.452.101.999.282 1.456.322.815.996 1.788-.443 2.028-1.223.204-2.26-.192-2.119-1.851.081-.964.3-2.054-.883-2.761-.77.861-1.508 1.61-.475 2.851 1.25 1.501-.028 2.336-.766 3.35-1.008-.532-.657-1.204-.686-1.78-.077-1.539-.368-1.883-2.066-1.081-2.956 1.395-3.127 1.148-4.011 4.203-1.4 4.842-4.42 8.147-9.102 9.961-.767.298-1.544.392-1.893-.537-.288-.767.363-1.116.935-1.382 1.03-.477 2.124-.831 3.112-1.381 4.15-2.312 5.055-4.68 3.749-9.934-1.284.647-1.126 1.802-1.299 2.853-.171 1.041-1.071 1.782-1.868 1.037-2.243-2.096-3.877-.767-5.6.639-.478.39-1.05 1.003-1.596.387-.674-.759.067-1.378.576-1.894 1.095-1.111 2.524-1.659 3.932-2.222 1.635-1.734 3.597-3.025 5.612-4.274.852-.53 2.622-.369 2.325-1.887-.23-1.173-1.709-.615-2.612-.885-.988-.295-2.283-1.138-1.949 1.095.105.699-.886.82-1.176 1.28-.929 1.471-2.572 2.663-2.12 4.756m-2.266-11.047c-3.337-2.92-1.243-7.383-4.117-10.086-.064-.061.26-.652.501-.899 1.056-1.08.488-1.548-.658-1.651-.696-.062-1.475-.515-2.263.296.346 1.663.499 3.437-1.12 4.62.86 1.243 1.957-.676 2.393.442.335.861.328 1.981-.49 2.794-.089.088-.21.142-.306.223-.97.801-.738 1.514.23 2.058.754.424 1.737.56 2.327 1.127.816.785-1.636 1.388-.25 2.566zM81.3 102.749c1.065 1.903 4.163 2.749 2.26 5.692-.448.695 1.299 1.781 2.078 1.274 1.019-.663 1.646-5.368.648-6.107-.791-.585-1.578-2.518-3.04-.573-.25.331-.917-.77-1.946-.286m15.72-6.992c-4.155-.199-4.155-.199-3.465-3.657-2.39.8-3.521 2.84-5.025 4.408-.4.417.013 1.243.42 1.158 1.852-.386 3.637-1.266 5.433.37.16.145 1.894-.924 2.638-2.28m17.867 15.982c-.022.156-.005.556-.14.895-.875 2.183 1.113 2.21 2.169 2.628 1.286.509 2.316-.499 2.534-1.611.235-1.205-.463-2.175-1.972-2.017-.573.06-1.056-.073-.772-.756.486-1.171.23-2.284-1.008-2.19-1.364.104-.849 1.509-.812 2.455.005.126.001.251.001.596m-.251-19.743c-1.669-.345-3.163-.253-4.594-.75s-2.363.393-2.108 1.87c.17.986.463 2.064 1.923 1.488 1.615-.637 4.266.868 4.779-2.608m-21.627 25.038c2.416 2.78 3.653 2.871 4.971.482.262-.474.304-.931-.01-1.381-.306-.442-.754-.729-1.253-.444-1.083.618-2.502.169-3.708 1.343m22.837-12.05c1.988-1.744 1.988-1.744 3.436-4.812-1.57 1.068-2.856 1.52-4.219 1.803.3 1.127.174 2.156.783 3.009m8.28-.864c-.297.654-.109 1.164.681 1.258.677.08.65-.532.8-.99.438-1.33.063-2.412-.889-3.365-.513-.514-.745-1.865-1.823-.582-.663.789-.419 1.279.475 1.676.832.371 1.61.861.756 2.003m-12.698-7.417c1.957 2.24 1.957 2.24 3.554-1.062-1.304.095-2.428.53-3.554 1.062m6.741 10.795c.698-.304 1.264-.894 1.409-1.609.083-.412-.584-.834-1.098-.846-1.406-.031-1.136 1.055-1.122 1.89.007.399.337.614.811.565m-29.08-15.26c-.062-.492-.117-1.095-.65-1.209-.618-.132-.886.409-.877.941.009.535-.337 1.393.674 1.364.543-.015.74-.59.853-1.096m20.917 25.834c-.096-.444-.419-.634-.805-.517-.635.193-1.087.634-1.07 1.342.011.402.269.684.734.477.575-.256 1.106-.569 1.141-1.302m9.473-25.248c-.151-.709-.702-.97-1.323-.968-.475.002-.994.23-.853.875.116.53.572.737 1.082.732.462-.005.949-.033 1.094-.64M58.025 48.217c-3.67-1.231-4.191-1.915-3.933-4.308.074-.676.229-1.395.891-1.515 2.561-.464 3.61-2.699 4.968-4.383 6.417-7.959 13.966-14.685 22.641-19.952C95.367 10.304 108.72 3.695 123.63 1.016c3.099-.557 6.275-.693 9.421-.97.7-.061 1.536-.178 1.81.562.154.493.032.685-.305.703-10.489.567-20.345 3.567-29.97 7.602-11.955 5.013-23.263 11.101-33.065 19.674-4.376 3.826-8.47 7.972-11.652 12.909-1.231 1.91-2.548 3.788-1.844 6.72M145.276 172.913c-.627 1.75-2.099 2.645-3.423 3.435-16.112 9.606-33.293 14.251-52.21 11.667-8.266-1.129-16.017-3.469-23.389-7.256-.11-.057-.256-.053-.359-.118-.922-.586-2.57-1.1-1.955-2.319.672-1.332 2.016-.172 2.903.323 10.79 6.013 22.463 8.216 34.665 7.986 6.973-.131 13.768-1.165 20.402-3.635 7.478-2.786 14.994-5.377 21.563-10.065.403-.287.849-.554 1.803-.018M33.86 20.418c-2.76 3.099-5.56 6.165-8.275 9.303-7.146 8.256-11.572 18.013-15.422 28.089-2.937 7.688-5.461 15.48-6.568 23.68-.51 3.776-.812 7.541-.431 11.342.037.378.07.756.08 1.135.03 1.223.415 2.963-1.296 2.988-1.525.023-1.037-1.713-1.125-2.757-.7-8.335 1.046-16.384 3.225-24.312a139.5 139.5 0 0 1 11.287-28.47c4.243-7.994 10.04-14.84 16.823-20.833.348-.308.848-.443 1.277-.658z"/><path fill="#291F10" d="M96.942 177.057c-7.96-.785-14.831-2.926-21.736-4.917-9.431-2.72-18.257-6.742-26.093-12.69-7.38-5.602-12.758-12.908-17.075-21.035-.236-.444-.472-.916-.563-1.402-.123-.648-.005-1.331.768-1.495.553-.116.864.342 1.113.803 1.14 2.101 2.247 4.221 3.45 6.285 6.932 11.907 17.46 19.483 30.001 24.454 9.294 3.684 18.815 6.669 28.87 7.516.251.021.505.042.753.088.968.181 2.141.126 2.265 1.499.07.777-.525.957-1.753.894M74.124 7.775c-3.131 1.914-6.247 3.74-9.268 5.74-7.306 4.832-14.021 10.377-19.917 16.84-8.07 8.846-13.285 19.308-16.462 30.77-.728 2.629-.549 5.508-.808 8.27-.07.746-.151 1.503-.35 2.22-.147.528-.694.742-1.204.733a1.14 1.14 0 0 1-1.118-.848c-.377-1.249-.201-2.512-.013-3.758 1.066-7.047 3.459-13.658 6.387-20.135 7.204-15.934 19.414-27.169 33.842-36.314 2.687-1.704 5.44-3.55 8.911-3.518M156.341 47.08c.893-.086 1.369.388 1.857.757 6.963 5.259 13.713 10.78 19.13 17.68 7.44 9.477 14.363 19.273 16.849 31.425.304 1.484.577 2.975.885 4.458.126.61.405 1.308-.47 1.512-.682.159-1.269-.268-1.494-.888-.343-.942-.626-1.924-.779-2.912-.981-6.328-3.401-12.031-6.589-17.6-4.494-7.85-9.916-14.929-16.157-21.388-3.587-3.713-7.599-7.002-11.857-9.96-.711-.493-1.625-.792-1.936-1.726-.234-.702-.047-1.217.561-1.358M90.751 198.625c-.54.5-1.181.51-1.799.388-9.425-1.875-18.7-4.358-27.348-8.572-3.093-1.507-5.993-3.706-8.495-6.261-5.21-5.319-10.475-10.582-15.716-15.87a5 5 0 0 1-.496-.573c-.613-.861-2.08-1.865-1.049-2.771 1.118-.982 1.92.712 2.629 1.422 3.923 3.927 8.008 7.731 11.575 11.966 7.74 9.187 18.095 13.368 29.305 16.101 3.063.747 6.137 1.453 9.209 2.164 1.125.26 2.304.434 2.185 2.006M113.528 178.506c-.29-.164-.728-.27-.876-.537-.148-.266-.153-.855.033-1.021a11.6 11.6 0 0 1 2.123-1.536c2.678-1.478 5.584-2.335 8.574-2.88 4.354-.795 8.171-2.694 11.259-5.81 5.503-5.552 11.013-11.145 15.209-17.79 1.72-2.723 3.268-5.682 3.254-9.114-.002-.625.021-1.28.203-1.868.195-.625.7-1.069 1.432-.972.819.108.879.629.768 1.364-.725 4.795-2.037 9.385-4.99 13.317a136 136 0 0 1-14.796 16.692c-2.968 2.834-6.49 4.649-10.494 5.742-3.625.989-7.416 1.662-10.611 3.886-.305.212-.675.331-1.088.527M165.296 172.578c.028-1.049.701-1.313 1.169-1.643 9.667-6.83 14.634-16.765 18.256-27.585 1.121-3.346 2.463-6.608 3.189-10.102.628-3.022.938-5.979.401-9.023-.13-.736-.192-1.514-.105-2.25.077-.649.512-1.159 1.289-1.095.605.05.898.539.942 1.017.219 2.389.632 4.781.227 7.187-2.281 13.542-6.852 26.122-15.567 36.956-2.175 2.703-4.918 4.704-7.917 6.379-.517.289-1.08.692-1.884.159M150.164 65.18c-2.044 1.113-3.304.241-4.443-.32-3.05-1.504-6.068-3.091-8.991-4.828-13.555-8.054-27.124-7.167-40.76-.248-.963.489-2.105 2.301-3.08.558-.713-1.275 1.08-1.674 1.98-2.216 7.393-4.45 15.525-5.75 23.995-5.579 5.77.117 11.198 1.292 16.238 4.357 4.719 2.87 9.679 5.342 15.061 8.276M149.131 167.444c1.989-2.531 3.733-4.146 5.573-5.625 7.129-5.729 11.126-13.544 14.729-21.671 3.089-6.965 4.372-14.196 3.75-21.783-.05-.612.006-1.285.221-1.85a1.166 1.166 0 0 1 1.206-.735c.624.055.977.526.904.998-.751 4.871.007 9.855-1.153 14.695-2.272 9.47-6.452 18.054-12.277 25.8-2.977 3.959-7.071 6.819-10.969 9.825-.248.191-.688.133-1.984.346M143.193 32.204c-1.544.975-2.506.434-3.412.122-6.798-2.344-13.842-2.797-20.943-2.734-3.904.034-7.792-.325-11.718.426-4.177.8-8 2.419-11.691 4.314-4.249 2.182-8.765 3.983-12.311 7.366-.453.432-.977.946-1.573.303-.485-.523-.409-1.275.063-1.72a11.7 11.7 0 0 1 2.426-1.776c4.864-2.636 9.975-4.748 14.824-7.472 5.965-3.35 12.799-3.655 19.566-3.414 3.033.108 6.065.258 9.098.386 5.358.227 10.399 1.611 15.671 4.199M111.605 199.854c-1.451 0-3.596.004-5.742-.002-.655-.002-1.328-.087-1.224-.969.083-.703.577-1.09 1.31-1.069 1.762.051 3.53.037 5.284.19 7.91.69 15.272-1.345 22.346-4.584 6.751-3.092 13.799-5.576 20.085-9.641.386-.25.853-.696 1.301-.144.539.662.083 1.225-.41 1.599-.901.683-1.839 1.338-2.833 1.872-7.114 3.828-14.497 7.08-21.999 10.055-5.586 2.215-11.394 3.242-18.118 2.693M96.183 155.945c-1.264 2.371-2.763 2.152-4.099 2.206-11.937.48-23.012-2.511-33.408-8.29-2.43-1.35-4.976-2.514-7.153-4.256-1.333-1.067-2.986-1.918-3.817-4.706 7.604 5.325 15.097 9.174 23.002 12.272 8.09 3.171 16.637 2.661 25.475 2.774M8.132 108.194c1.46 1.639.5 3.322.51 4.859.038 5.771 1.19 11.348 3.137 16.701 2.493 6.857 4.621 13.953 9.75 19.521.42.456.762.998 1.073 1.539.255.444.38.985 0 1.412-.569.642-1.166.26-1.638-.144-2.253-1.926-3.897-4.397-5.181-6.969-4.422-8.857-7.875-18.057-8.713-28.046-.25-2.976-.36-5.936 1.062-8.873M126.63 156.173c.76-1.968 2.352-3.302 3.932-4.415 5.58-3.934 7.93-9.604 9.174-15.962.12-.617.076-1.275.248-1.874 1.953-6.769.142-12.67-4.091-18.03-.309-.392-.626-.788-.866-1.223-.21-.38-.043-.781.325-.947.313-.141.749-.232 1.046-.12.321.121.576.478.804.774 3.977 5.158 6.779 10.651 5.111 17.475-.748 3.061-1.316 6.167-2.092 9.221-1.871 7.359-6.975 11.896-13.591 15.101M40.131 78.36c.083 3.793-1.234 7.255-1.755 10.833-.38 2.618-1.036 5.186-1.37 7.825-1.096 8.667 1.115 16.497 5.663 23.797.598.96 1.226 1.909 1.713 2.925.282.589.157 1.266-.572 1.569-.68.284-1.327.037-1.631-.554-3.76-7.305-7.415-14.627-7.376-23.17.02-4.588.832-9.032 1.845-13.465.534-2.335 1.01-4.686 1.63-6.998.27-1.015.264-2.318 1.853-2.761M49.778 120.772c3.545 5.319 8.001 9.695 13.226 13.33 6.198 4.313 12.795 7.107 20.57 5.728.368-.065.753-.053 1.129-.038.41.016.672.255.804.644.155.459-.162.717-.44.948-1.06.875-2.366.826-3.62.856-6.669.162-12.674-1.854-18.163-5.575-4.205-2.851-8.102-6.046-11.358-9.971-1.657-1.999-2.054-3.015-2.148-5.922M158.784 123.221c-.163-.589-.344-.865-.275-1.047 1.867-4.968.514-9.612-1.17-14.33-2.749-7.707-6.861-14.559-12.22-20.7-.331-.38-.67-.758-.955-1.171-.37-.537-.656-1.154.054-1.615.454-.294.979-.133 1.377.234.462.425.935.85 1.331 1.335 4.243 5.188 8.125 10.6 10.446 16.972 1.379 3.787 3.046 7.477 3.812 11.468.615 3.201.626 6.248-2.4 8.854M65.349 53.01c-1.965 4.745-4.099 8.545-6.493 12.218a68 68 0 0 0-2.89 4.891c-3.613 6.714-3.5 13.534-.483 20.413.102.231.234.45.335.68.28.635.354 1.241-.44 1.546-.732.282-1.22-.125-1.523-.731-.45-.903-.983-1.8-1.23-2.762-2.208-8.604-1.58-16.71 3.951-24.114 2.101-2.811 4.219-5.672 5.57-8.988.473-1.162 1.171-2.223 3.203-3.153M23.185 89.79c.146 2.862.373 5.724.422 8.588.137 7.955 2.248 15.446 5.133 22.777.418 1.063 1.804 2.592.261 3.267-2.064.903-1.916-1.502-2.322-2.56-3.704-9.643-5.766-19.566-4.648-29.968.054-.502.082-1.008.172-1.503.043-.231.203-.442.31-.662zM156.967 76.028c2.641 1.396 3.684 3.933 5.096 6.09 3.458 5.287 6.406 10.842 8.038 17.004.826 3.122.698 5.517-.442 8.383-1.155-.129-.885-1.101-.895-1.736-.127-8.44-4.052-15.477-8.296-22.368-.98-1.592-1.864-3.291-3.28-4.608-.682-.635-.974-1.468-.221-2.765M138.806 77.198c-2.019-.244-3.512-1.212-5.016-2.03-7.226-3.927-14.503-3.564-21.863-.455-.958.406-2.227 1.745-2.93.39-.733-1.415 1.111-1.73 2.021-2.1 9.26-3.77 18.207-3.591 26.596 2.398.464.331 1.207.514 1.192 1.797M118.952 142.322c-2.955 4.426-5.928 8.794-10.61 11.559-1.1.65-2.21 1.21-3.526 1.151-.501-.022-1.04-.095-1.195-.674-.2-.75.257-1.33.895-1.397 4.964-.529 7.25-4.631 10.291-7.688 1.214-1.221 2.239-2.604 4.145-2.951M111.133 127.076c.004.615.001 1.127-.644 1.168-.616.039-.828-.426-.862-.927-.034-.495.131-.956.711-1.056.776-.133.537.625.795.815"/></svg>