<svg width="196" height="200" viewBox="0 0 196 200" fill="none" xmlns="http://www.w3.org/2000/svg">
<path d="M97.6248 124.849C97.0419 124.618 96.4774 124.293 95.8725 124.175C94.39 123.886 93.1365 123.485 93.4057 121.55C93.4964 120.899 93.207 120.321 92.7205 119.857C92.2043 119.364 91.4967 119.192 90.9967 119.563C90.4731 119.951 91.0406 120.351 91.3549 120.717C91.941 121.401 91.5382 121.98 90.8845 122.142C89.6814 122.438 89.8209 123.762 89.0402 124.323C88.1666 124.24 88.056 123.565 88.0299 122.959C87.9575 121.276 87.015 120.889 85.5065 120.954C80.4871 121.169 75.6944 120.263 71.2514 117.82C66.2359 115.062 61.4764 111.986 57.9497 107.33C56.2799 105.125 56.211 105.015 56.6501 101.208C59.7344 108.252 65.1693 112.228 71.0965 115.735C73.8751 117.378 76.9106 118.174 79.9879 118.855C83.6227 119.658 85.7054 117.353 87.8694 114.894C87.3777 114.69 87.0722 114.46 86.9606 114.532C83.9469 116.471 83.9497 116.479 80.1057 115.741C78.9645 115.522 78.4008 114.262 79.1408 113.902C81.5888 112.709 80.0659 109.839 81.8327 108.434C82.7994 107.666 82.0859 106.837 81.3898 106.236C72.9606 98.9535 71.4902 89.2992 72.5226 79.0332C73.1212 73.0812 77.212 68.8239 81.1099 64.6426C81.4239 64.3059 81.9725 64.1318 82.7709 64.5688C81.0145 67.4013 79.1057 70.2232 76.9657 72.6326C72.2143 77.9821 73.0019 92.4704 77.6703 98.9258C78.5035 100.078 79.486 100.646 80.8589 100.536C82.0167 100.444 82.4487 99.6134 82.9598 98.6603C83.5102 97.6339 83.1056 97.1503 82.5521 96.3791C81.1533 94.4304 81.2146 94.3864 82.0732 92.1594C82.289 92.2416 82.5852 92.2618 82.7065 92.418C83.2874 93.1662 82.9708 94.7973 84.2593 94.7175C85.7231 94.6269 84.9244 93.1331 85.2022 92.2819C87.1194 86.4071 90.4507 77.9125 96.048 74.0445C96.6312 77.0546 96.6267 77.0487 94.3559 78.7484C92.1513 80.3985 90.9624 82.7783 89.7798 85.1617C88.654 87.4307 90.9004 88.1059 91.695 89.4443C92.6216 89.2892 93.2707 88.7331 93.3892 88.0033C93.6995 86.0914 95.124 86.4956 96.3126 86.4523C97.4368 86.4113 97.7899 86.9102 97.6051 88.1212C97.4141 89.3733 96.3124 90.2088 96.0685 92.0769C98.0256 90.6866 99.9202 90.2341 99.6468 87.5396C99.5377 86.4643 100.89 85.442 101.111 84.1495C101.201 83.6209 101.866 83.3048 102.303 83.6306C103.269 84.3513 104.237 83.3041 105.387 83.8567C105.114 85.8242 105.411 87.7803 103.284 89.3825C101.721 90.5605 101.322 93.108 98.9584 93.6592C98.8507 93.6843 98.7655 94.116 98.7921 94.3441C98.8528 94.8619 99.3011 94.8181 99.6676 94.8237C100.988 94.8435 102.39 94.4121 103.192 93.6215C104.999 91.8402 106.632 89.812 107.967 87.6556C108.57 86.681 109.162 85.7645 109.978 84.9977C111.623 83.4525 112.131 83.4885 112.574 85.6858C113.031 87.9489 114.481 87.9751 116.199 88.0779C121.866 88.4173 127.04 90.2636 131.5 93.7553C134.542 96.1364 136.512 99.2711 136.5 103.458C133.541 97.4133 129.434 92.8034 122.187 91.2097C122.925 93.0218 124.827 92.4669 125.621 93.7776C125.067 95.328 123.06 94.9985 122.105 96.182C122.934 98.6272 125.505 98.8377 127.329 99.8101C128.339 100.348 128.703 100.586 128.464 101.563C128.105 103.032 127.799 104.55 126.83 105.762C126.209 106.539 125.537 107.17 124.287 107.041C120.445 106.645 120.298 106.858 120.925 110.669C120.963 110.897 121.162 111.098 121.294 111.325C122.679 111.404 123.887 108.972 124.916 110.279C126.097 111.78 129.611 110.089 128.911 113.541C128.807 113.58 128.573 113.762 128.376 113.728C127.312 113.542 125.756 112.512 125.312 113.659C124.78 115.029 123.715 116.551 124.529 118.291C125.333 120.009 126.05 121.788 126.216 123.699C126.547 127.507 126.283 131.229 124.169 134.946C123.395 134.022 123.798 133.192 123.97 132.465C124.471 130.357 124.641 128.214 124.667 126.066C124.685 124.561 124.725 123.072 122.594 122.615C121.72 122.427 120.138 121.306 122.583 120.542C123.49 120.259 123.174 119.419 122.719 119.065C121.874 118.41 121.078 117.201 119.808 117.79C118.613 118.344 118.017 119.551 117.765 120.822C117.675 121.274 117.866 121.821 118.047 122.278C118.369 123.093 119.043 124.066 117.604 124.306C116.381 124.51 115.344 124.114 115.485 122.455C115.566 121.491 115.785 120.401 114.602 119.694C113.832 120.555 113.094 121.304 114.127 122.545C115.377 124.046 114.099 124.881 113.361 125.895C112.353 125.363 112.704 124.691 112.675 124.115C112.598 122.576 112.307 122.232 110.609 123.034C107.653 124.429 107.482 124.182 106.598 127.237C105.198 132.079 102.178 135.384 97.496 137.198C96.7291 137.496 95.952 137.59 95.6033 136.661C95.3152 135.894 95.9658 135.545 96.5381 135.279C97.5676 134.802 98.6624 134.448 99.6495 133.898C103.8 131.586 104.705 129.218 103.399 123.964C102.115 124.611 102.273 125.766 102.1 126.817C101.929 127.858 101.029 128.599 100.232 127.854C97.9886 125.758 96.3551 127.087 94.6318 128.493C94.1544 128.883 93.5826 129.496 93.0359 128.88C92.3615 128.121 93.1032 127.502 93.6123 126.986C94.7073 125.875 96.1357 125.327 97.5439 124.764C99.1793 123.03 101.141 121.739 103.156 120.49C104.008 119.96 105.778 120.121 105.481 118.603C105.251 117.43 103.772 117.988 102.869 117.718C101.881 117.423 100.586 116.58 100.92 118.813C101.025 119.512 100.034 119.633 99.7441 120.093C98.8153 121.564 97.1724 122.756 97.6248 124.849ZM95.3594 113.802C92.0224 110.882 94.1157 106.419 91.2423 103.716C91.178 103.655 91.5017 103.064 91.7431 102.817C92.7989 101.737 92.2307 101.269 91.085 101.166C90.3886 101.104 89.6096 100.651 88.8223 101.462C89.168 103.125 89.321 104.899 87.7017 106.082C88.5627 107.325 89.6591 105.406 90.0948 106.524C90.4302 107.385 90.4229 108.505 89.6046 109.318C89.5163 109.406 89.3956 109.46 89.2985 109.541C88.3282 110.342 88.561 111.055 89.5281 111.599C90.2825 112.023 91.2662 112.159 91.8559 112.726C92.6715 113.511 90.2197 114.114 91.6056 115.292C92.6011 114.897 93.6369 114.486 95.3594 113.802ZM81.3001 102.749C82.3653 104.652 85.4625 105.498 83.5602 108.441C83.1117 109.136 84.8588 110.222 85.6384 109.715C86.6566 109.052 87.2839 104.347 86.2857 103.608C85.495 103.023 84.7076 101.09 83.2452 103.035C82.9969 103.366 82.3285 102.265 81.3001 102.749ZM97.0205 95.7566C92.8651 95.5581 92.8651 95.5581 93.5545 92.0997C91.1645 92.9007 90.0336 94.9392 88.5304 96.5079C88.1304 96.9254 88.5427 97.7508 88.9493 97.6661C90.802 97.2802 92.5868 96.3997 94.3827 98.0356C94.5423 98.181 96.2767 97.112 97.0205 95.7566ZM114.887 111.739C114.865 111.895 114.882 112.295 114.747 112.634C113.872 114.817 115.86 114.844 116.916 115.262C118.202 115.771 119.232 114.763 119.45 113.651C119.685 112.446 118.987 111.476 117.478 111.634C116.905 111.694 116.422 111.561 116.706 110.878C117.192 109.707 116.936 108.594 115.698 108.688C114.334 108.792 114.849 110.197 114.886 111.143C114.891 111.269 114.887 111.394 114.887 111.739ZM114.636 91.9962C112.967 91.6506 111.473 91.743 110.042 91.2457C108.611 90.7488 107.679 91.6394 107.934 93.1162C108.104 94.1015 108.397 95.1798 109.857 94.6039C111.472 93.9672 114.123 95.4725 114.636 91.9962ZM93.0092 117.034C95.4249 119.814 96.6617 119.905 97.9802 117.516C98.2418 117.042 98.2838 116.585 97.9708 116.135C97.664 115.693 97.2156 115.406 96.7173 115.691C95.6344 116.309 94.2148 115.86 93.0092 117.034ZM115.846 104.984C117.834 103.24 117.834 103.24 119.282 100.172C117.712 101.24 116.426 101.692 115.063 101.975C115.363 103.102 115.237 104.131 115.846 104.984ZM124.126 104.12C123.829 104.774 124.017 105.284 124.807 105.378C125.484 105.458 125.457 104.846 125.607 104.388C126.045 103.058 125.67 101.976 124.718 101.023C124.205 100.509 123.973 99.1579 122.895 100.441C122.232 101.23 122.476 101.72 123.37 102.117C124.202 102.488 124.98 102.978 124.126 104.12ZM111.428 96.7033C113.385 98.9422 113.385 98.9422 114.982 95.6405C113.678 95.7364 112.554 96.1717 111.428 96.7033ZM118.169 107.498C118.867 107.194 119.433 106.604 119.578 105.889C119.661 105.477 118.994 105.055 118.48 105.043C117.074 105.012 117.344 106.098 117.358 106.933C117.365 107.332 117.695 107.547 118.169 107.498ZM89.0888 92.2382C89.027 91.7459 88.9723 91.1432 88.4398 91.0293C87.8212 90.8971 87.5531 91.4378 87.5619 91.9703C87.5708 92.5051 87.2249 93.363 88.236 93.3343C88.7792 93.319 88.9754 92.7431 89.0888 92.2382ZM110.006 118.072C109.91 117.628 109.587 117.438 109.201 117.555C108.566 117.748 108.114 118.189 108.131 118.897C108.142 119.299 108.4 119.581 108.865 119.374C109.44 119.118 109.971 118.805 110.006 118.072ZM119.479 92.8238C119.328 92.1154 118.777 91.8534 118.156 91.8557C117.681 91.8575 117.162 92.0863 117.303 92.7314C117.419 93.2617 117.875 93.468 118.385 93.4629C118.847 93.4582 119.334 93.4298 119.479 92.8238Z" fill="#291F10"/>
<path d="M58.0252 48.2165C54.3549 46.9855 53.8338 46.3022 54.0924 43.9091C54.1655 43.2329 54.3208 42.5145 54.983 42.3944C57.5444 41.9298 58.5937 39.6952 59.9513 38.0113C66.3678 30.0525 73.9166 23.3261 82.5922 18.0594C95.3671 10.3041 108.719 3.69505 123.63 1.01551C126.729 0.458791 129.905 0.323294 133.051 0.0462525C133.751 -0.0154468 134.587 -0.131939 134.861 0.607705C135.015 1.10073 134.893 1.29273 134.556 1.31101C124.067 1.87807 114.211 4.87772 104.586 8.91303C92.6311 13.9256 81.3235 20.0143 71.5209 28.5869C67.1454 32.4134 63.0502 36.5593 59.8687 41.4957C58.6377 43.4057 57.3209 45.2844 58.0252 48.2165Z" fill="#291F10"/>
<path d="M145.276 172.913C144.649 174.663 143.177 175.558 141.853 176.348C125.741 185.954 108.56 190.599 89.6427 188.015C81.3775 186.886 73.6263 184.546 66.2544 180.759C66.1435 180.702 65.9982 180.706 65.8951 180.641C64.9728 180.055 63.325 179.541 63.9396 178.322C64.6116 176.99 65.9559 178.15 66.8426 178.645C77.6321 184.658 89.3058 186.861 101.508 186.631C108.481 186.5 115.276 185.466 121.91 182.996C129.388 180.21 136.904 177.619 143.473 172.931C143.876 172.644 144.322 172.377 145.276 172.913Z" fill="#291F10"/>
<path d="M33.8605 20.418C31.0994 23.5167 28.3005 26.5826 25.5847 29.7205C18.4385 37.9773 14.0128 47.7341 10.1632 57.8099C7.22577 65.4984 4.70188 73.2892 3.59537 81.49C3.08582 85.2664 2.78349 89.0311 3.1636 92.8324C3.20133 93.2096 3.2343 93.5884 3.24365 93.9672C3.27385 95.1899 3.65946 96.9302 1.94827 96.9554C0.423383 96.9778 0.910555 95.2415 0.822988 94.1977C0.123729 85.8627 1.8691 77.8143 4.04811 69.8861C6.76471 60.002 10.5294 50.4706 15.3351 41.4165C19.5784 33.4218 25.3751 26.5763 32.1584 20.5826C32.506 20.2752 33.0058 20.1401 33.4347 19.9248C33.5767 20.0892 33.7186 20.2536 33.8605 20.418Z" fill="#291F10"/>
<path d="M96.9415 177.057C88.9812 176.272 82.1106 174.131 75.2062 172.14C65.7749 169.42 56.9489 165.398 49.113 159.45C41.7332 153.848 36.3549 146.542 32.0379 138.415C31.8019 137.971 31.5663 137.499 31.4746 137.013C31.3523 136.365 31.4699 135.682 32.2433 135.518C32.7957 135.402 33.1066 135.86 33.3564 136.321C34.496 138.422 35.6031 140.542 36.8052 142.606C43.738 154.513 54.2665 162.089 66.8073 167.06C76.101 170.744 85.6221 173.729 95.6762 174.576C95.9284 174.597 96.1822 174.618 96.4304 174.664C97.3981 174.845 98.5712 174.79 98.695 176.163C98.765 176.94 98.1703 177.12 96.9415 177.057Z" fill="#291F10"/>
<path d="M74.1244 7.77534C70.9929 9.68868 67.8768 11.5159 64.8556 13.5143C57.5499 18.3466 50.835 23.8921 44.9386 30.3556C36.8695 39.2007 31.6535 49.6627 28.4772 61.1249C27.7487 63.7539 27.928 66.6328 27.6686 69.3947C27.5985 70.1407 27.5176 70.8978 27.3182 71.6155C27.1717 72.1425 26.6246 72.3574 26.1147 72.3481C25.5905 72.3387 25.1598 72.0413 24.9966 71.4996C24.6204 70.2512 24.7957 68.9878 24.9842 67.7423C26.0505 60.6948 28.4429 54.0845 31.3713 47.6069C38.5745 31.6733 50.7853 20.4382 65.2131 11.2925C67.9004 9.58908 70.6525 7.74222 74.1244 7.77534Z" fill="#291F10"/>
<path d="M156.341 47.0803C157.234 46.9943 157.71 47.468 158.198 47.837C165.161 53.0957 171.911 58.617 177.328 65.5164C184.768 74.9936 191.691 84.7904 194.177 96.9419C194.481 98.4262 194.754 99.9168 195.062 101.4C195.188 102.01 195.467 102.708 194.592 102.912C193.91 103.071 193.323 102.644 193.098 102.024C192.755 101.082 192.472 100.1 192.319 99.1115C191.338 92.7844 188.918 87.0806 185.73 81.5128C181.236 73.6617 175.814 66.5833 169.573 60.1235C165.986 56.4106 161.974 53.1217 157.716 50.1643C157.005 49.6706 156.091 49.3723 155.78 48.4377C155.546 47.7361 155.733 47.2207 156.341 47.0803Z" fill="#291F10"/>
<path d="M90.751 198.625C90.2108 199.125 89.5695 199.135 88.9525 199.013C79.5273 197.138 70.2514 194.655 61.6043 190.441C58.5106 188.934 55.6107 186.735 53.1087 184.18C47.8998 178.861 42.6337 173.598 37.3932 168.31C37.2157 168.131 37.0433 167.942 36.8974 167.737C36.2836 166.876 34.8169 165.872 35.8482 164.966C36.9657 163.984 37.7671 165.678 38.4769 166.388C42.4002 170.315 46.4847 174.119 50.0524 178.354C57.7917 187.541 68.1468 191.722 79.3572 194.455C82.4204 195.202 85.4938 195.908 88.5655 196.619C89.6908 196.879 90.8704 197.053 90.751 198.625Z" fill="#291F10"/>
<path d="M113.528 178.506C113.238 178.342 112.8 178.236 112.652 177.969C112.504 177.703 112.499 177.114 112.685 176.948C113.331 176.366 114.046 175.833 114.808 175.412C117.486 173.934 120.392 173.077 123.382 172.532C127.736 171.737 131.553 169.838 134.641 166.722C140.144 161.17 145.654 155.577 149.85 148.932C151.57 146.209 153.118 143.25 153.104 139.818C153.102 139.193 153.125 138.538 153.307 137.95C153.502 137.325 154.007 136.881 154.739 136.978C155.558 137.086 155.618 137.607 155.507 138.342C154.782 143.137 153.47 147.727 150.517 151.659C146.041 157.621 141.113 163.2 135.721 168.351C132.753 171.185 129.231 173 125.227 174.093C121.602 175.082 117.811 175.755 114.616 177.979C114.311 178.191 113.941 178.31 113.528 178.506Z" fill="#291F10"/>
<path d="M165.296 172.578C165.324 171.529 165.997 171.265 166.465 170.935C176.132 164.105 181.099 154.17 184.721 143.35C185.842 140.004 187.184 136.742 187.91 133.248C188.538 130.226 188.848 127.269 188.311 124.225C188.181 123.489 188.119 122.711 188.206 121.975C188.283 121.326 188.718 120.816 189.495 120.88C190.1 120.93 190.393 121.419 190.437 121.897C190.656 124.286 191.069 126.678 190.664 129.084C188.383 142.626 183.812 155.206 175.097 166.04C172.922 168.743 170.179 170.744 167.18 172.419C166.663 172.708 166.1 173.111 165.296 172.578Z" fill="#291F10"/>
<path d="M150.164 65.1804C148.12 66.2933 146.86 65.4212 145.721 64.8595C142.671 63.3561 139.653 61.7688 136.73 60.0325C123.175 51.9783 109.606 52.8653 95.9694 59.7843C95.0067 60.2727 93.8651 62.0852 92.8898 60.3417C92.1767 59.0671 93.9702 58.6681 94.8703 58.1262C102.263 53.6754 110.395 52.3752 118.865 52.5472C124.635 52.6644 130.063 53.8393 135.103 56.9043C139.822 59.7739 144.782 62.2457 150.164 65.1804Z" fill="#291F10"/>
<path d="M149.131 167.444C151.12 164.913 152.864 163.298 154.704 161.819C161.833 156.09 165.83 148.275 169.433 140.148C172.522 133.183 173.805 125.952 173.183 118.365C173.133 117.753 173.189 117.08 173.404 116.515C173.566 116.089 174.017 115.728 174.61 115.78C175.234 115.835 175.587 116.306 175.514 116.778C174.763 121.649 175.521 126.633 174.361 131.473C172.089 140.943 167.909 149.527 162.084 157.273C159.107 161.232 155.013 164.092 151.115 167.098C150.867 167.289 150.427 167.231 149.131 167.444Z" fill="#291F10"/>
<path d="M143.193 32.2036C141.649 33.1792 140.687 32.6384 139.781 32.3259C132.983 29.9824 125.939 29.5291 118.838 29.5917C114.934 29.6261 111.046 29.267 107.12 30.0184C102.943 30.818 99.1194 32.4367 95.4287 34.3324C91.1805 36.5144 86.6637 38.3155 83.1178 41.698C82.6653 42.1296 82.1411 42.6443 81.5452 42.0014C81.0597 41.4776 81.1364 40.7257 81.6082 40.2807C82.3327 39.5975 83.1582 38.9797 84.0337 38.5053C88.8977 35.8694 94.0088 33.7572 98.8579 31.0333C104.823 27.6825 111.657 27.3779 118.424 27.619C121.457 27.7269 124.489 27.8773 127.522 28.0054C132.88 28.2316 137.921 29.6165 143.193 32.2036Z" fill="#291F10"/>
<path d="M111.605 199.854C110.154 199.854 108.009 199.858 105.863 199.852C105.208 199.85 104.535 199.765 104.639 198.883C104.722 198.18 105.216 197.793 105.949 197.814C107.711 197.865 109.479 197.851 111.233 198.004C119.143 198.694 126.505 196.659 133.579 193.42C140.33 190.328 147.378 187.844 153.664 183.779C154.05 183.529 154.517 183.083 154.965 183.635C155.504 184.297 155.048 184.86 154.555 185.234C153.654 185.917 152.716 186.572 151.722 187.106C144.608 190.934 137.225 194.186 129.723 197.161C124.137 199.376 118.329 200.403 111.605 199.854Z" fill="#291F10"/>
<path d="M96.1828 155.945C94.919 158.316 93.4199 158.097 92.0842 158.151C80.147 158.631 69.0721 155.64 58.6762 149.861C56.2467 148.511 53.6996 147.347 51.5226 145.605C50.1897 144.538 48.537 143.687 47.7061 140.899C55.3097 146.224 62.8028 150.073 70.7082 153.171C78.7984 156.342 87.3452 155.832 96.1828 155.945Z" fill="#291F10"/>
<path d="M8.13206 108.194C9.59179 109.833 8.63221 111.516 8.64235 113.053C8.68043 118.824 9.83166 124.401 11.7785 129.754C14.2721 136.611 16.4001 143.707 21.5284 149.275C21.9489 149.731 22.2911 150.273 22.6017 150.814C22.8567 151.258 22.9815 151.799 22.6023 152.226C22.0331 152.868 21.4364 152.486 20.9636 152.082C18.7107 150.156 17.067 147.685 15.783 145.113C11.3609 136.256 7.90792 127.056 7.07004 117.067C6.82045 114.091 6.71012 111.131 8.13206 108.194Z" fill="#291F10"/>
<path d="M126.63 156.173C127.39 154.205 128.982 152.871 130.562 151.758C136.142 147.824 138.492 142.154 139.736 135.796C139.856 135.179 139.812 134.521 139.984 133.922C141.937 127.153 140.126 121.252 135.893 115.892C135.584 115.5 135.267 115.104 135.027 114.669C134.817 114.289 134.984 113.888 135.352 113.722C135.665 113.581 136.101 113.49 136.398 113.602C136.719 113.723 136.974 114.08 137.202 114.376C141.179 119.534 143.981 125.027 142.313 131.851C141.565 134.912 140.997 138.018 140.221 141.072C138.35 148.431 133.246 152.968 126.63 156.173Z" fill="#291F10"/>
<path d="M40.1312 78.3608C40.2142 82.1528 38.8968 85.6153 38.3761 89.1934C37.9951 91.8115 37.3403 94.3791 37.0063 97.0183C35.9097 105.685 38.1208 113.515 42.6687 120.815C43.2665 121.775 43.8953 122.724 44.3817 123.74C44.6641 124.329 44.539 125.006 43.8105 125.309C43.1294 125.593 42.4834 125.346 42.1788 124.755C38.4184 117.45 34.7643 110.128 34.803 101.585C34.8239 96.9967 35.6353 92.5533 36.6483 88.1197C37.1817 85.7847 37.6586 83.4345 38.2771 81.1222C38.5486 80.1067 38.5416 78.8038 40.1312 78.3608Z" fill="#291F10"/>
<path d="M49.7778 120.772C53.3229 126.091 57.7792 130.467 63.0036 134.102C69.2023 138.415 75.7995 141.209 83.5743 139.83C83.9415 139.765 84.327 139.777 84.7025 139.792C85.1136 139.808 85.3755 140.047 85.5074 140.436C85.6624 140.895 85.3453 141.153 85.0666 141.384C84.0078 142.259 82.7013 142.21 81.4478 142.24C74.7782 142.402 68.7729 140.386 63.2842 136.665C59.079 133.814 55.1818 130.619 51.9265 126.694C50.2686 124.695 49.8716 123.679 49.7778 120.772Z" fill="#291F10"/>
<path d="M158.784 123.221C158.621 122.632 158.44 122.356 158.509 122.174C160.376 117.206 159.023 112.562 157.339 107.844C154.59 100.137 150.478 93.2851 145.119 87.1434C144.788 86.7641 144.449 86.3862 144.164 85.973C143.794 85.4362 143.508 84.8186 144.218 84.3583C144.672 84.0637 145.197 84.2254 145.595 84.5916C146.057 85.0171 146.53 85.4423 146.926 85.9266C151.169 91.1145 155.051 96.5273 157.372 102.899C158.751 106.686 160.418 110.376 161.184 114.367C161.799 117.568 161.81 120.615 158.784 123.221Z" fill="#291F10"/>
<path d="M65.3485 53.0095C63.3845 57.7545 61.2504 61.5548 58.8562 65.2281C57.823 66.8133 56.8631 68.4526 55.9662 70.1191C52.3532 76.8328 52.4669 83.6528 55.4833 90.532C55.5848 90.7633 55.7166 90.9813 55.8183 91.2126C56.0972 91.8469 56.1717 92.4532 55.3785 92.7582C54.6462 93.0398 54.1572 92.6332 53.8549 92.0268C53.4049 91.1241 52.8716 90.2279 52.6245 89.2646C50.4169 80.6606 51.0448 72.5541 56.5762 65.1515C58.6773 62.3395 60.7946 59.4786 62.1456 56.1628C62.6187 55.0014 63.3174 53.9404 65.3485 53.0095Z" fill="#291F10"/>
<path d="M23.1846 89.7896C23.3307 92.6524 23.558 95.5139 23.6073 98.3784C23.7442 106.333 25.8548 113.824 28.7396 121.155C29.1579 122.218 30.5438 123.747 29.0013 124.422C26.9369 125.325 27.0851 122.92 26.6788 121.862C22.9749 112.219 20.9128 102.296 22.0307 91.8939C22.0846 91.3924 22.1133 90.8863 22.2033 90.3913C22.2455 90.1596 22.4063 89.9494 22.5134 89.7295C22.7371 89.7496 22.9609 89.7696 23.1846 89.7896Z" fill="#291F10"/>
<path d="M156.967 76.0276C159.608 77.4238 160.651 79.9612 162.063 82.1183C165.521 87.4054 168.469 92.9597 170.101 99.122C170.927 102.244 170.799 104.639 169.659 107.505C168.504 107.376 168.774 106.404 168.764 105.769C168.637 97.3288 164.712 90.2923 160.468 83.4006C159.488 81.8091 158.604 80.1095 157.188 78.7928C156.506 78.1582 156.214 77.325 156.967 76.0276Z" fill="#291F10"/>
<path d="M138.806 77.1978C136.787 76.9539 135.294 75.9864 133.79 75.1685C126.564 71.2409 119.287 71.6037 111.927 74.7135C110.969 75.1187 109.7 76.4576 108.997 75.1021C108.264 73.6881 110.108 73.3729 111.018 73.0026C120.278 69.2336 129.225 69.4115 137.614 75.401C138.078 75.7322 138.821 75.9152 138.806 77.1978Z" fill="#291F10"/>
<path d="M118.952 142.322C115.997 146.748 113.024 151.116 108.342 153.881C107.242 154.531 106.132 155.091 104.816 155.032C104.315 155.01 103.776 154.937 103.621 154.358C103.421 153.608 103.878 153.028 104.516 152.961C109.48 152.432 111.766 148.33 114.807 145.273C116.021 144.052 117.046 142.669 118.952 142.322Z" fill="#291F10"/>
<path d="M111.133 127.076C111.137 127.691 111.134 128.203 110.489 128.244C109.873 128.283 109.661 127.818 109.627 127.317C109.593 126.822 109.758 126.361 110.338 126.261C111.114 126.128 110.875 126.886 111.133 127.076Z" fill="#291F10"/>
</svg>
