<svg width="200" height="200" viewBox="0 0 200 200" fill="none" xmlns="http://www.w3.org/2000/svg">
<path d="M90.7397 98.3689C89.3932 104.496 89.3933 110.835 90.331 117.033C91.2446 123.089 93.0479 129.003 95.2118 134.752C96.4621 138.111 97.8566 141.399 99.2752 144.687C99.3954 144.971 99.8522 145.042 100.093 144.9C100.405 144.711 100.429 144.379 100.309 144.096C97.8806 138.442 95.5484 132.741 93.8173 126.85C92.0861 121.031 90.932 115.023 90.884 108.943C90.8599 105.513 91.1725 102.059 91.9178 98.7001C92.0621 97.9431 90.884 97.6355 90.7397 98.3689Z" fill="black"/>
<path d="M66.4318 98.2033C62.681 101.515 58.3531 104.212 53.6887 106.104C52.3663 106.648 50.9958 107.122 49.6253 107.547C49.1685 107.689 49.0723 108.21 49.3609 108.541C50.8516 110.221 52.9193 111.356 55.1313 111.805C56.2373 112.042 57.3674 112.089 58.4974 111.971C59.0745 111.9 59.6275 111.805 60.2045 111.64C60.7575 111.474 61.3345 111.143 61.9356 111.143C62.4646 111.143 62.9214 111.522 63.1859 111.947C63.5706 112.562 63.6908 113.319 63.811 114.029C63.8591 114.289 64.1477 114.455 64.3881 114.455C68.3793 114.715 72.3946 114.313 76.2416 113.296C80.0405 112.302 83.7672 110.741 87.0371 108.588C88.7442 107.453 90.3071 106.01 91.0043 104.046C91.1005 103.739 90.8841 103.408 90.5956 103.313C90.259 103.218 89.9704 103.431 89.8502 103.715C89.2972 105.276 88.0229 106.459 86.6765 107.382C85.1617 108.423 83.5027 109.298 81.8197 110.079C78.3814 111.64 74.6547 112.657 70.9039 113.083C68.74 113.319 66.576 113.39 64.4121 113.248C64.6045 113.39 64.7968 113.532 64.9892 113.674C64.7728 112.397 64.4121 111.048 63.234 110.291C62.681 109.937 62.0318 109.842 61.3826 109.984C60.7575 110.102 60.1805 110.386 59.5794 110.552C57.4876 111.072 55.1794 110.788 53.2319 109.889C52.1018 109.345 51.0679 108.612 50.2505 107.666C50.1543 107.997 50.0822 108.328 49.986 108.659C54.963 107.145 59.6755 104.827 63.8591 101.775C65.0613 100.9 66.2154 99.9775 67.3454 99.0076C67.8744 98.5345 67.0088 97.7066 66.4318 98.2033Z" fill="black"/>
<path d="M89.3946 107.973C87.0864 110.481 84.7782 112.988 82.47 115.496C81.941 116.063 82.8066 116.891 83.3115 116.324C85.6197 113.816 87.9279 111.309 90.2361 108.801C90.765 108.257 89.9235 107.405 89.3946 107.973Z" fill="black"/>
<path d="M91.7984 76.6058C86.1241 74.4294 80.1132 73.2703 74.1263 72.2294C67.9712 71.1649 61.816 70.1477 55.8051 68.4445C49.7942 66.7413 43.9276 64.565 38.0369 62.4596C32.1943 60.3779 26.3277 58.3435 20.2928 56.9241C17.2873 56.2145 14.2578 55.694 11.2043 55.3392C8.2229 54.9844 5.14533 54.7478 2.23605 55.5521C1.56283 55.7413 0.913656 55.9779 0.288523 56.2618C8.59865e-08 56.4037 -0.0721308 56.8059 0.0721307 57.0661C3.34206 62.9564 7.2852 68.4682 11.8775 73.4359C16.3977 78.3563 21.5671 82.7326 27.2895 86.2573C33.0599 89.8294 39.3834 92.4078 45.8992 94.3003C52.8478 96.3347 59.9887 97.825 67.1297 99.0315C74.2466 100.214 81.5798 100.758 88.6967 99.3153C89.5623 99.1498 90.4279 98.9369 91.2934 98.7003C92.0388 98.4874 91.7262 97.3519 90.9809 97.5648C84.0804 99.4573 76.8433 99.268 69.7985 98.2745C66.2401 97.7541 62.7056 97.0917 59.1953 96.3584C55.6849 95.6487 52.2226 94.8207 48.7604 93.8982C42.2446 92.124 35.8971 89.8294 30.0064 86.4939C24.2359 83.2294 19.0185 79.066 14.4021 74.3585C9.7136 69.6037 5.67428 64.2811 2.30818 58.58C1.89944 57.8704 1.4907 57.1607 1.08196 56.451C1.00983 56.7112 0.937699 56.9951 0.865569 57.2553C3.55845 56.0016 6.68411 56.0489 9.56934 56.3327C12.5988 56.6166 15.6283 57.0897 18.5857 57.7521C24.5725 59.0532 30.367 60.9929 36.1134 63.0273C41.932 65.0854 47.7265 67.2854 53.6653 69.0596C59.58 70.8337 65.6149 71.9692 71.6979 73.0101C77.6367 74.0273 83.6476 75.0445 89.37 76.9843C90.0672 77.2208 90.7885 77.481 91.4618 77.7412C92.2071 78.0251 92.5197 76.8896 91.7984 76.6058Z" fill="black"/>
<path d="M92.0383 97.9668C91.6055 95.6012 93.0241 93.4248 94.4427 91.6743C94.8274 91.1775 95.2121 90.6808 95.4284 90.0894C95.6448 89.4743 95.6208 88.812 95.4765 88.1733C95.3323 87.5346 95.0678 86.9195 94.8274 86.3045C94.5869 85.6894 94.3705 85.098 94.1301 84.483C93.3367 82.283 92.7115 79.8937 93.3367 77.5518C93.6252 76.5346 94.1301 75.6593 94.8995 74.9024C95.5968 74.1927 96.4623 73.4357 96.7028 72.4185C96.847 71.7325 96.6306 71.1411 96.4142 70.5024C96.2219 69.9819 96.2459 69.5325 96.5825 69.1067C97.4241 68.0422 99.035 68.2078 100.237 68.3024C100.55 68.326 100.838 68.0185 100.838 67.711C100.838 67.3798 100.574 67.1433 100.237 67.1196C98.9388 67.025 97.4962 66.9304 96.3662 67.711C95.3082 68.4443 94.8033 69.6035 95.2361 70.8336C95.4044 71.3067 95.6448 71.7561 95.4765 72.2766C95.3323 72.726 94.9957 73.1045 94.6831 73.4357C93.9137 74.24 93.1203 74.997 92.6394 76.0378C91.5815 78.3088 91.7738 80.8873 92.447 83.2292C92.8317 84.5303 93.3367 85.8077 93.8416 87.0851C94.082 87.6765 94.3465 88.3152 94.3705 88.9776C94.3946 89.5926 94.1301 90.0894 93.7935 90.5625C93.3847 91.1302 92.9279 91.627 92.5432 92.1947C92.1345 92.7625 91.7738 93.3775 91.4853 94.0162C90.8842 95.3646 90.5957 96.8076 90.8842 98.2743C90.9323 98.5818 91.341 98.7711 91.6296 98.6764C91.9421 98.6055 92.0864 98.2979 92.0383 97.9668Z" fill="black"/>
<path d="M108.052 98.7237C109.374 104.685 109.398 110.859 108.461 116.891C107.523 122.947 105.72 128.838 103.556 134.586C102.354 137.803 101.031 140.973 99.6608 144.119C99.5406 144.403 99.5646 144.758 99.8772 144.924C100.142 145.065 100.574 145.018 100.695 144.711C103.171 138.986 105.551 133.167 107.331 127.182C109.086 121.244 110.288 115.094 110.312 108.872C110.336 105.347 109.975 101.823 109.206 98.3926C109.062 97.6592 107.884 97.9668 108.052 98.7237Z" fill="black"/>
<path d="M132.649 99.0786C136.544 102.509 141.016 105.276 145.825 107.264C147.195 107.831 148.566 108.328 149.984 108.754C149.888 108.423 149.816 108.091 149.72 107.76C148.229 109.416 146.185 110.481 143.973 110.812C142.915 110.977 141.833 110.954 140.776 110.741C140.198 110.623 139.645 110.433 139.092 110.244C138.467 110.031 137.818 109.937 137.193 110.197C135.678 110.788 135.246 112.373 134.981 113.793C135.173 113.651 135.366 113.509 135.558 113.367C131.759 113.603 127.912 113.248 124.21 112.302C120.555 111.38 116.996 109.889 113.823 107.855C112.26 106.861 110.721 105.584 110.096 103.81C110 103.502 109.687 103.313 109.351 103.408C109.062 103.479 108.822 103.833 108.942 104.141C109.567 105.891 110.865 107.216 112.356 108.304C113.895 109.416 115.602 110.339 117.333 111.119C120.964 112.799 124.859 113.887 128.85 114.36C131.062 114.62 133.322 114.691 135.558 114.55C135.799 114.526 136.087 114.384 136.135 114.124C136.303 113.13 136.52 111.663 137.674 111.285C138.227 111.096 138.804 111.427 139.333 111.593C139.862 111.758 140.391 111.9 140.944 111.971C143.204 112.302 145.536 111.924 147.58 110.907C148.71 110.339 149.744 109.558 150.585 108.612C150.874 108.281 150.778 107.76 150.321 107.618C145.488 106.152 140.896 103.857 136.832 100.924C135.678 100.096 134.572 99.1969 133.514 98.2743C132.937 97.7302 132.072 98.5582 132.649 99.0786Z" fill="black"/>
<path d="M109.71 108.825C112.019 111.332 114.327 113.84 116.635 116.347C117.164 116.915 118.005 116.064 117.476 115.519C115.168 113.012 112.86 110.504 110.552 107.997C110.047 107.406 109.205 108.257 109.71 108.825Z" fill="black"/>
<path d="M108.461 77.7647C114.087 75.612 120.026 74.4529 125.964 73.4357C132.023 72.3948 138.106 71.4013 144.045 69.7217C150.008 68.0422 155.826 65.9131 161.645 63.8078C167.391 61.7497 173.162 59.7153 179.101 58.2723C182.082 57.539 185.087 56.9476 188.141 56.5928C191.098 56.2379 194.152 55.9067 197.085 56.6164C197.758 56.782 198.432 56.9949 199.057 57.3024C198.985 57.0422 198.913 56.7584 198.84 56.4981C195.619 62.2938 191.748 67.7346 187.227 72.6314C182.755 77.4808 177.682 81.7862 172.056 85.2636C166.358 88.7647 160.154 91.3195 153.735 93.1883C146.858 95.199 139.837 96.6657 132.769 97.8721C125.772 99.0549 118.511 99.6227 111.514 98.1797C110.673 98.0141 109.831 97.8012 109.014 97.5646C108.268 97.3517 107.956 98.5109 108.701 98.7001C115.698 100.64 123.031 100.451 130.172 99.4571C133.754 98.9603 137.313 98.2743 140.871 97.541C144.454 96.8076 148.036 95.9797 151.571 95.0098C158.183 93.212 164.626 90.87 170.613 87.4872C176.432 84.1991 181.745 79.9884 186.41 75.2335C191.146 70.4314 195.234 65.0142 198.672 59.2422C199.105 58.5089 199.514 57.7756 199.922 57.0422C200.067 56.782 200.019 56.3799 199.706 56.2379C196.989 54.9605 193.936 54.8659 190.978 55.1024C187.925 55.339 184.895 55.8121 181.89 56.4272C175.807 57.6809 169.916 59.6207 164.073 61.6788C158.183 63.7605 152.34 65.9605 146.377 67.782C140.39 69.6035 134.259 70.7626 128.104 71.8271C122.093 72.868 116.058 73.8615 110.264 75.8249C109.567 76.0615 108.845 76.3217 108.172 76.5819C107.427 76.9131 107.739 78.0486 108.461 77.7647Z" fill="black"/>
<path d="M109.062 98.3215C109.543 95.6958 108.269 93.2592 106.658 91.2485C106.297 90.8227 105.912 90.3732 105.696 89.8528C105.456 89.2614 105.576 88.6463 105.744 88.0549C106.153 86.7775 106.706 85.5474 107.139 84.27C107.932 81.9281 108.413 79.3496 107.619 76.9367C107.259 75.8012 106.61 74.8786 105.768 74.027C105.167 73.4356 104.205 72.655 104.374 71.7324C104.494 71.0464 104.903 70.4787 104.83 69.769C104.758 69.1066 104.422 68.5152 103.941 68.0894C102.763 67.0486 101.176 67.0722 99.6851 67.1905C99.3725 67.2142 99.084 67.4507 99.084 67.7819C99.084 68.0894 99.3485 68.397 99.6851 68.3733C100.791 68.2787 102.186 68.1131 103.099 68.9174C103.412 69.2013 103.676 69.5797 103.652 70.0292C103.628 70.5969 103.268 71.1174 103.195 71.6851C103.051 72.7733 103.748 73.6722 104.47 74.4055C105.191 75.1625 105.912 75.8485 106.321 76.8184C107.235 78.9948 106.826 81.4077 106.129 83.584C105.72 84.8377 105.215 86.0442 104.758 87.2743C104.542 87.8893 104.35 88.528 104.35 89.1668C104.374 89.8055 104.59 90.4205 104.927 90.9409C105.287 91.5087 105.744 91.9818 106.153 92.5259C106.562 93.07 106.922 93.6614 107.235 94.2764C107.812 95.4119 108.124 96.713 107.884 97.9904C107.836 98.2979 107.98 98.6291 108.293 98.7237C108.629 98.7947 109.014 98.6291 109.062 98.3215Z" fill="black"/>
<path d="M102.642 67.2142C102.593 67.2142 102.569 67.2379 102.618 67.2142C102.618 67.2142 102.545 67.1669 102.593 67.1906C102.666 67.2379 102.618 67.1433 102.618 67.2142C102.618 67.1196 102.569 67.0723 102.642 66.9777C102.593 67.0723 102.714 66.9067 102.738 66.8831C102.786 66.8357 102.858 66.8121 102.906 66.7884C103.098 66.7175 103.315 66.6702 103.507 66.6465C104.613 66.4809 105.719 66.3626 106.825 66.197C109.109 65.8895 111.369 65.6056 113.654 65.2981C114.952 65.1325 116.226 64.9669 117.525 64.7777C117.837 64.7304 118.029 64.3282 117.933 64.0444C117.837 63.7132 117.525 63.5949 117.188 63.6422C114.615 63.9734 112.043 64.3282 109.47 64.6594C108.172 64.825 106.897 64.9906 105.599 65.1798C104.95 65.2745 104.301 65.3454 103.651 65.44C103.146 65.511 102.593 65.5583 102.137 65.8422C101.68 66.1261 101.343 66.6228 101.391 67.1669C101.415 67.6873 101.752 68.2314 102.329 68.3261C102.642 68.3734 102.978 68.2551 103.074 67.9239C103.146 67.6637 102.978 67.2615 102.642 67.2142Z" fill="black"/>
<path d="M97.7615 68.3734C98.7953 68.2078 98.9156 66.8121 98.3145 66.1734C97.9298 65.7712 97.4008 65.6293 96.8719 65.5347C96.2708 65.44 95.6456 65.3691 95.0205 65.2981C92.4478 64.9669 89.8752 64.6121 87.3025 64.2809C85.8359 64.0917 84.3692 63.9024 82.9025 63.6895C82.59 63.6422 82.2534 63.7605 82.1572 64.0917C82.0851 64.3755 82.2534 64.7777 82.5659 64.825C87.1102 65.4164 91.6304 66.0314 96.1746 66.6228C96.5833 66.6701 97.1363 66.6938 97.4489 67.0013C97.521 67.0723 97.473 67.025 97.4489 67.025C97.4249 66.9777 97.4729 67.0723 97.4729 67.0959C97.4729 67.0959 97.4729 67.1906 97.4729 67.2142L97.4489 67.2615C97.4489 67.2379 97.497 67.2379 97.497 67.2379C97.4008 67.3088 97.5451 67.2379 97.4249 67.2615C97.1123 67.3088 96.9199 67.711 97.0161 67.9949C97.1123 68.2787 97.4249 68.4207 97.7615 68.3734Z" fill="black"/>
<path d="M93.384 78.9948C93.5042 79.0657 93.4321 78.0959 93.4321 77.9066C93.2157 78.1432 93.4081 79.255 93.384 78.9948Z" fill="black"/>
<path d="M91.3635 81.3368L91.3875 80.9346L91.123 81.9282L91.3635 81.3368Z" fill="black"/>
<path d="M89.3926 81.4077C89.6571 83.0872 90.0898 81.1001 90.4745 81.6915L90.5467 82.07L90.6428 80.698C90.2341 80.9346 89.7051 81.8571 89.3926 81.4077Z" fill="black"/>
<path d="M88.1902 77.7883C88.2864 78.4507 87.9979 78.3561 88.4306 77.9776C88.4066 77.9066 88.4066 77.8593 88.3826 77.812C88.3585 77.8356 88.2864 77.8356 88.1902 77.7883Z" fill="black"/>
<path d="M88.3828 77.8356C88.2385 77.2916 88.5992 77.7647 88.3828 77.8356V77.8356Z" fill="black"/>
<path d="M87.4455 78.2378L87.6859 77.6465C87.6138 77.268 87.3733 77.1733 87.4455 76.8895C87.205 77.2206 87.2772 77.5991 87.4455 78.2378Z" fill="black"/>
<path d="M87.252 79.468L87.3722 79.2078C87.3481 79.0658 87.3 79.0185 87.252 79.468Z" fill="black"/>
<path d="M87.6616 78.6873L87.373 79.2313C87.4211 79.4916 87.4452 80.0593 87.4933 79.0421C87.4933 79.5389 87.5414 79.0421 87.6616 78.6873Z" fill="black"/>
<path d="M87.8301 78.9474C87.9984 79.3023 88.2148 79.5388 87.9503 80.1302C88.4552 79.87 88.335 78.6872 87.8301 78.9474Z" fill="black"/>
<path d="M89.345 83.1582L89.5614 83.655L89.7056 83.0872C89.6575 83.3474 89.3209 82.6378 89.345 83.1582Z" fill="black"/>
<path d="M85.7383 77.4099C85.7383 77.7647 85.8585 78.3561 85.8825 78.8292L86.0749 78.4034C85.9787 78.1668 85.7623 77.9539 85.7383 77.4099Z" fill="black"/>
<path d="M85.9057 78.8292L85.6172 79.4443C85.8817 79.5152 85.9298 79.2314 85.9057 78.8292Z" fill="black"/>
<path d="M87.2524 81.3604L87.7093 80.0356L87.1562 81.384L87.2524 81.3604Z" fill="black"/>
<path d="M84.6085 77.4099L84.7528 76.5819L84.4883 77.8357L84.6085 77.4099Z" fill="black"/>
<path d="M83.8622 77.5755C83.9584 76.8895 83.6699 76.4163 83.7901 75.9905C83.5977 76.1088 83.4294 76.7239 83.2852 77.2443C83.4294 76.9368 83.6218 77.0077 83.8622 77.5755Z" fill="black"/>
<path d="M83.0215 78.0249C83.0936 77.8593 83.1898 77.5518 83.2619 77.2443C83.1898 77.4099 83.1177 77.6228 83.0215 78.0249Z" fill="black"/>
<path d="M85.0887 79.3024C85.0646 79.0895 84.9925 78.5217 84.8242 78.2852L84.9685 79.3024C85.0166 79.2787 85.0646 79.3024 85.0887 79.3024Z" fill="black"/>
<path d="M84.993 79.326V79.3023C84.8728 79.2787 84.7766 79.255 84.7285 79.255C84.7526 79.255 84.8487 79.2787 84.993 79.326Z" fill="black"/>
<path d="M85.1373 79.3023H85.1133C85.1133 79.3969 85.1133 79.4206 85.1373 79.3023Z" fill="black"/>
<path d="M86.4361 80.4615C86.2678 81.0293 85.9312 81.6443 86.3159 82.4959C86.4121 81.8099 86.1957 81.3132 86.4361 80.4615Z" fill="black"/>
<path d="M85.3047 80.556L85.6413 80.7689C85.6173 80.5087 85.5692 80.1066 85.6413 79.8227L85.3047 80.556Z" fill="black"/>
<path d="M85.1602 80.8873L85.3044 80.5561L85.1842 80.4851L85.1602 80.8873Z" fill="black"/>
<path d="M83.5988 78.9476C83.4786 79.397 83.3343 79.4207 83.166 79.5153C83.3584 79.7045 83.5507 79.8228 83.719 79.7992C83.719 79.4916 83.7912 78.9239 83.5988 78.9476Z" fill="black"/>
<path d="M84.2721 79.2313C84.2721 79.255 84.248 79.255 84.248 79.2786C84.2721 79.3733 84.2721 79.3969 84.2721 79.2313Z" fill="black"/>
<path d="M81.4824 79.5389C81.4824 79.6099 81.5065 79.6572 81.5065 79.7282C81.5065 79.6572 81.5065 79.6099 81.5065 79.5626L81.4824 79.5389Z" fill="black"/>
<path d="M83.743 79.9884C83.8872 80.1777 83.9594 79.9411 84.0315 79.6099C83.9353 79.7045 83.8151 79.7755 83.7189 79.7992C83.6949 79.9411 83.6949 80.0357 83.743 79.9884Z" fill="black"/>
<path d="M82.5645 78.498C82.6366 78.7109 82.7328 78.8765 82.8049 79.0421C82.7568 78.7346 82.5885 78.2378 82.5645 78.498Z" fill="black"/>
<path d="M84.1998 78.9948C84.1998 78.9712 84.2239 78.9712 84.2239 78.9475C84.1517 78.7346 84.1758 78.8529 84.1998 78.9948Z" fill="black"/>
<path d="M84.1996 78.9949C84.1274 79.1368 84.0793 79.397 84.0312 79.6099C84.1034 79.539 84.1755 79.4207 84.2476 79.2787C84.2236 79.2078 84.1996 79.0895 84.1996 78.9949Z" fill="black"/>
<path d="M81.0495 86.0205C81.0735 85.0743 81.4102 84.2227 81.7468 85.2162C82.0593 84.5065 81.7948 81.4313 81.5063 79.7044C81.5063 80.1066 81.5063 80.4851 81.1938 81.0528C81.314 81.5732 81.9151 82.2356 81.6506 83.0872C81.2418 83.584 81.2899 82.756 81.0976 82.2592C81.2899 83.4184 80.5927 83.9625 80.6888 85.6893L81.0495 85.0743C81.0735 85.3581 80.9533 85.784 81.0495 86.0205Z" fill="black"/>
<path d="M82.1069 79.7992L82.2272 79.6809C82.0829 79.5153 81.9627 79.1368 81.7703 78.4271C81.5539 78.8766 81.5299 79.2314 81.5059 79.5389L82.131 79.6572L82.1069 79.7992Z" fill="black"/>
<path d="M82.8056 79.6809C82.7334 80.6981 82.4209 81.1476 82.6373 82.2357C83.022 82.1648 82.8777 81.3841 83.0941 80.9347C82.493 81.1949 83.2624 80.3669 82.8056 79.7992C82.9258 79.6336 83.022 79.5626 83.1181 79.5153C82.9979 79.397 82.9017 79.2551 82.7815 79.0659C82.7815 79.0895 82.7815 79.1132 82.8056 79.1368C82.8056 79.1368 82.8056 79.1368 82.8056 79.1605C82.8296 79.2788 82.8536 79.3734 82.8056 79.3024C82.8056 79.3261 82.8056 79.3261 82.7815 79.3261C82.8296 79.4207 82.8296 79.539 82.8056 79.6809C82.6132 79.468 82.7815 79.4207 82.8296 79.2788C82.8296 79.2314 82.8296 79.1841 82.8296 79.1368V79.1132L82.2285 79.6809C82.3728 79.8228 82.5411 79.7992 82.8056 79.6809Z" fill="black"/>
<path d="M86.05 84.6959C86.026 84.6013 86.026 84.5303 86.026 84.4594C86.002 84.6013 85.9779 84.6723 86.05 84.6959Z" fill="black"/>
<path d="M85.7855 84.1045C85.8336 83.9626 85.8577 83.5604 86.0019 83.655C86.1462 83.9626 86.026 84.1518 86.026 84.483C86.0981 84.1991 86.3145 83.7497 86.026 83.2529L85.9779 83.3948C85.7134 83.0636 85.3527 81.7862 85.4008 81.6443C85.497 82.5432 85.5932 83.2056 85.7855 84.1045Z" fill="black"/>
<path d="M84.2705 82.1411L83.7656 82.6615L84.0542 83.5367L84.0301 83.0163C84.3186 83.2056 84.2465 82.5669 84.2705 82.1411Z" fill="black"/>
<path d="M81.4098 79.0184L81.4578 77.9539L81.1934 79.4679L81.4098 79.0184Z" fill="black"/>
<path d="M80.7614 79.1604L80.7855 78.2379L80.6172 78.8056L80.7614 79.1604Z" fill="black"/>
<path d="M41.6187 85.3818L41.4023 85.5947C41.4745 85.5474 41.5466 85.4765 41.6187 85.3818Z" fill="black"/>
<path d="M42.6752 85.7603L42.8195 85.3345C42.6993 85.5474 42.6271 85.713 42.6752 85.7603Z" fill="black"/>
<path d="M64.8913 78.6163C64.7711 77.7174 64.723 76.3454 64.6028 77.4099L64.5547 78.4271C64.723 78.2615 64.8192 78.3798 64.8913 78.6163Z" fill="black"/>
<path d="M52.9668 82.7797C52.9668 82.8743 52.9668 82.9926 52.9668 83.0872C53.1111 82.7561 53.2313 82.4485 53.3515 82.1647C53.2072 82.3539 53.087 82.5668 52.9668 82.7797Z" fill="black"/>
<path d="M51.8122 86.8722L51.668 86.1625C51.692 86.3991 51.7161 86.6357 51.8122 86.8722Z" fill="black"/>
<path d="M35.2471 84.6485L34.7422 85.5947C35.0307 85.6657 35.0788 85.1453 35.2471 84.6485Z" fill="black"/>
<path d="M74.0519 79.4916C73.8836 79.0895 73.7394 78.9239 73.6191 78.8529C73.8115 79.468 73.9798 80.3432 74.0519 79.4916Z" fill="black"/>
<path d="M45.0327 75.0207C44.8884 75.1863 44.7922 75.3755 44.7441 75.5884C44.8644 75.4465 44.9846 75.2809 45.0327 75.0207Z" fill="black"/>
<path d="M73.0918 78.8529C73.1158 78.9475 73.1399 79.0185 73.188 79.0895C73.3322 78.9239 73.4765 78.782 73.6208 78.8529C73.4765 78.4271 73.3082 78.1432 73.0918 78.8529Z" fill="black"/>
<path d="M14.1839 71.1647C14.208 71.1174 14.208 71.0937 14.232 71.0464C14.1358 71.1174 14.1358 71.141 14.1839 71.1647Z" fill="black"/>
<path d="M17.623 59.1239C17.7433 59.1476 17.8635 59.2422 17.9837 59.3368C17.9597 59.2422 17.8635 59.1476 17.623 59.1239Z" fill="black"/>
<path d="M78.1172 78.7346C78.1412 78.6163 78.2614 78.6636 78.1172 78.7346V78.7346Z" fill="black"/>
<path d="M78.7903 82.7797C78.7662 82.898 78.7422 83.0399 78.7422 83.2765C78.7662 83.0399 78.7662 82.8743 78.7903 82.7797Z" fill="black"/>
<path d="M71.4321 85.1691C71.4081 85.1691 71.4081 85.1691 71.4321 85.1691C71.4321 85.3347 71.4321 85.382 71.4321 85.1691Z" fill="black"/>
<path d="M78.3324 79.2077C78.2843 79.0895 78.2121 78.9712 78.1641 78.9002C78.1881 78.9712 78.2362 79.0658 78.3324 79.2077Z" fill="black"/>
<path d="M78.3086 78.711C78.3567 78.7583 78.4048 78.7819 78.4288 78.8056C78.4529 78.64 78.4288 78.5454 78.3086 78.711Z" fill="black"/>
<path d="M77.9238 78.7819C77.996 78.7583 78.0681 78.8056 78.1402 78.9002C78.1162 78.8292 78.0921 78.7819 78.1162 78.7346C78.0921 78.7583 78.02 78.7583 77.9238 78.7819Z" fill="black"/>
<path d="M26.47 77.2442C26.47 77.2206 26.47 77.1969 26.4941 77.1496C26.1334 77.4335 26.2296 77.4098 26.47 77.2442Z" fill="black"/>
<path d="M59.7949 88.6937C59.7949 88.6937 59.819 88.6701 59.819 88.6464C59.819 88.6228 59.819 88.6228 59.7949 88.5991V88.6937Z" fill="black"/>
<path d="M59.1211 89.3797C59.5539 88.1496 59.6501 88.3389 59.7943 88.6227L60.0828 85.6658L59.1211 89.3797Z" fill="black"/>
<path d="M38.9252 84.9324L39.0213 85.926C38.1558 87.2507 37.9875 86.6593 37.9394 88.0077C38.9011 84.9324 39.4541 88.1023 40.3918 85.027L40.4399 85.7367C40.3918 85.6894 40.3197 85.8787 40.2716 85.8077C40.2956 87.4163 41.2574 83.6787 41.7142 84.2701C41.8585 84.5539 41.8585 85.0507 41.618 85.3819L42.2913 84.7432C42.4115 84.8378 42.2191 85.3582 42.0989 85.2636L42.8443 85.2163L42.8202 85.3109C43.0607 84.8615 43.4934 84.1518 43.6858 83.8679C43.7339 84.3647 43.4934 84.1754 43.4454 84.5776L44.0464 83.9389C43.9743 84.7905 43.4454 85.4765 43.2049 85.2873C42.7 88.4808 43.7339 84.6012 43.9984 86.612L43.5175 86.8959C43.253 88.7174 43.7098 88.1496 43.83 89.3561C43.9022 88.7647 43.782 86.3754 44.4071 85.7131C44.4552 85.9733 44.5754 86.1389 44.9841 85.5711C44.6716 86.683 44.9841 86.4701 45.2727 86.4701L44.8399 87.9367C45.2486 87.6055 45.441 86.8485 45.8016 86.2335C46.0901 86.4701 45.8497 87.6055 45.6814 88.5991C46.1623 88.9776 45.8016 86.683 46.5229 86.5883C46.8115 87.2744 47.2923 86.7539 48.0617 86.0206C48.23 86.612 47.7732 86.8959 47.7732 87.3453L48.3502 86.2572C48.4224 86.3045 48.3022 86.6593 48.23 86.8249C48.5907 86.4227 48.6388 85.3582 49.0956 85.0507C49.6005 83.4658 49.2399 87.6055 50.1776 85.8787C50.1776 86.3281 49.889 86.7539 49.7929 87.3453C50.7306 86.3045 50.5623 86.612 51.4759 85.098L51.6683 86.1625C51.6202 84.9797 52.3415 83.7733 52.9426 82.7797C52.9666 82.212 52.9666 81.7389 52.9666 81.5023L53.712 80.84C53.712 81.1002 53.5437 81.597 53.3032 82.1884C53.3754 82.0701 53.4234 81.9518 53.4956 81.8572C53.5677 82.4486 53.2551 83.2765 52.9185 84.0572C52.9185 83.7496 52.9185 83.4185 52.9185 83.1109C52.5579 83.9625 52.1972 84.9324 52.0289 85.8077C52.101 85.6421 52.2213 85.5238 52.3174 85.4529C52.2213 85.6894 52.1491 85.9023 52.1251 86.0443C52.101 86.2098 52.2453 85.9023 52.4377 85.5475L52.1732 87.227L52.3655 86.5883L52.8945 87.7948C53.8322 86.2572 54.842 83.9152 55.8278 83.4185C55.371 84.5776 55.371 85.3819 55.0584 86.8249C55.1546 85.2636 54.2409 87.3217 53.8562 86.9195C54.0486 87.1324 53.8562 87.7948 53.736 88.0313L54.842 86.8249C54.5775 87.984 54.818 87.7475 54.9382 88.2679C55.2748 85.926 55.8518 86.8486 56.3327 86.1862C56.1884 86.9668 55.9721 87.7475 55.5874 87.4873C55.6835 89.3324 56.6934 84.8615 56.8376 86.4464C56.7415 86.4464 56.7174 86.3281 56.5972 86.7066C56.9578 86.0442 57.4147 86.7066 57.1502 87.369H57.054C57.6551 87.7711 59.0496 87.7238 59.4824 85.7604C59.4584 86.0206 59.0015 88.1496 58.9054 88.5281C59.6748 86.3754 60.3961 84.1991 61.0933 82.0228C60.7327 83.726 60.5163 87.8421 59.819 88.741C59.9393 89.0012 60.0835 89.3088 60.5163 88.7647C60.4442 88.5045 60.6125 86.2572 60.7808 86.1152C60.901 88.0786 60.901 87.1797 61.1655 88.8593C61.0452 88.4808 61.6223 85.8077 61.8387 85.926C61.7425 86.3281 61.5021 88.5754 61.3578 88.8356C61.6944 87.984 62.007 87.1324 62.3436 86.2808C62.1272 86.7303 62.031 88.5044 62.0791 89.2851C62.0791 88.7647 62.6321 89.4034 62.8245 89.1668L62.6321 88.5281C63.3053 89.0012 63.7862 84.8851 64.4354 85.1217C64.2911 85.6658 63.8583 88.4571 64.1709 88.8356C64.4835 87.5109 65.5895 82.3776 66.2627 81.4077L66.3108 82.1884L66.8398 81.3367C66.3829 83.3475 65.1567 87.5819 64.5075 89.1905C64.6999 89.8292 64.4835 90.1131 64.8922 90.0894C64.9644 90.8227 64.5556 91.1776 64.4354 91.2012L65.3491 91.769C65.4693 90.184 66.2146 90.255 66.3108 88.9303L65.1327 90.4679C65.2529 88.8829 66.1425 86.0206 66.7676 86.3754C66.8878 87.0141 66.407 89.1905 66.3589 89.7109C66.5031 89.1668 67.0802 88.7174 67.1042 89.1195L66.7436 89.9475C67.0561 90.5625 67.513 87.8894 67.8255 89.427C67.9698 89.5453 68.1381 91.5087 68.2343 90.5625C68.1141 88.741 68.4747 83.1346 68.7392 81.7862C68.7873 81.9045 69.3643 83.584 69.4845 84.483C69.6288 85.926 68.9075 87.8421 69.0277 89.0722C69.0758 88.6464 69.2441 88.1023 69.3162 87.9367C69.4605 88.3152 69.172 89.2851 69.5326 89.0958C69.7009 87.4873 70.2299 89.2614 69.7731 87.7475C70.1337 87.298 70.1097 88.1023 70.5184 88.055C70.4463 87.0141 71.0714 84.5303 71.408 84.0808C71.3599 84.483 71.408 85.027 71.4321 85.2636C72.1053 85.4292 72.4419 86.1862 73.067 86.2098C73.1151 86.612 73.4036 87.0851 73.2594 87.7711C73.3556 87.4873 73.4517 86.9432 73.6681 86.9195C74.0047 88.3152 73.2113 87.1324 73.4517 88.812C73.4998 87.8894 74.0047 87.5346 74.2933 86.9432C74.2452 85.5002 73.6681 86.6593 73.3556 87.227C73.4277 85.24 73.9807 83.1582 74.6299 82.2593C75.1588 81.7862 74.8222 83.5604 74.9184 83.2765C75.8801 83.655 75.808 79.8228 76.5774 81.2658C76.89 82.5432 76.5534 83.7969 76.6255 84.7195C76.1927 85.1926 75.9763 83.9152 75.7118 83.9625L76.0484 84.5776C75.9042 85.0034 75.6157 85.3109 75.4714 84.9324C75.7118 86.0916 77.1304 85.169 77.8757 86.2335C78.02 85.8077 78.2364 85.3582 78.1402 84.8615L77.8998 85.027C77.6834 84.0098 78.3566 83.6077 78.0441 83.1346C78.3566 82.4249 78.7173 81.2894 79.1501 81.8572L79.2462 83.3002C79.2462 82.8744 78.9577 82.4486 78.8375 82.8744C79.0298 82.2357 79.5348 84.8378 79.7271 82.9453L79.4145 81.9518C79.7271 81.2185 80.1118 79.6808 80.4965 80.1303C80.3042 78.711 80.4003 80.2959 80.1118 78.6163C80.3763 80.698 79.126 78.5217 79.5107 80.7217C79.2222 78.7819 79.0058 79.8937 78.6451 78.2378C78.6451 78.711 78.7654 79.1604 78.4528 78.9239C78.4288 79.0658 78.4047 79.2314 78.3807 79.3497C78.3807 79.326 78.3566 79.326 78.3566 79.3023C78.3566 79.326 78.3566 79.3497 78.3807 79.3497C78.3566 79.4206 78.3566 79.4443 78.3807 79.3733C78.4528 79.5862 78.5249 79.8228 78.549 80.1066C78.3807 81.2185 77.8517 81.1712 77.6834 81.7389C77.4911 81.5023 77.7796 81.1948 77.6594 80.6744L77.3949 81.526C77.3708 80.4615 76.89 79.7518 77.3468 79.1368L76.938 79.0894C76.6976 78.4981 76.3851 78.2615 76.1687 78.6873C75.9763 78.4507 75.6637 79.8464 75.8561 79.0185L75.2069 79.6572V79.397C74.5818 79.255 73.8605 81.1238 73.2113 79.1841C72.9949 79.4443 72.7545 79.7518 72.4179 79.4443L72.3938 78.5217C72.1053 78.8292 71.6244 77.5755 71.4802 78.5217C71.3119 76.0378 70.2299 77.9066 69.7731 77.4572L69.6769 78.6636C69.3643 78.569 69.0277 78.9002 68.5949 79.3497L68.5468 80.4142C68.1381 81.2421 67.7053 79.6099 67.1523 79.6572C67.2245 79.255 67.3447 79.3733 67.4408 79.6335C67.2244 78.4034 66.8397 78.8056 66.4551 79.3023C66.0704 79.7755 65.6616 80.3432 65.4693 79.4443C65.2769 79.8228 65.1807 79.6572 65.1086 79.397C65.1327 79.397 65.1327 79.3733 65.1567 79.3497C65.1327 79.326 65.1327 79.326 65.1086 79.326C65.0605 79.1368 65.0124 78.9239 64.9644 78.7346C64.9884 78.9948 65.0365 79.2077 65.0605 79.326C64.9403 79.326 64.748 79.4443 64.5556 79.6808L64.6277 78.5454C64.6037 78.569 64.6037 78.5454 64.5797 78.569C64.4594 78.1432 64.3873 79.0894 64.3633 79.941C64.2671 80.1066 64.1469 80.3432 64.0507 80.6034C64.1469 78.7583 63.5217 81.1712 63.5939 79.2077C63.3534 80.154 62.6562 79.8228 62.2955 81.7862C62.3196 81.526 62.2955 81.3841 62.3917 81.3841C62.2234 81.1238 62.0791 80.8873 61.8146 81.4077L61.9349 79.9647L61.2376 81.8335C61.1174 80.9346 61.0933 80.4142 61.5021 79.326C60.6365 80.9346 60.925 79.8937 60.1316 81.4787L60.2999 80.5561C60.1076 80.5561 59.6026 81.7389 59.6267 80.9583C59.5786 80.0357 59.0737 79.9174 58.4966 79.7518C57.9196 79.6099 57.2704 79.4443 56.9098 78.5217C56.5491 81.2658 56.6934 77.2206 56.1884 79.3023C56.2606 78.6636 56.1884 78.2615 56.477 77.7411C55.8037 78.2615 55.924 76.5583 55.1546 78.2378C55.2507 77.5755 55.4912 77.3389 55.5152 76.9368C55.4431 77.055 55.2267 77.4572 55.2507 77.055C55.2748 76.6529 55.4431 76.5346 55.5874 76.2744C55.0344 76.2744 54.5294 78.2142 54.0486 80.0357C53.9764 79.1131 53.8081 79.1841 53.3273 80.3432C53.3753 79.7281 53.3754 79.0658 53.76 78.9239C53.5917 78.7819 52.8223 77.7647 52.4136 79.2314C52.4377 78.8529 52.1732 79.0658 52.077 79.2077C51.6683 79.0185 51.6683 78.8765 51.2114 78.9002L51.2595 79.1604C50.6344 80.8873 50.8027 79.4679 50.3939 79.5862L50.442 79.397C49.9852 77.9303 49.9371 79.9174 49.5524 78.2615L49.2879 79.3733C48.5907 81.7152 48.9754 77.812 48.2781 78.5927V79.255C47.7972 79.9884 48.4705 75.8723 48.3022 75.5174C48.3022 75.3045 48.4705 75.2099 48.5907 75.0916C48.3262 73.5303 48.1098 76.511 47.5328 76.7002C47.653 75.8959 48.206 74.7604 47.9175 74.5239C47.9415 73.8615 46.2825 76.7712 46.2585 75.1862C46.1863 75.8013 46.1142 76.44 45.7776 76.8185C45.3688 76.9368 45.4891 74.311 44.6475 76.1088C44.6475 75.9432 44.6716 75.7776 44.7197 75.6357C44.3109 76.0378 43.6377 76.2034 43.1809 77.1733C44.0224 73.3411 41.017 78.5454 42.0508 75.068L41.2093 75.0206L41.3295 74.6658C40.8967 74.2873 40.464 75.068 40.0312 75.8486C39.9831 75.5884 40.1754 75.2809 40.2476 75.0916C39.7426 74.169 39.6224 74.311 38.4683 75.8249L38.7809 74.6895C38.5886 74.997 38.4683 74.4766 38.276 74.0034C38.0596 73.554 37.7711 73.1518 37.2181 73.6723C37.2662 73.554 37.3623 73.3411 37.4585 73.1991C36.8334 73.7196 36.641 72.797 36.4246 72.2293C36.1842 71.6615 35.8957 71.4486 34.982 73.4121L34.0924 74.1927C34.6454 74.7604 33.299 75.8723 33.323 76.6529C32.9624 76.7948 33.1066 75.1862 33.5154 75.1153L33.4913 75.3282C34.429 73.2938 32.9624 74.2637 33.5634 72.868C32.9143 72.6787 32.4094 72.1346 31.9525 71.5906C31.8323 71.4486 31.7361 71.3303 31.6159 71.1884C31.5197 71.0465 31.3995 70.9282 31.2793 70.7863C31.0629 70.526 30.8225 70.3131 30.558 70.1712L29.8848 71.7798C29.7646 71.6852 29.6443 71.5906 29.5482 71.4959C29.6443 71.0938 30.0531 70.2422 30.2935 70.4314C30.6061 69.4852 29.452 70.9282 29.2596 71.2357C29.1635 70.7863 29.476 70.3604 29.7646 70.0529C30.0771 69.7454 30.3657 69.5088 30.2935 69.4379H30.029L29.981 69.6508C29.476 70.1712 29.0673 70.8336 28.8028 70.5734C28.7788 70.1712 29.2356 69.5798 29.1875 69.4852C29.2596 69.3906 29.2596 69.3196 29.0913 69.3669C28.9711 69.2486 28.8509 69.1067 28.7307 68.9648L28.2017 70.2422C27.6487 70.6916 27.817 69.911 27.2159 71.3777C27.6728 70.2658 27.3842 69.8164 26.9755 69.5562C26.5908 69.2723 26.0859 69.1777 26.2302 68.8228C25.7974 69.1303 25.5089 69.2486 25.3165 69.225C25.1001 69.2013 24.9799 69.0594 24.8597 68.8938C24.7635 69.1777 23.8739 70.4314 23.6815 70.0529C24.7395 68.8465 24.8116 68.468 24.8116 68.1605C24.7875 67.8529 24.6673 67.5927 25.3165 66.6465C24.499 67.9712 24.3788 66.3153 23.2007 68.1605C23.1526 67.782 23.9941 67.2615 24.3307 66.5755C23.6815 66.8121 23.5132 66.4336 23.4651 65.9368C23.4171 65.4637 23.4411 64.9196 23.0324 64.7777C22.7198 65.0379 22.3351 65.582 21.734 65.8658C22.1668 65.2981 22.5996 64.7304 23.0564 64.1626C22.816 64.1863 21.1089 65.6056 22.0466 64.4702C21.8061 64.7304 21.4214 65.1089 21.2531 65.1089C21.3253 64.8013 21.3253 64.5411 21.2772 64.3282C21.2291 64.1153 21.1329 63.9261 20.9887 63.7368C20.7242 63.382 20.3154 63.0981 19.9067 62.7433C19.522 62.3884 19.1613 61.9863 18.9209 61.3949C18.7045 60.8035 18.6564 60.0229 18.7286 58.7928C18.6083 59.2186 18.4641 59.4078 18.3439 59.4551C18.2236 59.5024 18.1034 59.4315 17.9832 59.3368C18.0073 59.6207 17.2859 60.0938 16.9253 60.5433C16.9734 60.2358 16.9974 59.9046 17.0215 59.5734C17.0455 59.2659 17.0455 58.9347 17.0455 58.6035C16.4685 59.1713 16.228 59.0293 15.9636 58.8874C15.6991 58.7454 15.4586 58.6035 15.0018 59.2422C15.1461 59.2186 15.2903 59.1949 15.4346 59.1713C14.7614 59.81 14.3767 60.7325 13.9439 61.6788C13.5111 62.625 12.9821 63.6185 12.3089 64.5411C13.0062 63.7841 12.7417 64.5175 12.4532 65.1089C12.3089 65.4164 12.1647 65.6766 12.2128 65.7476C12.2608 65.8422 12.4772 65.7239 13.0783 65.2981C12.8138 65.7003 12.5013 65.7476 12.1406 66.1497C12.91 65.5347 13.1745 65.4874 13.0062 65.9841L12.8138 66.1261C13.1505 66.3153 13.1985 66.6465 13.1505 67.0723C13.1024 67.4981 12.9821 67.9949 13.0543 68.6099L13.9198 67.8766C13.9439 68.1605 13.6794 68.397 13.5111 68.6572C14.2805 68.2551 14.2084 68.1131 14.1362 67.9476C14.0641 67.782 14.016 67.6164 14.8575 67.1433C14.016 67.9476 14.2565 68.2787 14.4969 68.6572C14.6171 68.8465 14.7133 69.0594 14.6892 69.3196C14.6652 69.5798 14.4729 69.911 14.016 70.3604C14.2805 70.7153 14.9537 69.4615 15.2182 69.7927L14.7373 70.3368L15.5067 69.84C15.5789 70.1475 14.9778 70.8336 14.545 71.2121C14.545 71.1174 14.2805 71.1647 14.1843 71.1411C13.992 71.5432 14.2324 71.7088 14.4729 71.8035C14.7373 71.8981 15.0259 71.8981 14.9778 72.04C14.9778 71.8508 15.0018 71.6379 15.0259 71.425C15.3384 71.5432 15.6269 71.7325 15.8674 71.9454C16.1078 72.1583 16.3482 72.3948 16.5887 72.6314C16.7089 72.7497 16.8291 72.8443 16.9734 72.9389C17.1176 73.0336 17.2619 73.1045 17.4302 73.1755C17.7428 73.2938 18.1275 73.3411 18.5603 73.2701L18.8488 72.8207C19.498 72.726 19.522 72.9389 19.498 73.2228C19.498 73.5067 19.4739 73.8142 19.9788 73.9325L19.8827 74.0034C20.3635 73.7196 20.7242 73.6486 20.8684 73.8379C20.2914 74.1927 20.4597 75.068 19.8105 75.4228C20.5078 75.3045 20.7242 75.1862 20.9646 74.9733C21.2291 74.7604 21.5176 74.4292 22.3351 73.7905L21.9264 74.5712C22.5515 74.0271 22.816 73.6959 23.2968 73.7669C22.5755 74.1927 22.7679 75.0206 21.8542 75.612C21.71 76.6765 22.287 76.4873 22.7438 76.3217C23.2007 76.1561 23.5132 76.0615 22.9602 77.3626C24.6433 75.5174 22.9843 75.8013 23.4892 75.4701C23.7537 74.7131 24.7875 74.1217 24.8837 74.4766C24.9799 74.5712 24.6673 75.3045 24.4269 76.0378C24.1865 76.7948 23.9941 77.5755 24.3548 77.7174C24.2826 77.6701 24.1865 77.8357 24.1384 77.7884C24.0903 78.4744 25.052 77.3389 24.8597 78.3798C25.7493 77.197 25.2203 78.6636 26.1821 77.055L25.3646 77.1024C25.6531 76.9841 26.158 76.4873 26.5668 76.1798C26.9755 75.8723 27.3121 75.7303 27.3602 76.3217C27.1438 76.6292 26.7351 77.0077 26.4946 77.1733C26.3985 77.7411 26.9755 77.0077 26.8793 77.5991C26.4225 78.4271 26.1821 78.4271 25.9416 78.3561C25.7012 78.2851 25.4367 78.1196 24.8837 78.64C24.6914 79.4443 26.2542 77.8357 25.1001 79.5152C25.8455 78.4507 25.9897 78.6163 26.0859 78.8292C26.2061 79.0658 26.3263 79.3733 26.9996 78.6163L26.4706 79.6099C26.6149 79.4916 27.0236 79.0894 27.1438 79.1841L26.2542 80.3669C26.7351 79.8937 26.7832 80.2486 26.8072 80.6271C26.8312 81.0292 26.8553 81.4787 27.1679 81.2658C26.3744 80.9346 27.5766 79.9647 27.6247 79.0658C29.1875 78.1196 26.9034 81.9754 28.2017 81.9754C27.9853 82.0464 27.9373 81.1238 28.37 80.7454C28.4662 81.0529 28.5624 81.5497 28.4662 82.1647C29.2837 82.2593 28.8269 81.0529 29.4039 80.5561C29.0913 81.9045 29.981 80.1776 30.4378 79.8937L30.005 80.9583C30.5099 81.9518 31.135 78.8529 31.4957 79.941L30.6061 81.2894L31.135 81.0529L30.582 82.2357C31.3514 81.5023 31.3755 81.7626 31.664 82.2593C31.8564 81.4787 32.4574 80.3432 32.8181 80.4378C32.8181 81.1712 32.2891 81.4077 32.8421 81.4314C32.4815 82.0701 32.0247 82.8507 32.193 81.7862C32.0487 82.1174 31.8323 82.4249 31.664 82.7561C31.64 83.584 32.2651 83.1582 32.4574 83.2292C32.4094 83.1582 32.3372 83.0636 32.3613 82.898C32.7941 82.4959 33.2028 82.0937 33.6356 81.6679C33.6115 82.1174 33.3951 82.4013 33.2028 82.6851C33.3951 82.6142 33.6837 82.1647 33.9241 82.141C33.5634 82.9927 33.2509 83.9152 32.7941 84.1991L33.852 83.4658C33.7558 83.8679 33.852 84.6249 33.6356 84.9324C33.7318 85.2636 34.1405 84.9088 34.5252 84.6012C34.9099 84.2701 35.3186 83.9862 35.4629 84.3883C35.535 84.2228 35.6552 84.0808 35.7995 83.9862C36.2082 84.341 36.3044 85.5711 37.2421 84.5066L37.0738 86.1862C37.6268 85.9496 37.2662 84.0572 38.1798 83.6787C38.853 83.3238 37.9634 85.098 38.0115 85.5948C38.5164 84.8615 39.4541 83.3475 39.5263 84.7905C39.1416 85.1217 39.0935 84.8615 38.9252 84.9324ZM44.4311 85.7131C44.2628 85.926 43.8541 86.5647 43.9743 85.9023C44.4311 84.6722 44.359 85.2873 44.4311 85.7131ZM53.2311 85.098C53.0628 85.4529 52.9907 85.24 52.9426 84.7905C53.0868 84.7195 53.183 84.7668 53.2311 85.098ZM76.6014 79.6572C76.6014 79.6808 76.6014 79.6808 76.6014 79.7045C76.361 79.255 76.4331 79.4443 76.6014 79.6572ZM77.0583 80.154C77.1064 79.9884 77.1064 79.8464 77.0823 79.6808C77.0583 79.9647 76.938 79.9884 76.8178 79.9174C76.8659 80.2013 76.914 80.3905 77.0583 80.154ZM28.923 69.7927L28.8509 70.1002C28.5143 70.2895 28.7066 70.0529 28.923 69.7927Z" fill="black"/>
<path d="M51.9564 86.3991C51.9804 86.2099 52.0045 85.997 52.0525 85.7841C51.9564 85.9496 51.9083 86.1862 51.9564 86.3991Z" fill="black"/>
<path d="M35.3423 84.483C35.3423 84.4593 35.3423 84.483 35.3423 84.483C35.2942 84.5303 35.2701 84.6013 35.2461 84.6486L35.3423 84.483Z" fill="black"/>
<path d="M69.1957 89.569C69.0995 89.4034 69.0514 89.1905 69.0274 88.9776C69.0033 89.2378 69.0514 89.4744 69.1957 89.569Z" fill="black"/>
<path d="M79.558 78.2142L79.2695 78.5217C79.4138 78.4744 79.4619 78.7109 79.534 78.9002C79.51 78.6163 79.4619 78.2378 79.558 78.2142Z" fill="black"/>
<path d="M82.2995 85.2399C82.3476 85.098 82.3957 85.2163 82.4437 85.0743L82.4197 84.5539C82.2274 84.6012 82.0831 85.027 82.2995 85.2399Z" fill="black"/>
<path d="M79.8477 81.999C79.8717 82.9689 80.064 82.6377 80.2804 82.4485C80.2564 82.4485 80.2564 82.4485 80.2324 82.4485C80.3045 81.1238 80.0881 81.5732 79.8477 81.999Z" fill="black"/>
<path d="M80.3516 82.4249C80.4237 82.3776 80.4958 82.3539 80.5439 82.4013C80.568 81.8572 80.4477 82.283 80.3516 82.4249Z" fill="black"/>
<path d="M77.659 79.5152C77.7552 79.7518 77.7311 78.2851 77.7792 78.6873C77.8994 77.4572 77.106 80.1539 77.659 79.5152Z" fill="black"/>
<path d="M80.064 85.1689L79.9679 83.9861L79.8477 84.9324L80.064 85.1689Z" fill="black"/>
<path d="M78.332 84.2938L78.6686 84.6249C78.6686 84.4357 78.7167 84.3174 78.7648 84.2228C78.5725 84.1755 78.332 83.9626 78.332 84.2938Z" fill="black"/>
<path d="M78.7656 84.2228C78.8858 84.2464 78.982 84.2228 79.0542 84.0335C78.982 84.0335 78.8618 84.0808 78.7656 84.2228Z" fill="black"/>
<path d="M79.5833 85.5237L79.4871 85.2872L79.2227 85.1926L79.5833 85.5237Z" fill="black"/>
<path d="M74.6296 84.0335L74.2449 84.3647C74.1968 84.7668 74.293 85.0271 74.4373 84.8615C74.5335 84.5776 74.6777 84.412 74.6296 84.0335Z" fill="black"/>
<path d="M75.7119 87.298C75.6157 87.0615 75.6157 86.7776 75.5676 86.3991L75.5195 87.8658L75.7119 87.298Z" fill="black"/>
<path d="M74.5827 87.6055C74.5346 88.0077 73.9816 88.7647 74.4865 88.67C74.5346 88.2915 74.9193 87.9604 74.5827 87.6055Z" fill="black"/>
<path d="M68.8594 85.5002H68.9556L69.1239 83.0873L68.8594 85.5002Z" fill="black"/>
<path d="M63.1367 90.7754C63.5455 91.4141 63.4252 89.3088 63.7619 90.0657C63.9302 89.5217 63.4733 89.4507 63.6416 88.9539C63.305 89.5453 63.1848 89.1905 63.1367 90.7754Z" fill="black"/>
<path d="M63.666 88.9775C63.7141 88.8829 63.7862 88.7883 63.8584 88.6227C63.7381 88.7646 63.6901 88.8829 63.666 88.9775Z" fill="black"/>
<path d="M17.0455 57.1368C16.9974 56.9239 16.9493 56.6874 16.9012 56.4745C16.8531 56.7584 16.781 57.0422 16.7329 57.3261L17.0455 57.1368Z" fill="black"/>
<path d="M15.3629 58.2249L16.0601 56.8529C15.7476 57.2077 15.435 57.5862 15.1465 57.9411C15.2427 57.9174 15.4591 57.8938 15.3629 58.2249Z" fill="black"/>
<path d="M44.3828 88.9066L44.503 88.5517C44.5752 88.1496 44.503 88.1023 44.3828 88.0076V88.9066Z" fill="black"/>
<path d="M40.8496 86.7302L40.8977 86.7776L41.1622 85.4055L40.8496 86.7302Z" fill="black"/>
<path d="M37.0254 87.4873C37.1456 87.5819 37.4101 87.3453 37.5303 87.4399C37.1456 87.5819 37.5063 85.8314 37.0254 87.4873Z" fill="black"/>
<path d="M109.06 88.2678C108.94 88.1732 108.94 89.1668 108.916 89.356C109.132 89.1431 109.06 88.0076 109.06 88.2678Z" fill="black"/>
<path d="M111.296 86.1152L111.248 86.5173L111.609 85.5474L111.296 86.1152Z" fill="black"/>
<path d="M113.315 86.2097C113.195 84.5065 112.57 86.4463 112.233 85.8313L112.185 85.4528L111.969 86.8011C112.426 86.6119 113.027 85.7366 113.315 86.2097Z" fill="black"/>
<path d="M114.254 89.9C114.206 89.2377 114.519 89.3323 114.014 89.6871C114.038 89.7581 114.038 89.8054 114.062 89.8527C114.11 89.8527 114.158 89.8527 114.254 89.9Z" fill="black"/>
<path d="M114.061 89.8527C113.844 89.9 114.181 90.4205 114.061 89.8527V89.8527Z" fill="black"/>
<path d="M115.072 89.5216L114.76 90.0894C114.808 90.4678 115.048 90.5861 114.952 90.8463C115.265 90.5388 115.217 90.1603 115.072 89.5216Z" fill="black"/>
<path d="M115.384 88.2915L115.24 88.5281C115.24 88.6937 115.264 88.7646 115.384 88.2915Z" fill="black"/>
<path d="M114.879 89.0484L115.216 88.5279C115.191 88.2441 115.191 87.7 115.071 88.7172C115.119 88.2204 115.023 88.6935 114.879 89.0484Z" fill="black"/>
<path d="M114.735 88.7883C114.59 88.4098 114.398 88.1732 114.686 87.6055C114.133 87.8184 114.181 89.0012 114.735 88.7883Z" fill="black"/>
<path d="M113.484 84.4829L113.292 83.9861L113.1 84.5538C113.196 84.2463 113.484 85.0033 113.484 84.4829Z" fill="black"/>
<path d="M116.802 90.4441C116.826 90.0892 116.73 89.4742 116.73 89.0247L116.514 89.4269C116.61 89.6871 116.802 89.9 116.802 90.4441Z" fill="black"/>
<path d="M116.73 89.0248L117.067 88.4098C116.779 88.3388 116.73 88.6227 116.73 89.0248Z" fill="black"/>
<path d="M115.481 86.4226L114.928 87.7L115.577 86.3989L115.481 86.4226Z" fill="black"/>
<path d="M118.005 90.5151L117.812 91.343L118.149 90.0893L118.005 90.5151Z" fill="black"/>
<path d="M118.798 90.3968C118.653 91.0828 118.942 91.5559 118.798 91.9817C119.014 91.8635 119.23 91.2721 119.399 90.7516C119.23 91.0355 119.038 90.9645 118.798 90.3968Z" fill="black"/>
<path d="M119.712 89.971C119.616 90.1366 119.52 90.4205 119.424 90.728C119.52 90.5861 119.616 90.3732 119.712 89.971Z" fill="black"/>
<path d="M117.596 88.5989C117.62 88.8118 117.644 89.3796 117.812 89.6398L117.716 88.6226C117.668 88.6226 117.62 88.6226 117.596 88.5989Z" fill="black"/>
<path d="M117.717 88.5989V88.6226C117.861 88.6463 117.933 88.6699 117.981 88.6936C117.933 88.6699 117.861 88.6462 117.717 88.5989Z" fill="black"/>
<path d="M117.547 88.5989H117.571C117.571 88.5043 117.571 88.4807 117.547 88.5989Z" fill="black"/>
<path d="M116.273 87.3689C116.466 86.8011 116.875 86.2097 116.538 85.3345C116.37 86.0205 116.562 86.5173 116.273 87.3689Z" fill="black"/>
<path d="M117.427 87.3452L117.114 87.1086C117.114 87.3689 117.163 87.771 117.066 88.0549L117.427 87.3452Z" fill="black"/>
<path d="M117.62 87.014L117.428 87.3452L117.548 87.4161L117.62 87.014Z" fill="black"/>
<path d="M119.158 89.0248C119.302 88.599 119.47 88.5517 119.639 88.4807C119.446 88.2678 119.254 88.1732 119.062 88.1732C119.038 88.4807 118.941 89.0485 119.158 89.0248Z" fill="black"/>
<path d="M118.461 88.7173C118.461 88.6936 118.485 88.6936 118.485 88.67C118.461 88.5753 118.461 88.5517 118.461 88.7173Z" fill="black"/>
<path d="M121.395 88.5279C121.395 88.457 121.371 88.4097 121.371 88.3387C121.371 88.386 121.371 88.457 121.371 88.5043L121.395 88.5279Z" fill="black"/>
<path d="M119.063 87.984C118.918 87.7947 118.822 88.0313 118.75 88.3388C118.87 88.2442 118.966 88.1732 119.087 88.1732C119.087 88.0313 119.087 87.9367 119.063 87.984Z" fill="black"/>
<path d="M120.217 89.5215C120.145 89.3086 120.073 89.1193 119.977 88.9537C120.049 89.2849 120.169 89.7817 120.217 89.5215Z" fill="black"/>
<path d="M118.534 88.9537C118.534 88.9774 118.51 88.9774 118.51 89.001C118.558 89.214 118.534 89.0957 118.534 88.9537Z" fill="black"/>
<path d="M118.534 88.9537C118.606 88.8118 118.678 88.5516 118.75 88.3387C118.654 88.4097 118.582 88.5279 118.51 88.6699C118.51 88.7408 118.51 88.8591 118.534 88.9537Z" fill="black"/>
<path d="M122.02 82.0463C121.996 82.9926 121.611 83.8442 121.298 82.827C120.986 83.5366 121.13 86.6119 121.395 88.3388C121.419 87.9366 121.419 87.5581 121.755 87.014C121.635 86.4936 121.034 85.8076 121.322 84.956C121.755 84.4829 121.683 85.2872 121.875 85.7839C121.707 84.6248 122.453 84.0807 122.356 82.3775L121.972 82.9689C121.972 82.7087 122.116 82.2829 122.02 82.0463Z" fill="black"/>
<path d="M120.746 88.2441L120.602 88.3624C120.746 88.5279 120.866 88.9064 121.058 89.6398C121.299 89.1903 121.347 88.8355 121.371 88.528L120.698 88.386L120.746 88.2441Z" fill="black"/>
<path d="M120.001 88.3387C120.121 87.3215 120.458 86.8957 120.289 85.7839C119.904 85.8548 120.001 86.6355 119.76 87.0613C120.409 86.8247 119.568 87.629 120.025 88.2204C119.904 88.386 119.784 88.4333 119.664 88.4806C119.784 88.5989 119.88 88.7645 119.977 88.9538C119.977 88.9301 119.977 88.9064 119.953 88.8828C119.953 88.8828 119.953 88.8828 119.953 88.8591C119.929 88.7409 119.929 88.6462 119.953 88.7172C119.953 88.6935 119.953 88.6935 119.977 88.6935C119.977 88.5989 119.977 88.457 120.001 88.3387C120.193 88.5516 120.025 88.5989 119.953 88.7172C119.953 88.7645 119.953 88.8118 119.953 88.8591V88.8828L120.602 88.3387C120.482 88.1968 120.313 88.2204 120.001 88.3387Z" fill="black"/>
<path d="M116.947 83.1581C116.971 83.2528 116.971 83.3237 116.971 83.3947C116.995 83.2528 117.019 83.1818 116.947 83.1581Z" fill="black"/>
<path d="M117.186 83.7732C117.138 83.9151 117.09 84.3173 116.946 84.2227C116.825 83.9151 116.97 83.7259 116.97 83.3947C116.874 83.6549 116.633 84.128 116.898 84.6248L116.946 84.4829C117.186 84.8377 117.475 86.1151 117.427 86.2571C117.354 85.3345 117.33 84.6721 117.186 83.7732Z" fill="black"/>
<path d="M118.605 85.8076L119.158 85.3108L118.918 84.4119V84.9323C118.605 84.743 118.654 85.4054 118.605 85.8076Z" fill="black"/>
<path d="M121.467 89.0247L121.371 90.1129L121.708 88.5989L121.467 89.0247Z" fill="black"/>
<path d="M122.163 88.9066L122.115 89.8528L122.308 89.285L122.163 88.9066Z" fill="black"/>
<path d="M158.807 72.6076L158.879 72.3237C158.831 72.3947 158.807 72.4893 158.807 72.6076Z" fill="black"/>
<path d="M157.701 72.8205L157.797 73.27C157.773 73.0097 157.749 72.8205 157.701 72.8205Z" fill="black"/>
<path d="M139.572 88.1259C139.909 88.9775 140.318 90.2785 140.173 89.2377L139.981 88.2205C139.861 88.4334 139.717 88.3388 139.572 88.1259Z" fill="black"/>
<path d="M150.247 80.2249C150.199 80.1302 150.151 80.0356 150.127 79.941C150.151 80.2958 150.175 80.627 150.199 80.9345C150.199 80.7216 150.223 80.4851 150.247 80.2249Z" fill="black"/>
<path d="M149.453 76.0615L149.886 76.6529C149.766 76.4163 149.621 76.2271 149.453 76.0615Z" fill="black"/>
<path d="M164.144 70.0055L164 68.9647C163.76 69.0356 164.024 69.5087 164.144 70.0055Z" fill="black"/>
<path d="M129.354 88.4807C129.57 88.8829 129.738 89.0485 129.882 89.0958C129.618 88.5044 129.402 87.6291 129.354 88.4807Z" fill="black"/>
<path d="M161.186 83.2528C161.235 83.0399 161.211 82.827 161.162 82.6141C161.114 82.8033 161.114 82.9926 161.186 83.2528Z" fill="black"/>
<path d="M130.459 89.0721C130.41 88.9775 130.386 88.9302 130.338 88.8356C130.194 89.0012 130.05 89.1668 129.857 89.0958C130.074 89.5216 130.29 89.7818 130.459 89.0721Z" fill="black"/>
<path d="M180.83 62.1045C180.878 62.1282 180.902 62.1282 180.95 62.1518C180.854 62.0572 180.83 62.0572 180.83 62.1045Z" fill="black"/>
<path d="M192.372 64.7775C192.396 64.8485 192.348 64.8721 192.324 64.9195C192.396 64.9668 192.42 64.9431 192.372 64.7775Z" fill="black"/>
<path d="M124.978 89.3796C124.834 89.4506 124.954 89.4743 124.978 89.3796V89.3796Z" fill="black"/>
<path d="M124.256 85.3109C124.28 85.1926 124.304 85.0506 124.304 84.8141C124.304 85.0506 124.28 85.2162 124.256 85.3109Z" fill="black"/>
<path d="M131.686 82.6378C131.686 82.6378 131.71 82.6378 131.686 82.6378C131.662 82.4249 131.662 82.4722 131.686 82.6378Z" fill="black"/>
<path d="M124.762 88.9066C124.81 89.0248 124.882 89.1431 124.954 89.2141C124.93 89.1195 124.858 89.0248 124.762 88.9066Z" fill="black"/>
<path d="M124.785 89.3796C124.737 89.3323 124.689 89.3086 124.665 89.285C124.641 89.4506 124.665 89.5688 124.785 89.3796Z" fill="black"/>
<path d="M125.194 89.3086C125.097 89.3323 125.025 89.285 124.953 89.214C124.977 89.285 125.001 89.3323 124.977 89.3796C125.025 89.3559 125.097 89.3323 125.194 89.3086Z" fill="black"/>
<path d="M174.339 70.0291C174.363 70.0528 174.387 70.0764 174.411 70.1001C174.339 69.6743 174.315 69.7689 174.339 70.0291Z" fill="black"/>
<path d="M142.023 77.1022V77.1495L142.047 77.1732L142.023 77.1022Z" fill="black"/>
<path d="M142.409 76.2742C142.385 77.5753 142.241 77.4334 142.049 77.1732L142.626 80.0828L142.409 76.2742Z" fill="black"/>
<path d="M161.235 71.6378L160.658 70.8335C160.658 69.2486 161.09 69.6744 160.417 68.5152C161.235 71.6378 159.191 69.1776 159.984 72.3002L159.576 71.7088C159.648 71.7324 159.6 71.5432 159.672 71.5432C158.83 70.1711 159.96 73.8851 159.263 73.5776C158.999 73.3883 158.734 72.9862 158.782 72.584L158.542 73.4593C158.398 73.4356 158.277 72.8916 158.422 72.9152L157.796 73.341L157.772 73.2464C157.796 73.7668 157.772 74.5711 157.772 74.926C157.484 74.5238 157.772 74.5711 157.628 74.1926L157.46 75.0442C157.099 74.2873 157.195 73.412 157.484 73.4593C156.306 70.455 157.388 74.3346 156.137 72.7023L156.378 72.2056C155.681 70.5023 155.584 71.212 154.887 70.2185C155.128 70.7625 156.426 72.7969 156.21 73.6722C156.041 73.4593 155.849 73.3883 155.801 74.0744C155.512 72.9625 155.368 73.2937 155.104 73.4356L154.743 71.969C154.575 72.4658 154.791 73.1991 154.791 73.9088C154.43 73.8378 154.07 72.726 153.757 71.7797C153.18 71.6851 154.575 73.5066 154.046 73.9324C153.469 73.483 153.324 74.1453 153.036 75.1625C152.603 74.7367 152.868 74.2399 152.651 73.8615L152.675 75.0916C152.603 75.0679 152.531 74.7131 152.507 74.5238C152.387 75.0206 152.843 75.9905 152.603 76.4873C152.892 78.1432 151.305 74.2873 151.305 76.227C151.088 75.8249 151.136 75.3045 150.968 74.7604C150.656 76.1088 150.656 75.7539 150.535 77.5044L149.886 76.6292C150.439 77.67 150.343 79.0657 150.247 80.2249C150.487 80.7453 150.68 81.1948 150.8 81.384L150.391 82.3066C150.271 82.07 150.223 81.5496 150.175 80.9109C150.175 81.0528 150.151 81.1711 150.151 81.2894C149.814 80.7926 149.742 79.9173 149.718 79.0421C149.862 79.3259 149.982 79.6335 150.127 79.9173C150.078 78.9948 149.982 77.9776 149.742 77.1023C149.742 77.2915 149.718 77.4335 149.646 77.5518C149.622 77.2915 149.598 77.0786 149.55 76.9367C149.501 76.7948 149.501 77.126 149.501 77.5281L149.021 75.8959L149.141 76.5582L148.203 75.6829C148.059 77.4571 148.107 79.9883 147.386 80.8399C147.362 79.5862 147.049 78.8528 146.76 77.4098C147.289 78.9001 147.265 76.6528 147.746 76.8657C147.482 76.7475 147.41 76.0614 147.41 75.8012L146.929 77.3389C146.712 76.1561 146.592 76.4872 146.304 76.0378C146.905 78.3324 146.039 77.6937 145.871 78.4507C145.703 77.67 145.63 76.8657 146.039 76.984C145.294 75.3045 146.015 79.8227 145.318 78.4034C145.414 78.3797 145.486 78.4743 145.438 78.0722C145.342 78.8055 144.717 78.3561 144.717 77.6464L144.813 77.6227C144.164 77.4335 142.962 77.8829 143.178 79.8937C143.13 79.6335 142.889 77.4808 142.865 77.0786C142.841 79.3733 142.793 81.6442 142.721 83.9388C142.577 82.212 141.639 78.1905 142 77.1496C141.832 76.9367 141.615 76.6528 141.375 77.3152C141.495 77.5518 141.952 79.7517 141.856 79.941C141.23 78.0722 141.447 78.9475 140.774 77.3862C140.966 77.741 141.158 80.4378 140.894 80.3905C140.87 79.9883 140.533 77.741 140.581 77.4571C140.509 78.3561 140.413 79.2786 140.317 80.1776C140.413 79.6808 140.076 77.9303 139.86 77.1969C139.98 77.7174 139.355 77.1969 139.235 77.4808L139.547 78.0722C138.85 77.741 139.307 81.8571 138.61 81.8098C138.634 81.2421 138.465 78.427 138.105 78.1195C138.105 79.4915 138.057 84.6958 137.504 85.8076L137.311 85.0506L136.903 85.9732C137.047 83.8915 137.456 79.5388 137.72 77.8356C137.408 77.2442 137.552 76.9367 137.191 77.0313C136.999 76.3217 137.287 75.9195 137.383 75.8485L136.494 75.4464C136.662 77.0313 135.989 77.1023 136.109 78.4034L136.903 76.6765C137.095 78.2614 136.758 81.2184 136.085 81.0055C135.869 80.3905 135.989 78.1668 135.917 77.6464C135.893 78.1905 135.412 78.7346 135.316 78.3561L135.508 77.4808C135.123 76.9131 135.099 79.6335 134.57 78.1432C134.426 78.0485 134.017 76.1324 134.041 77.0786C134.378 78.8765 134.835 84.4593 134.739 85.8313C134.667 85.713 133.825 84.1517 133.609 83.2528C133.296 81.8335 133.777 79.8464 133.488 78.6399C133.512 79.0657 133.416 79.6098 133.368 79.7991C133.2 79.4442 133.344 78.4507 133.032 78.6636C133.08 80.2722 132.358 78.569 132.959 80.0356C132.671 80.5087 132.599 79.7281 132.214 79.8227C132.382 80.8636 132.046 83.3947 131.733 83.8679C131.733 83.4657 131.637 82.9216 131.589 82.6851C130.916 82.5668 130.507 81.8571 129.882 81.8571C129.81 81.4786 129.497 81.0055 129.593 80.3195C129.521 80.6034 129.449 81.1474 129.257 81.1948C128.848 79.7991 129.69 80.9582 129.353 79.3023C129.353 80.2485 128.896 80.6034 128.632 81.1948C128.752 82.6378 129.281 81.455 129.521 80.8636C129.593 82.8507 129.161 84.956 128.511 85.9023C127.982 86.399 128.247 84.6248 128.175 84.9087C127.165 84.5775 127.381 88.4098 126.516 86.9904C126.179 85.713 126.468 84.4593 126.396 83.5367C126.828 83.0399 127.069 84.341 127.357 84.2937L126.997 83.7023C127.117 83.2765 127.405 82.9453 127.574 83.3238C127.285 82.1883 125.891 83.1109 125.145 82.07C125.001 82.4958 124.785 82.9453 124.881 83.4421L125.121 83.2528C125.338 84.27 124.664 84.6722 124.977 85.1453C124.664 85.8549 124.28 86.9904 123.823 86.4227L123.751 84.9797C123.751 85.4055 124.039 85.8549 124.184 85.4055C123.991 86.0442 123.486 83.4421 123.27 85.3345L123.582 86.3517C123.246 87.085 122.837 88.6227 122.428 88.1496C122.597 89.5926 122.525 87.984 122.813 89.6635C122.573 87.5818 123.871 89.7582 123.486 87.5582C123.775 89.4979 124.015 88.3861 124.4 90.042C124.376 89.5689 124.256 89.1195 124.616 89.356C124.64 89.2141 124.664 89.0485 124.688 88.9302C124.688 88.9539 124.712 88.9539 124.712 88.9775C124.712 88.9539 124.688 88.9302 124.688 88.9302C124.712 88.8592 124.712 88.8356 124.688 88.9066C124.616 88.6936 124.544 88.4571 124.52 88.1732C124.688 87.0851 125.241 87.1087 125.434 86.541C125.65 86.7775 125.362 87.0851 125.458 87.6055L125.722 86.7539C125.746 87.8184 126.275 88.5044 125.794 89.1431L126.227 89.1904C126.492 89.7818 126.852 90.0184 127.069 89.5689C127.285 89.8055 127.574 88.3861 127.405 89.2141L128.079 88.5517V88.8119C128.776 88.9302 129.425 87.0377 130.267 88.9066C130.483 88.6227 130.723 88.2915 131.108 88.5754L131.228 89.4979C131.517 89.1668 132.166 90.3969 132.238 89.427C132.671 91.8872 133.729 89.9001 134.282 90.3022L134.234 89.0958C134.594 89.1431 134.931 88.7883 135.34 88.2678L135.244 87.2033C135.556 86.3044 136.277 87.8894 136.879 87.7238C136.879 88.1259 136.71 88.0313 136.59 87.7947C137.047 88.9539 137.407 88.4807 137.744 87.9367C138.081 87.3926 138.369 86.7539 138.802 87.6055C138.922 87.2033 139.067 87.3216 139.211 87.5818C139.187 87.5818 139.187 87.6055 139.187 87.6528C139.211 87.6528 139.235 87.6528 139.259 87.6528C139.355 87.8184 139.451 88.0313 139.547 88.1969C139.451 87.9367 139.355 87.7474 139.307 87.6528C139.427 87.6055 139.62 87.4635 139.764 87.1797L139.956 88.3152C139.98 88.2915 139.98 88.2915 140.004 88.2678C140.245 88.67 140.1 87.7238 139.908 86.8722C139.98 86.6829 140.052 86.4463 140.076 86.1625C140.437 87.984 140.485 85.5001 140.918 87.4162C140.942 86.4463 141.783 86.5883 141.615 84.5775C141.663 84.8377 141.735 84.956 141.639 84.9797C141.88 85.1689 142.12 85.3818 142.216 84.7904L142.505 86.2098L142.697 84.2227C143.082 85.0506 143.274 85.5474 143.154 86.6829C143.563 84.9087 143.611 85.9732 143.899 84.199L144.019 85.1216C144.212 85.0507 144.332 83.7732 144.572 84.5066C144.933 85.3582 145.51 85.3345 146.159 85.2636C146.809 85.1926 147.53 85.098 148.275 85.8076C147.53 83.1345 149.045 86.9195 148.684 84.8141C148.876 85.4291 149.117 85.7603 149.045 86.3517C149.501 85.6184 150.151 87.1797 150.175 85.3345C150.367 85.9732 150.247 86.3044 150.391 86.6592C150.415 86.5173 150.463 86.0679 150.607 86.4227C150.752 86.8012 150.631 86.9668 150.607 87.2743C151.184 87.0377 150.824 85.0743 150.463 83.2055C150.944 84.0098 151.064 83.8679 151.016 82.6141C151.257 83.2055 151.569 83.7969 151.257 84.0808C151.473 84.1281 152.723 84.6958 152.387 83.2055C152.531 83.5603 152.699 83.2528 152.699 83.0636C153.18 83.0399 153.252 83.1818 153.661 82.9216L153.469 82.7087C153.204 80.8872 153.733 82.2356 154.046 81.9281L154.07 82.1173C155.2 83.2055 154.262 81.4313 155.44 82.6851L155.128 81.5969C154.599 79.2077 156.186 82.827 156.426 81.7862L156.089 81.1948C156.137 80.3195 157.628 84.2227 157.965 84.4593C158.085 84.6485 157.965 84.8141 157.917 84.9797C158.951 86.2098 157.628 83.513 158.037 83.0636C158.325 83.8205 158.446 85.0743 158.806 85.1216C159.143 85.713 159.119 82.3539 159.96 83.7259C159.696 83.1582 159.431 82.5904 159.552 82.07C159.84 81.7625 161.114 84.0808 160.922 82.1173C161.018 82.2593 161.066 82.4249 161.114 82.5668C161.259 82.0227 161.788 81.5259 161.667 80.4614C162.942 84.1754 162.846 78.1668 163.807 81.6679L164.601 81.2421L164.673 81.5969C165.274 81.6915 165.226 80.7926 165.178 79.8937C165.37 80.1066 165.37 80.4378 165.418 80.627C166.404 81.1001 166.452 80.9345 166.596 79.0184L167.005 80.1302C166.981 79.4206 168.712 81.5496 169.073 79.9883C169.097 80.1066 169.169 80.3431 169.145 80.5087C169.361 79.7044 170.155 80.3195 170.756 80.6034C171.357 80.8636 171.79 80.8163 171.237 78.7582L171.453 77.5754C170.612 77.5281 170.924 75.8012 170.371 75.2335C170.564 74.9023 171.549 76.1797 171.285 76.5109L171.165 76.3217C171.814 78.4743 172.343 76.7238 172.872 78.1432C173.232 77.9776 173.617 77.8829 174.002 77.8593C174.411 77.812 174.819 77.7883 175.228 77.7883C175.637 77.7647 176.07 77.7883 176.478 77.741C176.887 77.6937 177.272 77.6227 177.632 77.4808L176.719 75.9905L177.224 75.8722C177.536 76.1797 177.993 77.0077 177.632 77.1023C178.258 77.9066 177.849 76.0851 177.68 75.7539C178.161 75.8959 178.33 76.369 178.402 76.8184C178.474 77.2679 178.45 77.6464 178.546 77.6227L178.762 77.3625L178.594 77.2206C178.498 76.4636 178.161 75.8012 178.618 75.6593C179.027 75.8249 179.267 76.5346 179.388 76.5346C179.436 76.6528 179.508 76.6765 179.58 76.4873C179.796 76.4163 180.037 76.369 180.253 76.298C179.941 75.9432 179.652 75.5883 179.339 75.2335C179.267 74.5002 179.917 74.9969 178.883 73.7905C179.676 74.7131 180.325 74.5948 180.854 74.2873C181.119 74.1453 181.335 73.9324 181.551 73.8141C181.744 73.6722 181.936 73.6249 182.08 73.7432C181.984 73.2227 182.008 72.8916 182.129 72.7023C182.249 72.4894 182.465 72.3948 182.706 72.3002C182.441 72.1346 181.479 70.9281 181.912 70.8335C182.802 72.1582 183.162 72.3238 183.523 72.3475C183.884 72.3711 184.22 72.2765 185.086 73.0572C184.485 72.5604 184.677 72.3002 184.797 71.969C184.918 71.6378 184.966 71.283 184.076 70.597C184.533 70.5496 184.87 71.4959 185.567 71.898C185.519 71.141 186.024 70.9754 186.625 70.8335C187.226 70.6916 187.923 70.5733 188.188 70.0292C187.899 69.7217 187.298 69.4142 187.009 68.8228C187.659 69.1776 188.308 69.5088 188.957 69.8163C188.957 69.5088 187.298 68.0421 188.668 68.7045C188.356 68.5152 187.899 68.2314 187.899 68.0185C188.644 67.9475 189.149 67.6163 189.486 67.2142C189.822 66.812 189.991 66.3389 190.207 65.9131C190.424 65.511 190.664 65.1561 191.073 65.0142C191.481 64.8959 192.083 64.9669 192.876 65.5819C192.563 65.3217 192.395 65.1561 192.323 65.0615C192.251 64.9669 192.275 64.8959 192.299 64.8723C192.131 64.754 191.626 64.0916 191.241 63.6658C191.481 63.8077 191.698 63.9733 191.938 64.1153C192.155 64.2809 192.395 64.4464 192.588 64.612C192.155 63.9497 192.251 63.855 192.347 63.7841C192.443 63.7131 192.539 63.6421 192.203 62.9798C192.203 63.0744 192.203 63.1927 192.179 63.2873C191.818 62.483 191.265 61.6551 190.568 60.8508C189.871 60.0228 189.077 59.2422 188.452 58.2723C188.813 59.2422 188.139 58.7927 187.418 58.5325C186.721 58.2723 185.951 58.225 186.673 59.5497C186.216 59.3368 186.264 58.911 185.831 58.6035C186.36 59.4551 186.336 59.7626 185.711 59.7863L185.567 59.597C185.23 60.1411 184.821 60.3303 184.317 60.4723C183.812 60.6142 183.235 60.7088 182.633 60.9454L183.571 61.5604C183.307 61.6551 182.994 61.4658 182.706 61.3948C183.908 62.6486 183.186 60.9454 184.533 62.2938C184.028 62.0099 183.715 61.9389 183.475 61.9862C183.259 62.0336 183.114 62.1755 182.994 62.2938C182.73 62.554 182.441 62.7196 181.383 61.9389C181.167 62.1518 182.441 62.7196 182.225 62.9325L181.648 62.5303L182.273 63.1927C182.032 63.24 181.311 62.7196 180.854 62.3174C180.926 62.3411 180.806 62.1045 180.806 62.0336C180.421 61.8443 180.373 62.0099 180.373 62.2228C180.373 62.4357 180.421 62.6486 180.301 62.6013L180.806 62.7196C180.758 63.2163 180.373 63.4766 180.085 63.8077C179.772 64.1389 179.508 64.4938 179.652 65.3217L180.037 65.7002C180.109 66.2916 179.917 66.2679 179.652 66.1733C179.412 66.0787 179.123 65.9604 178.979 66.3389L178.931 66.2206C179.147 66.7174 179.147 67.0486 178.955 67.1196C178.738 66.5045 177.969 66.3389 177.753 65.6529C177.801 66.2679 177.825 66.4808 177.969 66.7884C178.113 67.0959 178.33 67.4507 178.69 68.397L178.113 67.7346C178.426 68.4916 178.642 68.8464 178.45 69.2486C178.306 68.4443 177.512 68.255 177.272 67.2378C176.454 66.6464 176.478 67.1669 176.454 67.6163C176.454 68.0421 176.43 68.3733 175.565 67.2378C176.478 69.5088 176.839 68.0658 176.935 68.6099C177.512 69.2013 177.608 70.3131 177.248 70.2421C177.127 70.2894 176.623 69.6744 176.118 69.083C175.613 68.4916 175.06 67.9239 174.795 68.0894C174.843 68.0658 174.771 67.9002 174.819 67.9002C174.314 67.4507 174.819 68.8464 174.098 68.0894C174.627 69.4615 173.737 68.1841 174.555 69.8873L174.867 69.2249C174.843 69.5088 175.012 70.1948 175.06 70.6916C175.108 71.212 175.012 71.5432 174.531 71.1883C174.411 70.8335 174.338 70.3131 174.314 70.0056C173.93 69.5798 174.194 70.455 173.785 70.0292C173.401 69.1776 173.521 69.012 173.689 68.8701C173.785 68.7991 173.882 68.7518 173.93 68.6099C173.978 68.4679 174.002 68.2787 173.906 67.9238C173.641 67.6163 173.665 67.9948 173.641 68.2077C173.617 68.4206 173.569 68.4916 173.184 67.5454C173.641 68.7518 173.473 68.7518 173.256 68.6808C173.04 68.6099 172.752 68.4679 172.992 69.4615L172.535 68.4206C172.559 68.6099 172.655 69.1539 172.535 69.1776L172.126 67.7583C172.343 69.0357 171.093 67.0249 171.093 67.7583C171.694 67.4744 171.79 68.941 172.391 69.5798C172.199 71.283 170.756 67.0722 170.131 67.9238C170.179 67.7346 170.828 68.3733 170.852 68.9174C170.588 68.7755 170.227 68.4679 169.89 67.9475C169.409 68.3733 170.419 68.9884 170.419 69.7217C169.698 68.5389 170.347 70.3604 170.227 70.8572L169.818 69.7927C168.881 69.3668 170.491 72.0873 169.554 71.4959L169.265 69.9109C169.217 70.0765 169.145 70.2421 169.097 70.4077L168.712 69.1776C168.688 70.1948 168.496 70.0056 168.039 69.7927C168.4 70.526 168.688 71.7561 168.4 71.898C167.967 71.3303 168.159 70.8335 167.775 71.141C167.63 70.4314 167.438 69.5561 167.991 70.4787C167.895 70.1238 167.847 69.769 167.75 69.4142C167.27 68.7518 167.149 69.4378 166.981 69.5088C167.053 69.5324 167.149 69.5561 167.246 69.698C167.197 70.2658 167.173 70.8335 167.125 71.4013C166.885 71.0228 166.861 70.6679 166.837 70.3367C166.741 70.5023 166.813 71.0228 166.669 71.1883C166.428 70.2894 166.116 69.3905 166.236 68.8937L165.947 70.0765C165.779 69.698 165.298 69.1303 165.274 68.7755C164.769 68.3497 164.985 70.7389 164.312 70.1948C164.336 70.3841 164.336 70.5496 164.288 70.7152C163.807 70.6443 163.086 69.6507 162.942 71.0228L162.172 69.5088C161.884 69.9819 163.158 71.4013 162.653 72.2056C162.317 72.8443 162.076 70.8808 161.788 70.5023C161.788 71.3776 161.812 73.1281 160.994 71.9453C160.946 71.5905 161.139 71.8034 161.235 71.6378ZM156.234 73.7195C156.282 73.4593 156.282 72.7023 156.522 73.3174C156.763 74.6184 156.522 74.027 156.234 73.7195ZM148.996 78.2614C148.996 77.8829 149.141 78.0249 149.381 78.427C149.285 78.5453 149.165 78.5217 148.996 78.2614ZM126.612 88.4334C126.612 88.4098 126.612 88.4098 126.612 88.3861C126.876 88.8119 126.78 88.6463 126.612 88.4334ZM126.107 87.9367C126.059 88.1023 126.059 88.2442 126.083 88.4098C126.107 88.1259 126.227 88.1023 126.347 88.1732C126.323 87.8893 126.251 87.6764 126.107 87.9367ZM179.291 76.1561L179.051 75.9432C179.099 75.541 179.195 75.8485 179.291 76.1561Z" fill="black"/>
<path d="M149.549 76.5345C149.621 76.7238 149.669 76.913 149.717 77.1259C149.717 76.9367 149.669 76.7238 149.549 76.5345Z" fill="black"/>
<path d="M164.192 70.1948C164.192 70.1238 164.192 70.0765 164.168 70.0056L164.192 70.1948Z" fill="black"/>
<path d="M133.367 78.0485C133.463 78.2141 133.535 78.4034 133.584 78.6163C133.584 78.3324 133.535 78.0958 133.367 78.0485Z" fill="black"/>
<path d="M123.438 89.8764L123.774 89.5689C123.606 89.6162 123.558 89.3796 123.486 89.1904C123.486 89.4742 123.534 89.8764 123.438 89.8764Z" fill="black"/>
<path d="M120.746 82.8033C120.698 82.9453 120.65 82.827 120.602 82.9689V83.4894C120.818 83.4421 120.938 83.0162 120.746 82.8033Z" fill="black"/>
<path d="M123.15 86.0915C123.126 85.1216 122.933 85.4528 122.717 85.642C122.741 85.642 122.741 85.642 122.765 85.642C122.669 86.9667 122.909 86.5409 123.15 86.0915Z" fill="black"/>
<path d="M122.669 85.6657C122.597 85.713 122.524 85.7367 122.452 85.6894C122.428 86.2335 122.548 85.8076 122.669 85.6657Z" fill="black"/>
<path d="M125.482 88.5753C125.362 88.3388 125.41 89.8054 125.362 89.4033C125.242 90.6334 126.059 87.9366 125.482 88.5753Z" fill="black"/>
<path d="M123.006 82.9215L123.078 84.1043L123.198 83.1581L123.006 82.9215Z" fill="black"/>
<path d="M124.736 83.7969L124.375 83.4657C124.375 83.6549 124.327 83.7732 124.279 83.8678C124.52 83.9152 124.736 84.1517 124.736 83.7969Z" fill="black"/>
<path d="M124.304 83.8678C124.184 83.8441 124.088 83.8678 124.016 84.057C124.064 84.057 124.208 84.0097 124.304 83.8678Z" fill="black"/>
<path d="M123.486 82.5667L123.583 82.8269L123.847 82.8979L123.486 82.5667Z" fill="black"/>
<path d="M128.535 83.9862L128.92 83.6313C128.944 83.2292 128.848 82.969 128.703 83.1345C128.607 83.4421 128.463 83.584 128.535 83.9862Z" fill="black"/>
<path d="M127.309 80.7688C127.405 81.0054 127.429 81.2656 127.501 81.6678L127.477 80.2011L127.309 80.7688Z" fill="black"/>
<path d="M128.415 80.3904C128.439 79.9882 128.944 79.2076 128.463 79.3022C128.439 79.728 128.055 80.0828 128.415 80.3904Z" fill="black"/>
<path d="M134.209 82.0227L134.113 82.0464L134.258 84.4593L134.209 82.0227Z" fill="black"/>
<path d="M138.61 75.8722C138.129 75.3518 138.658 77.3625 138.201 76.6765C138.153 77.2442 138.586 77.2206 138.538 77.7173C138.73 77.1259 138.898 77.4335 138.61 75.8722Z" fill="black"/>
<path d="M138.538 77.741C138.514 77.8356 138.465 77.9539 138.441 78.1195C138.514 77.9539 138.538 77.8356 138.538 77.741Z" fill="black"/>
<path d="M193.501 65.5818C193.621 65.7001 193.742 65.842 193.862 65.9603C193.717 65.7474 193.549 65.5108 193.381 65.2979L193.501 65.5818Z" fill="black"/>
<path d="M192.828 63.926L193.598 65.2508C193.405 64.8249 193.213 64.4228 193.02 63.997C193.02 64.068 193.02 64.2099 192.828 63.926Z" fill="black"/>
<path d="M154.695 70.9044L154.767 71.2593C154.912 71.6377 154.984 71.6377 155.128 71.6851L154.695 70.9044Z" fill="black"/>
<path d="M158.758 71.0463H158.686L159.166 72.3474L158.758 71.0463Z" fill="black"/>
<path d="M161.354 68.5152C161.21 68.4916 161.162 68.8228 161.018 68.7991C161.234 68.4916 161.883 70.1712 161.354 68.5152Z" fill="black"/>
</svg>
