<svg width="200" height="200" viewBox="0 0 200 200" fill="none" xmlns="http://www.w3.org/2000/svg">
<g clip-path="url(#clip0_501_29759)">
<path d="M103.992 173.058C102.512 172.57 100.973 172.09 99.4003 172.119C97.8237 172.149 96.489 172.81 95.05 173.361C92.3264 174.402 89.3234 174.553 86.5205 173.732C83.8136 172.94 81.3819 171.357 78.6041 170.801C75.5218 170.182 72.5271 171.045 69.7326 172.342C66.8379 173.686 64.1936 175.593 61.958 177.884C61.2656 178.596 61.958 180.011 62.9715 179.645C68.9985 177.476 75.2131 180.083 80.6103 182.774C81.2443 183.089 81.8908 183.393 82.5081 183.742C82.9002 183.965 83.4299 184.264 83.6217 184.69C83.9762 185.473 82.9127 186.046 82.1828 186.24C80.8439 186.597 79.3424 186.273 78.0285 185.945C76.5353 185.57 75.0755 185.039 73.5573 184.774C70.8671 184.311 67.6096 184.538 65.7994 186.884C65.5366 187.225 65.399 187.608 65.5825 188.034C65.7326 188.379 66.1247 188.728 66.5335 188.682C70.3624 188.215 73.9744 189.794 77.4696 191.158C80.9315 192.51 84.6978 193.373 87.8135 195.487C89.3109 196.502 90.5663 197.829 91.3421 199.488C91.8384 200.554 93.6695 199.796 93.2482 198.675C92.9354 197.842 93.0355 196.907 93.6903 196.262C94.2743 195.69 95.2544 195.53 95.9885 195.883C96.4974 196.128 97.1146 196.027 97.4149 195.504C97.6819 195.045 97.5526 194.308 97.0396 194.064C95.4713 193.314 93.6444 193.504 92.3264 194.67C91.0877 195.765 90.6581 197.698 91.2378 199.235C91.8718 198.966 92.51 198.696 93.1439 198.423C91.5256 194.961 88.1263 192.927 84.7395 191.567C82.8209 190.796 80.8397 190.198 78.9086 189.465C77.015 188.745 75.1506 187.949 73.2111 187.356C71.0589 186.694 68.7858 186.298 66.5376 186.572C66.7837 187.17 67.0298 187.772 67.2759 188.37C68.8316 186.357 71.672 186.45 73.9118 186.993C76.9733 187.735 80.481 189.343 83.5884 187.954C84.8063 187.41 85.8824 186.244 85.7656 184.816C85.6404 183.275 84.3725 182.327 83.1087 181.679C80.0681 180.121 76.9649 178.575 73.6782 177.628C70.0329 176.575 66.0371 176.305 62.4168 177.611C62.7546 178.196 63.0924 178.786 63.4303 179.371C65.3447 177.409 67.5512 175.779 69.9912 174.545C72.3769 173.332 75.1673 172.3 77.8742 172.797C80.5436 173.29 82.9002 174.76 85.4569 175.606C88.2598 176.533 91.3421 176.608 94.1908 175.846C95.7257 175.438 97.1522 174.528 98.7246 174.28C100.318 174.023 101.94 174.604 103.434 175.092C104.718 175.509 105.265 173.479 103.992 173.058Z" fill="black"/>
<path d="M103.747 175.151C108.422 174.583 113.015 173.538 117.461 171.976C117.123 171.391 116.785 170.801 116.447 170.216C114.174 172.465 111.463 174.259 108.493 175.425C107.968 175.631 107.605 176.133 107.763 176.722C107.901 177.227 108.518 177.665 109.048 177.459C112.364 176.158 115.38 174.225 117.924 171.706C118.641 170.999 117.915 169.592 116.91 169.946C112.648 171.445 108.231 172.502 103.747 173.046C103.188 173.113 102.704 173.479 102.704 174.098C102.704 174.612 103.184 175.219 103.747 175.151Z" fill="black"/>
<path d="M111.162 179.464C116.063 179.704 120.976 179.523 125.844 178.916C125.669 178.263 125.494 177.606 125.318 176.954C122.157 178.722 118.799 180.07 115.3 180.988C114.111 181.3 114.445 182.967 115.575 183.056C121.619 183.532 127.758 182.643 133.418 180.457C133.081 179.872 132.743 179.283 132.405 178.697C129.41 181.792 125.323 183.725 121.039 183.995C119.704 184.079 119.696 186.185 121.039 186.101C125.873 185.793 130.49 183.692 133.881 180.184C134.561 179.48 133.885 178.032 132.868 178.423C127.354 180.55 121.46 181.409 115.579 180.946C115.671 181.637 115.763 182.323 115.855 183.014C119.521 182.054 123.058 180.618 126.374 178.769C127.225 178.293 126.903 176.676 125.848 176.806C120.976 177.409 116.067 177.59 111.166 177.354C109.823 177.291 109.823 179.4 111.162 179.464Z" fill="black"/>
<path d="M89.0483 179.106C92.4935 180.239 96.1681 180.634 99.7717 180.234C100.331 180.171 100.814 179.796 100.814 179.181C100.814 178.659 100.335 178.066 99.7717 178.129C96.3307 178.508 92.8939 178.158 89.603 177.072C88.3226 176.655 87.7762 178.689 89.0483 179.106Z" fill="black"/>
<path d="M89.4446 177.101C89.1318 177.131 88.8607 177.185 88.5854 177.354C88.3143 177.518 88.1349 177.716 87.9514 177.969C87.8221 178.145 87.7345 178.356 87.672 178.562C87.6303 178.706 87.6177 178.857 87.5969 179.009C87.5885 179.08 87.5844 179.152 87.5886 179.224C87.6136 179.539 87.672 179.809 87.8305 180.091C87.9848 180.369 88.2142 180.575 88.4686 180.756C88.527 180.799 88.5896 180.832 88.6563 180.858C88.8023 180.921 88.9441 180.988 89.0984 181.022C89.332 181.072 89.5864 181.102 89.8242 181.089C90.2955 181.06 90.7501 180.946 91.1922 180.778C91.4508 180.676 91.6719 180.546 91.8137 180.293C91.943 180.066 92.0014 179.733 91.918 179.48C91.8345 179.228 91.6802 178.979 91.4383 178.853C91.2047 178.727 90.8919 178.647 90.6333 178.748C90.333 178.861 90.0244 178.958 89.7032 179.005C89.795 178.992 89.8867 178.979 89.9785 178.967C89.8075 178.988 89.6323 178.996 89.4613 178.971C89.553 178.984 89.6448 178.996 89.7366 179.009C89.6365 178.992 89.5405 178.971 89.4488 178.933C89.5322 178.967 89.6156 179.005 89.699 179.038C89.6156 179.005 89.5405 178.958 89.4655 178.904C89.5364 178.958 89.6073 179.013 89.6782 179.068C89.6198 179.021 89.5697 178.971 89.5239 178.912C89.5781 178.984 89.6323 179.055 89.6865 179.127C89.6448 179.068 89.6073 179.009 89.5781 178.941C89.6114 179.026 89.649 179.11 89.6823 179.194C89.6573 179.127 89.6406 179.059 89.6281 178.992C89.6406 179.085 89.6532 179.177 89.6657 179.27C89.6573 179.181 89.6573 179.097 89.6698 179.009C89.6573 179.101 89.6448 179.194 89.6323 179.287C89.649 179.19 89.674 179.097 89.7115 179.009C89.6782 179.093 89.6406 179.177 89.6073 179.261C89.6448 179.181 89.6865 179.106 89.7407 179.034C89.6865 179.106 89.6323 179.177 89.5781 179.249C89.6323 179.181 89.6907 179.118 89.7616 179.064C89.6907 179.118 89.6198 179.173 89.5489 179.228C89.6073 179.186 89.6657 179.152 89.7282 179.123C89.6448 179.156 89.5614 179.194 89.478 179.228C89.5364 179.203 89.5948 179.186 89.6573 179.177C89.5656 179.19 89.4738 179.203 89.382 179.215C89.3987 179.211 89.4154 179.211 89.4279 179.211C89.7116 179.186 89.9576 179.11 90.1662 178.904C90.3455 178.722 90.4832 178.419 90.4707 178.158C90.4581 177.884 90.3706 177.602 90.1662 177.413C89.9868 177.232 89.7157 177.076 89.4446 177.101Z" fill="black"/>
<path d="M180.174 44.9686C180.02 46.8426 179.791 48.7293 179.753 50.6117C179.716 52.3762 180.012 54.1239 180.942 55.6399C181.713 56.9033 182.769 57.9477 183.67 59.1142C184.258 59.8765 185.576 61.6915 184.737 62.6517C184.374 63.0686 183.791 63.077 183.39 62.7149C183.294 62.6306 183.198 62.4833 183.173 62.4159C183.161 62.3738 183.161 62.2853 183.165 62.2474C183.161 62.2853 183.223 61.9189 183.202 62.0916C183.198 62.1337 183.227 62.0495 183.261 62.0284C183.219 62.0579 183.173 62.1211 183.115 62.1211C184.458 62.1211 184.458 60.0154 183.115 60.0154C182.122 60.0154 181.363 60.7524 181.15 61.7042C180.933 62.6728 181.284 63.6582 182.022 64.2983C183.699 65.7554 186.439 64.9889 186.965 62.7528C187.448 60.6892 186.035 58.6931 184.804 57.2023C183.653 55.8042 182.368 54.5029 181.98 52.6668C181.73 51.4708 181.83 50.2032 181.926 48.9946C182.03 47.6512 182.147 46.3078 182.26 44.9644C182.306 44.3959 181.747 43.9116 181.217 43.9116C180.612 43.9158 180.22 44.3959 180.174 44.9686Z" fill="black"/>
<path d="M184.587 63.8098C186.381 70.8174 189.651 77.3911 194.126 83.0426C195.157 84.3439 197.334 86.0453 198.823 84.3439C199.565 83.4975 198.593 81.9856 197.559 82.6889C195.006 84.4324 192.629 86.4285 190.489 88.6689C191.069 88.8247 191.653 88.9805 192.233 89.1321C191.465 85.7336 189.768 82.6805 187.657 79.9516C186.61 78.5998 185.455 77.3322 184.237 76.132C183.007 74.9191 181.71 73.5673 180.17 72.7588C178.698 71.9839 176.796 71.7354 175.336 72.6914C173.877 73.6473 173.443 75.3781 173.818 77.0248C174.627 80.5833 178.21 82.3267 180.633 84.6345C181.843 85.7842 183.082 87.3255 183.136 89.0605C183.173 90.3365 182.585 91.8273 181.313 92.2527C181.705 92.7664 182.097 93.2844 182.489 93.7982C183.92 91.5241 182.902 88.7236 181.284 86.8707C180.429 85.8937 179.399 85.102 178.435 84.2429C177.501 83.4048 176.638 82.4868 175.82 81.5266C172.525 77.648 169.939 73.1841 165.793 70.1141C163.562 68.4633 160.947 67.3515 158.16 67.242C158.407 67.84 158.653 68.4422 158.899 69.0402C161.13 66.7493 163.47 63.9446 162.778 60.4998C162.16 57.4171 159.303 55.3578 156.759 53.9218C154.936 52.89 153.026 52.0183 151.066 51.2855C150.882 51.9635 150.695 52.6374 150.511 53.3154C151.712 53.6481 152.959 53.3154 153.86 52.4521C154.244 52.0815 154.286 51.3234 153.86 50.9613C152.013 49.3821 150.031 47.9755 147.921 46.7753C147.837 47.4154 147.754 48.0597 147.671 48.6998C149.614 48.3714 151.516 47.8702 153.368 47.1922C153.898 46.9985 154.252 46.4763 154.098 45.8951C153.956 45.3814 153.347 44.9644 152.813 45.1582C150.961 45.8362 149.055 46.3415 147.116 46.6658C146.211 46.8174 146.136 48.1734 146.866 48.5903C148.822 49.7021 150.67 50.9823 152.384 52.4478C152.384 51.9509 152.384 51.454 152.384 50.9571C152.017 51.3108 151.541 51.4119 151.062 51.2813C149.748 50.9192 149.268 52.8479 150.507 53.3112C152.004 53.867 153.456 54.524 154.865 55.2736C156.067 55.9137 157.28 56.5959 158.332 57.4761C159.249 58.2468 160.15 59.1817 160.567 60.3355C160.984 61.4894 160.863 62.7107 160.334 63.8056C159.633 65.2459 158.528 66.4166 157.426 67.5494C156.776 68.219 157.268 69.3097 158.165 69.3476C162.603 69.5245 166.202 72.7587 168.905 76.0267C170.44 77.8839 171.824 79.8674 173.322 81.7582C174.068 82.6973 174.84 83.6196 175.674 84.4829C176.5 85.342 177.405 86.1084 178.298 86.8917C179.824 88.2309 182.072 90.5387 180.692 92.737C180.216 93.495 181.009 94.5689 181.868 94.2825C184.9 93.276 185.86 89.6038 184.733 86.8286C183.39 83.5143 180.237 81.834 177.772 79.4968C176.8 78.5787 175.808 77.3743 175.762 75.9551C175.724 74.6875 176.771 74.0348 177.972 74.1906C179.482 74.3885 180.713 75.6856 181.776 76.6752C182.982 77.8038 184.141 78.9872 185.213 80.2464C187.545 82.9879 189.422 86.1421 190.218 89.688C190.393 90.4587 191.432 90.7071 191.962 90.1513C193.98 88.0372 196.199 86.1421 198.61 84.4997C198.189 83.9481 197.768 83.3964 197.346 82.8447C197.267 82.9374 197.238 82.9121 197.3 82.9247C197.375 82.9416 197.2 82.9121 197.184 82.9079C196.921 82.8489 196.666 82.6763 196.462 82.5078C195.941 82.0783 195.536 81.4761 195.127 80.9412C194.156 79.6652 193.25 78.3345 192.408 76.97C190.756 74.2874 189.346 71.4491 188.241 68.4927C187.599 66.7746 187.052 65.0227 186.598 63.2455C186.264 61.9358 184.25 62.4917 184.587 63.8098Z" fill="black"/>
<path d="M173.902 21.832C170.607 24.6114 168.288 28.5363 167.42 32.7813C167.307 33.3372 167.579 33.9183 168.15 34.0783C168.667 34.2215 169.318 33.9015 169.435 33.3414C170.24 29.4081 172.329 25.8917 175.378 23.3186C175.812 22.9522 175.749 22.2068 175.378 21.8278C174.949 21.4024 174.335 21.4698 173.902 21.832Z" fill="black"/>
<path d="M180.304 44.4381C181.76 41.7092 182.022 38.6139 182.231 35.5733C182.281 34.8574 181.53 34.4195 180.913 34.5584C178.302 35.1522 176.771 37.5779 175.574 39.7888C176.208 39.873 176.846 39.9573 177.48 40.0415C175.582 34.5837 173.526 28.57 175.653 22.8553C175.849 22.3247 175.432 21.7015 174.923 21.5583C174.339 21.394 173.839 21.7604 173.639 22.2952C171.382 28.3595 173.451 34.7943 175.466 40.5974C175.749 41.4101 176.917 41.6881 177.372 40.8501C178.302 39.1361 179.415 37.0515 181.468 36.5883C181.03 36.2514 180.588 35.9102 180.15 35.5733C179.97 38.2264 179.783 40.989 178.51 43.3726C177.868 44.5686 179.666 45.6341 180.304 44.4381Z" fill="black"/>
<path d="M23.1893 55.7579C26.0881 54.6629 28.3529 52.5784 30.4009 50.2917C32.3904 48.0723 34.2381 45.6087 36.6531 43.8358C37.1327 43.4863 37.9335 42.7872 38.5759 42.9135C38.6384 42.9262 38.6885 42.9304 38.6217 43.1115C38.4799 43.4989 38.2547 43.8232 37.9836 44.1306C37.0952 45.1413 38.5634 46.6363 39.4601 45.6214C40.1191 44.8718 40.7698 43.9453 40.7239 42.8967C40.678 41.7639 39.7979 40.9216 38.7052 40.8248C36.9492 40.6689 35.3059 42.1639 34.0838 43.2504C31.5103 45.5372 29.5291 48.3966 27.0474 50.7717C25.7586 52.0056 24.3071 53.1006 22.6346 53.7323C22.1091 53.9302 21.7462 54.444 21.9047 55.0293C22.0465 55.5305 22.6596 55.9558 23.1893 55.7579Z" fill="black"/>
<path d="M40.6822 43.0862C43.4309 41.3765 46.1879 39.5909 48.1482 36.9462C48.9782 35.8302 49.6205 34.2215 50.9802 33.6488C51.4557 33.4509 52.0063 33.4172 52.3233 33.7583C52.6403 34.0952 52.6319 34.3437 52.4192 34.63C51.9729 35.2238 52.4901 35.9608 53.0407 36.1756C55.8978 37.2873 57.1615 40.6732 57.9874 43.3894C58.5671 43.0483 59.1511 42.7072 59.7308 42.3661C58.3377 41.1743 56.2731 41.1364 54.7758 42.1977C53.2325 43.2884 52.4025 45.1582 52.1189 46.9943C51.8269 48.8978 52.098 51.0118 53.6037 52.3552C55.026 53.6228 57.0156 53.8165 58.5588 52.6416C60.3898 51.2434 60.7402 48.923 60.7444 46.7416C60.1521 46.9901 59.5556 47.2385 58.9634 47.487C59.5348 48.1608 60.1104 48.8346 60.6818 49.5042C61.174 50.0854 61.8413 50.6791 62.1708 51.3782C62.6755 52.4647 62.0624 53.8039 61.491 54.7093C60.2897 56.6002 58.246 57.9267 56.5693 59.4049C55.66 60.205 54.8133 61.0809 54.1335 62.0916C53.3118 63.3171 52.8947 64.7195 52.6987 66.1766C52.4859 67.7516 52.5026 69.3645 52.1272 70.9142C51.8019 72.2618 51.1262 73.4957 50.2336 74.5443C47.9313 77.2395 44.6196 78.6672 41.4372 80.0106C41.8292 80.5243 42.2213 81.0423 42.6134 81.5561C44.4027 78.6966 46.1962 75.8372 47.9855 72.982C48.6237 71.9628 47.1805 70.8721 46.3463 71.706C42.8553 75.2055 39.1223 78.9283 34.2048 80.1874C34.5426 80.7728 34.8805 81.3624 35.2183 81.9477C37.8043 79.6442 40.0649 76.9911 41.9711 74.0895C42.7135 72.9567 40.9075 71.8997 40.1692 73.0283C38.359 75.7824 36.1943 78.2713 33.7418 80.4612C32.9327 81.1855 33.7961 82.4657 34.7554 82.2215C40.0274 80.8697 44.0649 76.9574 47.8145 73.1967C47.2681 72.7714 46.7217 72.3461 46.1753 71.9207C44.386 74.7802 42.5925 77.6396 40.8032 80.4949C40.3527 81.2108 41.1202 82.4025 41.9794 82.0404C45.1284 80.7096 48.3526 79.3494 50.8551 76.9279C51.9646 75.854 52.9322 74.5738 53.5495 73.1504C54.2461 71.5459 54.4338 69.8614 54.5756 68.1306C54.7007 66.6187 54.83 65.0606 55.5849 63.713C56.1689 62.677 56.9989 61.8306 57.8873 61.0346C59.7559 59.3585 61.9164 57.9394 63.2886 55.779C64.1562 54.4103 64.7568 52.5742 64.2438 50.9697C63.9309 49.9927 63.2052 49.2515 62.5545 48.4893C61.8497 47.6597 61.1448 46.8343 60.4399 46.0046C59.8351 45.2929 58.6631 45.8867 58.6589 46.75C58.6547 48.2577 58.5713 50.1864 57.1532 51.0792C55.9603 51.8288 54.6465 50.8434 54.2669 49.6432C53.7914 48.1355 54.2044 46.2531 55.026 44.9308C55.635 43.9538 57.1657 42.9388 58.2502 43.8653C58.9926 44.5012 60.3189 43.9201 59.9936 42.842C58.9175 39.3045 57.2324 35.5776 53.5912 34.1584C53.7998 34.6721 54.0083 35.1901 54.2127 35.7039C55.0135 34.6384 54.6215 33.0466 53.6997 32.1917C52.5568 31.1305 50.8676 31.2526 49.5997 32.0148C48.2566 32.8192 47.5017 34.2089 46.6425 35.4681C45.8417 36.643 44.7989 37.6453 43.6936 38.5297C42.4132 39.553 41.0076 40.4163 39.6228 41.2796C38.4883 41.9787 39.5352 43.8021 40.6822 43.0862Z" fill="black"/>
<path d="M22.3263 53.7575C19.511 54.6124 16.779 55.7747 14.0804 56.9497C11.0106 58.2846 7.95751 59.6996 5.05455 61.3757C3.88669 62.0495 2.69798 62.7612 1.7053 63.6877C1.36746 64.0035 1.31741 64.572 1.54264 64.9637C1.78872 65.389 2.26004 65.5322 2.71884 65.448C6.69373 64.711 10.6978 64.1467 14.6727 63.4013C15.461 63.2539 16.2618 63.115 17.0376 62.9002C16.6998 62.3148 16.3619 61.7252 16.0241 61.1399C15.2149 61.801 14.4892 62.3485 13.5591 63.0391C12.4162 63.8898 11.2651 64.7237 10.1014 65.5448C8.06596 66.9809 6.01804 68.4506 3.82831 69.6424C3.02749 70.0804 3.23603 71.3311 4.07856 71.5669C6.26412 72.1818 8.55396 72.544 10.8146 72.6745C13.0961 72.8051 15.8948 72.7629 17.6924 71.1248C18.6893 70.2151 17.2128 68.7286 16.2159 69.634C16.1701 69.6761 16.1283 69.714 16.0825 69.7519C16.1742 69.6803 16.1701 69.6845 16.0741 69.7519C15.9949 69.8066 15.9156 69.8572 15.8364 69.9035C15.7238 69.9709 15.607 70.0298 15.4902 70.0846C15.6529 70.0088 15.3943 70.1225 15.3609 70.1351C14.8729 70.312 14.3599 70.4299 13.8468 70.5057C12.9167 70.6363 11.6196 70.6236 10.5477 70.552C8.55813 70.4173 6.58945 70.0846 4.62912 69.5329C4.71254 70.173 4.79595 70.8173 4.87937 71.4575C7.10664 70.2404 9.19627 68.7412 11.265 67.2757C13.3797 65.7807 15.486 64.2646 17.4922 62.6264C18.3348 61.9358 17.4172 60.6092 16.4787 60.8661C14.802 61.3294 13.046 61.5652 11.3318 61.8642C9.07115 62.2558 6.80634 62.6264 4.5457 63.0055C3.74905 63.136 2.95241 63.2666 2.15994 63.414C2.49778 63.9993 2.83562 64.5889 3.17347 65.1743C3.32362 65.0353 3.48211 64.9047 3.64061 64.7742C3.41538 64.9553 3.7574 64.69 3.80328 64.6563C3.91589 64.572 4.03268 64.492 4.14946 64.412C4.66249 64.0583 5.18802 63.7298 5.7219 63.414C7.05242 62.6307 8.42049 61.9147 9.80106 61.2325C12.7499 59.7712 15.7571 58.4447 18.8144 57.2402C20.1491 56.7138 21.4963 56.2043 22.8727 55.7874C24.1615 55.3999 23.6151 53.3659 22.3263 53.7575Z" fill="black"/>
<path d="M28.4116 50.5781C27.3397 49.1883 26.2386 47.7186 24.7245 46.7879C24.0071 46.3457 23.1521 46.0467 22.3012 46.0804C21.5088 46.1141 20.733 46.3963 20.0031 46.6953C18.3639 47.3649 16.8081 48.2071 15.2273 48.9988C13.9218 49.6474 12.6914 50.1148 11.2733 50.5402C9.59661 51.0413 7.74472 51.5846 6.0972 51.6772C4.92518 51.7446 4.6791 53.3743 5.82193 53.7449C9.85938 55.0588 13.9886 56.0485 18.026 57.3624C19.3065 57.7793 19.8529 55.7453 18.5808 55.3326C14.5433 54.0187 10.4141 53.029 6.37666 51.7151C6.2849 52.4058 6.19314 53.0922 6.10138 53.7828C7.64879 53.6944 9.19203 53.307 10.681 52.8985C12.1117 52.5068 13.5381 52.0773 14.8937 51.4793C16.4244 50.8013 17.8884 49.9759 19.3983 49.2557C20.5369 48.7125 22.0009 47.8702 23.1855 48.3503C23.9404 48.6535 24.5702 49.2726 25.1208 49.8579C25.7756 50.5528 26.3595 51.315 26.9435 52.0731C27.2896 52.5237 28.0529 52.4394 28.42 52.0731C28.8496 51.6224 28.7578 51.0287 28.4116 50.5781Z" fill="black"/>
<path d="M39.1435 63.3508C35.0352 65.5238 31.494 68.9097 29.7005 73.281C27.8111 77.8923 28.2074 83.1816 31.0686 87.2876C32.6202 89.5154 34.6181 91.3473 36.6243 93.1455C37.2958 93.7477 38.3844 93.3434 38.4052 92.4001C38.447 90.5303 37.8213 88.77 37.1999 87.0391C36.641 85.4852 35.9778 83.7754 36.2697 82.0909C36.3657 81.5308 36.1196 80.9581 35.5398 80.7938C35.0352 80.6549 34.3553 80.9665 34.2552 81.5308C33.9173 83.468 34.3761 85.3083 35.0185 87.1276C35.6191 88.8331 36.3615 90.5555 36.3198 92.4001C36.9121 92.1516 37.5085 91.9031 38.1008 91.6547C34.8683 88.7615 31.494 85.6578 30.7474 81.1476C30.0384 76.8732 31.761 72.5061 34.6181 69.394C36.2155 67.6547 38.1175 66.2608 40.1946 65.1616C41.3833 64.5384 40.3322 62.7233 39.1435 63.3508Z" fill="black"/>
<path d="M140.267 193.816C147.066 191.175 154.04 189.011 161.135 187.334C162.44 187.027 161.89 184.993 160.58 185.305C153.485 186.981 146.511 189.15 139.713 191.786C139.187 191.988 138.824 192.493 138.983 193.083C139.125 193.588 139.742 194.022 140.267 193.816Z" fill="black"/>
<path d="M150.027 177.96C152.905 172.844 155.967 167.832 159.207 162.934C159.954 161.806 158.148 160.749 157.405 161.873C154.169 166.767 151.107 171.778 148.225 176.899C147.562 178.074 149.364 179.139 150.027 177.96Z" fill="black"/>
<path d="M177.926 163.537C183.323 159.831 188.433 155.695 193.188 151.177C194.168 150.246 192.691 148.759 191.711 149.686C187.086 154.082 182.126 158.108 176.875 161.717C175.77 162.48 176.813 164.303 177.926 163.537Z" fill="black"/>
<path d="M186.848 139.954C189.58 134.382 189.655 127.783 187.086 122.14C186.852 121.622 186.11 121.496 185.659 121.761C185.134 122.073 185.05 122.683 185.284 123.201C187.524 128.116 187.42 134.049 185.046 138.892C184.454 140.101 186.252 141.171 186.848 139.954Z" fill="black"/>
<path d="M197.943 124.89C198.389 121.744 198.831 118.598 199.278 115.452C199.72 112.311 200.187 109.144 199.924 105.96C199.878 105.392 199.478 104.908 198.881 104.908C198.352 104.908 197.793 105.392 197.839 105.96C198.089 109.026 197.663 112.071 197.234 115.099C196.8 118.177 196.366 121.251 195.928 124.33C195.849 124.89 196.066 125.463 196.658 125.627C197.15 125.762 197.864 125.454 197.943 124.89Z" fill="black"/>
<path d="M1.50076 96.0554C1.49241 103.316 1.00859 110.576 0.0159102 117.764C-0.0633373 118.329 0.14938 118.893 0.745821 119.062C1.23382 119.196 1.95121 118.893 2.03046 118.325C3.04816 110.942 3.58204 103.505 3.59038 96.0554C3.58621 94.6994 1.50076 94.6994 1.50076 96.0554Z" fill="black"/>
<path d="M12.7205 110.942C16.3575 115.427 19.8277 120.047 23.1353 124.785C23.4606 125.248 24.0445 125.467 24.5617 125.164C25.0164 124.894 25.2625 124.191 24.9371 123.723C21.5295 118.838 17.9425 114.08 14.197 109.456C13.8383 109.013 13.0917 109.081 12.7205 109.456C12.2909 109.885 12.366 110.5 12.7205 110.942Z" fill="black"/>
<path d="M15.9488 142.434C17.4128 148.768 19.3689 154.979 21.8006 161.001C22.0133 161.528 22.4929 161.898 23.0852 161.738C23.5774 161.599 24.0278 160.972 23.8151 160.441C21.3835 154.419 19.4273 148.208 17.9633 141.874C17.6547 140.556 15.6443 141.116 15.9488 142.434Z" fill="black"/>
<path d="M34.5844 159.308C38.6469 163.777 44.7198 166.253 50.7176 165.87C51.2806 165.832 51.7603 165.411 51.7603 164.817C51.7603 164.274 51.2806 163.726 50.7176 163.764C45.2286 164.114 39.7814 161.911 36.061 157.818C35.1475 156.815 33.6752 158.31 34.5844 159.308Z" fill="black"/>
<path d="M44.5278 175.156C47.3599 176.756 50.1961 178.356 53.0282 179.956C55.6809 181.456 58.3753 182.938 61.3074 183.805C62.5962 184.189 63.151 182.155 61.8622 181.776C59.0343 180.938 56.465 179.485 53.9082 178.04C51.1304 176.474 48.3567 174.907 45.5789 173.336C44.4069 172.675 43.3558 174.494 44.5278 175.156Z" fill="black"/>
<path d="M162.753 29.4502C157.431 24.4261 152.455 19.0399 147.863 13.3295C147.508 12.8873 146.757 12.9547 146.386 13.3295C145.952 13.7674 146.032 14.3738 146.386 14.8202C150.978 20.5307 155.954 25.9169 161.276 30.9409C162.257 31.8632 163.733 30.3766 162.753 29.4502Z" fill="black"/>
<path d="M144.326 27.5635C138.603 27.1887 132.889 26.616 127.208 25.8285C126.649 25.7527 126.09 25.9632 125.924 26.5655C125.79 27.0582 126.09 27.7825 126.653 27.8625C132.522 28.6753 138.415 29.2859 144.326 29.6734C144.889 29.7113 145.368 29.1638 145.368 28.6206C145.368 28.0141 144.889 27.5972 144.326 27.5635Z" fill="black"/>
<path d="M119.317 8.49494C113.652 5.21016 107.734 2.39282 101.628 0.0513645C101.102 -0.150776 100.485 0.274561 100.343 0.788335C100.18 1.38212 100.543 1.87905 101.073 2.0854C107.008 4.36369 112.756 7.12628 118.265 10.3184C119.429 10.988 120.48 9.16874 119.317 8.49494Z" fill="black"/>
<path d="M94.3829 10.7227C88.381 10.6763 82.4332 13.4431 78.6168 18.1345C78.2581 18.5725 78.1914 19.1915 78.6168 19.6253C78.9839 19.9959 79.7305 20.0674 80.0934 19.6253C83.5761 15.3382 88.8815 12.7862 94.3829 12.8283C95.7218 12.8409 95.726 10.7353 94.3829 10.7227Z" fill="black"/>
<path d="M76.106 7.25262C73.0154 8.2549 69.9248 9.25719 66.8299 10.2595C63.9353 11.1986 61.0198 12.1714 58.3922 13.7422C57.2368 14.4328 58.2879 16.2521 59.4432 15.5614C61.9791 14.0454 64.7778 13.1358 67.5682 12.2303C70.5963 11.2491 73.6244 10.2679 76.6524 9.28666C77.9329 8.87396 77.3865 6.83992 76.106 7.25262Z" fill="black"/>
</g>
<defs>
<clipPath id="clip0_501_29759">
<rect width="200" height="200" fill="white"/>
</clipPath>
</defs>
</svg>
