<svg xmlns="http://www.w3.org/2000/svg" width="201" height="201" fill="none"><path fill="#0D0A07" d="M100.094 4.907a3 3 0 1 1-5.75-1.709 3 3 0 0 1 5.75 1.71M81.516 83.843a3.004 3.004 0 0 1-3.588 2.268 2.996 2.996 0 0 1-2.265-3.584 3.004 3.004 0 0 1 3.587-2.268 2.996 2.996 0 0 1 2.266 3.584M119.286 102.436a3.005 3.005 0 0 1-3.588 2.269 2.996 2.996 0 0 1-2.266-3.584 3.005 3.005 0 0 1 3.588-2.269 2.996 2.996 0 0 1 2.266 3.584M159.714 90.167a3.004 3.004 0 0 1-3.588 2.268 2.996 2.996 0 0 1-2.265-3.584 3.004 3.004 0 0 1 3.588-2.268 2.996 2.996 0 0 1 2.265 3.584M165.136 149.753a3.005 3.005 0 0 1-3.588 2.269 2.995 2.995 0 0 1-2.265-3.584 3.004 3.004 0 0 1 3.587-2.269 2.996 2.996 0 0 1 2.266 3.584M109.392 140.595a3.004 3.004 0 0 1-3.588 2.268 2.996 2.996 0 0 1-2.265-3.584 3.003 3.003 0 0 1 3.588-2.268 2.996 2.996 0 0 1 2.265 3.584M191.394 61.089a3.005 3.005 0 0 1-3.588 2.268 2.996 2.996 0 0 1-2.266-3.584 3.005 3.005 0 0 1 3.588-2.268 2.996 2.996 0 0 1 2.266 3.584M79.131 111.494a3.005 3.005 0 0 1-3.588 2.269 2.996 2.996 0 0 1-2.265-3.584 3.005 3.005 0 0 1 3.588-2.269 2.996 2.996 0 0 1 2.265 3.584M68.932 197.41a3.004 3.004 0 0 1-3.588 2.268 2.996 2.996 0 0 1-2.265-3.584 3.003 3.003 0 0 1 3.588-2.268 2.996 2.996 0 0 1 2.265 3.584M15.009 73.306a3.004 3.004 0 0 1-3.588 2.268 2.996 2.996 0 0 1-2.266-3.584 3.004 3.004 0 0 1 3.588-2.268 2.996 2.996 0 0 1 2.266 3.584M19.385 122.039a3.004 3.004 0 0 1-3.588 2.268 2.996 2.996 0 0 1-2.265-3.584 3.003 3.003 0 0 1 3.588-2.268 2.996 2.996 0 0 1 2.265 3.584"/><path fill="#0D0A07" fill-rule="evenodd" d="M77.97 84.085 96.03 6.094l.975.226-18.062 77.99z" clip-rule="evenodd"/><path fill="#0D0A07" fill-rule="evenodd" d="m75.358 111.41 2.611-29.1.996.088-2.61 29.101zM65.465 195.939l9.725-84.529.994.113-9.726 84.53zM77.741 109.2l36.724-6.949.187.982-36.724 6.949z" clip-rule="evenodd"/><path fill="#0D0A07" fill-rule="evenodd" d="m114.094 102.251 40.292-13.013.309.951-40.293 13.013zM161.211 148.824l-4.97-60.078.996-.082 4.971 60.078zM159.944 148.824l-54.024-8.133.149-.989 54.024 8.134zM104.368 139.124 76.58 111.41l.708-.707 27.788 27.715z" clip-rule="evenodd"/><path fill="#0D0A07" fill-rule="evenodd" d="m156.622 88.746 31.11-28.608.678.734-31.109 28.609zM73.8 109.942 12.575 72.648l.522-.853 61.224 37.294zM15.67 122.134l-4.532-50.866.996-.089 4.532 50.867z" clip-rule="evenodd"/><path fill="#0D0A07" fill-rule="evenodd" d="m76.58 111.41-60.287 10.293-.17-.985 60.288-10.294z" clip-rule="evenodd"/></svg>