<svg xmlns="http://www.w3.org/2000/svg" width="200" height="201" fill="none"><path fill="#0D0A07" d="M118.136 7.054a2.953 2.953 0 0 1-4.071-1.09 3.05 3.05 0 0 1 1.105-4.126 2.953 2.953 0 0 1 4.071 1.091 3.05 3.05 0 0 1-1.105 4.125M121.344 75.5a2.953 2.953 0 0 1-4.071-1.091 3.05 3.05 0 0 1 1.105-4.125 2.953 2.953 0 0 1 4.071 1.09 3.047 3.047 0 0 1-1.105 4.126M48.077 92.87a2.953 2.953 0 0 1-4.071-1.09 3.05 3.05 0 0 1 1.105-4.126 2.953 2.953 0 0 1 4.07 1.091 3.05 3.05 0 0 1-1.104 4.125M95.197 198.733a2.953 2.953 0 0 1-4.07-1.091 3.05 3.05 0 0 1 1.104-4.125 2.953 2.953 0 0 1 4.071 1.091 3.05 3.05 0 0 1-1.105 4.125"/><path fill="#0D0A07" fill-rule="evenodd" d="M119.868 74.372 116.19 5.116l.998-.055 3.679 69.256z" clip-rule="evenodd"/><path fill="#0D0A07" fill-rule="evenodd" d="M120.356 74.44 46.198 89.826l-.197-.98L120.16 73.46zM93.472 196.872 44.575 89.183l.905-.424 48.897 107.69z" clip-rule="evenodd"/></svg>