<svg xmlns="http://www.w3.org/2000/svg" width="201" height="201" fill="none"><path fill="#0D0A07" fill-rule="evenodd" d="m109.395 196.25 17.984-6.107.322.947-17.985 6.107z" clip-rule="evenodd"/><path fill="#0D0A07" fill-rule="evenodd" d="m108.974 198.211-4.51-43.66.995-.103 4.509 43.661zM105.003 152.775l-44.897-19.231.393-.919 44.898 19.231z" clip-rule="evenodd"/><path fill="#0D0A07" fill-rule="evenodd" d="m104.599 154.551 1.756-44.043.999.04-1.756 44.042z" clip-rule="evenodd"/><path fill="#0D0A07" fill-rule="evenodd" d="m106.899 110.508 35.58-35.58.707.707-35.58 35.58z" clip-rule="evenodd"/><path fill="#0D0A07" fill-rule="evenodd" d="m107.644 68.512 35.222 6.03-.169.985-35.222-6.03z" clip-rule="evenodd"/><path fill="#0D0A07" fill-rule="evenodd" d="m107.81 69.45 1.62-33.397.999.048-1.621 33.398zM132.563 32.427l1.549-14.293.994.107-1.548 14.294z" clip-rule="evenodd"/><path fill="#0D0A07" fill-rule="evenodd" d="M134.747 18.83 122.559 7.742l.673-.74L135.42 18.09z" clip-rule="evenodd"/><path fill="#0D0A07" fill-rule="evenodd" d="m124.267 8.35-18.556 5.861-.301-.953 18.556-5.862z" clip-rule="evenodd"/><path fill="#0D0A07" fill-rule="evenodd" d="m105.568 12.253 4.836 22.826-.979.207-4.835-22.826z" clip-rule="evenodd"/><path fill="#0D0A07" fill-rule="evenodd" d="m92.075 3.775 13.493 8.478-.532.847-13.493-8.478z" clip-rule="evenodd"/><path fill="#0D0A07" fill-rule="evenodd" d="m75.455 11.146 17.361-7.313.388.922-17.36 7.313zM67.054 31.996l7.471-20.298.939.346-7.472 20.297zM92.743 67.296l15.395 1.326-.086.996-15.395-1.326zM128.01 150.033l-23.007 3.237-.14-.99 23.008-3.237zM141.642 148.85l-13.632.898-.066-.998 13.633-.897zM149.941 141.658l-6.617 5.682-.651-.759 6.617-5.682z" clip-rule="evenodd"/><path fill="#0D0A07" d="M128.433 193.054a3.001 3.001 0 0 1-4.243-4.243 3 3 0 1 1 4.243 4.243M108.205 152.437a3 3 0 1 1-6 0 3 3 0 0 1 6 0M132.085 149.134a3 3 0 1 1-6 0 3 3 0 0 1 6 0M109.588 113.672a3 3 0 1 1-4.243-4.241 3 3 0 0 1 4.243 4.241M142.358 77.89a3 3 0 1 1-4.243-4.243 3 3 0 0 1 4.243 4.244M108.21 71.846a3 3 0 1 1 0-6 3 3 0 0 1 0 6M111.879 37.229a3 3 0 1 1-4.243-4.244 3 3 0 0 1 4.243 4.244M134.685 34.79a3 3 0 1 1-4.243-4.242 3 3 0 0 1 4.243 4.243M136.868 20.809a3 3 0 1 1-4.243-4.244 3 3 0 0 1 4.243 4.244M125.941 8.928a3 3 0 1 1-6 0 3 3 0 0 1 6 0M105.711 16.184a3 3 0 1 1 0-6 3 3 0 0 1 0 6M95.075 5.67a3 3 0 1 1-6 0 3 3 0 0 1 6 0M78.25 12.253a3 3 0 1 1-6 0 3 3 0 0 1 6 0M70.504 32.588a3 3 0 1 1-6 0 3 3 0 0 1 6 0M95.972 67.492a3 3 0 1 1-6 0 3 3 0 0 1 6 0M144.343 147.231a3 3 0 1 1-6 0 3 3 0 0 1 6 0M152.828 141.231a3 3 0 1 1-6 0 3 3 0 0 1 6 0M63.997 133.544a3 3 0 1 1-6 0 3 3 0 0 1 6 0M111.516 198.371a3 3 0 1 1-4.243-4.243 3 3 0 0 1 4.243 4.243"/></svg>