<svg xmlns="http://www.w3.org/2000/svg" width="201" height="201" fill="none"><g fill="#0D0A07" clip-path="url(#a)"><path fill-rule="evenodd" d="M104.127 18.102 51.941 3.362l.272-.963 52.186 14.74z" clip-rule="evenodd"/><path fill-rule="evenodd" d="M77.632 84.726 51.306 2.891l.952-.307L78.584 84.42zM55.694 125.926l-8.12-38.253.978-.207 8.12 38.253z" clip-rule="evenodd"/><path fill-rule="evenodd" d="m78.58 83.425-31.376 5.06-.16-.988 31.377-5.059zM56.969 125.742l-7.78 40.671-.983-.188 7.78-40.67z" clip-rule="evenodd"/><path fill-rule="evenodd" d="m48.537 165.374 27.32 31.996-.76.649-27.32-31.996zM76.214 197.576l61.074-19.502.305.952-61.075 19.502z" clip-rule="evenodd"/><path fill-rule="evenodd" d="m137.423 178.595 15.982-34.416.907.421-15.982 34.416zM152.805 144.01l-23.7-42.693.875-.485 23.7 42.693z" clip-rule="evenodd"/><path fill-rule="evenodd" d="m129.003 101.824-21.336-7.179.319-.947 21.336 7.178z" clip-rule="evenodd"/><path fill-rule="evenodd" d="m108.51 94.175-8.27 27.716-.958-.286 8.27-27.715z" clip-rule="evenodd"/><path d="M107.435 18.102a3 3 0 1 1-5.999-.001 3 3 0 0 1 5.999 0M55.475 3.574a3 3 0 1 1-6 0 3 3 0 0 1 6 0M80.194 83.164a3 3 0 1 1-5.999-.001 3 3 0 0 1 6 0M51.228 88.333a3 3 0 1 1-6-.001 3 3 0 0 1 6 0M58.587 125.719a3 3 0 1 1-5.999-.001 3 3 0 0 1 6 .001M51.893 166.057a3 3 0 1 1-5.999-.001 3 3 0 0 1 6 .001M79.214 197.576a3 3 0 0 1-3 2.999 2.999 2.999 0 1 1 3-2.999M140.125 178.551a3 3 0 1 1-6-.001 3 3 0 0 1 6 .001M155.454 144.728a3 3 0 1 1-6-.001 3 3 0 0 1 6 .001M102.965 120.95a3 3 0 1 1-5.999-.001 3 3 0 0 1 5.999.001M111.235 94.856a3 3 0 1 1-5.999 0 3 3 0 0 1 5.999 0M132.57 102.035a3 3 0 1 1-6-.001 3 3 0 0 1 6 .001"/></g><defs><clipPath id="a"><path fill="#fff" d="M.085.575h200v200h-200z"/></clipPath></defs></svg>