<svg xmlns="http://www.w3.org/2000/svg" width="201" height="201" fill="none"><path fill="#0D0A07" fill-rule="evenodd" d="m83.568 197.255-40.1-69.454.866-.5 40.1 69.454zM158.844 119.428l-48.115-46.554.695-.719 48.116 46.554z" clip-rule="evenodd"/><path fill="#0D0A07" fill-rule="evenodd" d="M111.714 73.569 93.639 6.112l.966-.26L112.68 73.31zM86.17 197.551l72.099-77.011.73.684L86.9 198.235z" clip-rule="evenodd"/><path fill="#0D0A07" d="M44.245 123.623a3 3 0 1 1-1.554 5.797 3 3 0 0 1 1.554-5.797M112.835 70.452a3 3 0 1 1-1.553 5.795 3 3 0 0 1 1.553-5.795M94.191 1.582a3 3 0 1 1-1.553 5.795 3 3 0 0 1 1.553-5.795M86.107 193.619a3 3 0 1 1-1.554 5.796 3 3 0 0 1 1.553-5.796M158.195 117.155a3 3 0 1 1-1.554 5.795 3 3 0 0 1 1.554-5.795"/></svg>