<svg xmlns="http://www.w3.org/2000/svg" width="201" height="201" fill="none"><path fill="#0D0A07" fill-rule="evenodd" d="m56.698 156.696 33.05 32.632-.702.712-33.05-32.633z" clip-rule="evenodd"/><path fill="#0D0A07" fill-rule="evenodd" d="m56.18 156.435 62.6-34.141.479.878-62.6 34.141z" clip-rule="evenodd"/><path fill="#0D0A07" fill-rule="evenodd" d="m76.144 74.509 43.41 48.231-.743.669-43.41-48.232zM5.775 38.008l69.49 36.458-.465.886L5.31 38.894z" clip-rule="evenodd"/><path fill="#0D0A07" fill-rule="evenodd" d="m40.864 83.092 35.28-8.583.236.971-35.28 8.584z" clip-rule="evenodd"/><path fill="#0D0A07" fill-rule="evenodd" d="m27.291 107.799 13.422-24.794.88.476-13.423 24.794zM75.942 74.858l.505-29.898 1 .017-.505 29.898zM75.074 75.365l-16.807-26.98.85-.529 16.806 26.98zM75.944 44.13 101.7 2.836l.849.53-25.758 41.293z" clip-rule="evenodd"/><path fill="#0D0A07" fill-rule="evenodd" d="M59.27 48.263 102.336 3.28l.723.691-43.065 44.983zM130.878 144.22l-13.112-21.607.855-.519 13.112 21.607zM148.903 123.877l-29.35-1.137.039-.999 29.349 1.137z" clip-rule="evenodd"/><path fill="#0D0A07" fill-rule="evenodd" d="m151.576 93.688-2.942 30.034-.995-.098 2.942-30.034z" clip-rule="evenodd"/><path fill="#0D0A07" fill-rule="evenodd" d="m151.172 94.265 22.672 28.146-.779.627-22.671-28.145zM147.584 123.116l26.828.896-.033 1-26.828-.897z" clip-rule="evenodd"/><path fill="#0D0A07" fill-rule="evenodd" d="m156.487 152.474 16.982-29.413.866.5-16.982 29.413zM177.945 87.814l17.432-81.057.977.21-17.431 81.058z" clip-rule="evenodd"/><path fill="#0D0A07" fill-rule="evenodd" d="m76.116 74.557 119.261-67.8.494.87-119.26 67.8zM176.993 165.263l-20.917-12.076.5-.866 20.917 12.076z" clip-rule="evenodd"/><path fill="#0D0A07" fill-rule="evenodd" d="m194.276 175.242-20.917-12.076.5-.866 20.917 12.076z" clip-rule="evenodd"/><path fill="#0D0A07" d="M195.259 178.242a3 3 0 1 1 0-6 3 3 0 0 1 0 6M174.975 165.263a3 3 0 1 1 6 0 3 3 0 0 1-6 0M156.879 155.434a3.001 3.001 0 1 1 3.003-5.197 3.001 3.001 0 0 1-3.003 5.197M173.845 126.727a3 3 0 1 1 0-6 3 3 0 0 1 0 6M151.576 99.19a3 3 0 1 1 0-6 3 3 0 0 1 0 6M176.91 91.352a3 3 0 1 1 2.998-5.195 3 3 0 0 1-2.998 5.195M193.252 10.947a3 3 0 1 1 3-5.198 3 3 0 0 1-3 5.198M74.824 77.059a3 3 0 1 1 3-5.197 3 3 0 0 1-3 5.197M5.033 41.236a3 3 0 1 1 3-5.196 3 3 0 0 1-3 5.196M26.138 111.257a3 3 0 1 1 3-5.196 3 3 0 0 1-3 5.196M40.118 86.702a3 3 0 1 1 3-5.197 3 3 0 0 1-3 5.197M58.959 51.216a3 3 0 1 1 3-5.196 3 3 0 0 1-3 5.196M75.922 47.223a3 3 0 1 1 3-5.196 3 3 0 0 1-3 5.196M99.103 7.546a3 3 0 1 1 3-5.196 3 3 0 0 1-3 5.196M148.145 126.519a3 3 0 1 1 0-6 3 3 0 0 1 0 6M118.78 125.692a3 3 0 1 1 0-6 3 3 0 0 1 0 6M57.411 160.079a3 3 0 1 1 0-6 3 3 0 0 1 0 6M89.2 192.517a3 3 0 1 1 0-6 3 3 0 0 1 0 6M131.672 147.132a3 3 0 1 1 0-6 3 3 0 0 1 0 6"/></svg>