<svg width="201" height="201" viewBox="0 0 201 201" fill="none" xmlns="http://www.w3.org/2000/svg">
<path d="M100.094 4.90728C99.6219 6.49534 97.9518 7.39981 96.3641 6.92745C94.7764 6.4551 93.8723 4.7848 94.3447 3.19673C94.8172 1.60867 96.4873 0.704203 98.075 1.17656C99.6627 1.64891 100.567 3.31921 100.094 4.90728Z" fill="#0D0A07"/>
<path d="M81.5158 83.8428C81.1506 85.459 79.5443 86.4746 77.9279 86.1113C76.3116 85.748 75.2974 84.1433 75.6626 82.5272C76.0277 80.9111 77.634 79.8955 79.2504 80.2588C80.8667 80.6221 81.8809 82.2267 81.5158 83.8428Z" fill="#0D0A07"/>
<path d="M119.286 102.436C118.92 104.052 117.314 105.068 115.698 104.705C114.081 104.341 113.067 102.737 113.432 101.121C113.798 99.5045 115.404 98.4889 117.02 98.8522C118.637 99.2155 119.651 100.82 119.286 102.436Z" fill="#0D0A07"/>
<path d="M159.714 90.1668C159.349 91.7829 157.743 92.7985 156.126 92.4352C154.51 92.0719 153.496 90.4673 153.861 88.8512C154.226 87.2351 155.832 86.2195 157.449 86.5828C159.065 86.9461 160.079 88.5507 159.714 90.1668Z" fill="#0D0A07"/>
<path d="M165.136 149.753C164.771 151.369 163.164 152.385 161.548 152.022C159.932 151.658 158.917 150.054 159.283 148.438C159.648 146.822 161.254 145.806 162.87 146.169C164.487 146.533 165.501 148.137 165.136 149.753Z" fill="#0D0A07"/>
<path d="M109.392 140.595C109.027 142.211 107.421 143.226 105.804 142.863C104.188 142.5 103.174 140.895 103.539 139.279C103.904 137.663 105.511 136.647 107.127 137.011C108.743 137.374 109.757 138.979 109.392 140.595Z" fill="#0D0A07"/>
<path d="M191.394 61.0888C191.028 62.7049 189.422 63.7205 187.806 63.3572C186.189 62.9939 185.175 61.3893 185.54 59.7732C185.906 58.1571 187.512 57.1415 189.128 57.5048C190.745 57.8681 191.759 59.4727 191.394 61.0888Z" fill="#0D0A07"/>
<path d="M79.131 111.494C78.7658 113.11 77.1595 114.126 75.5432 113.763C73.9268 113.399 72.9126 111.795 73.2778 110.179C73.6429 108.563 75.2493 107.547 76.8656 107.91C78.4819 108.274 79.4961 109.878 79.131 111.494Z" fill="#0D0A07"/>
<path d="M68.9324 197.41C68.5672 199.026 66.9609 200.041 65.3445 199.678C63.7282 199.315 62.714 197.71 63.0792 196.094C63.4443 194.478 65.0506 193.462 66.667 193.826C68.2833 194.189 69.2975 195.794 68.9324 197.41Z" fill="#0D0A07"/>
<path d="M15.0087 73.3058C14.6435 74.9219 13.0372 75.9375 11.4209 75.5742C9.80455 75.2109 8.7903 73.6063 9.15547 71.9902C9.52065 70.3741 11.127 69.3585 12.7433 69.7217C14.3596 70.085 15.3738 71.6897 15.0087 73.3058Z" fill="#0D0A07"/>
<path d="M19.385 122.039C19.0198 123.655 17.4135 124.67 15.7972 124.307C14.1809 123.944 13.1666 122.339 13.5318 120.723C13.897 119.107 15.5033 118.091 17.1196 118.455C18.7359 118.818 19.7502 120.423 19.385 122.039Z" fill="#0D0A07"/>
<path fill-rule="evenodd" clip-rule="evenodd" d="M77.9693 84.0845L96.0314 6.09402L97.0056 6.31964L78.9435 84.3102L77.9693 84.0845Z" fill="#0D0A07"/>
<path fill-rule="evenodd" clip-rule="evenodd" d="M75.358 111.41L77.9693 82.3093L78.9653 82.3982L76.3541 111.499L75.358 111.41Z" fill="#0D0A07"/>
<path fill-rule="evenodd" clip-rule="evenodd" d="M65.4647 195.939L75.1904 111.41L76.184 111.523L66.4582 196.053L65.4647 195.939Z" fill="#0D0A07"/>
<path fill-rule="evenodd" clip-rule="evenodd" d="M77.7412 109.2L114.465 102.251L114.652 103.233L77.9281 110.182L77.7412 109.2Z" fill="#0D0A07"/>
<path fill-rule="evenodd" clip-rule="evenodd" d="M114.094 102.251L154.386 89.238L154.695 90.1891L114.402 103.202L114.094 102.251Z" fill="#0D0A07"/>
<path fill-rule="evenodd" clip-rule="evenodd" d="M161.211 148.824L156.241 88.7462L157.237 88.6642L162.208 148.742L161.211 148.824Z" fill="#0D0A07"/>
<path fill-rule="evenodd" clip-rule="evenodd" d="M159.944 148.824L105.92 140.691L106.069 139.702L160.093 147.836L159.944 148.824Z" fill="#0D0A07"/>
<path fill-rule="evenodd" clip-rule="evenodd" d="M104.368 139.124L76.5798 111.41L77.2879 110.703L105.076 138.418L104.368 139.124Z" fill="#0D0A07"/>
<path fill-rule="evenodd" clip-rule="evenodd" d="M156.622 88.7463L187.732 60.1376L188.41 60.8719L157.301 89.4806L156.622 88.7463Z" fill="#0D0A07"/>
<path fill-rule="evenodd" clip-rule="evenodd" d="M73.7994 109.942L12.5762 72.648L13.0984 71.7952L74.3216 109.089L73.7994 109.942Z" fill="#0D0A07"/>
<path fill-rule="evenodd" clip-rule="evenodd" d="M15.67 122.134L11.138 71.2676L12.1341 71.1793L16.6661 122.046L15.67 122.134Z" fill="#0D0A07"/>
<path fill-rule="evenodd" clip-rule="evenodd" d="M76.5798 111.41L16.2929 121.703L16.1237 120.718L76.4106 110.424L76.5798 111.41Z" fill="#0D0A07"/>
</svg>
