<svg width="201" height="201" viewBox="0 0 201 201" fill="none" xmlns="http://www.w3.org/2000/svg">
<g clip-path="url(#clip0_259_3340)">
<path fill-rule="evenodd" clip-rule="evenodd" d="M109.86 198.331L102.607 139.696L103.6 139.573L110.853 198.209L109.86 198.331Z" fill="#0D0A07"/>
<path fill-rule="evenodd" clip-rule="evenodd" d="M168.723 179.282L102.998 139.441L103.516 138.586L169.241 178.427L168.723 179.282Z" fill="#0D0A07"/>
<path fill-rule="evenodd" clip-rule="evenodd" d="M168.054 179.105L126.081 84.9314L126.995 84.5244L168.967 178.698L168.054 179.105Z" fill="#0D0A07"/>
<path fill-rule="evenodd" clip-rule="evenodd" d="M126.081 85.0077L106.896 4.03073L107.869 3.80018L127.054 84.7772L126.081 85.0077Z" fill="#0D0A07"/>
<path fill-rule="evenodd" clip-rule="evenodd" d="M29.7301 19.2069L108.24 3.09921L108.441 4.0788L29.9311 20.1865L29.7301 19.2069Z" fill="#0D0A07"/>
<path fill-rule="evenodd" clip-rule="evenodd" d="M37.7288 67.435L31.2539 21.4282L32.2441 21.2888L38.719 67.2956L37.7288 67.435Z" fill="#0D0A07"/>
<path fill-rule="evenodd" clip-rule="evenodd" d="M68.9611 125.762L37.5231 67.435L38.4034 66.9605L69.8414 125.288L68.9611 125.762Z" fill="#0D0A07"/>
<path fill-rule="evenodd" clip-rule="evenodd" d="M103.322 140.001L68.1549 125.962L68.5257 125.033L103.693 139.072L103.322 140.001Z" fill="#0D0A07"/>
<path fill-rule="evenodd" clip-rule="evenodd" d="M154.987 34.0182L107.37 3.09921L107.914 2.2605L155.531 33.1795L154.987 34.0182Z" fill="#0D0A07"/>
<path fill-rule="evenodd" clip-rule="evenodd" d="M160.265 121.901L154.986 33.7227L155.985 33.663L161.263 121.841L160.265 121.901Z" fill="#0D0A07"/>
<path d="M167.519 180.601C165.862 180.601 164.519 179.258 164.519 177.601C164.519 175.944 165.862 174.601 167.519 174.601C169.176 174.601 170.519 175.944 170.519 177.601C170.519 179.258 169.176 180.601 167.519 180.601Z" fill="#0D0A07"/>
<path d="M126.756 87.9687C125.099 87.9687 123.756 86.6255 123.756 84.9687C123.756 83.3118 125.099 81.9687 126.756 81.9687C128.413 81.9687 129.756 83.3118 129.756 84.9687C129.756 86.6255 128.413 87.9687 126.756 87.9687Z" fill="#0D0A07"/>
<path d="M110.51 200.489C108.853 200.489 107.51 199.146 107.51 197.489C107.51 195.832 108.853 194.489 110.51 194.489C112.167 194.489 113.51 195.832 113.51 197.489C113.51 199.146 112.167 200.489 110.51 200.489Z" fill="#0D0A07"/>
<path d="M103.753 142.82C102.097 142.82 100.753 141.477 100.753 139.82C100.753 138.164 102.097 136.82 103.753 136.82C105.41 136.82 106.753 138.164 106.753 139.82C106.753 141.477 105.41 142.82 103.753 142.82Z" fill="#0D0A07"/>
<path d="M70.5299 128.781C68.8731 128.781 67.5299 127.438 67.5299 125.781C67.5299 124.124 68.8731 122.781 70.5299 122.781C72.1868 122.781 73.5299 124.124 73.5299 125.781C73.5299 127.438 72.1868 128.781 70.5299 128.781Z" fill="#0D0A07"/>
<path d="M38.6473 70.6909C36.9904 70.6909 35.6473 69.3477 35.6473 67.6909C35.6473 66.034 36.9904 64.6909 38.6473 64.6909C40.3041 64.6909 41.6473 66.034 41.6473 67.6909C41.6473 69.3477 40.3041 70.6909 38.6473 70.6909Z" fill="#0D0A07"/>
<path d="M32.4961 23.2511C30.8392 23.2511 29.4961 21.908 29.4961 20.2511C29.4961 18.5943 30.8392 17.2511 32.4961 17.2511C34.1529 17.2511 35.4961 18.5943 35.4961 20.2511C35.4961 21.908 34.1529 23.2511 32.4961 23.2511Z" fill="#0D0A07"/>
<path d="M107.784 6.8501C106.128 6.8501 104.784 5.50695 104.784 3.8501C104.784 2.19324 106.128 0.850098 107.784 0.850098C109.441 0.850098 110.784 2.19324 110.784 3.8501C110.784 5.50695 109.441 6.8501 107.784 6.8501Z" fill="#0D0A07"/>
<path d="M161.032 125.781C159.375 125.781 158.032 124.438 158.032 122.781C158.032 121.124 159.375 119.781 161.032 119.781C162.689 119.781 164.032 121.124 164.032 122.781C164.032 124.438 162.689 125.781 161.032 125.781Z" fill="#0D0A07"/>
<path d="M154.72 37.1782C153.063 37.1782 151.72 35.8351 151.72 34.1782C151.72 32.5213 153.063 31.1782 154.72 31.1782C156.377 31.1782 157.72 32.5213 157.72 34.1782C157.72 35.8351 156.377 37.1782 154.72 37.1782Z" fill="#0D0A07"/>
</g>
<defs>
<clipPath id="clip0_259_3340">
<rect width="200" height="200" fill="white" transform="translate(0.18457 0.850098)"/>
</clipPath>
</defs>
</svg>
