<svg xmlns="http://www.w3.org/2000/svg" width="201" height="201" fill="none"><g fill="#0D0A07" clip-path="url(#a)"><path fill-rule="evenodd" d="m109.86 198.331-7.253-58.635.993-.123 7.253 58.636z" clip-rule="evenodd"/><path fill-rule="evenodd" d="m168.723 179.282-65.725-39.841.518-.855 65.725 39.841z" clip-rule="evenodd"/><path fill-rule="evenodd" d="m168.054 179.105-41.973-94.174.914-.407 41.972 94.174z" clip-rule="evenodd"/><path fill-rule="evenodd" d="M126.081 85.008 106.896 4.03l.973-.23 19.185 80.976z" clip-rule="evenodd"/><path fill-rule="evenodd" d="m29.73 19.207 78.51-16.108.201.98-78.51 16.107zM37.729 67.435l-6.475-46.007.99-.14 6.475 46.008z" clip-rule="evenodd"/><path fill-rule="evenodd" d="M68.961 125.762 37.523 67.435l.88-.475 31.438 58.328z" clip-rule="evenodd"/><path fill-rule="evenodd" d="m103.322 140.001-35.167-14.039.37-.929 35.168 14.039zM154.987 34.018 107.37 3.1l.544-.839 47.617 30.92z" clip-rule="evenodd"/><path fill-rule="evenodd" d="m160.265 121.901-5.279-88.178.999-.06 5.278 88.178z" clip-rule="evenodd"/><path d="M167.519 180.601a3 3 0 1 1 0-6 3 3 0 0 1 0 6M126.756 87.969a3 3 0 1 1 0-6 3 3 0 0 1 0 6M110.51 200.489a3 3 0 1 1 0-6 3 3 0 0 1 0 6M103.753 142.82a3 3 0 1 1 0-6 3 3 0 0 1 0 6M70.53 128.781a3 3 0 1 1 0-6 3 3 0 0 1 0 6M38.647 70.69a3 3 0 1 1 0-6 3 3 0 0 1 0 6M32.496 23.251a3 3 0 1 1 0-6 3 3 0 0 1 0 6M107.784 6.85a3 3 0 1 1 .001-6.001 3 3 0 0 1-.001 6.001M161.032 125.781a3 3 0 1 1 0-6 3 3 0 0 1 0 6M154.72 37.178a3 3 0 1 1 0-6 3 3 0 0 1 0 6"/></g><defs><clipPath id="a"><path fill="#fff" d="M.185.85h200v200h-200z"/></clipPath></defs></svg>