<svg width="200" height="201" viewBox="0 0 200 201" fill="none" xmlns="http://www.w3.org/2000/svg">
<path d="M118.136 7.05399C116.707 7.89184 114.884 7.40349 114.065 5.96324C113.246 4.52298 113.741 2.67622 115.17 1.83837C116.599 1.00052 118.422 1.48887 119.241 2.92913C120.06 4.36938 119.565 6.21615 118.136 7.05399Z" fill="#0D0A07"/>
<path d="M121.344 75.4997C119.915 76.3375 118.092 75.8492 117.273 74.4089C116.454 72.9687 116.949 71.1219 118.378 70.2841C119.808 69.4462 121.63 69.9346 122.449 71.3748C123.268 72.8151 122.774 74.6619 121.344 75.4997Z" fill="#0D0A07"/>
<path d="M48.0768 92.8699C46.6474 93.7078 44.8247 93.2194 44.0056 91.7792C43.1866 90.3389 43.6814 88.4921 45.1108 87.6543C46.5402 86.8165 48.3629 87.3048 49.1819 88.7451C50.001 90.1853 49.5062 92.0321 48.0768 92.8699Z" fill="#0D0A07"/>
<path d="M95.1973 198.733C93.7679 199.571 91.9452 199.082 91.1261 197.642C90.3071 196.202 90.8019 194.355 92.2313 193.517C93.6607 192.679 95.4834 193.168 96.3024 194.608C97.1215 196.048 96.6267 197.895 95.1973 198.733Z" fill="#0D0A07"/>
<path fill-rule="evenodd" clip-rule="evenodd" d="M119.868 74.3719L116.19 5.11561L117.188 5.06094L120.867 74.3172L119.868 74.3719Z" fill="#0D0A07"/>
<path fill-rule="evenodd" clip-rule="evenodd" d="M120.356 74.4407L46.1984 89.825L46.0011 88.8447L120.159 73.4604L120.356 74.4407Z" fill="#0D0A07"/>
<path fill-rule="evenodd" clip-rule="evenodd" d="M93.4717 196.872L44.5745 89.183L45.4802 88.7591L94.3774 196.449L93.4717 196.872Z" fill="#0D0A07"/>
</svg>
