<svg width="201" height="201" viewBox="0 0 201 201" fill="none" xmlns="http://www.w3.org/2000/svg">
<path fill-rule="evenodd" clip-rule="evenodd" d="M109.395 196.25L127.379 190.143L127.701 191.09L109.716 197.197L109.395 196.25Z" fill="#0D0A07"/>
<path fill-rule="evenodd" clip-rule="evenodd" d="M108.974 198.211L104.464 154.551L105.459 154.448L109.968 198.109L108.974 198.211Z" fill="#0D0A07"/>
<path fill-rule="evenodd" clip-rule="evenodd" d="M105.003 152.775L60.1058 133.544L60.4995 132.625L105.397 151.856L105.003 152.775Z" fill="#0D0A07"/>
<path fill-rule="evenodd" clip-rule="evenodd" d="M104.599 154.551L106.355 110.508L107.354 110.548L105.598 154.59L104.599 154.551Z" fill="#0D0A07"/>
<path fill-rule="evenodd" clip-rule="evenodd" d="M106.899 110.508L142.479 74.9281L143.186 75.6353L107.606 111.215L106.899 110.508Z" fill="#0D0A07"/>
<path fill-rule="evenodd" clip-rule="evenodd" d="M107.644 68.5119L142.866 74.5417L142.697 75.5274L107.475 69.4976L107.644 68.5119Z" fill="#0D0A07"/>
<path fill-rule="evenodd" clip-rule="evenodd" d="M107.81 69.4505L109.43 36.0529L110.429 36.1014L108.808 69.4989L107.81 69.4505Z" fill="#0D0A07"/>
<path fill-rule="evenodd" clip-rule="evenodd" d="M132.563 32.4267L134.112 18.1338L135.106 18.2415L133.558 32.5345L132.563 32.4267Z" fill="#0D0A07"/>
<path fill-rule="evenodd" clip-rule="evenodd" d="M134.747 18.8295L122.559 7.74192L123.232 7.00221L135.42 18.0897L134.747 18.8295Z" fill="#0D0A07"/>
<path fill-rule="evenodd" clip-rule="evenodd" d="M124.267 8.34941L105.711 14.2114L105.41 13.2579L123.966 7.39586L124.267 8.34941Z" fill="#0D0A07"/>
<path fill-rule="evenodd" clip-rule="evenodd" d="M105.568 12.2528L110.404 35.0789L109.425 35.2862L104.59 12.4601L105.568 12.2528Z" fill="#0D0A07"/>
<path fill-rule="evenodd" clip-rule="evenodd" d="M92.0746 3.77497L105.568 12.2528L105.036 13.0996L91.5426 4.62172L92.0746 3.77497Z" fill="#0D0A07"/>
<path fill-rule="evenodd" clip-rule="evenodd" d="M75.455 11.146L92.8163 3.83329L93.2045 4.75488L75.8431 12.0676L75.455 11.146Z" fill="#0D0A07"/>
<path fill-rule="evenodd" clip-rule="evenodd" d="M67.0536 31.9958L74.5255 11.6983L75.4639 12.0437L67.9921 32.3413L67.0536 31.9958Z" fill="#0D0A07"/>
<path fill-rule="evenodd" clip-rule="evenodd" d="M92.7427 67.2955L108.138 68.6217L108.052 69.618L92.6569 68.2918L92.7427 67.2955Z" fill="#0D0A07"/>
<path fill-rule="evenodd" clip-rule="evenodd" d="M128.01 150.033L105.003 153.27L104.863 152.28L127.871 149.043L128.01 150.033Z" fill="#0D0A07"/>
<path fill-rule="evenodd" clip-rule="evenodd" d="M141.642 148.85L128.01 149.748L127.944 148.75L141.577 147.853L141.642 148.85Z" fill="#0D0A07"/>
<path fill-rule="evenodd" clip-rule="evenodd" d="M149.941 141.658L143.324 147.34L142.673 146.581L149.29 140.899L149.941 141.658Z" fill="#0D0A07"/>
<path d="M128.433 193.054C127.261 194.225 125.362 194.225 124.19 193.054C123.019 191.882 123.019 189.982 124.19 188.811C125.362 187.639 127.261 187.639 128.433 188.811C129.604 189.982 129.604 191.882 128.433 193.054Z" fill="#0D0A07"/>
<path d="M108.205 152.437C108.205 154.094 106.862 155.437 105.205 155.437C103.548 155.437 102.205 154.094 102.205 152.437C102.205 150.781 103.548 149.437 105.205 149.437C106.862 149.437 108.205 150.781 108.205 152.437Z" fill="#0D0A07"/>
<path d="M132.085 149.134C132.085 150.791 130.742 152.134 129.085 152.134C127.428 152.134 126.085 150.791 126.085 149.134C126.085 147.477 127.428 146.134 129.085 146.134C130.742 146.134 132.085 147.477 132.085 149.134Z" fill="#0D0A07"/>
<path d="M109.588 113.672C108.416 114.844 106.517 114.844 105.345 113.672C104.174 112.501 104.174 110.601 105.345 109.43C106.517 108.258 108.416 108.258 109.588 109.43C110.76 110.601 110.76 112.501 109.588 113.672Z" fill="#0D0A07"/>
<path d="M142.358 77.8908C141.186 79.0624 139.287 79.0624 138.115 77.8908C136.944 76.7192 136.944 74.8197 138.115 73.6482C139.287 72.4766 141.186 72.4766 142.358 73.6482C143.53 74.8197 143.53 76.7192 142.358 77.8908Z" fill="#0D0A07"/>
<path d="M108.21 71.8457C106.553 71.8457 105.21 70.5026 105.21 68.8457C105.21 67.1889 106.553 65.8457 108.21 65.8457C109.866 65.8457 111.21 67.1889 111.21 68.8457C111.21 70.5026 109.866 71.8457 108.21 71.8457Z" fill="#0D0A07"/>
<path d="M111.879 37.229C110.707 38.4005 108.808 38.4005 107.636 37.229C106.464 36.0574 106.464 34.1579 107.636 32.9863C108.808 31.8147 110.707 31.8147 111.879 32.9863C113.05 34.1579 113.05 36.0574 111.879 37.229Z" fill="#0D0A07"/>
<path d="M134.685 34.7909C133.513 35.9625 131.614 35.9625 130.442 34.7909C129.27 33.6193 129.27 31.7198 130.442 30.5482C131.614 29.3767 133.513 29.3767 134.685 30.5482C135.856 31.7198 135.856 33.6193 134.685 34.7909Z" fill="#0D0A07"/>
<path d="M136.868 20.809C135.697 21.9805 133.797 21.9805 132.625 20.809C131.454 19.6374 131.454 17.7379 132.625 16.5663C133.797 15.3947 135.697 15.3947 136.868 16.5663C138.04 17.7379 138.04 19.6374 136.868 20.809Z" fill="#0D0A07"/>
<path d="M125.941 8.928C125.941 10.5848 124.598 11.928 122.941 11.928C121.284 11.928 119.941 10.5848 119.941 8.928C119.941 7.27114 121.284 5.928 122.941 5.928C124.598 5.928 125.941 7.27114 125.941 8.928Z" fill="#0D0A07"/>
<path d="M105.711 16.1838C104.054 16.1838 102.711 14.8406 102.711 13.1838C102.711 11.5269 104.054 10.1838 105.711 10.1838C107.368 10.1838 108.711 11.5269 108.711 13.1838C108.711 14.8406 107.368 16.1838 105.711 16.1838Z" fill="#0D0A07"/>
<path d="M95.0746 5.66968C95.0746 7.32653 93.7315 8.66968 92.0746 8.66968C90.4178 8.66968 89.0746 7.32653 89.0746 5.66968C89.0746 4.01282 90.4178 2.66968 92.0746 2.66968C93.7315 2.66968 95.0746 4.01282 95.0746 5.66968Z" fill="#0D0A07"/>
<path d="M78.2495 12.2528C78.2495 13.9097 76.9064 15.2528 75.2495 15.2528C73.5927 15.2528 72.2495 13.9097 72.2495 12.2528C72.2495 10.5959 73.5927 9.2528 75.2495 9.2528C76.9064 9.2528 78.2495 10.5959 78.2495 12.2528Z" fill="#0D0A07"/>
<path d="M70.5043 32.5879C70.5043 34.2448 69.1612 35.5879 67.5043 35.5879C65.8475 35.5879 64.5043 34.2448 64.5043 32.5879C64.5043 30.9311 65.8475 29.5879 67.5043 29.5879C69.1612 29.5879 70.5043 30.9311 70.5043 32.5879Z" fill="#0D0A07"/>
<path d="M95.9716 67.492C95.9716 69.1489 94.6284 70.492 92.9716 70.492C91.3147 70.492 89.9716 69.1489 89.9716 67.492C89.9716 65.8352 91.3147 64.492 92.9716 64.492C94.6284 64.492 95.9716 65.8352 95.9716 67.492Z" fill="#0D0A07"/>
<path d="M144.343 147.231C144.343 148.888 143 150.231 141.343 150.231C139.686 150.231 138.343 148.888 138.343 147.231C138.343 145.574 139.686 144.231 141.343 144.231C143 144.231 144.343 145.574 144.343 147.231Z" fill="#0D0A07"/>
<path d="M152.828 141.231C152.828 142.888 151.485 144.231 149.828 144.231C148.172 144.231 146.828 142.888 146.828 141.231C146.828 139.574 148.172 138.231 149.828 138.231C151.485 138.231 152.828 139.574 152.828 141.231Z" fill="#0D0A07"/>
<path d="M63.9971 133.544C63.9971 135.201 62.6539 136.544 60.9971 136.544C59.3402 136.544 57.9971 135.201 57.9971 133.544C57.9971 131.887 59.3402 130.544 60.9971 130.544C62.6539 130.544 63.9971 131.887 63.9971 133.544Z" fill="#0D0A07"/>
<path d="M111.516 198.371C110.345 199.543 108.445 199.543 107.274 198.371C106.102 197.199 106.102 195.3 107.274 194.128C108.445 192.957 110.345 192.957 111.516 194.128C112.688 195.3 112.688 197.199 111.516 198.371Z" fill="#0D0A07"/>
</svg>
