<svg width="201" height="201" viewBox="0 0 201 201" fill="none" xmlns="http://www.w3.org/2000/svg">
<g clip-path="url(#clip0_259_3331)">
<path fill-rule="evenodd" clip-rule="evenodd" d="M104.127 18.1018L51.9409 3.36119L52.2126 2.39915L104.399 17.1398L104.127 18.1018Z" fill="#0D0A07"/>
<path fill-rule="evenodd" clip-rule="evenodd" d="M77.6321 84.7264L51.3058 2.89056L52.2577 2.58433L78.584 84.4201L77.6321 84.7264Z" fill="#0D0A07"/>
<path fill-rule="evenodd" clip-rule="evenodd" d="M55.6935 125.926L47.5736 87.6733L48.5518 87.4658L56.6717 125.719L55.6935 125.926Z" fill="#0D0A07"/>
<path fill-rule="evenodd" clip-rule="evenodd" d="M78.5807 83.4253L47.2035 88.4846L47.0443 87.4974L78.4214 82.4381L78.5807 83.4253Z" fill="#0D0A07"/>
<path fill-rule="evenodd" clip-rule="evenodd" d="M56.9685 125.742L49.1885 166.413L48.2063 166.225L55.9863 125.555L56.9685 125.742Z" fill="#0D0A07"/>
<path fill-rule="evenodd" clip-rule="evenodd" d="M48.5372 165.374L75.8573 197.37L75.0967 198.019L47.7766 166.023L48.5372 165.374Z" fill="#0D0A07"/>
<path fill-rule="evenodd" clip-rule="evenodd" d="M76.2135 197.576L137.288 178.074L137.593 179.026L76.5178 198.528L76.2135 197.576Z" fill="#0D0A07"/>
<path fill-rule="evenodd" clip-rule="evenodd" d="M137.423 178.595L153.405 144.179L154.312 144.6L138.33 179.016L137.423 178.595Z" fill="#0D0A07"/>
<path fill-rule="evenodd" clip-rule="evenodd" d="M152.805 144.01L129.105 101.317L129.98 100.832L153.68 143.525L152.805 144.01Z" fill="#0D0A07"/>
<path fill-rule="evenodd" clip-rule="evenodd" d="M129.003 101.824L107.667 94.6454L107.986 93.6977L129.322 100.876L129.003 101.824Z" fill="#0D0A07"/>
<path fill-rule="evenodd" clip-rule="evenodd" d="M108.51 94.1754L100.24 121.891L99.282 121.605L107.552 93.8897L108.51 94.1754Z" fill="#0D0A07"/>
<path d="M107.435 18.1018C107.435 19.7581 106.092 21.1008 104.435 21.1008C102.778 21.1008 101.435 19.7581 101.435 18.1018C101.435 16.4455 102.778 15.1028 104.435 15.1028C106.092 15.1028 107.435 16.4455 107.435 18.1018Z" fill="#0D0A07"/>
<path d="M55.4748 3.57416C55.4748 5.23044 54.1317 6.57313 52.4748 6.57313C50.818 6.57313 49.4748 5.23044 49.4748 3.57416C49.4748 1.91788 50.818 0.575195 52.4748 0.575195C54.1317 0.575195 55.4748 1.91788 55.4748 3.57416Z" fill="#0D0A07"/>
<path d="M80.1941 83.1637C80.1941 84.82 78.851 86.1627 77.1941 86.1627C75.5372 86.1627 74.1941 84.82 74.1941 83.1637C74.1941 81.5075 75.5372 80.1648 77.1941 80.1648C78.851 80.1648 80.1941 81.5075 80.1941 83.1637Z" fill="#0D0A07"/>
<path d="M51.2275 88.3325C51.2275 89.9888 49.8844 91.3315 48.2275 91.3315C46.5707 91.3315 45.2275 89.9888 45.2275 88.3325C45.2275 86.6762 46.5707 85.3335 48.2275 85.3335C49.8844 85.3335 51.2275 86.6762 51.2275 88.3325Z" fill="#0D0A07"/>
<path d="M58.5874 125.719C58.5874 127.375 57.2443 128.718 55.5874 128.718C53.9306 128.718 52.5874 127.375 52.5874 125.719C52.5874 124.062 53.9306 122.72 55.5874 122.72C57.2443 122.72 58.5874 124.062 58.5874 125.719Z" fill="#0D0A07"/>
<path d="M51.8934 166.057C51.8934 167.713 50.5503 169.056 48.8934 169.056C47.2366 169.056 45.8934 167.713 45.8934 166.057C45.8934 164.401 47.2366 163.058 48.8934 163.058C50.5503 163.058 51.8934 164.401 51.8934 166.057Z" fill="#0D0A07"/>
<path d="M79.2135 197.576C79.2135 199.233 77.8703 200.575 76.2135 200.575C74.5566 200.575 73.2135 199.233 73.2135 197.576C73.2135 195.92 74.5566 194.577 76.2135 194.577C77.8703 194.577 79.2135 195.92 79.2135 197.576Z" fill="#0D0A07"/>
<path d="M140.125 178.551C140.125 180.207 138.782 181.55 137.125 181.55C135.468 181.55 134.125 180.207 134.125 178.551C134.125 176.895 135.468 175.552 137.125 175.552C138.782 175.552 140.125 176.895 140.125 178.551Z" fill="#0D0A07"/>
<path d="M155.454 144.728C155.454 146.384 154.111 147.727 152.454 147.727C150.797 147.727 149.454 146.384 149.454 144.728C149.454 143.072 150.797 141.729 152.454 141.729C154.111 141.729 155.454 143.072 155.454 144.728Z" fill="#0D0A07"/>
<path d="M102.965 120.95C102.965 122.606 101.622 123.949 99.9655 123.949C98.3086 123.949 96.9655 122.606 96.9655 120.95C96.9655 119.294 98.3086 117.951 99.9655 117.951C101.622 117.951 102.965 119.294 102.965 120.95Z" fill="#0D0A07"/>
<path d="M111.235 94.856C111.235 96.5123 109.892 97.855 108.235 97.855C106.578 97.855 105.235 96.5123 105.235 94.856C105.235 93.1997 106.578 91.857 108.235 91.857C109.892 91.857 111.235 93.1997 111.235 94.856Z" fill="#0D0A07"/>
<path d="M132.57 102.035C132.57 103.691 131.227 105.034 129.57 105.034C127.913 105.034 126.57 103.691 126.57 102.035C126.57 100.378 127.913 99.0356 129.57 99.0356C131.227 99.0356 132.57 100.378 132.57 102.035Z" fill="#0D0A07"/>
</g>
<defs>
<clipPath id="clip0_259_3331">
<rect width="200" height="200" fill="white" transform="translate(0.0849609 0.575195)"/>
</clipPath>
</defs>
</svg>
