<svg xmlns="http://www.w3.org/2000/svg" width="200" height="201" fill="none"><g fill="#0D0A07" clip-path="url(#a)"><path fill-rule="evenodd" d="m171.669 60.13-3.92-32.157-.992.122 3.92 32.157z" clip-rule="evenodd"/><path fill-rule="evenodd" d="m171.968 59.75-56.216-15.042-.255.967 56.216 15.041zM133.445 77.927l-18.772-32.98-.868.5 18.772 32.981z" clip-rule="evenodd"/><path fill-rule="evenodd" d="M114.752 44.982 94.198 49.41l.21.985 20.553-4.428zM93.86 49.368l-5.822-13.536-.917.4 5.822 13.536z" clip-rule="evenodd"/><path fill-rule="evenodd" d="m94.028 49.893-12.7-4.815-.35.937 12.7 4.815z" clip-rule="evenodd"/><path fill-rule="evenodd" d="m81.686 44.3-16.655 5.138.29.956 16.655-5.138zM63.346 48.456l-11.604-7.88-.557.83 11.604 7.88zM69.52 99.202l-26.377-21.95-.637.776 26.377 21.95zM110.974 91.623l22.505-13.2-.501-.865-22.505 13.199z" clip-rule="evenodd"/><path fill-rule="evenodd" d="m149.077 106.458-15.526-28.479-.877.485 15.527 28.479z" clip-rule="evenodd"/><path fill-rule="evenodd" d="m144.159 127.46 4.277-21.533-.981-.197-4.277 21.532z" clip-rule="evenodd"/><path fill-rule="evenodd" d="M143.988 127.978 111.07 91.997l-.735.682 32.917 35.981z" clip-rule="evenodd"/><path fill-rule="evenodd" d="m142.807 127.87-.44 28.662.999.016.441-28.663zM111.074 92.001 93.376 75.726l-.674.744L110.4 92.745zM68.712 99.3l24.231-23.11-.687-.732-24.232 23.11z" clip-rule="evenodd"/><path fill-rule="evenodd" d="m93.466 76.092 1.272-26.927-.999-.048-1.272 26.928zM68.099 99.035l33.933 24.64.585-.817-33.933-24.64zM102.035 123.677l41.611 32.855.617-.792-41.611-32.856z" clip-rule="evenodd"/><path fill-rule="evenodd" d="m101.046 123.724 2.585 17.233.988-.15-2.584-17.234zM103.535 140.982l-7.705 40.276.982.19 7.704-40.275zM125.43 198.401l-27.79-17.309-.523.852 27.79 17.31zM139.599 191.831l4.185-36.321-.993-.116-4.185 36.321z" clip-rule="evenodd"/><path fill-rule="evenodd" d="m125.565 198.296 14.555-6.091-.381-.924-14.555 6.091zM150.537 86.596l-16.594-8.762-.462.887 16.595 8.762zM162.674 95.474l-10.886-7.888-.581.814 10.886 7.887zM148.452 3.21l-33.407 41.469.775.632 33.406-41.468zM167.144 25.06 149.954 3.62l-.776.632 17.191 21.438z" clip-rule="evenodd"/><path d="M166.757 23.644a3 3 0 1 0 0 6 3 3 0 1 0 0-6M114.961 42.843a3 3 0 1 0 0 6 3 3 0 1 0 0-6M93.192 46.623a3.013 3.013 0 0 0-2.125 3.681 2.987 2.987 0 0 0 3.667 2.117 3.013 3.013 0 0 0 2.125-3.68 2.987 2.987 0 0 0-3.667-2.118M87.282 32.854a3 3 0 1 0 0 6 3 3 0 1 0 0-6M80.31 42.213a3 3 0 1 0 0 6 3 3 0 1 0 0-6M64.26 46.893a3 3 0 1 0 0 6 3 3 0 1 0 0-6M52.185 38.576a3 3 0 1 0 0 6 3 3 0 1 0 0-6M91.835 72.233a3 3 0 1 0 0 6 3 3 0 1 0 0-6M68.688 95.808a3 3 0 1 0 0 6 3 3 0 1 0 0-6M33.5 66.876a3 3 0 1 0 0 6 3 3 0 1 0 0-6M46.179 70.516a3 3 0 1 0 0 6 3 3 0 1 0 0-6M38.375 79.058a3 3 0 1 0 0 6 3 3 0 1 0 0-6M101.47 120.006a3 3 0 1 0 0 6 3 3 0 0 0 0-6M142.807 152.792a3 3 0 0 0-3 2.999 3 3 0 1 0 3-2.999M110.078 88.36a3 3 0 1 0 0 6 3 3 0 1 0 0-6M147.744 103.041a3 3 0 1 0 0 6 3 3 0 0 0 0-6M143.033 124.482a3 3 0 0 0-3 2.999 3 3 0 1 0 3-2.999M139.012 188.737a3 3 0 1 0 0 6 3 3 0 0 0 0-6M123.76 194.575a3 3 0 0 0-3 2.999 3 3 0 1 0 3-2.999M97.117 177.439a3 3 0 0 0-3 2.999 3 3 0 1 0 3-2.999M103.848 137.296a2.999 2.999 0 1 0 0 6 3 3 0 0 0 0-6M132.554 75.187a3 3 0 1 0 0 6 3 3 0 1 0 0-6M149.772 83.936a3 3 0 1 0 0 6 3 3 0 1 0 0-6M161.997 93.039a3 3 0 1 0 0 6 3 3 0 1 0 0-6M149.178.62a3 3 0 1 0 0 6 3 3 0 1 0 0-6M170.211 55.457a2.999 2.999 0 0 0 0 6 3 3 0 1 0 0-6"/><path fill-rule="evenodd" d="m32.852 69.514 5.645 13.393 8.457-9.874zm1.61 1.378 4.3 10.202 6.44-7.52z" clip-rule="evenodd"/><path fill-rule="evenodd" d="m38.497 82.907 8.457-9.874-14.102-3.52zm.264-1.813 6.442-7.52-10.742-2.682z" clip-rule="evenodd"/></g><defs><clipPath id="a"><path fill="#fff" d="M0 .575h200v200H0z"/></clipPath></defs></svg>