<svg width="201" height="201" viewBox="0 0 201 201" fill="none" xmlns="http://www.w3.org/2000/svg">
<g clip-path="url(#clip0_259_3330)">
<path fill-rule="evenodd" clip-rule="evenodd" d="M50.5269 198.635L5.39487 125.136L6.23975 124.601L51.3718 198.1L50.5269 198.635Z" fill="#0D0A07"/>
<path fill-rule="evenodd" clip-rule="evenodd" d="M161.883 197.331L51.3104 199.29L51.2932 198.291L161.866 196.331L161.883 197.331Z" fill="#0D0A07"/>
<path fill-rule="evenodd" clip-rule="evenodd" d="M162.488 196.736L121.124 106.659L122.028 106.231L163.392 196.308L162.488 196.736Z" fill="#0D0A07"/>
<path fill-rule="evenodd" clip-rule="evenodd" d="M191.282 99.367L120.444 105.66L120.359 104.664L191.196 98.3707L191.282 99.367Z" fill="#0D0A07"/>
<path fill-rule="evenodd" clip-rule="evenodd" d="M194.022 57.6339L190.41 99.5525L189.414 99.464L193.025 57.5454L194.022 57.6339Z" fill="#0D0A07"/>
<path fill-rule="evenodd" clip-rule="evenodd" d="M93.2501 4.39614L193.732 57.9504L193.273 58.8388L92.7909 5.28449L93.2501 4.39614Z" fill="#0D0A07"/>
<path d="M195.414 58.7473C195.414 60.4041 194.071 61.7473 192.414 61.7473C190.757 61.7473 189.414 60.4041 189.414 58.7473C189.414 57.0904 190.757 55.7473 192.414 55.7473C194.071 55.7473 195.414 57.0904 195.414 58.7473Z" fill="#0D0A07"/>
<path d="M192.154 97.5752C192.154 99.232 190.811 100.575 189.154 100.575C187.497 100.575 186.154 99.232 186.154 97.5752C186.154 95.9183 187.497 94.5752 189.154 94.5752C190.811 94.5752 192.154 95.9183 192.154 97.5752Z" fill="#0D0A07"/>
<path d="M125.906 106.231C125.906 107.888 124.563 109.231 122.906 109.231C121.249 109.231 119.906 107.888 119.906 106.231C119.906 104.574 121.249 103.231 122.906 103.231C124.563 103.231 125.906 104.574 125.906 106.231Z" fill="#0D0A07"/>
<path d="M9.33497 126.343C9.33497 128 7.99182 129.343 6.33496 129.343C4.67811 129.343 3.33496 128 3.33496 126.343C3.33496 124.686 4.67811 123.343 6.33496 123.343C7.99182 123.343 9.33497 124.686 9.33497 126.343Z" fill="#0D0A07"/>
<path d="M53.9575 197.482C53.9575 199.139 52.6144 200.482 50.9575 200.482C49.3007 200.482 47.9575 199.139 47.9575 197.482C47.9575 195.826 49.3007 194.482 50.9575 194.482C52.6144 194.482 53.9575 195.826 53.9575 197.482Z" fill="#0D0A07"/>
<path d="M165.54 195.704C165.54 197.361 164.197 198.704 162.54 198.704C160.884 198.704 159.54 197.361 159.54 195.704C159.54 194.047 160.884 192.704 162.54 192.704C164.197 192.704 165.54 194.047 165.54 195.704Z" fill="#0D0A07"/>
<path d="M93.7885 3.5752C93.7885 5.23205 92.4453 6.5752 90.7885 6.5752C89.1316 6.5752 87.7885 5.23205 87.7885 3.5752C87.7885 1.91834 89.1316 0.575195 90.7885 0.575195C92.4453 0.575195 93.7885 1.91834 93.7885 3.5752Z" fill="#0D0A07"/>
</g>
<defs>
<clipPath id="clip0_259_3330">
<rect width="200" height="200" fill="white" transform="translate(0.18457 0.575195)"/>
</clipPath>
</defs>
</svg>
