<svg xmlns="http://www.w3.org/2000/svg" width="201" height="201" fill="none"><g fill="#0D0A07" clip-path="url(#a)"><path fill-rule="evenodd" d="M50.527 198.635 5.395 125.136l.845-.535L51.372 198.1zM161.883 197.331 51.31 199.29l-.017-.999 110.573-1.96zM162.488 196.736l-41.364-90.077.904-.428 41.364 90.077zM191.282 99.367l-70.838 6.293-.085-.996 70.837-6.293z" clip-rule="evenodd"/><path fill-rule="evenodd" d="m194.022 57.634-3.612 41.918-.996-.088 3.611-41.919z" clip-rule="evenodd"/><path fill-rule="evenodd" d="M93.25 4.396 193.732 57.95l-.459.889L92.791 5.284z" clip-rule="evenodd"/><path d="M195.414 58.747a3 3 0 1 1-6 0 3 3 0 0 1 6 0M192.154 97.575a3 3 0 1 1-6 0 3 3 0 0 1 6 0M125.906 106.231a3 3 0 1 1-6 0 3 3 0 0 1 6 0M9.335 126.343a3 3 0 1 1-6 0 3 3 0 0 1 6 0M53.958 197.482a3 3 0 1 1-6 0 3 3 0 0 1 6 0M165.54 195.704a3 3 0 1 1-6 0 3 3 0 0 1 6 0M93.789 3.575a3 3 0 1 1-6 0 3 3 0 0 1 6 0"/></g><defs><clipPath id="a"><path fill="#fff" d="M.185.575h200v200h-200z"/></clipPath></defs></svg>