<svg xmlns="http://www.w3.org/2000/svg" width="201" height="201" fill="none"><g fill="#0D0A07" clip-path="url(#a)"><path fill-rule="evenodd" d="M117.445 95.295 55.502 114.48l-.293-.968 61.944-19.185z" clip-rule="evenodd"/><path fill-rule="evenodd" d="m145.187 3.06-27.454 91.745-.956-.293L144.23 2.766z" clip-rule="evenodd"/><path fill-rule="evenodd" d="m117.447 94.148 27.454 105.235-.967.259L116.48 94.407z" clip-rule="evenodd"/><path d="M120.122 94.769a3 3 0 1 1-6 0 3 3 0 0 1 6 0M146.941 197.575a3 3 0 1 1-6 0 3 3 0 0 1 6 0M147.68 3.575a3 3 0 1 1-6.001 0 3 3 0 0 1 6.001 0M58.679 114.214a3 3 0 1 1-6 0 3 3 0 0 1 6 0"/></g><defs><clipPath id="a"><path fill="#fff" d="M.185.575h200v200h-200z"/></clipPath></defs></svg>