<svg width="201" height="201" viewBox="0 0 201 201" fill="none" xmlns="http://www.w3.org/2000/svg">
<g clip-path="url(#clip0_259_3329)">
<path fill-rule="evenodd" clip-rule="evenodd" d="M117.445 95.2951L55.5017 114.48L55.2091 113.512L117.153 94.3272L117.445 95.2951Z" fill="#0D0A07"/>
<path fill-rule="evenodd" clip-rule="evenodd" d="M145.187 3.05938L117.733 94.8054L116.777 94.512L144.23 2.76593L145.187 3.05938Z" fill="#0D0A07"/>
<path fill-rule="evenodd" clip-rule="evenodd" d="M117.447 94.1484L144.901 199.383L143.934 199.642L116.48 94.4069L117.447 94.1484Z" fill="#0D0A07"/>
<path d="M120.122 94.7688C120.122 96.4257 118.779 97.7688 117.122 97.7688C115.465 97.7688 114.122 96.4257 114.122 94.7688C114.122 93.112 115.465 91.7688 117.122 91.7688C118.779 91.7688 120.122 93.112 120.122 94.7688Z" fill="#0D0A07"/>
<path d="M146.941 197.575C146.941 199.232 145.597 200.575 143.941 200.575C142.284 200.575 140.941 199.232 140.941 197.575C140.941 195.918 142.284 194.575 143.941 194.575C145.597 194.575 146.941 195.918 146.941 197.575Z" fill="#0D0A07"/>
<path d="M147.68 3.5752C147.68 5.23205 146.336 6.5752 144.68 6.5752C143.023 6.5752 141.68 5.23205 141.68 3.5752C141.68 1.91834 143.023 0.575195 144.68 0.575195C146.336 0.575195 147.68 1.91834 147.68 3.5752Z" fill="#0D0A07"/>
<path d="M58.6787 114.214C58.6787 115.871 57.3356 117.214 55.6787 117.214C54.0219 117.214 52.6787 115.871 52.6787 114.214C52.6787 112.557 54.0219 111.214 55.6787 111.214C57.3356 111.214 58.6787 112.557 58.6787 114.214Z" fill="#0D0A07"/>
</g>
<defs>
<clipPath id="clip0_259_3329">
<rect width="200" height="200" fill="white" transform="translate(0.18457 0.575195)"/>
</clipPath>
</defs>
</svg>
