<svg width="201" height="201" viewBox="0 0 201 201" fill="none" xmlns="http://www.w3.org/2000/svg">
<path fill-rule="evenodd" clip-rule="evenodd" d="M83.568 197.255L43.4685 127.801L44.3345 127.301L84.434 196.755L83.568 197.255Z" fill="#0D0A07"/>
<path fill-rule="evenodd" clip-rule="evenodd" d="M158.844 119.428L110.729 72.8741L111.424 72.1554L159.54 118.709L158.844 119.428Z" fill="#0D0A07"/>
<path fill-rule="evenodd" clip-rule="evenodd" d="M111.714 73.5685L93.6388 6.11151L94.6048 5.85269L112.68 73.3097L111.714 73.5685Z" fill="#0D0A07"/>
<path fill-rule="evenodd" clip-rule="evenodd" d="M86.1701 197.551L158.269 120.54L158.999 121.224L86.9001 198.235L86.1701 197.551Z" fill="#0D0A07"/>
<path d="M44.245 123.623C45.8454 124.052 46.7951 125.697 46.3663 127.298C45.9375 128.898 44.2925 129.848 42.6921 129.419C41.0917 128.99 40.1419 127.345 40.5707 125.745C40.9996 124.144 42.6446 123.194 44.245 123.623Z" fill="#0D0A07"/>
<path d="M112.835 70.4519C114.435 70.8807 115.385 72.5257 114.956 74.1261C114.527 75.7265 112.882 76.6762 111.282 76.2474C109.681 75.8186 108.732 74.1736 109.161 72.5732C109.589 70.9728 111.234 70.023 112.835 70.4519Z" fill="#0D0A07"/>
<path d="M94.1914 1.58173C95.7918 2.01055 96.7415 3.65556 96.3127 5.25596C95.8839 6.85636 94.2388 7.80611 92.6384 7.37728C91.038 6.94846 90.0883 5.30345 90.5171 3.70305C90.9459 2.10265 92.591 1.1529 94.1914 1.58173Z" fill="#0D0A07"/>
<path d="M86.1065 193.619C87.7069 194.048 88.6567 195.693 88.2278 197.294C87.799 198.894 86.154 199.844 84.5536 199.415C82.9532 198.986 82.0035 197.341 82.4323 195.741C82.8611 194.14 84.5061 193.191 86.1065 193.619Z" fill="#0D0A07"/>
<path d="M158.195 117.155C159.795 117.584 160.745 119.229 160.316 120.829C159.887 122.429 158.242 123.379 156.642 122.95C155.042 122.522 154.092 120.877 154.521 119.276C154.95 117.676 156.595 116.726 158.195 117.155Z" fill="#0D0A07"/>
</svg>
