<svg width="201" height="201" viewBox="0 0 201 201" fill="none" xmlns="http://www.w3.org/2000/svg">
<g clip-path="url(#clip0_259_3335)">
<path fill-rule="evenodd" clip-rule="evenodd" d="M184.487 94.1852L157.714 4.38442L158.671 4.09234L185.444 93.8932L184.487 94.1852Z" fill="#0D0A07"/>
<path fill-rule="evenodd" clip-rule="evenodd" d="M106.965 84.1462L68.9193 4.32322L69.8181 3.88485L107.864 83.7078L106.965 84.1462Z" fill="#0D0A07"/>
<path fill-rule="evenodd" clip-rule="evenodd" d="M184.198 93.6069L109.459 85.3295L109.566 84.3353L184.306 92.6128L184.198 93.6069Z" fill="#0D0A07"/>
<path fill-rule="evenodd" clip-rule="evenodd" d="M107.599 85.692L100.553 134.156L99.5641 134.009L106.61 85.5449L107.599 85.692Z" fill="#0D0A07"/>
<path fill-rule="evenodd" clip-rule="evenodd" d="M54.3828 124.069L100.883 132.621L100.706 133.605L54.2059 125.053L54.3828 124.069Z" fill="#0D0A07"/>
<path fill-rule="evenodd" clip-rule="evenodd" d="M108.951 85.1352L55.4047 125.047L54.8159 124.238L108.362 84.3269L108.951 85.1352Z" fill="#0D0A07"/>
<path fill-rule="evenodd" clip-rule="evenodd" d="M55.5063 124.988L17.4605 139.242L17.1167 138.303L55.1625 124.049L55.5063 124.988Z" fill="#0D0A07"/>
<path fill-rule="evenodd" clip-rule="evenodd" d="M99.731 134.156L78.5944 196.874L77.6491 196.548L98.7856 133.83L99.731 134.156Z" fill="#0D0A07"/>
<path d="M160.714 3.34045C160.714 4.99731 159.371 6.34045 157.714 6.34045C156.057 6.34045 154.714 4.99731 154.714 3.34045C154.714 1.6836 156.057 0.340454 157.714 0.340454C159.371 0.340454 160.714 1.6836 160.714 3.34045Z" fill="#0D0A07"/>
<path d="M71.5446 3.32129C71.5446 4.97814 70.2014 6.32129 68.5446 6.32129C66.8877 6.32129 65.5446 4.97814 65.5446 3.32129C65.5446 1.66443 66.8877 0.321289 68.5446 0.321289C70.2014 0.321289 71.5446 1.66443 71.5446 3.32129Z" fill="#0D0A07"/>
<path d="M186.26 92.3201C186.26 93.9769 184.917 95.3201 183.26 95.3201C181.603 95.3201 180.26 93.9769 180.26 92.3201C180.26 90.6632 181.603 89.3201 183.26 89.3201C184.917 89.3201 186.26 90.6632 186.26 92.3201Z" fill="#0D0A07"/>
<path d="M110.852 84.6026C110.852 86.2594 109.509 87.6026 107.852 87.6026C106.195 87.6026 104.852 86.2594 104.852 84.6026C104.852 82.9457 106.195 81.6026 107.852 81.6026C109.509 81.6026 110.852 82.9457 110.852 84.6026Z" fill="#0D0A07"/>
<path d="M102.731 132.94C102.731 134.597 101.388 135.94 99.731 135.94C98.0741 135.94 96.731 134.597 96.731 132.94C96.731 131.283 98.0741 129.94 99.731 129.94C101.388 129.94 102.731 131.283 102.731 132.94Z" fill="#0D0A07"/>
<path d="M80.5446 197.252C80.5446 198.909 79.2014 200.252 77.5446 200.252C75.8877 200.252 74.5446 198.909 74.5446 197.252C74.5446 195.595 75.8877 194.252 77.5446 194.252C79.2014 194.252 80.5446 195.595 80.5446 197.252Z" fill="#0D0A07"/>
<path d="M57.6396 124.744C57.6396 126.401 56.2965 127.744 54.6396 127.744C52.9828 127.744 51.6396 126.401 51.6396 124.744C51.6396 123.087 52.9828 121.744 54.6396 121.744C56.2965 121.744 57.6396 123.087 57.6396 124.744Z" fill="#0D0A07"/>
<path d="M18.5635 139.242C18.5635 140.899 17.2203 142.242 15.5635 142.242C13.9066 142.242 12.5635 140.899 12.5635 139.242C12.5635 137.585 13.9066 136.242 15.5635 136.242C17.2203 136.242 18.5635 137.585 18.5635 139.242Z" fill="#0D0A07"/>
</g>
<defs>
<clipPath id="clip0_259_3335">
<rect width="200" height="200" fill="white" transform="translate(0.18457 0.321289)"/>
</clipPath>
</defs>
</svg>
