<svg xmlns="http://www.w3.org/2000/svg" width="201" height="201" fill="none"><g fill="#0D0A07" clip-path="url(#a)"><path fill-rule="evenodd" d="m184.487 94.185-26.773-89.8.957-.293 26.773 89.801zM106.965 84.146 68.919 4.323l.9-.438 38.045 79.823z" clip-rule="evenodd"/><path fill-rule="evenodd" d="m184.198 93.607-74.739-8.278.107-.994 74.74 8.278zM107.599 85.692l-7.046 48.464-.989-.147 7.046-48.464z" clip-rule="evenodd"/><path fill-rule="evenodd" d="m54.383 124.069 46.5 8.552-.177.984-46.5-8.552z" clip-rule="evenodd"/><path fill-rule="evenodd" d="m108.951 85.135-53.546 39.912-.59-.809 53.547-39.911z" clip-rule="evenodd"/><path fill-rule="evenodd" d="m55.506 124.988-38.045 14.254-.344-.939 38.046-14.254zM99.731 134.156l-21.137 62.718-.945-.326 21.137-62.718z" clip-rule="evenodd"/><path d="M160.714 3.34a3 3 0 1 1-6 0 3 3 0 0 1 6 0M71.545 3.321a3 3 0 1 1-6 0 3 3 0 0 1 6 0M186.26 92.32a3 3 0 1 1-6 0 3 3 0 0 1 6 0M110.852 84.603a3 3 0 1 1-6 0 3 3 0 0 1 6 0M102.731 132.94a3 3 0 1 1-6 0 3 3 0 0 1 6 0M80.545 197.252a3 3 0 1 1-6 0 3 3 0 0 1 6 0M57.64 124.744a3 3 0 1 1-6 0 3 3 0 0 1 6 0M18.564 139.242a3 3 0 1 1-6 0 3 3 0 0 1 6 0"/></g><defs><clipPath id="a"><path fill="#fff" d="M.185.321h200v200h-200z"/></clipPath></defs></svg>