<svg width="201" height="201" viewBox="0 0 201 201" fill="none" xmlns="http://www.w3.org/2000/svg">
<path fill-rule="evenodd" clip-rule="evenodd" d="M56.6982 156.696L89.7485 189.328L89.0459 190.04L55.9956 157.407L56.6982 156.696Z" fill="#0D0A07"/>
<path fill-rule="evenodd" clip-rule="evenodd" d="M56.1806 156.435L118.78 122.294L119.259 123.172L56.6594 157.313L56.1806 156.435Z" fill="#0D0A07"/>
<path fill-rule="evenodd" clip-rule="evenodd" d="M76.1443 74.5085L119.554 122.74L118.811 123.409L75.4011 75.1774L76.1443 74.5085Z" fill="#0D0A07"/>
<path fill-rule="evenodd" clip-rule="evenodd" d="M5.775 38.0083L75.2644 74.4665L74.7998 75.3521L5.31041 38.8938L5.775 38.0083Z" fill="#0D0A07"/>
<path fill-rule="evenodd" clip-rule="evenodd" d="M40.8639 83.0922L76.1435 74.5086L76.3799 75.4802L41.1003 84.0638L40.8639 83.0922Z" fill="#0D0A07"/>
<path fill-rule="evenodd" clip-rule="evenodd" d="M27.2911 107.799L40.7134 83.0054L41.5928 83.4814L28.1705 108.275L27.2911 107.799Z" fill="#0D0A07"/>
<path fill-rule="evenodd" clip-rule="evenodd" d="M75.9424 74.8576L76.4474 44.9597L77.4473 44.9766L76.9423 74.8745L75.9424 74.8576Z" fill="#0D0A07"/>
<path fill-rule="evenodd" clip-rule="evenodd" d="M75.0742 75.3652L58.2674 48.3849L59.1162 47.8562L75.923 74.8365L75.0742 75.3652Z" fill="#0D0A07"/>
<path fill-rule="evenodd" clip-rule="evenodd" d="M75.9435 44.1297L101.701 2.83623L102.55 3.36548L76.792 44.659L75.9435 44.1297Z" fill="#0D0A07"/>
<path fill-rule="evenodd" clip-rule="evenodd" d="M59.2706 48.2626L102.335 3.2799L103.058 3.97144L59.9929 48.9541L59.2706 48.2626Z" fill="#0D0A07"/>
<path fill-rule="evenodd" clip-rule="evenodd" d="M130.878 144.22L117.766 122.613L118.621 122.094L131.733 143.701L130.878 144.22Z" fill="#0D0A07"/>
<path fill-rule="evenodd" clip-rule="evenodd" d="M148.903 123.877L119.553 122.74L119.592 121.741L148.941 122.878L148.903 123.877Z" fill="#0D0A07"/>
<path fill-rule="evenodd" clip-rule="evenodd" d="M151.576 93.6875L148.634 123.722L147.639 123.624L150.581 93.59L151.576 93.6875Z" fill="#0D0A07"/>
<path fill-rule="evenodd" clip-rule="evenodd" d="M151.172 94.2654L173.844 122.411L173.065 123.038L150.394 94.8927L151.172 94.2654Z" fill="#0D0A07"/>
<path fill-rule="evenodd" clip-rule="evenodd" d="M147.584 123.116L174.412 124.012L174.379 125.012L147.551 124.115L147.584 123.116Z" fill="#0D0A07"/>
<path fill-rule="evenodd" clip-rule="evenodd" d="M156.487 152.474L173.469 123.061L174.335 123.561L157.353 152.974L156.487 152.474Z" fill="#0D0A07"/>
<path fill-rule="evenodd" clip-rule="evenodd" d="M177.945 87.8142L195.377 6.75704L196.354 6.96729L178.923 88.0245L177.945 87.8142Z" fill="#0D0A07"/>
<path fill-rule="evenodd" clip-rule="evenodd" d="M76.1162 74.5571L195.377 6.75713L195.871 7.62646L76.6104 75.4264L76.1162 74.5571Z" fill="#0D0A07"/>
<path fill-rule="evenodd" clip-rule="evenodd" d="M176.993 165.263L156.076 153.187L156.576 152.321L177.493 164.397L176.993 165.263Z" fill="#0D0A07"/>
<path fill-rule="evenodd" clip-rule="evenodd" d="M194.276 175.242L173.359 163.166L173.859 162.3L194.776 174.376L194.276 175.242Z" fill="#0D0A07"/>
<path d="M195.259 178.242C193.602 178.242 192.259 176.899 192.259 175.242C192.259 173.585 193.602 172.242 195.259 172.242C196.916 172.242 198.259 173.585 198.259 175.242C198.259 176.899 196.916 178.242 195.259 178.242Z" fill="#0D0A07"/>
<path d="M174.975 165.263C174.975 163.606 176.318 162.263 177.975 162.263C179.631 162.263 180.975 163.606 180.975 165.263C180.975 166.92 179.631 168.263 177.975 168.263C176.318 168.263 174.975 166.92 174.975 165.263Z" fill="#0D0A07"/>
<path d="M156.879 155.434C155.445 154.605 154.953 152.771 155.781 151.336C156.61 149.901 158.445 149.409 159.879 150.238C161.314 151.066 161.806 152.901 160.978 154.336C160.149 155.771 158.314 156.262 156.879 155.434Z" fill="#0D0A07"/>
<path d="M173.845 126.727C172.188 126.727 170.845 125.384 170.845 123.727C170.845 122.07 172.188 120.727 173.845 120.727C175.502 120.727 176.845 122.07 176.845 123.727C176.845 125.384 175.502 126.727 173.845 126.727Z" fill="#0D0A07"/>
<path d="M151.576 99.1897C149.919 99.1897 148.576 97.8466 148.576 96.1897C148.576 94.5328 149.919 93.1897 151.576 93.1897C153.233 93.1897 154.576 94.5328 154.576 96.1897C154.576 97.8466 153.233 99.1897 151.576 99.1897Z" fill="#0D0A07"/>
<path d="M176.91 91.3524C175.475 90.524 174.983 88.6892 175.812 87.2543C176.64 85.8194 178.475 85.3278 179.91 86.1562C181.345 86.9847 181.836 88.8194 181.008 90.2543C180.179 91.6892 178.345 92.1808 176.91 91.3524Z" fill="#0D0A07"/>
<path d="M193.252 10.9466C191.817 10.1182 191.325 8.28344 192.153 6.84856C192.982 5.41369 194.817 4.92206 196.252 5.75049C197.686 6.57892 198.178 8.41369 197.35 9.84856C196.521 11.2834 194.686 11.7751 193.252 10.9466Z" fill="#0D0A07"/>
<path d="M74.8238 77.0585C73.3889 76.23 72.8973 74.3953 73.7257 72.9604C74.5541 71.5255 76.3889 71.0339 77.8238 71.8623C79.2587 72.6907 79.7503 74.5255 78.9219 75.9604C78.0934 77.3953 76.2587 77.8869 74.8238 77.0585Z" fill="#0D0A07"/>
<path d="M5.03278 41.2362C3.59791 40.4078 3.10628 38.573 3.93471 37.1381C4.76313 35.7032 6.59791 35.2116 8.03278 36.04C9.46766 36.8685 9.95929 38.7032 9.13086 40.1381C8.30243 41.573 6.46766 42.0646 5.03278 41.2362Z" fill="#0D0A07"/>
<path d="M26.1383 111.257C24.7034 110.429 24.2117 108.594 25.0402 107.159C25.8686 105.724 27.7034 105.233 29.1383 106.061C30.5731 106.889 31.0648 108.724 30.2363 110.159C29.4079 111.594 27.5731 112.086 26.1383 111.257Z" fill="#0D0A07"/>
<path d="M40.1177 86.7015C38.6829 85.8731 38.1912 84.0383 39.0197 82.6034C39.8481 81.1686 41.6829 80.6769 43.1177 81.5054C44.5526 82.3338 45.0442 84.1686 44.2158 85.6034C43.3874 87.0383 41.5526 87.53 40.1177 86.7015Z" fill="#0D0A07"/>
<path d="M58.9586 51.2162C57.5237 50.3877 57.0321 48.553 57.8605 47.1181C58.6889 45.6832 60.5237 45.1916 61.9586 46.02C63.3934 46.8484 63.8851 48.6832 63.0566 50.1181C62.2282 51.553 60.3934 52.0446 58.9586 51.2162Z" fill="#0D0A07"/>
<path d="M75.9215 47.2233C74.4866 46.3948 73.995 44.5601 74.8234 43.1252C75.6518 41.6903 77.4866 41.1987 78.9215 42.0271C80.3563 42.8555 80.848 44.6903 80.0195 46.1252C79.1911 47.5601 77.3563 48.0517 75.9215 47.2233Z" fill="#0D0A07"/>
<path d="M99.1031 7.54625C97.6682 6.71782 97.1766 4.88305 98.005 3.44817C98.8334 2.0133 100.668 1.52167 102.103 2.3501C103.538 3.17852 104.03 5.0133 103.201 6.44817C102.373 7.88305 100.538 8.37468 99.1031 7.54625Z" fill="#0D0A07"/>
<path d="M148.145 126.519C146.488 126.519 145.145 125.176 145.145 123.519C145.145 121.862 146.488 120.519 148.145 120.519C149.801 120.519 151.145 121.862 151.145 123.519C151.145 125.176 149.801 126.519 148.145 126.519Z" fill="#0D0A07"/>
<path d="M118.78 125.692C117.123 125.692 115.78 124.349 115.78 122.692C115.78 121.035 117.123 119.692 118.78 119.692C120.437 119.692 121.78 121.035 121.78 122.692C121.78 124.349 120.437 125.692 118.78 125.692Z" fill="#0D0A07"/>
<path d="M57.4111 160.079C55.7543 160.079 54.4111 158.736 54.4111 157.079C54.4111 155.422 55.7543 154.079 57.4111 154.079C59.068 154.079 60.4111 155.422 60.4111 157.079C60.4111 158.736 59.068 160.079 57.4111 160.079Z" fill="#0D0A07"/>
<path d="M89.2002 192.517C87.5433 192.517 86.2002 191.174 86.2002 189.517C86.2002 187.86 87.5433 186.517 89.2002 186.517C90.857 186.517 92.2002 187.86 92.2002 189.517C92.2002 191.174 90.857 192.517 89.2002 192.517Z" fill="#0D0A07"/>
<path d="M131.672 147.132C130.015 147.132 128.672 145.788 128.672 144.132C128.672 142.475 130.015 141.132 131.672 141.132C133.329 141.132 134.672 142.475 134.672 144.132C134.672 145.788 133.329 147.132 131.672 147.132Z" fill="#0D0A07"/>
</svg>
