<svg xmlns="http://www.w3.org/2000/svg" width="201" height="201" fill="none"><path fill="#0D0A07" fill-rule="evenodd" d="m120.387 63.232 11.366-58.738.981.19-11.365 58.738z" clip-rule="evenodd"/><path fill="#0D0A07" fill-rule="evenodd" d="m101.816 116.551 19.027-54.288.943.33-19.026 54.289z" clip-rule="evenodd"/><path fill="#0D0A07" fill-rule="evenodd" d="m89.03 172.401 12.786-56.145.975.222-12.786 56.145zM89.03 197.602l.016-24.381 1 .001-.016 24.381zM90.27 196.626l48.065-.581.012 1-48.065.581z" clip-rule="evenodd"/><path fill="#0D0A07" fill-rule="evenodd" d="m39.49 191.343 51.251 5.182-.1.995-51.251-5.182zM162.608 100.205l-22.284 6.342-.273-.962 22.283-6.341z" clip-rule="evenodd"/><path fill="#0D0A07" fill-rule="evenodd" d="m160.866 101.668-1.25-14.626.997-.085 1.25 14.625zM142.589 106.869l-6.638-13.093-.892.453 6.638 13.092z" clip-rule="evenodd"/><path fill="#0D0A07" d="M58.502 128.86a3 3 0 1 1-1.552-5.797 3 3 0 0 1 1.552 5.797M103.465 119.553a3 3 0 1 1-1.554-5.795 3 3 0 0 1 1.554 5.795M90.784 175.541a3 3 0 1 1-1.552-5.795 3 3 0 0 1 1.552 5.795M90.625 199.316a3 3 0 1 1-1.553-5.795 3 3 0 0 1 1.553 5.795M138.838 199.282a3 3 0 1 1-1.554-5.797 3 3 0 0 1 1.554 5.797M40.454 194.482a3 3 0 1 1-1.553-5.795 3 3 0 0 1 1.553 5.795M121.838 66.067a3 3 0 1 1-1.553-5.797 3 3 0 0 1 1.553 5.797M133.102 7.422a3 3 0 1 1-1.552-5.795 3 3 0 0 1 1.552 5.795M161.062 89.315a3 3 0 1 1-1.642-5.77 3 3 0 0 1 1.642 5.77M136.289 96.478a3 3 0 1 1-1.642-5.77 3 3 0 0 1 1.642 5.77M138.795 106.813a3.001 3.001 0 1 1 5.773-1.641 3.001 3.001 0 0 1-5.773 1.641M162.502 102.711a3 3 0 1 1-1.643-5.772 3 3 0 0 1 1.643 5.772"/></svg>