<svg width="201" height="201" viewBox="0 0 201 201" fill="none" xmlns="http://www.w3.org/2000/svg">
<path fill-rule="evenodd" clip-rule="evenodd" d="M120.387 63.2323L131.753 4.49423L132.734 4.68421L121.369 63.4222L120.387 63.2323Z" fill="#0D0A07"/>
<path fill-rule="evenodd" clip-rule="evenodd" d="M101.816 116.551L120.843 62.263L121.786 62.5938L102.76 116.882L101.816 116.551Z" fill="#0D0A07"/>
<path fill-rule="evenodd" clip-rule="evenodd" d="M89.0297 172.401L101.816 116.256L102.791 116.478L90.0047 172.623L89.0297 172.401Z" fill="#0D0A07"/>
<path fill-rule="evenodd" clip-rule="evenodd" d="M89.0299 197.602L89.0463 173.221L90.0463 173.222L90.0299 197.603L89.0299 197.602Z" fill="#0D0A07"/>
<path fill-rule="evenodd" clip-rule="evenodd" d="M90.2695 196.626L138.335 196.045L138.347 197.045L90.2816 197.626L90.2695 196.626Z" fill="#0D0A07"/>
<path fill-rule="evenodd" clip-rule="evenodd" d="M39.4902 191.343L90.7413 196.525L90.6407 197.52L39.3896 192.338L39.4902 191.343Z" fill="#0D0A07"/>
<path fill-rule="evenodd" clip-rule="evenodd" d="M162.608 100.205L140.324 106.547L140.051 105.585L162.334 99.2437L162.608 100.205Z" fill="#0D0A07"/>
<path fill-rule="evenodd" clip-rule="evenodd" d="M160.866 101.668L159.616 87.0419L160.613 86.9567L161.863 101.582L160.866 101.668Z" fill="#0D0A07"/>
<path fill-rule="evenodd" clip-rule="evenodd" d="M142.589 106.869L135.951 93.7765L135.059 94.2287L141.697 107.321L142.589 106.869Z" fill="#0D0A07"/>
<path d="M58.5019 128.86C56.9015 129.288 55.2565 128.339 54.8276 126.738C54.3988 125.138 55.3486 123.493 56.949 123.064C58.5494 122.635 60.1944 123.585 60.6232 125.185C61.052 126.786 60.1023 128.431 58.5019 128.86Z" fill="#0D0A07"/>
<path d="M103.465 119.553C101.864 119.982 100.219 119.032 99.7905 117.431C99.3617 115.831 100.311 114.186 101.912 113.757C103.512 113.328 105.157 114.278 105.586 115.879C106.015 117.479 105.065 119.124 103.465 119.553Z" fill="#0D0A07"/>
<path d="M90.7844 175.541C89.184 175.97 87.539 175.02 87.1101 173.419C86.6813 171.819 87.6311 170.174 89.2315 169.745C90.8319 169.316 92.4769 170.266 92.9057 171.866C93.3345 173.467 92.3848 175.112 90.7844 175.541Z" fill="#0D0A07"/>
<path d="M90.6253 199.316C89.0249 199.745 87.3799 198.795 86.9511 197.194C86.5222 195.594 87.472 193.949 89.0724 193.52C90.6728 193.091 92.3178 194.041 92.7466 195.642C93.1754 197.242 92.2257 198.887 90.6253 199.316Z" fill="#0D0A07"/>
<path d="M138.838 199.282C137.237 199.711 135.592 198.761 135.163 197.161C134.734 195.561 135.684 193.916 137.285 193.487C138.885 193.058 140.53 194.008 140.959 195.608C141.388 197.208 140.438 198.853 138.838 199.282Z" fill="#0D0A07"/>
<path d="M40.454 194.482C38.8536 194.911 37.2086 193.961 36.7797 192.36C36.3509 190.76 37.3006 189.115 38.901 188.686C40.5014 188.257 42.1465 189.207 42.5753 190.808C43.0041 192.408 42.0544 194.053 40.454 194.482Z" fill="#0D0A07"/>
<path d="M121.838 66.0671C120.237 66.4959 118.592 65.5462 118.163 63.9458C117.735 62.3454 118.684 60.7004 120.285 60.2716C121.885 59.8427 123.53 60.7925 123.959 62.3929C124.388 63.9933 123.438 65.6383 121.838 66.0671Z" fill="#0D0A07"/>
<path d="M133.102 7.4222C131.502 7.85103 129.857 6.90128 129.428 5.30088C128.999 3.70049 129.949 2.05547 131.549 1.62665C133.15 1.19782 134.795 2.14757 135.224 3.74797C135.652 5.34837 134.703 6.99338 133.102 7.4222Z" fill="#0D0A07"/>
<path d="M161.062 89.3145C159.469 89.768 157.809 88.8438 157.356 87.2502C156.902 85.6566 157.827 83.9971 159.42 83.5436C161.014 83.0901 162.673 84.0144 163.127 85.6079C163.58 87.2015 162.656 88.861 161.062 89.3145Z" fill="#0D0A07"/>
<path d="M136.289 96.4777C134.696 96.9312 133.036 96.0069 132.583 94.4133C132.129 92.8198 133.054 91.1603 134.647 90.7068C136.241 90.2533 137.9 91.1775 138.354 92.7711C138.807 94.3647 137.883 96.0242 136.289 96.4777Z" fill="#0D0A07"/>
<path d="M138.795 106.813C138.342 105.219 139.266 103.56 140.86 103.106C142.453 102.653 144.113 103.577 144.566 105.171C145.02 106.764 144.096 108.424 142.502 108.877C140.908 109.331 139.249 108.407 138.795 106.813Z" fill="#0D0A07"/>
<path d="M162.502 102.711C160.908 103.165 159.249 102.24 158.795 100.647C158.342 99.0531 159.266 97.3936 160.859 96.9401C162.453 96.4866 164.113 97.4109 164.566 99.0045C165.02 100.598 164.095 102.258 162.502 102.711Z" fill="#0D0A07"/>
</svg>
