<svg width="201" height="201" viewBox="0 0 201 201" fill="none" xmlns="http://www.w3.org/2000/svg">
<g clip-path="url(#clip0_259_3337)">
<path fill-rule="evenodd" clip-rule="evenodd" d="M72.8804 32.0915L89.7775 2.64275L90.6449 3.14042L73.7477 32.5891L72.8804 32.0915Z" fill="#0D0A07"/>
<path fill-rule="evenodd" clip-rule="evenodd" d="M59.0384 34.1641L72.2374 31.8076L72.4132 32.792L59.2141 35.1486L59.0384 34.1641Z" fill="#0D0A07"/>
<path fill-rule="evenodd" clip-rule="evenodd" d="M59.281 34.9734L26.8966 21.3192L27.2851 20.3977L59.6695 34.052L59.281 34.9734Z" fill="#0D0A07"/>
<path fill-rule="evenodd" clip-rule="evenodd" d="M78.531 87.711L58.641 34.6864L59.5773 34.3352L79.4673 87.3598L78.531 87.711Z" fill="#0D0A07"/>
<path fill-rule="evenodd" clip-rule="evenodd" d="M79.3396 86.5355L90.4196 123.411L89.4619 123.698L78.3819 86.8233L79.3396 86.5355Z" fill="#0D0A07"/>
<path fill-rule="evenodd" clip-rule="evenodd" d="M47.3603 94.2406L90.4196 123.411L89.8587 124.239L46.7994 95.0685L47.3603 94.2406Z" fill="#0D0A07"/>
<path fill-rule="evenodd" clip-rule="evenodd" d="M46.5036 94.8823L37.8566 85.9503L38.5751 85.2547L47.2221 94.1868L46.5036 94.8823Z" fill="#0D0A07"/>
<path fill-rule="evenodd" clip-rule="evenodd" d="M35.5947 82.0713L35.2881 53.2048L36.288 53.1942L36.5946 82.0607L35.5947 82.0713Z" fill="#0D0A07"/>
<path fill-rule="evenodd" clip-rule="evenodd" d="M35.5947 82.8959L35.2881 54.0294L36.288 54.0188L36.5946 82.8852L35.5947 82.8959Z" fill="#0D0A07"/>
<path fill-rule="evenodd" clip-rule="evenodd" d="M47.3599 58.613L35.395 53.7504L35.7715 52.8239L47.7364 57.6866L47.3599 58.613Z" fill="#0D0A07"/>
<path fill-rule="evenodd" clip-rule="evenodd" d="M90.4079 124.435L21.7417 147.262L21.4262 146.313L90.0924 123.486L90.4079 124.435Z" fill="#0D0A07"/>
<path fill-rule="evenodd" clip-rule="evenodd" d="M91.5949 123.782L78.7827 146.609L77.9107 146.119L90.7229 123.292L91.5949 123.782Z" fill="#0D0A07"/>
<path fill-rule="evenodd" clip-rule="evenodd" d="M104.799 133.487L95.9749 157.7L95.0353 157.358L103.859 133.145L104.799 133.487Z" fill="#0D0A07"/>
<path fill-rule="evenodd" clip-rule="evenodd" d="M105.325 131.623L125.178 155.616L124.407 156.253L104.555 132.26L105.325 131.623Z" fill="#0D0A07"/>
<path fill-rule="evenodd" clip-rule="evenodd" d="M124.601 154.576L132.749 165.812L131.939 166.399L123.791 155.163L124.601 154.576Z" fill="#0D0A07"/>
<path fill-rule="evenodd" clip-rule="evenodd" d="M132.683 166.955L148.942 161.938L149.237 162.893L132.978 167.91L132.683 166.955Z" fill="#0D0A07"/>
<path fill-rule="evenodd" clip-rule="evenodd" d="M148.942 161.993V146.799H149.942V161.993H148.942Z" fill="#0D0A07"/>
<path fill-rule="evenodd" clip-rule="evenodd" d="M135.269 106.144L133.857 79.5023L134.855 79.4494L136.267 106.091L135.269 106.144Z" fill="#0D0A07"/>
<path fill-rule="evenodd" clip-rule="evenodd" d="M164.195 96.809L133.27 80.0234L133.747 79.1445L164.672 95.9301L164.195 96.809Z" fill="#0D0A07"/>
<path fill-rule="evenodd" clip-rule="evenodd" d="M177.101 123.782L164.195 96.809L165.097 96.3776L178.003 123.351L177.101 123.782Z" fill="#0D0A07"/>
<path fill-rule="evenodd" clip-rule="evenodd" d="M177.101 125.928L164.195 135.11L163.615 134.295L176.522 125.113L177.101 125.928Z" fill="#0D0A07"/>
<path fill-rule="evenodd" clip-rule="evenodd" d="M164.098 134.917L132.193 140.592L132.018 139.607L163.923 133.933L164.098 134.917Z" fill="#0D0A07"/>
<path fill-rule="evenodd" clip-rule="evenodd" d="M133.478 138.77L135.269 106.787L136.267 106.843L134.476 138.826L133.478 138.77Z" fill="#0D0A07"/>
<path fill-rule="evenodd" clip-rule="evenodd" d="M77.4241 147.759L60.3271 171.42L59.5166 170.834L76.6136 147.174L77.4241 147.759Z" fill="#0D0A07"/>
<path fill-rule="evenodd" clip-rule="evenodd" d="M60.7676 169L74.476 185.629L73.7044 186.265L59.996 169.636L60.7676 169Z" fill="#0D0A07"/>
<path fill-rule="evenodd" clip-rule="evenodd" d="M77.4241 145.574L95.9747 155.616L95.4987 156.495L76.9481 146.453L77.4241 145.574Z" fill="#0D0A07"/>
<path fill-rule="evenodd" clip-rule="evenodd" d="M91.595 123.591L105.837 131.623L105.345 132.494L91.1038 124.462L91.595 123.591Z" fill="#0D0A07"/>
<path fill-rule="evenodd" clip-rule="evenodd" d="M65.0124 195.513L74.0156 183.718L74.8105 184.324L65.8074 196.12L65.0124 195.513Z" fill="#0D0A07"/>
<path fill-rule="evenodd" clip-rule="evenodd" d="M135.252 107.949L90.4196 125.215L90.0602 124.281L134.892 107.016L135.252 107.949Z" fill="#0D0A07"/>
<path fill-rule="evenodd" clip-rule="evenodd" d="M90.4192 53.8351L71.9487 32.0917L72.7108 31.4443L91.1814 53.1877L90.4192 53.8351Z" fill="#0D0A07"/>
<path fill-rule="evenodd" clip-rule="evenodd" d="M104.41 53.8351L90.4192 53.8351L90.4196 52.8351H104.41V53.8351Z" fill="#0D0A07"/>
<path fill-rule="evenodd" clip-rule="evenodd" d="M121.967 58.3414L104.41 53.8351L104.658 52.8665L122.215 57.3728L121.967 58.3414Z" fill="#0D0A07"/>
<path fill-rule="evenodd" clip-rule="evenodd" d="M123.251 58.3416L121.008 91.6721L120.01 91.6049L122.253 58.2744L123.251 58.3416Z" fill="#0D0A07"/>
<path fill-rule="evenodd" clip-rule="evenodd" d="M100.47 82.0707L120.006 91.6721L119.565 92.5696L100.029 82.9682L100.47 82.0707Z" fill="#0D0A07"/>
<path fill-rule="evenodd" clip-rule="evenodd" d="M99.6925 82.0706L90.0258 53.2048L90.974 52.8873L100.641 81.7531L99.6925 82.0706Z" fill="#0D0A07"/>
<path fill-rule="evenodd" clip-rule="evenodd" d="M78.5309 86.5353L90.0258 53.2048L90.9712 53.5308L79.4763 86.8614L78.5309 86.5353Z" fill="#0D0A07"/>
<path fill-rule="evenodd" clip-rule="evenodd" d="M78.5309 86.5353L90.0258 53.2048L90.9712 53.5308L79.4763 86.8614L78.5309 86.5353Z" fill="#0D0A07"/>
<path d="M92.7774 3.32129C92.7774 4.97814 91.4343 6.32129 89.7774 6.32129C88.1206 6.32129 86.7774 4.97814 86.7774 3.32129C86.7774 1.66443 88.1206 0.321289 89.7774 0.321289C91.4343 0.321289 92.7774 1.66443 92.7774 3.32129Z" fill="#0D0A07"/>
<path d="M30.321 20.597C30.321 22.2539 28.9779 23.597 27.321 23.597C25.6642 23.597 24.321 22.2539 24.321 20.597C24.321 18.9402 25.6642 17.597 27.321 17.597C28.9779 17.597 30.321 18.9402 30.321 20.597Z" fill="#0D0A07"/>
<path d="M62.7135 34.8076C62.7135 36.4644 61.3703 37.8076 59.7135 37.8076C58.0566 37.8076 56.7135 36.4644 56.7135 34.8076C56.7135 33.1507 58.0566 31.8076 59.7135 31.8076C61.3703 31.8076 62.7135 33.1507 62.7135 34.8076Z" fill="#0D0A07"/>
<path d="M75.6693 32.2396C75.6693 33.8964 74.3262 35.2396 72.6693 35.2396C71.0125 35.2396 69.6693 33.8964 69.6693 32.2396C69.6693 30.5827 71.0125 29.2396 72.6693 29.2396C74.3262 29.2396 75.6693 30.5827 75.6693 32.2396Z" fill="#0D0A07"/>
<path d="M93.851 53.6363C93.851 55.2931 92.5079 56.6363 90.851 56.6363C89.1942 56.6363 87.851 55.2931 87.851 53.6363C87.851 51.9794 89.1942 50.6363 90.851 50.6363C92.5079 50.6363 93.851 51.9794 93.851 53.6363Z" fill="#0D0A07"/>
<path d="M107.842 53.6363C107.842 55.2931 106.499 56.6363 104.842 56.6363C103.185 56.6363 101.842 55.2931 101.842 53.6363C101.842 51.9794 103.185 50.6363 104.842 50.6363C106.499 50.6363 107.842 51.9794 107.842 53.6363Z" fill="#0D0A07"/>
<path d="M125.399 58.7728C125.399 60.4297 124.056 61.7728 122.399 61.7728C120.742 61.7728 119.399 60.4297 119.399 58.7728C119.399 57.116 120.742 55.7728 122.399 55.7728C124.056 55.7728 125.399 57.116 125.399 58.7728Z" fill="#0D0A07"/>
<path d="M122.83 92.1042C122.83 93.761 121.487 95.1042 119.83 95.1042C118.174 95.1042 116.83 93.761 116.83 92.1042C116.83 90.4473 118.174 89.1042 119.83 89.1042C121.487 89.1042 122.83 90.4473 122.83 92.1042Z" fill="#0D0A07"/>
<path d="M103.901 82.5023C103.901 84.1591 102.558 85.5023 100.901 85.5023C99.2445 85.5023 97.9013 84.1591 97.9013 82.5023C97.9013 80.8454 99.2445 79.5023 100.901 79.5023C102.558 79.5023 103.901 80.8454 103.901 82.5023Z" fill="#0D0A07"/>
<path d="M81.7964 86.9671C81.7964 88.6239 80.4532 89.9671 78.7964 89.9671C77.1395 89.9671 75.7964 88.6239 75.7964 86.9671C75.7964 85.3102 77.1395 83.9671 78.7964 83.9671C80.4532 83.9671 81.7964 85.3102 81.7964 86.9671Z" fill="#0D0A07"/>
<path d="M93.851 123.842C93.851 125.499 92.5079 126.842 90.851 126.842C89.1942 126.842 87.851 125.499 87.851 123.842C87.851 122.185 89.1942 120.842 90.851 120.842C92.5079 120.842 93.851 122.185 93.851 123.842Z" fill="#0D0A07"/>
<path d="M25.1846 146.301C25.1846 147.958 23.8414 149.301 22.1846 149.301C20.5277 149.301 19.1846 147.958 19.1846 146.301C19.1846 144.645 20.5277 143.301 22.1846 143.301C23.8414 143.301 25.1846 144.645 25.1846 146.301Z" fill="#0D0A07"/>
<path d="M98.7643 156.048C98.7643 157.705 97.4211 159.048 95.7643 159.048C94.1074 159.048 92.7643 157.705 92.7643 156.048C92.7643 154.391 94.1074 153.048 95.7643 153.048C97.4211 153.048 98.7643 154.391 98.7643 156.048Z" fill="#0D0A07"/>
<path d="M107.842 132.055C107.842 133.711 106.499 135.055 104.842 135.055C103.185 135.055 101.842 133.711 101.842 132.055C101.842 130.398 103.185 129.055 104.842 129.055C106.499 129.055 107.842 130.398 107.842 132.055Z" fill="#0D0A07"/>
<path d="M80.8553 146.301C80.8553 147.958 79.5122 149.301 77.8553 149.301C76.1985 149.301 74.8553 147.958 74.8553 146.301C74.8553 144.645 76.1985 143.301 77.8553 143.301C79.5122 143.301 80.8553 144.645 80.8553 146.301Z" fill="#0D0A07"/>
<path d="M64.6347 169.432C64.6347 171.089 63.2915 172.432 61.6347 172.432C59.9778 172.432 58.6347 171.089 58.6347 169.432C58.6347 167.775 59.9778 166.432 61.6347 166.432C63.2915 166.432 64.6347 167.775 64.6347 169.432Z" fill="#0D0A07"/>
<path d="M67.2038 197.321C67.2038 198.978 65.8606 200.321 64.2038 200.321C62.5469 200.321 61.2038 198.978 61.2038 197.321C61.2038 195.664 62.5469 194.321 64.2038 194.321C65.8606 194.321 67.2038 195.664 67.2038 197.321Z" fill="#0D0A07"/>
<path d="M74.8756 185.02C74.8756 186.677 73.5325 188.02 71.8756 188.02C70.2188 188.02 68.8756 186.677 68.8756 185.02C68.8756 183.364 70.2188 182.02 71.8756 182.02C73.5325 182.02 74.8756 183.364 74.8756 185.02Z" fill="#0D0A07"/>
<path d="M136.115 166.864C136.115 168.521 134.772 169.864 133.115 169.864C131.459 169.864 130.115 168.521 130.115 166.864C130.115 165.207 131.459 163.864 133.115 163.864C134.772 163.864 136.115 165.207 136.115 166.864Z" fill="#0D0A07"/>
<path d="M127.997 156.033C127.997 157.69 126.654 159.033 124.997 159.033C123.34 159.033 121.997 157.69 121.997 156.033C121.997 154.376 123.34 153.033 124.997 153.033C126.654 153.033 127.997 154.376 127.997 156.033Z" fill="#0D0A07"/>
<path d="M136.744 138.783C136.744 140.44 135.401 141.783 133.744 141.783C132.087 141.783 130.744 140.44 130.744 138.783C130.744 137.126 132.087 135.783 133.744 135.783C135.401 135.783 136.744 137.126 136.744 138.783Z" fill="#0D0A07"/>
<path d="M137.288 80.4548C137.288 82.1117 135.945 83.4548 134.288 83.4548C132.631 83.4548 131.288 82.1117 131.288 80.4548C131.288 78.798 132.631 77.4548 134.288 77.4548C135.945 77.4548 137.288 78.798 137.288 80.4548Z" fill="#0D0A07"/>
<path d="M167.627 97.2406C167.627 98.8975 166.284 100.241 164.627 100.241C162.97 100.241 161.627 98.8975 161.627 97.2406C161.627 95.5838 162.97 94.2406 164.627 94.2406C166.284 94.2406 167.627 95.5838 167.627 97.2406Z" fill="#0D0A07"/>
<path d="M180.533 123.842C180.533 125.499 179.19 126.842 177.533 126.842C175.876 126.842 174.533 125.499 174.533 123.842C174.533 122.185 175.876 120.842 177.533 120.842C179.19 120.842 180.533 122.185 180.533 123.842Z" fill="#0D0A07"/>
<path d="M138.683 106.577C138.683 108.234 137.34 109.577 135.683 109.577C134.026 109.577 132.683 108.234 132.683 106.577C132.683 104.92 134.026 103.577 135.683 103.577C137.34 103.577 138.683 104.92 138.683 106.577Z" fill="#0D0A07"/>
<path d="M167.627 133.395C167.627 135.052 166.284 136.395 164.627 136.395C162.97 136.395 161.627 135.052 161.627 133.395C161.627 131.738 162.97 130.395 164.627 130.395C166.284 130.395 167.627 131.738 167.627 133.395Z" fill="#0D0A07"/>
<path d="M152.374 146.253C152.374 147.91 151.031 149.253 149.374 149.253C147.717 149.253 146.374 147.91 146.374 146.253C146.374 144.596 147.717 143.253 149.374 143.253C151.031 143.253 152.374 144.596 152.374 146.253Z" fill="#0D0A07"/>
<path d="M152.374 161.025C152.374 162.682 151.031 164.025 149.374 164.025C147.717 164.025 146.374 162.682 146.374 161.025C146.374 159.368 147.717 158.025 149.374 158.025C151.031 158.025 152.374 159.368 152.374 161.025Z" fill="#0D0A07"/>
<path d="M50.7917 94.6721C50.7917 96.3289 49.4486 97.6721 47.7917 97.6721C46.1349 97.6721 44.7917 96.3289 44.7917 94.6721C44.7917 93.0152 46.1349 91.6721 47.7917 91.6721C49.4486 91.6721 50.7917 93.0152 50.7917 94.6721Z" fill="#0D0A07"/>
<path d="M50.7917 58.7728C50.7917 60.4297 49.4486 61.7728 47.7917 61.7728C46.1349 61.7728 44.7917 60.4297 44.7917 58.7728C44.7917 57.116 46.1349 55.7728 47.7917 55.7728C49.4486 55.7728 50.7917 57.116 50.7917 58.7728Z" fill="#0D0A07"/>
<path d="M39.0258 53.6363C39.0258 55.2931 37.6827 56.6363 36.0258 56.6363C34.369 56.6363 33.0258 55.2931 33.0258 53.6363C33.0258 51.9794 34.369 50.6363 36.0258 50.6363C37.6827 50.6363 39.0258 51.9794 39.0258 53.6363Z" fill="#0D0A07"/>
<path d="M38.9337 81.3427C39.7621 82.7776 39.2705 84.6123 37.8356 85.4408C36.4007 86.2692 34.5659 85.7775 33.7375 84.3427C32.9091 82.9078 33.4007 81.073 34.8356 80.2446C36.2705 79.4162 38.1052 79.9078 38.9337 81.3427Z" fill="#0D0A07"/>
<path d="M40.4781 84.0178C41.3065 85.4526 40.8149 87.2874 39.38 88.1158C37.9451 88.9442 36.1103 88.4526 35.2819 87.0177C34.4535 85.5829 34.9451 83.7481 36.38 82.9197C37.8149 82.0913 39.6496 82.5829 40.4781 84.0178Z" fill="#0D0A07"/>
</g>
<defs>
<clipPath id="clip0_259_3337">
<rect width="200" height="200" fill="white" transform="translate(0.18457 0.321289)"/>
</clipPath>
</defs>
</svg>
